@ File generated by m4a2s Song-Module
	.include "MPlayDef.s"

	.equ	seq_000_grp, bank_000
	.equ	seq_000_pri, 0
	.equ	seq_000_rev, 168
	.equ	seq_000_mvl, 127
	.equ	seq_000_key, 0

	.section .rodata
	.global	seq_000
	.align	2

@*********************** Track 01 ***********************@

seq_000_0:
	.byte	KEYSH , seq_000_key+0
	.byte	TEMPO , 148/2
	.byte		VOL   , 68*seq_000_mvl/mxv
	.byte	W03
	.byte		PAN   , c_v+0
	.byte	W03
	.byte		BENDR , 12
	.byte	W03
	.byte		MODT  , mod_vib
	.byte	W03
	.byte		VOICE , 7
	.byte		PAN   , c_v+0
	.byte		N05   , Fn2 , v080
	.byte	W06
	.byte		        Fn2 , v052
	.byte	W06
	.byte		        Fn2 , v032
	.byte	W06
	.byte		PAN   , c_v-24
	.byte		N05   , Fs2 , v080
	.byte	W06
	.byte		        Fs2 , v052
	.byte	W06
	.byte		        Fs2 , v032
	.byte	W06
	.byte		PAN   , c_v+24
	.byte		N05   , Gn2 , v080
	.byte	W06
	.byte		        Gn2 , v052
	.byte	W06
	.byte		PAN   , c_v+0
	.byte		N05   , Gs2 , v080
	.byte	W06
	.byte		        Gs2 , v052
	.byte	W06
	.byte		VOICE , 30
	.byte		PAN   , c_v+0
	.byte		VOL   , 30*seq_000_mvl/mxv
	.byte		N32   , Gn3 , v112
	.byte	W06
	.byte		VOL   , 45*seq_000_mvl/mxv
	.byte	W06
	.byte		        52*seq_000_mvl/mxv
	.byte	W06
	.byte		        60*seq_000_mvl/mxv
	.byte	W06
	.byte		        75*seq_000_mvl/mxv
	.byte	W06
	.byte		        90*seq_000_mvl/mxv
	.byte	W06
	.byte		VOICE , 20
	.byte		VOL   , 64*seq_000_mvl/mxv
	.byte		PAN   , c_v+0
	.byte		N17   , Fn3 , v120
	.byte	W18
	.byte		PAN   , c_v-24
	.byte		N17
	.byte	W18
	.byte		PAN   , c_v+24
	.byte		N05
	.byte	W06
	.byte		        Fn3 , v032
	.byte	W06
	.byte		PAN   , c_v+0
	.byte		N17   , Fn3 , v120
	.byte	W18
	.byte		PAN   , c_v+24
	.byte		N17
	.byte	W18
	.byte		PAN   , c_v-24
	.byte		N05   , Fn3 , v120
	.byte	W06
	.byte		        Fn3 , v032
	.byte	W06
	.byte		PAN   , c_v+0
	.byte		N17   , Gn3 , v120
	.byte	W18
	.byte		PAN   , c_v-24
	.byte		N17
	.byte	W18
	.byte		PAN   , c_v+24
	.byte		N05
	.byte	W06
	.byte		        Gn3 , v032
	.byte	W06
	.byte		PAN   , c_v+0
	.byte		N17   , Gn3 , v120
	.byte	W18
	.byte		PAN   , c_v+24
	.byte		N17
	.byte	W18
	.byte	PEND
	.byte		PAN   , c_v-24
	.byte		N05   , Gn3 , v120
	.byte	W06
	.byte		        Gn3 , v032
	.byte	W06
	.byte		PAN   , c_v+0
	.byte		N17   , Fn3 , v120
	.byte	W18
	.byte		PAN   , c_v-24
	.byte		N17
	.byte	W18
	.byte		PAN   , c_v+24
	.byte		N05
	.byte	W06
	.byte		        Fn3 , v032
	.byte	W06
	.byte		PAN   , c_v+0
	.byte		N17   , Fn3 , v120
	.byte	W18
	.byte		PAN   , c_v+24
	.byte		N17
	.byte	W18
	.byte	PEND
	.byte	PATT
	 .word	seq_000_0 + 0x70
	.byte	PATT
	 .word	seq_000_0 + 0x95
	.byte	PATT
	 .word	seq_000_0 + 0x70
	.byte	PATT
	 .word	seq_000_0 + 0x95
	.byte		PAN   , c_v-24
	.byte		N05   , Fn3 , v120
	.byte	W06
	.byte		        Fn3 , v032
	.byte	W06
	.byte		PAN   , c_v+0
	.byte		N17   , Gn3 , v120
	.byte	W18
	.byte		PAN   , c_v-24
	.byte		N17
	.byte	W18
	.byte		PAN   , c_v+24
	.byte		N05
	.byte	W06
	.byte		        Gn3 , v032
	.byte	W06
	.byte		VOICE , 19
	.byte		PAN   , c_v-24
	.byte		N23   , Fn3 , v120
	.byte	W24
	.byte		PAN   , c_v+24
	.byte		N23
	.byte	W12
	.byte	W12
	.byte		VOICE , 28
	.byte		PAN   , c_v-44
	.byte		N92   , As2 , v100
	.byte	W24
	.byte		PAN   , c_v-24
	.byte	W24
	.byte		        c_v-4
	.byte	W24
	.byte		        c_v+16
	.byte	W12
	.byte	PEND
	.byte	W12
	.byte		VOICE , 23
	.byte		PAN   , c_v+36
	.byte		N92   , Gn2 , v100
	.byte	W24
	.byte		PAN   , c_v+16
	.byte	W24
	.byte		        c_v-4
	.byte	W24
	.byte		        c_v-24
	.byte	W12
	.byte	PEND
	.byte	W12
	.byte		        c_v-44
	.byte		N92   , Fn2 
	.byte	W24
	.byte		PAN   , c_v-24
	.byte	W24
	.byte		        c_v-4
	.byte	W24
	.byte		        c_v+16
	.byte	W12
	.byte	PATT
	 .word	seq_000_0 + 0x105
	.byte	PATT
	 .word	seq_000_0 + 0xF4
	.byte	PATT
	 .word	seq_000_0 + 0x105
	.byte	W12
	.byte		PAN   , c_v-44
	.byte		N44   , Fn2 , v100
	.byte	W24
	.byte		PAN   , c_v-24
	.byte	W24
	.byte		        c_v-4
	.byte		N44   , Gn2 
	.byte	W24
	.byte		PAN   , c_v+16
	.byte	W12
	.byte	W12
	.byte		        c_v+0
	.byte		N44   , An2 
	.byte	W30
	.byte		VOICE , 10
	.byte		N04   , Fn3 , v060
	.byte	W06
	.byte		        Fs3 
	.byte	W06
	.byte		        Gs3 
	.byte	W06
	.byte		VOICE , 22
	.byte		N17   , Bn2 , v100
	.byte	W18
	.byte		        Bn2 , v060
	.byte	W18
	.byte		N11   , Bn2 , v032
	.byte	W12
	.byte		VOICE , 20
	.byte		PAN   , c_v+0
	.byte		N17   , Fn3 , v120
	.byte	W18
	.byte		PAN   , c_v-24
	.byte		N17
	.byte	W18
	.byte		PAN   , c_v+24
	.byte		N05
	.byte	W06
	.byte		        Fn3 , v032
	.byte	W06
	.byte		PAN   , c_v+0
	.byte		N17   , Fn3 , v120
	.byte	W18
	.byte		PAN   , c_v+24
	.byte		N17
	.byte	W18
	.byte	PATT
	 .word	seq_000_0 + 0x70
	.byte	PATT
	 .word	seq_000_0 + 0x95
	.byte		PAN   , c_v-24
	.byte		N05   , Fn3 , v120
	.byte	W06
	.byte		        Fn3 , v032
	.byte	W06
	.byte		PAN   , c_v+0
	.byte		N17   , Gn3 , v120
	.byte	W18
	.byte		PAN   , c_v-24
	.byte		N17
	.byte	W18
	.byte		PAN   , c_v+24
	.byte		N05
	.byte	W06
	.byte		        Gn3 , v032
	.byte	W06
	.byte		VOICE , 19
	.byte		PAN   , c_v+0
	.byte		N17   , Fn3 , v120
	.byte	W18
	.byte		PAN   , c_v+24
	.byte		N17
	.byte	W18
	.byte		PAN   , c_v-24
	.byte		N05
	.byte	W06
	.byte		        Fn3 , v060
	.byte	W06
	.byte	GOTO
	 .word	seq_000_0 + 0x51
	.byte	FINE

@*********************** Track 02 ***********************@

seq_000_1:
	.byte	KEYSH , seq_000_key+0
	.byte		VOL   , 60*seq_000_mvl/mxv
	.byte	W01
	.byte	W01
	.byte		XCMD  , xIECV , 40
	.byte	W01
	.byte	W01
	.byte		        xIECL , 3
	.byte	W01
	.byte		BENDR , 12
	.byte	W02
	.byte		LFOS  , 31
	.byte	W01
	.byte		LFODL , 14
	.byte	W02
	.byte		MODT  , mod_vib
	.byte	W01
	.byte		MOD   , 6
	.byte	W01
	.byte		VOICE , 4
	.byte		N03   , Fn4 , v100
	.byte	W06
	.byte		N03
	.byte	W06
	.byte		N06   , Fn4 , v060
	.byte	W06
	.byte		PAN   , c_v-64
	.byte		N06   , Fs4 , v100
	.byte	W06
	.byte		        Fs4 , v060
	.byte	W06
	.byte		        Fs4 , v032
	.byte	W06
	.byte		PAN   , c_v+63
	.byte		N06   , Gn4 , v100
	.byte	W06
	.byte		        Gn4 , v060
	.byte	W06
	.byte		PAN   , c_v+0
	.byte		N06   , Gs4 , v100
	.byte	W06
	.byte		        Gs4 , v060
	.byte	W06
	.byte		        Gs4 , v032
	.byte	W06
	.byte		        Gs4 , v012
	.byte	W06
	.byte		VOICE , 24
	.byte	W03
	.byte		PAN   , c_v+0
	.byte	W03
	.byte		VOL   , 68*seq_000_mvl/mxv
	.byte	W06
	.byte		N06   , Cs4 , v100
	.byte	W06
	.byte		        Ds4 
	.byte	W06
	.byte		N30   , Fn4 , v100
	.byte	W30
	.byte		N06   , Fn4 , v060
	.byte	W06
	.byte		        Ds4 , v100
	.byte	W06
	.byte		        Cs4 
	.byte	W06
	.byte		N30   , Ds4 
	.byte	W30
	.byte		N06   , Ds4 , v060
	.byte	W06
	.byte		N06   , Cs4 , v100
	.byte	W06
	.byte		        Cn4 
	.byte	W06
	.byte		N30   , Cs4 
	.byte	W30
	.byte		N06   , Cs4 , v060
	.byte	W06
	.byte		        Cn4 , v100
	.byte	W06
	.byte		        As3 
	.byte	W06
	.byte		        Cn4 
	.byte	W06
	.byte		        Cn4 , v060
	.byte	W06
	.byte		        Cn4 , v032
	.byte	W06
	.byte		        Cs4 , v100
	.byte	W06
	.byte		        Cs4 , v060
	.byte	W06
	.byte		        Cs4 , v032
	.byte	W06
	.byte	PEND
	.byte		        Ds4 , v100
	.byte	W06
	.byte		        Ds4 , v060
	.byte	W06
	.byte		N18   , Cn4 , v100
	.byte	W18
	.byte		N06   , Gs3 
	.byte	W06
	.byte		        Gs3 , v060
	.byte	W06
	.byte		        Gs3 , v032
	.byte	W06
	.byte		        Fn3 , v100
	.byte	W06
	.byte		        Fn3 , v060
	.byte	W06
	.byte		N30   , Gs3 , v100
	.byte	W30
	.byte		N06   , Gs3 , v052
	.byte	W06
	.byte		        Gs3 , v100
	.byte	W06
	.byte		        As3 
	.byte	W06
	.byte		N18   , Gn3 
	.byte	W18
	.byte		N06   , Gs3 
	.byte	W06
	.byte		        Gs3 , v060
	.byte	W06
	.byte		        Gs3 , v032
	.byte	W06
	.byte		        As3 , v100
	.byte	W06
	.byte		        As3 , v060
	.byte	W06
	.byte		N30   , Ds3 , v100
	.byte	W30
	.byte		N06   , Ds3 , v060
	.byte	W06
	.byte		        Cs4 , v100
	.byte	W06
	.byte		        Ds4 
	.byte	W06
	.byte		N30   , Fn4 
	.byte	W30
	.byte		N06   , Fn4 , v060
	.byte	W06
	.byte		        Ds4 , v100
	.byte	W06
	.byte		        Cs4 
	.byte	W06
	.byte		N30   , Ds4 
	.byte	W30
	.byte		N06   , Ds4 , v060
	.byte	W06
	.byte	PATT
	 .word	seq_000_1 + 0x70
	.byte		N06   , Ds4 , v100
	.byte	W06
	.byte		        Ds4 , v060
	.byte	W06
	.byte		N18   , Gs4 , v100
	.byte	W18
	.byte		N06   , Fn4 
	.byte	W06
	.byte		        Fn4 , v060
	.byte	W06
	.byte		        Fn4 , v032
	.byte	W06
	.byte		        Cs4 , v100
	.byte	W06
	.byte		        Cs4 , v060
	.byte	W06
	.byte		N30   , Fn4 , v100
	.byte	W30
	.byte		N06   , Fn4 , v052
	.byte	W06
	.byte		        Gn4 , v100
	.byte	W06
	.byte		        Gs4 
	.byte	W06
	.byte		N18   , As4 
	.byte	W18
	.byte		N06   , Gs4 
	.byte	W06
	.byte		        Gs4 , v060
	.byte	W06
	.byte		        Gs4 , v032
	.byte	W06
	.byte		        Gn4 , v100
	.byte	W06
	.byte		        Gn4 , v060
	.byte	W06
	.byte		N36   , Ds4 , v100
	.byte	W36
	.byte		N06   , Ds4 , v060
	.byte	W06
	.byte		        Ds4 , v032
	.byte	W06
	.byte		VOICE , 2
	.byte		VOL   , 60*seq_000_mvl/mxv
	.byte		N78   , As4 , v100
	.byte	W78
	.byte		N06   , As4 , v060
	.byte	W06
	.byte		        Gs4 , v100
	.byte	W06
	.byte		        Fs4 
	.byte	W06
	.byte		N18   , Fn4 
	.byte	W18
	.byte		        Fs4 
	.byte	W18
	.byte		N12   , Gs4 
	.byte	W12
	.byte		N24   , Cs4 
	.byte	W24
	.byte		N12   , Cs4 , v080
	.byte	W12
	.byte		        Cs4 , v060
	.byte	W12
	.byte		N18   , Bn3 , v100
	.byte	W18
	.byte		        Cs4 
	.byte	W18
	.byte		N12   , Ds4 
	.byte	W12
	.byte		N18   , Fn4 
	.byte	W18
	.byte		        Fs4 
	.byte	W18
	.byte		N12   , Gs4 
	.byte	W12
	.byte		N18   , Fn4 
	.byte	W18
	.byte		        Cs4 
	.byte	W18
	.byte		N12   , As3 
	.byte	W12
	.byte		N48   , Cs4 
	.byte	W36
	.byte	W12
	.byte		N06   , As4 
	.byte	W06
	.byte		        As4 , v060
	.byte	W06
	.byte		        As4 , v032
	.byte	W06
	.byte		        Fs4 , v100
	.byte	W06
	.byte		        Fs4 , v060
	.byte	W06
	.byte		        Fs4 , v032
	.byte	W06
	.byte		        Ds4 , v100
	.byte	W06
	.byte		        Ds4 , v052
	.byte	W06
	.byte		        Bn3 , v100
	.byte	W06
	.byte		        Bn3 , v060
	.byte	W06
	.byte		        Bn3 , v032
	.byte	W06
	.byte		        Fs3 , v100
	.byte	W06
	.byte		        Fs3 , v060
	.byte	W06
	.byte		        Fs3 , v032
	.byte	W06
	.byte		        As4 , v100
	.byte	W06
	.byte		        As4 , v052
	.byte	W06
	.byte		        Gs4 , v100
	.byte	W06
	.byte		        Gs4 , v060
	.byte	W06
	.byte		        Gs4 , v032
	.byte	W06
	.byte		        Fn4 , v100
	.byte	W06
	.byte		        Fn4 , v060
	.byte	W06
	.byte		        Fn4 , v032
	.byte	W06
	.byte		        Cs4 , v100
	.byte	W06
	.byte		        Cs4 , v052
	.byte	W06
	.byte		        As3 , v100
	.byte	W06
	.byte		        As3 , v060
	.byte	W06
	.byte		        As3 , v032
	.byte	W06
	.byte		        Fn3 , v100
	.byte	W06
	.byte		        Fn3 , v060
	.byte	W06
	.byte		        Fn3 , v032
	.byte	W06
	.byte		        Gs4 , v100
	.byte	W06
	.byte		        Gs4 , v052
	.byte	W06
	.byte		N30   , Fs4 , v100
	.byte	W30
	.byte		N06   , Fs4 , v060
	.byte	W06
	.byte		        Fn4 , v100
	.byte	W06
	.byte		        Fs4 
	.byte	W06
	.byte		N30   , Gs4 
	.byte	W30
	.byte		N06   , Gs4 , v060
	.byte	W06
	.byte		        Fs4 , v100
	.byte	W06
	.byte		        Gs4 
	.byte	W06
	.byte		N30   , As4 
	.byte	W30
	.byte		N06   , As4 , v060
	.byte	W06
	.byte		        Gs4 , v100
	.byte	W06
	.byte		        As4 
	.byte	W06
	.byte		        Cs5 
	.byte	W06
	.byte		        Cs5 , v060
	.byte	W06
	.byte		        Cs5 , v032
	.byte	W06
	.byte		        Bn4 , v100
	.byte	W06
	.byte		        Bn4 , v060
	.byte	W06
	.byte		        Bn4 , v032
	.byte	W06
	.byte		        Ds4 , v100
	.byte	W06
	.byte		        Ds4 , v052
	.byte	W06
	.byte		        Fn4 , v100
	.byte	W06
	.byte		        Fn4 , v060
	.byte	W06
	.byte		        Fn4 , v032
	.byte	W06
	.byte		PAN   , c_v+63
	.byte		N06   , Fn4 , v072
	.byte	W06
	.byte		        Fn4 , v040
	.byte	W06
	.byte		        Fn4 , v020
	.byte	W06
	.byte		PAN   , c_v-64
	.byte		N06   , Fn4 , v052
	.byte	W06
	.byte		        Fn4 , v032
	.byte	W06
	.byte		        Fn4 , v012
	.byte	W06
	.byte		PAN   , c_v+63
	.byte		N06   , Fn4 , v032
	.byte	W06
	.byte		        Fn4 , v020
	.byte	W06
	.byte		        Fn4 , v012
	.byte	W18
	.byte	W96
	.byte	W12
	.byte		PAN   , c_v-64
	.byte		N06   , Fn3 , v032
	.byte	W06
	.byte		        Gs3 
	.byte	W06
	.byte		        As3 
	.byte	W06
	.byte		        Cs4 
	.byte	W06
	.byte		        Fn3 
	.byte	W06
	.byte		        Gs3 
	.byte	W06
	.byte		        As3 
	.byte	W06
	.byte		        Cs4 
	.byte	W06
	.byte		PAN   , c_v+63
	.byte		N06   , Fn3 , v052
	.byte	W06
	.byte		        Gs3 
	.byte	W06
	.byte		        As3 
	.byte	W06
	.byte		        Cs4 
	.byte	W06
	.byte		        Fn3 
	.byte	W06
	.byte		        Gs3 
	.byte	W06
	.byte		        As3 
	.byte	W06
	.byte		        Cs4 
	.byte	W06
	.byte		PAN   , c_v-64
	.byte		N06   , Gn3 , v072
	.byte	W06
	.byte		        Gs3 
	.byte	W06
	.byte		        As3 
	.byte	W06
	.byte		        Ds4 
	.byte	W06
	.byte		        Gn3 
	.byte	W06
	.byte		        Gs3 
	.byte	W06
	.byte		        As3 
	.byte	W06
	.byte		        Ds4 
	.byte	W06
	.byte		PAN   , c_v+63
	.byte		N06   , Gn3 , v092
	.byte	W06
	.byte		        Gs3 
	.byte	W06
	.byte		        As3 
	.byte	W06
	.byte		        Ds4 
	.byte	W06
	.byte		PAN   , c_v-64
	.byte		N06   , Gn3 
	.byte	W06
	.byte		        Gs3 
	.byte	W05
	.byte		PAN   , c_v+0
	.byte		VOL   , 60*seq_000_mvl/mxv
	.byte	W01
	.byte		VOICE , 24
	.byte		N06   , Cs4 , v100
	.byte	W06
	.byte		N05   , Ds4 
	.byte	W06
	.byte	GOTO
	 .word	seq_000_1 + 0x5C
	.byte	FINE

@*********************** Track 03 ***********************@

seq_000_2:
	.byte	KEYSH , seq_000_key+0
	.byte		VOICE , 0
	.byte	W03
	.byte		VOL   , 75*seq_000_mvl/mxv
	.byte	W03
	.byte		BENDR , 12
	.byte	W03
	.byte		PAN   , c_v+0
	.byte	W03
	.byte		N03   , Cn2 , v060
	.byte		N17   , Cs2 
	.byte	W03
	.byte		N15   , Cn2 , v092
	.byte	W15
	.byte		N03   , Bn1 , v060
	.byte		N17   , Cs2 
	.byte	W03
	.byte		N15   , Bn1 , v092
	.byte	W15
	.byte		N05   , Gn1 , v060
	.byte		N11   , Cs2 , v052
	.byte	W05
	.byte		        Gn1 , v092
	.byte	W07
	.byte		N18   , Cn1 , v112
	.byte		N24   , Fs1 , v052
	.byte	W12
	.byte		N04   , Ds1 , v020
	.byte	W04
	.byte		        Ds1 , v040
	.byte	W04
	.byte		N12   , Ds1 , v060
	.byte	W04
	.byte		N23   , Gs1 , v072
	.byte		N05   , Bn1 , v080
	.byte	W06
	.byte		N12   , Bn1 , v092
	.byte	W06
	.byte		N18   , Gn1 
	.byte	W12
	.byte		N08   , Cn1 , v092
	.byte		N28   , Cs2 , v072
	.byte	W12
	.byte		N08   , Cn1 , v092
	.byte	W12
	.byte		        Ds1 , v060
	.byte	W06
	.byte		N01   , Fs1 , v052
	.byte	W06
	.byte		N05   , Cn1 , v092
	.byte		N09   , As1 , v060
	.byte	W06
	.byte		N05   , Ds1 
	.byte	W06
	.byte		        Cn1 , v092
	.byte		N01   , Fs1 , v052
	.byte	W06
	.byte		N05   , Ds1 , v060
	.byte		N01   , Fs1 , v052
	.byte	W06
	.byte		N08   , Cn1 , v092
	.byte		N09   , As1 , v060
	.byte	W12
	.byte		N08   , Ds1 
	.byte		N01   , Fs1 , v052
	.byte	W06
	.byte		N01
	.byte	W06
	.byte		N08   , Cn1 , v060
	.byte		N09   , As1 
	.byte	W12
	.byte		N08   , Cn1 , v092
	.byte		N01   , Fs1 , v052
	.byte	W06
	.byte		N01
	.byte	W06
	.byte		N08   , Cn1 , v092
	.byte		N09   , As1 , v060
	.byte	W12
	.byte		N08   , Ds1 
	.byte		N01   , Fs1 , v052
	.byte	W06
	.byte		N01
	.byte	W06
	.byte		N05   , Cn1 , v092
	.byte		N09   , As1 , v060
	.byte	W06
	.byte		N05   , Ds1 
	.byte	W06
	.byte		        Cn1 , v092
	.byte		N01   , Fs1 , v052
	.byte	W06
	.byte		N05   , Ds1 , v060
	.byte		N01   , Fs1 , v052
	.byte	W06
	.byte		N08   , Cn1 , v092
	.byte		N09   , As1 , v060
	.byte	W12
	.byte		N05   , Ds1 , v040
	.byte		N01   , Fs1 , v052
	.byte	W06
	.byte		N05   , Ds1 
	.byte		N01   , Fs1 
	.byte	W06
	.byte	PEND
	.byte		N05   , Ds1 , v060
	.byte		N01   , Fs1 
	.byte	W04
	.byte		N01
	.byte	W02
	.byte		N05   , Cn1 
	.byte	W02
	.byte		N01   , Fs1 , v052
	.byte	W04
	.byte		N08   , Cn1 , v092
	.byte		N01   , Fs1 , v052
	.byte	W06
	.byte		N01
	.byte	W06
	.byte		N08   , Cn1 , v092
	.byte		N09   , As1 , v060
	.byte	W12
	.byte		N08   , Ds1 
	.byte		N01   , Fs1 , v052
	.byte	W06
	.byte		N01
	.byte	W06
	.byte		N05   , Cn1 , v092
	.byte		N09   , As1 , v060
	.byte	W06
	.byte		N05   , Ds1 
	.byte	W06
	.byte		        Cn1 , v092
	.byte		N01   , Fs1 , v052
	.byte	W06
	.byte		N05   , Ds1 , v060
	.byte		N01   , Fs1 , v052
	.byte	W06
	.byte		N08   , Cn1 , v092
	.byte		N09   , As1 , v060
	.byte	W12
	.byte		N08   , Ds1 
	.byte		N01   , Fs1 , v052
	.byte	W06
	.byte		N01
	.byte	W06
	.byte	PEND
	.byte		N08   , Cn1 , v060
	.byte		N09   , As1 
	.byte	W12
	.byte		N08   , Cn1 , v092
	.byte		N01   , Fs1 , v052
	.byte	W06
	.byte		N01
	.byte	W06
	.byte		N08   , Cn1 , v092
	.byte		N09   , As1 , v060
	.byte	W12
	.byte		N08   , Ds1 
	.byte		N01   , Fs1 , v052
	.byte	W06
	.byte		N01
	.byte	W06
	.byte		N05   , Cn1 , v092
	.byte		N09   , As1 , v060
	.byte	W06
	.byte		N05   , Ds1 
	.byte	W06
	.byte		        Cn1 , v092
	.byte		N01   , Fs1 , v052
	.byte	W06
	.byte		N05   , Ds1 , v060
	.byte		N01   , Fs1 , v052
	.byte	W06
	.byte		N08   , Cn1 , v092
	.byte		N09   , As1 , v060
	.byte	W12
	.byte		N05   , Ds1 , v040
	.byte		N23   , Gs1 , v072
	.byte	W06
	.byte		N05   , Ds1 , v052
	.byte	W06
	.byte		        Ds1 , v060
	.byte	W06
	.byte		N05
	.byte	W06
	.byte		N08   , Cn1 , v092
	.byte		N28   , Cs2 , v072
	.byte	W12
	.byte		N08   , Cn1 , v092
	.byte	W12
	.byte		        Ds1 , v060
	.byte	W06
	.byte		N01   , Fs1 , v052
	.byte	W06
	.byte		N05   , Cn1 , v092
	.byte		N09   , As1 , v060
	.byte	W06
	.byte		N05   , Ds1 
	.byte	W06
	.byte		        Cn1 , v092
	.byte		N01   , Fs1 , v052
	.byte	W06
	.byte		N05   , Ds1 , v060
	.byte		N01   , Fs1 , v052
	.byte	W06
	.byte		N08   , Cn1 , v092
	.byte		N09   , As1 , v060
	.byte	W12
	.byte		N08   , Ds1 
	.byte		N01   , Fs1 , v052
	.byte	W06
	.byte		N01
	.byte	W06
	.byte	PATT
	 .word	seq_000_2 + 0x84
	.byte	PATT
	 .word	seq_000_2 + 0xCD
	.byte		N08   , Cn1 , v060
	.byte		N09   , As1 
	.byte	W12
	.byte		N08   , Cn1 , v092
	.byte		N01   , Fs1 , v052
	.byte	W06
	.byte		N01
	.byte	W06
	.byte		N08   , Cn1 , v092
	.byte		N09   , As1 , v060
	.byte	W12
	.byte		N11   , Ds1 
	.byte		N01   , Fs1 , v052
	.byte	W06
	.byte		N01
	.byte	W06
	.byte		N05   , Cn1 , v092
	.byte		N09   , As1 , v060
	.byte	W06
	.byte		N05   , Ds1 
	.byte	W06
	.byte		N11
	.byte		N01   , Fs1 , v052
	.byte	W06
	.byte		N01
	.byte	W06
	.byte		N03   , Ds1 , v020
	.byte		N09   , As1 , v060
	.byte	W04
	.byte		N03   , Ds1 , v040
	.byte	W04
	.byte		        Ds1 , v052
	.byte	W04
	.byte		N05   , Ds1 , v060
	.byte		N23   , Gs1 , v072
	.byte	W06
	.byte		N05   , Ds1 
	.byte	W06
	.byte		N11   , Gn1 , v092
	.byte	W12
	.byte		N08   , Cn1 
	.byte		N28   , Cs2 , v072
	.byte	W12
	.byte		N08   , Cn1 , v092
	.byte	W12
	.byte		        Ds1 , v060
	.byte	W06
	.byte		N01   , Fs1 , v052
	.byte	W06
	.byte		N05   , Cn1 , v092
	.byte		N01   , Fs1 , v052
	.byte	W06
	.byte		N05   , Ds1 , v060
	.byte		N01   , Fs1 
	.byte	W06
	.byte		N05   , Cn1 , v092
	.byte		N01   , Fs1 , v052
	.byte	W06
	.byte		N05   , Ds1 , v060
	.byte		N01   , Fs1 , v052
	.byte	W06
	.byte		N08   , Cn1 , v092
	.byte		N01   , Fs1 , v052
	.byte	W06
	.byte		        Fs1 , v060
	.byte	W06
	.byte		N08   , Ds1 
	.byte		N01   , Fs1 , v052
	.byte	W06
	.byte		N01
	.byte	W06
	.byte		N08   , Cn1 , v060
	.byte		N09   , As1 
	.byte	W12
	.byte		N08   , Cn1 , v092
	.byte		N01   , Fs1 , v052
	.byte	W06
	.byte		N01
	.byte	W06
	.byte		N08   , Cn1 , v092
	.byte		N01   , Fs1 , v060
	.byte	W06
	.byte		        Fs1 , v052
	.byte	W06
	.byte		N08   , Ds1 , v060
	.byte		N01   , Fs1 , v052
	.byte	W06
	.byte		N01
	.byte	W06
	.byte		N05   , Cn1 , v092
	.byte		N09   , As1 , v060
	.byte	W06
	.byte		N05   , Ds1 
	.byte	W06
	.byte		        Cn1 , v092
	.byte		N01   , Fs1 , v052
	.byte	W06
	.byte		N05   , Ds1 , v060
	.byte		N01   , Fs1 , v052
	.byte	W06
	.byte		N08   , Cn1 , v092
	.byte		N09   , As1 , v060
	.byte	W12
	.byte		N05   , Ds1 , v040
	.byte		N01   , Fs1 , v052
	.byte	W06
	.byte		N05   , Ds1 
	.byte		N01   , Fs1 
	.byte	W06
	.byte		N05   , Ds1 , v060
	.byte		N01   , Fs1 
	.byte	W06
	.byte		N05   , Cn1 
	.byte		N01   , Fs1 , v052
	.byte	W06
	.byte		N08   , Cn1 , v092
	.byte		N01   , Fs1 , v052
	.byte	W06
	.byte		N01
	.byte	W06
	.byte		N08   , Cn1 , v092
	.byte		N01   , Fs1 , v060
	.byte	W06
	.byte		        Fs1 , v052
	.byte	W06
	.byte		N08   , Ds1 , v060
	.byte		N01   , Fs1 , v052
	.byte	W06
	.byte		N01
	.byte	W06
	.byte		N05   , Cn1 , v092
	.byte		N01   , Fs1 , v060
	.byte	W06
	.byte		N05   , Ds1 
	.byte		N01   , Fs1 , v052
	.byte	W06
	.byte		N05   , Cn1 , v092
	.byte		N01   , Fs1 , v052
	.byte	W06
	.byte		N05   , Ds1 , v060
	.byte		N01   , Fs1 , v052
	.byte	W06
	.byte		N08   , Cn1 , v092
	.byte		N09   , As1 , v060
	.byte	W12
	.byte		N08   , Ds1 
	.byte		N01   , Fs1 , v052
	.byte	W06
	.byte		N01
	.byte	W06
	.byte		N08   , Cn1 , v060
	.byte		N01   , Fs1 
	.byte	W06
	.byte		        Fs1 , v052
	.byte	W06
	.byte		N08   , Cn1 , v092
	.byte		N01   , Fs1 , v052
	.byte	W06
	.byte		N01
	.byte	W06
	.byte		N08   , Cn1 , v092
	.byte		N01   , Fs1 , v060
	.byte	W06
	.byte		        Fs1 , v052
	.byte	W06
	.byte		N08   , Ds1 , v060
	.byte		N01   , Fs1 , v052
	.byte	W06
	.byte		N01
	.byte	W06
	.byte		N05   , Cn1 , v092
	.byte		N09   , As1 , v060
	.byte	W06
	.byte		N05   , Ds1 
	.byte	W06
	.byte		        Cn1 , v092
	.byte		N23   , Cs2 , v060
	.byte	W06
	.byte		N05   , Ds1 
	.byte	W06
	.byte		N08   , Cn1 , v092
	.byte	W12
	.byte		N05   , Ds1 , v040
	.byte		N01   , Fs1 , v052
	.byte	W06
	.byte		N05   , Ds1 
	.byte		N01   , Fs1 
	.byte	W06
	.byte		N05   , Ds1 , v060
	.byte		N09   , As1 
	.byte	W06
	.byte		N05   , Cn1 
	.byte	W06
	.byte		N08   , Cn1 , v092
	.byte		N28   , Cs2 , v072
	.byte	W12
	.byte		N08   , Cn1 , v092
	.byte	W12
	.byte		        Ds1 , v060
	.byte	W06
	.byte		N01   , Fs1 , v052
	.byte	W06
	.byte		N05   , Cn1 , v092
	.byte		N01   , Fs1 , v052
	.byte	W06
	.byte		N05   , Ds1 , v060
	.byte		N01   , Fs1 
	.byte	W06
	.byte		N05   , Cn1 , v092
	.byte		N01   , Fs1 , v052
	.byte	W06
	.byte		N05   , Ds1 , v060
	.byte		N01   , Fs1 , v052
	.byte	W06
	.byte		N08   , Cn1 , v092
	.byte		N01   , Fs1 , v052
	.byte	W06
	.byte		        Fs1 , v060
	.byte	W06
	.byte		N08   , Ds1 
	.byte		N01   , Fs1 , v052
	.byte	W06
	.byte		N01
	.byte	W06
	.byte		N08   , Cn1 , v060
	.byte		N09   , As1 
	.byte	W12
	.byte		N08   , Cn1 , v092
	.byte		N01   , Fs1 , v052
	.byte	W06
	.byte		N01
	.byte	W06
	.byte		N08   , Cn1 , v092
	.byte		N01   , Fs1 , v060
	.byte	W06
	.byte		        Fs1 , v052
	.byte	W06
	.byte		N08   , Ds1 , v060
	.byte		N01   , Fs1 , v052
	.byte	W06
	.byte		N01
	.byte	W06
	.byte		N05   , Cn1 , v092
	.byte		N09   , As1 , v060
	.byte	W06
	.byte		N05   , Ds1 
	.byte	W06
	.byte		        Cn1 , v092
	.byte		N01   , Fs1 , v052
	.byte	W06
	.byte		N05   , Ds1 , v060
	.byte		N01   , Fs1 , v052
	.byte	W06
	.byte		N08   , Cn1 , v092
	.byte		N01   , Fs1 , v060
	.byte	W06
	.byte		N01
	.byte	W06
	.byte		N05   , Ds1 , v040
	.byte		N01   , Fs1 , v052
	.byte	W06
	.byte		N05   , Ds1 
	.byte		N01   , Fs1 
	.byte	W06
	.byte		N05   , Ds1 , v060
	.byte		N09   , As1 
	.byte	W06
	.byte		N05   , Ds1 
	.byte	W06
	.byte		N08   , Cn1 , v092
	.byte		N01   , Fs1 , v052
	.byte	W06
	.byte		N01
	.byte	W06
	.byte		N08   , Cn1 , v092
	.byte		N01   , Fs1 , v060
	.byte	W06
	.byte		        Fs1 , v052
	.byte	W06
	.byte		N08   , Ds1 , v060
	.byte		N01   , Fs1 , v052
	.byte	W06
	.byte		N01
	.byte	W06
	.byte		N05   , Cn1 , v092
	.byte		N01   , Fs1 , v060
	.byte	W06
	.byte		N05   , Ds1 
	.byte		N01   , Fs1 , v052
	.byte	W06
	.byte		N05   , Cn1 , v092
	.byte		N09   , As1 , v060
	.byte	W06
	.byte		N05   , Ds1 
	.byte	W06
	.byte		N08   , Cn1 , v092
	.byte		N01   , Fs1 , v052
	.byte	W06
	.byte		N01
	.byte	W06
	.byte		N08   , Ds1 , v060
	.byte		N01   , Fs1 , v052
	.byte	W06
	.byte		N01
	.byte	W06
	.byte		N08   , Cn1 , v060
	.byte		N09   , As1 
	.byte	W12
	.byte		N08   , Cn1 , v092
	.byte		N01   , Fs1 , v052
	.byte	W06
	.byte		N01
	.byte	W06
	.byte		N08   , Cn1 , v092
	.byte		N09   , As1 , v060
	.byte	W12
	.byte		N11   , Ds1 
	.byte		N01   , Fs1 , v052
	.byte	W06
	.byte		N01
	.byte	W06
	.byte		N05   , Cn1 , v092
	.byte		N01   , Fs1 , v060
	.byte	W04
	.byte		        Fs1 , v052
	.byte	W02
	.byte		N05   , Ds1 , v060
	.byte	W02
	.byte		N01   , Fs1 , v052
	.byte	W04
	.byte		N11   , Ds1 , v060
	.byte		N23   , Cs2 , v072
	.byte	W12
	.byte		N03   , Ds1 , v020
	.byte	W04
	.byte		        Ds1 , v040
	.byte	W04
	.byte		        Ds1 , v052
	.byte	W04
	.byte		N05   , Ds1 , v060
	.byte		N23   , Gs1 
	.byte	W06
	.byte		N05   , Ds1 , v072
	.byte	W06
	.byte		N11   , Gn1 , v092
	.byte	W12
	.byte		N08   , Cn1 
	.byte		N28   , Cs2 , v072
	.byte	W12
	.byte		N08   , Cn1 , v092
	.byte		N05   , Gn2 , v052
	.byte	W06
	.byte		        Gs2 
	.byte	W06
	.byte		N08   , Ds1 , v060
	.byte		N05   , Dn2 , v072
	.byte	W06
	.byte		N01   , Fs1 , v052
	.byte		N05   , Ds2 , v072
	.byte	W06
	.byte		        Cn1 , v092
	.byte		N11   , An1 , v072
	.byte		N09   , As1 , v060
	.byte	W06
	.byte		N05   , Ds1 
	.byte	W06
	.byte		        Cn1 , v092
	.byte		N01   , Fs1 , v052
	.byte		N11   , Ds2 , v072
	.byte	W06
	.byte		N05   , Ds1 , v060
	.byte		N01   , Fs1 , v052
	.byte	W06
	.byte		N08   , Cn1 , v092
	.byte		N09   , As1 , v060
	.byte	W06
	.byte		N11   , Dn2 , v072
	.byte	W06
	.byte		N08   , Ds1 , v060
	.byte		N01   , Fs1 , v052
	.byte	W06
	.byte		N01
	.byte	W06
	.byte		N08   , Cn1 , v060
	.byte		N09   , As1 
	.byte		N11   , An2 , v120
	.byte	W12
	.byte		N08   , Cn1 , v092
	.byte		N01   , Fs1 , v052
	.byte	W06
	.byte		N01
	.byte	W06
	.byte		N08   , Cn1 , v092
	.byte		N09   , As1 , v060
	.byte		N05   , Gn2 , v052
	.byte	W06
	.byte		        Gs2 
	.byte	W06
	.byte		N08   , Ds1 , v060
	.byte		N01   , Fs1 , v052
	.byte		N06   , Gn2 
	.byte	W06
	.byte		N01   , Fs1 
	.byte	W06
	.byte		N05   , Cn1 , v092
	.byte		N09   , As1 , v060
	.byte		N05   , Ds2 , v072
	.byte	W06
	.byte		        Ds1 , v060
	.byte		N05   , Dn2 , v072
	.byte	W06
	.byte		        Cn1 , v092
	.byte		N01   , Fs1 , v052
	.byte	W06
	.byte		N05   , Ds1 , v060
	.byte		N01   , Fs1 , v052
	.byte	W06
	.byte		N08   , Cn1 , v092
	.byte		N11   , An1 , v072
	.byte		N09   , As1 , v060
	.byte	W12
	.byte		N05   , Ds1 , v040
	.byte		N01   , Fs1 , v052
	.byte		N11   , Dn2 , v072
	.byte	W06
	.byte		N05   , Ds1 , v052
	.byte		N01   , Fs1 
	.byte	W06
	.byte		N05   , Ds1 , v060
	.byte		N01   , Fs1 
	.byte		N11   , As2 , v052
	.byte	W04
	.byte		N01   , Fs1 , v060
	.byte	W02
	.byte		N05   , Cn1 
	.byte	W02
	.byte		N01   , Fs1 , v052
	.byte	W04
	.byte		N08   , Cn1 , v092
	.byte		N01   , Fs1 , v052
	.byte	W06
	.byte		N01
	.byte	W06
	.byte		N08   , Cn1 , v092
	.byte		N09   , As1 , v060
	.byte		N05   , Gn2 , v052
	.byte	W06
	.byte		        Gs2 
	.byte	W06
	.byte		N08   , Ds1 , v060
	.byte		N01   , Fs1 , v052
	.byte		N05   , Dn2 , v072
	.byte	W06
	.byte		N01   , Fs1 , v052
	.byte		N05   , Ds2 , v072
	.byte	W06
	.byte		        Cn1 , v092
	.byte		N11   , An1 , v072
	.byte		N09   , As1 , v060
	.byte	W06
	.byte		N05   , Ds1 
	.byte	W06
	.byte		        Cn1 , v092
	.byte		N01   , Fs1 , v052
	.byte		N11   , Ds2 , v072
	.byte	W06
	.byte		N05   , Ds1 , v060
	.byte		N01   , Fs1 , v052
	.byte	W06
	.byte		N08   , Cn1 , v092
	.byte		N09   , As1 , v060
	.byte	W06
	.byte		N11   , Dn2 , v072
	.byte	W06
	.byte		N08   , Ds1 , v060
	.byte		N01   , Fs1 , v052
	.byte	W06
	.byte		N01
	.byte	W06
	.byte		N08   , Cn1 , v060
	.byte		N09   , As1 
	.byte		N11   , An2 , v120
	.byte	W12
	.byte		N08   , Cn1 , v092
	.byte		N01   , Fs1 , v052
	.byte	W06
	.byte		N01
	.byte	W06
	.byte		N09   , As1 , v060
	.byte		N05   , Gn2 , v052
	.byte	W06
	.byte		        Gs2 
	.byte	W06
	.byte		N01   , Fs1 
	.byte		N06   , Gn2 
	.byte	W06
	.byte		N01   , Fs1 
	.byte	W06
	.byte		N09   , As1 , v060
	.byte		N05   , Ds2 , v072
	.byte	W06
	.byte		        Dn2 
	.byte	W06
	.byte		N01   , Fs1 , v052
	.byte		N11   , Cn2 , v092
	.byte	W06
	.byte		N01   , Fs1 , v052
	.byte	W06
	.byte		N03   , Ds1 , v020
	.byte		N11   , An1 , v072
	.byte		N09   , As1 , v060
	.byte	W04
	.byte		N03   , Ds1 , v040
	.byte	W04
	.byte		        Ds1 , v052
	.byte	W04
	.byte		N05   , Ds1 , v060
	.byte		N23   , Gs1 , v072
	.byte		N11   , Dn2 
	.byte	W06
	.byte		N05   , Ds1 
	.byte	W06
	.byte		N11   , Gn1 , v092
	.byte		N11   , As2 , v052
	.byte	W12
	.byte	GOTO
	 .word	seq_000_2 + 0x4C
	.byte	FINE

@*********************** Track 04 ***********************@

seq_000_3:
	.byte	KEYSH , seq_000_key+0
	.byte		VOICE , 17
	.byte	W01
	.byte		VOL   , 96*seq_000_mvl/mxv
	.byte	W01
	.byte		PAN   , c_v+0
	.byte	W01
	.byte	W01
	.byte		XCMD  , xIECV , 40
	.byte	W01
	.byte	W01
	.byte		        xIECL , 3
	.byte	W01
	.byte		BENDR , 12
	.byte	W01
	.byte		LFOS  , 28
	.byte	W01
	.byte		LFODL , 14
	.byte	W01
	.byte		MOD   , 3
	.byte	W01
	.byte		MODT  , mod_vib
	.byte	W01
	.byte		N01   , Dn2 , v127
	.byte	W06
	.byte		N01
	.byte	W06
	.byte		N06   , Dn2 , v032
	.byte	W06
	.byte		        Ds2 , v127
	.byte	W06
	.byte		        Ds2 , v080
	.byte	W06
	.byte		        Ds2 , v032
	.byte	W06
	.byte		        En2 , v127
	.byte	W06
	.byte		        En2 , v080
	.byte	W06
	.byte		        Fn2 , v127
	.byte	W06
	.byte		        Fn2 , v080
	.byte	W06
	.byte		VOICE , 16
	.byte		BEND  , c_v-11
	.byte		N08   , As3 , v100
	.byte	W06
	.byte		BEND  , c_v+0
	.byte	W06
	.byte		        c_v-11
	.byte		N08   , Ds3 
	.byte	W06
	.byte		BEND  , c_v+0
	.byte	W06
	.byte		        c_v-6
	.byte		N08   , An2 
	.byte	W06
	.byte		BEND  , c_v+0
	.byte	W06
	.byte		VOICE , 17
	.byte		BEND  , c_v+0
	.byte		N06   , As2 , v127
	.byte	W06
	.byte		        As2 , v060
	.byte	W06
	.byte		        Gs2 , v127
	.byte	W06
	.byte		        As2 
	.byte	W06
	.byte		        As2 , v080
	.byte	W06
	.byte		BEND  , c_v-11
	.byte		N12   , Ds3 , v127
	.byte	W05
	.byte		BEND  , c_v-4
	.byte	W01
	.byte		        c_v+0
	.byte	W06
	.byte		N06   , Gs2 
	.byte	W06
	.byte		        As2 
	.byte	W06
	.byte		        As2 , v060
	.byte	W06
	.byte		        Cs2 , v127
	.byte	W06
	.byte		        Ds2 
	.byte	W06
	.byte		        Ds2 , v060
	.byte	W06
	.byte		        Fn2 , v127
	.byte	W06
	.byte		N06   , Gs2 , v127
	.byte	W06
	.byte		        Cs3 
	.byte	W06
	.byte		        As2 
	.byte	W06
	.byte		        As2 , v060
	.byte	W06
	.byte		        Gs2 , v127
	.byte	W06
	.byte		        As2 
	.byte	W06
	.byte		        As2 , v080
	.byte	W06
	.byte		BEND  , c_v-11
	.byte		N12   , Ds3 , v127
	.byte	W05
	.byte		BEND  , c_v-4
	.byte	W01
	.byte		        c_v+0
	.byte	W06
	.byte		N06   , Gs2 
	.byte	W06
	.byte		N12   , Cs2 
	.byte	W12
	.byte		        Cs3 
	.byte	W12
	.byte		        Ds2 
	.byte	W12
	.byte	PEND
	.byte		N12   , Ds3 , v127
	.byte	W12
	.byte		N06   , As2 
	.byte	W06
	.byte		        As2 , v060
	.byte	W06
	.byte		        Gs2 , v127
	.byte	W06
	.byte		        As2 
	.byte	W06
	.byte		        As2 , v080
	.byte	W06
	.byte		BEND  , c_v-11
	.byte		N12   , Ds3 , v127
	.byte	W05
	.byte		BEND  , c_v-4
	.byte	W01
	.byte		        c_v+0
	.byte	W06
	.byte		N06   , Gs2 
	.byte	W06
	.byte		        As2 
	.byte	W06
	.byte		        As2 , v060
	.byte	W06
	.byte		        Cs2 , v127
	.byte	W06
	.byte		        Ds2 
	.byte	W06
	.byte		        Ds2 , v060
	.byte	W06
	.byte		        Fn2 , v127
	.byte	W06
	.byte	PEND
	.byte	PATT
	 .word	seq_000_3 + 0x8C
	.byte	PATT
	 .word	seq_000_3 + 0xB5
	.byte	PATT
	 .word	seq_000_3 + 0x8C
	.byte	PATT
	 .word	seq_000_3 + 0xB5
	.byte		N06   , Gs2 , v127
	.byte	W06
	.byte		        Cs3 
	.byte	W06
	.byte		        As2 
	.byte	W06
	.byte		        As2 , v060
	.byte	W06
	.byte		        Gs2 , v127
	.byte	W06
	.byte		        As2 
	.byte	W06
	.byte		        As2 , v080
	.byte	W06
	.byte		BEND  , c_v-11
	.byte		N12   , Ds3 , v127
	.byte	W05
	.byte		BEND  , c_v-4
	.byte	W01
	.byte		        c_v+0
	.byte	W06
	.byte		N06   , Gs2 
	.byte	W06
	.byte		N12   , Ds2 
	.byte	W12
	.byte		        Ds3 
	.byte	W12
	.byte		        Gs2 
	.byte	W12
	.byte		        Gs1 
	.byte	W12
	.byte		N06   , Bn1 
	.byte	W06
	.byte		        Bn1 , v060
	.byte	W06
	.byte		N16   , Bn2 , v127
	.byte	W18
	.byte		N02   , As2 
	.byte	W06
	.byte		N06   , Bn2 
	.byte	W06
	.byte		        As2 
	.byte	W06
	.byte		        Bn2 
	.byte	W06
	.byte		        Bn2 , v060
	.byte	W06
	.byte		        As2 , v127
	.byte	W06
	.byte		        Bn2 
	.byte	W06
	.byte		        Bn2 , v060
	.byte	W06
	.byte		        Ds3 , v127
	.byte	W06
	.byte		N06   , Cs3 , v127
	.byte	W06
	.byte		        Bn2 
	.byte	W06
	.byte		        As2 
	.byte	W06
	.byte		        As2 , v060
	.byte	W06
	.byte		        Gs2 , v127
	.byte	W06
	.byte		        As2 
	.byte	W06
	.byte		        As2 , v080
	.byte	W06
	.byte		BEND  , c_v-11
	.byte		N12   , Cs3 , v127
	.byte	W05
	.byte		BEND  , c_v-4
	.byte	W01
	.byte		        c_v+0
	.byte	W06
	.byte		N06   , Gs2 
	.byte	W06
	.byte		        As2 
	.byte	W06
	.byte		        As2 , v060
	.byte	W06
	.byte		        Ds2 , v127
	.byte	W06
	.byte		        Fn2 
	.byte	W06
	.byte		        Fn2 , v060
	.byte	W06
	.byte		        Gs2 , v127
	.byte	W06
	.byte	PEND
	.byte		        As2 
	.byte	W06
	.byte		        Cs3 
	.byte	W06
	.byte		        Gs2 
	.byte	W06
	.byte		        Gs2 , v060
	.byte	W06
	.byte		N16   , Gs2 , v127
	.byte	W18
	.byte		N02   , Gn2 
	.byte	W06
	.byte		N06   , Gs2 
	.byte	W06
	.byte		        Gn2 
	.byte	W06
	.byte		        Cs2 
	.byte	W06
	.byte		        Cs2 , v060
	.byte	W06
	.byte		N02   , Cs2 , v127
	.byte	W06
	.byte		        Fn2 
	.byte	W06
	.byte		        Cs2 
	.byte	W06
	.byte		        Cs3 
	.byte	W06
	.byte		N06   , Cs2 
	.byte	W06
	.byte		        Dn2 
	.byte	W06
	.byte		        Ds2 
	.byte	W06
	.byte		        Ds2 , v060
	.byte	W06
	.byte		        Dn2 , v127
	.byte	W06
	.byte		        Ds2 
	.byte	W06
	.byte		        Ds2 , v080
	.byte	W06
	.byte		BEND  , c_v-11
	.byte		N12   , Gs2 , v127
	.byte	W05
	.byte		BEND  , c_v-4
	.byte	W01
	.byte		        c_v+0
	.byte	W06
	.byte		N06   , Cs2 
	.byte	W06
	.byte		        Ds2 
	.byte	W06
	.byte		        Ds2 , v060
	.byte	W06
	.byte		        Gs1 , v127
	.byte	W06
	.byte		        As1 
	.byte	W06
	.byte		        As1 , v060
	.byte	W06
	.byte		        Cs2 , v127
	.byte	W06
	.byte		        Ds2 
	.byte	W06
	.byte		        Fs2 
	.byte	W06
	.byte		        Bn1 
	.byte	W06
	.byte		        Bn1 , v060
	.byte	W06
	.byte		N16   , Bn2 , v127
	.byte	W18
	.byte		N02   , As2 
	.byte	W06
	.byte		N06   , Bn2 
	.byte	W06
	.byte		        As2 
	.byte	W06
	.byte		        Bn2 
	.byte	W06
	.byte		        Bn2 , v060
	.byte	W06
	.byte		        As2 , v127
	.byte	W06
	.byte		        Bn2 
	.byte	W06
	.byte		        Bn2 , v060
	.byte	W06
	.byte		        Ds3 , v127
	.byte	W06
	.byte	PATT
	 .word	seq_000_3 + 0x146
	.byte		N06   , As2 , v127
	.byte	W06
	.byte		        Cs3 
	.byte	W06
	.byte		        Gs2 
	.byte	W06
	.byte		        Gs2 , v060
	.byte	W06
	.byte		N16   , Gs2 , v127
	.byte	W18
	.byte		N02   , Gn2 
	.byte	W06
	.byte		N06   , Gs2 
	.byte	W06
	.byte		        Gn2 
	.byte	W06
	.byte		        Fs2 
	.byte	W06
	.byte		        Fs2 , v060
	.byte	W06
	.byte		N16   , Fs2 , v127
	.byte	W18
	.byte		N02
	.byte	W06
	.byte		N06   , Fn2 
	.byte	W06
	.byte		        Fs2 
	.byte	W06
	.byte		        Fn2 
	.byte	W06
	.byte		        Fn2 , v060
	.byte	W06
	.byte		        Ds2 , v127
	.byte	W06
	.byte		        Fn2 
	.byte	W06
	.byte		        Fn2 , v080
	.byte	W06
	.byte		        Fn2 , v127
	.byte	W06
	.byte		        Fs2 
	.byte	W06
	.byte		        Gs2 
	.byte	W06
	.byte		        Bn2 
	.byte	W06
	.byte		        Bn2 , v060
	.byte	W06
	.byte		        Bn2 , v032
	.byte	W06
	.byte		        Bn2 , v127
	.byte	W06
	.byte		        Bn2 , v072
	.byte	W06
	.byte		        Bn2 , v040
	.byte	W06
	.byte		        Gs1 , v100
	.byte	W06
	.byte		        Gs1 , v040
	.byte	W06
	.byte		BEND  , c_v+0
	.byte		N18   , As1 , v127
	.byte	W12
	.byte		BEND  , c_v-4
	.byte	W01
	.byte		        c_v-8
	.byte	W01
	.byte		        c_v-24
	.byte	W02
	.byte		        c_v-47
	.byte	W01
	.byte		        c_v-63
	.byte	W66
	.byte	W01
	.byte	W12
	.byte		        c_v+0
	.byte	W84
	.byte		N12   , Gs1 
	.byte	W12
	.byte		BEND  , c_v+0
	.byte		N18   , As1 
	.byte	W12
	.byte		BEND  , c_v-4
	.byte	W01
	.byte		        c_v-8
	.byte	W01
	.byte		        c_v-24
	.byte	W02
	.byte		        c_v-47
	.byte	W01
	.byte		        c_v-63
	.byte	W66
	.byte	W01
	.byte	W12
	.byte		        c_v+0
	.byte	W48
	.byte		N24   , Ds2 
	.byte	W24
	.byte		N23   , Gs1 
	.byte	W12
	.byte	W12
	.byte	GOTO
	 .word	seq_000_3 + 0x5B
	.byte	FINE

@*********************** Track 05 ***********************@

seq_000_4:
	.byte	KEYSH , seq_000_key+0
	.byte		VOL   , 64*seq_000_mvl/mxv
	.byte	W01
	.byte	W01
	.byte		XCMD  , xIECV , 40
	.byte	W01
	.byte	W01
	.byte		        xIECL , 3
	.byte	W01
	.byte		BENDR , 12
	.byte	W01
	.byte		LFOS  , 28
	.byte	W01
	.byte		LFODL , 14
	.byte	W02
	.byte		MOD   , 3
	.byte	W01
	.byte		MODT  , mod_vib
	.byte	W02
	.byte		VOICE , 26
	.byte		PAN   , c_v+0
	.byte		N03   , Cn4 , v100
	.byte	W06
	.byte		N03
	.byte	W06
	.byte		N06   , Cn4 , v060
	.byte	W06
	.byte		PAN   , c_v-64
	.byte		N06   , Cs4 , v100
	.byte	W06
	.byte		        Cs4 , v060
	.byte	W06
	.byte		        Cs4 , v032
	.byte	W06
	.byte		PAN   , c_v+63
	.byte		N06   , Dn4 , v100
	.byte	W06
	.byte		        Dn4 , v060
	.byte	W06
	.byte		PAN   , c_v+0
	.byte		N06   , Ds4 , v100
	.byte	W06
	.byte		        Ds4 , v060
	.byte	W06
	.byte		PAN   , c_v-64
	.byte		N03   , Gs4 , v112
	.byte	W03
	.byte		        Gs4 , v072
	.byte	W03
	.byte		        Gn4 , v112
	.byte	W03
	.byte		        Gn4 , v072
	.byte	W03
	.byte		        Fs4 , v112
	.byte	W03
	.byte		        Fs4 , v072
	.byte	W03
	.byte		PAN   , c_v+63
	.byte		N03   , Fn4 , v112
	.byte	W03
	.byte		        Fn4 , v072
	.byte	W03
	.byte		        Ds4 , v112
	.byte	W03
	.byte		        Ds4 , v072
	.byte	W03
	.byte		        Cs4 , v112
	.byte	W03
	.byte		        Cs4 , v072
	.byte	W03
	.byte		N03   , As3 , v100
	.byte	W03
	.byte		        As3 , v060
	.byte	W03
	.byte		        As3 , v032
	.byte	W03
	.byte		        As3 , v012
	.byte	W03
	.byte		VOICE , 26
	.byte		PAN   , c_v-64
	.byte		N06   , Cs4 , v092
	.byte	W06
	.byte		        Fn4 
	.byte	W06
	.byte		        Gs3 
	.byte	W06
	.byte		        As3 
	.byte	W06
	.byte		        Cs4 
	.byte	W06
	.byte		        Fn4 
	.byte	W06
	.byte		PAN   , c_v+63
	.byte	W12
	.byte		N06   , Cs4 
	.byte	W06
	.byte		        Fn4 
	.byte	W06
	.byte		        Gs3 
	.byte	W06
	.byte		        As3 
	.byte	W06
	.byte		N06   , Cs4 , v092
	.byte	W06
	.byte		        Fn4 
	.byte	W06
	.byte		PAN   , c_v-64
	.byte	W12
	.byte		N06   , Ds4 
	.byte	W06
	.byte		        Gn4 
	.byte	W06
	.byte		        Gs3 
	.byte	W06
	.byte		        As3 
	.byte	W06
	.byte		        Ds4 
	.byte	W06
	.byte		        Gn4 
	.byte	W06
	.byte		PAN   , c_v+63
	.byte	W12
	.byte		N06   , Ds4 
	.byte	W06
	.byte		        Gn4 
	.byte	W06
	.byte		        Gs3 
	.byte	W06
	.byte		        As3 
	.byte	W06
	.byte	PEND
	.byte		N06   , Ds4 , v092
	.byte	W06
	.byte		        Gn4 
	.byte	W06
	.byte		PAN   , c_v-64
	.byte	W12
	.byte		N06   , Cs4 
	.byte	W06
	.byte		        Fn4 
	.byte	W06
	.byte		        Gs3 
	.byte	W06
	.byte		        As3 
	.byte	W06
	.byte		        Cs4 
	.byte	W06
	.byte		        Fn4 
	.byte	W06
	.byte		PAN   , c_v+63
	.byte	W12
	.byte		N06   , Cs4 
	.byte	W06
	.byte		        Fn4 
	.byte	W06
	.byte		        Gs3 
	.byte	W06
	.byte		        As3 
	.byte	W06
	.byte	PEND
	.byte		        Cs4 
	.byte	W06
	.byte		        Fn4 
	.byte	W06
	.byte		PAN   , c_v-64
	.byte	W12
	.byte		N06   , Ds4 
	.byte	W06
	.byte		        Gn4 
	.byte	W06
	.byte		        Gs3 
	.byte	W06
	.byte		        As3 
	.byte	W06
	.byte		        Ds4 
	.byte	W06
	.byte		        Gn4 
	.byte	W06
	.byte		PAN   , c_v+63
	.byte	W12
	.byte		N06   , Ds4 
	.byte	W06
	.byte		        Gn4 
	.byte	W06
	.byte		        As4 
	.byte	W06
	.byte		        Gs4 
	.byte	W06
	.byte		        Gn4 
	.byte	W06
	.byte		        Ds4 
	.byte	W06
	.byte		PAN   , c_v-64
	.byte	W12
	.byte		N06   , Cs4 
	.byte	W06
	.byte		        Fn4 
	.byte	W06
	.byte		        Gs3 
	.byte	W06
	.byte		        As3 
	.byte	W06
	.byte		        Cs4 
	.byte	W06
	.byte		        Fn4 
	.byte	W06
	.byte		PAN   , c_v+63
	.byte	W12
	.byte		N06   , Cs4 
	.byte	W06
	.byte		        Fn4 
	.byte	W06
	.byte		        Gs3 
	.byte	W06
	.byte		        As3 
	.byte	W06
	.byte	PATT
	 .word	seq_000_4 + 0x9E
	.byte	PATT
	 .word	seq_000_4 + 0xC1
	.byte		N06   , Cs4 , v092
	.byte	W06
	.byte		        Fn4 
	.byte	W06
	.byte		PAN   , c_v-64
	.byte	W12
	.byte		N06   , Ds4 
	.byte	W06
	.byte		        Gn4 
	.byte	W06
	.byte		        Gs3 
	.byte	W06
	.byte		        As3 
	.byte	W06
	.byte		        Ds4 
	.byte	W06
	.byte		        Gn4 
	.byte	W06
	.byte		PAN   , c_v+63
	.byte		N06   , As4 
	.byte	W06
	.byte		        Gs4 
	.byte	W06
	.byte		        Fn4 
	.byte	W06
	.byte		        Cs4 
	.byte	W06
	.byte		PAN   , c_v-64
	.byte		N06   , Fn4 
	.byte	W06
	.byte		PAN   , c_v+0
	.byte		N06   , Fn4 , v100
	.byte	W06
	.byte		        Fs4 
	.byte	W06
	.byte		        Gs4 
	.byte	W06
	.byte		VOICE , 1
	.byte		PAN   , c_v+63
	.byte		N06   , As3 
	.byte	W06
	.byte		        Bn3 
	.byte	W06
	.byte		        Ds4 
	.byte	W06
	.byte		        Fs4 
	.byte	W06
	.byte		        As4 
	.byte	W06
	.byte		        Bn3 
	.byte	W06
	.byte		        Cs4 
	.byte	W06
	.byte		        Bn3 
	.byte	W06
	.byte		PAN   , c_v-64
	.byte		N06   , As3 
	.byte	W06
	.byte		        Fs3 
	.byte	W06
	.byte		        Ds3 
	.byte	W06
	.byte		        Fs3 
	.byte	W06
	.byte		        Bn2 
	.byte	W06
	.byte		        Ds3 
	.byte	W06
	.byte		        Fs3 
	.byte	W06
	.byte		        Cs4 
	.byte	W06
	.byte		PAN   , c_v+63
	.byte		N06   , Gs4 
	.byte	W06
	.byte		        As4 
	.byte	W06
	.byte		        Cs4 
	.byte	W06
	.byte		        Fn4 
	.byte	W06
	.byte		        Gs4 
	.byte	W06
	.byte		        As4 
	.byte	W06
	.byte		        Gs4 
	.byte	W06
	.byte		        Fn4 
	.byte	W06
	.byte		PAN   , c_v-64
	.byte		N06   , Cs4 
	.byte	W06
	.byte		        Gs4 
	.byte	W06
	.byte		        Fn4 
	.byte	W06
	.byte		        Cs4 
	.byte	W06
	.byte		        Fn4 
	.byte	W06
	.byte		        Cs4 
	.byte	W06
	.byte		        Gs3 
	.byte	W06
	.byte		        Cs4 
	.byte	W06
	.byte		PAN   , c_v+63
	.byte		N06   , Ds3 
	.byte	W06
	.byte		        Fs3 
	.byte	W06
	.byte		        As3 
	.byte	W06
	.byte		        Bn3 
	.byte	W06
	.byte		        Ds4 
	.byte	W06
	.byte		        Fs4 
	.byte	W06
	.byte		        Bn4 
	.byte	W06
	.byte		        Ds5 
	.byte	W06
	.byte		PAN   , c_v-64
	.byte		N06   , Cs3 
	.byte	W06
	.byte		        Ds3 
	.byte	W06
	.byte		        Fn3 
	.byte	W06
	.byte		        Gs3 
	.byte	W06
	.byte		        Cs4 
	.byte	W06
	.byte		        Ds4 
	.byte	W06
	.byte		        Fn4 
	.byte	W06
	.byte		        Cs5 
	.byte	W06
	.byte		PAN   , c_v+63
	.byte		N06   , Fn4 
	.byte	W06
	.byte		        Fs4 
	.byte	W06
	.byte		        Gs4 
	.byte	W06
	.byte		        Fn4 
	.byte	W06
	.byte		        Cs4 
	.byte	W06
	.byte		        Ds4 
	.byte	W06
	.byte		        Fn4 
	.byte	W06
	.byte		        Cs4 
	.byte	W06
	.byte		PAN   , c_v-64
	.byte		N06   , As3 
	.byte	W06
	.byte		        Bn3 
	.byte	W06
	.byte		        Cs4 
	.byte	W06
	.byte		        Gs3 
	.byte	W06
	.byte		        Bn3 
	.byte	W06
	.byte		        As3 
	.byte	W06
	.byte		        Gs3 
	.byte	W06
	.byte		        Fs3 
	.byte	W06
	.byte		PAN   , c_v+63
	.byte		N06   , Fs4 
	.byte	W06
	.byte		        Fs4 , v060
	.byte	W06
	.byte		        Fs4 , v032
	.byte	W06
	.byte		PAN   , c_v-64
	.byte		N06   , Ds4 , v100
	.byte	W06
	.byte		        Ds4 , v060
	.byte	W06
	.byte		        Ds4 , v032
	.byte	W06
	.byte		PAN   , c_v+63
	.byte		N06   , Bn3 , v100
	.byte	W06
	.byte		        Bn3 , v052
	.byte	W06
	.byte		PAN   , c_v-64
	.byte		N06   , Fs3 , v100
	.byte	W06
	.byte		        Fs3 , v060
	.byte	W06
	.byte		        Fs3 , v032
	.byte	W06
	.byte		PAN   , c_v+63
	.byte		N06   , Ds3 , v100
	.byte	W06
	.byte		        Ds3 , v060
	.byte	W06
	.byte		        Ds3 , v032
	.byte	W06
	.byte		PAN   , c_v-64
	.byte		N06   , Fs4 , v100
	.byte	W06
	.byte		        Fs4 , v052
	.byte	W06
	.byte		PAN   , c_v+63
	.byte		N06   , Fn4 , v100
	.byte	W06
	.byte		        Fn4 , v060
	.byte	W06
	.byte		        Fn4 , v032
	.byte	W06
	.byte		PAN   , c_v-64
	.byte		N06   , Cs4 , v100
	.byte	W06
	.byte		        Cs4 , v060
	.byte	W06
	.byte		        Cs4 , v032
	.byte	W06
	.byte		PAN   , c_v+63
	.byte		N06   , Gs3 , v100
	.byte	W06
	.byte		        Gs3 , v052
	.byte	W06
	.byte		PAN   , c_v-64
	.byte		N06   , Fn3 , v100
	.byte	W06
	.byte		        Fn3 , v060
	.byte	W06
	.byte		        Fn3 , v032
	.byte	W06
	.byte		PAN   , c_v+63
	.byte		N06   , Cs3 , v100
	.byte	W06
	.byte		        Cs3 , v060
	.byte	W06
	.byte		        Cs3 , v032
	.byte	W06
	.byte		PAN   , c_v-64
	.byte		N06   , Fn4 , v100
	.byte	W06
	.byte		        Fn4 , v052
	.byte	W06
	.byte		PAN   , c_v+63
	.byte		N06   , Ds3 , v100
	.byte	W06
	.byte		        Fs3 
	.byte	W06
	.byte		        As3 
	.byte	W06
	.byte		        Bn3 
	.byte	W06
	.byte		        Ds4 
	.byte	W06
	.byte		        Fs4 
	.byte	W06
	.byte		        Bn4 
	.byte	W06
	.byte		        Ds5 
	.byte	W06
	.byte		PAN   , c_v-64
	.byte		N06   , Cs3 
	.byte	W06
	.byte		        Ds3 
	.byte	W06
	.byte		        Fn3 
	.byte	W06
	.byte		        Gs3 
	.byte	W06
	.byte		        Cs4 
	.byte	W06
	.byte		        Ds4 
	.byte	W06
	.byte		        Fn4 
	.byte	W06
	.byte		        Cs5 
	.byte	W06
	.byte		PAN   , c_v+63
	.byte		N06   , Ds3 
	.byte	W06
	.byte		        Fn3 
	.byte	W06
	.byte		        An3 
	.byte	W06
	.byte		        As3 
	.byte	W06
	.byte		        Ds4 
	.byte	W06
	.byte		        Fn4 
	.byte	W06
	.byte		        An4 
	.byte	W06
	.byte		        As4 
	.byte	W06
	.byte		PAN   , c_v-64
	.byte		N06   , Gs2 
	.byte	W06
	.byte		        An2 
	.byte	W06
	.byte		        Bn2 
	.byte	W06
	.byte		        Ds3 
	.byte	W06
	.byte		PAN   , c_v+63
	.byte		N06   , Gs3 
	.byte	W06
	.byte		        An3 
	.byte	W06
	.byte		        Ds4 
	.byte	W06
	.byte		        Gs4 
	.byte	W06
	.byte		PAN   , c_v+0
	.byte		N06   , Gs3 
	.byte	W06
	.byte		        Gs3 , v060
	.byte	W06
	.byte		        Gs3 , v032
	.byte	W06
	.byte		        Gs3 , v012
	.byte	W24
	.byte		VOICE , 26
	.byte		PAN   , c_v+63
	.byte		N06   , Fn4 , v072
	.byte	W06
	.byte		        Fn4 , v040
	.byte	W06
	.byte		        Fn4 , v020
	.byte	W06
	.byte		PAN   , c_v-64
	.byte		N06   , Fn4 , v052
	.byte	W06
	.byte		        Fn4 , v032
	.byte	W06
	.byte		        Fn4 , v012
	.byte	W06
	.byte		N06
	.byte	W06
	.byte		PAN   , c_v+63
	.byte		N06   , Fn4 , v032
	.byte	W06
	.byte		        Fn4 , v012
	.byte	W06
	.byte		PAN   , c_v+0
	.byte		N06
	.byte	W84
	.byte	W12
	.byte		VOICE , 1
	.byte		PAN   , c_v+63
	.byte		N06   , Gs3 , v052
	.byte	W06
	.byte		        As3 
	.byte	W06
	.byte		        Cs4 
	.byte	W06
	.byte		        Fn4 
	.byte	W06
	.byte		        Gs3 
	.byte	W06
	.byte		        As3 
	.byte	W06
	.byte		        Cs4 
	.byte	W06
	.byte		        Fn4 
	.byte	W06
	.byte		PAN   , c_v-64
	.byte		N06   , Gs3 , v072
	.byte	W06
	.byte		        As3 
	.byte	W06
	.byte		        Cs4 
	.byte	W06
	.byte		        Fn4 
	.byte	W06
	.byte		        Gs3 
	.byte	W06
	.byte		        As3 
	.byte	W06
	.byte		        Cs4 
	.byte	W06
	.byte		        Fn4 
	.byte	W06
	.byte		PAN   , c_v+63
	.byte		N06   , Gs3 , v092
	.byte	W06
	.byte		        As3 
	.byte	W06
	.byte		        Ds4 
	.byte	W06
	.byte		        Gn4 
	.byte	W06
	.byte		        Gs3 
	.byte	W06
	.byte		        As3 
	.byte	W06
	.byte		        Ds4 
	.byte	W06
	.byte		        Gn4 
	.byte	W06
	.byte		PAN   , c_v-64
	.byte		N06   , Gs3 , v100
	.byte	W06
	.byte		        As3 
	.byte	W06
	.byte		        Ds4 
	.byte	W06
	.byte		        Gn4 
	.byte	W06
	.byte		PAN   , c_v+63
	.byte		N06   , Gs3 
	.byte	W06
	.byte		        As3 
	.byte	W06
	.byte		        Ds4 
	.byte	W06
	.byte		N05   , Gn4 
	.byte	W06
	.byte	GOTO
	 .word	seq_000_4 + 0x73
	.byte	FINE

@******************************************************@

	.align	2

seq_000:
	.byte	5	@ NumTrks
	.byte	0	@ NumBlks
	.byte	seq_000_pri	@ Priority
	.byte	seq_000_rev	@ Reverb

	.word	seq_000_grp

	.word	seq_000_0
	.word	seq_000_1
	.word	seq_000_2
	.word	seq_000_3
	.word	seq_000_4

	.end
