@ File generated by m4a2s Song-Module
	.include "MPlayDef.s"

	.equ	seq_000_grp, bank_000
	.equ	seq_000_pri, 20
	.equ	seq_000_rev, 163
	.equ	seq_000_mvl, 127
	.equ	seq_000_key, 0

	.section .rodata
	.global	seq_000
	.align	2

@*********************** Track 01 ***********************@

seq_000_0:
	.byte	KEYSH , seq_000_key+0
	.byte	TEMPO , 156/2
	.byte	W01
	.byte		VOICE , 2
	.byte	W01
	.byte		VOL   , 85*seq_000_mvl/mxv
	.byte	W01
	.byte		PAN   , c_v+0
	.byte	W01
	.byte		BEND  , c_v+0
	.byte	W01
	.byte		LFOS  , 28
	.byte	W01
	.byte		LFODL , 14
	.byte	W01
	.byte		MODT  , mod_vib
	.byte	W01
	.byte		MOD   , 7
	.byte	W01
	.byte	W01
	.byte		XCMD  , xIECV , 40
	.byte	W01
	.byte	W01
	.byte		        xIECL , 3
	.byte	W84
	.byte	W15
	.byte		VOICE , 3
	.byte	W80
	.byte	W01
	.byte	W24
	.byte	W03
	.byte		N03   , En3 , v072
	.byte	W03
	.byte		        En3 , v020
	.byte	W03
	.byte		        Gn3 , v072
	.byte	W03
	.byte		        Gn3 , v020
	.byte	W03
	.byte		        Bn3 , v072
	.byte	W03
	.byte		        Bn3 , v020
	.byte	W03
	.byte		        Dn4 , v072
	.byte	W03
	.byte		        Dn4 , v020
	.byte	W03
	.byte		        Bn3 , v072
	.byte	W03
	.byte		        Bn3 , v020
	.byte	W03
	.byte		        Gn3 , v072
	.byte	W03
	.byte		        Gn3 , v020
	.byte	W03
	.byte		        En3 , v072
	.byte	W03
	.byte		        En3 , v020
	.byte	W03
	.byte		        Dn3 , v080
	.byte	W03
	.byte		        Dn3 , v032
	.byte	W03
	.byte		        En3 , v080
	.byte	W03
	.byte		        En3 , v032
	.byte	W03
	.byte		        Gn3 , v080
	.byte	W03
	.byte		        Gn3 , v032
	.byte	W03
	.byte		        Bn3 , v080
	.byte	W03
	.byte		        Bn3 , v032
	.byte	W03
	.byte		        Dn4 , v080
	.byte	W03
	.byte		        Dn4 , v032
	.byte	W03
	.byte		        Bn3 , v080
	.byte	W03
	.byte		        Bn3 , v032
	.byte	W03
	.byte		        Gn3 , v080
	.byte	W03
	.byte		        Gn3 , v032
	.byte	W03
	.byte		        En3 , v080
	.byte	W03
	.byte		        En3 , v032
	.byte	W03
	.byte		        Dn3 , v092
	.byte	W03
	.byte		        Dn3 , v040
	.byte	W03
	.byte		        En3 , v092
	.byte	W03
	.byte		        En3 , v040
	.byte	W03
	.byte		        Gn3 , v092
	.byte	W03
	.byte		        Gn3 , v040
	.byte	W03
	.byte		        Bn3 , v092
	.byte	W03
	.byte		        Bn3 , v040
	.byte	W03
	.byte		        Dn4 , v092
	.byte	W03
	.byte		        Dn4 , v040
	.byte	W03
	.byte		        Bn3 , v092
	.byte	W03
	.byte		        Bn3 , v040
	.byte	W03
	.byte		        Gn3 , v092
	.byte	W03
	.byte		        Gn3 , v040
	.byte	W03
	.byte		        En3 , v092
	.byte	W03
	.byte		        En3 , v040
	.byte	W03
	.byte		        Dn3 , v100
	.byte	W03
	.byte		        Dn3 , v052
	.byte	W03
	.byte		        En3 , v100
	.byte	W03
	.byte		        En3 , v052
	.byte	W03
	.byte		        Gn3 , v100
	.byte	W03
	.byte		        Gn3 , v052
	.byte	W03
	.byte		        Bn3 , v100
	.byte	W03
	.byte		        Bn3 , v052
	.byte	W03
	.byte		        Dn4 , v100
	.byte	W03
	.byte		        Dn4 , v052
	.byte	W03
	.byte		        Bn3 , v100
	.byte	W03
	.byte		        Bn3 , v052
	.byte	W03
	.byte		        Gn3 , v100
	.byte	W03
	.byte		        Gn3 , v052
	.byte	W03
	.byte		        En3 , v100
	.byte	W03
	.byte		        En3 , v052
	.byte	W03
	.byte		        Dn3 , v112
	.byte	W03
	.byte		        Dn3 , v060
	.byte	W03
	.byte		        En3 , v112
	.byte	W03
	.byte		        En3 , v060
	.byte	W03
	.byte		        Gn3 , v112
	.byte	W03
	.byte		        Gn3 , v060
	.byte	W03
	.byte		        Bn3 , v112
	.byte	W03
	.byte		        Bn3 , v060
	.byte	W03
	.byte		        Dn4 , v112
	.byte	W03
	.byte		        Dn4 , v060
	.byte	W03
	.byte		        Bn3 , v112
	.byte	W03
	.byte		        Bn3 , v060
	.byte	W03
	.byte		        Gn3 , v112
	.byte	W03
	.byte		        Gn3 , v060
	.byte	W03
	.byte		        En3 , v112
	.byte	W03
	.byte		        En3 , v060
	.byte	W03
	.byte		        En2 , v120
	.byte	W03
	.byte		        En2 , v072
	.byte	W03
	.byte		        Gn2 , v120
	.byte	W03
	.byte		        Gn2 , v072
	.byte	W03
	.byte		        Bn2 , v120
	.byte	W03
	.byte		        Bn2 , v072
	.byte	W03
	.byte		N04   , Gn2 , v120
	.byte	W04
	.byte		        Bn2 
	.byte	W04
	.byte		        Dn3 
	.byte	W01
	.byte	W03
	.byte		        Bn3 
	.byte	W04
	.byte		        Dn4 
	.byte	W04
	.byte		        Fs4 
	.byte	W04
	.byte		VOICE , 2
	.byte		PAN   , c_v+63
	.byte		N03   , Cs3 , v092
	.byte	W03
	.byte		        Cs3 , v052
	.byte	W03
	.byte		        Gn3 , v092
	.byte	W03
	.byte		        Gn3 , v052
	.byte	W03
	.byte		        As3 , v092
	.byte	W03
	.byte		        As3 , v052
	.byte	W03
	.byte		        Cs4 , v092
	.byte	W03
	.byte		        Cs4 , v052
	.byte	W03
	.byte		        Gn4 , v092
	.byte	W03
	.byte		        Gn4 , v052
	.byte	W03
	.byte		        Cs4 , v092
	.byte	W03
	.byte		        Cs4 , v052
	.byte	W03
	.byte		        As3 , v092
	.byte	W03
	.byte		        As3 , v052
	.byte	W03
	.byte		        Gn3 , v092
	.byte	W03
	.byte		        Gn3 , v052
	.byte	W02
	.byte		PAN   , c_v-64
	.byte	W01
	.byte		N03   , Cs3 , v092
	.byte	W03
	.byte		        Cs3 , v052
	.byte	W03
	.byte		        Gn3 , v092
	.byte	W03
	.byte		        Gn3 , v052
	.byte	W03
	.byte		        As3 , v092
	.byte	W03
	.byte		        As3 , v052
	.byte	W03
	.byte		        Cs4 , v092
	.byte	W03
	.byte		        Cs4 , v052
	.byte	W03
	.byte		        Gn4 , v092
	.byte	W03
	.byte		        Gn4 , v052
	.byte	W03
	.byte		        Cs4 , v092
	.byte	W03
	.byte		N03   , Cs4 , v052
	.byte	W03
	.byte		        As3 , v092
	.byte	W03
	.byte		        As3 , v052
	.byte	W03
	.byte		        Gn3 , v092
	.byte	W03
	.byte		        Gn3 , v052
	.byte	W02
	.byte		PAN   , c_v+63
	.byte	W01
	.byte		N03   , As2 , v092
	.byte	W03
	.byte		        As2 , v052
	.byte	W03
	.byte		        En3 , v092
	.byte	W03
	.byte		        En3 , v052
	.byte	W03
	.byte		        Gn3 , v092
	.byte	W03
	.byte		        Gn3 , v052
	.byte	W03
	.byte		        As3 , v092
	.byte	W03
	.byte		        As3 , v052
	.byte	W03
	.byte		        En4 , v092
	.byte	W03
	.byte		        En4 , v052
	.byte	W03
	.byte		        As3 , v092
	.byte	W03
	.byte		        As3 , v052
	.byte	W03
	.byte		        Gn3 , v092
	.byte	W03
	.byte		        Gn3 , v052
	.byte	W03
	.byte		        En3 , v092
	.byte	W03
	.byte		        En3 , v052
	.byte	W02
	.byte		PAN   , c_v-64
	.byte	W01
	.byte		N03   , Gn2 , v092
	.byte	W03
	.byte		        Gn2 , v052
	.byte	W03
	.byte		        Cs3 , v092
	.byte	W03
	.byte		        Cs3 , v052
	.byte	W03
	.byte		        En3 , v092
	.byte	W03
	.byte		        En3 , v052
	.byte	W03
	.byte		        Gn3 , v092
	.byte	W03
	.byte		        Gn3 , v052
	.byte	W03
	.byte		        Cs4 , v092
	.byte	W03
	.byte		        Cs4 , v052
	.byte	W03
	.byte		        Gn3 , v092
	.byte	W03
	.byte	PEND
	.byte		N03   , Gn3 , v052
	.byte	W03
	.byte		        En3 , v092
	.byte	W03
	.byte		        En3 , v052
	.byte	W03
	.byte		        Cs3 , v092
	.byte	W03
	.byte		        Cs3 , v052
	.byte	W02
	.byte		PAN   , c_v+63
	.byte	W01
	.byte		N03   , Cs3 , v092
	.byte	W03
	.byte		        Cs3 , v052
	.byte	W03
	.byte		        Gn3 , v092
	.byte	W03
	.byte		        Gn3 , v052
	.byte	W03
	.byte		        As3 , v092
	.byte	W03
	.byte		        As3 , v052
	.byte	W03
	.byte		        Cs4 , v092
	.byte	W03
	.byte		        Cs4 , v052
	.byte	W03
	.byte		        Gn4 , v092
	.byte	W03
	.byte		        Gn4 , v052
	.byte	W03
	.byte		        Cs4 , v092
	.byte	W03
	.byte		        Cs4 , v052
	.byte	W03
	.byte		        As3 , v092
	.byte	W03
	.byte		        As3 , v052
	.byte	W03
	.byte		        Gn3 , v092
	.byte	W03
	.byte		        Gn3 , v052
	.byte	W02
	.byte		PAN   , c_v-64
	.byte	W01
	.byte		N03   , Cs3 , v092
	.byte	W03
	.byte		        Cs3 , v052
	.byte	W03
	.byte		        Gn3 , v092
	.byte	W03
	.byte		        Gn3 , v052
	.byte	W03
	.byte		        As3 , v092
	.byte	W03
	.byte		        As3 , v052
	.byte	W03
	.byte		        Cs4 , v092
	.byte	W03
	.byte		        Cs4 , v052
	.byte	W03
	.byte		        Gn4 , v092
	.byte	W03
	.byte		        Gn4 , v052
	.byte	W03
	.byte		        Cs4 , v092
	.byte	W03
	.byte	PEND
	.byte	PATT
	 .word	seq_000_0 + 0x193
	.byte	PATT
	 .word	seq_000_0 + 0x1FD
	.byte	PATT
	 .word	seq_000_0 + 0x193
	.byte	PATT
	 .word	seq_000_0 + 0x1FD
	.byte	PATT
	 .word	seq_000_0 + 0x193
	.byte		N03   , Gn3 , v052
	.byte	W03
	.byte		        En3 , v092
	.byte	W03
	.byte		        En3 , v052
	.byte	W03
	.byte		        Cs3 , v092
	.byte	W03
	.byte		        Cs3 , v052
	.byte	W03
	.byte		PAN   , c_v+63
	.byte	W12
	.byte		N12   , Gn4 , v080
	.byte	W12
	.byte		        Gn4 , v040
	.byte	W12
	.byte		PAN   , c_v-64
	.byte		N12   , Gn3 , v080
	.byte	W12
	.byte		        Gn3 , v040
	.byte	W18
	.byte		PAN   , c_v+63
	.byte	W06
	.byte		N06   , Gn5 , v080
	.byte	W06
	.byte		        Fs5 
	.byte	W03
	.byte	W03
	.byte		N06   , Fn5 , v080
	.byte	W06
	.byte		        Cs5 
	.byte	W06
	.byte		PAN   , c_v-64
	.byte	W12
	.byte		N12   , As4 
	.byte	W12
	.byte		        As4 , v040
	.byte	W12
	.byte		PAN   , c_v+63
	.byte		N12   , As3 , v080
	.byte	W12
	.byte		        As3 , v040
	.byte	W18
	.byte		PAN   , c_v-64
	.byte	W06
	.byte		N06   , Gn4 , v080
	.byte	W06
	.byte		        Fs4 
	.byte	W03
	.byte	PEND
	.byte	W03
	.byte		N06   , Fn4 , v080
	.byte	W06
	.byte		        Cs4 
	.byte	W06
	.byte		PAN   , c_v+63
	.byte	W12
	.byte		N12   , Gn4 
	.byte	W12
	.byte		        Gn4 , v040
	.byte	W12
	.byte		PAN   , c_v-64
	.byte		N12   , Gn3 , v080
	.byte	W12
	.byte		        Gn3 , v040
	.byte	W18
	.byte		PAN   , c_v+63
	.byte	W06
	.byte		N06   , Gn5 , v080
	.byte	W06
	.byte		        Fs5 
	.byte	W03
	.byte	PEND
	.byte	W03
	.byte		N06   , Fn5 , v080
	.byte	W06
	.byte		        Cs5 
	.byte	W06
	.byte		PAN   , c_v-64
	.byte	W12
	.byte		N12   , As4 
	.byte	W12
	.byte		        As4 , v040
	.byte	W12
	.byte		PAN   , c_v+63
	.byte		N12   , As3 , v080
	.byte	W12
	.byte		        As3 , v040
	.byte	W12
	.byte		N06   , Gn5 , v080
	.byte	W06
	.byte		PAN   , c_v-64
	.byte		N06   , Fs5 
	.byte	W06
	.byte		        Fn5 
	.byte	W06
	.byte		        Cs5 
	.byte	W03
	.byte	PEND
	.byte	W03
	.byte		        As4 
	.byte	W06
	.byte		        Fs4 
	.byte	W06
	.byte		PAN   , c_v+63
	.byte	W12
	.byte		N12   , Gn4 
	.byte	W12
	.byte		        Gn4 , v040
	.byte	W12
	.byte		PAN   , c_v-64
	.byte		N12   , Gn3 , v080
	.byte	W12
	.byte		        Gn3 , v040
	.byte	W18
	.byte		PAN   , c_v+63
	.byte	W06
	.byte		N06   , Gn5 , v080
	.byte	W06
	.byte		        Fs5 
	.byte	W03
	.byte	PATT
	 .word	seq_000_0 + 0x2AC
	.byte	PATT
	 .word	seq_000_0 + 0x2CF
	.byte	PATT
	 .word	seq_000_0 + 0x2F2
	.byte	W03
	.byte		N06   , As4 , v080
	.byte	W06
	.byte		        Fs4 
	.byte	W06
	.byte		PAN   , c_v+63
	.byte		N06   , Cs2 
	.byte	W06
	.byte		        Fn2 
	.byte	W06
	.byte		        Gs2 
	.byte	W06
	.byte		        Cn3 
	.byte	W06
	.byte		PAN   , c_v-59
	.byte		N06   , Ds3 
	.byte	W06
	.byte		        Gn3 
	.byte	W06
	.byte		        Ds3 
	.byte	W06
	.byte		        Cn3 
	.byte	W06
	.byte		PAN   , c_v+63
	.byte		N06   , Gs2 
	.byte	W06
	.byte		        Fn3 
	.byte	W06
	.byte		        Gs3 
	.byte	W06
	.byte		        Cn4 
	.byte	W06
	.byte		PAN   , c_v-64
	.byte		N06   , Ds4 
	.byte	W06
	.byte		        Gn4 
	.byte	W03
	.byte	W03
	.byte		        Ds4 
	.byte	W06
	.byte		        Cn4 
	.byte	W06
	.byte		PAN   , c_v+63
	.byte		N06   , Fn2 
	.byte	W06
	.byte		        As2 
	.byte	W06
	.byte		        Dn3 
	.byte	W06
	.byte		        Fn3 
	.byte	W06
	.byte		PAN   , c_v-59
	.byte		N06   , Gn3 
	.byte	W06
	.byte		        Cn4 
	.byte	W06
	.byte		        Gs3 
	.byte	W06
	.byte		        Fn3 
	.byte	W06
	.byte		PAN   , c_v+63
	.byte		N06   , Dn5 
	.byte	W06
	.byte		        As4 
	.byte	W06
	.byte		        Gs4 
	.byte	W06
	.byte		        Fn4 
	.byte	W06
	.byte		PAN   , c_v-64
	.byte		N06   , Dn4 
	.byte	W06
	.byte		        As3 
	.byte	W03
	.byte	W03
	.byte		        Gs3 
	.byte	W06
	.byte		        Fn3 
	.byte	W06
	.byte		PAN   , c_v+63
	.byte		N03   , Ds3 , v100
	.byte	W03
	.byte		        Ds3 , v060
	.byte	W03
	.byte		        Ds3 , v100
	.byte	W03
	.byte		        Ds3 , v060
	.byte	W03
	.byte		        Gn3 , v100
	.byte	W03
	.byte		        Gn3 , v060
	.byte	W03
	.byte		        As3 , v100
	.byte	W03
	.byte		        As3 , v060
	.byte	W03
	.byte		        Dn4 , v100
	.byte	W03
	.byte		        Dn4 , v060
	.byte	W03
	.byte		        As3 , v100
	.byte	W03
	.byte		        As3 , v060
	.byte	W03
	.byte		        Gn3 , v100
	.byte	W03
	.byte		        Gn3 , v060
	.byte	W03
	.byte		        Ds3 , v100
	.byte	W03
	.byte		        Ds3 , v060
	.byte	W03
	.byte		PAN   , c_v-64
	.byte		N03   , Dn3 , v100
	.byte	W03
	.byte		        Dn3 , v060
	.byte	W03
	.byte		        Ds3 , v100
	.byte	W03
	.byte		        Ds3 , v060
	.byte	W03
	.byte		        Gn3 , v100
	.byte	W03
	.byte		        Gn3 , v060
	.byte	W03
	.byte		        As3 , v100
	.byte	W03
	.byte		        As3 , v060
	.byte	W03
	.byte		        Dn4 , v100
	.byte	W03
	.byte		        Dn4 , v060
	.byte	W03
	.byte		        As3 , v100
	.byte	W03
	.byte		        As3 , v060
	.byte	W03
	.byte		        Gn3 , v100
	.byte	W03
	.byte		        Gn3 , v060
	.byte	W03
	.byte		        Ds3 , v100
	.byte	W03
	.byte		        Ds3 , v060
	.byte	W03
	.byte		PAN   , c_v+63
	.byte		N03   , Dn3 , v100
	.byte	W03
	.byte		        Dn3 , v060
	.byte	W03
	.byte		        Ds3 , v100
	.byte	W03
	.byte		        Ds3 , v060
	.byte	W03
	.byte		        Gn3 , v100
	.byte	W03
	.byte		        Gn3 , v060
	.byte	W03
	.byte		        As3 , v100
	.byte	W03
	.byte		        As3 , v060
	.byte	W03
	.byte		        Dn4 , v100
	.byte	W03
	.byte		        Dn4 , v060
	.byte	W03
	.byte		        As3 , v100
	.byte	W03
	.byte		        As3 , v060
	.byte	W03
	.byte		        Gn3 , v100
	.byte	W03
	.byte		        Gn3 , v060
	.byte	W03
	.byte		        Ds3 , v100
	.byte	W03
	.byte		        Ds3 , v060
	.byte	W03
	.byte		PAN   , c_v-64
	.byte		N03   , Dn2 , v100
	.byte	W03
	.byte		        Dn2 , v060
	.byte	W03
	.byte		        Ds2 , v100
	.byte	W03
	.byte		        Ds2 , v060
	.byte	W03
	.byte		        Gn2 , v100
	.byte	W03
	.byte		        Gn2 , v060
	.byte	W03
	.byte		        As2 , v100
	.byte	W03
	.byte		        As2 , v060
	.byte	W03
	.byte		        Dn3 , v100
	.byte	W03
	.byte		        Dn3 , v060
	.byte	W03
	.byte		        Ds3 , v100
	.byte	W03
	.byte		        Ds3 , v060
	.byte	W03
	.byte		        Gn3 , v100
	.byte	W03
	.byte		        Gn3 , v060
	.byte	W03
	.byte		        As3 , v100
	.byte	W03
	.byte		        As3 , v060
	.byte	W03
	.byte		VOICE , 3
	.byte		PAN   , c_v+63
	.byte		N12   , Dn4 , v080
	.byte	W12
	.byte		        Cn4 
	.byte	W12
	.byte		        Gs3 
	.byte	W12
	.byte		N18   , Cn4 
	.byte	W18
	.byte		N06   , Cn4 , v040
	.byte	W06
	.byte		PAN   , c_v-64
	.byte		N06   , Cs3 , v100
	.byte	W06
	.byte		        Fn3 
	.byte	W06
	.byte		PAN   , c_v+63
	.byte		N06   , Gn3 
	.byte	W06
	.byte		        As3 
	.byte	W03
	.byte	W03
	.byte		        Cs4 
	.byte	W06
	.byte		        Fn4 
	.byte	W06
	.byte		PAN   , c_v-64
	.byte		N12   , Cs4 , v080
	.byte	W12
	.byte		        Cn4 
	.byte	W12
	.byte		        Fn3 
	.byte	W12
	.byte		N30   , Gs3 
	.byte	W30
	.byte		N06   , Gs3 , v040
	.byte	W06
	.byte		PAN   , c_v+63
	.byte		N24   , Fs3 , v080
	.byte	W09
	.byte	W15
	.byte		PAN   , c_v-64
	.byte		N48   , Gn3 
	.byte	W48
	.byte		N12   , Gn3 , v040
	.byte	W12
	.byte		N06   , Ds2 , v100
	.byte	W06
	.byte		        Fn2 
	.byte	W06
	.byte		PAN   , c_v+63
	.byte		N06   , Gs2 
	.byte	W06
	.byte		        Cn3 
	.byte	W03
	.byte	W03
	.byte		        Ds3 
	.byte	W06
	.byte		        Gn3 
	.byte	W48
	.byte		PAN   , c_v-64
	.byte	W06
	.byte		N12   , Dn4 , v080
	.byte	W12
	.byte		N06   , Dn4 , v020
	.byte	W06
	.byte		N12   , Dn4 , v072
	.byte	W12
	.byte		N06   , Dn4 , v032
	.byte	W03
	.byte	W03
	.byte		N12   , Dn4 , v052
	.byte	W92
	.byte	W01
	.byte	W96
	.byte	W96
	.byte	W96
	.byte	W15
	.byte		PAN   , c_v-64
	.byte		N36   , Gn4 , v080
	.byte	W36
	.byte		N12   , Gn4 , v040
	.byte	W12
	.byte		N06   , Cn3 , v092
	.byte	W06
	.byte		        En3 
	.byte	W06
	.byte		        Gn3 
	.byte	W06
	.byte		        Bn3 
	.byte	W06
	.byte		        Dn4 
	.byte	W06
	.byte		        Bn3 
	.byte	W03
	.byte	W03
	.byte		        Gn3 
	.byte	W06
	.byte		        En3 
	.byte	W06
	.byte		N36   , Fn4 , v080
	.byte	W36
	.byte		N12   , Fn4 , v040
	.byte	W12
	.byte		N06   , Dn3 , v092
	.byte	W06
	.byte		        Fn3 
	.byte	W06
	.byte		        Gn3 
	.byte	W06
	.byte		        Bn3 
	.byte	W06
	.byte		        Fn4 
	.byte	W06
	.byte		        Bn3 
	.byte	W03
	.byte	W03
	.byte		        Gn3 
	.byte	W06
	.byte		        Fn3 
	.byte	W06
	.byte		N36   , En4 , v080
	.byte	W36
	.byte		N12   , En4 , v040
	.byte	W12
	.byte		N06   , An3 , v092
	.byte	W06
	.byte		        Cn4 
	.byte	W06
	.byte		        En4 
	.byte	W06
	.byte		        Gn4 
	.byte	W06
	.byte		        Bn4 
	.byte	W06
	.byte		        Gn4 
	.byte	W03
	.byte	W03
	.byte		        En4 
	.byte	W06
	.byte		        Cn4 
	.byte	W06
	.byte		PAN   , c_v-64
	.byte		N03   , Dn2 , v112
	.byte	W03
	.byte		        Dn2 , v060
	.byte	W03
	.byte		        Fn2 , v112
	.byte	W03
	.byte		        Fn2 , v060
	.byte	W03
	.byte		        Gn2 , v112
	.byte	W03
	.byte		        Gn2 , v060
	.byte	W03
	.byte		        Bn2 , v112
	.byte	W03
	.byte		        Bn2 , v060
	.byte	W03
	.byte		        Dn3 , v112
	.byte	W03
	.byte		        Dn3 , v060
	.byte	W03
	.byte		        Fn3 , v112
	.byte	W03
	.byte		        Fn3 , v060
	.byte	W03
	.byte		        Gn3 , v112
	.byte	W03
	.byte		        Gn3 , v060
	.byte	W03
	.byte		        Bn3 , v112
	.byte	W03
	.byte		        Bn3 , v060
	.byte	W03
	.byte		PAN   , c_v+63
	.byte		N03   , Dn3 , v100
	.byte	W03
	.byte		        Dn3 , v052
	.byte	W03
	.byte		        Fn3 , v100
	.byte	W03
	.byte		        Fn3 , v052
	.byte	W03
	.byte		        Gn3 , v100
	.byte	W03
	.byte		        Gn3 , v052
	.byte	W03
	.byte		        Bn3 , v100
	.byte	W03
	.byte		        Bn3 , v052
	.byte	W03
	.byte		        Dn4 , v100
	.byte	W03
	.byte		        Dn4 , v052
	.byte	W03
	.byte		        Fn4 , v100
	.byte	W03
	.byte		        Fn4 , v052
	.byte	W03
	.byte		        Gn4 , v100
	.byte	W03
	.byte		        Gn4 , v052
	.byte	W03
	.byte		        Bn4 , v100
	.byte	W03
	.byte		        Bn4 , v052
	.byte	W84
	.byte	W15
	.byte	GOTO
	 .word	seq_000_0 + 0x139
	.byte	FINE

@*********************** Track 02 ***********************@

seq_000_1:
	.byte	KEYSH , seq_000_key+0
	.byte	W01
	.byte		VOICE , 7
	.byte	W01
	.byte		VOL   , 94*seq_000_mvl/mxv
	.byte	W01
	.byte		PAN   , c_v+0
	.byte	W01
	.byte		BEND  , c_v+0
	.byte	W01
	.byte		LFOS  , 28
	.byte	W01
	.byte		LFODL , 14
	.byte	W01
	.byte		MODT  , mod_vib
	.byte	W01
	.byte		MOD   , 5
	.byte	W01
	.byte	W01
	.byte		XCMD  , xIECV , 40
	.byte	W01
	.byte	W01
	.byte		        xIECL , 4
	.byte	W84
	.byte	W96
	.byte	W15
	.byte		PAN   , c_v+63
	.byte	W06
	.byte		N03   , En3 , v072
	.byte	W03
	.byte		        En3 , v020
	.byte	W03
	.byte		        Gn3 , v072
	.byte	W03
	.byte		        Gn3 , v020
	.byte	W03
	.byte		        Bn3 , v072
	.byte	W03
	.byte		        Bn3 , v020
	.byte	W03
	.byte		        Dn4 , v072
	.byte	W03
	.byte		        Dn4 , v020
	.byte	W03
	.byte		        Bn3 , v072
	.byte	W03
	.byte		        Bn3 , v020
	.byte	W03
	.byte		        Gn3 , v072
	.byte	W03
	.byte		        Gn3 , v020
	.byte	W03
	.byte		        En3 , v072
	.byte	W03
	.byte		        En3 , v020
	.byte	W03
	.byte		PAN   , c_v-64
	.byte		N03   , Dn3 , v080
	.byte	W03
	.byte		        Dn3 , v032
	.byte	W03
	.byte		        En3 , v080
	.byte	W03
	.byte		        En3 , v032
	.byte	W03
	.byte		        Gn3 , v080
	.byte	W03
	.byte		        Gn3 , v032
	.byte	W03
	.byte		        Bn3 , v080
	.byte	W03
	.byte		        Bn3 , v032
	.byte	W03
	.byte		        Dn4 , v080
	.byte	W03
	.byte		        Dn4 , v032
	.byte	W03
	.byte		        Bn3 , v080
	.byte	W03
	.byte		        Bn3 , v032
	.byte	W03
	.byte		        Gn3 , v080
	.byte	W03
	.byte		        Gn3 , v032
	.byte	W03
	.byte		        En3 , v080
	.byte	W03
	.byte		        En3 , v032
	.byte	W03
	.byte		PAN   , c_v+63
	.byte		N03   , Dn3 , v092
	.byte	W03
	.byte		        Dn3 , v040
	.byte	W03
	.byte		        En3 , v092
	.byte	W03
	.byte		        En3 , v040
	.byte	W03
	.byte		        Gn3 , v092
	.byte	W03
	.byte		        Gn3 , v040
	.byte	W03
	.byte		        Bn3 , v092
	.byte	W03
	.byte		        Bn3 , v040
	.byte	W03
	.byte		        Dn4 , v092
	.byte	W03
	.byte		        Dn4 , v040
	.byte	W03
	.byte		        Bn3 , v092
	.byte	W03
	.byte		        Bn3 , v040
	.byte	W03
	.byte		        Gn3 , v092
	.byte	W03
	.byte		        Gn3 , v040
	.byte	W03
	.byte		        En3 , v092
	.byte	W03
	.byte		        En3 , v040
	.byte	W03
	.byte		PAN   , c_v-64
	.byte		N03   , Dn3 , v100
	.byte	W03
	.byte		        Dn3 , v052
	.byte	W03
	.byte		        En3 , v100
	.byte	W03
	.byte		        En3 , v052
	.byte	W03
	.byte		        Gn3 , v100
	.byte	W03
	.byte		        Gn3 , v052
	.byte	W03
	.byte		        Bn3 , v100
	.byte	W03
	.byte		        Bn3 , v052
	.byte	W03
	.byte		        Dn4 , v100
	.byte	W03
	.byte		        Dn4 , v052
	.byte	W03
	.byte		        Bn3 , v100
	.byte	W03
	.byte		        Bn3 , v052
	.byte	W03
	.byte		        Gn3 , v100
	.byte	W03
	.byte		        Gn3 , v052
	.byte	W03
	.byte		        En3 , v100
	.byte	W03
	.byte		        En3 , v052
	.byte	W03
	.byte		PAN   , c_v+63
	.byte		N03   , Dn3 , v112
	.byte	W03
	.byte		        Dn3 , v060
	.byte	W03
	.byte		        En3 , v112
	.byte	W03
	.byte		        En3 , v060
	.byte	W03
	.byte		        Gn3 , v112
	.byte	W03
	.byte		        Gn3 , v060
	.byte	W03
	.byte		        Bn3 , v112
	.byte	W03
	.byte		        Bn3 , v060
	.byte	W03
	.byte		        Dn4 , v112
	.byte	W03
	.byte		        Dn4 , v060
	.byte	W03
	.byte		        Bn3 , v112
	.byte	W03
	.byte		        Bn3 , v060
	.byte	W03
	.byte		        Gn3 , v112
	.byte	W03
	.byte		        Gn3 , v060
	.byte	W03
	.byte		        En3 , v112
	.byte	W03
	.byte		        En3 , v060
	.byte	W03
	.byte		PAN   , c_v-64
	.byte		N03   , En2 , v120
	.byte	W03
	.byte		        En2 , v072
	.byte	W03
	.byte		        Gn2 , v120
	.byte	W03
	.byte		        Gn2 , v072
	.byte	W03
	.byte		        Bn2 , v120
	.byte	W03
	.byte		        Bn2 , v072
	.byte	W03
	.byte		        Dn3 , v120
	.byte	W03
	.byte		        Dn3 , v072
	.byte	W03
	.byte		PAN   , c_v+63
	.byte		N04   , Bn2 , v120
	.byte	W04
	.byte		        Dn3 
	.byte	W04
	.byte		        Fs3 
	.byte	W01
	.byte	W03
	.byte		PAN   , c_v-64
	.byte		N04   , Dn4 
	.byte	W04
	.byte		        Fs4 
	.byte	W04
	.byte		        An4 
	.byte	W03
	.byte		PAN   , c_v+0
	.byte	W01
	.byte		VOICE , 7
	.byte		VOL   , 94*seq_000_mvl/mxv
	.byte		PAN   , c_v+0
	.byte		N36   , Gn3 , v112
	.byte	W36
	.byte		        An3 
	.byte	W36
	.byte		N72   , As3 
	.byte	W09
	.byte	W80
	.byte	W01
	.byte		N18   , As3 , v052
	.byte	W15
	.byte	PEND
	.byte	W15
	.byte		N36   , Dn3 , v112
	.byte	W36
	.byte		        Ds3 
	.byte	W36
	.byte		N72   , En3 
	.byte	W09
	.byte	W80
	.byte	W01
	.byte		N18   , En3 , v052
	.byte	W15
	.byte	W15
	.byte		N36   , Gn3 , v112
	.byte	W36
	.byte		        An3 
	.byte	W36
	.byte		N72   , As3 
	.byte	W09
	.byte	W72
	.byte	W03
	.byte		N12   , As3 , v052
	.byte	W12
	.byte		        Dn4 , v112
	.byte	W09
	.byte	W03
	.byte		        Cs4 
	.byte	W12
	.byte		N36   , Cn4 
	.byte	W36
	.byte		        Bn3 
	.byte	W36
	.byte		N72   , As3 
	.byte	W09
	.byte	PATT
	 .word	seq_000_1 + 0x161
	.byte	W15
	.byte		N06   , Gn2 , v100
	.byte	W06
	.byte		        As2 
	.byte	W06
	.byte		        Cs3 
	.byte	W11
	.byte		PAN   , c_v-64
	.byte	W01
	.byte		N06   , Gn2 
	.byte	W06
	.byte		        As2 
	.byte	W06
	.byte		        Cs3 
	.byte	W11
	.byte		PAN   , c_v+0
	.byte	W01
	.byte		N06   , As2 
	.byte	W06
	.byte		        Cs3 
	.byte	W06
	.byte		        En3 
	.byte	W11
	.byte		PAN   , c_v+63
	.byte	W01
	.byte		N06   , As2 
	.byte	W06
	.byte		        Cs3 
	.byte	W03
	.byte	W03
	.byte		N06   , En3 , v100
	.byte	W11
	.byte		PAN   , c_v+0
	.byte	W01
	.byte		N06   , Cs3 
	.byte	W06
	.byte		        En3 
	.byte	W06
	.byte		        Gn3 
	.byte	W11
	.byte		PAN   , c_v-64
	.byte	W01
	.byte		N06   , Cs3 
	.byte	W06
	.byte		        En3 
	.byte	W06
	.byte		        Gn3 
	.byte	W11
	.byte		PAN   , c_v+0
	.byte	W01
	.byte		N06   , En3 
	.byte	W06
	.byte		        Gn3 
	.byte	W06
	.byte		        As3 
	.byte	W11
	.byte		PAN   , c_v+63
	.byte	W01
	.byte		N06   , En3 
	.byte	W06
	.byte		        Gn3 
	.byte	W03
	.byte	PEND
	.byte	W03
	.byte		N06   , As3 , v100
	.byte	W06
	.byte		        An3 
	.byte	W06
	.byte		        Gn2 
	.byte	W06
	.byte		        As2 
	.byte	W06
	.byte		        Cs3 
	.byte	W11
	.byte		PAN   , c_v-64
	.byte	W01
	.byte		N06   , Gn2 
	.byte	W06
	.byte		        As2 
	.byte	W06
	.byte		        Cs3 
	.byte	W11
	.byte		PAN   , c_v+0
	.byte	W01
	.byte		N06   , As2 
	.byte	W06
	.byte		        Cs3 
	.byte	W06
	.byte		        En3 
	.byte	W11
	.byte		PAN   , c_v+63
	.byte	W01
	.byte		N06   , As2 
	.byte	W06
	.byte		        Cs3 
	.byte	W03
	.byte	PEND
	.byte	PATT
	 .word	seq_000_1 + 0x1C0
	.byte	W03
	.byte		N06   , As3 , v100
	.byte	W06
	.byte		        Cs4 
	.byte	W06
	.byte		        Gn2 
	.byte	W06
	.byte		        As2 
	.byte	W06
	.byte		        Cs3 
	.byte	W11
	.byte		PAN   , c_v-64
	.byte	W01
	.byte		N06   , Gn2 
	.byte	W06
	.byte		        As2 
	.byte	W06
	.byte		        Cs3 
	.byte	W11
	.byte		PAN   , c_v+0
	.byte	W01
	.byte		N06   , As2 
	.byte	W06
	.byte		        Cs3 
	.byte	W06
	.byte		        En3 
	.byte	W11
	.byte		PAN   , c_v+63
	.byte	W01
	.byte		N06   , As2 
	.byte	W06
	.byte		        Cs3 
	.byte	W03
	.byte	PATT
	 .word	seq_000_1 + 0x1C0
	.byte	PATT
	 .word	seq_000_1 + 0x1EC
	.byte	W03
	.byte		N06   , En3 , v100
	.byte	W11
	.byte		PAN   , c_v+0
	.byte	W01
	.byte		N06   , Cs3 
	.byte	W06
	.byte		        En3 
	.byte	W05
	.byte		PAN   , c_v-64
	.byte	W01
	.byte		N18   , Gn3 , v080
	.byte	W18
	.byte		N06   , Gn3 , v040
	.byte	W05
	.byte		PAN   , c_v+63
	.byte	W01
	.byte		N18   , Fs3 , v080
	.byte	W18
	.byte		N06   , Fs3 , v040
	.byte	W05
	.byte		PAN   , c_v-64
	.byte	W01
	.byte		N18   , As3 , v080
	.byte	W18
	.byte		N06   , As3 , v040
	.byte	W03
	.byte	W02
	.byte		PAN   , c_v+63
	.byte	W01
	.byte		N12   , An3 , v080
	.byte	W12
	.byte		PAN   , c_v+0
	.byte		N06   , Fn2 
	.byte	W06
	.byte		        Gs2 
	.byte	W06
	.byte		        Cn3 
	.byte	W06
	.byte		        Ds3 
	.byte	W06
	.byte		        Gn3 
	.byte	W06
	.byte		        Ds3 
	.byte	W06
	.byte		        Cn3 
	.byte	W06
	.byte		        Gs2 
	.byte	W06
	.byte		        Fn3 
	.byte	W06
	.byte		        Gs3 
	.byte	W06
	.byte		        Cn4 
	.byte	W06
	.byte		        Ds4 
	.byte	W06
	.byte		        Gn4 
	.byte	W06
	.byte		        Ds4 
	.byte	W03
	.byte	W03
	.byte		        Cn4 
	.byte	W06
	.byte		        Gs3 
	.byte	W06
	.byte		        As2 
	.byte	W06
	.byte		        Dn3 
	.byte	W06
	.byte		        Fn3 
	.byte	W06
	.byte		        Gs3 
	.byte	W06
	.byte		        As3 
	.byte	W06
	.byte		        Gs3 
	.byte	W06
	.byte		        Fn3 
	.byte	W06
	.byte		        Dn3 
	.byte	W06
	.byte		        As4 
	.byte	W06
	.byte		        Gs4 
	.byte	W06
	.byte		        Fn4 
	.byte	W06
	.byte		        Dn4 
	.byte	W06
	.byte		        As3 
	.byte	W06
	.byte		        Gs3 
	.byte	W03
	.byte	W03
	.byte		        Fn3 
	.byte	W06
	.byte		        Dn3 
	.byte	W05
	.byte		PAN   , c_v+0
	.byte	W01
	.byte		N12   , Ds4 , v092
	.byte	W12
	.byte		        Dn4 
	.byte	W12
	.byte		        Ds4 
	.byte	W12
	.byte		        As4 
	.byte	W12
	.byte		        As4 , v052
	.byte	W12
	.byte		        Gn4 , v092
	.byte	W18
	.byte		N06   , Gn3 
	.byte	W03
	.byte	W03
	.byte		        Gs3 
	.byte	W06
	.byte		        As3 
	.byte	W06
	.byte		N12   , Ds3 , v112
	.byte	W12
	.byte		        Dn3 
	.byte	W12
	.byte		        Ds3 
	.byte	W12
	.byte		        As3 
	.byte	W12
	.byte		        As3 , v060
	.byte	W12
	.byte		        Gn3 , v112
	.byte	W21
	.byte	W15
	.byte		VOICE , 8
	.byte		N12   , Gn4 , v092
	.byte	W12
	.byte		        Fn4 
	.byte	W12
	.byte		        Cn4 
	.byte	W12
	.byte		N48   , Fn4 
	.byte	W44
	.byte	W01
	.byte	W03
	.byte		N06   , Fn4 , v052
	.byte	W12
	.byte		N12   , Fn4 , v092
	.byte	W12
	.byte		        Ds4 
	.byte	W12
	.byte		        Gs3 
	.byte	W12
	.byte		N30   , Cs4 
	.byte	W30
	.byte		N06   , Cs4 , v052
	.byte	W06
	.byte		N24   , As3 , v092
	.byte	W09
	.byte	W15
	.byte		N48   , Cn4 
	.byte	W48
	.byte		N12   , Cn4 , v052
	.byte	W12
	.byte		N06   , Gn2 , v080
	.byte	W06
	.byte		        Gs2 
	.byte	W06
	.byte		        Cn3 
	.byte	W06
	.byte		        Ds3 
	.byte	W03
	.byte	W03
	.byte		        Gn3 
	.byte	W06
	.byte		        As3 
	.byte	W05
	.byte		PAN   , c_v+63
	.byte	W01
	.byte		N12   , Dn4 
	.byte	W12
	.byte		N06   , Dn4 , v020
	.byte	W06
	.byte		N12   , Dn4 , v060
	.byte	W12
	.byte		N06   , Dn4 , v020
	.byte	W06
	.byte		N12   , Dn4 , v040
	.byte	W12
	.byte		N06   , Dn4 , v020
	.byte	W32
	.byte	W01
	.byte	W15
	.byte		PAN   , c_v-64
	.byte		N06   , Bn2 , v112
	.byte	W06
	.byte		        Dn3 
	.byte	W06
	.byte		        Fs3 
	.byte	W06
	.byte		        Bn3 
	.byte	W06
	.byte		        Dn4 
	.byte	W06
	.byte		        Bn3 
	.byte	W06
	.byte		        Fs3 
	.byte	W06
	.byte		        Dn3 
	.byte	W06
	.byte		PAN   , c_v+63
	.byte	W06
	.byte		N06
	.byte	W06
	.byte		N12   , Dn4 
	.byte	W12
	.byte		PAN   , c_v-64
	.byte		N06   , Cs3 
	.byte	W06
	.byte		N12   , Cs4 
	.byte	W03
	.byte	W15
	.byte		PAN   , c_v+63
	.byte		N06   , Cn3 
	.byte	W06
	.byte		        En3 
	.byte	W06
	.byte		        An3 
	.byte	W06
	.byte		        Cn4 
	.byte	W06
	.byte		        En4 
	.byte	W06
	.byte		        Cn4 
	.byte	W06
	.byte		        An3 
	.byte	W06
	.byte		        En3 
	.byte	W06
	.byte		PAN   , c_v-64
	.byte		N06   , An2 
	.byte	W06
	.byte		        Cn3 
	.byte	W06
	.byte		        En3 
	.byte	W06
	.byte		        Gn3 
	.byte	W06
	.byte		        Cn4 
	.byte	W06
	.byte		        Gn3 
	.byte	W03
	.byte	W03
	.byte		        En3 
	.byte	W06
	.byte		        Cn3 
	.byte	W06
	.byte		PAN   , c_v+63
	.byte		N06   , An2 
	.byte	W06
	.byte		        Cn3 
	.byte	W06
	.byte		        En3 
	.byte	W06
	.byte		        An3 
	.byte	W06
	.byte		        Cn4 
	.byte	W06
	.byte		        An3 
	.byte	W06
	.byte		        En3 
	.byte	W06
	.byte		        Cn3 
	.byte	W06
	.byte		PAN   , c_v-64
	.byte	W06
	.byte		N06
	.byte	W06
	.byte		N12   , Cn4 
	.byte	W12
	.byte		PAN   , c_v+63
	.byte		N06   , Bn2 
	.byte	W06
	.byte		N12   , Bn3 
	.byte	W03
	.byte	W15
	.byte		PAN   , c_v-64
	.byte		N06   , As2 
	.byte	W06
	.byte		        Dn3 
	.byte	W06
	.byte		        Gn3 
	.byte	W06
	.byte		        As3 
	.byte	W06
	.byte		        Dn4 
	.byte	W06
	.byte		        As3 
	.byte	W06
	.byte		        En3 
	.byte	W06
	.byte		        Cn3 
	.byte	W06
	.byte		PAN   , c_v+63
	.byte		N06   , Fn2 
	.byte	W06
	.byte		        An2 
	.byte	W06
	.byte		        Cn3 
	.byte	W06
	.byte		        En3 
	.byte	W06
	.byte		        Gn3 
	.byte	W06
	.byte		        En3 
	.byte	W03
	.byte	W03
	.byte		        Cn3 
	.byte	W06
	.byte		        Gn2 
	.byte	W06
	.byte		PAN   , c_v-64
	.byte		N06   , An2 
	.byte	W06
	.byte		        Cn3 
	.byte	W06
	.byte		        En3 
	.byte	W06
	.byte		        Gn3 
	.byte	W06
	.byte		        Bn3 
	.byte	W06
	.byte		        Gn3 
	.byte	W06
	.byte		        En3 
	.byte	W06
	.byte		        Cn3 
	.byte	W06
	.byte		PAN   , c_v+63
	.byte		N06   , An2 
	.byte	W06
	.byte		        Cn3 
	.byte	W06
	.byte		        En3 
	.byte	W06
	.byte		        Gn3 
	.byte	W06
	.byte		        Bn3 
	.byte	W06
	.byte		        Gn3 
	.byte	W03
	.byte	W03
	.byte		        En3 
	.byte	W06
	.byte		        Cn3 
	.byte	W06
	.byte		PAN   , c_v-64
	.byte		N06   , Bn2 
	.byte	W06
	.byte		        Dn3 
	.byte	W06
	.byte		        Fn3 
	.byte	W06
	.byte		        Gn3 
	.byte	W06
	.byte		        Dn4 
	.byte	W06
	.byte		        Gn3 
	.byte	W06
	.byte		        Fn3 
	.byte	W06
	.byte		        Dn3 
	.byte	W06
	.byte		PAN   , c_v+63
	.byte		N06   , Bn2 
	.byte	W06
	.byte		        Dn3 
	.byte	W06
	.byte		        Fn3 
	.byte	W06
	.byte		        Gn3 
	.byte	W06
	.byte		        Dn4 
	.byte	W06
	.byte		        Gn3 
	.byte	W03
	.byte	W03
	.byte		        Fn3 
	.byte	W06
	.byte		        Dn3 
	.byte	W06
	.byte		PAN   , c_v-64
	.byte		N06   , Fn3 
	.byte	W06
	.byte		        An3 
	.byte	W06
	.byte		        Cn4 
	.byte	W06
	.byte		        En4 
	.byte	W06
	.byte		        Gn4 
	.byte	W06
	.byte		        En4 
	.byte	W06
	.byte		        Cn4 
	.byte	W06
	.byte		        An3 
	.byte	W06
	.byte		PAN   , c_v+63
	.byte		N06   , Fn3 
	.byte	W06
	.byte		        An3 
	.byte	W06
	.byte		        Cn4 
	.byte	W06
	.byte		        En4 
	.byte	W06
	.byte		        Gn4 
	.byte	W06
	.byte		        En4 
	.byte	W03
	.byte	W03
	.byte		        Cn4 
	.byte	W06
	.byte		        An3 
	.byte	W05
	.byte		PAN   , c_v-64
	.byte	W01
	.byte		N06   , Bn1 
	.byte	W06
	.byte		        Dn2 
	.byte	W06
	.byte		        Fn2 
	.byte	W06
	.byte		        Gn2 
	.byte	W06
	.byte		        Bn2 
	.byte	W06
	.byte		        Dn3 
	.byte	W06
	.byte		        Fn3 
	.byte	W06
	.byte		        Gn3 
	.byte	W06
	.byte		PAN   , c_v+63
	.byte		N06   , Bn2 
	.byte	W06
	.byte		        Dn3 
	.byte	W06
	.byte		        Fn3 
	.byte	W06
	.byte		        Gn3 
	.byte	W06
	.byte		        Bn3 
	.byte	W06
	.byte		        Dn4 
	.byte	W03
	.byte	W03
	.byte		        Fn4 
	.byte	W06
	.byte		        Gn4 
	.byte	W84
	.byte	W03
	.byte	W15
	.byte	GOTO
	 .word	seq_000_1 + 0x152
	.byte	FINE

@*********************** Track 03 ***********************@

seq_000_2:
	.byte	KEYSH , seq_000_key+0
	.byte	W01
	.byte		VOICE , 16
	.byte	W01
	.byte		VOL   , 113*seq_000_mvl/mxv
	.byte	W01
	.byte		PAN   , c_v+0
	.byte	W01
	.byte		BEND  , c_v+0
	.byte	W01
	.byte		LFOS  , 28
	.byte	W01
	.byte		LFODL , 14
	.byte	W01
	.byte		MODT  , mod_vib
	.byte	W01
	.byte		MOD   , 10
	.byte	W01
	.byte	W01
	.byte		XCMD  , xIECV , 30
	.byte	W01
	.byte	W01
	.byte		        xIECL , 3
	.byte	W03
	.byte		N06   , Dn2 , v120
	.byte	W06
	.byte		        En2 
	.byte	W12
	.byte		        Dn2 
	.byte	W12
	.byte		N06
	.byte	W06
	.byte		N12   , En2 
	.byte	W18
	.byte		N06   , Dn2 
	.byte	W06
	.byte		        Ds2 
	.byte	W06
	.byte		        En2 
	.byte	W06
	.byte		        Dn3 
	.byte	W06
	.byte		        Dn2 
	.byte	W03
	.byte	W09
	.byte		N06   , En2 , v120
	.byte	W06
	.byte		        Dn2 
	.byte	W06
	.byte		        En2 
	.byte	W12
	.byte		        Dn2 
	.byte	W12
	.byte		N06
	.byte	W06
	.byte		N12   , En2 
	.byte	W18
	.byte		N06   , Dn2 
	.byte	W06
	.byte		        Ds2 
	.byte	W06
	.byte		        En2 
	.byte	W06
	.byte		        Dn3 
	.byte	W06
	.byte		        Dn2 
	.byte	W03
	.byte	PEND
	.byte	PATT
	 .word	seq_000_2 + 0x3C
	.byte	W09
	.byte		N06   , En2 , v120
	.byte	W06
	.byte		        Dn2 
	.byte	W06
	.byte		        En2 
	.byte	W12
	.byte		        Dn2 
	.byte	W12
	.byte		N06
	.byte	W06
	.byte		N12   , En2 
	.byte	W18
	.byte		N06   , Dn2 
	.byte	W06
	.byte		        Ds2 
	.byte	W06
	.byte		        En2 
	.byte	W15
	.byte	W03
	.byte		        Dn3 
	.byte	W06
	.byte		        En2 
	.byte	W06
	.byte		        Dn2 
	.byte	W06
	.byte		        En2 
	.byte	W12
	.byte		        Dn2 
	.byte	W12
	.byte		N06
	.byte	W06
	.byte		N12   , En2 
	.byte	W18
	.byte		N06   , Dn2 
	.byte	W06
	.byte		        Ds2 
	.byte	W06
	.byte		        En2 
	.byte	W15
	.byte	W03
	.byte		        Dn3 
	.byte	W06
	.byte		        En2 
	.byte	W06
	.byte		N06   , Dn2 , v120
	.byte	W06
	.byte		        En2 
	.byte	W12
	.byte		        Dn2 
	.byte	W06
	.byte		        En2 
	.byte	W12
	.byte		        Dn2 
	.byte	W06
	.byte		        En2 
	.byte	W12
	.byte		        Dn2 
	.byte	W06
	.byte		        Ds2 
	.byte	W06
	.byte		        En2 
	.byte	W06
	.byte		        Dn3 
	.byte	W06
	.byte		        Dn2 
	.byte	W03
	.byte	W09
	.byte		N06   , Cn2 , v120
	.byte	W06
	.byte		        Dn2 
	.byte	W06
	.byte		        En2 
	.byte	W12
	.byte		        Dn2 
	.byte	W06
	.byte		        En2 
	.byte	W12
	.byte		        Dn2 
	.byte	W06
	.byte		        En2 
	.byte	W12
	.byte		        Dn2 
	.byte	W06
	.byte		        Ds2 
	.byte	W06
	.byte		        En2 
	.byte	W06
	.byte		        Dn3 
	.byte	W06
	.byte		        Dn2 
	.byte	W03
	.byte	PEND
	.byte	W09
	.byte		N06   , Fn2 , v120
	.byte	W06
	.byte		        Dn2 
	.byte	W06
	.byte		        En2 
	.byte	W12
	.byte		        Dn2 
	.byte	W06
	.byte		        En2 
	.byte	W12
	.byte		        Dn2 
	.byte	W06
	.byte		        En2 
	.byte	W12
	.byte		        Dn2 
	.byte	W06
	.byte		        Ds2 
	.byte	W06
	.byte		        En2 
	.byte	W06
	.byte		        Dn3 
	.byte	W06
	.byte		        Dn2 
	.byte	W03
	.byte	PEND
	.byte	PATT
	 .word	seq_000_2 + 0xA8
	.byte	PATT
	 .word	seq_000_2 + 0xC4
	.byte	PATT
	 .word	seq_000_2 + 0xA8
	.byte	PATT
	 .word	seq_000_2 + 0xC4
	.byte	PATT
	 .word	seq_000_2 + 0xA8
	.byte	PATT
	 .word	seq_000_2 + 0xC4
	.byte	PATT
	 .word	seq_000_2 + 0xA8
	.byte	PATT
	 .word	seq_000_2 + 0xC4
	.byte	PATT
	 .word	seq_000_2 + 0xA8
	.byte	PATT
	 .word	seq_000_2 + 0xC4
	.byte	PATT
	 .word	seq_000_2 + 0xA8
	.byte	PATT
	 .word	seq_000_2 + 0xC4
	.byte	PATT
	 .word	seq_000_2 + 0xA8
	.byte	W09
	.byte		N06   , Fn2 , v120
	.byte	W06
	.byte		        Fn1 
	.byte	W06
	.byte		        Fn2 
	.byte	W12
	.byte		        Fn1 
	.byte	W06
	.byte		        Fn2 
	.byte	W06
	.byte		        Cn3 
	.byte	W12
	.byte		        Fn2 
	.byte	W12
	.byte		        Gn1 
	.byte	W06
	.byte		        Gn2 
	.byte	W06
	.byte		        Gn1 
	.byte	W06
	.byte		        Gn2 
	.byte	W06
	.byte		        Gn1 
	.byte	W03
	.byte	W09
	.byte		        As1 
	.byte	W06
	.byte		        Gs1 
	.byte	W06
	.byte		        Gs2 
	.byte	W12
	.byte		        Gs1 
	.byte	W06
	.byte		        Gs2 
	.byte	W06
	.byte		        Ds3 
	.byte	W12
	.byte		        Gs2 
	.byte	W12
	.byte		        As1 
	.byte	W06
	.byte		        As2 
	.byte	W06
	.byte		        As1 
	.byte	W06
	.byte		        As2 
	.byte	W06
	.byte		        As1 
	.byte	W03
	.byte	W09
	.byte		        As2 
	.byte	W06
	.byte		        As1 
	.byte	W06
	.byte		        Cn2 
	.byte	W12
	.byte		        As1 
	.byte	W06
	.byte		        Cn2 
	.byte	W12
	.byte		        As1 
	.byte	W06
	.byte		        Cn2 
	.byte	W12
	.byte		        As1 
	.byte	W06
	.byte		        Bn1 
	.byte	W06
	.byte		        Cn2 
	.byte	W06
	.byte		        As2 
	.byte	W06
	.byte		        As1 
	.byte	W03
	.byte	W09
	.byte		        Gs1 
	.byte	W06
	.byte		        As1 
	.byte	W06
	.byte		        Cn2 
	.byte	W12
	.byte		        As1 
	.byte	W06
	.byte		        Cn2 
	.byte	W12
	.byte		        As1 
	.byte	W06
	.byte		        Cn2 
	.byte	W12
	.byte		        As1 
	.byte	W06
	.byte		        Bn1 
	.byte	W06
	.byte		        Cn2 
	.byte	W06
	.byte		        As2 
	.byte	W06
	.byte		        As1 
	.byte	W03
	.byte	W09
	.byte		        Cs2 
	.byte	W06
	.byte		N12   , Dn3 , v100
	.byte	W12
	.byte		        Dn2 
	.byte	W24
	.byte		N12
	.byte	W12
	.byte		N06   , Dn3 
	.byte	W06
	.byte		        Dn2 
	.byte	W12
	.byte		        Dn3 
	.byte	W12
	.byte		N06
	.byte	W03
	.byte	W03
	.byte		        Ds3 
	.byte	W06
	.byte		        Dn3 
	.byte	W06
	.byte		N12   , Cs3 
	.byte	W12
	.byte		        Cs2 
	.byte	W24
	.byte		N12
	.byte	W18
	.byte		N06
	.byte	W12
	.byte		        Cs3 
	.byte	W12
	.byte		N06
	.byte	W03
	.byte	W03
	.byte		        Ds3 
	.byte	W06
	.byte		        Cs3 
	.byte	W06
	.byte		N12   , Gs2 
	.byte	W12
	.byte		        Gs1 
	.byte	W24
	.byte		N12
	.byte	W12
	.byte		N06   , Gs2 
	.byte	W06
	.byte		        Gs1 
	.byte	W12
	.byte		        Gs2 
	.byte	W12
	.byte		N06
	.byte	W03
	.byte	W03
	.byte		        As2 
	.byte	W06
	.byte		        Gs2 
	.byte	W84
	.byte	W03
	.byte	W15
	.byte		N12   , Bn1 , v120
	.byte	W18
	.byte		N06
	.byte	W06
	.byte		N12   , Bn2 
	.byte	W12
	.byte		        Bn1 
	.byte	W12
	.byte		N06   , An1 
	.byte	W06
	.byte		        Bn1 
	.byte	W06
	.byte		        Bn2 
	.byte	W12
	.byte		        Bn1 
	.byte	W06
	.byte		N12   , As2 
	.byte	W03
	.byte	W15
	.byte		        An1 
	.byte	W18
	.byte		N06
	.byte	W06
	.byte		N12   , An2 
	.byte	W12
	.byte		        An1 
	.byte	W12
	.byte		N06   , Gn1 
	.byte	W18
	.byte		        An2 
	.byte	W12
	.byte		N06
	.byte	W03
	.byte	W03
	.byte		        An1 
	.byte	W12
	.byte		N12
	.byte	W18
	.byte		N06
	.byte	W06
	.byte		N12   , An2 
	.byte	W12
	.byte		        An1 
	.byte	W12
	.byte		N06   , Gn1 
	.byte	W06
	.byte		        An1 
	.byte	W06
	.byte		        An2 
	.byte	W12
	.byte		        An1 
	.byte	W06
	.byte		N12   , Gs2 
	.byte	W03
	.byte	W15
	.byte		        Gn1 
	.byte	W18
	.byte		N06
	.byte	W06
	.byte		N12   , Gn2 
	.byte	W12
	.byte		        Gn1 
	.byte	W12
	.byte		N06   , Fn1 
	.byte	W18
	.byte		        Fn2 
	.byte	W06
	.byte		        En2 
	.byte	W09
	.byte	W03
	.byte		N12   , En1 
	.byte	W12
	.byte		N06   , An2 
	.byte	W06
	.byte		        An1 
	.byte	W12
	.byte		N06
	.byte	W06
	.byte		        An2 
	.byte	W12
	.byte		        An1 
	.byte	W06
	.byte		        Cn2 
	.byte	W12
	.byte		        An1 
	.byte	W06
	.byte		        As1 
	.byte	W06
	.byte		        Bn1 
	.byte	W06
	.byte		        An2 
	.byte	W06
	.byte		        An1 
	.byte	W03
	.byte	W09
	.byte		        Gn1 
	.byte	W06
	.byte		        Gn2 
	.byte	W06
	.byte		        Gn1 
	.byte	W12
	.byte		N06
	.byte	W06
	.byte		        Gn2 
	.byte	W12
	.byte		        Gn1 
	.byte	W06
	.byte		        Dn2 
	.byte	W12
	.byte		        Gn2 
	.byte	W06
	.byte		        An2 
	.byte	W06
	.byte		        Gn1 
	.byte	W06
	.byte		        Gn2 
	.byte	W06
	.byte		        Gn1 
	.byte	W03
	.byte	W09
	.byte		        Gn2 
	.byte	W06
	.byte		        Fn2 
	.byte	W06
	.byte		        Fn1 
	.byte	W12
	.byte		        Fn2 
	.byte	W06
	.byte		        Fn3 
	.byte	W12
	.byte		        Cn2 
	.byte	W06
	.byte		        Fn2 
	.byte	W12
	.byte		        Cn2 
	.byte	W06
	.byte		        Dn2 
	.byte	W06
	.byte		        En2 
	.byte	W06
	.byte		        Fn2 
	.byte	W06
	.byte		        Fn1 
	.byte	W03
	.byte	PATT
	 .word	seq_000_2 + 0xC4
	.byte	PATT
	 .word	seq_000_2 + 0xC4
	.byte	W09
	.byte		N06   , Fn2 , v120
	.byte	W06
	.byte	GOTO
	 .word	seq_000_2 + 0x90
	.byte	FINE

@*********************** Track 04 ***********************@

seq_000_3:
	.byte	KEYSH , seq_000_key+0
	.byte		VOICE , 0
	.byte	W02
	.byte		VOL   , 85*seq_000_mvl/mxv
	.byte	W01
	.byte		PAN   , c_v+0
	.byte	W01
	.byte		BEND  , c_v+0
	.byte	W11
	.byte		N06   , Cs1 , v080
	.byte	W12
	.byte		N06
	.byte	W68
	.byte	W01
	.byte	W15
	.byte		N03   , Fs1 , v060
	.byte	W06
	.byte		        Fs1 , v052
	.byte	W06
	.byte		        Gn1 , v060
	.byte	W12
	.byte		        Fs1 
	.byte	W06
	.byte		        Fs1 , v052
	.byte	W06
	.byte		        Gn1 , v060
	.byte	W12
	.byte		        Fs1 
	.byte	W06
	.byte		        Fs1 , v052
	.byte	W06
	.byte		        Gn1 , v060
	.byte	W12
	.byte		        Fs1 
	.byte	W06
	.byte		        Fs1 , v052
	.byte	W03
	.byte	W03
	.byte		N03   , Gn1 , v060
	.byte	W12
	.byte		        Fs1 
	.byte	W06
	.byte		        Fs1 , v052
	.byte	W06
	.byte		        Gn1 , v060
	.byte	W12
	.byte		        Fs1 
	.byte	W06
	.byte		        Fs1 , v052
	.byte	W06
	.byte		        Gn1 , v060
	.byte	W12
	.byte		        Fs1 
	.byte	W06
	.byte		        Fs1 , v052
	.byte	W06
	.byte		        Gn1 , v060
	.byte	W12
	.byte		        Fs1 
	.byte	W06
	.byte		        Fs1 , v052
	.byte	W03
	.byte	PEND
	.byte	PATT
	 .word	seq_000_3 + 0x35
	.byte	W03
	.byte		N03   , Gn1 , v060
	.byte	W12
	.byte		        Fs1 
	.byte	W06
	.byte		        Fs1 , v052
	.byte	W06
	.byte		        Gn1 , v060
	.byte	W12
	.byte		        Fs1 
	.byte	W06
	.byte		        Fs1 , v052
	.byte	W06
	.byte		        Gn1 , v060
	.byte	W12
	.byte		N48   , Gs1 , v120
	.byte	W32
	.byte	W01
	.byte	W15
	.byte		N06   , Cs1 , v080
	.byte		N21   , An1 
	.byte	W24
	.byte		N06   , Fs2 
	.byte	W06
	.byte		N03   , Fs1 , v060
	.byte	W06
	.byte		N06   , Cs1 , v080
	.byte		N03   , Fs1 , v052
	.byte	W06
	.byte		        Fs1 , v040
	.byte	W06
	.byte		        Fs1 , v060
	.byte	W06
	.byte		N06   , Cs1 , v080
	.byte	W06
	.byte		N06
	.byte		N03   , Gn1 , v060
	.byte	W12
	.byte		N06   , Fs2 , v080
	.byte	W06
	.byte		N03   , Fs1 , v060
	.byte	W03
	.byte	W03
	.byte		N03   , Fs1 , v052
	.byte	W06
	.byte		        Fs1 , v040
	.byte	W06
	.byte		N06   , Cs1 , v080
	.byte		N03   , Fs1 , v060
	.byte	W12
	.byte		        Gn1 
	.byte	W12
	.byte		N06   , Fs2 , v080
	.byte	W06
	.byte		N03   , Fs1 , v060
	.byte	W06
	.byte		N06   , Cs1 , v080
	.byte		N03   , Fs1 , v052
	.byte	W06
	.byte		N06   , Cs1 , v080
	.byte		N03   , Fs1 , v040
	.byte	W06
	.byte		        Fs1 , v060
	.byte	W06
	.byte		N06   , Cs1 , v080
	.byte	W06
	.byte		N06
	.byte		N03   , Gn1 , v060
	.byte	W12
	.byte		N06   , Fs2 , v080
	.byte	W06
	.byte		N03   , Fs1 , v060
	.byte	W03
	.byte	PEND
	.byte	W03
	.byte		N03   , Fs1 , v052
	.byte	W06
	.byte		        Fs1 , v040
	.byte	W06
	.byte		N06   , Cs1 , v080
	.byte		N03   , Fs1 , v060
	.byte	W12
	.byte		        Gn1 
	.byte	W12
	.byte		N06   , Fs2 , v080
	.byte	W06
	.byte		N03   , Fs1 , v060
	.byte	W06
	.byte		N06   , Cs1 , v080
	.byte		N03   , Fs1 , v052
	.byte	W06
	.byte		        Fs1 , v040
	.byte	W06
	.byte		        Fs1 , v060
	.byte	W06
	.byte		N06   , Cs1 , v080
	.byte	W06
	.byte		N06
	.byte		N03   , Gn1 , v060
	.byte	W12
	.byte		N06   , Fs2 , v080
	.byte	W06
	.byte		N03   , Fs1 , v060
	.byte	W03
	.byte	PEND
	.byte	W03
	.byte		N03   , Fs1 , v052
	.byte	W06
	.byte		        Fs1 , v040
	.byte	W06
	.byte		N06   , Cs1 , v080
	.byte		N03   , Fs1 , v060
	.byte	W12
	.byte		        Gn1 
	.byte	W12
	.byte		N06   , Fs2 , v080
	.byte	W06
	.byte		N03   , Fs1 , v060
	.byte	W06
	.byte		N06   , Cs1 , v080
	.byte		N03   , Fs1 , v052
	.byte	W06
	.byte		N06   , Cs1 , v080
	.byte		N03   , Fs1 , v040
	.byte	W06
	.byte		        Fs1 , v060
	.byte	W06
	.byte		N06   , Cs1 , v080
	.byte	W06
	.byte		N06
	.byte		N03   , Gn1 , v060
	.byte	W12
	.byte		N06   , Fs2 , v080
	.byte	W06
	.byte		N03   , Fs1 , v060
	.byte		N06   , Fs2 , v040
	.byte	W03
	.byte	PEND
	.byte	W03
	.byte		N03   , Fs1 , v052
	.byte	W06
	.byte		        Fs1 , v040
	.byte		N06   , Fs2 , v060
	.byte	W06
	.byte		        Cs1 , v080
	.byte		N03   , Fs1 , v060
	.byte	W12
	.byte		        Gn1 
	.byte	W12
	.byte		N06   , Fs2 , v080
	.byte	W06
	.byte		N03   , Fs1 , v060
	.byte	W06
	.byte		N06   , Cs1 , v080
	.byte		N03   , Fs1 , v052
	.byte	W06
	.byte		        Fs1 , v040
	.byte	W06
	.byte		        Fs1 , v060
	.byte	W06
	.byte		N06   , Cs1 , v080
	.byte	W06
	.byte		N06
	.byte		N03   , Gn1 , v060
	.byte	W12
	.byte		N06   , Fs2 , v080
	.byte	W06
	.byte		N03   , Fs1 , v060
	.byte	W03
	.byte	PEND
	.byte	PATT
	 .word	seq_000_3 + 0xA3
	.byte	PATT
	 .word	seq_000_3 + 0xDF
	.byte	PATT
	 .word	seq_000_3 + 0x117
	.byte	W03
	.byte		N03   , Fs1 , v052
	.byte	W06
	.byte		        Fs1 , v040
	.byte		N06   , Fs2 , v060
	.byte	W06
	.byte		        Cs1 , v080
	.byte		N21   , An1 
	.byte	W24
	.byte		N03   , Fs1 , v040
	.byte		N06   , Fs2 , v080
	.byte	W06
	.byte		N03   , Fs1 , v060
	.byte	W06
	.byte		N06   , Cs1 , v080
	.byte		N03   , Fs1 , v052
	.byte	W06
	.byte		        Fs1 , v040
	.byte	W06
	.byte		        Fs1 , v060
	.byte	W06
	.byte		N06   , Cs1 , v080
	.byte	W06
	.byte		N06
	.byte		N03   , Gn1 , v060
	.byte	W12
	.byte		N06   , Fs2 , v080
	.byte	W06
	.byte		N03   , Fs1 , v060
	.byte	W03
	.byte	PATT
	 .word	seq_000_3 + 0xA3
	.byte	PATT
	 .word	seq_000_3 + 0xDF
	.byte	PATT
	 .word	seq_000_3 + 0x117
	.byte	PATT
	 .word	seq_000_3 + 0x156
	.byte	PATT
	 .word	seq_000_3 + 0xA3
	.byte	PATT
	 .word	seq_000_3 + 0xDF
	.byte	W03
	.byte		N03   , Fs1 , v052
	.byte	W06
	.byte		        Fs1 , v040
	.byte	W06
	.byte		N06   , Cs1 , v080
	.byte		N03   , Fs1 , v060
	.byte	W12
	.byte		        Gn1 
	.byte	W12
	.byte		N06   , Fs2 , v080
	.byte	W06
	.byte		N03   , Fs1 , v060
	.byte	W06
	.byte		N06   , Cs1 , v080
	.byte		N03   , Fs1 , v052
	.byte	W06
	.byte		N06   , Cs1 , v080
	.byte		N03   , Fs1 , v040
	.byte	W06
	.byte		        Fs1 , v060
	.byte	W06
	.byte		N06   , Cs1 , v080
	.byte		N03   , Fs1 , v052
	.byte	W06
	.byte		N06   , Cs1 , v080
	.byte		N03   , Gn1 , v060
	.byte	W12
	.byte		        Fs1 
	.byte		N06   , Fs2 , v080
	.byte	W06
	.byte		N03   , Fs1 , v052
	.byte		N06   , Fs2 , v040
	.byte	W03
	.byte	W03
	.byte		N03   , Fs1 
	.byte	W06
	.byte		        Fs1 , v060
	.byte		N06   , Fs2 
	.byte	W06
	.byte		        Cs1 , v080
	.byte		N15   , An1 
	.byte	W18
	.byte		N06   , Cs1 
	.byte		N03   , Fs1 , v060
	.byte	W06
	.byte		N03
	.byte		N06   , Dn3 , v100
	.byte	W06
	.byte		N03   , Fs1 , v052
	.byte		N06   , Cs3 , v100
	.byte	W06
	.byte		N18   , An1 , v080
	.byte		N12   , Cn3 , v100
	.byte	W12
	.byte		N06   , Cs1 , v080
	.byte	W06
	.byte		        Fs2 
	.byte	W06
	.byte		N03   , Fs1 , v060
	.byte	W06
	.byte		        Fs1 , v052
	.byte		N06   , Fs2 , v080
	.byte	W06
	.byte		N03   , Fs1 , v060
	.byte		N12   , Cs3 , v100
	.byte	W06
	.byte		N03   , Fs1 , v052
	.byte	W03
	.byte	W03
	.byte		N06   , Cs1 , v080
	.byte		N03   , Fs1 , v052
	.byte	W06
	.byte		N06   , Cs1 , v080
	.byte		N03   , Fs1 , v040
	.byte	W06
	.byte		N06   , Cs1 , v080
	.byte		N15   , An1 
	.byte	W18
	.byte		N06   , Cs1 
	.byte		N03   , Fs1 , v060
	.byte	W06
	.byte		N03
	.byte		N06   , Dn3 , v100
	.byte	W06
	.byte		N03   , Fs1 , v052
	.byte		N06   , Cs3 , v100
	.byte	W06
	.byte		N18   , An1 , v080
	.byte	W06
	.byte		N06   , Cs1 
	.byte	W06
	.byte		N06
	.byte	W06
	.byte		        Fs2 
	.byte	W06
	.byte		N03   , Fs1 , v060
	.byte	W06
	.byte		        Fs1 , v052
	.byte		N06   , Fs2 , v080
	.byte	W06
	.byte		        Cs1 
	.byte		N03   , Fs1 , v060
	.byte	W06
	.byte		        Fs1 , v052
	.byte		N06   , Fs2 , v080
	.byte	W03
	.byte	W03
	.byte		N03   , Fs1 , v052
	.byte	W06
	.byte		N06   , Cs1 , v080
	.byte		N03   , Fs1 , v040
	.byte	W06
	.byte		N06   , Cs1 , v080
	.byte		N03   , Fs1 , v060
	.byte	W12
	.byte		        Gn1 
	.byte	W12
	.byte		N06   , Fs2 , v080
	.byte	W06
	.byte		N03   , Fs1 , v060
	.byte	W06
	.byte		N06   , Cs1 , v080
	.byte		N03   , Fs1 , v052
	.byte	W06
	.byte		        Fs1 , v040
	.byte	W06
	.byte		        Fs1 , v060
	.byte	W06
	.byte		N06   , Cs1 , v080
	.byte	W06
	.byte		N06
	.byte		N03   , Gn1 , v060
	.byte	W12
	.byte		N06   , Fs2 , v080
	.byte	W06
	.byte		N03   , Fs1 , v060
	.byte	W03
	.byte	PATT
	 .word	seq_000_3 + 0x117
	.byte	PATT
	 .word	seq_000_3 + 0x156
	.byte	PATT
	 .word	seq_000_3 + 0xA3
	.byte	PATT
	 .word	seq_000_3 + 0xDF
	.byte	W03
	.byte		N03   , Fs1 , v052
	.byte	W06
	.byte		        Fs1 , v040
	.byte	W06
	.byte		N06   , Cs1 , v080
	.byte		N03   , Fs1 , v060
	.byte	W12
	.byte		        Gn1 
	.byte	W18
	.byte		        Fs1 
	.byte	W06
	.byte		        Fs1 , v052
	.byte	W06
	.byte		        Fs1 , v040
	.byte	W06
	.byte		        Fs1 , v060
	.byte		N06   , Fs2 , v080
	.byte	W06
	.byte		N42   , Gs1 , v112
	.byte		N06   , Fs2 , v040
	.byte	W12
	.byte		        Fs2 , v060
	.byte	W06
	.byte		        Dn3 , v100
	.byte	W06
	.byte		        Cs3 
	.byte	W03
	.byte	W03
	.byte		N12   , Cn3 
	.byte	W12
	.byte		N06   , Cs1 , v080
	.byte		N03   , Fs1 , v060
	.byte	W06
	.byte		        Fs1 , v052
	.byte	W06
	.byte		        Gn1 , v060
	.byte	W06
	.byte		        Fs1 , v040
	.byte	W03
	.byte		        Fs2 , v080
	.byte	W03
	.byte		        Fs1 , v060
	.byte		N06   , Fs2 , v080
	.byte	W06
	.byte		        Dn3 , v100
	.byte	W06
	.byte		N03   , Fs1 , v052
	.byte		N06   , Cs3 , v100
	.byte	W06
	.byte		N03   , Fs1 , v040
	.byte		N06   , Cn3 , v100
	.byte	W06
	.byte		        Cs1 , v080
	.byte		N03   , Fs1 , v060
	.byte	W06
	.byte		N06   , Cs1 , v052
	.byte	W06
	.byte		N15   , An1 , v080
	.byte		N06   , Fs2 
	.byte	W15
	.byte		N03
	.byte	W03
	.byte		N15   , An1 
	.byte		N06   , Fs2 
	.byte	W03
	.byte	W15
	.byte		        Cs1 
	.byte		N03   , Fs1 , v060
	.byte	W12
	.byte		        Gn1 
	.byte	W12
	.byte		N06   , Fs2 , v080
	.byte	W06
	.byte		N03   , Fs1 , v060
	.byte	W06
	.byte		N06   , Cs1 , v080
	.byte		N03   , Fs1 , v052
	.byte	W06
	.byte		N06   , Cs1 , v080
	.byte		N03   , Fs1 , v040
	.byte	W06
	.byte		        Fs1 , v060
	.byte	W06
	.byte		N06   , Cs1 , v080
	.byte	W06
	.byte		N06
	.byte		N03   , Gn1 , v060
	.byte	W12
	.byte		N06   , Fs2 , v080
	.byte	W06
	.byte		N03   , Fs1 , v060
	.byte	W03
	.byte	W03
	.byte		        Fs1 , v052
	.byte	W06
	.byte		        Fs1 , v040
	.byte	W06
	.byte		N06   , Cs1 , v080
	.byte		N03   , Fs1 , v060
	.byte	W06
	.byte		        Fs1 , v052
	.byte	W06
	.byte		        Gn1 , v060
	.byte	W06
	.byte		N06   , Cs1 , v052
	.byte		N03   , Fs1 , v040
	.byte	W06
	.byte		        Fs1 , v060
	.byte		N06   , Fs2 , v080
	.byte	W06
	.byte		        Dn3 , v100
	.byte	W06
	.byte		N03   , Fs1 , v052
	.byte		N06   , Cs3 , v100
	.byte	W06
	.byte		N03   , Fs1 , v040
	.byte		N06   , Cn3 , v100
	.byte	W06
	.byte		        Cs1 , v080
	.byte		N03   , Fs1 , v060
	.byte	W06
	.byte		N06   , Cs1 , v052
	.byte	W06
	.byte		N15   , An1 , v080
	.byte		N06   , Fs2 
	.byte	W15
	.byte		N03
	.byte	W03
	.byte		N12   , An1 
	.byte		N06   , Fs2 , v060
	.byte	W03
	.byte	W09
	.byte		N03   , Fs1 
	.byte		N06   , Fs2 , v080
	.byte	W06
	.byte		        Cs1 
	.byte		N03   , Fs1 , v060
	.byte	W12
	.byte		        Gn1 
	.byte	W12
	.byte		N06   , Fs2 , v080
	.byte	W06
	.byte		N03   , Fs1 , v060
	.byte	W06
	.byte		N06   , Cs1 , v080
	.byte		N03   , Fs1 , v052
	.byte	W06
	.byte		N06   , Cs1 , v080
	.byte		N03   , Fs1 , v040
	.byte	W06
	.byte		        Fs1 , v060
	.byte	W06
	.byte		N06   , Cs1 , v080
	.byte	W06
	.byte		N06
	.byte		N03   , Gn1 , v060
	.byte	W12
	.byte		N06   , Fs2 , v080
	.byte	W06
	.byte		N03   , Fs1 , v060
	.byte	W03
	.byte	W03
	.byte		N06   , Cs1 , v080
	.byte		N03   , Fs1 , v052
	.byte	W06
	.byte		        Fs1 , v040
	.byte	W06
	.byte		N06   , Cs1 , v080
	.byte		N03   , Fs1 , v060
	.byte	W12
	.byte		        Gn1 
	.byte	W12
	.byte		N06   , Fs2 , v080
	.byte	W06
	.byte		N03   , Fs1 , v060
	.byte	W06
	.byte		N06   , Cs1 , v080
	.byte		N03   , Fs1 , v052
	.byte	W06
	.byte		        Fs1 , v040
	.byte	W06
	.byte		        Fs1 , v060
	.byte	W06
	.byte		N06   , Cs1 , v080
	.byte	W06
	.byte		N06
	.byte		N03   , Gn1 , v060
	.byte	W12
	.byte		N06   , Fs2 , v080
	.byte	W06
	.byte		N03   , Fs1 , v060
	.byte	W03
	.byte	PATT
	 .word	seq_000_3 + 0xA3
	.byte	PATT
	 .word	seq_000_3 + 0xDF
	.byte	W03
	.byte		N03   , Fs1 , v052
	.byte	W06
	.byte		        Fs1 , v040
	.byte	W06
	.byte		N06   , Cs1 , v080
	.byte		N03   , Fs1 , v060
	.byte	W12
	.byte		        Gn1 
	.byte	W12
	.byte		N06   , Fs2 , v080
	.byte	W06
	.byte		N03   , Fs1 , v060
	.byte	W06
	.byte		N06   , Cs1 , v080
	.byte		N03   , Fs1 , v052
	.byte	W06
	.byte		N06   , Cs1 , v080
	.byte		N03   , Fs1 , v040
	.byte	W06
	.byte		        Fs1 , v060
	.byte	W06
	.byte		N06   , Cs1 , v080
	.byte	W06
	.byte		N06
	.byte		N03   , Gn1 , v060
	.byte	W12
	.byte		N06   , Dn3 , v100
	.byte	W06
	.byte		N03   , Fs1 , v060
	.byte		N06   , Cs3 , v100
	.byte	W03
	.byte	W03
	.byte		N03   , Fs1 , v052
	.byte		N12   , Cn3 , v100
	.byte	W06
	.byte		N03   , Fs1 , v040
	.byte	W06
	.byte		N06   , Cs1 , v080
	.byte		N03   , Ds3 , v100
	.byte	W06
	.byte		        Ds3 , v092
	.byte	W06
	.byte		        En3 , v100
	.byte	W12
	.byte		        Fn3 
	.byte	W06
	.byte		        Fn3 , v092
	.byte	W06
	.byte		        Fs3 , v100
	.byte	W12
	.byte		        Ds3 
	.byte	W06
	.byte		        Ds3 , v092
	.byte	W06
	.byte		        En3 , v100
	.byte	W12
	.byte		        Fn3 
	.byte	W06
	.byte		        Fn3 , v092
	.byte	W03
	.byte	W03
	.byte		        Fs3 , v100
	.byte	W12
	.byte	GOTO
	 .word	seq_000_3 + 0x78
	.byte	FINE

@*********************** Track 05 ***********************@

seq_000_4:
	.byte	KEYSH , seq_000_key+0
	.byte		VOICE , 27
	.byte	W01
	.byte		VOL   , 85*seq_000_mvl/mxv
	.byte	W01
	.byte		PAN   , c_v+0
	.byte	W01
	.byte		BEND  , c_v+0
	.byte	W92
	.byte	W01
	.byte	W15
	.byte		VOL   , 9*seq_000_mvl/mxv
	.byte		N92   , An2 , v100
	.byte		N68   , Dn3 
	.byte	W06
	.byte		VOL   , 12*seq_000_mvl/mxv
	.byte	W06
	.byte		        15*seq_000_mvl/mxv
	.byte	W06
	.byte		        18*seq_000_mvl/mxv
	.byte	W06
	.byte		        21*seq_000_mvl/mxv
	.byte	W06
	.byte		        25*seq_000_mvl/mxv
	.byte	W06
	.byte		        28*seq_000_mvl/mxv
	.byte	W06
	.byte		        31*seq_000_mvl/mxv
	.byte	W06
	.byte		        34*seq_000_mvl/mxv
	.byte	W06
	.byte		        37*seq_000_mvl/mxv
	.byte	W06
	.byte		        41*seq_000_mvl/mxv
	.byte	W06
	.byte		        44*seq_000_mvl/mxv
	.byte	W06
	.byte		        48*seq_000_mvl/mxv
	.byte		N23   , Dn3 , v060
	.byte	W06
	.byte		VOL   , 51*seq_000_mvl/mxv
	.byte	W03
	.byte	W03
	.byte		        53*seq_000_mvl/mxv
	.byte	W06
	.byte		        57*seq_000_mvl/mxv
	.byte	W06
	.byte		        60*seq_000_mvl/mxv
	.byte		N23   , Gs2 , v100
	.byte		N23   , Cs3 
	.byte	W06
	.byte		VOL   , 64*seq_000_mvl/mxv
	.byte	W06
	.byte		        67*seq_000_mvl/mxv
	.byte	W06
	.byte		        69*seq_000_mvl/mxv
	.byte	W06
	.byte		        73*seq_000_mvl/mxv
	.byte		N11   , Cs3 , v060
	.byte	W06
	.byte		VOL   , 76*seq_000_mvl/mxv
	.byte	W06
	.byte		        80*seq_000_mvl/mxv
	.byte		N11   , Gn2 , v100
	.byte		N11   , Cn3 
	.byte	W06
	.byte		VOL   , 83*seq_000_mvl/mxv
	.byte	W06
	.byte		        86*seq_000_mvl/mxv
	.byte		N11   , Cn3 , v060
	.byte	W06
	.byte		VOL   , 89*seq_000_mvl/mxv
	.byte	W06
	.byte		        92*seq_000_mvl/mxv
	.byte		N23   , Fs2 , v100
	.byte		N23   , Bn2 
	.byte	W06
	.byte		VOL   , 96*seq_000_mvl/mxv
	.byte	W06
	.byte		        99*seq_000_mvl/mxv
	.byte	W06
	.byte		        102*seq_000_mvl/mxv
	.byte	W03
	.byte	W03
	.byte		        105*seq_000_mvl/mxv
	.byte		N11   , Bn2 , v060
	.byte	W06
	.byte		VOL   , 109*seq_000_mvl/mxv
	.byte	W06
	.byte		N92   , An2 , v100
	.byte		N68   , Dn3 
	.byte	W72
	.byte		N23   , Dn3 , v060
	.byte	W09
	.byte	W15
	.byte		        Gs2 , v100
	.byte		N23   , Cs3 
	.byte	W24
	.byte		N11   , Cs3 , v060
	.byte	W12
	.byte		        Gn2 , v100
	.byte		N11   , Cn3 
	.byte	W12
	.byte		        Cn3 , v060
	.byte	W12
	.byte		N23   , Fs2 , v100
	.byte		N23   , Bn2 
	.byte	W21
	.byte	W03
	.byte		N11   , Bn2 , v060
	.byte	W12
	.byte		VOL   , 94*seq_000_mvl/mxv
	.byte	W12
	.byte		        85*seq_000_mvl/mxv
	.byte	W12
	.byte		TIE   , Cs3 , v100
	.byte	W56
	.byte	W01
	.byte	W96
	.byte	W15
	.byte		EOT
	.byte		N96   , As2 
	.byte	W80
	.byte	W01
	.byte	W15
	.byte		N96   , Gn2 , v100
	.byte	W80
	.byte	W01
	.byte	PEND
	.byte	W15
	.byte		TIE   , Cs3 
	.byte	W80
	.byte	W01
	.byte	W96
	.byte	W15
	.byte		EOT
	.byte		N96   , As2 
	.byte	W80
	.byte	W01
	.byte	PATT
	 .word	seq_000_4 + 0xB3
	.byte	W15
	.byte		VOICE , 18
	.byte		N12   , Gn2 , v080
	.byte	W12
	.byte		N18   , Dn3 
	.byte	W18
	.byte		N06   , Dn3 , v040
	.byte	W06
	.byte		N18   , Cs3 , v080
	.byte	W18
	.byte		N06   , Cs3 , v040
	.byte	W06
	.byte		N18   , Gn3 , v080
	.byte	W18
	.byte		N06   , Gn3 , v040
	.byte	W03
	.byte	W03
	.byte		N18   , Fs3 , v080
	.byte	W18
	.byte		N06   , Fs3 , v040
	.byte	W06
	.byte		N18   , Fn3 , v080
	.byte	W18
	.byte		N06   , Fn3 , v040
	.byte	W06
	.byte		N18   , En3 , v080
	.byte	W18
	.byte		N06   , En3 , v040
	.byte	W06
	.byte		N18   , Ds3 , v080
	.byte	W18
	.byte		N06   , Ds3 , v040
	.byte	W03
	.byte	PEND
	.byte	W03
	.byte		N12   , Dn3 , v080
	.byte	W12
	.byte		        Gn2 
	.byte	W12
	.byte		N18   , Dn3 
	.byte	W18
	.byte		N06   , Dn3 , v040
	.byte	W06
	.byte		N18   , Cs3 , v080
	.byte	W18
	.byte		N06   , Cs3 , v040
	.byte	W06
	.byte		N18   , Cn3 , v080
	.byte	W18
	.byte		N06   , Cn3 , v040
	.byte	W03
	.byte	W03
	.byte		N42   , Fs2 , v080
	.byte	W42
	.byte		N06   , Fs2 , v040
	.byte	W06
	.byte		N18   , Fn2 , v080
	.byte	W18
	.byte		N06   , Fn2 , v040
	.byte	W06
	.byte		N12   , As2 , v080
	.byte	W12
	.byte		        An2 
	.byte	W09
	.byte	W03
	.byte		        Gs2 
	.byte	W12
	.byte		        Gn2 
	.byte	W12
	.byte		N18   , Dn3 
	.byte	W18
	.byte		N06   , Dn3 , v040
	.byte	W06
	.byte		N18   , Cs3 , v080
	.byte	W18
	.byte		N06   , Cs3 , v040
	.byte	W06
	.byte		N18   , Gn3 , v080
	.byte	W18
	.byte		N06   , Gn3 , v040
	.byte	W03
	.byte	PATT
	 .word	seq_000_4 + 0xE9
	.byte	W03
	.byte		N12   , Dn3 , v080
	.byte	W12
	.byte		        Gn2 
	.byte	W12
	.byte		N18   , Dn3 
	.byte	W18
	.byte		N06   , Dn3 , v040
	.byte	W06
	.byte		N18   , Cs3 , v080
	.byte	W18
	.byte		N06   , Cs3 , v040
	.byte	W06
	.byte		N18   , Fs3 , v080
	.byte	W18
	.byte		N06   , Fs3 , v040
	.byte	W03
	.byte	W03
	.byte		N18   , Fn3 , v080
	.byte	W18
	.byte		N06   , Fn3 , v040
	.byte	W06
	.byte		N18   , As3 , v080
	.byte	W18
	.byte		N06   , As3 , v040
	.byte	W06
	.byte		N18   , An3 , v080
	.byte	W18
	.byte		N06   , An3 , v040
	.byte	W06
	.byte		N18   , Cs4 , v080
	.byte	W18
	.byte		N06   , Cs4 , v040
	.byte	W03
	.byte	W03
	.byte		N12   , Cn4 , v080
	.byte	W92
	.byte	W01
	.byte	W96
	.byte	W15
	.byte		VOICE , 27
	.byte		N48   , As2 , v100
	.byte	W48
	.byte		        Gs2 
	.byte	W32
	.byte	W01
	.byte	W15
	.byte		N90   , Gn2 
	.byte	W80
	.byte	W01
	.byte	W96
	.byte	W96
	.byte	W96
	.byte	W96
	.byte	W96
	.byte	W96
	.byte	W96
	.byte	W96
	.byte	W96
	.byte	W96
	.byte	W96
	.byte	W96
	.byte	W96
	.byte	W15
	.byte	GOTO
	 .word	seq_000_4 + 0xA2
	.byte	FINE

@*********************** Track 06 ***********************@

seq_000_5:
	.byte	KEYSH , seq_000_key+0
	.byte		VOICE , 61
	.byte	W01
	.byte		VOL   , 85*seq_000_mvl/mxv
	.byte	W01
	.byte		PAN   , c_v+0
	.byte	W01
	.byte		BEND  , c_v+0
	.byte	W92
	.byte	W01
	.byte	W96
	.byte	W96
	.byte	W96
	.byte	W96
	.byte	W15
	.byte		VOICE , 61
	.byte		N24   , Fn3 , v112
	.byte	W24
	.byte		N12   , Fn3 , v052
	.byte	W56
	.byte	W01
	.byte	W96
	.byte	W96
	.byte	W96
	.byte	W96
	.byte	W96
	.byte	W96
	.byte	W96
	.byte	W96
	.byte	W96
	.byte	W96
	.byte	W96
	.byte	W96
	.byte	W96
	.byte	W96
	.byte	W96
	.byte	W14
	.byte		PAN   , c_v+63
	.byte	W01
	.byte		N18   , Cs3 , v100
	.byte	W18
	.byte		        Cs3 , v052
	.byte	W17
	.byte		PAN   , c_v-64
	.byte	W01
	.byte		N18   , Ds3 , v100
	.byte	W18
	.byte		N12   , Ds3 , v052
	.byte	W24
	.byte	W03
	.byte	W09
	.byte		PAN   , c_v+63
	.byte	W06
	.byte		N18   , En3 , v100
	.byte	W18
	.byte		        En3 , v052
	.byte	W17
	.byte		PAN   , c_v-64
	.byte	W01
	.byte		N18   , Fs3 , v100
	.byte	W18
	.byte		N12   , Fs3 , v052
	.byte	W24
	.byte	W03
	.byte	W96
	.byte	W15
	.byte		PAN   , c_v+0
	.byte	W80
	.byte	W01
	.byte	W15
	.byte		VOICE , 48
	.byte		N90   , An1 , v072
	.byte	W80
	.byte	W01
	.byte	W15
	.byte		        Gs1 
	.byte	W80
	.byte	W01
	.byte	W15
	.byte		        Gn1 
	.byte	W80
	.byte	W01
	.byte	W96
	.byte	W15
	.byte		VOICE , 39
	.byte		N48   , Dn3 , v100
	.byte	W48
	.byte		N06   , Dn3 , v060
	.byte	W09
	.byte		N03   , Cs3 , v100
	.byte	W03
	.byte		N18   , Dn3 
	.byte	W18
	.byte		        Cs3 
	.byte	W03
	.byte	W15
	.byte		N84   , Cn3 
	.byte	W80
	.byte	W01
	.byte	W03
	.byte		N12   , Cn3 , v060
	.byte	W12
	.byte		N48   , Cn3 , v100
	.byte	W48
	.byte		N06   , Cn3 , v060
	.byte	W09
	.byte		N03   , Bn2 , v100
	.byte	W03
	.byte		N18   , Cn3 
	.byte	W18
	.byte		        Bn2 
	.byte	W03
	.byte	W15
	.byte		N36   , As2 
	.byte	W36
	.byte		N48   , An2 
	.byte	W44
	.byte	W01
	.byte	W03
	.byte		N12   , An2 , v060
	.byte	W12
	.byte		N90   , Dn3 , v100
	.byte	W80
	.byte	W01
	.byte	W09
	.byte		N06   , Dn3 , v072
	.byte	W06
	.byte		N90   , En3 , v100
	.byte	W80
	.byte	W01
	.byte	W09
	.byte		N06   , En3 , v072
	.byte	W06
	.byte		N90   , Fn3 , v100
	.byte	W80
	.byte	W01
	.byte	W09
	.byte		N06   , Fn3 , v072
	.byte	W06
	.byte		N90   , Gn3 , v100
	.byte	W80
	.byte	W01
	.byte	W09
	.byte		N06   , Gn3 , v072
	.byte	W84
	.byte	W03
	.byte	W15
	.byte	GOTO
	 .word	seq_000_5 + 0x14
	.byte	FINE

@******************************************************@

	.align	2

seq_000:
	.byte	6	@ NumTrks
	.byte	0	@ NumBlks
	.byte	seq_000_pri	@ Priority
	.byte	seq_000_rev	@ Reverb

	.word	seq_000_grp

	.word	seq_000_0
	.word	seq_000_1
	.word	seq_000_2
	.word	seq_000_3
	.word	seq_000_4
	.word	seq_000_5

	.end
