@ File generated by m4a2s Song-Module
	.include "MPlayDef.s"

	.equ	seq_000_grp, bank_000
	.equ	seq_000_pri, 20
	.equ	seq_000_rev, 163
	.equ	seq_000_mvl, 127
	.equ	seq_000_key, 0

	.section .rodata
	.global	seq_000
	.align	2

@*********************** Track 01 ***********************@

seq_000_0:
	.byte	KEYSH , seq_000_key+0
	.byte	TEMPO , 146/2
	.byte	W01
	.byte		VOICE , 2
	.byte	W01
	.byte		VOL   , 99*seq_000_mvl/mxv
	.byte	W01
	.byte		PAN   , c_v+0
	.byte	W01
	.byte		BEND  , c_v+0
	.byte	W01
	.byte		LFOS  , 28
	.byte	W01
	.byte		LFODL , 14
	.byte	W01
	.byte		MODT  , mod_vib
	.byte	W01
	.byte		MOD   , 7
	.byte	W01
	.byte	W01
	.byte		XCMD  , xIECV , 40
	.byte	W01
	.byte	W01
	.byte		        xIECL , 3
	.byte	W84
	.byte	W96
	.byte	W96
	.byte	W96
	.byte	W15
	.byte		VOICE , 2
	.byte		PAN   , c_v+63
	.byte		N03   , Bn4 , v080
	.byte	W06
	.byte		        Bn4 , v072
	.byte	W06
	.byte		        Bn4 , v060
	.byte	W06
	.byte		N03
	.byte	W06
	.byte		        Bn4 , v040
	.byte	W06
	.byte		        Bn4 , v060
	.byte	W06
	.byte		        Bn4 , v080
	.byte	W06
	.byte		        Bn4 , v040
	.byte	W06
	.byte		PAN   , c_v-64
	.byte		N03   , Bn4 , v080
	.byte	W06
	.byte		        Bn4 , v072
	.byte	W06
	.byte		        Bn4 , v060
	.byte	W06
	.byte		N03
	.byte	W06
	.byte		        Bn4 , v052
	.byte	W06
	.byte		        Bn4 , v060
	.byte	W03
	.byte	W03
	.byte		N03   , Bn4 , v080
	.byte	W06
	.byte		        Bn4 , v052
	.byte	W06
	.byte		PAN   , c_v+63
	.byte		N03   , Gn4 , v080
	.byte	W06
	.byte		        Gn4 , v072
	.byte	W06
	.byte		        Gn4 , v060
	.byte	W06
	.byte		N03
	.byte	W06
	.byte		        Gn4 , v040
	.byte	W06
	.byte		        Gn4 , v060
	.byte	W06
	.byte		        Gn4 , v080
	.byte	W06
	.byte		        Gn4 , v040
	.byte	W06
	.byte		PAN   , c_v-64
	.byte		N03   , Gn4 , v080
	.byte	W06
	.byte		        Gn4 , v072
	.byte	W06
	.byte		        Cs5 , v080
	.byte	W06
	.byte		N03
	.byte	W06
	.byte		        Cs5 , v040
	.byte	W06
	.byte		        Dn5 , v080
	.byte	W03
	.byte	PEND
	.byte	W03
	.byte		N03   , Dn5 , v080
	.byte	W06
	.byte		        Dn5 , v040
	.byte	W06
	.byte		PAN   , c_v+63
	.byte		N03   , Bn4 , v080
	.byte	W06
	.byte		        Bn4 , v072
	.byte	W06
	.byte		        Bn4 , v060
	.byte	W06
	.byte		N03
	.byte	W06
	.byte		        Bn4 , v040
	.byte	W06
	.byte		        Bn4 , v060
	.byte	W06
	.byte		        Bn4 , v080
	.byte	W06
	.byte		        Bn4 , v040
	.byte	W06
	.byte		PAN   , c_v-64
	.byte		N03   , Bn4 , v080
	.byte	W06
	.byte		        Bn4 , v072
	.byte	W06
	.byte		        Bn4 , v060
	.byte	W06
	.byte		N03
	.byte	W06
	.byte		        Bn4 , v052
	.byte	W06
	.byte		        Bn4 , v060
	.byte	W03
	.byte	PEND
	.byte	W03
	.byte		N03   , Bn4 , v080
	.byte	W06
	.byte		        Bn4 , v052
	.byte	W06
	.byte		PAN   , c_v+63
	.byte		N03   , Bn4 , v080
	.byte	W06
	.byte		        Bn4 , v072
	.byte	W06
	.byte		        Bn4 , v060
	.byte	W06
	.byte		N03
	.byte	W06
	.byte		        Bn4 , v040
	.byte	W06
	.byte		        Bn4 , v060
	.byte	W06
	.byte		        Bn4 , v080
	.byte	W06
	.byte		        Bn4 , v040
	.byte	W06
	.byte		PAN   , c_v-64
	.byte		N03   , Bn4 , v080
	.byte	W06
	.byte		        Bn4 , v072
	.byte	W06
	.byte		        Bn4 , v060
	.byte	W06
	.byte		N03
	.byte	W06
	.byte		        Bn4 , v052
	.byte	W06
	.byte		        Bn4 , v060
	.byte	W03
	.byte	PEND
	.byte	PATT
	 .word	seq_000_0 + 0xC8
	.byte	PATT
	 .word	seq_000_0 + 0x5A
	.byte	PATT
	 .word	seq_000_0 + 0x91
	.byte	PATT
	 .word	seq_000_0 + 0xC8
	.byte	W03
	.byte		N03   , Bn4 , v080
	.byte	W06
	.byte		        Bn4 , v052
	.byte	W06
	.byte		VOICE , 4
	.byte		PAN   , c_v+63
	.byte		N03   , Cn3 , v092
	.byte	W06
	.byte		        En3 
	.byte	W06
	.byte		        Gn3 
	.byte	W06
	.byte		        Bn3 
	.byte	W06
	.byte		PAN   , c_v-64
	.byte		N03   , Cn3 
	.byte	W06
	.byte		        En3 
	.byte	W06
	.byte		        Gn3 
	.byte	W06
	.byte		        Bn3 
	.byte	W06
	.byte		PAN   , c_v+63
	.byte		N03   , Dn3 
	.byte	W06
	.byte		        Fs3 
	.byte	W06
	.byte		        An3 
	.byte	W06
	.byte		        Cn4 
	.byte	W06
	.byte		PAN   , c_v-64
	.byte		N03   , Dn3 
	.byte	W06
	.byte		        Fs3 
	.byte	W03
	.byte	W03
	.byte		        An3 
	.byte	W06
	.byte		        Cn4 
	.byte	W06
	.byte		PAN   , c_v+63
	.byte		N03   , En3 
	.byte	W06
	.byte		        Gn3 
	.byte	W06
	.byte		        Bn3 
	.byte	W06
	.byte		        Dn4 
	.byte	W06
	.byte		PAN   , c_v-64
	.byte		N03   , En3 
	.byte	W06
	.byte		        Gn3 
	.byte	W06
	.byte		        Bn3 
	.byte	W06
	.byte		        Dn4 
	.byte	W06
	.byte		PAN   , c_v+63
	.byte		N03   , Dn3 
	.byte	W06
	.byte		        Fs3 
	.byte	W06
	.byte		        An3 
	.byte	W06
	.byte		        Cn4 
	.byte	W06
	.byte		PAN   , c_v-64
	.byte		N03   , Dn3 
	.byte	W06
	.byte		        Fs3 
	.byte	W03
	.byte	W03
	.byte		        An3 
	.byte	W06
	.byte		        Cn4 
	.byte	W06
	.byte		PAN   , c_v+63
	.byte		N03   , Dn2 
	.byte	W06
	.byte		        En2 
	.byte	W06
	.byte		        Gn2 
	.byte	W06
	.byte		        Bn2 
	.byte	W06
	.byte		PAN   , c_v-64
	.byte		N03   , Dn3 
	.byte	W06
	.byte		        En3 
	.byte	W06
	.byte		        Gn3 
	.byte	W06
	.byte		        Bn3 
	.byte	W06
	.byte		PAN   , c_v+63
	.byte		N03   , Dn4 
	.byte	W06
	.byte		        En4 
	.byte	W06
	.byte		        Gn4 
	.byte	W06
	.byte		        Bn4 
	.byte	W06
	.byte		PAN   , c_v-64
	.byte		N03   , Dn5 
	.byte	W06
	.byte		        Cn5 
	.byte	W03
	.byte	W03
	.byte		        Bn4 
	.byte	W06
	.byte		        Gn4 
	.byte	W06
	.byte		PAN   , c_v+63
	.byte		N03   , Bn4 
	.byte	W06
	.byte		        Cn5 
	.byte	W06
	.byte		        Bn4 
	.byte	W06
	.byte		        Gn4 
	.byte	W06
	.byte		PAN   , c_v-64
	.byte		N03   , Bn4 
	.byte	W06
	.byte		        An4 
	.byte	W06
	.byte		        Gn4 
	.byte	W06
	.byte		        En4 
	.byte	W06
	.byte		PAN   , c_v+63
	.byte		N03   , Fs4 
	.byte	W06
	.byte		        Gn4 
	.byte	W06
	.byte		        An4 
	.byte	W06
	.byte		        Fn4 
	.byte	W06
	.byte		PAN   , c_v-64
	.byte		N03   , Dn4 
	.byte	W06
	.byte		        Cn4 
	.byte	W03
	.byte	W03
	.byte		        An3 
	.byte	W06
	.byte		        Bn3 
	.byte	W06
	.byte		VOICE , 3
	.byte		PAN   , c_v+63
	.byte		N03   , Cn5 , v072
	.byte	W03
	.byte		        Cn5 , v052
	.byte	W03
	.byte		        Gs4 , v072
	.byte	W03
	.byte		        Gs4 , v052
	.byte	W03
	.byte		        Fn4 , v072
	.byte	W03
	.byte		        Fn4 , v052
	.byte	W03
	.byte		        Dn4 , v072
	.byte	W03
	.byte		        Dn4 , v052
	.byte	W03
	.byte		        Dn4 , v040
	.byte	W03
	.byte		        Dn4 , v020
	.byte	W03
	.byte		        Cn4 , v072
	.byte	W03
	.byte		        Cn4 , v052
	.byte	W03
	.byte		        Dn4 , v072
	.byte	W03
	.byte		        Dn4 , v052
	.byte	W03
	.byte		        Gs4 , v072
	.byte	W03
	.byte		        Gs4 , v052
	.byte	W03
	.byte		PAN   , c_v-64
	.byte		N03   , Cn5 , v072
	.byte	W03
	.byte		        Cn5 , v052
	.byte	W03
	.byte		        Gs4 , v072
	.byte	W03
	.byte		        Gs4 , v052
	.byte	W03
	.byte		        Fn4 , v072
	.byte	W03
	.byte		        Fn4 , v052
	.byte	W03
	.byte		        Dn4 , v072
	.byte	W03
	.byte		        Dn4 , v052
	.byte	W03
	.byte		        Dn4 , v040
	.byte	W03
	.byte		        Dn4 , v020
	.byte	W03
	.byte		        Cn4 , v072
	.byte	W03
	.byte		        Cn4 , v052
	.byte	W03
	.byte		        Dn4 , v072
	.byte	W03
	.byte		        Dn4 , v052
	.byte	W03
	.byte		        Gs4 , v072
	.byte	W03
	.byte		        Gs4 , v052
	.byte	W03
	.byte		PAN   , c_v+63
	.byte		N03   , Bn4 , v072
	.byte	W03
	.byte		        Bn4 , v052
	.byte	W03
	.byte		        Gn4 , v072
	.byte	W03
	.byte		        Gn4 , v052
	.byte	W03
	.byte		        En4 , v072
	.byte	W03
	.byte		        En4 , v052
	.byte	W03
	.byte		        Cn4 , v072
	.byte	W03
	.byte		        Cn4 , v052
	.byte	W03
	.byte		        Cn4 , v040
	.byte	W03
	.byte		        Cn4 , v020
	.byte	W03
	.byte		        Bn3 , v072
	.byte	W03
	.byte		        Bn3 , v052
	.byte	W03
	.byte		        Cn4 , v072
	.byte	W03
	.byte		        Cn4 , v052
	.byte	W03
	.byte		        Gn4 , v072
	.byte	W03
	.byte		        Gn4 , v052
	.byte	W03
	.byte		PAN   , c_v-64
	.byte		N03   , Bn4 , v072
	.byte	W03
	.byte		        Bn4 , v052
	.byte	W03
	.byte		        Gn4 , v072
	.byte	W03
	.byte		        Gn4 , v052
	.byte	W03
	.byte		        En4 , v072
	.byte	W03
	.byte		        En4 , v052
	.byte	W03
	.byte		        Cn4 , v072
	.byte	W03
	.byte		        Cn4 , v052
	.byte	W03
	.byte		        Cn4 , v040
	.byte	W03
	.byte		        Cn4 , v020
	.byte	W03
	.byte		        Bn3 , v072
	.byte	W03
	.byte		        Bn3 , v052
	.byte	W03
	.byte		        Cn4 , v072
	.byte	W03
	.byte		        Cn4 , v052
	.byte	W03
	.byte		        En4 , v072
	.byte	W03
	.byte		        En4 , v052
	.byte	W03
	.byte		PAN   , c_v+63
	.byte		N03   , Gn4 , v072
	.byte	W03
	.byte		        Gn4 , v052
	.byte	W03
	.byte		        En4 , v072
	.byte	W03
	.byte		        En4 , v052
	.byte	W03
	.byte		        Cn4 , v072
	.byte	W03
	.byte		        Cn4 , v052
	.byte	W03
	.byte		        An3 , v072
	.byte	W03
	.byte		        An3 , v052
	.byte	W03
	.byte		        An3 , v040
	.byte	W03
	.byte		        An3 , v020
	.byte	W03
	.byte		        An3 , v072
	.byte	W03
	.byte		        An3 , v052
	.byte	W03
	.byte		        Cn4 , v072
	.byte	W03
	.byte		        Cn4 , v052
	.byte	W03
	.byte		        En4 , v072
	.byte	W03
	.byte		        En4 , v052
	.byte	W03
	.byte		PAN   , c_v-64
	.byte		N03   , Gn4 , v072
	.byte	W03
	.byte		        Gn4 , v052
	.byte	W03
	.byte		        En4 , v072
	.byte	W03
	.byte		        En4 , v052
	.byte	W03
	.byte		        Cn4 , v072
	.byte	W03
	.byte		        Cn4 , v052
	.byte	W03
	.byte		        An3 , v072
	.byte	W03
	.byte		        An3 , v052
	.byte	W03
	.byte		        An3 , v040
	.byte	W03
	.byte		        An3 , v020
	.byte	W03
	.byte		        An3 , v072
	.byte	W03
	.byte		        An3 , v052
	.byte	W03
	.byte		        Cn4 , v072
	.byte	W03
	.byte		        Cn4 , v052
	.byte	W03
	.byte		        En4 , v072
	.byte	W03
	.byte		        En4 , v052
	.byte	W03
	.byte		PAN   , c_v+63
	.byte		N03   , Bn4 , v072
	.byte	W03
	.byte		        Bn4 , v052
	.byte	W03
	.byte		        An4 , v072
	.byte	W03
	.byte		        An4 , v052
	.byte	W03
	.byte		        Fs4 , v072
	.byte	W03
	.byte		        Fs4 , v052
	.byte	W03
	.byte		        Dn4 , v072
	.byte	W03
	.byte		        Dn4 , v052
	.byte	W03
	.byte		        Bn3 , v072
	.byte	W03
	.byte		        Bn3 , v052
	.byte	W03
	.byte		        An3 , v072
	.byte	W03
	.byte		        An3 , v052
	.byte	W03
	.byte		        Fs3 , v072
	.byte	W03
	.byte		        Fs3 , v052
	.byte	W03
	.byte		        Dn3 , v072
	.byte	W03
	.byte		        Dn3 , v052
	.byte	W03
	.byte		PAN   , c_v-64
	.byte		N03   , Bn1 , v080
	.byte	W03
	.byte		        Dn2 
	.byte	W04
	.byte		        En2 
	.byte	W04
	.byte		        Dn2 
	.byte	W04
	.byte		        En2 
	.byte	W04
	.byte		        Gn2 
	.byte	W04
	.byte		        Fs2 
	.byte	W01
	.byte		PAN   , c_v+63
	.byte	W03
	.byte		N03   , An2 
	.byte	W04
	.byte		        Bn2 
	.byte	W02
	.byte	W02
	.byte		        An2 
	.byte	W04
	.byte		        Bn2 
	.byte	W04
	.byte		        Dn3 
	.byte	W84
	.byte	W02
	.byte	W15
	.byte		PAN   , c_v-64
	.byte		N06   , En3 
	.byte	W06
	.byte		PAN   , c_v+63
	.byte		N06   , En4 
	.byte	W06
	.byte		        En4 , v048
	.byte	W06
	.byte		PAN   , c_v-64
	.byte		N06   , En3 , v080
	.byte	W06
	.byte		        En3 , v048
	.byte	W06
	.byte		PAN   , c_v+63
	.byte		N06   , En4 , v080
	.byte	W06
	.byte		        En4 , v048
	.byte	W06
	.byte		PAN   , c_v-64
	.byte		N06   , En3 , v080
	.byte	W06
	.byte		        En3 , v048
	.byte	W06
	.byte		PAN   , c_v+63
	.byte		N06   , En3 , v080
	.byte	W06
	.byte		        En3 , v048
	.byte	W06
	.byte		PAN   , c_v-64
	.byte		N06   , En4 , v080
	.byte	W06
	.byte		PAN   , c_v+63
	.byte		N06   , Gn3 
	.byte	W06
	.byte		        En3 
	.byte	W03
	.byte	W03
	.byte		        Fs3 
	.byte	W06
	.byte		        Gn3 
	.byte	W06
	.byte		PAN   , c_v-64
	.byte		N06   , En3 
	.byte	W06
	.byte		PAN   , c_v+63
	.byte		N06   , En4 
	.byte	W06
	.byte		        En4 , v048
	.byte	W06
	.byte		PAN   , c_v-64
	.byte		N06   , En3 , v080
	.byte	W06
	.byte		        En3 , v048
	.byte	W06
	.byte		PAN   , c_v+63
	.byte		N06   , En4 , v080
	.byte	W06
	.byte		        En4 , v048
	.byte	W06
	.byte		PAN   , c_v-64
	.byte		N06   , En3 , v080
	.byte	W06
	.byte		        En3 , v048
	.byte	W06
	.byte		PAN   , c_v+63
	.byte		N06   , En3 , v080
	.byte	W06
	.byte		        En3 , v048
	.byte	W06
	.byte		PAN   , c_v-64
	.byte		N06   , En4 , v080
	.byte	W06
	.byte		PAN   , c_v+63
	.byte		N06   , Bn3 
	.byte	W06
	.byte		        Gn3 
	.byte	W03
	.byte	W03
	.byte		        An3 
	.byte	W06
	.byte		        Bn3 
	.byte	W06
	.byte		PAN   , c_v-64
	.byte		N06   , Gn3 , v048
	.byte	W12
	.byte		        Gn3 , v080
	.byte	W06
	.byte		        Gn3 , v048
	.byte	W06
	.byte		PAN   , c_v+63
	.byte	W06
	.byte		N06   , Gn3 , v080
	.byte	W06
	.byte		        Gn3 , v048
	.byte	W06
	.byte		        Gn3 , v036
	.byte	W36
	.byte	W03
	.byte	W15
	.byte	GOTO
	 .word	seq_000_0 + 0x2A
	.byte	FINE

@*********************** Track 02 ***********************@

seq_000_1:
	.byte	KEYSH , seq_000_key+0
	.byte	W01
	.byte		VOICE , 7
	.byte	W01
	.byte		VOL   , 94*seq_000_mvl/mxv
	.byte	W01
	.byte		PAN   , c_v+0
	.byte	W01
	.byte		BEND  , c_v+0
	.byte	W01
	.byte		LFOS  , 28
	.byte	W01
	.byte		LFODL , 14
	.byte	W01
	.byte		MODT  , mod_vib
	.byte	W01
	.byte		MOD   , 5
	.byte	W01
	.byte	W01
	.byte		XCMD  , xIECV , 40
	.byte	W01
	.byte	W01
	.byte		        xIECL , 4
	.byte	W03
	.byte		PAN   , c_v-64
	.byte	W06
	.byte		N06   , En1 , v052
	.byte	W12
	.byte		N06
	.byte	W12
	.byte		        Gn1 
	.byte	W06
	.byte		        En1 
	.byte	W12
	.byte		PAN   , c_v+63
	.byte	W06
	.byte		N06   , Gn1 
	.byte	W18
	.byte		        An1 
	.byte	W09
	.byte	W09
	.byte		        As1 
	.byte	W06
	.byte		PAN   , c_v-64
	.byte	W06
	.byte		N06   , En1 
	.byte	W12
	.byte		N06
	.byte	W12
	.byte		        Gn1 
	.byte	W06
	.byte		        En1 
	.byte	W12
	.byte		PAN   , c_v+63
	.byte	W18
	.byte		N06   , Dn2 
	.byte	W15
	.byte	W03
	.byte		        En2 
	.byte	W12
	.byte		PAN   , c_v-64
	.byte	W06
	.byte		N06   , En1 
	.byte	W12
	.byte		N06
	.byte	W12
	.byte		        Gn1 
	.byte	W06
	.byte		        En1 
	.byte	W12
	.byte		PAN   , c_v+63
	.byte	W06
	.byte		N06   , Gn1 
	.byte	W18
	.byte		        An1 
	.byte	W09
	.byte	W09
	.byte		        As1 
	.byte	W12
	.byte		PAN   , c_v-64
	.byte	W12
	.byte		N06   , En1 
	.byte	W12
	.byte		PAN   , c_v+63
	.byte	W06
	.byte		N06
	.byte	W06
	.byte		        En1 , v032
	.byte	W36
	.byte	W03
	.byte	W15
	.byte		VOICE , 6
	.byte		PAN   , c_v+63
	.byte		N06   , Dn3 , v072
	.byte	W06
	.byte		        En3 
	.byte	W12
	.byte		        Gn3 
	.byte	W12
	.byte		        An3 
	.byte	W06
	.byte		        Bn3 
	.byte	W12
	.byte		PAN   , c_v-64
	.byte		N06   , Dn3 
	.byte	W06
	.byte		        En3 
	.byte	W12
	.byte		        Gn3 
	.byte	W12
	.byte		        An3 
	.byte	W03
	.byte	W03
	.byte		        Fs3 
	.byte	W12
	.byte		PAN   , c_v+63
	.byte		N06   , Dn3 
	.byte	W06
	.byte		        En3 
	.byte	W12
	.byte		        Gn3 
	.byte	W12
	.byte		        An3 
	.byte	W06
	.byte		        Bn3 
	.byte	W12
	.byte		PAN   , c_v-64
	.byte		N06   , An2 
	.byte	W06
	.byte		        Dn3 
	.byte	W06
	.byte		        En3 
	.byte	W18
	.byte		        Bn2 
	.byte	W03
	.byte	W15
	.byte		PAN   , c_v+63
	.byte		N06
	.byte	W06
	.byte		        Dn3 
	.byte	W12
	.byte		        En3 
	.byte	W12
	.byte		        Fs3 
	.byte	W06
	.byte		        Gn3 
	.byte	W12
	.byte		PAN   , c_v-64
	.byte		N06   , Bn2 
	.byte	W06
	.byte		        Dn3 
	.byte	W12
	.byte		        En3 
	.byte	W12
	.byte		        Fs3 
	.byte	W03
	.byte	W03
	.byte		        Gn3 
	.byte	W12
	.byte		PAN   , c_v+63
	.byte		N06   , Cn3 
	.byte	W06
	.byte		        Dn3 
	.byte	W12
	.byte		        En3 
	.byte	W12
	.byte		        Fs3 
	.byte	W06
	.byte		        Dn3 
	.byte	W12
	.byte		PAN   , c_v-64
	.byte		N06   , Cn3 
	.byte	W06
	.byte		        Dn3 
	.byte	W12
	.byte		        En3 
	.byte	W12
	.byte		        Bn3 
	.byte	W03
	.byte	W03
	.byte		        An3 
	.byte	W12
	.byte		VOICE , 7
	.byte		PAN   , c_v+0
	.byte		N36   , Gn4 , v052
	.byte	W36
	.byte		N06   , Gn4 , v020
	.byte	W12
	.byte		N12   , Gn4 , v052
	.byte	W12
	.byte		N06   , Gn4 , v020
	.byte	W06
	.byte		N12   , Fs4 , v052
	.byte	W12
	.byte		N06   , Fs4 , v020
	.byte	W03
	.byte	W03
	.byte		N12   , Fn4 , v052
	.byte	W12
	.byte		N36   , Dn4 
	.byte	W36
	.byte		N06   , Dn4 , v020
	.byte	W12
	.byte		VOICE , 6
	.byte		PAN   , c_v+63
	.byte		N06   , An2 , v072
	.byte	W06
	.byte		        Dn3 
	.byte	W06
	.byte		        En3 
	.byte	W18
	.byte		        Bn2 
	.byte	W03
	.byte	W15
	.byte		PAN   , c_v-64
	.byte		N06
	.byte	W06
	.byte		        Dn3 
	.byte	W12
	.byte		        En3 
	.byte	W12
	.byte		        Fs3 
	.byte	W06
	.byte		        Gn3 
	.byte	W12
	.byte		PAN   , c_v+63
	.byte		N06   , Bn2 
	.byte	W06
	.byte		        Dn3 
	.byte	W12
	.byte		        En3 
	.byte	W12
	.byte		        Fs3 
	.byte	W03
	.byte	W03
	.byte		        Gn3 
	.byte	W12
	.byte		PAN   , c_v-64
	.byte		N06   , Cn3 
	.byte	W06
	.byte		        Dn3 
	.byte	W12
	.byte		        En3 
	.byte	W12
	.byte		        Fs3 
	.byte	W06
	.byte		        Dn3 
	.byte	W12
	.byte		PAN   , c_v+63
	.byte		N06   , Cn3 
	.byte	W06
	.byte		        Dn3 
	.byte	W12
	.byte		        En3 
	.byte	W12
	.byte		        An3 
	.byte	W03
	.byte	W03
	.byte		        Bn3 
	.byte	W12
	.byte		VOICE , 7
	.byte		PAN   , c_v+0
	.byte		N24   , Gn4 , v092
	.byte	W24
	.byte		N12   , Gn4 , v040
	.byte	W12
	.byte		        En4 , v092
	.byte	W12
	.byte		N24   , An4 
	.byte	W24
	.byte		N12   , An4 , v040
	.byte	W09
	.byte	W03
	.byte		        Fs4 , v092
	.byte	W12
	.byte		N24   , Bn4 
	.byte	W24
	.byte		N12   , Bn4 , v040
	.byte	W12
	.byte		        Gn4 , v092
	.byte	W12
	.byte		N24   , Cn5 
	.byte	W24
	.byte		N12   , Cn5 , v040
	.byte	W09
	.byte	W03
	.byte		        An4 , v092
	.byte	W12
	.byte		        Gn4 
	.byte	W12
	.byte		        Dn4 
	.byte	W12
	.byte		        En4 
	.byte	W12
	.byte		N36   , Bn4 
	.byte	W44
	.byte	W01
	.byte	W15
	.byte		N06   , Dn5 
	.byte	W06
	.byte		        En5 
	.byte	W06
	.byte		        Dn5 
	.byte	W06
	.byte		        Bn4 
	.byte	W06
	.byte		        Dn5 
	.byte	W06
	.byte		        Cn5 
	.byte	W06
	.byte		        Bn4 
	.byte	W06
	.byte		        Gn4 
	.byte	W06
	.byte		        An4 
	.byte	W06
	.byte		        Bn4 
	.byte	W06
	.byte		        Cn5 
	.byte	W06
	.byte		        An4 
	.byte	W06
	.byte		        Fn4 
	.byte	W06
	.byte		        En4 
	.byte	W03
	.byte	W03
	.byte		        Cn4 
	.byte	W06
	.byte		        Dn4 
	.byte	W06
	.byte		N30   , An3 , v072
	.byte	W30
	.byte		N06   , An3 , v036
	.byte	W06
	.byte		N18   , Cn3 , v072
	.byte	W18
	.byte		N06   , Cn3 , v036
	.byte	W06
	.byte		N12   , Dn3 , v072
	.byte	W12
	.byte		N06   , Dn3 , v036
	.byte	W06
	.byte		N12   , Fn3 , v072
	.byte	W03
	.byte	W09
	.byte		N06   , Fn3 , v036
	.byte	W06
	.byte		N30   , En3 , v072
	.byte	W30
	.byte		N06   , En3 , v036
	.byte	W06
	.byte		N18   , Gn3 , v072
	.byte	W18
	.byte		N06   , Gn3 , v036
	.byte	W06
	.byte		N12   , En3 , v072
	.byte	W12
	.byte		N06   , En3 , v036
	.byte	W06
	.byte		N12   , Cn3 , v072
	.byte	W03
	.byte	W09
	.byte		N06   , Cn3 , v036
	.byte	W06
	.byte		N12   , En3 , v072
	.byte	W12
	.byte		N06   , En3 , v036
	.byte	W12
	.byte		        En3 , v072
	.byte	W06
	.byte		        Gn3 
	.byte	W06
	.byte		        An3 
	.byte	W06
	.byte		        En3 
	.byte	W06
	.byte		        Fs3 
	.byte	W06
	.byte		        Fs3 , v036
	.byte	W12
	.byte		        Gn3 , v072
	.byte	W06
	.byte		        Gn3 , v036
	.byte	W09
	.byte	W03
	.byte		        An3 , v072
	.byte	W06
	.byte		        An3 , v036
	.byte	W06
	.byte		N36   , Bn3 , v072
	.byte	W36
	.byte		N12   , Bn3 , v036
	.byte	W44
	.byte	W01
	.byte	W15
	.byte		VOICE , 7
	.byte		PAN   , c_v-64
	.byte	W06
	.byte		N06   , En1 , v052
	.byte	W06
	.byte		        Gn1 
	.byte	W12
	.byte		        Gs1 
	.byte	W12
	.byte		        An1 
	.byte	W12
	.byte		PAN   , c_v+63
	.byte		N06   , Bn1 
	.byte	W12
	.byte		        Dn2 
	.byte	W12
	.byte		        Bn1 
	.byte	W06
	.byte		        Dn2 
	.byte	W03
	.byte	W03
	.byte		        Bn1 
	.byte	W06
	.byte		        Dn2 
	.byte	W06
	.byte		PAN   , c_v-64
	.byte		N06   , En2 
	.byte	W06
	.byte		        En1 
	.byte	W06
	.byte		        Gn1 
	.byte	W12
	.byte		        Gs1 
	.byte	W12
	.byte		        An1 
	.byte	W12
	.byte		PAN   , c_v+63
	.byte		N06   , Bn1 
	.byte	W18
	.byte		        Dn2 
	.byte	W15
	.byte	W03
	.byte		        En2 
	.byte	W12
	.byte		PAN   , c_v-64
	.byte	W06
	.byte		N06   , En1 
	.byte	W06
	.byte		        Gn1 
	.byte	W12
	.byte		        Gs1 
	.byte	W12
	.byte		        An1 
	.byte	W12
	.byte		PAN   , c_v+63
	.byte		N06   , Bn1 
	.byte	W12
	.byte		        Dn2 
	.byte	W12
	.byte		        Bn1 
	.byte	W06
	.byte		        Dn2 
	.byte	W03
	.byte	W03
	.byte		        Bn1 
	.byte	W06
	.byte		        Dn2 
	.byte	W06
	.byte		        En2 
	.byte	W06
	.byte		PAN   , c_v-64
	.byte	W12
	.byte		N06   , En1 
	.byte	W12
	.byte		PAN   , c_v+63
	.byte	W06
	.byte		N06
	.byte	W06
	.byte		        En1 , v032
	.byte	W36
	.byte	W03
	.byte	W15
	.byte	GOTO
	 .word	seq_000_1 + 0x78
	.byte	FINE

@*********************** Track 03 ***********************@

seq_000_2:
	.byte	KEYSH , seq_000_key+0
	.byte	W01
	.byte		VOICE , 16
	.byte	W01
	.byte		VOL   , 120*seq_000_mvl/mxv
	.byte	W01
	.byte		PAN   , c_v+0
	.byte	W01
	.byte		BEND  , c_v+0
	.byte	W01
	.byte		LFOS  , 28
	.byte	W01
	.byte		LFODL , 14
	.byte	W01
	.byte		MODT  , mod_vib
	.byte	W01
	.byte		MOD   , 10
	.byte	W01
	.byte	W01
	.byte		XCMD  , xIECV , 30
	.byte	W01
	.byte	W01
	.byte		        xIECL , 3
	.byte	W03
	.byte		N06   , En2 , v120
	.byte	W12
	.byte		N06
	.byte	W12
	.byte		        Gn2 
	.byte	W06
	.byte		        En2 
	.byte	W18
	.byte		        Gn2 
	.byte	W18
	.byte		        An2 
	.byte	W15
	.byte	W03
	.byte		        As2 
	.byte	W12
	.byte		        En2 
	.byte	W12
	.byte		N06
	.byte	W12
	.byte		        Gn2 
	.byte	W06
	.byte		        En2 
	.byte	W30
	.byte		        Dn3 
	.byte	W18
	.byte		        En3 
	.byte	W03
	.byte	W15
	.byte		        En2 
	.byte	W12
	.byte		N06
	.byte	W12
	.byte		        Gn2 
	.byte	W06
	.byte		        En2 
	.byte	W18
	.byte		        Gn2 
	.byte	W18
	.byte		        An2 
	.byte	W15
	.byte	W03
	.byte		        As2 
	.byte	W24
	.byte		        En2 
	.byte	W18
	.byte		N06
	.byte	W14
	.byte		        Fn6 , v004
	.byte	W36
	.byte	W01
	.byte	W15
	.byte		N06   , En1 , v120
	.byte	W12
	.byte		        En2 
	.byte	W12
	.byte		        Gn2 
	.byte	W06
	.byte		        En2 
	.byte	W12
	.byte		        Bn1 
	.byte	W12
	.byte		        Dn2 
	.byte	W06
	.byte		        Ds2 
	.byte	W12
	.byte		        En2 
	.byte	W09
	.byte	W03
	.byte		N06   , Bn1 , v120
	.byte	W12
	.byte		        En1 
	.byte	W12
	.byte		N06
	.byte	W12
	.byte		        En2 
	.byte	W12
	.byte		        Gn2 
	.byte	W06
	.byte		        En2 
	.byte	W12
	.byte		        Bn1 
	.byte	W06
	.byte		        Dn2 
	.byte	W18
	.byte		        Ds2 
	.byte	W03
	.byte	PEND
	.byte	W15
	.byte		N06   , En1 , v120
	.byte	W12
	.byte		        En2 
	.byte	W12
	.byte		        Gn2 
	.byte	W06
	.byte		        En2 
	.byte	W12
	.byte		        Bn1 
	.byte	W12
	.byte		        Dn2 
	.byte	W06
	.byte		        Ds2 
	.byte	W12
	.byte		        En2 
	.byte	W09
	.byte	PEND
	.byte	PATT
	 .word	seq_000_2 + 0x6C
	.byte	PATT
	 .word	seq_000_2 + 0x82
	.byte	PATT
	 .word	seq_000_2 + 0x6C
	.byte	PATT
	 .word	seq_000_2 + 0x82
	.byte	PATT
	 .word	seq_000_2 + 0x6C
	.byte	W15
	.byte		N06   , Cn2 , v120
	.byte	W12
	.byte		        Bn2 
	.byte	W06
	.byte		        Cn3 
	.byte	W06
	.byte		        Gn2 
	.byte	W06
	.byte		        En2 
	.byte	W12
	.byte		        Cs2 
	.byte	W06
	.byte		        Dn2 
	.byte	W12
	.byte		        Cs3 
	.byte	W06
	.byte		        Dn3 
	.byte	W06
	.byte		        An2 
	.byte	W06
	.byte		        Fs2 
	.byte	W03
	.byte	W09
	.byte		        Cs2 
	.byte	W06
	.byte		        Cn2 
	.byte	W12
	.byte		        Bn2 
	.byte	W06
	.byte		        Cn3 
	.byte	W06
	.byte		        Gn2 
	.byte	W06
	.byte		        En2 
	.byte	W12
	.byte		        Cs2 
	.byte	W06
	.byte		        Dn2 
	.byte	W12
	.byte		        Cs3 
	.byte	W06
	.byte		        Dn3 
	.byte	W06
	.byte		        An2 
	.byte	W06
	.byte		        Fs2 
	.byte	W03
	.byte	W09
	.byte		        Cs2 
	.byte	W06
	.byte		        En1 
	.byte	W12
	.byte		        En2 
	.byte	W12
	.byte		        Gn2 
	.byte	W06
	.byte		        En2 
	.byte	W12
	.byte		        Bn1 
	.byte	W12
	.byte		        Dn2 
	.byte	W06
	.byte		        Ds2 
	.byte	W12
	.byte		        En2 
	.byte	W09
	.byte	W03
	.byte		        Bn1 
	.byte	W12
	.byte		        Fn1 
	.byte	W06
	.byte		        En2 
	.byte	W06
	.byte		        Fn2 
	.byte	W06
	.byte		        Cn2 
	.byte	W06
	.byte		        Fn2 
	.byte	W06
	.byte		        Fn3 
	.byte	W12
	.byte		        Fn2 
	.byte	W12
	.byte		N06
	.byte	W06
	.byte		        Gn2 
	.byte	W12
	.byte		        An2 
	.byte	W09
	.byte	W03
	.byte		        Dn2 
	.byte	W12
	.byte		N06
	.byte	W12
	.byte		        Cn3 
	.byte	W06
	.byte		        Dn3 
	.byte	W06
	.byte		        An2 
	.byte	W06
	.byte		        Fn2 
	.byte	W12
	.byte		        En2 
	.byte	W06
	.byte		        Dn2 
	.byte	W12
	.byte		        Cn3 
	.byte	W06
	.byte		        Dn3 
	.byte	W06
	.byte		        An2 
	.byte	W06
	.byte		        Fn2 
	.byte	W03
	.byte	W09
	.byte		        Dn2 
	.byte	W06
	.byte		        Cn2 
	.byte	W12
	.byte		        Bn2 
	.byte	W06
	.byte		        Cn3 
	.byte	W06
	.byte		        Gn2 
	.byte	W06
	.byte		        En2 
	.byte	W12
	.byte		        Bn1 
	.byte	W06
	.byte		        Cn2 
	.byte	W12
	.byte		        Bn2 
	.byte	W06
	.byte		        Cn3 
	.byte	W06
	.byte		        Gn2 
	.byte	W06
	.byte		        En2 
	.byte	W03
	.byte	W09
	.byte		        Bn1 
	.byte	W06
	.byte		        An1 
	.byte	W12
	.byte		        Gn2 
	.byte	W06
	.byte		        An2 
	.byte	W06
	.byte		        En2 
	.byte	W06
	.byte		        Cn2 
	.byte	W12
	.byte		        Fn1 
	.byte	W06
	.byte		        An1 
	.byte	W12
	.byte		        Gn2 
	.byte	W06
	.byte		        An2 
	.byte	W06
	.byte		        En2 
	.byte	W06
	.byte		        Cn2 
	.byte	W03
	.byte	W09
	.byte		        An1 
	.byte	W12
	.byte		        As2 
	.byte	W06
	.byte		        Bn2 
	.byte	W06
	.byte		        Bn1 
	.byte	W06
	.byte		N06
	.byte	W06
	.byte		        Bn2 
	.byte	W12
	.byte		        Bn1 
	.byte	W12
	.byte		N06
	.byte	W06
	.byte		N06
	.byte	W12
	.byte		        Bn2 
	.byte	W09
	.byte	W03
	.byte		        Bn1 
	.byte	W12
	.byte		        En2 
	.byte	W06
	.byte		        Gn2 
	.byte	W12
	.byte		        Gs2 
	.byte	W12
	.byte		        An2 
	.byte	W12
	.byte		        Bn2 
	.byte	W12
	.byte		        Dn3 
	.byte	W12
	.byte		        Bn2 
	.byte	W06
	.byte		        Dn3 
	.byte	W06
	.byte		        Bn2 
	.byte	W03
	.byte	W03
	.byte		N06   , Dn3 , v120
	.byte	W06
	.byte		        En3 
	.byte	W06
	.byte		        En2 
	.byte	W06
	.byte		        Gn2 
	.byte	W12
	.byte		        Gs2 
	.byte	W12
	.byte		        An2 
	.byte	W12
	.byte		        Bn2 
	.byte	W12
	.byte		        Dn3 
	.byte	W12
	.byte		        Bn2 
	.byte	W06
	.byte		        Dn3 
	.byte	W06
	.byte		        Bn2 
	.byte	W03
	.byte	PEND
	.byte	PATT
	 .word	seq_000_2 + 0x180
	.byte	W03
	.byte		N06   , Dn3 , v120
	.byte	W06
	.byte		        En3 
	.byte	W18
	.byte		        En2 
	.byte	W18
	.byte		N06
	.byte	W14
	.byte		        Fn6 , v004
	.byte	W36
	.byte	W01
	.byte	W15
	.byte	GOTO
	 .word	seq_000_2 + 0x5A
	.byte	FINE

@*********************** Track 04 ***********************@

seq_000_3:
	.byte	KEYSH , seq_000_key+0
	.byte	W01
	.byte		VOICE , 0
	.byte	W01
	.byte		VOL   , 94*seq_000_mvl/mxv
	.byte	W01
	.byte		PAN   , c_v+0
	.byte	W01
	.byte		BEND  , c_v+0
	.byte	W11
	.byte		N21   , Fs1 , v072
	.byte		N06   , As1 , v100
	.byte	W24
	.byte		N03   , Ds1 , v072
	.byte		N06   , As1 , v100
	.byte	W06
	.byte		N03   , Ds1 , v040
	.byte	W06
	.byte		        Ds1 , v060
	.byte	W06
	.byte		        Ds1 , v032
	.byte	W06
	.byte		        Ds1 , v072
	.byte		N06   , As1 , v100
	.byte	W06
	.byte		N03   , Ds1 , v040
	.byte	W06
	.byte		        Ds1 , v060
	.byte	W06
	.byte		        Ds1 , v032
	.byte	W06
	.byte		        Ds1 , v072
	.byte		N06   , As1 , v100
	.byte	W06
	.byte		N03   , Ds1 , v040
	.byte	W03
	.byte	W03
	.byte		        Ds1 , v060
	.byte	W06
	.byte		        Ds1 , v032
	.byte		N06   , As1 , v100
	.byte	W06
	.byte		N03   , Ds1 , v072
	.byte		N06   , As1 , v100
	.byte	W06
	.byte		N03   , Ds1 , v040
	.byte	W06
	.byte		        Ds1 , v060
	.byte	W06
	.byte		        Ds1 , v032
	.byte	W06
	.byte		        Ds1 , v072
	.byte		N06   , As1 , v100
	.byte	W06
	.byte		N03   , Ds1 , v040
	.byte	W06
	.byte		        Ds1 , v060
	.byte	W06
	.byte		        Ds1 , v032
	.byte		N06   , As1 , v100
	.byte	W06
	.byte		N03   , Ds1 , v072
	.byte		N06   , Cs2 
	.byte	W06
	.byte		N03   , Ds1 
	.byte		N06   , Cs2 , v052
	.byte	W06
	.byte		N12   , En1 , v092
	.byte		N12   , An2 , v112
	.byte	W12
	.byte		N03   , Ds1 , v072
	.byte	W06
	.byte		N12   , En1 , v092
	.byte		N12   , Gn2 , v112
	.byte	W03
	.byte	W09
	.byte		N03   , Ds1 , v032
	.byte		N06   , As1 , v100
	.byte	W06
	.byte		N03   , Ds1 , v072
	.byte		N06   , As1 , v100
	.byte	W06
	.byte		N03   , Ds1 , v040
	.byte	W06
	.byte		        Ds1 , v060
	.byte	W06
	.byte		        Ds1 , v032
	.byte	W06
	.byte		        Ds1 , v072
	.byte		N06   , As1 , v100
	.byte	W06
	.byte		N03   , Ds1 , v040
	.byte	W06
	.byte		        Ds1 , v060
	.byte	W06
	.byte		        Ds1 , v032
	.byte	W06
	.byte		        Ds1 , v072
	.byte		N06   , As1 , v100
	.byte	W06
	.byte		N03   , En1 , v072
	.byte	W06
	.byte		        Ds1 , v060
	.byte	W06
	.byte		        Ds1 , v032
	.byte	W06
	.byte		        Ds1 , v072
	.byte		N06   , As1 , v100
	.byte	W06
	.byte		N03   , Ds1 , v040
	.byte	W03
	.byte	W03
	.byte		        Ds1 , v060
	.byte	W06
	.byte		        Ds1 , v032
	.byte	W06
	.byte		        Ds1 , v072
	.byte		N06   , An2 , v112
	.byte	W06
	.byte		N03   , Ds1 , v040
	.byte		N06   , Gn2 , v112
	.byte	W06
	.byte		N12   , En1 , v080
	.byte	W06
	.byte		N06   , As1 , v100
	.byte	W06
	.byte		N03   , Ds1 , v072
	.byte		N06   , Cn2 , v060
	.byte	W06
	.byte		N12   , En1 , v080
	.byte		N06   , As1 , v100
	.byte	W12
	.byte		N03   , Ds1 , v032
	.byte	W06
	.byte		        Ds1 , v072
	.byte	W06
	.byte		        Ds1 , v040
	.byte	W06
	.byte		        Ds1 , v060
	.byte	W06
	.byte		        Ds1 , v032
	.byte	W06
	.byte		        Ds1 , v072
	.byte		N06   , Cn2 , v060
	.byte	W06
	.byte		N03   , Ds1 , v040
	.byte		N06   , Cn2 
	.byte	W03
	.byte	W03
	.byte		N03   , Ds1 , v060
	.byte	W06
	.byte		        Ds1 , v032
	.byte		N06   , Cn2 , v052
	.byte	W06
	.byte		N21   , Fs1 , v072
	.byte		N06   , As1 , v100
	.byte	W24
	.byte		N03   , Ds1 , v072
	.byte		N06   , Cn2 , v060
	.byte	W06
	.byte		N03   , Ds1 , v040
	.byte	W06
	.byte		        Ds1 , v060
	.byte		N06   , As1 , v100
	.byte	W06
	.byte		N03   , Ds1 , v032
	.byte	W06
	.byte		        Ds1 , v072
	.byte	W06
	.byte		        En1 
	.byte	W06
	.byte		        Ds1 , v060
	.byte		N06   , As1 , v100
	.byte	W06
	.byte		N03   , Ds1 , v032
	.byte	W06
	.byte		        Ds1 , v072
	.byte		N06   , Cn2 , v060
	.byte	W06
	.byte		N03   , Ds1 , v040
	.byte	W03
	.byte	W03
	.byte		N03   , Ds1 , v060
	.byte		N06   , As1 , v100
	.byte	W06
	.byte		N03   , Ds1 , v032
	.byte	W06
	.byte		        Ds1 , v072
	.byte	W06
	.byte		        Ds1 , v040
	.byte	W06
	.byte		        Ds1 , v060
	.byte		N06   , As1 , v100
	.byte	W06
	.byte		N03   , Ds1 , v032
	.byte	W06
	.byte		        Ds1 , v072
	.byte		N06   , Cn2 , v060
	.byte	W06
	.byte		N03   , Ds1 , v040
	.byte	W06
	.byte		        Ds1 , v060
	.byte		N06   , As1 , v100
	.byte	W06
	.byte		N03   , Ds1 , v032
	.byte	W06
	.byte		        Ds1 , v072
	.byte	W06
	.byte		        Ds1 , v040
	.byte	W06
	.byte		        En1 , v080
	.byte		N06   , As1 , v100
	.byte	W06
	.byte		N03   , Ds1 , v060
	.byte	W12
	.byte		        En1 , v080
	.byte		N06   , As1 , v100
	.byte	W03
	.byte	PEND
	.byte	W03
	.byte		N03   , Ds1 , v040
	.byte	W06
	.byte		        Ds1 , v032
	.byte	W06
	.byte		        Ds1 , v072
	.byte		N06   , As1 , v100
	.byte	W06
	.byte		N03   , Ds1 , v040
	.byte	W06
	.byte		        Ds1 , v060
	.byte	W06
	.byte		        Ds1 , v032
	.byte	W06
	.byte		        Ds1 , v072
	.byte		N06   , Cn2 , v060
	.byte	W06
	.byte		N03   , Ds1 , v040
	.byte	W06
	.byte		        Ds1 , v060
	.byte		N06   , As1 , v100
	.byte	W06
	.byte		N03   , Ds1 , v032
	.byte	W06
	.byte		        Ds1 , v072
	.byte	W06
	.byte		        En1 
	.byte	W06
	.byte		        Ds1 , v060
	.byte		N06   , As1 , v100
	.byte	W06
	.byte		N03   , Ds1 , v032
	.byte	W06
	.byte		        Ds1 , v072
	.byte		N06   , Cn2 , v060
	.byte	W06
	.byte		N03   , Ds1 , v040
	.byte	W03
	.byte	PEND
	.byte	W03
	.byte		        Ds1 , v060
	.byte		N06   , As1 , v100
	.byte	W06
	.byte		N03   , Ds1 , v032
	.byte	W06
	.byte		        Ds1 , v072
	.byte	W06
	.byte		        Ds1 , v040
	.byte	W06
	.byte		        Ds1 , v060
	.byte		N06   , As1 , v100
	.byte	W06
	.byte		N03   , Ds1 , v032
	.byte	W06
	.byte		        Ds1 , v072
	.byte		N06   , Cn2 , v060
	.byte	W06
	.byte		N03   , Ds1 , v040
	.byte	W06
	.byte		        Ds1 , v060
	.byte		N06   , As1 , v100
	.byte	W06
	.byte		N03   , Ds1 , v032
	.byte	W06
	.byte		        Ds1 , v072
	.byte	W06
	.byte		        En1 
	.byte	W06
	.byte		        Ds1 , v060
	.byte		N06   , As1 , v100
	.byte	W06
	.byte		N03   , Ds1 , v032
	.byte	W06
	.byte		        Ds1 , v072
	.byte		N06   , Cn2 
	.byte	W06
	.byte		N03   , Ds1 , v040
	.byte		N06   , As1 , v100
	.byte		N06   , Cn2 , v052
	.byte	W03
	.byte	W03
	.byte		N03   , Ds1 , v060
	.byte		N06   , Cn2 , v040
	.byte	W06
	.byte		N03   , Ds1 , v032
	.byte		N06   , Cn2 , v080
	.byte	W06
	.byte		N03   , Ds1 , v072
	.byte		N06   , As1 , v100
	.byte	W06
	.byte		N03   , Ds1 , v040
	.byte	W06
	.byte		        Ds1 , v060
	.byte	W06
	.byte		        Ds1 , v032
	.byte	W06
	.byte		        Ds1 , v072
	.byte		N06   , Cn2 , v060
	.byte	W06
	.byte		N03   , Ds1 , v040
	.byte	W06
	.byte		        Ds1 , v060
	.byte		N06   , As1 , v100
	.byte	W06
	.byte		N03   , Ds1 , v032
	.byte	W06
	.byte		        Ds1 , v072
	.byte	W06
	.byte		        En1 
	.byte	W06
	.byte		        Ds1 , v060
	.byte		N06   , As1 , v100
	.byte	W06
	.byte		N03   , Ds1 , v032
	.byte	W06
	.byte		        Ds1 , v072
	.byte		N06   , Cn2 , v060
	.byte	W06
	.byte		N03   , Ds1 , v040
	.byte	W03
	.byte	PATT
	 .word	seq_000_3 + 0x156
	.byte	PATT
	 .word	seq_000_3 + 0x19D
	.byte	W03
	.byte		N03   , Ds1 , v060
	.byte		N06   , As1 , v100
	.byte	W06
	.byte		N03   , Ds1 , v032
	.byte	W06
	.byte		        Ds1 , v072
	.byte	W06
	.byte		        Ds1 , v040
	.byte	W06
	.byte		        Ds1 , v060
	.byte		N06   , As1 , v100
	.byte	W06
	.byte		N03   , Ds1 , v032
	.byte	W06
	.byte		        Ds1 , v072
	.byte		N06   , Cn2 , v060
	.byte	W06
	.byte		N03   , Ds1 , v040
	.byte	W06
	.byte		        Ds1 , v060
	.byte		N06   , As1 , v100
	.byte	W06
	.byte		N03   , Ds1 , v032
	.byte	W06
	.byte		        Ds1 , v072
	.byte	W06
	.byte		        En1 
	.byte	W06
	.byte		        Ds1 , v060
	.byte		N06   , As1 , v100
	.byte	W06
	.byte		N03   , Ds1 , v032
	.byte	W06
	.byte		        Ds1 , v072
	.byte		N06   , Cn2 , v060
	.byte	W06
	.byte		N03   , Ds1 , v040
	.byte		N06   , As1 , v100
	.byte		N06   , Cn2 , v052
	.byte	W03
	.byte	W03
	.byte		N03   , Ds1 , v060
	.byte		N06   , Cn2 , v040
	.byte	W06
	.byte		N03   , Ds1 , v032
	.byte		N06   , Cn2 , v072
	.byte	W06
	.byte		N21   , Fs1 
	.byte		N06   , As1 , v100
	.byte	W24
	.byte		N03   , Ds1 , v072
	.byte		N06   , Cn2 , v060
	.byte	W06
	.byte		N03   , Ds1 , v040
	.byte	W06
	.byte		        Ds1 , v060
	.byte		N06   , As1 , v100
	.byte	W06
	.byte		N03   , Ds1 , v032
	.byte	W06
	.byte		        Ds1 , v072
	.byte	W06
	.byte		        En1 
	.byte	W06
	.byte		        Ds1 , v060
	.byte		N06   , As1 , v100
	.byte	W06
	.byte		N03   , Ds1 , v032
	.byte	W06
	.byte		        Ds1 , v072
	.byte		N06   , Cn2 , v060
	.byte	W06
	.byte		N03   , Ds1 , v040
	.byte	W03
	.byte	W03
	.byte		N03   , Ds1 , v060
	.byte		N06   , As1 , v100
	.byte	W06
	.byte		N03   , Ds1 , v032
	.byte	W06
	.byte		        Ds1 , v072
	.byte		N06   , As1 , v100
	.byte	W06
	.byte		N03   , Ds1 , v040
	.byte	W06
	.byte		        Ds1 , v060
	.byte	W06
	.byte		        Ds1 , v032
	.byte	W06
	.byte		        Ds1 , v072
	.byte		N06   , Cn2 , v060
	.byte	W06
	.byte		N03   , Ds1 , v040
	.byte	W06
	.byte		        Ds1 , v060
	.byte		N06   , As1 , v100
	.byte	W06
	.byte		N03   , Ds1 , v032
	.byte	W06
	.byte		        Ds1 , v072
	.byte	W06
	.byte		        En1 
	.byte	W06
	.byte		        Ds1 , v060
	.byte		N06   , As1 , v100
	.byte	W06
	.byte		N03   , Ds1 , v032
	.byte	W06
	.byte		        Ds1 , v072
	.byte		N06   , Cn2 
	.byte	W06
	.byte		N03   , Ds1 , v040
	.byte		N06   , Cn2 , v032
	.byte	W03
	.byte	PEND
	.byte	W03
	.byte		N03   , Ds1 , v060
	.byte		N06   , As1 , v100
	.byte	W06
	.byte		N03   , Ds1 , v032
	.byte		N06   , Cn2 , v052
	.byte	W06
	.byte		N03   , Ds1 , v072
	.byte		N06   , As1 , v100
	.byte	W06
	.byte		N03   , Ds1 , v040
	.byte	W06
	.byte		        Ds1 , v060
	.byte	W06
	.byte		        Ds1 , v032
	.byte	W06
	.byte		        Ds1 , v072
	.byte		N06   , Cn2 , v060
	.byte	W06
	.byte		N03   , Ds1 , v040
	.byte	W06
	.byte		        Ds1 , v060
	.byte		N06   , As1 , v100
	.byte	W06
	.byte		N03   , Ds1 , v032
	.byte	W06
	.byte		        Ds1 , v072
	.byte	W06
	.byte		        En1 
	.byte	W06
	.byte		        Ds1 , v060
	.byte		N06   , As1 , v100
	.byte	W06
	.byte		N03   , Ds1 , v032
	.byte	W06
	.byte		        Ds1 , v072
	.byte		N06   , Cn2 , v060
	.byte	W06
	.byte		N03   , Ds1 , v040
	.byte	W03
	.byte	PEND
	.byte	W03
	.byte		N03   , Ds1 , v060
	.byte		N06   , As1 , v100
	.byte	W06
	.byte		N03   , Ds1 , v032
	.byte	W06
	.byte		        Ds1 , v072
	.byte		N06   , As1 , v100
	.byte	W06
	.byte		N03   , Ds1 , v040
	.byte	W06
	.byte		        Ds1 , v060
	.byte	W06
	.byte		        Ds1 , v032
	.byte	W06
	.byte		        Ds1 , v072
	.byte		N06   , Cn2 , v060
	.byte	W06
	.byte		N03   , Ds1 , v040
	.byte	W06
	.byte		        Ds1 , v060
	.byte		N06   , As1 , v100
	.byte	W06
	.byte		N03   , Ds1 , v032
	.byte	W06
	.byte		        Ds1 , v072
	.byte	W06
	.byte		        En1 
	.byte	W06
	.byte		        Ds1 , v060
	.byte		N06   , As1 , v100
	.byte	W06
	.byte		N03   , Ds1 , v032
	.byte	W06
	.byte		        Ds1 , v072
	.byte		N06   , Cn2 , v060
	.byte	W06
	.byte		N03   , Ds1 , v040
	.byte	W03
	.byte	PEND
	.byte	W03
	.byte		        Ds1 , v060
	.byte	W06
	.byte		        Ds1 , v032
	.byte		N06   , As1 , v100
	.byte	W06
	.byte		N03   , Ds1 , v072
	.byte		N06   , As1 , v100
	.byte	W06
	.byte		N03   , Ds1 , v040
	.byte	W06
	.byte		        Ds1 , v060
	.byte	W06
	.byte		        Ds1 , v032
	.byte	W06
	.byte		        Ds1 , v072
	.byte		N06   , Cn2 , v060
	.byte	W06
	.byte		N03   , Ds1 , v040
	.byte	W06
	.byte		        Ds1 , v060
	.byte		N06   , As1 , v100
	.byte	W06
	.byte		N03   , Ds1 , v032
	.byte	W06
	.byte		        Ds1 , v072
	.byte	W06
	.byte		        En1 
	.byte	W06
	.byte		        Ds1 , v060
	.byte		N06   , As1 , v100
	.byte	W06
	.byte		N03   , Ds1 , v032
	.byte	W06
	.byte		        Ds1 , v072
	.byte		N06   , Cn2 , v060
	.byte	W06
	.byte		N03   , Ds1 , v040
	.byte	W03
	.byte	PATT
	 .word	seq_000_3 + 0x319
	.byte	PATT
	 .word	seq_000_3 + 0x365
	.byte	PATT
	 .word	seq_000_3 + 0x3B3
	.byte	W03
	.byte		N03   , Ds1 , v060
	.byte	W06
	.byte		        Ds1 , v032
	.byte		N06   , As1 , v100
	.byte	W06
	.byte		N03   , Ds1 , v072
	.byte		N06   , As1 , v100
	.byte	W06
	.byte		N03   , Ds1 , v040
	.byte		N06   , As1 , v100
	.byte	W06
	.byte		N03   , Ds1 , v060
	.byte	W06
	.byte		        Ds1 , v032
	.byte		N06   , As1 , v100
	.byte	W06
	.byte		N03   , Ds1 , v072
	.byte		N06   , Cn2 , v060
	.byte	W06
	.byte		N03   , Ds1 , v040
	.byte		N06   , As1 , v100
	.byte	W06
	.byte		N03   , Ds1 , v060
	.byte	W06
	.byte		        Ds1 , v032
	.byte		N06   , As1 , v100
	.byte	W06
	.byte		N03   , Ds1 , v072
	.byte		N06   , As1 , v052
	.byte	W06
	.byte		N03   , En1 , v072
	.byte		N06   , Cn2 , v060
	.byte	W06
	.byte		N03   , Ds1 
	.byte		N06   , Cn2 , v040
	.byte	W06
	.byte		N03   , Ds1 , v032
	.byte		N06   , As1 , v100
	.byte	W06
	.byte		N03   , Ds1 , v072
	.byte		N06   , As1 , v100
	.byte	W06
	.byte		N03   , Ds1 , v040
	.byte		N06   , As1 , v100
	.byte	W03
	.byte	W03
	.byte		N03   , Ds1 , v060
	.byte	W06
	.byte		        Ds1 , v032
	.byte		N06   , As1 , v100
	.byte	W06
	.byte		N03   , Ds1 , v072
	.byte		N06   , As1 , v100
	.byte	W06
	.byte		N03   , Ds1 , v040
	.byte		N06   , As1 , v100
	.byte	W06
	.byte		N03   , Ds1 , v060
	.byte	W06
	.byte		        Ds1 , v032
	.byte		N06   , As1 , v100
	.byte	W06
	.byte		N03   , Ds1 , v072
	.byte		N06   , Cn2 , v060
	.byte	W06
	.byte		N03   , Ds1 , v040
	.byte		N06   , As1 , v100
	.byte	W06
	.byte		N03   , Ds1 , v060
	.byte	W06
	.byte		        Ds1 , v032
	.byte		N06   , As1 , v100
	.byte	W06
	.byte		N03   , Ds1 , v072
	.byte		N06   , As1 , v052
	.byte	W06
	.byte		N03   , En1 , v072
	.byte		N06   , An2 , v100
	.byte	W06
	.byte		N03   , Ds1 , v060
	.byte		N06   , Gs2 , v100
	.byte	W06
	.byte		N03   , Ds1 , v032
	.byte		N06   , Gn2 , v100
	.byte	W06
	.byte		N03   , Ds1 , v072
	.byte		N06   , As1 , v100
	.byte	W06
	.byte		N03   , Ds1 , v040
	.byte		N06   , As1 , v100
	.byte	W03
	.byte	W03
	.byte		N03   , Ds1 , v060
	.byte	W06
	.byte		        Ds1 , v032
	.byte		N06   , As1 , v100
	.byte	W06
	.byte		N03   , Ds1 , v072
	.byte		N06   , As1 , v100
	.byte	W06
	.byte		N03   , Ds1 , v040
	.byte		N06   , As1 , v100
	.byte	W06
	.byte		N03   , Ds1 , v060
	.byte	W06
	.byte		        Ds1 , v032
	.byte		N06   , As1 , v100
	.byte	W06
	.byte		N03   , Ds1 , v072
	.byte		N06   , Cn2 , v060
	.byte	W06
	.byte		N03   , Ds1 , v040
	.byte		N06   , As1 , v100
	.byte	W06
	.byte		N03   , Ds1 , v060
	.byte	W06
	.byte		        Ds1 , v032
	.byte		N06   , As1 , v100
	.byte	W06
	.byte		N03   , Ds1 , v072
	.byte		N06   , As1 , v052
	.byte	W06
	.byte		N03   , En1 , v072
	.byte		N06   , An2 , v100
	.byte	W06
	.byte		N03   , Ds1 , v060
	.byte		N06   , Cn2 
	.byte	W06
	.byte		N03   , Ds1 , v032
	.byte		N06   , Gn2 , v100
	.byte	W06
	.byte		N03   , Ds1 , v072
	.byte		N06   , As1 , v100
	.byte	W06
	.byte		N03   , Ds1 , v040
	.byte	W03
	.byte	W03
	.byte		        Ds1 , v060
	.byte		N06   , As1 , v100
	.byte	W06
	.byte		N03   , Ds1 , v032
	.byte		N06   , As1 , v100
	.byte	W06
	.byte		N03   , Ds1 , v072
	.byte		N06   , An2 , v100
	.byte	W06
	.byte		N03   , Ds1 , v040
	.byte		N06   , Gn2 , v100
	.byte	W06
	.byte		N03   , Ds1 , v060
	.byte	W06
	.byte		        Ds1 , v032
	.byte		N06   , As1 , v100
	.byte	W06
	.byte		N03   , Ds1 , v072
	.byte		N06   , Cn2 , v060
	.byte	W06
	.byte		N03   , Ds1 , v040
	.byte		N06   , As1 , v100
	.byte	W06
	.byte		N03   , Ds1 , v060
	.byte	W06
	.byte		        Ds1 , v032
	.byte	W06
	.byte		        Ds1 , v072
	.byte	W06
	.byte		        En1 
	.byte	W06
	.byte		        Ds1 , v060
	.byte	W06
	.byte		        Ds1 , v032
	.byte	W06
	.byte		        Ds1 , v072
	.byte		N06   , Cn2 
	.byte	W06
	.byte		N03   , Ds1 , v040
	.byte		N06   , Cn2 
	.byte	W03
	.byte	W03
	.byte		N03   , Ds1 , v060
	.byte	W06
	.byte		        Ds1 , v032
	.byte		N06   , Cn2 , v060
	.byte	W06
	.byte	GOTO
	 .word	seq_000_3 + 0x121
	.byte	FINE

@*********************** Track 05 ***********************@

seq_000_4:
	.byte	KEYSH , seq_000_key+0
	.byte		VOICE , 21
	.byte	W01
	.byte		VOL   , 103*seq_000_mvl/mxv
	.byte	W01
	.byte		PAN   , c_v+0
	.byte	W01
	.byte		BEND  , c_v+0
	.byte	W92
	.byte	W01
	.byte	W96
	.byte	W96
	.byte	W96
	.byte	W15
	.byte	W80
	.byte	W01
	.byte	W96
	.byte	W96
	.byte	W96
	.byte	W96
	.byte	W96
	.byte	W96
	.byte	W96
	.byte	W96
	.byte	W96
	.byte	W96
	.byte	W96
	.byte	W15
	.byte		N30   , Cn3 , v080
	.byte	W48
	.byte		        Fn2 
	.byte	W32
	.byte	W01
	.byte	W15
	.byte		        Gn2 
	.byte	W48
	.byte		        Bn2 
	.byte	W32
	.byte	W01
	.byte	W15
	.byte		N48   , An2 
	.byte	W60
	.byte		N12   , Bn2 
	.byte	W18
	.byte		        Cn3 
	.byte	W03
	.byte	W15
	.byte		N72   , Dn3 
	.byte	W80
	.byte	W01
	.byte	W96
	.byte	W96
	.byte	W96
	.byte	W96
	.byte	W15
	.byte	GOTO
	 .word	seq_000_4 + 0x13
	.byte	FINE

@*********************** Track 06 ***********************@

seq_000_5:
	.byte	KEYSH , seq_000_key+0
	.byte		VOICE , 22
	.byte	W01
	.byte		VOL   , 94*seq_000_mvl/mxv
	.byte	W01
	.byte		PAN   , c_v+0
	.byte	W01
	.byte		BEND  , c_v+0
	.byte	W92
	.byte	W01
	.byte	W96
	.byte	W96
	.byte	W96
	.byte	W15
	.byte		VOL   , 94*seq_000_mvl/mxv
	.byte		BENDR , 12
	.byte		N42   , Dn4 , v080
	.byte	W42
	.byte		N03   , Cn4 
	.byte	W03
	.byte		        Cs4 
	.byte	W03
	.byte		N18   , Dn4 
	.byte	W18
	.byte		        Cs4 
	.byte	W15
	.byte	W03
	.byte		N12   , Cn4 , v080
	.byte	W12
	.byte		N48   , Bn3 
	.byte	W60
	.byte		N06   , An3 , v092
	.byte	W18
	.byte		        Fs3 
	.byte	W03
	.byte	PEND
	.byte	W15
	.byte		N18   , Gn3 , v080
	.byte	W18
	.byte		        An3 
	.byte	W18
	.byte		N12   , Bn3 
	.byte	W12
	.byte		N48   , En3 
	.byte	W32
	.byte	W01
	.byte	PEND
	.byte	W15
	.byte		N18   , Fs3 
	.byte	W18
	.byte		        Gn3 
	.byte	W18
	.byte		N12   , An3 
	.byte	W12
	.byte		N48   , Dn3 
	.byte	W32
	.byte	W01
	.byte	W03
	.byte		BEND  , c_v-1
	.byte	W01
	.byte		        c_v+6
	.byte	W02
	.byte		        c_v+14
	.byte	W01
	.byte		        c_v+22
	.byte	W02
	.byte		        c_v+29
	.byte	W01
	.byte		        c_v+37
	.byte	W02
	.byte		        c_v+45
	.byte	W01
	.byte		        c_v+53
	.byte	W02
	.byte		        c_v+0
	.byte		N42   , Dn4 
	.byte	W42
	.byte		N03   , Cn4 
	.byte	W03
	.byte		        Cs4 
	.byte	W03
	.byte		N18   , Dn4 
	.byte	W18
	.byte		        Cs4 
	.byte	W15
	.byte	PATT
	 .word	seq_000_5 + 0x25
	.byte	PATT
	 .word	seq_000_5 + 0x34
	.byte	W15
	.byte		N18   , Fs3 , v080
	.byte	W18
	.byte		        Gn3 
	.byte	W18
	.byte		N12   , An3 
	.byte	W12
	.byte		N18   , Bn3 
	.byte	W18
	.byte		        Cn4 
	.byte	W15
	.byte	W03
	.byte		N12   , Dn4 
	.byte	W12
	.byte		N72   , En4 
	.byte	W42
	.byte		VOL   , 103*seq_000_mvl/mxv
	.byte	W06
	.byte		        89*seq_000_mvl/mxv
	.byte	W06
	.byte		        71*seq_000_mvl/mxv
	.byte	W06
	.byte		        52*seq_000_mvl/mxv
	.byte	W06
	.byte		        34*seq_000_mvl/mxv
	.byte	W15
	.byte	W96
	.byte	W96
	.byte	W96
	.byte	W96
	.byte	W96
	.byte	W96
	.byte	W96
	.byte	W96
	.byte	W96
	.byte	W96
	.byte	W96
	.byte	W15
	.byte	GOTO
	 .word	seq_000_5 + 0x13
	.byte	FINE

@*********************** Track 07 ***********************@

seq_000_6:
	.byte	KEYSH , seq_000_key+0
	.byte		VOICE , 17
	.byte	W01
	.byte		VOL   , 66*seq_000_mvl/mxv
	.byte	W01
	.byte		PAN   , c_v+0
	.byte	W01
	.byte		BEND  , c_v+0
	.byte	W92
	.byte	W01
	.byte	W60
	.byte	W03
	.byte		PAN   , c_v-64
	.byte	W12
	.byte		N12   , Ds3 , v112
	.byte	W12
	.byte		N06   , Ds3 , v060
	.byte	W06
	.byte		PAN   , c_v+63
	.byte		N18   , Fn3 , v112
	.byte	W03
	.byte	W15
	.byte		N06   , Fn3 , v060
	.byte	W06
	.byte		        Fn3 , v040
	.byte	W72
	.byte	W03
	.byte	W15
	.byte		PAN   , c_v-64
	.byte	W12
	.byte		N12   , Fn3 , v112
	.byte	W12
	.byte		N06   , Fn3 , v060
	.byte	W06
	.byte		PAN   , c_v+63
	.byte		N18   , Fn3 , v112
	.byte	W18
	.byte		N06   , Fn3 , v060
	.byte	W06
	.byte		        Fn3 , v040
	.byte	W06
	.byte		        Fn3 , v020
	.byte	W21
	.byte	W15
	.byte	W80
	.byte	W01
	.byte	W96
	.byte	W96
	.byte	W96
	.byte	W96
	.byte	W96
	.byte	W96
	.byte	W96
	.byte	W96
	.byte	W96
	.byte	W96
	.byte	W96
	.byte	W96
	.byte	W96
	.byte	W96
	.byte	W96
	.byte	W96
	.byte	W96
	.byte	W96
	.byte	W21
	.byte		PAN   , c_v-64
	.byte	W03
	.byte		N12   , Fn3 , v112
	.byte	W12
	.byte		N06   , Fn3 , v060
	.byte	W06
	.byte		PAN   , c_v+63
	.byte		N18   , Fn3 , v112
	.byte	W18
	.byte		N06   , Fn3 , v060
	.byte	W06
	.byte		        Fn3 , v032
	.byte	W06
	.byte		        Fn3 , v020
	.byte	W24
	.byte	W15
	.byte	GOTO
	 .word	seq_000_6 + 0x48
	.byte	FINE

@******************************************************@

	.align	2

seq_000:
	.byte	7	@ NumTrks
	.byte	0	@ NumBlks
	.byte	seq_000_pri	@ Priority
	.byte	seq_000_rev	@ Reverb

	.word	seq_000_grp

	.word	seq_000_0
	.word	seq_000_1
	.word	seq_000_2
	.word	seq_000_3
	.word	seq_000_4
	.word	seq_000_5
	.word	seq_000_6

	.end
