@ File generated by m4a2s Song-Module
	.include "MPlayDef.s"

	.equ	seq_000_grp, bank_000
	.equ	seq_000_pri, 20
	.equ	seq_000_rev, 163
	.equ	seq_000_mvl, 127
	.equ	seq_000_key, 0

	.section .rodata
	.global	seq_000
	.align	2

@*********************** Track 01 ***********************@

seq_000_0:
	.byte	KEYSH , seq_000_key+0
	.byte	TEMPO , 152/2
	.byte	W01
	.byte		VOICE , 2
	.byte	W01
	.byte		VOL   , 103*seq_000_mvl/mxv
	.byte	W01
	.byte		PAN   , c_v+0
	.byte	W01
	.byte		BEND  , c_v+0
	.byte	W01
	.byte		LFOS  , 28
	.byte	W01
	.byte		LFODL , 14
	.byte	W01
	.byte		MODT  , mod_vib
	.byte	W01
	.byte		MOD   , 7
	.byte	W01
	.byte	W01
	.byte		XCMD  , xIECV , 40
	.byte	W01
	.byte	W01
	.byte		        xIECL , 3
	.byte	W84
	.byte	W96
	.byte	W96
	.byte	W60
	.byte	W03
	.byte		PAN   , c_v+63
	.byte		N06   , Ds5 , v092
	.byte	W06
	.byte		        Cn5 
	.byte	W06
	.byte		        As4 
	.byte	W06
	.byte		        Gn4 
	.byte	W06
	.byte		PAN   , c_v-64
	.byte		N06   , Ds4 
	.byte	W06
	.byte		        Cn4 
	.byte	W03
	.byte	W03
	.byte		        As3 
	.byte	W06
	.byte		        Gn3 
	.byte	W06
	.byte		N06   , Fn3 , v092
	.byte	W12
	.byte		        Gs2 
	.byte	W06
	.byte		        Gn3 
	.byte	W12
	.byte		        Gs2 
	.byte	W06
	.byte		        Gs3 
	.byte	W06
	.byte		        Ds3 
	.byte	W06
	.byte		PAN   , c_v+63
	.byte		N06   , Fn1 , v100
	.byte	W06
	.byte		        Fn2 
	.byte	W06
	.byte		        Gs2 
	.byte	W06
	.byte		        Cn3 
	.byte	W06
	.byte		PAN   , c_v-64
	.byte		N06   , Ds3 , v080
	.byte	W06
	.byte		        Gn3 
	.byte	W03
	.byte	W03
	.byte		N06   , Cn4 , v080
	.byte	W06
	.byte		        Ds4 
	.byte	W06
	.byte		PAN   , c_v+0
	.byte		N06   , As2 , v092
	.byte	W12
	.byte		        Cn2 
	.byte	W06
	.byte		        Bn2 
	.byte	W12
	.byte		        Cn2 
	.byte	W06
	.byte		        Cn3 
	.byte	W06
	.byte		        Fs2 
	.byte	W06
	.byte		PAN   , c_v-64
	.byte	W06
	.byte		N06   , Fn2 , v100
	.byte	W06
	.byte		        Cn5 , v080
	.byte	W06
	.byte		        Cn3 , v100
	.byte	W06
	.byte		PAN   , c_v+63
	.byte		N06   , Ds3 , v080
	.byte	W06
	.byte		        As4 
	.byte	W03
	.byte	PEND
	.byte	W03
	.byte		        Cn4 
	.byte	W06
	.byte		        Ds4 
	.byte	W06
	.byte		PAN   , c_v-64
	.byte		N06   , Fn4 
	.byte	W12
	.byte		        Cn4 
	.byte	W06
	.byte		        Gn4 
	.byte	W12
	.byte		        Cn4 
	.byte	W06
	.byte		        Gs4 
	.byte	W12
	.byte		PAN   , c_v+63
	.byte		N06   , Fn1 , v100
	.byte	W06
	.byte		        Fn2 
	.byte	W06
	.byte		        Gs2 
	.byte	W06
	.byte		        Cn3 
	.byte	W06
	.byte		PAN   , c_v-64
	.byte		N06   , Ds3 
	.byte	W06
	.byte		        Gn3 , v080
	.byte	W03
	.byte	W03
	.byte		        Cn4 
	.byte	W06
	.byte		        Ds4 
	.byte	W05
	.byte		PAN   , c_v+63
	.byte	W01
	.byte		N06   , Gn4 , v092
	.byte	W06
	.byte		        Ds4 
	.byte	W06
	.byte		        As3 
	.byte	W06
	.byte		        Gn3 
	.byte	W05
	.byte		PAN   , c_v-64
	.byte	W01
	.byte		N06   , Ds4 
	.byte	W06
	.byte		        As3 
	.byte	W06
	.byte		        Gn3 
	.byte	W06
	.byte		        Ds3 
	.byte	W06
	.byte		        As2 
	.byte	W06
	.byte		        Dn4 , v080
	.byte	W05
	.byte		PAN   , c_v+0
	.byte	W01
	.byte		N06   , Gn4 
	.byte	W18
	.byte		        Gs4 
	.byte	W03
	.byte	W15
	.byte		        Fn3 , v092
	.byte	W12
	.byte		        Gs2 
	.byte	W06
	.byte		        Gn3 
	.byte	W12
	.byte		        Gs2 
	.byte	W06
	.byte		        Gs3 
	.byte	W06
	.byte		        Ds3 
	.byte	W06
	.byte		PAN   , c_v+63
	.byte		N06   , Fn1 , v100
	.byte	W06
	.byte		        Fn2 
	.byte	W06
	.byte		        Gs2 
	.byte	W06
	.byte		        Cn3 
	.byte	W06
	.byte		PAN   , c_v-64
	.byte		N06   , Ds3 , v080
	.byte	W06
	.byte		        Gn3 
	.byte	W03
	.byte	PATT
	 .word	seq_000_0 + 0x64
	.byte	W03
	.byte		N06   , Cn4 , v080
	.byte	W06
	.byte		        Ds4 
	.byte	W06
	.byte		PAN   , c_v-64
	.byte		N06   , Fn4 
	.byte	W12
	.byte		        Cn4 
	.byte	W06
	.byte		        Gn4 
	.byte	W05
	.byte		PAN   , c_v-64
	.byte	W07
	.byte		N06   , Cn4 
	.byte	W06
	.byte		        Gs4 
	.byte	W12
	.byte		PAN   , c_v+63
	.byte		N06   , Fn1 , v100
	.byte	W06
	.byte		        Fn2 
	.byte	W06
	.byte		        Gs2 
	.byte	W06
	.byte		        Cn3 
	.byte	W06
	.byte		PAN   , c_v-64
	.byte		N06   , Ds3 
	.byte	W06
	.byte		        Gn3 , v080
	.byte	W03
	.byte	W03
	.byte		        Cn4 
	.byte	W06
	.byte		        Ds4 
	.byte	W05
	.byte		PAN   , c_v+63
	.byte	W01
	.byte		N06   , Gn4 , v092
	.byte	W06
	.byte		        Ds4 
	.byte	W06
	.byte		        As3 
	.byte	W06
	.byte		        Gn3 
	.byte	W06
	.byte		        Ds4 
	.byte	W06
	.byte		        As3 
	.byte	W06
	.byte		        Gn3 
	.byte	W06
	.byte		        Ds3 
	.byte	W06
	.byte		        As2 
	.byte	W06
	.byte		        Dn4 , v080
	.byte	W05
	.byte		PAN   , c_v+0
	.byte	W01
	.byte		N12   , As4 
	.byte	W18
	.byte		        An4 
	.byte	W03
	.byte	W15
	.byte		N06   , Ds3 
	.byte	W12
	.byte		        Ds3 , v040
	.byte	W06
	.byte		        Ds3 , v080
	.byte	W30
	.byte		PAN   , c_v+63
	.byte		N06   , Ds4 , v072
	.byte	W06
	.byte		        As3 
	.byte	W06
	.byte		        Gn3 
	.byte	W06
	.byte		        Ds3 
	.byte	W06
	.byte		PAN   , c_v-64
	.byte		N06   , Cs4 
	.byte	W06
	.byte		        Gs3 
	.byte	W03
	.byte	W03
	.byte		        Fn3 
	.byte	W06
	.byte		        Cs3 
	.byte	W06
	.byte		VOICE , 57
	.byte		PAN   , c_v+0
	.byte	W12
	.byte		N12   , As3 
	.byte	W12
	.byte		        As3 , v040
	.byte	W12
	.byte		        Fn4 , v072
	.byte	W12
	.byte		PAN   , c_v-64
	.byte		N12   , Fn4 , v040
	.byte	W12
	.byte		        Ds4 , v072
	.byte	W12
	.byte		PAN   , c_v+63
	.byte		N12   , Ds4 , v040
	.byte	W09
	.byte	W03
	.byte		        Cs4 , v072
	.byte	W12
	.byte		VOICE , 2
	.byte		PAN   , c_v-64
	.byte		N03   , Fn2 , v100
	.byte	W03
	.byte		        Fn2 , v052
	.byte	W03
	.byte		        Fn2 , v100
	.byte	W03
	.byte		        Fn2 , v052
	.byte	W03
	.byte		        Cn3 , v100
	.byte	W03
	.byte		        Cn3 , v052
	.byte	W03
	.byte		        Ds3 , v100
	.byte	W03
	.byte		        Ds3 , v052
	.byte	W03
	.byte		PAN   , c_v+63
	.byte		N03   , Gn3 , v100
	.byte	W03
	.byte		        Gn3 , v052
	.byte	W03
	.byte		        Ds3 , v100
	.byte	W03
	.byte		        Ds3 , v052
	.byte	W03
	.byte		        Cn3 , v100
	.byte	W03
	.byte		        Cn3 , v052
	.byte	W03
	.byte		        As2 , v100
	.byte	W03
	.byte		        As2 , v052
	.byte	W03
	.byte		PAN   , c_v-64
	.byte		N03   , Fn2 , v100
	.byte	W03
	.byte		        Fn2 , v052
	.byte	W03
	.byte		        Fn2 , v100
	.byte	W03
	.byte		        Fn2 , v052
	.byte	W03
	.byte		        Cn3 , v100
	.byte	W03
	.byte		        Cn3 , v052
	.byte	W03
	.byte		        Ds3 , v100
	.byte	W03
	.byte		        Ds3 , v052
	.byte	W03
	.byte		PAN   , c_v+63
	.byte		N03   , Gn3 , v100
	.byte	W03
	.byte		        Gn3 , v052
	.byte	W03
	.byte		        Ds3 , v100
	.byte	W03
	.byte		        Ds3 , v052
	.byte	W03
	.byte		        Cn3 , v100
	.byte	W03
	.byte		        Cn3 , v052
	.byte	W03
	.byte		        As2 , v100
	.byte	W03
	.byte		        As2 , v052
	.byte	W03
	.byte		PAN   , c_v-64
	.byte		N03   , Fn2 , v100
	.byte	W03
	.byte		        Fn2 , v052
	.byte	W03
	.byte		        Fn2 , v100
	.byte	W03
	.byte		        Fn2 , v052
	.byte	W03
	.byte		        Cn3 , v100
	.byte	W03
	.byte		        Cn3 , v060
	.byte	W03
	.byte		        Ds3 , v100
	.byte	W03
	.byte		        Ds3 , v052
	.byte	W03
	.byte		PAN   , c_v+63
	.byte		N03   , Gn3 , v100
	.byte	W03
	.byte		        Gn3 , v052
	.byte	W03
	.byte		        Ds3 , v100
	.byte	W03
	.byte		        Ds3 , v052
	.byte	W03
	.byte		        Cn3 , v100
	.byte	W03
	.byte		        Cn3 , v052
	.byte	W03
	.byte		        As2 , v100
	.byte	W03
	.byte		        As2 , v052
	.byte	W03
	.byte		PAN   , c_v-64
	.byte		N03   , Fn2 , v100
	.byte	W03
	.byte		        Fn2 , v052
	.byte	W03
	.byte		        Fn2 , v100
	.byte	W03
	.byte		        Fn2 , v052
	.byte	W03
	.byte		        Cn3 , v100
	.byte	W03
	.byte		        Cn3 , v052
	.byte	W03
	.byte		        Ds3 , v100
	.byte	W03
	.byte		        Ds3 , v052
	.byte	W03
	.byte		PAN   , c_v+63
	.byte		N03   , Gn3 , v100
	.byte	W03
	.byte		        Gn3 , v052
	.byte	W03
	.byte		        Ds3 , v100
	.byte	W03
	.byte		        Ds3 , v052
	.byte	W03
	.byte		        Cn3 , v100
	.byte	W03
	.byte		        Cn3 , v052
	.byte	W03
	.byte		        As2 , v100
	.byte	W03
	.byte		        As2 , v052
	.byte	W02
	.byte		PAN   , c_v-64
	.byte	W01
	.byte		N06   , Dn3 , v100
	.byte	W06
	.byte		        Dn3 , v072
	.byte	W06
	.byte		        Fn3 , v100
	.byte	W06
	.byte		        Fn3 , v072
	.byte	W06
	.byte		        Gs3 , v100
	.byte	W06
	.byte		        Gs3 , v072
	.byte	W06
	.byte		        As3 , v100
	.byte	W12
	.byte		PAN   , c_v+63
	.byte		N06   , As3 , v072
	.byte	W12
	.byte		        Gs3 , v100
	.byte	W12
	.byte		        As3 
	.byte	W06
	.byte		        Fn3 
	.byte	W03
	.byte	W03
	.byte		        Dn3 
	.byte	W06
	.byte		        As2 
	.byte	W06
	.byte		PAN   , c_v-64
	.byte		N06   , Cs3 
	.byte	W06
	.byte		        Cs3 , v072
	.byte	W06
	.byte		        Fn3 , v100
	.byte	W06
	.byte		        Fn3 , v072
	.byte	W06
	.byte		        Gs3 , v100
	.byte	W06
	.byte		        Gs3 , v072
	.byte	W06
	.byte		        As3 , v100
	.byte	W12
	.byte		PAN   , c_v+63
	.byte		N06   , As3 , v072
	.byte	W12
	.byte		        Fs3 , v100
	.byte	W12
	.byte		        As3 
	.byte	W06
	.byte		        Fs3 
	.byte	W03
	.byte	W03
	.byte		        Cs3 
	.byte	W06
	.byte		        As2 
	.byte	W05
	.byte		PAN   , c_v-64
	.byte	W01
	.byte		N03   , Fn3 
	.byte	W03
	.byte		        Fn3 , v052
	.byte	W03
	.byte		        Cn3 , v100
	.byte	W03
	.byte		        Cn3 , v052
	.byte	W03
	.byte		        As2 , v100
	.byte	W03
	.byte		        As2 , v052
	.byte	W03
	.byte		        Cn3 , v100
	.byte	W03
	.byte		        Cn3 , v052
	.byte	W03
	.byte		PAN   , c_v+63
	.byte		N03   , Fn3 , v100
	.byte	W03
	.byte		        Fn3 , v052
	.byte	W03
	.byte		        Cn3 , v100
	.byte	W03
	.byte		        Cn3 , v052
	.byte	W03
	.byte		        As2 , v100
	.byte	W03
	.byte		        As2 , v052
	.byte	W03
	.byte		        Cn3 , v100
	.byte	W03
	.byte		        Cn3 , v052
	.byte	W03
	.byte		PAN   , c_v-64
	.byte		N03   , Fn3 , v100
	.byte	W03
	.byte		        Fn3 , v052
	.byte	W03
	.byte		        Cn3 , v100
	.byte	W03
	.byte		        Cn3 , v052
	.byte	W03
	.byte		        As2 , v100
	.byte	W03
	.byte		        As2 , v052
	.byte	W03
	.byte		        Cn3 , v100
	.byte	W03
	.byte		        Cn3 , v052
	.byte	W03
	.byte		PAN   , c_v+63
	.byte		N03   , Fn3 , v100
	.byte	W03
	.byte		        Fn3 , v052
	.byte	W03
	.byte		        Cn3 , v100
	.byte	W03
	.byte		        Cn3 , v052
	.byte	W03
	.byte		        As2 , v100
	.byte	W03
	.byte		        As2 , v052
	.byte	W03
	.byte		        Cn3 , v100
	.byte	W03
	.byte		        Cn3 , v052
	.byte	W03
	.byte		PAN   , c_v-64
	.byte		N03   , Fn3 , v100
	.byte	W03
	.byte		        Fn3 , v052
	.byte	W03
	.byte		        Cn3 , v100
	.byte	W03
	.byte		        Cn3 , v052
	.byte	W03
	.byte		        As2 , v100
	.byte	W03
	.byte		        As2 , v052
	.byte	W03
	.byte		        Cn3 , v100
	.byte	W03
	.byte		        Cn3 , v052
	.byte	W03
	.byte		PAN   , c_v+63
	.byte		N03   , Fn3 , v100
	.byte	W03
	.byte		        Fn3 , v052
	.byte	W03
	.byte		        Cn3 , v100
	.byte	W03
	.byte		        Cn3 , v052
	.byte	W03
	.byte		        As2 , v100
	.byte	W03
	.byte		        As2 , v052
	.byte	W03
	.byte		        Cn3 , v100
	.byte	W03
	.byte		        Cn3 , v052
	.byte	W03
	.byte		PAN   , c_v-64
	.byte		N03   , Fn3 , v100
	.byte	W03
	.byte		        Fn3 , v052
	.byte	W03
	.byte		        Cn3 , v100
	.byte	W03
	.byte		        Cn3 , v052
	.byte	W03
	.byte		        As2 , v100
	.byte	W03
	.byte		        As2 , v052
	.byte	W03
	.byte		        Cn3 , v100
	.byte	W03
	.byte		        Cn3 , v052
	.byte	W03
	.byte		PAN   , c_v+63
	.byte		N03   , Fn3 , v100
	.byte	W03
	.byte		        Fn3 , v052
	.byte	W03
	.byte		        Cn3 , v100
	.byte	W03
	.byte		        Cn3 , v052
	.byte	W03
	.byte		        As2 , v100
	.byte	W03
	.byte		        As2 , v052
	.byte	W03
	.byte		        Cn3 , v100
	.byte	W03
	.byte		        Cn3 , v052
	.byte	W84
	.byte	W96
	.byte	W96
	.byte	W96
	.byte	W15
	.byte	GOTO
	 .word	seq_000_0 + 0x42
	.byte	FINE

@*********************** Track 02 ***********************@

seq_000_1:
	.byte	KEYSH , seq_000_key+0
	.byte	W01
	.byte		VOICE , 7
	.byte	W01
	.byte		VOL   , 94*seq_000_mvl/mxv
	.byte	W01
	.byte		PAN   , c_v+0
	.byte	W01
	.byte		BEND  , c_v+0
	.byte	W01
	.byte		LFOS  , 28
	.byte	W01
	.byte		LFODL , 14
	.byte	W01
	.byte		MODT  , mod_vib
	.byte	W01
	.byte		MOD   , 5
	.byte	W01
	.byte	W01
	.byte		XCMD  , xIECV , 40
	.byte	W01
	.byte	W01
	.byte		        xIECL , 4
	.byte	W84
	.byte	W96
	.byte	W96
	.byte	W96
	.byte	W15
	.byte		N06   , Gs3 , v120
	.byte	W12
	.byte		        Fn3 
	.byte	W06
	.byte		        As3 
	.byte	W12
	.byte		        Fn3 
	.byte	W06
	.byte		        Bn3 
	.byte	W24
	.byte		        Bn3 , v052
	.byte	W21
	.byte	W15
	.byte		N06   , Ds3 , v120
	.byte	W12
	.byte		        Bn2 
	.byte	W06
	.byte		        En3 
	.byte	W12
	.byte		        Bn2 
	.byte	W06
	.byte		        Fn3 
	.byte	W24
	.byte		        Fn3 , v052
	.byte	W12
	.byte		        Ds4 , v120
	.byte	W09
	.byte	PEND
	.byte	W03
	.byte		        Dn4 
	.byte	W12
	.byte		N18   , Cs4 
	.byte	W36
	.byte		N60   , Cn4 
	.byte	W44
	.byte	W01
	.byte	W72
	.byte	W03
	.byte		N12   , Ds4 
	.byte	W18
	.byte		        Fn4 
	.byte	W03
	.byte	W15
	.byte		N06   , Gs3 
	.byte	W12
	.byte		        Fn3 
	.byte	W06
	.byte		        As3 
	.byte	W12
	.byte		        Fn3 
	.byte	W06
	.byte		        Bn3 
	.byte	W24
	.byte		        Bn3 , v052
	.byte	W21
	.byte	PATT
	 .word	seq_000_1 + 0x37
	.byte	W03
	.byte		N06   , Dn4 , v120
	.byte	W12
	.byte		        Cs4 
	.byte	W06
	.byte		        Cs4 , v052
	.byte	W06
	.byte		        Fn3 , v120
	.byte	W06
	.byte		N12   , As3 
	.byte	W12
	.byte		N06   , As3 , v052
	.byte	W06
	.byte		N36   , Cn4 , v120
	.byte	W44
	.byte	W01
	.byte	W03
	.byte		N06   , As3 
	.byte	W06
	.byte		        An3 
	.byte	W06
	.byte		N12   , Gs3 
	.byte	W12
	.byte		N06   , Gs3 , v052
	.byte	W06
	.byte		N12   , Ds3 , v120
	.byte	W12
	.byte		N06   , Ds3 , v052
	.byte	W06
	.byte		N12   , Fn3 , v120
	.byte	W12
	.byte		N06   , Fn3 , v052
	.byte	W12
	.byte		N12   , Ds5 , v120
	.byte	W18
	.byte		        Dn5 
	.byte	W03
	.byte	W15
	.byte		VOICE , 8
	.byte		N06   , Gs3 , v100
	.byte	W12
	.byte		        Gs3 , v040
	.byte	W06
	.byte		        Gs3 , v100
	.byte	W18
	.byte		        Gs3 , v040
	.byte	W12
	.byte		        Gn4 , v072
	.byte	W06
	.byte		        Ds4 
	.byte	W06
	.byte		        As3 
	.byte	W06
	.byte		        Gn3 
	.byte	W06
	.byte		        Fn4 
	.byte	W06
	.byte		        Cn4 
	.byte	W03
	.byte	W03
	.byte		        Gs3 
	.byte	W06
	.byte		        Fn3 
	.byte	W06
	.byte		PAN   , c_v-64
	.byte		N06   , As4 
	.byte	W06
	.byte		        Fs4 
	.byte	W06
	.byte		        Cs4 
	.byte	W06
	.byte		        As3 
	.byte	W06
	.byte		PAN   , c_v+63
	.byte		N06   , Fs3 
	.byte	W12
	.byte		        Gs4 
	.byte	W06
	.byte		        Fs4 
	.byte	W06
	.byte		PAN   , c_v-64
	.byte		N06   , Ds4 
	.byte	W06
	.byte		        As3 
	.byte	W06
	.byte		        Fs3 
	.byte	W12
	.byte		PAN   , c_v+63
	.byte	W09
	.byte	W09
	.byte		N06   , Cs3 
	.byte	W06
	.byte		N42   , Fn3 , v080
	.byte	W42
	.byte		N06   , Fn3 , v040
	.byte	W06
	.byte		N24   , Gn3 , v080
	.byte	W24
	.byte		        As3 
	.byte	W09
	.byte	W15
	.byte		N12   , As3 , v040
	.byte	W12
	.byte		        Gs3 , v080
	.byte	W12
	.byte		        Gn3 
	.byte	W12
	.byte		N36   , Ds3 
	.byte	W36
	.byte		N12   , Ds3 , v040
	.byte	W09
	.byte	W14
	.byte		PAN   , c_v+0
	.byte	W01
	.byte		VOICE , 7
	.byte		N12   , Cn5 , v092
	.byte	W12
	.byte		        As4 
	.byte	W12
	.byte		        Fn4 
	.byte	W12
	.byte		N36   , As4 
	.byte	W44
	.byte	W01
	.byte	W03
	.byte		N12   , As4 , v040
	.byte	W12
	.byte		        As4 , v092
	.byte	W12
	.byte		        Gs4 
	.byte	W12
	.byte		        Cs4 
	.byte	W12
	.byte		N36   , Fs4 
	.byte	W36
	.byte		N24   , Ds4 
	.byte	W09
	.byte	W15
	.byte		N96   , Fn4 
	.byte	W80
	.byte	W01
	.byte	W24
	.byte	W03
	.byte		N12   , Fn4 , v040
	.byte	W68
	.byte	W01
	.byte	W96
	.byte	W96
	.byte	W96
	.byte	W96
	.byte	W15
	.byte	GOTO
	 .word	seq_000_1 + 0x28
	.byte	FINE

@*********************** Track 03 ***********************@

seq_000_2:
	.byte	KEYSH , seq_000_key+0
	.byte	W01
	.byte		VOICE , 16
	.byte	W01
	.byte		VOL   , 113*seq_000_mvl/mxv
	.byte	W01
	.byte		PAN   , c_v+0
	.byte	W01
	.byte		BEND  , c_v+0
	.byte	W01
	.byte		LFOS  , 28
	.byte	W01
	.byte		LFODL , 14
	.byte	W01
	.byte		MODT  , mod_vib
	.byte	W01
	.byte		MOD   , 10
	.byte	W01
	.byte	W01
	.byte		XCMD  , xIECV , 30
	.byte	W01
	.byte	W01
	.byte		        xIECL , 3
	.byte	W03
	.byte		N06   , Cn2 , v120
	.byte	W12
	.byte		N06
	.byte	W18
	.byte		        Cn2 , v060
	.byte	W48
	.byte	W03
	.byte	W84
	.byte	W03
	.byte		N24   , Cs2 , v120
	.byte	W09
	.byte	W15
	.byte		N06   , Cn2 
	.byte	W12
	.byte		N06
	.byte	W18
	.byte		        Cn2 , v060
	.byte	W48
	.byte	W03
	.byte	W84
	.byte	W03
	.byte		        Cs2 , v120
	.byte	W09
	.byte	W03
	.byte		N06
	.byte	W06
	.byte		        Ds2 
	.byte	W06
	.byte		PAN   , c_v+0
	.byte		N06   , Ds2 , v120
	.byte	W06
	.byte		        Fn2 
	.byte	W12
	.byte		N06
	.byte	W06
	.byte		        Ds2 
	.byte	W06
	.byte		        Fn2 
	.byte	W12
	.byte		N06
	.byte	W06
	.byte		N12   , Fn1 
	.byte	W12
	.byte		N06   , As2 
	.byte	W12
	.byte		        Gs2 
	.byte	W09
	.byte	W03
	.byte		N06   , Ds2 , v120
	.byte	W12
	.byte		N06
	.byte	W06
	.byte		        Fn2 
	.byte	W12
	.byte		N06
	.byte	W06
	.byte		        Ds2 
	.byte	W06
	.byte		        Fn2 
	.byte	W12
	.byte		N06
	.byte	W06
	.byte		N12   , Fn1 
	.byte	W12
	.byte		N06   , As2 
	.byte	W12
	.byte		        Gs2 
	.byte	W09
	.byte	PEND
	.byte	W03
	.byte		N06   , Ds2 , v120
	.byte	W12
	.byte		N06
	.byte	W06
	.byte		        Fn2 
	.byte	W12
	.byte		N06
	.byte	W06
	.byte		        Ds2 
	.byte	W12
	.byte		        Fn2 
	.byte	W06
	.byte		        Ds2 
	.byte	W06
	.byte		N12   , Fn1 
	.byte	W12
	.byte		N06   , As2 
	.byte	W12
	.byte		        Gs2 
	.byte	W09
	.byte	PEND
	.byte	W03
	.byte		        Ds2 
	.byte	W12
	.byte		N06
	.byte	W06
	.byte		        Fn2 
	.byte	W12
	.byte		N06
	.byte	W06
	.byte		        Ds2 
	.byte	W06
	.byte		        Fn2 
	.byte	W12
	.byte		N06
	.byte	W18
	.byte		        Bn2 
	.byte	W12
	.byte		        Bn1 
	.byte	W06
	.byte		N12   , Bn2 
	.byte	W03
	.byte	W15
	.byte		N06   , Ds2 
	.byte	W06
	.byte		        Fn2 
	.byte	W12
	.byte		N06
	.byte	W06
	.byte		        Ds2 
	.byte	W06
	.byte		        Fn2 
	.byte	W12
	.byte		N06
	.byte	W06
	.byte		N12   , Fn1 
	.byte	W12
	.byte		N06   , As2 
	.byte	W12
	.byte		        Gs2 
	.byte	W09
	.byte	PATT
	 .word	seq_000_2 + 0x60
	.byte	PATT
	 .word	seq_000_2 + 0x7A
	.byte	W03
	.byte		N06   , Ds2 , v120
	.byte	W12
	.byte		N06
	.byte	W06
	.byte		        Fn2 
	.byte	W12
	.byte		N06
	.byte	W06
	.byte		        Ds2 
	.byte	W06
	.byte		        Fn2 
	.byte	W12
	.byte		N06
	.byte	W18
	.byte		N06
	.byte	W12
	.byte		        Bn1 
	.byte	W06
	.byte		N12   , Fn2 
	.byte	W03
	.byte	W15
	.byte		N06   , Gs2 
	.byte	W12
	.byte		        Gs3 
	.byte	W06
	.byte		N30   , Gs2 
	.byte	W42
	.byte		N06   , Gs2 , v060
	.byte	W12
	.byte		        Gs2 , v120
	.byte	W09
	.byte	W03
	.byte		        Fn2 
	.byte	W12
	.byte		        As2 
	.byte	W06
	.byte		        As3 
	.byte	W06
	.byte		        As2 
	.byte	W06
	.byte		        Fs2 
	.byte	W06
	.byte		        As2 
	.byte	W12
	.byte		        As3 
	.byte	W06
	.byte		        As2 
	.byte	W06
	.byte		        Fs2 
	.byte	W06
	.byte		        Cs2 
	.byte	W06
	.byte		        As2 
	.byte	W12
	.byte		N12   , Gs2 
	.byte	W09
	.byte	W03
	.byte		        Fs2 
	.byte	W12
	.byte		        Fn2 
	.byte	W18
	.byte		N06   , Fn2 , v072
	.byte	W06
	.byte		        Fn2 , v120
	.byte	W06
	.byte		        Fs2 
	.byte	W12
	.byte		        Fn2 
	.byte	W12
	.byte		        Fn2 , v060
	.byte	W06
	.byte		        Fn2 , v120
	.byte	W12
	.byte		        Fn2 , v060
	.byte	W06
	.byte		        Fn3 , v120
	.byte	W03
	.byte	W03
	.byte		        Ds3 
	.byte	W06
	.byte		        Cn3 
	.byte	W06
	.byte		N12   , Fn2 
	.byte	W18
	.byte		N06
	.byte	W12
	.byte		        Fs2 
	.byte	W12
	.byte		        Fn2 
	.byte	W12
	.byte		        Fn2 , v060
	.byte	W06
	.byte		        Fn2 , v120
	.byte	W12
	.byte		        Fn2 , v060
	.byte	W06
	.byte		        Fn3 , v120
	.byte	W03
	.byte	W03
	.byte		        Ds3 
	.byte	W06
	.byte		        Cn3 
	.byte	W06
	.byte		N12   , Gn2 
	.byte	W18
	.byte		        As2 
	.byte	W18
	.byte		        Gn2 
	.byte	W12
	.byte		N06   , Gn1 
	.byte	W06
	.byte		        Gn3 
	.byte	W06
	.byte		        Gn3 , v060
	.byte	W06
	.byte		        Gn2 , v120
	.byte	W06
	.byte		        Gn3 
	.byte	W09
	.byte	W03
	.byte		N12   , Gn2 
	.byte	W12
	.byte		        Fs2 
	.byte	W18
	.byte		        As2 
	.byte	W18
	.byte		        Fs2 
	.byte	W12
	.byte		N06   , Fs1 
	.byte	W06
	.byte		        Fs3 
	.byte	W06
	.byte		        Fs3 , v060
	.byte	W06
	.byte		        Fs2 , v120
	.byte	W06
	.byte		        Fs3 
	.byte	W09
	.byte	W03
	.byte		N12   , Gs2 
	.byte	W12
	.byte		N48   , Cs2 
	.byte	W66
	.byte		N12   , Cs2 , v060
	.byte	W15
	.byte	W15
	.byte		        Cs3 , v120
	.byte	W18
	.byte		        Cn3 
	.byte	W18
	.byte		        As2 
	.byte	W12
	.byte		N06   , Gs1 
	.byte	W12
	.byte		        Gs2 
	.byte	W06
	.byte		        Gn2 
	.byte	W15
	.byte	W03
	.byte		        Ds2 
	.byte	W12
	.byte		        Fn2 
	.byte	W12
	.byte		N06
	.byte	W12
	.byte		N06
	.byte	W06
	.byte		        Ds2 
	.byte	W06
	.byte		        Fn2 
	.byte	W06
	.byte		        Gs2 
	.byte	W12
	.byte		        Gs2 , v072
	.byte	W06
	.byte		        Fn2 , v120
	.byte	W06
	.byte		        Ds2 
	.byte	W12
	.byte		        Fn2 
	.byte	W03
	.byte	W03
	.byte		        Gs2 
	.byte	W12
	.byte		        Ds2 
	.byte	W06
	.byte		        En2 
	.byte	W06
	.byte		        Fn2 
	.byte	W06
	.byte		        Gs2 
	.byte	W06
	.byte		        Fn1 
	.byte	W12
	.byte		        Ds2 
	.byte	W06
	.byte		        Fn2 
	.byte	W06
	.byte		        Bn1 
	.byte	W06
	.byte		        Bn2 
	.byte	W12
	.byte		N12
	.byte	W15
	.byte	W03
	.byte		N06   , Bn1 
	.byte	W12
	.byte		        Fn2 
	.byte	W12
	.byte		N06
	.byte	W06
	.byte		        Ds2 
	.byte	W06
	.byte		        Fn2 
	.byte	W06
	.byte		        Gs2 
	.byte	W12
	.byte		        Gs1 
	.byte	W06
	.byte		        Fn2 
	.byte	W12
	.byte		N06
	.byte	W06
	.byte		        Ds2 
	.byte	W12
	.byte		        Fn2 
	.byte	W03
	.byte	W03
	.byte		        Gs2 
	.byte	W06
	.byte		        Fn1 
	.byte	W06
	.byte		        Fn2 
	.byte	W06
	.byte		        Ds2 
	.byte	W06
	.byte		        Fn2 
	.byte	W06
	.byte		        Gs2 
	.byte	W06
	.byte		        Bn1 
	.byte	W12
	.byte		        Bn2 
	.byte	W12
	.byte		        Bn2 , v072
	.byte	W06
	.byte		PAN   , c_v+63
	.byte	W06
	.byte		N06   , Bn1 , v120
	.byte	W06
	.byte		        Bn2 
	.byte	W12
	.byte		PAN   , c_v-64
	.byte	W03
	.byte	W03
	.byte		N06
	.byte	W12
	.byte	GOTO
	 .word	seq_000_2 + 0x48
	.byte	FINE

@*********************** Track 04 ***********************@

seq_000_3:
	.byte	KEYSH , seq_000_key+0
	.byte		VOICE , 0
	.byte	W02
	.byte		VOL   , 85*seq_000_mvl/mxv
	.byte	W01
	.byte		PAN   , c_v+0
	.byte	W01
	.byte		BEND  , c_v+0
	.byte	W11
	.byte		N06   , Dn1 , v052
	.byte		N09   , An1 , v072
	.byte	W09
	.byte		N03   , Fs1 , v060
	.byte	W03
	.byte		N06   , Dn1 , v052
	.byte		N09   , An1 , v072
	.byte	W18
	.byte		N03   , Fs1 , v060
	.byte	W06
	.byte		        Fs1 , v052
	.byte	W06
	.byte		        Fs1 , v040
	.byte	W06
	.byte		        Gn1 , v072
	.byte	W06
	.byte		        Fs1 , v060
	.byte	W06
	.byte		        Fs1 , v052
	.byte	W06
	.byte		        Fs1 , v040
	.byte	W06
	.byte		        Gn1 , v072
	.byte	W06
	.byte		        Fs1 , v060
	.byte	W03
	.byte	W03
	.byte		        Fs1 , v052
	.byte	W06
	.byte		        Fs1 , v040
	.byte	W06
	.byte		        Gn1 , v072
	.byte	W06
	.byte		        Fs1 , v060
	.byte	W06
	.byte		        Fs1 , v052
	.byte	W06
	.byte		        Fs1 , v040
	.byte	W06
	.byte		        Gn1 , v072
	.byte	W06
	.byte		        Fs1 , v060
	.byte	W06
	.byte		        Fs1 , v052
	.byte	W06
	.byte		        Fs1 , v040
	.byte	W06
	.byte		        Gn1 , v072
	.byte	W06
	.byte		        Fs1 , v060
	.byte	W06
	.byte		        Fs1 , v052
	.byte	W06
	.byte		        Fs1 , v040
	.byte	W06
	.byte		        Gn1 , v072
	.byte	W06
	.byte		        Fs1 , v060
	.byte	W03
	.byte	W03
	.byte		        Fs1 , v052
	.byte	W06
	.byte		        Fs1 , v040
	.byte	W06
	.byte		N06   , Dn1 , v052
	.byte		N09   , An1 , v072
	.byte	W09
	.byte		N03   , Fs1 , v060
	.byte	W03
	.byte		N06   , Dn1 , v052
	.byte		N09   , An1 , v072
	.byte	W12
	.byte		N03   , Gn1 
	.byte	W06
	.byte		        Fs1 , v060
	.byte	W06
	.byte		        Fs1 , v052
	.byte	W06
	.byte		        Fs1 , v040
	.byte	W06
	.byte		        Gn1 , v072
	.byte	W06
	.byte		        Fs1 , v060
	.byte	W06
	.byte		        Fs1 , v052
	.byte	W06
	.byte		        Fs1 , v040
	.byte	W06
	.byte		        Gn1 , v072
	.byte	W06
	.byte		        Fs1 , v060
	.byte	W03
	.byte	W03
	.byte		        Fs1 , v052
	.byte	W06
	.byte		        Fs1 , v040
	.byte	W06
	.byte		        Gn1 , v072
	.byte	W06
	.byte		        Fs1 , v060
	.byte	W06
	.byte		        Fs1 , v052
	.byte	W06
	.byte		        Fs1 , v040
	.byte	W06
	.byte		        Gn1 , v072
	.byte	W06
	.byte		        Fs1 , v060
	.byte	W06
	.byte		        Fs1 , v052
	.byte	W06
	.byte		        Fs1 , v040
	.byte	W06
	.byte		        Gn1 , v072
	.byte		N06   , Dn3 , v092
	.byte	W06
	.byte		N03   , Fs1 , v060
	.byte		N06   , Cs3 , v092
	.byte	W06
	.byte		N03   , Fs1 , v052
	.byte		N06   , Cn3 , v092
	.byte	W06
	.byte		N03   , Fs1 , v040
	.byte		N06   , Dn3 , v092
	.byte	W06
	.byte		N03   , Gn1 , v072
	.byte		N06   , Cs3 , v092
	.byte	W06
	.byte		N03   , Fs1 , v060
	.byte		N06   , Cn3 , v092
	.byte	W03
	.byte	W03
	.byte		N03   , Fs1 , v052
	.byte		N06   , Ds2 
	.byte	W06
	.byte		        Ds1 , v092
	.byte		N03   , Fs1 , v040
	.byte	W06
	.byte		N06   , Dn1 , v052
	.byte		N15   , An1 , v072
	.byte	W18
	.byte		N03   , Fs1 , v040
	.byte	W06
	.byte		        Gn1 , v072
	.byte		N06   , Ds2 
	.byte	W06
	.byte		N03   , Fs1 , v060
	.byte	W06
	.byte		        Fs1 , v052
	.byte	W06
	.byte		        Fs1 , v040
	.byte	W06
	.byte		        Gn1 , v072
	.byte	W06
	.byte		        Fs1 , v060
	.byte	W06
	.byte		N06   , Dn1 , v052
	.byte		N03   , Fs1 
	.byte	W06
	.byte		N06   , Ds1 , v072
	.byte		N03   , Fs1 , v040
	.byte	W06
	.byte		        Gn1 , v072
	.byte		N06   , Ds2 
	.byte	W06
	.byte		N03   , Fs1 , v060
	.byte	W03
	.byte	W03
	.byte		N03   , Fs1 , v052
	.byte	W06
	.byte		        Fs1 , v040
	.byte	W06
	.byte		N06   , Dn1 , v052
	.byte		N03   , Gn1 , v072
	.byte	W06
	.byte		        Fs1 , v060
	.byte	W06
	.byte		        Fs1 , v052
	.byte	W06
	.byte		        Fs1 , v040
	.byte	W06
	.byte		        Gn1 , v072
	.byte		N06   , Ds2 
	.byte	W06
	.byte		N03   , Fs1 , v060
	.byte	W06
	.byte		        Fs1 , v052
	.byte	W06
	.byte		        Fs1 , v040
	.byte	W06
	.byte		N06   , Dn1 , v052
	.byte		N03   , Gn1 , v072
	.byte	W06
	.byte		        Fs1 , v060
	.byte	W06
	.byte		        Fs1 , v052
	.byte		N06   , Ds2 , v032
	.byte	W06
	.byte		N03   , Fs1 , v040
	.byte		N06   , Ds2 , v020
	.byte	W06
	.byte		N03   , Gn1 , v072
	.byte		N06   , Ds2 
	.byte	W06
	.byte		N03   , Fs1 , v060
	.byte	W03
	.byte	PEND
	.byte	W03
	.byte		N03   , Fs1 , v052
	.byte	W06
	.byte		        Fs1 , v040
	.byte	W06
	.byte		N06   , Dn1 , v052
	.byte		N03   , Gn1 , v072
	.byte	W06
	.byte		        Fs1 , v060
	.byte	W06
	.byte		        Fs1 , v052
	.byte	W06
	.byte		        Fs1 , v040
	.byte	W06
	.byte		        Gn1 , v072
	.byte		N06   , Ds2 
	.byte	W06
	.byte		N03   , Fs1 , v060
	.byte	W06
	.byte		        Fs1 , v052
	.byte	W06
	.byte		        Fs1 , v040
	.byte	W06
	.byte		        Gn1 , v072
	.byte	W06
	.byte		        Fs1 , v060
	.byte	W06
	.byte		N06   , Dn1 , v052
	.byte		N03   , Fs1 
	.byte	W06
	.byte		N06   , Ds1 , v072
	.byte		N03   , Fs1 , v040
	.byte	W06
	.byte		        Gn1 , v072
	.byte		N06   , Ds2 
	.byte	W06
	.byte		N03   , Fs1 , v060
	.byte	W03
	.byte	PEND
	.byte	W03
	.byte		        Fs1 , v052
	.byte	W06
	.byte		        Fs1 , v040
	.byte	W06
	.byte		N06   , Dn1 , v052
	.byte		N03   , Gn1 , v072
	.byte	W06
	.byte		        Fs1 , v060
	.byte	W06
	.byte		        Fs1 , v052
	.byte	W06
	.byte		        Fs1 , v040
	.byte	W06
	.byte		        Gn1 , v072
	.byte		N06   , Ds2 
	.byte	W06
	.byte		N03   , Fs1 , v060
	.byte	W06
	.byte		        Fs1 , v052
	.byte	W06
	.byte		        Fs1 , v040
	.byte	W06
	.byte		        Fs1 , v052
	.byte		N06   , Dn3 , v112
	.byte	W06
	.byte		N03   , Fs1 , v060
	.byte		N06   , Cs3 , v112
	.byte	W06
	.byte		N09   , Gn1 , v072
	.byte		N06   , Cn3 , v112
	.byte	W12
	.byte		N03   , Fs1 , v072
	.byte		N06   , Ds2 
	.byte	W06
	.byte		N09   , An1 
	.byte	W03
	.byte	W03
	.byte		N06   , Cs3 , v112
	.byte	W06
	.byte		N03   , Fs1 , v040
	.byte		N06   , Cn3 , v112
	.byte	W06
	.byte		        Dn1 , v052
	.byte		N15   , An1 , v072
	.byte	W18
	.byte		N03   , Fs1 , v040
	.byte	W06
	.byte		        Gn1 , v072
	.byte		N06   , Ds2 
	.byte	W06
	.byte		N03   , Fs1 , v060
	.byte	W06
	.byte		        Fs1 , v052
	.byte	W06
	.byte		        Fs1 , v040
	.byte	W06
	.byte		        Gn1 , v072
	.byte	W06
	.byte		        Fs1 , v060
	.byte	W06
	.byte		N06   , Dn1 , v052
	.byte		N03   , Fs1 
	.byte	W06
	.byte		N06   , Ds1 , v072
	.byte		N03   , Fs1 , v040
	.byte	W06
	.byte		        Gn1 , v072
	.byte		N06   , Ds2 
	.byte	W06
	.byte		N03   , Fs1 , v060
	.byte	W03
	.byte	PATT
	 .word	seq_000_3 + 0x12F
	.byte	PATT
	 .word	seq_000_3 + 0x178
	.byte	W03
	.byte		N03   , Fs1 , v052
	.byte	W06
	.byte		        Fs1 , v040
	.byte	W06
	.byte		N06   , Dn1 , v052
	.byte		N03   , Gn1 , v072
	.byte	W06
	.byte		        Fs1 , v060
	.byte	W06
	.byte		        Fs1 , v052
	.byte	W06
	.byte		        Fs1 , v040
	.byte	W06
	.byte		        Gn1 , v072
	.byte		N06   , Ds2 
	.byte	W06
	.byte		N03   , Fs1 , v060
	.byte	W06
	.byte		        Fs1 , v052
	.byte	W06
	.byte		        Fs1 , v040
	.byte	W06
	.byte		        Fs1 , v052
	.byte		N06   , Dn3 , v112
	.byte	W06
	.byte		N03   , Fs1 , v060
	.byte		N06   , Cs3 , v112
	.byte	W06
	.byte		N09   , Gn1 , v072
	.byte		N06   , Cn3 , v112
	.byte	W12
	.byte		        Dn1 , v052
	.byte		N03   , Fs1 , v072
	.byte	W06
	.byte		N09   , An1 
	.byte		N06   , Ds2 
	.byte	W03
	.byte	W09
	.byte		N03   , Fs1 , v040
	.byte	W06
	.byte		N06   , Dn1 , v052
	.byte		N03   , Gs1 , v072
	.byte	W12
	.byte		N06   , Dn1 , v052
	.byte		N03   , Fs1 
	.byte	W06
	.byte		N15   , An1 , v072
	.byte		N06   , Ds2 
	.byte	W18
	.byte		        Dn1 , v020
	.byte	W06
	.byte		N03   , Fs1 , v040
	.byte	W06
	.byte		        Gn1 , v072
	.byte	W12
	.byte		N06   , Dn1 , v052
	.byte		N03   , Fs1 
	.byte	W06
	.byte		        Fs1 , v040
	.byte	W06
	.byte		        Gn1 , v072
	.byte		N06   , Ds2 
	.byte	W09
	.byte	W03
	.byte		N03   , Fs1 , v052
	.byte	W06
	.byte		        Fs1 , v040
	.byte	W06
	.byte		        Fs1 , v072
	.byte		N06   , Dn3 , v100
	.byte	W06
	.byte		N03   , Fs1 , v060
	.byte		N06   , Cs3 , v100
	.byte	W06
	.byte		N03   , Fs1 , v052
	.byte		N06   , Cn3 , v100
	.byte	W06
	.byte		        Dn1 , v052
	.byte		N03   , Fs1 , v040
	.byte	W06
	.byte		        Gn1 , v072
	.byte		N06   , Ds2 
	.byte	W06
	.byte		N03   , Fs1 , v040
	.byte	W06
	.byte		        Fs1 , v072
	.byte		N06   , Dn3 , v100
	.byte	W06
	.byte		N03   , Fs1 , v060
	.byte		N06   , Cs3 , v100
	.byte	W06
	.byte		N03   , Fs1 , v052
	.byte		N06   , Cn3 , v100
	.byte	W06
	.byte		        Dn1 , v052
	.byte		N03   , Fs1 , v040
	.byte	W06
	.byte		        Gn1 , v072
	.byte		N06   , Ds2 
	.byte	W06
	.byte		N03   , Fs1 , v040
	.byte	W06
	.byte		N06   , Dn1 , v052
	.byte		N03   , Gn1 , v072
	.byte	W06
	.byte		        Fs1 , v060
	.byte		N06   , Ds2 , v072
	.byte	W03
	.byte	W03
	.byte		N03   , Fs1 , v052
	.byte	W06
	.byte		        Fs1 , v040
	.byte	W06
	.byte		N06   , Dn1 , v052
	.byte		N03   , Gn1 , v072
	.byte	W06
	.byte		        Fs1 , v060
	.byte	W06
	.byte		        Fs1 , v052
	.byte	W06
	.byte		        Fs1 , v040
	.byte	W06
	.byte		        Gn1 , v072
	.byte		N06   , Ds2 
	.byte	W06
	.byte		N03   , Fs1 , v060
	.byte	W06
	.byte		N06   , Dn1 , v052
	.byte		N03   , Fs1 
	.byte	W06
	.byte		        Fs1 , v040
	.byte	W06
	.byte		        Gn1 , v072
	.byte	W06
	.byte		        Fs1 , v060
	.byte	W06
	.byte		N06   , Dn1 , v052
	.byte		N03   , Fs1 
	.byte	W06
	.byte		        Fs1 , v040
	.byte	W06
	.byte		        Gn1 , v072
	.byte		N06   , Ds2 
	.byte	W06
	.byte		N03   , Fs1 , v060
	.byte	W03
	.byte	PEND
	.byte	PATT
	 .word	seq_000_3 + 0x31B
	.byte	W03
	.byte		N03   , Fs1 , v052
	.byte	W06
	.byte		        Fs1 , v040
	.byte	W06
	.byte		N06   , Dn1 , v052
	.byte		N09   , An1 , v072
	.byte	W12
	.byte		N03   , Fs1 , v052
	.byte	W06
	.byte		        Fs1 , v040
	.byte	W06
	.byte		        Gn1 , v072
	.byte		N06   , Ds2 
	.byte	W06
	.byte		N03   , Fs1 , v060
	.byte	W06
	.byte		N06   , Dn1 , v052
	.byte		N03   , Fs1 
	.byte	W06
	.byte		        Fs1 , v040
	.byte	W06
	.byte		        Gn1 , v072
	.byte	W06
	.byte		        Fs1 , v060
	.byte	W06
	.byte		N06   , Dn1 , v052
	.byte		N03   , Fs1 
	.byte	W06
	.byte		        Fs1 , v040
	.byte	W06
	.byte		        Gn1 , v072
	.byte		N06   , Ds2 
	.byte	W06
	.byte		N03   , Fs1 , v060
	.byte	W03
	.byte	W03
	.byte		        Fs1 , v052
	.byte	W06
	.byte		        Fs1 , v040
	.byte	W06
	.byte		N06   , Dn1 , v052
	.byte		N03   , Gn1 , v072
	.byte	W06
	.byte		        Fs1 , v060
	.byte	W06
	.byte		        Fs1 , v052
	.byte	W06
	.byte		        Fs1 , v040
	.byte	W06
	.byte		        Gn1 , v072
	.byte		N06   , Ds2 
	.byte	W06
	.byte		N03   , Fs1 , v060
	.byte	W06
	.byte		N06   , Dn1 , v052
	.byte		N03   , Fs1 
	.byte	W06
	.byte		        Fs1 , v040
	.byte	W06
	.byte		        Gn1 , v072
	.byte	W06
	.byte		        Fs1 , v060
	.byte	W06
	.byte		N06   , Dn1 , v052
	.byte		N03   , Fs1 
	.byte	W06
	.byte		        Fs1 , v040
	.byte	W06
	.byte		        Gn1 , v072
	.byte		N06   , Dn3 , v112
	.byte	W06
	.byte		N03   , Fs1 , v060
	.byte		N06   , Cs3 , v112
	.byte	W03
	.byte	W03
	.byte		N03   , Fs1 , v052
	.byte	W06
	.byte		        Fs1 , v040
	.byte		N06   , Cn3 , v112
	.byte	W06
	.byte		        Dn1 , v052
	.byte		N15   , An1 , v072
	.byte	W18
	.byte		N03   , Fs1 , v040
	.byte	W06
	.byte		        Gn1 , v072
	.byte	W06
	.byte		        Fs1 , v060
	.byte	W06
	.byte		        Fs1 , v052
	.byte	W06
	.byte		        Fs1 , v040
	.byte	W06
	.byte		N06   , Dn1 , v020
	.byte		N03   , Gn1 , v072
	.byte	W06
	.byte		        Fs1 , v060
	.byte	W06
	.byte		        Fs1 , v052
	.byte	W06
	.byte		        Fs1 , v040
	.byte	W06
	.byte		N06   , Dn1 , v032
	.byte		N03   , Gn1 , v072
	.byte	W06
	.byte		        Fs1 , v060
	.byte	W03
	.byte	W03
	.byte		        Fs1 , v052
	.byte	W06
	.byte		        Fs1 , v040
	.byte	W06
	.byte		N06   , Dn1 , v032
	.byte		N03   , Gn1 , v072
	.byte	W06
	.byte		        Fs1 , v060
	.byte	W06
	.byte		        Fs1 , v052
	.byte	W06
	.byte		        Fs1 , v040
	.byte	W06
	.byte		N06   , Dn1 , v032
	.byte		N03   , Gn1 , v072
	.byte	W06
	.byte		        Fs1 , v060
	.byte	W06
	.byte		        Fs1 , v052
	.byte	W06
	.byte		        Fs1 , v040
	.byte	W06
	.byte		N06   , Dn1 
	.byte		N03   , Gn1 , v072
	.byte	W06
	.byte		        Fs1 , v060
	.byte	W06
	.byte		N32   , Gs1 , v120
	.byte	W12
	.byte		N06   , Dn1 , v040
	.byte	W09
	.byte	W15
	.byte		        Dn1 , v052
	.byte		N03   , Fs1 , v072
	.byte	W06
	.byte		        Fs1 , v060
	.byte	W06
	.byte		N06   , Ds1 , v072
	.byte		N03   , Fs1 , v052
	.byte	W06
	.byte		        Gn1 , v072
	.byte	W06
	.byte		N06   , Ds1 , v100
	.byte	W06
	.byte		N03   , Fs1 , v060
	.byte		N06   , Ds2 , v072
	.byte	W06
	.byte		N03   , Fs1 , v052
	.byte		N06   , Dn3 , v112
	.byte	W06
	.byte		N03   , Fs1 , v040
	.byte		N06   , Cn3 , v112
	.byte	W06
	.byte		        Dn1 , v052
	.byte		N03   , Fs1 , v060
	.byte	W06
	.byte		N06   , Ds1 , v100
	.byte		N03   , Gn1 , v072
	.byte	W06
	.byte		N06   , Ds2 
	.byte	W06
	.byte		N03   , Fs1 , v040
	.byte	W06
	.byte		N06   , Dn1 , v052
	.byte		N03   , Gn1 , v072
	.byte	W06
	.byte		        Fs1 , v060
	.byte	W03
	.byte	W03
	.byte		        Gn1 , v052
	.byte		N06   , Ds2 , v072
	.byte	W12
	.byte		        Dn1 , v052
	.byte		N03   , Fs1 , v072
	.byte	W06
	.byte		        Fs1 , v060
	.byte	W06
	.byte		        Fs1 , v052
	.byte	W06
	.byte		N06   , En1 , v072
	.byte		N03   , Gn1 
	.byte	W06
	.byte		N06   , Ds2 
	.byte	W06
	.byte		N03   , Fs1 , v060
	.byte	W06
	.byte		        Fs1 , v052
	.byte		N06   , Dn3 , v112
	.byte	W06
	.byte		N03   , Fs1 , v040
	.byte		N06   , Cn3 , v112
	.byte	W06
	.byte		        Dn1 , v052
	.byte		N03   , Fs1 , v060
	.byte	W06
	.byte		        Gn1 , v072
	.byte	W06
	.byte		N06   , Ds2 
	.byte	W06
	.byte		        Ds1 , v100
	.byte		N03   , Fs1 , v040
	.byte	W06
	.byte		        Gn1 , v072
	.byte	W06
	.byte		        Fs1 , v060
	.byte	W03
	.byte	W03
	.byte		        Gn1 , v052
	.byte		N06   , Ds2 , v072
	.byte	W12
	.byte		        Dn1 , v052
	.byte		N15   , An1 , v072
	.byte	W12
	.byte		N06   , Dn1 , v052
	.byte	W06
	.byte		N03   , Fs1 , v072
	.byte	W06
	.byte		N06   , Ds1 , v100
	.byte	W06
	.byte		N03   , Fs1 , v060
	.byte		N06   , Ds2 , v072
	.byte	W06
	.byte		N03   , Fs1 , v052
	.byte	W06
	.byte		        Fs1 , v040
	.byte		N06   , Cn3 , v112
	.byte	W06
	.byte		        Dn1 , v052
	.byte		N03   , Gn1 , v060
	.byte	W06
	.byte		        Fs1 , v072
	.byte	W06
	.byte		N06   , Ds2 
	.byte	W06
	.byte		        Ds1 , v100
	.byte		N03   , Fs1 , v040
	.byte	W06
	.byte		        Gn1 , v072
	.byte	W06
	.byte		N06   , Ds1 , v100
	.byte		N03   , Fs1 , v060
	.byte	W03
	.byte	W03
	.byte		        Gn1 , v052
	.byte		N06   , Ds2 , v072
	.byte	W12
	.byte		        Dn1 , v052
	.byte		N03   , Fs1 , v072
	.byte	W06
	.byte		        Fs1 , v060
	.byte	W06
	.byte		        Fs1 , v052
	.byte	W06
	.byte		N06   , Dn1 
	.byte		N03   , Gn1 , v072
	.byte	W06
	.byte		        Fs1 , v060
	.byte		N06   , Ds2 , v072
	.byte	W06
	.byte		N03   , Fs1 , v060
	.byte	W06
	.byte		        Fs1 , v052
	.byte		N06   , Dn3 , v112
	.byte	W06
	.byte		N03   , Fs1 , v040
	.byte		N06   , Cn3 , v112
	.byte	W06
	.byte		        Dn1 , v052
	.byte		N03   , Gn1 , v072
	.byte	W06
	.byte		        Fs1 , v060
	.byte	W06
	.byte		        Fs1 , v052
	.byte	W06
	.byte		        Fs1 , v040
	.byte	W06
	.byte		        Gn1 , v072
	.byte	W06
	.byte		        Fs1 , v060
	.byte	W03
	.byte	W03
	.byte		        Fs1 , v052
	.byte	W06
	.byte		        Fs1 , v040
	.byte	W06
	.byte	GOTO
	 .word	seq_000_3 + 0xF9
	.byte	FINE

@*********************** Track 05 ***********************@

seq_000_4:
	.byte	KEYSH , seq_000_key+0
	.byte		VOICE , 18
	.byte	W01
	.byte		VOL   , 94*seq_000_mvl/mxv
	.byte	W01
	.byte		PAN   , c_v+0
	.byte	W01
	.byte		BEND  , c_v+0
	.byte	W36
	.byte		N06   , Cn3 , v092
	.byte	W06
	.byte		        As2 
	.byte	W06
	.byte		        Cn3 
	.byte	W06
	.byte		        Ds3 
	.byte	W12
	.byte		        Ds3 , v040
	.byte	W06
	.byte		        Cn3 , v092
	.byte	W06
	.byte		        As2 
	.byte	W06
	.byte		        As2 , v040
	.byte	W06
	.byte		        Cn3 , v092
	.byte	W03
	.byte	W03
	.byte		        Ds3 
	.byte	W06
	.byte		        Ds3 , v040
	.byte	W06
	.byte		        Cn3 , v092
	.byte	W06
	.byte		        As2 
	.byte	W06
	.byte		        Cn3 
	.byte	W06
	.byte		        Ds3 
	.byte	W12
	.byte		        Ds3 , v040
	.byte	W06
	.byte		        Cn3 , v092
	.byte	W06
	.byte		        As2 
	.byte	W06
	.byte		        As2 , v040
	.byte	W06
	.byte		        Cn3 , v092
	.byte	W06
	.byte		        Cs3 
	.byte	W06
	.byte		        Cs3 , v040
	.byte	W06
	.byte		N24   , Fs3 , v092
	.byte	W09
	.byte		BEND  , c_v-4
	.byte	W03
	.byte		        c_v-14
	.byte	W03
	.byte		        c_v-22
	.byte	W03
	.byte		        c_v-30
	.byte	W03
	.byte		        c_v-39
	.byte	W06
	.byte		        c_v+0
	.byte	W09
	.byte		N06   , Cn3 
	.byte	W06
	.byte		        As2 
	.byte	W06
	.byte		        Cn3 
	.byte	W06
	.byte		        Ds3 
	.byte	W12
	.byte		        Ds3 , v040
	.byte	W06
	.byte		        Cn3 , v092
	.byte	W12
	.byte		N06
	.byte	W06
	.byte		        As2 
	.byte	W06
	.byte		        As2 , v040
	.byte	W06
	.byte		        Cn3 , v092
	.byte	W03
	.byte	W03
	.byte		        Ds3 
	.byte	W06
	.byte		        Ds3 , v040
	.byte	W06
	.byte		        Cn3 , v092
	.byte	W06
	.byte		        As2 
	.byte	W06
	.byte		        Cn3 
	.byte	W06
	.byte		        Ds3 
	.byte	W12
	.byte		        Ds3 , v040
	.byte	W06
	.byte		        Cn3 , v092
	.byte	W06
	.byte		        As2 
	.byte	W06
	.byte		        As2 , v040
	.byte	W06
	.byte		        Cn3 , v092
	.byte	W06
	.byte		        Cs3 
	.byte	W06
	.byte		        Cs3 , v040
	.byte	W06
	.byte		N24   , Cs3 , v092
	.byte	W09
	.byte	W03
	.byte		BEND  , c_v-4
	.byte	W03
	.byte		        c_v-14
	.byte	W03
	.byte		        c_v-22
	.byte	W03
	.byte		        c_v-30
	.byte	W03
	.byte	W80
	.byte	W01
	.byte	W15
	.byte		BEND  , c_v+0
	.byte	W80
	.byte	W01
	.byte	W96
	.byte	W60
	.byte	W03
	.byte		PAN   , c_v-64
	.byte	W12
	.byte		N07   , Ds3 , v092
	.byte	W12
	.byte		N06   , Ds3 , v052
	.byte	W06
	.byte		PAN   , c_v+63
	.byte		N07   , Fn3 , v092
	.byte	W03
	.byte	PEND
	.byte	W09
	.byte		N06   , Fn3 , v052
	.byte	W84
	.byte	W03
	.byte	PEND
	.byte	W96
	.byte	W96
	.byte	PATT
	 .word	seq_000_4 + 0xAA
	.byte	PATT
	 .word	seq_000_4 + 0xBE
	.byte	W96
	.byte	W96
	.byte	W96
	.byte	W15
	.byte		VOICE , 17
	.byte		PAN   , c_v+0
	.byte		N84   , Dn2 , v080
	.byte	W80
	.byte	W01
	.byte	W15
	.byte		        Cs2 
	.byte	W80
	.byte	W01
	.byte	W15
	.byte		TIE   , Cn2 
	.byte	W80
	.byte	W01
	.byte	W84
	.byte	W03
	.byte		EOT
	.byte	W09
	.byte	W96
	.byte		VOICE , 18
	.byte	W96
	.byte	W96
	.byte	W96
	.byte	W15
	.byte	GOTO
	 .word	seq_000_4 + 0xA2
	.byte	FINE

@*********************** Track 06 ***********************@

seq_000_5:
	.byte	KEYSH , seq_000_key+0
	.byte		VOICE , 61
	.byte	W01
	.byte		VOL   , 103*seq_000_mvl/mxv
	.byte	W01
	.byte		PAN   , c_v+0
	.byte	W01
	.byte		BEND  , c_v+0
	.byte	W92
	.byte	W01
	.byte	W96
	.byte	W96
	.byte	W96
	.byte	W15
	.byte		PAN   , c_v+0
	.byte		N24   , Fs3 , v092
	.byte	W24
	.byte		N18   , Fs3 , v032
	.byte	W56
	.byte	W01
	.byte	W96
	.byte	W96
	.byte	W96
	.byte	W96
	.byte	W96
	.byte	W96
	.byte	W96
	.byte	W15
	.byte		N12   , Dn4 , v120
	.byte	W12
	.byte		N06   , Dn4 , v060
	.byte	W06
	.byte		N12   , Dn4 , v120
	.byte	W18
	.byte		        Dn4 , v032
	.byte	W44
	.byte	W01
	.byte	W96
	.byte	W96
	.byte	W96
	.byte	W96
	.byte	W96
	.byte	W96
	.byte	W96
	.byte	W96
	.byte	W36
	.byte	W03
	.byte		PAN   , c_v+63
	.byte	W24
	.byte		N12   , Cn4 , v092
	.byte	W17
	.byte		PAN   , c_v-64
	.byte	W01
	.byte		N12
	.byte	W15
	.byte	W02
	.byte		PAN   , c_v+63
	.byte	W01
	.byte		N12
	.byte	W23
	.byte		PAN   , c_v-64
	.byte	W01
	.byte		N12   , Cn4 , v032
	.byte	W23
	.byte		PAN   , c_v+63
	.byte	W01
	.byte		N12   , Cn4 , v012
	.byte	W44
	.byte	W01
	.byte	W44
	.byte	W01
	.byte		PAN   , c_v-64
	.byte	W06
	.byte		N12   , Cn4 , v092
	.byte	W17
	.byte		PAN   , c_v+63
	.byte	W01
	.byte		N12   , Cn4 , v032
	.byte	W23
	.byte		PAN   , c_v-64
	.byte	W01
	.byte		N12   , Cn4 , v012
	.byte	W03
	.byte	W15
	.byte	GOTO
	 .word	seq_000_5 + 0x13
	.byte	FINE

@*********************** Track 07 ***********************@

seq_000_6:
	.byte	KEYSH , seq_000_key+0
	.byte		VOICE , 27
	.byte	W01
	.byte		VOL   , 85*seq_000_mvl/mxv
	.byte	W01
	.byte		PAN   , c_v+0
	.byte	W01
	.byte		BEND  , c_v+0
	.byte	W92
	.byte	W01
	.byte	W96
	.byte	W96
	.byte	W96
	.byte	W15
	.byte		VOL   , 85*seq_000_mvl/mxv
	.byte	W80
	.byte	W01
	.byte	W96
	.byte	W96
	.byte	W96
	.byte	W96
	.byte	W96
	.byte	W96
	.byte	W96
	.byte	W96
	.byte	W15
	.byte		N24   , Cs4 , v100
	.byte	W24
	.byte		N12   , Cs4 , v052
	.byte	W12
	.byte		        Cn4 , v100
	.byte	W12
	.byte		        Cn4 , v052
	.byte	W12
	.byte		N24   , As3 , v100
	.byte	W21
	.byte	W03
	.byte		N12   , As3 , v052
	.byte	W12
	.byte		        Gs3 , v100
	.byte	W12
	.byte		        Gn3 
	.byte	W12
	.byte		        Gs3 
	.byte	W12
	.byte		N60   , Ds4 
	.byte	W44
	.byte	W01
	.byte	W15
	.byte		N72   , Cn4 
	.byte	W48
	.byte		VOL   , 95*seq_000_mvl/mxv
	.byte	W03
	.byte		        89*seq_000_mvl/mxv
	.byte	W03
	.byte		        84*seq_000_mvl/mxv
	.byte	W03
	.byte		        77*seq_000_mvl/mxv
	.byte	W03
	.byte		        71*seq_000_mvl/mxv
	.byte	W03
	.byte		        65*seq_000_mvl/mxv
	.byte	W03
	.byte		        59*seq_000_mvl/mxv
	.byte	W03
	.byte		        52*seq_000_mvl/mxv
	.byte	W03
	.byte		        47*seq_000_mvl/mxv
	.byte		N24   , Cn4 , v060
	.byte	W03
	.byte		VOL   , 40*seq_000_mvl/mxv
	.byte	W03
	.byte		        34*seq_000_mvl/mxv
	.byte	W03
	.byte		        28*seq_000_mvl/mxv
	.byte	W96
	.byte	W96
	.byte	W96
	.byte	W96
	.byte	W96
	.byte	W96
	.byte	W96
	.byte	W96
	.byte	W15
	.byte	GOTO
	 .word	seq_000_6 + 0x13
	.byte	FINE

@******************************************************@

	.align	2

seq_000:
	.byte	7	@ NumTrks
	.byte	0	@ NumBlks
	.byte	seq_000_pri	@ Priority
	.byte	seq_000_rev	@ Reverb

	.word	seq_000_grp

	.word	seq_000_0
	.word	seq_000_1
	.word	seq_000_2
	.word	seq_000_3
	.word	seq_000_4
	.word	seq_000_5
	.word	seq_000_6

	.end
