@ File generated by m4a2s Song-Module
	.include "MPlayDef.s"

	.equ	seq_000_grp, bank_000
	.equ	seq_000_pri, 20
	.equ	seq_000_rev, 163
	.equ	seq_000_mvl, 127
	.equ	seq_000_key, 0

	.section .rodata
	.global	seq_000
	.align	2

@*********************** Track 01 ***********************@

seq_000_0:
	.byte	KEYSH , seq_000_key+0
	.byte	TEMPO , 150/2
	.byte	W01
	.byte		VOICE , 2
	.byte	W01
	.byte		VOL   , 85*seq_000_mvl/mxv
	.byte	W01
	.byte		PAN   , c_v+0
	.byte	W01
	.byte		BEND  , c_v+0
	.byte	W01
	.byte		LFOS  , 28
	.byte	W01
	.byte		LFODL , 14
	.byte	W01
	.byte		MODT  , mod_vib
	.byte	W01
	.byte		MOD   , 7
	.byte	W01
	.byte	W01
	.byte		XCMD  , xIECV , 40
	.byte	W01
	.byte	W01
	.byte		        xIECL , 3
	.byte	W03
	.byte		VOICE , 2
	.byte		PAN   , c_v-64
	.byte		N06   , Cn3 , v092
	.byte	W06
	.byte		        Ds3 
	.byte	W06
	.byte		        As3 
	.byte	W06
	.byte		PAN   , c_v+63
	.byte		N06   , Cn3 
	.byte	W06
	.byte		        Ds3 
	.byte	W06
	.byte		        Cn3 
	.byte	W06
	.byte		PAN   , c_v-64
	.byte		N06   , As3 
	.byte	W06
	.byte		        Ds3 
	.byte	W06
	.byte		        As3 
	.byte	W06
	.byte		PAN   , c_v+63
	.byte		N06   , Cn3 
	.byte	W06
	.byte		        Ds3 
	.byte	W06
	.byte		        As3 
	.byte	W06
	.byte		PAN   , c_v-64
	.byte		N06   , Cn3 
	.byte	W06
	.byte		        Ds3 
	.byte	W03
	.byte	W03
	.byte		N06   , As3 , v092
	.byte	W06
	.byte		        Ds3 
	.byte	W06
	.byte		PAN   , c_v+63
	.byte		N06   , Cn3 
	.byte	W06
	.byte		        Ds3 
	.byte	W06
	.byte		        As3 
	.byte	W06
	.byte		PAN   , c_v-64
	.byte		N06   , Cn3 
	.byte	W06
	.byte		        Ds3 
	.byte	W06
	.byte		        Cn3 
	.byte	W06
	.byte		PAN   , c_v+63
	.byte		N06   , As3 
	.byte	W06
	.byte		        Ds3 
	.byte	W06
	.byte		        As3 
	.byte	W06
	.byte		PAN   , c_v-64
	.byte		N06   , Cn3 
	.byte	W06
	.byte		        Ds3 
	.byte	W06
	.byte		        As3 
	.byte	W06
	.byte		PAN   , c_v+63
	.byte		N06   , Cn3 
	.byte	W06
	.byte		        Ds3 
	.byte	W03
	.byte	PEND
	.byte	W03
	.byte		N06   , As3 , v092
	.byte	W06
	.byte		        Ds3 
	.byte	W06
	.byte		PAN   , c_v-64
	.byte		N06   , Cn3 
	.byte	W06
	.byte		        Ds3 
	.byte	W06
	.byte		        As3 
	.byte	W06
	.byte		PAN   , c_v+63
	.byte		N06   , Cn3 
	.byte	W06
	.byte		        Ds3 
	.byte	W06
	.byte		        Cn3 
	.byte	W06
	.byte		PAN   , c_v-64
	.byte		N06   , As3 
	.byte	W06
	.byte		        Ds3 
	.byte	W06
	.byte		        As3 
	.byte	W06
	.byte		PAN   , c_v+63
	.byte		N06   , Cn3 
	.byte	W06
	.byte		        Ds3 
	.byte	W06
	.byte		        As3 
	.byte	W06
	.byte		PAN   , c_v-64
	.byte		N06   , Cn3 
	.byte	W06
	.byte		        Ds3 
	.byte	W03
	.byte	PEND
	.byte	W03
	.byte		N06   , As3 , v092
	.byte	W06
	.byte		        Ds3 
	.byte	W06
	.byte		PAN   , c_v+63
	.byte		N06   , Cn3 
	.byte	W06
	.byte		        Ds3 
	.byte	W06
	.byte		        An3 
	.byte	W06
	.byte		PAN   , c_v-64
	.byte		N06   , Cn3 
	.byte	W06
	.byte		        Ds3 
	.byte	W06
	.byte		        Cn3 
	.byte	W06
	.byte		PAN   , c_v+63
	.byte		N06   , An3 
	.byte	W06
	.byte		        Ds3 
	.byte	W06
	.byte		        An3 
	.byte	W06
	.byte		PAN   , c_v-64
	.byte		N06   , Cn3 
	.byte	W06
	.byte		        Ds3 
	.byte	W06
	.byte		        An3 
	.byte	W06
	.byte		PAN   , c_v+63
	.byte		N06   , Cn3 
	.byte	W06
	.byte		        Ds3 
	.byte	W03
	.byte	PEND
	.byte	W03
	.byte		N06   , An3 , v092
	.byte	W06
	.byte		        Ds3 
	.byte	W06
	.byte	PEND
	.byte		PAN   , c_v-64
	.byte		N06   , Cn3 , v092
	.byte	W06
	.byte		        Ds3 
	.byte	W06
	.byte		        As3 
	.byte	W06
	.byte		PAN   , c_v+63
	.byte		N06   , Cn3 
	.byte	W06
	.byte		        Ds3 
	.byte	W06
	.byte		        Cn3 
	.byte	W06
	.byte		PAN   , c_v-64
	.byte		N06   , As3 
	.byte	W06
	.byte		        Ds3 
	.byte	W06
	.byte		        As3 
	.byte	W06
	.byte		PAN   , c_v+63
	.byte		N06   , Cn3 
	.byte	W06
	.byte		        Ds3 
	.byte	W06
	.byte		        As3 
	.byte	W06
	.byte		PAN   , c_v-64
	.byte		N06   , Cn3 
	.byte	W06
	.byte		        Ds3 
	.byte	W03
	.byte	PATT
	 .word	seq_000_0 + 0xBA
	.byte	W03
	.byte		N06   , An3 , v092
	.byte	W06
	.byte		        Ds3 
	.byte	W06
	.byte		PAN   , c_v-64
	.byte		N06   , Cn3 
	.byte	W06
	.byte		        Ds3 
	.byte	W06
	.byte		        As3 
	.byte	W06
	.byte		PAN   , c_v+63
	.byte		N06   , Cn3 
	.byte	W06
	.byte		        Ds3 
	.byte	W06
	.byte		        Cn3 
	.byte	W06
	.byte		PAN   , c_v-64
	.byte		N06   , As3 
	.byte	W06
	.byte		        Ds3 
	.byte	W06
	.byte		        As3 
	.byte	W06
	.byte		PAN   , c_v+63
	.byte		N06   , Cn3 
	.byte	W06
	.byte		        Ds3 
	.byte	W06
	.byte		        As3 
	.byte	W06
	.byte		PAN   , c_v-64
	.byte		N06   , Cn3 
	.byte	W06
	.byte		        Ds3 
	.byte	W03
	.byte	PEND
	.byte	PATT
	 .word	seq_000_0 + 0xBA
	.byte	PATT
	 .word	seq_000_0 + 0x126
	.byte	PATT
	 .word	seq_000_0 + 0xBA
	.byte	PATT
	 .word	seq_000_0 + 0x126
	.byte	PATT
	 .word	seq_000_0 + 0xBA
	.byte	W03
	.byte		N06   , An3 , v092
	.byte	W06
	.byte		        Ds3 
	.byte	W06
	.byte		VOICE , 3
	.byte		PAN   , c_v+63
	.byte		N03   , Ds3 , v080
	.byte	W03
	.byte		        Ds3 , v032
	.byte	W03
	.byte		        Gn3 , v080
	.byte	W03
	.byte		        Gn3 , v032
	.byte	W03
	.byte		        As3 , v080
	.byte	W03
	.byte		        As3 , v032
	.byte	W03
	.byte		        Dn4 , v080
	.byte	W03
	.byte		        Dn4 , v032
	.byte	W03
	.byte		PAN   , c_v-64
	.byte		N03   , Ds4 , v080
	.byte	W03
	.byte		        Ds4 , v032
	.byte	W03
	.byte		        Gn4 , v080
	.byte	W03
	.byte		        Gn4 , v032
	.byte	W03
	.byte		        As4 , v080
	.byte	W03
	.byte		        As4 , v032
	.byte	W03
	.byte		        Ds5 , v080
	.byte	W03
	.byte		        Ds5 , v032
	.byte	W03
	.byte		PAN   , c_v+63
	.byte		N03   , Dn3 , v080
	.byte	W03
	.byte		        Dn3 , v032
	.byte	W03
	.byte		        Fn3 , v080
	.byte	W03
	.byte		        Fn3 , v032
	.byte	W03
	.byte		        An3 , v080
	.byte	W03
	.byte		        An3 , v032
	.byte	W03
	.byte		        Cn4 , v080
	.byte	W03
	.byte		        Cn4 , v032
	.byte	W03
	.byte		PAN   , c_v-64
	.byte		N03   , Dn4 , v080
	.byte	W03
	.byte		        Dn4 , v032
	.byte	W03
	.byte		        Fn4 , v080
	.byte	W03
	.byte		        Fn4 , v032
	.byte	W03
	.byte		        An4 , v080
	.byte	W03
	.byte		        An4 , v032
	.byte	W03
	.byte		        Cn5 , v080
	.byte	W03
	.byte		        Cn5 , v032
	.byte	W03
	.byte		PAN   , c_v+63
	.byte		N03   , Fn3 , v080
	.byte	W03
	.byte		        Fn3 , v032
	.byte	W03
	.byte		        An3 , v080
	.byte	W03
	.byte		        An3 , v032
	.byte	W03
	.byte		        Cn4 , v080
	.byte	W03
	.byte		        Cn4 , v032
	.byte	W03
	.byte		        Ds4 , v080
	.byte	W03
	.byte		        Ds4 , v032
	.byte	W03
	.byte		PAN   , c_v-64
	.byte		N03   , Fn4 , v080
	.byte	W03
	.byte		        Fn4 , v032
	.byte	W03
	.byte		        An4 , v080
	.byte	W03
	.byte		        An4 , v032
	.byte	W03
	.byte		        Cn5 , v080
	.byte	W03
	.byte		        Cn5 , v032
	.byte	W03
	.byte		        Ds5 , v080
	.byte	W03
	.byte		        Ds5 , v032
	.byte	W03
	.byte		PAN   , c_v+63
	.byte		N03   , Cn3 , v080
	.byte	W03
	.byte		        Cn3 , v032
	.byte	W03
	.byte		        Dn3 , v080
	.byte	W03
	.byte		        Dn3 , v032
	.byte	W03
	.byte		        Fn3 , v080
	.byte	W03
	.byte		        Fn3 , v032
	.byte	W03
	.byte		        Cn4 , v080
	.byte	W03
	.byte		        Cn4 , v032
	.byte	W03
	.byte		PAN   , c_v-64
	.byte		N03   , Dn4 , v080
	.byte	W03
	.byte		        Dn4 , v032
	.byte	W03
	.byte		        Fn4 , v080
	.byte	W03
	.byte		        Fn4 , v032
	.byte	W03
	.byte		        An4 , v080
	.byte	W03
	.byte		        An4 , v032
	.byte	W03
	.byte		        Cn5 , v080
	.byte	W03
	.byte		        Cn5 , v032
	.byte	W03
	.byte		PAN   , c_v+63
	.byte		N03   , Ds3 , v080
	.byte	W03
	.byte		        Ds3 , v032
	.byte	W03
	.byte		        Gn3 , v080
	.byte	W03
	.byte		        Gn3 , v032
	.byte	W03
	.byte		        As3 , v080
	.byte	W03
	.byte		        As3 , v032
	.byte	W03
	.byte		        Dn4 , v080
	.byte	W03
	.byte		        Dn4 , v032
	.byte	W03
	.byte		PAN   , c_v-64
	.byte		N03   , Ds4 , v080
	.byte	W03
	.byte		        Ds4 , v032
	.byte	W03
	.byte		        Gn4 , v080
	.byte	W03
	.byte		        Gn4 , v032
	.byte	W03
	.byte		        As4 , v080
	.byte	W03
	.byte		        As4 , v032
	.byte	W03
	.byte		        Ds5 , v080
	.byte	W03
	.byte		        Ds5 , v032
	.byte	W03
	.byte		PAN   , c_v+63
	.byte		N03   , Dn3 , v080
	.byte	W03
	.byte		        Dn3 , v032
	.byte	W03
	.byte		        Fn3 , v080
	.byte	W03
	.byte		        Fn3 , v032
	.byte	W03
	.byte		        An3 , v080
	.byte	W03
	.byte		        An3 , v032
	.byte	W03
	.byte		        Cn4 , v080
	.byte	W03
	.byte		        Cn4 , v032
	.byte	W03
	.byte		PAN   , c_v-64
	.byte		N03   , Dn4 , v080
	.byte	W03
	.byte		        Dn4 , v032
	.byte	W03
	.byte		        Fn4 , v080
	.byte	W03
	.byte		        Fn4 , v032
	.byte	W03
	.byte		        An4 , v080
	.byte	W03
	.byte		        An4 , v032
	.byte	W03
	.byte		        Cn5 , v080
	.byte	W03
	.byte		        Cn5 , v032
	.byte	W03
	.byte		PAN   , c_v+63
	.byte		N03   , Fn3 , v080
	.byte	W03
	.byte		        Fn3 , v032
	.byte	W03
	.byte		        An3 , v080
	.byte	W03
	.byte		        An3 , v032
	.byte	W03
	.byte		        Cn4 , v080
	.byte	W03
	.byte		        Cn4 , v032
	.byte	W03
	.byte		        Ds4 , v080
	.byte	W03
	.byte		        Ds4 , v032
	.byte	W03
	.byte		PAN   , c_v-64
	.byte		N03   , Fn4 , v080
	.byte	W03
	.byte		        Fn4 , v032
	.byte	W03
	.byte		        An4 , v080
	.byte	W03
	.byte		        An4 , v032
	.byte	W03
	.byte		        Cn5 , v080
	.byte	W03
	.byte		        Cn5 , v032
	.byte	W03
	.byte		        Ds5 , v080
	.byte	W03
	.byte		        Ds5 , v032
	.byte	W03
	.byte		PAN   , c_v+63
	.byte		N03   , Cn3 , v080
	.byte	W03
	.byte		        Cn3 , v032
	.byte	W03
	.byte		        Ds3 , v080
	.byte	W03
	.byte		        Ds3 , v032
	.byte	W03
	.byte		        Gn3 , v080
	.byte	W03
	.byte		        Gn3 , v032
	.byte	W03
	.byte		        As3 , v080
	.byte	W03
	.byte		        As3 , v032
	.byte	W03
	.byte		PAN   , c_v-64
	.byte		N03   , Ds4 , v080
	.byte	W03
	.byte		        Ds4 , v032
	.byte	W03
	.byte		        Gn4 , v080
	.byte	W03
	.byte		        Gn4 , v032
	.byte	W03
	.byte		        As4 , v080
	.byte	W03
	.byte		        As4 , v032
	.byte	W03
	.byte		        Dn5 , v080
	.byte	W03
	.byte		        Dn5 , v032
	.byte	W03
	.byte		N24   , Fn3 , v092
	.byte	W24
	.byte		N18   , Fn3 , v040
	.byte	W18
	.byte		N06   , Ds3 , v092
	.byte	W06
	.byte		PAN   , c_v+63
	.byte		N06   , Fn3 
	.byte	W06
	.byte		        Gs3 
	.byte	W06
	.byte		        Fn4 
	.byte	W06
	.byte		        Cn4 
	.byte	W06
	.byte		PAN   , c_v-64
	.byte		N06   , Fn3 
	.byte	W06
	.byte		        Gs3 
	.byte	W03
	.byte	W03
	.byte		        Fn4 
	.byte	W06
	.byte		        As3 
	.byte	W06
	.byte		PAN   , c_v+63
	.byte		N24   , Cn4 
	.byte	W24
	.byte		N18   , Cn4 , v040
	.byte	W18
	.byte		N06   , Fn3 , v092
	.byte	W06
	.byte		PAN   , c_v+63
	.byte		N06   , An3 
	.byte	W06
	.byte		        Cn4 
	.byte	W06
	.byte		        An4 
	.byte	W06
	.byte		        Fn4 
	.byte	W06
	.byte		PAN   , c_v-64
	.byte		N06   , An3 
	.byte	W06
	.byte		        Cn4 
	.byte	W03
	.byte	W03
	.byte		        An4 
	.byte	W06
	.byte		        Cn4 
	.byte	W06
	.byte		PAN   , c_v+63
	.byte		N24   , Ds4 
	.byte	W24
	.byte		N18   , Ds4 , v040
	.byte	W18
	.byte		N06   , Gs3 , v092
	.byte	W06
	.byte		PAN   , c_v+63
	.byte		N06   , Cn4 
	.byte	W06
	.byte		        Ds4 
	.byte	W06
	.byte		        Gs4 
	.byte	W06
	.byte		        Ds4 
	.byte	W06
	.byte		PAN   , c_v-64
	.byte		N06   , Cn4 
	.byte	W06
	.byte		        Ds4 
	.byte	W03
	.byte	W03
	.byte		        Gs4 
	.byte	W06
	.byte		        Cn4 
	.byte	W06
	.byte		N12   , Fn3 
	.byte	W12
	.byte		N06   , Fn3 , v040
	.byte	W24
	.byte		        Fn3 , v092
	.byte	W06
	.byte		        Fn3 , v040
	.byte	W06
	.byte		PAN   , c_v+63
	.byte		N12   , Fn3 , v092
	.byte	W12
	.byte		N06   , Fn3 , v040
	.byte	W21
	.byte	W03
	.byte		        Fn3 , v092
	.byte	W06
	.byte		        Fn3 , v040
	.byte	W06
	.byte		VOICE , 2
	.byte		PAN   , c_v-64
	.byte		N06   , Cn3 , v092
	.byte	W06
	.byte		        Ds3 
	.byte	W06
	.byte		        As3 
	.byte	W06
	.byte		PAN   , c_v+63
	.byte		N06   , Cn3 
	.byte	W06
	.byte		        Ds3 
	.byte	W06
	.byte		        Cn3 
	.byte	W06
	.byte		PAN   , c_v-64
	.byte		N06   , As3 
	.byte	W06
	.byte		        Ds3 
	.byte	W06
	.byte		        As3 
	.byte	W06
	.byte		PAN   , c_v+63
	.byte		N06   , Cn3 
	.byte	W06
	.byte		        Ds3 
	.byte	W06
	.byte		        As3 
	.byte	W06
	.byte		PAN   , c_v-64
	.byte		N06   , Cn3 
	.byte	W06
	.byte		        Ds3 
	.byte	W03
	.byte	PATT
	 .word	seq_000_0 + 0x54
	.byte	PATT
	 .word	seq_000_0 + 0x87
	.byte	PATT
	 .word	seq_000_0 + 0xBA
	.byte	PATT
	 .word	seq_000_0 + 0xED
	.byte	GOTO
	 .word	seq_000_0 + 0xF5
	.byte	FINE

@*********************** Track 02 ***********************@

seq_000_1:
	.byte	KEYSH , seq_000_key+0
	.byte	W01
	.byte		VOICE , 7
	.byte	W01
	.byte		VOL   , 103*seq_000_mvl/mxv
	.byte	W01
	.byte		PAN   , c_v+0
	.byte	W01
	.byte		BEND  , c_v+0
	.byte	W01
	.byte		LFOS  , 28
	.byte	W01
	.byte		LFODL , 14
	.byte	W01
	.byte		MODT  , mod_vib
	.byte	W01
	.byte		MOD   , 7
	.byte	W01
	.byte	W01
	.byte		XCMD  , xIECV , 40
	.byte	W01
	.byte	W01
	.byte		        xIECL , 4
	.byte	W03
	.byte		N24   , Cn3 , v080
	.byte	W24
	.byte		        Cn3 , v040
	.byte	W24
	.byte		N06   , Dn4 , v080
	.byte	W06
	.byte		        Ds4 
	.byte	W06
	.byte		        Gn4 
	.byte	W06
	.byte		        As4 
	.byte	W06
	.byte		        Dn4 , v052
	.byte	W06
	.byte		        Ds4 
	.byte	W03
	.byte	W03
	.byte		N06   , Gn4 , v052
	.byte	W06
	.byte		        As4 
	.byte	W06
	.byte		N24   , Dn3 , v080
	.byte	W24
	.byte		        Dn3 , v040
	.byte	W24
	.byte		N06   , Dn4 , v080
	.byte	W06
	.byte		        Ds4 
	.byte	W06
	.byte		        Gn4 
	.byte	W06
	.byte		        As4 
	.byte	W06
	.byte		        Dn4 , v052
	.byte	W06
	.byte		        Ds4 
	.byte	W03
	.byte	PEND
	.byte	W03
	.byte		N06   , Gn4 , v052
	.byte	W06
	.byte		        As4 
	.byte	W06
	.byte		N24   , Ds3 , v080
	.byte	W24
	.byte		        Ds3 , v040
	.byte	W24
	.byte		N06   , Dn4 , v080
	.byte	W06
	.byte		        Ds4 
	.byte	W06
	.byte		        Gn4 
	.byte	W06
	.byte		        As4 
	.byte	W06
	.byte		        Dn4 , v052
	.byte	W06
	.byte		        Ds4 
	.byte	W03
	.byte	PEND
	.byte	W03
	.byte		N06   , Gn4 , v052
	.byte	W06
	.byte		        As4 
	.byte	W06
	.byte		N24   , Dn3 , v080
	.byte	W24
	.byte		        Dn3 , v040
	.byte	W24
	.byte		N06   , Dn4 , v080
	.byte	W06
	.byte		        Ds4 
	.byte	W06
	.byte		        Fn4 
	.byte	W06
	.byte		        As4 
	.byte	W06
	.byte		        Dn4 , v052
	.byte	W06
	.byte		        Ds4 
	.byte	W03
	.byte	PEND
	.byte	W03
	.byte		N06   , Fn4 , v052
	.byte	W06
	.byte		        As4 
	.byte	W06
	.byte	PEND
	.byte		N06   , Cn4 , v100
	.byte	W12
	.byte		        Dn4 
	.byte	W12
	.byte		        Ds4 
	.byte	W12
	.byte		N12   , Fn4 
	.byte	W18
	.byte		N06   , Fn4 , v060
	.byte	W06
	.byte		        Gn4 , v100
	.byte	W12
	.byte		        As4 
	.byte	W06
	.byte		        As4 , v060
	.byte	W03
	.byte	W03
	.byte		N12   , Cn4 , v100
	.byte	W18
	.byte		N06   , Cn4 , v060
	.byte	W06
	.byte		        Dn4 , v100
	.byte	W12
	.byte		        Ds4 
	.byte	W12
	.byte		N12   , Fn4 
	.byte	W18
	.byte		N06   , Fn4 , v060
	.byte	W06
	.byte		        Dn4 , v100
	.byte	W12
	.byte		        As3 
	.byte	W09
	.byte	PEND
	.byte	W03
	.byte		N06   , As3 , v060
	.byte	W12
	.byte		        Cn4 , v100
	.byte	W12
	.byte		        Dn4 
	.byte	W12
	.byte		        Ds4 
	.byte	W12
	.byte		N12   , Fn4 
	.byte	W18
	.byte		N06   , Fn4 , v060
	.byte	W06
	.byte		        Gn4 , v100
	.byte	W12
	.byte		        As4 
	.byte	W06
	.byte		        As4 , v060
	.byte	W03
	.byte	PEND
	.byte	W03
	.byte		N12   , Cn4 , v100
	.byte	W18
	.byte		N06   , Cn4 , v060
	.byte	W06
	.byte		        Dn4 , v100
	.byte	W12
	.byte		        Ds4 
	.byte	W12
	.byte		N12   , Fn4 
	.byte	W18
	.byte		N06   , Fn4 , v060
	.byte	W06
	.byte		        Cn5 , v100
	.byte	W12
	.byte		        An4 
	.byte	W09
	.byte	W03
	.byte		        An4 , v060
	.byte	W12
	.byte		        Cn4 , v100
	.byte	W12
	.byte		        Dn4 
	.byte	W12
	.byte		        Ds4 
	.byte	W12
	.byte		N12   , Fn4 
	.byte	W18
	.byte		N06   , Fn4 , v060
	.byte	W06
	.byte		        Gn4 , v100
	.byte	W12
	.byte		        As4 
	.byte	W06
	.byte		        As4 , v060
	.byte	W03
	.byte	PATT
	 .word	seq_000_1 + 0xB3
	.byte	PATT
	 .word	seq_000_1 + 0xCE
	.byte	W03
	.byte		N12   , Cn4 , v100
	.byte	W18
	.byte		N06   , Cn4 , v060
	.byte	W06
	.byte		        Dn4 , v100
	.byte	W12
	.byte		        Ds4 
	.byte	W12
	.byte		N12   , Fn4 
	.byte	W18
	.byte		N06   , Fn4 , v060
	.byte	W06
	.byte		        As4 , v100
	.byte	W12
	.byte		        Cn5 
	.byte	W09
	.byte	W03
	.byte		        Cn5 , v060
	.byte	W12
	.byte		PAN   , c_v+63
	.byte		N24   , Gn3 , v092
	.byte	W24
	.byte		        Gn3 , v060
	.byte	W24
	.byte		PAN   , c_v-64
	.byte		N24   , Fn3 , v092
	.byte	W24
	.byte		        Fn3 , v060
	.byte	W09
	.byte	W15
	.byte		PAN   , c_v+63
	.byte		N24   , Ds3 , v092
	.byte	W24
	.byte		        Ds3 , v060
	.byte	W24
	.byte		PAN   , c_v-64
	.byte		N24   , Dn3 , v092
	.byte	W24
	.byte		        Dn3 , v060
	.byte	W09
	.byte	W15
	.byte		VOICE , 6
	.byte		MOD   , 5
	.byte		PAN   , c_v+0
	.byte		N36   , As3 , v092
	.byte	W36
	.byte		N12   , As3 , v052
	.byte	W12
	.byte		N18   , Cn4 , v092
	.byte	W18
	.byte		N06   , Cn4 , v052
	.byte	W06
	.byte		N18   , Fn4 , v092
	.byte	W09
	.byte	W09
	.byte		N06   , Fn4 , v052
	.byte	W06
	.byte		N24   , Ds4 , v092
	.byte	W24
	.byte		N06   , Ds4 , v052
	.byte	W12
	.byte		        Dn4 , v092
	.byte	W06
	.byte		        Dn4 , v052
	.byte	W06
	.byte		N24   , As3 , v092
	.byte	W24
	.byte		N12   , As3 , v052
	.byte	W09
	.byte	W03
	.byte		N06   , Dn4 , v092
	.byte	W06
	.byte		        Dn4 , v052
	.byte	W06
	.byte		N24   , Cn4 , v092
	.byte	W24
	.byte		        Cn4 , v040
	.byte	W56
	.byte	W01
	.byte	W03
	.byte		N06   , Ds4 , v092
	.byte	W06
	.byte		        Ds4 , v052
	.byte	W06
	.byte		N24   , Fn4 , v092
	.byte	W24
	.byte		        Fn4 , v040
	.byte	W56
	.byte	W01
	.byte	W03
	.byte		N06   , Gn4 , v092
	.byte	W06
	.byte		        Gn4 , v052
	.byte	W06
	.byte		N24   , Gs4 , v092
	.byte	W24
	.byte		        Gs4 , v040
	.byte	W56
	.byte	W01
	.byte	W36
	.byte	W03
	.byte		N12   , Cs5 , v092
	.byte	W12
	.byte		        Cs5 , v040
	.byte	W12
	.byte		        As4 , v092
	.byte	W12
	.byte		        As4 , v040
	.byte	W12
	.byte		        Gs4 , v092
	.byte	W09
	.byte	W03
	.byte		        Gs4 , v040
	.byte	W12
	.byte		N18   , As4 , v092
	.byte	W18
	.byte		        As4 , v040
	.byte	W30
	.byte		VOICE , 7
	.byte		MOD   , 7
	.byte		N06   , Dn4 , v080
	.byte	W06
	.byte		        Ds4 
	.byte	W06
	.byte		        Gn4 
	.byte	W06
	.byte		        As4 
	.byte	W06
	.byte		        Dn4 , v052
	.byte	W06
	.byte		        Ds4 
	.byte	W03
	.byte	PATT
	 .word	seq_000_1 + 0x3A
	.byte	PATT
	 .word	seq_000_1 + 0x58
	.byte	PATT
	 .word	seq_000_1 + 0x76
	.byte	PATT
	 .word	seq_000_1 + 0x94
	.byte	GOTO
	 .word	seq_000_1 + 0x9C
	.byte	FINE

@*********************** Track 03 ***********************@

seq_000_2:
	.byte	KEYSH , seq_000_key+0
	.byte	W01
	.byte		VOICE , 16
	.byte	W01
	.byte		VOL   , 113*seq_000_mvl/mxv
	.byte	W01
	.byte		PAN   , c_v+0
	.byte	W01
	.byte		BEND  , c_v+0
	.byte	W01
	.byte		LFOS  , 28
	.byte	W01
	.byte		LFODL , 14
	.byte	W01
	.byte		MODT  , mod_vib
	.byte	W01
	.byte		MOD   , 10
	.byte	W01
	.byte	W01
	.byte		XCMD  , xIECV , 30
	.byte	W01
	.byte	W01
	.byte		        xIECL , 3
	.byte	W03
	.byte		N03   , Cn2 , v120
	.byte	W12
	.byte		N03
	.byte	W06
	.byte		N03
	.byte	W12
	.byte		N03
	.byte	W12
	.byte		N03
	.byte	W06
	.byte		N03
	.byte	W12
	.byte		        Ds2 
	.byte	W06
	.byte		        As1 
	.byte	W06
	.byte		        Cn2 
	.byte	W06
	.byte		        Cn3 
	.byte	W03
	.byte	W09
	.byte		N03   , Gn2 , v120
	.byte	W06
	.byte		        Cn2 
	.byte	W12
	.byte		N03
	.byte	W06
	.byte		N03
	.byte	W12
	.byte		N03
	.byte	W12
	.byte		N03
	.byte	W06
	.byte		N03
	.byte	W12
	.byte		        Ds2 
	.byte	W06
	.byte		        As1 
	.byte	W06
	.byte		        Cn2 
	.byte	W06
	.byte		        Cn3 
	.byte	W03
	.byte	PEND
	.byte	PATT
	 .word	seq_000_2 + 0x3A
	.byte	PATT
	 .word	seq_000_2 + 0x3A
	.byte	W09
	.byte		N03   , Gn2 , v120
	.byte	W06
	.byte		N03   , Cn2 , v120
	.byte	W12
	.byte		N03
	.byte	W06
	.byte		N03
	.byte	W12
	.byte		N03
	.byte	W12
	.byte		N03
	.byte	W06
	.byte		N03
	.byte	W12
	.byte		        Ds2 
	.byte	W06
	.byte		        As1 
	.byte	W06
	.byte		        Cn2 
	.byte	W06
	.byte		        Cn3 
	.byte	W03
	.byte	PATT
	 .word	seq_000_2 + 0x3A
	.byte	PATT
	 .word	seq_000_2 + 0x3A
	.byte	PATT
	 .word	seq_000_2 + 0x3A
	.byte	PATT
	 .word	seq_000_2 + 0x3A
	.byte	PATT
	 .word	seq_000_2 + 0x3A
	.byte	PATT
	 .word	seq_000_2 + 0x3A
	.byte	PATT
	 .word	seq_000_2 + 0x3A
	.byte	W03
	.byte		N03   , Gn2 , v120
	.byte	W06
	.byte		        Dn2 
	.byte	W06
	.byte		        Ds2 
	.byte	W12
	.byte		        Ds3 
	.byte	W06
	.byte		        Ds2 
	.byte	W06
	.byte		N03
	.byte	W06
	.byte		        Ds3 
	.byte	W12
	.byte		        As2 
	.byte	W06
	.byte		        Fn2 
	.byte	W12
	.byte		        Fn3 
	.byte	W06
	.byte		        Ds2 
	.byte	W06
	.byte		        Fn2 
	.byte	W06
	.byte		        Fn3 
	.byte	W03
	.byte	W09
	.byte		        Cn3 
	.byte	W06
	.byte		        Dn2 
	.byte	W12
	.byte		        Dn3 
	.byte	W06
	.byte		        Dn2 
	.byte	W06
	.byte		N03
	.byte	W06
	.byte		        Dn3 
	.byte	W12
	.byte		        An2 
	.byte	W06
	.byte		        Gn2 
	.byte	W12
	.byte		        Dn3 
	.byte	W06
	.byte		        Gn1 
	.byte	W06
	.byte		        Gn2 
	.byte	W06
	.byte		        Gn3 
	.byte	W03
	.byte	W09
	.byte		        Cn3 
	.byte	W06
	.byte		        Ds2 
	.byte	W12
	.byte		        Ds3 
	.byte	W06
	.byte		        Ds2 
	.byte	W06
	.byte		N03
	.byte	W06
	.byte		        Ds3 
	.byte	W12
	.byte		        As2 
	.byte	W06
	.byte		        Fn2 
	.byte	W12
	.byte		        Fn3 
	.byte	W06
	.byte		        Ds2 
	.byte	W06
	.byte		        Fn2 
	.byte	W06
	.byte		        Fn3 
	.byte	W03
	.byte	W09
	.byte		        Cn3 
	.byte	W06
	.byte		        Dn2 
	.byte	W12
	.byte		        Dn3 
	.byte	W06
	.byte		        Dn2 
	.byte	W06
	.byte		N03
	.byte	W06
	.byte		        Dn3 
	.byte	W12
	.byte		        An2 
	.byte	W06
	.byte		        Cn2 
	.byte	W12
	.byte		        Ds2 
	.byte	W06
	.byte		        As1 
	.byte	W06
	.byte		        Cn2 
	.byte	W06
	.byte		        Cn3 
	.byte	W03
	.byte	W09
	.byte		        Gn2 
	.byte	W06
	.byte		        Cs2 
	.byte	W12
	.byte		N12
	.byte	W18
	.byte		N03
	.byte	W12
	.byte		N03
	.byte	W06
	.byte		N03
	.byte	W06
	.byte		N09   , Gs2 
	.byte	W12
	.byte		        Cs3 
	.byte	W12
	.byte		N03   , Gs2 
	.byte	W03
	.byte	W09
	.byte		        Cs2 
	.byte	W06
	.byte		        Dn2 
	.byte	W12
	.byte		N12
	.byte	W18
	.byte		N03
	.byte	W12
	.byte		N03
	.byte	W06
	.byte		N03
	.byte	W06
	.byte		N09   , An2 
	.byte	W12
	.byte		        Dn3 
	.byte	W12
	.byte		N03   , An2 
	.byte	W03
	.byte	W09
	.byte		        Dn2 
	.byte	W06
	.byte		        Cs2 
	.byte	W12
	.byte		N12
	.byte	W18
	.byte		N03
	.byte	W12
	.byte		N03
	.byte	W06
	.byte		N03
	.byte	W06
	.byte		N09   , Gs2 
	.byte	W12
	.byte		        Cs3 
	.byte	W12
	.byte		N03   , Gs2 
	.byte	W03
	.byte	W09
	.byte		        Cn2 
	.byte	W06
	.byte		N36   , Cs2 
	.byte	W44
	.byte	W01
	.byte		N09   , Cs2 , v060
	.byte	W36
	.byte	W15
	.byte		N03   , Cn2 , v120
	.byte	W12
	.byte		N03
	.byte	W06
	.byte		N03
	.byte	W12
	.byte		N03
	.byte	W12
	.byte		N03
	.byte	W06
	.byte		N03
	.byte	W12
	.byte		        Ds2 
	.byte	W06
	.byte		        As1 
	.byte	W06
	.byte		        Cn2 
	.byte	W06
	.byte		        Cn3 
	.byte	W03
	.byte	PATT
	 .word	seq_000_2 + 0x3A
	.byte	PATT
	 .word	seq_000_2 + 0x3A
	.byte	PATT
	 .word	seq_000_2 + 0x3A
	.byte	W09
	.byte		N03   , Gn2 , v120
	.byte	W06
	.byte	GOTO
	 .word	seq_000_2 + 0x63
	.byte	FINE

@*********************** Track 04 ***********************@

seq_000_3:
	.byte	KEYSH , seq_000_key+0
	.byte	W01
	.byte		VOICE , 0
	.byte	W01
	.byte		VOL   , 89*seq_000_mvl/mxv
	.byte	W01
	.byte		PAN   , c_v+0
	.byte	W01
	.byte		BEND  , c_v+0
	.byte	W11
	.byte		N15   , Fs1 , v072
	.byte		N06   , Bn1 , v100
	.byte	W18
	.byte		N03   , Ds1 , v032
	.byte	W06
	.byte		        Ds1 , v072
	.byte		N06   , Cn2 
	.byte	W06
	.byte		N03   , Ds1 , v032
	.byte	W06
	.byte		        Ds1 , v040
	.byte		N06   , Bn1 , v100
	.byte	W06
	.byte		N03   , Ds1 , v032
	.byte	W06
	.byte		        Ds1 , v072
	.byte		N06   , Bn1 , v100
	.byte	W06
	.byte		N03   , Ds1 , v032
	.byte	W06
	.byte		        Ds1 , v040
	.byte		N06   , Bn1 , v100
	.byte	W06
	.byte		N03   , Ds1 , v032
	.byte	W06
	.byte		        Ds1 , v072
	.byte		N06   , Cn2 
	.byte	W06
	.byte		N03   , En1 
	.byte	W03
	.byte	W03
	.byte		N03   , Ds1 , v040
	.byte		N06   , Bn1 , v100
	.byte	W06
	.byte		N03   , Ds1 , v032
	.byte	W06
	.byte		        Ds1 , v072
	.byte		N06   , Bn1 , v100
	.byte	W06
	.byte		N03   , Ds1 , v032
	.byte	W06
	.byte		        Ds1 , v040
	.byte	W06
	.byte		        Ds1 , v032
	.byte	W06
	.byte		        Ds1 , v072
	.byte		N06   , Cn2 
	.byte	W06
	.byte		N03   , Ds1 , v032
	.byte	W06
	.byte		        Ds1 , v040
	.byte		N06   , Bn1 , v100
	.byte	W06
	.byte		N03   , Ds1 , v032
	.byte	W06
	.byte		        Ds1 , v072
	.byte		N06   , Bn1 , v100
	.byte	W06
	.byte		N03   , Ds1 , v032
	.byte	W06
	.byte		        Ds1 , v040
	.byte		N06   , Bn1 , v100
	.byte	W06
	.byte		N03   , Ds1 , v032
	.byte	W06
	.byte		        Ds1 , v072
	.byte		N06   , Cn2 
	.byte	W06
	.byte		N03   , En1 
	.byte	W03
	.byte	PEND
	.byte	PATT
	 .word	seq_000_3 + 0x49
	.byte	W03
	.byte		N03   , Ds1 , v040
	.byte		N06   , Bn1 , v100
	.byte	W06
	.byte		N03   , Ds1 , v032
	.byte	W06
	.byte		        Ds1 , v072
	.byte		N06   , Bn1 , v100
	.byte	W06
	.byte		N03   , Ds1 , v032
	.byte	W06
	.byte		        Ds1 , v040
	.byte	W06
	.byte		        Ds1 , v032
	.byte	W06
	.byte		        Ds1 , v072
	.byte		N06   , Cn2 
	.byte	W06
	.byte		N03   , Ds1 , v032
	.byte	W06
	.byte		        Ds1 , v040
	.byte		N06   , Bn1 , v100
	.byte	W06
	.byte		N03   , Ds1 , v032
	.byte	W06
	.byte		        Ds1 , v072
	.byte		N06   , Bn1 , v100
	.byte	W06
	.byte		N03   , Ds1 , v032
	.byte	W06
	.byte		        Ds1 , v040
	.byte		N06   , Bn1 , v100
	.byte	W06
	.byte		N03   , Ds1 , v032
	.byte	W06
	.byte		        Ds1 , v072
	.byte		N06   , An2 , v112
	.byte	W06
	.byte		N03   , En1 , v072
	.byte		N06   , Gs2 , v112
	.byte	W03
	.byte	PEND
	.byte	W03
	.byte		N03   , Ds1 , v040
	.byte		N06   , Bn1 , v100
	.byte	W06
	.byte		N03   , Ds1 , v032
	.byte		N06   , Gn2 , v112
	.byte	W06
	.byte	PEND
	.byte		N24   , Fs1 , v072
	.byte		N06   , Bn1 , v100
	.byte	W24
	.byte		N03   , Ds1 , v072
	.byte		N06   , Cn2 
	.byte	W06
	.byte		N03   , Ds1 , v032
	.byte	W06
	.byte		        Ds1 , v040
	.byte		N06   , Bn1 , v100
	.byte	W06
	.byte		N03   , Ds1 , v032
	.byte	W06
	.byte		        Ds1 , v072
	.byte		N06   , Bn1 , v100
	.byte	W06
	.byte		N03   , Ds1 , v032
	.byte	W06
	.byte		        Ds1 , v040
	.byte		N06   , Bn1 , v100
	.byte	W06
	.byte		N03   , Ds1 , v032
	.byte	W06
	.byte		        Ds1 , v072
	.byte		N06   , Cn2 
	.byte	W06
	.byte		N03   , En1 
	.byte	W03
	.byte	PATT
	 .word	seq_000_3 + 0x49
	.byte	PATT
	 .word	seq_000_3 + 0x49
	.byte	PATT
	 .word	seq_000_3 + 0x49
	.byte	W03
	.byte		N03   , Ds1 , v040
	.byte		N06   , Bn1 , v100
	.byte	W06
	.byte		N03   , Ds1 , v032
	.byte	W06
	.byte		        En1 , v072
	.byte		N06   , Bn1 , v100
	.byte	W06
	.byte		N03   , Ds1 , v032
	.byte	W06
	.byte		        Ds1 , v040
	.byte	W06
	.byte		        Ds1 , v032
	.byte	W06
	.byte		        Ds1 , v072
	.byte		N06   , Cn2 
	.byte	W06
	.byte		N03   , Ds1 , v032
	.byte	W06
	.byte		        Ds1 , v040
	.byte		N06   , Bn1 , v100
	.byte	W06
	.byte		N03   , Ds1 , v032
	.byte	W06
	.byte		        Ds1 , v072
	.byte		N06   , Bn1 , v100
	.byte	W06
	.byte		N03   , Ds1 , v032
	.byte	W06
	.byte		        Ds1 , v040
	.byte		N06   , Bn1 , v100
	.byte	W06
	.byte		N03   , Ds1 , v032
	.byte	W06
	.byte		        Ds1 , v072
	.byte		N06   , Cn2 
	.byte	W06
	.byte		N03   , En1 
	.byte	W03
	.byte	PATT
	 .word	seq_000_3 + 0x49
	.byte	PATT
	 .word	seq_000_3 + 0x49
	.byte	W03
	.byte		N03   , Ds1 , v040
	.byte		N06   , Bn1 , v100
	.byte	W06
	.byte		N03   , Ds1 , v032
	.byte	W06
	.byte		        Ds1 , v072
	.byte		N06   , Bn1 , v100
	.byte	W06
	.byte		N03   , Ds1 , v032
	.byte	W06
	.byte		        Ds1 , v040
	.byte	W06
	.byte		        Ds1 , v032
	.byte	W06
	.byte		        Ds1 , v072
	.byte		N06   , Cn2 
	.byte	W06
	.byte		N03   , Ds1 , v032
	.byte	W06
	.byte		        Ds1 , v040
	.byte		N06   , Bn1 , v100
	.byte	W06
	.byte		N03   , Ds1 , v032
	.byte	W06
	.byte		        Ds1 , v072
	.byte		N06   , Bn1 , v100
	.byte	W06
	.byte		N03   , Ds1 , v032
	.byte	W06
	.byte		        Ds1 , v040
	.byte		N06   , Bn1 , v100
	.byte	W06
	.byte		N03   , Ds1 , v032
	.byte	W06
	.byte		        Ds1 , v072
	.byte		N06   , Cn2 , v080
	.byte	W06
	.byte		N03   , En1 , v072
	.byte		N06   , Cs2 , v052
	.byte	W03
	.byte	W03
	.byte		N03   , Ds1 , v040
	.byte		N06   , Bn1 , v100
	.byte	W06
	.byte		N03   , Ds1 , v032
	.byte	W06
	.byte		N24   , Fs1 , v072
	.byte		N06   , Bn1 , v100
	.byte	W24
	.byte		N03   , Ds1 , v072
	.byte		N06   , Cn2 
	.byte	W06
	.byte		N03   , Ds1 , v032
	.byte	W06
	.byte		        Ds1 , v040
	.byte		N06   , Bn1 , v100
	.byte	W06
	.byte		N03   , Ds1 , v032
	.byte	W06
	.byte		        Ds1 , v072
	.byte		N06   , Bn1 , v100
	.byte	W06
	.byte		N03   , Ds1 , v032
	.byte	W06
	.byte		        Ds1 , v040
	.byte	W06
	.byte		        Ds1 , v032
	.byte		N06   , Bn1 , v100
	.byte	W06
	.byte		N03   , Ds1 , v072
	.byte		N06   , Cn2 
	.byte	W06
	.byte		N03   , En1 
	.byte	W03
	.byte	W03
	.byte		N03   , Ds1 , v040
	.byte		N06   , Bn1 , v100
	.byte	W06
	.byte		N03   , Ds1 , v032
	.byte	W06
	.byte		        Ds1 , v072
	.byte		N06   , Bn1 , v100
	.byte	W06
	.byte		N03   , Ds1 , v032
	.byte	W06
	.byte		        Ds1 , v040
	.byte	W06
	.byte		        Ds1 , v032
	.byte	W06
	.byte		        Ds1 , v072
	.byte		N06   , Cn2 
	.byte	W06
	.byte		N03   , Ds1 , v032
	.byte	W06
	.byte		        Ds1 , v040
	.byte		N06   , Bn1 , v100
	.byte	W06
	.byte		N03   , Ds1 , v032
	.byte	W06
	.byte		        Ds1 , v072
	.byte		N06   , Bn1 , v100
	.byte	W06
	.byte		N03   , Ds1 , v032
	.byte	W06
	.byte		        Ds1 , v040
	.byte	W06
	.byte		        Ds1 , v032
	.byte		N06   , Bn1 , v100
	.byte	W06
	.byte		N03   , Ds1 , v072
	.byte		N06   , Cn2 
	.byte	W06
	.byte		N03   , En1 
	.byte	W03
	.byte	PEND
	.byte	PATT
	 .word	seq_000_3 + 0x229
	.byte	PATT
	 .word	seq_000_3 + 0x229
	.byte	W03
	.byte		N03   , Ds1 , v040
	.byte		N06   , Bn1 , v100
	.byte	W06
	.byte		N03   , Ds1 , v032
	.byte	W06
	.byte		N15   , Fs1 , v072
	.byte		N06   , Bn1 , v100
	.byte	W18
	.byte		N03   , Ds1 , v032
	.byte	W06
	.byte		        Ds1 , v072
	.byte		N06   , Cn2 
	.byte	W06
	.byte		N03   , Ds1 , v032
	.byte	W06
	.byte		        Ds1 , v040
	.byte		N06   , Bn1 , v100
	.byte	W06
	.byte		N03   , Ds1 , v032
	.byte	W06
	.byte		        Ds1 , v072
	.byte		N06   , Bn1 , v100
	.byte	W06
	.byte		N03   , Ds1 , v032
	.byte	W06
	.byte		        Ds1 , v040
	.byte		N06   , An2 , v112
	.byte	W06
	.byte		N03   , Ds1 , v032
	.byte		N06   , Bn1 , v100
	.byte	W06
	.byte		N03   , Ds1 , v072
	.byte	W06
	.byte		        En1 
	.byte		N06   , Gs2 , v112
	.byte	W03
	.byte	W03
	.byte		N03   , Ds1 , v040
	.byte		N06   , Bn1 , v100
	.byte	W06
	.byte		N03   , Ds1 , v032
	.byte	W06
	.byte		N09   , En1 , v080
	.byte		N06   , Bn1 , v100
	.byte	W12
	.byte		N03   , Ds1 , v040
	.byte	W06
	.byte		        Ds1 , v032
	.byte	W06
	.byte		        Ds1 , v072
	.byte		N06   , Cn2 
	.byte	W06
	.byte		N03   , Ds1 , v032
	.byte	W06
	.byte		        Ds1 , v040
	.byte		N06   , Bn1 , v100
	.byte	W06
	.byte		N03   , Ds1 , v032
	.byte	W06
	.byte		        Ds1 , v072
	.byte		N06   , Bn1 , v100
	.byte	W06
	.byte		N03   , Ds1 , v032
	.byte	W06
	.byte		        Ds1 , v040
	.byte		N06   , Gs2 , v112
	.byte	W06
	.byte		N03   , Ds1 , v032
	.byte		N06   , Bn1 , v100
	.byte	W06
	.byte		N03   , Ds1 , v072
	.byte		N12   , Gn2 , v112
	.byte	W06
	.byte		N03   , En1 , v072
	.byte	W03
	.byte	W03
	.byte		        Ds1 , v040
	.byte		N06   , Bn1 , v100
	.byte	W06
	.byte		N03   , Ds1 , v032
	.byte	W06
	.byte		N15   , Fs1 , v072
	.byte		N06   , Bn1 , v100
	.byte	W18
	.byte		N03   , Ds1 , v032
	.byte	W06
	.byte		        Ds1 , v072
	.byte		N06   , Cn2 
	.byte	W06
	.byte		N03   , Ds1 , v032
	.byte	W06
	.byte		        Ds1 , v040
	.byte		N06   , Bn1 , v100
	.byte	W06
	.byte		N03   , Ds1 , v032
	.byte	W06
	.byte		        Ds1 , v072
	.byte		N06   , Bn1 , v100
	.byte	W06
	.byte		N03   , Ds1 , v032
	.byte	W06
	.byte		        Ds1 , v040
	.byte	W06
	.byte		        Ds1 , v032
	.byte		N06   , Bn1 , v100
	.byte	W06
	.byte		N03   , Ds1 , v072
	.byte		N06   , Cn2 
	.byte	W06
	.byte		N03   , En1 
	.byte	W03
	.byte	W03
	.byte		        Ds1 , v040
	.byte		N06   , Bn1 , v100
	.byte	W06
	.byte		N03   , Ds1 , v032
	.byte	W06
	.byte		N09   , En1 , v080
	.byte		N06   , Bn1 , v100
	.byte	W12
	.byte		N03   , Ds1 , v040
	.byte	W06
	.byte		        Ds1 , v032
	.byte	W06
	.byte		        Ds1 , v072
	.byte		N06   , Cn2 
	.byte	W06
	.byte		N03   , Ds1 , v032
	.byte	W06
	.byte		        Ds1 , v040
	.byte	W06
	.byte		        Ds1 , v032
	.byte	W06
	.byte		        Ds1 , v072
	.byte		N06   , Bn1 , v100
	.byte	W06
	.byte		N03   , Ds1 , v032
	.byte	W06
	.byte		        Ds1 , v040
	.byte	W06
	.byte		        Ds1 , v032
	.byte	W06
	.byte		        Ds1 , v072
	.byte		N06   , An2 , v112
	.byte	W06
	.byte		N03   , En1 , v072
	.byte		N06   , Gs2 , v112
	.byte	W03
	.byte	W03
	.byte		N03   , Ds1 , v040
	.byte		N12   , Gn2 , v112
	.byte	W06
	.byte		N03   , Ds1 , v032
	.byte	W06
	.byte		N15   , Fs1 , v072
	.byte		N06   , Bn1 , v100
	.byte	W18
	.byte		N03   , Ds1 , v032
	.byte	W06
	.byte		        Ds1 , v072
	.byte		N06   , Cn2 
	.byte	W06
	.byte		N03   , Ds1 , v032
	.byte	W06
	.byte		        Ds1 , v040
	.byte		N06   , Bn1 , v100
	.byte	W06
	.byte		N03   , Ds1 , v032
	.byte	W06
	.byte		        Ds1 , v072
	.byte		N06   , Bn1 , v100
	.byte	W06
	.byte		N03   , Ds1 , v032
	.byte	W06
	.byte		        Ds1 , v040
	.byte		N06   , Bn1 , v100
	.byte	W06
	.byte		N03   , Ds1 , v032
	.byte	W06
	.byte		        Ds1 , v072
	.byte		N06   , Cn2 
	.byte	W06
	.byte		N03   , En1 
	.byte	W03
	.byte	PATT
	 .word	seq_000_3 + 0x49
	.byte	PATT
	 .word	seq_000_3 + 0x49
	.byte	PATT
	 .word	seq_000_3 + 0x9A
	.byte	PATT
	 .word	seq_000_3 + 0xEB
	.byte	GOTO
	 .word	seq_000_3 + 0xFB
	.byte	FINE

@*********************** Track 05 ***********************@

seq_000_4:
	.byte	KEYSH , seq_000_key+0
	.byte		VOICE , 21
	.byte	W01
	.byte		VOL   , 47*seq_000_mvl/mxv
	.byte	W01
	.byte		PAN   , c_v+0
	.byte	W01
	.byte		BEND  , c_v+0
	.byte	W92
	.byte	W01
	.byte	W96
	.byte	W96
	.byte	W96
	.byte	W15
	.byte	W80
	.byte	W01
	.byte	W96
	.byte	W96
	.byte	W96
	.byte	W96
	.byte	W96
	.byte	W96
	.byte	W96
	.byte	W96
	.byte	W96
	.byte	W15
	.byte		PAN   , c_v+63
	.byte		N24   , Dn3 , v092
	.byte	W48
	.byte		PAN   , c_v-64
	.byte		N24   , Ds3 
	.byte	W32
	.byte	W01
	.byte	W15
	.byte		PAN   , c_v+63
	.byte		N24   , Fn3 
	.byte	W48
	.byte		PAN   , c_v-64
	.byte		N24   , Gn3 
	.byte	W32
	.byte	W01
	.byte	W15
	.byte		PAN   , c_v+63
	.byte		N48   , Gs3 , v080
	.byte	W80
	.byte	W01
	.byte	W15
	.byte		PAN   , c_v-64
	.byte		N48   , An3 
	.byte	W80
	.byte	W01
	.byte	W15
	.byte		PAN   , c_v+63
	.byte		N48   , Cn4 
	.byte	W80
	.byte	W01
	.byte	W96
	.byte	W96
	.byte	W96
	.byte	W96
	.byte	W96
	.byte	W15
	.byte	GOTO
	 .word	seq_000_4 + 0x13
	.byte	FINE

@*********************** Track 06 ***********************@

seq_000_5:
	.byte	KEYSH , seq_000_key+0
	.byte		VOICE , 22
	.byte	W01
	.byte		VOL   , 94*seq_000_mvl/mxv
	.byte	W01
	.byte		PAN   , c_v+0
	.byte	W01
	.byte		BEND  , c_v+0
	.byte	W12
	.byte		VOL   , 66*seq_000_mvl/mxv
	.byte		N96   , Gn2 , v124
	.byte	W42
	.byte		VOL   , 66*seq_000_mvl/mxv
	.byte	W06
	.byte		        58*seq_000_mvl/mxv
	.byte	W06
	.byte		        64*seq_000_mvl/mxv
	.byte	W06
	.byte		        69*seq_000_mvl/mxv
	.byte	W06
	.byte		        75*seq_000_mvl/mxv
	.byte	W06
	.byte		        81*seq_000_mvl/mxv
	.byte	W06
	.byte		        86*seq_000_mvl/mxv
	.byte	W03
	.byte	W03
	.byte		VOL   , 92*seq_000_mvl/mxv
	.byte	W06
	.byte		        94*seq_000_mvl/mxv
	.byte	W06
	.byte		        66*seq_000_mvl/mxv
	.byte		N96   , Gs2 , v124
	.byte	W42
	.byte		VOL   , 66*seq_000_mvl/mxv
	.byte	W06
	.byte		        58*seq_000_mvl/mxv
	.byte	W06
	.byte		        64*seq_000_mvl/mxv
	.byte	W06
	.byte		        69*seq_000_mvl/mxv
	.byte	W06
	.byte		        75*seq_000_mvl/mxv
	.byte	W06
	.byte		        81*seq_000_mvl/mxv
	.byte	W06
	.byte		        86*seq_000_mvl/mxv
	.byte	W03
	.byte	PEND
	.byte	W03
	.byte		VOL   , 92*seq_000_mvl/mxv
	.byte	W06
	.byte		        94*seq_000_mvl/mxv
	.byte	W06
	.byte		        66*seq_000_mvl/mxv
	.byte		N96   , As2 , v124
	.byte	W42
	.byte		VOL   , 66*seq_000_mvl/mxv
	.byte	W06
	.byte		        58*seq_000_mvl/mxv
	.byte	W06
	.byte		        64*seq_000_mvl/mxv
	.byte	W06
	.byte		        69*seq_000_mvl/mxv
	.byte	W06
	.byte		        75*seq_000_mvl/mxv
	.byte	W06
	.byte		        81*seq_000_mvl/mxv
	.byte	W06
	.byte		        86*seq_000_mvl/mxv
	.byte	W03
	.byte	PEND
	.byte	W03
	.byte		VOL   , 92*seq_000_mvl/mxv
	.byte	W06
	.byte		        94*seq_000_mvl/mxv
	.byte	W06
	.byte		        66*seq_000_mvl/mxv
	.byte		N96   , An2 , v124
	.byte	W42
	.byte		VOL   , 66*seq_000_mvl/mxv
	.byte	W06
	.byte		        58*seq_000_mvl/mxv
	.byte	W06
	.byte		        64*seq_000_mvl/mxv
	.byte	W06
	.byte		        69*seq_000_mvl/mxv
	.byte	W06
	.byte		        75*seq_000_mvl/mxv
	.byte	W06
	.byte		        81*seq_000_mvl/mxv
	.byte	W06
	.byte		        86*seq_000_mvl/mxv
	.byte	W03
	.byte	PEND
	.byte	W03
	.byte		VOL   , 92*seq_000_mvl/mxv
	.byte	W06
	.byte		        94*seq_000_mvl/mxv
	.byte	W06
	.byte	PEND
	.byte	W80
	.byte	W01
	.byte	W96
	.byte	W96
	.byte	W96
	.byte	W96
	.byte	W96
	.byte	W96
	.byte	W96
	.byte	W03
	.byte		N06   , Gn3 , v080
	.byte	W06
	.byte		        An3 
	.byte	W06
	.byte		N48   , As3 
	.byte	W48
	.byte		N24   , Cn4 
	.byte	W24
	.byte		        An3 
	.byte	W09
	.byte	W15
	.byte		        Fn3 
	.byte	W36
	.byte		N06   , Gn3 
	.byte	W12
	.byte		N48
	.byte	W32
	.byte	W01
	.byte	W96
	.byte	W96
	.byte	W96
	.byte	W96
	.byte	W96
	.byte	W36
	.byte	W03
	.byte		N24   , As2 , v092
	.byte	W24
	.byte		        Gs2 
	.byte	W24
	.byte		        Fn2 
	.byte	W09
	.byte	W15
	.byte		VOL   , 66*seq_000_mvl/mxv
	.byte		N96   , Gn2 , v124
	.byte	W42
	.byte		VOL   , 66*seq_000_mvl/mxv
	.byte	W06
	.byte		        58*seq_000_mvl/mxv
	.byte	W06
	.byte		        64*seq_000_mvl/mxv
	.byte	W06
	.byte		        69*seq_000_mvl/mxv
	.byte	W06
	.byte		        75*seq_000_mvl/mxv
	.byte	W06
	.byte		        81*seq_000_mvl/mxv
	.byte	W06
	.byte		        86*seq_000_mvl/mxv
	.byte	W03
	.byte	PATT
	 .word	seq_000_5 + 0x23
	.byte	PATT
	 .word	seq_000_5 + 0x3E
	.byte	PATT
	 .word	seq_000_5 + 0x59
	.byte	PATT
	 .word	seq_000_5 + 0x74
	.byte	GOTO
	 .word	seq_000_5 + 0x7B
	.byte	FINE

@*********************** Track 07 ***********************@

seq_000_6:
	.byte	KEYSH , seq_000_key+0
	.byte		VOICE , 24
	.byte	W01
	.byte		VOL   , 85*seq_000_mvl/mxv
	.byte	W01
	.byte		PAN   , c_v+0
	.byte	W01
	.byte		BEND  , c_v+0
	.byte	W92
	.byte	W01
	.byte	W96
	.byte	W96
	.byte	W96
	.byte	W15
	.byte	W80
	.byte	W01
	.byte	W96
	.byte	W96
	.byte	W96
	.byte	W15
	.byte		N06   , Gn2 , v080
	.byte	W12
	.byte		        As2 
	.byte	W12
	.byte		        Cn3 
	.byte	W12
	.byte		N12   , Dn3 
	.byte	W24
	.byte		N06   , Ds3 
	.byte	W12
	.byte		        Gn3 
	.byte	W09
	.byte	PEND
	.byte	W03
	.byte		N18   , Gn2 
	.byte	W24
	.byte		N06   , As2 
	.byte	W12
	.byte		        Cn3 
	.byte	W12
	.byte		N12   , Dn3 
	.byte	W24
	.byte		N06   , As2 
	.byte	W12
	.byte		N18   , Fn2 
	.byte	W09
	.byte	PATT
	 .word	seq_000_6 + 0x18
	.byte	W03
	.byte		N18   , Gn2 , v080
	.byte	W24
	.byte		N06   , As2 
	.byte	W12
	.byte		        Cn3 
	.byte	W12
	.byte		N12   , Dn3 
	.byte	W24
	.byte		N06
	.byte	W12
	.byte		N12   , Gn3 
	.byte	W09
	.byte	W96
	.byte	W96
	.byte	W96
	.byte	W96
	.byte	W96
	.byte	W96
	.byte	W96
	.byte	W96
	.byte	W96
	.byte	W96
	.byte	W96
	.byte	W96
	.byte	W15
	.byte	GOTO
	 .word	seq_000_6 + 0x13
	.byte	FINE

@******************************************************@

	.align	2

seq_000:
	.byte	7	@ NumTrks
	.byte	0	@ NumBlks
	.byte	seq_000_pri	@ Priority
	.byte	seq_000_rev	@ Reverb

	.word	seq_000_grp

	.word	seq_000_0
	.word	seq_000_1
	.word	seq_000_2
	.word	seq_000_3
	.word	seq_000_4
	.word	seq_000_5
	.word	seq_000_6

	.end
