@ File generated by m4a2s Song-Module
	.include "MPlayDef.s"

	.equ	seq_000_grp, bank_000
	.equ	seq_000_pri, 0
	.equ	seq_000_rev, 158
	.equ	seq_000_mvl, 127
	.equ	seq_000_key, 0

	.section .rodata
	.global	seq_000
	.align	2

@*********************** Track 01 ***********************@

seq_000_0:
	.byte	KEYSH , seq_000_key+0
	.byte	TEMPO , 140/2
	.byte		VOICE , 0
	.byte	W01
	.byte		VOL   , 120*seq_000_mvl/mxv
	.byte	W01
	.byte		PAN   , c_v+0
	.byte	W10
	.byte		N24   , As3 , v100
	.byte	W24
	.byte		N24
	.byte	W24
	.byte		N24
	.byte	W24
	.byte		N24
	.byte	W24
	.byte	PEND
	.byte	PATT
	 .word	seq_000_0 + 0xD
	.byte	PATT
	 .word	seq_000_0 + 0xD
	.byte	PATT
	 .word	seq_000_0 + 0xD
	.byte	PATT
	 .word	seq_000_0 + 0xD
	.byte	PATT
	 .word	seq_000_0 + 0xD
	.byte	PATT
	 .word	seq_000_0 + 0xD
	.byte	PATT
	 .word	seq_000_0 + 0xD
	.byte		N48   , Bn3 , v127
	.byte	W48
	.byte		N48
	.byte	W48
	.byte	PEND
	.byte	PATT
	 .word	seq_000_0 + 0x3B
	.byte	PATT
	 .word	seq_000_0 + 0x3B
	.byte	PATT
	 .word	seq_000_0 + 0x3B
	.byte		N48   , Bn3 , v127
	.byte	W24
	.byte		N06   , Gs2 
	.byte	W18
	.byte		        Gs2 , v096
	.byte	W06
	.byte		N48   , Bn3 , v127
	.byte	W24
	.byte		N06   , Gs2 
	.byte	W24
	.byte		N48   , Bn3 , v127
	.byte	W24
	.byte		N06   , Gs2 
	.byte	W18
	.byte		        Gs2 , v096
	.byte	W06
	.byte		N48   , Bn3 , v127
	.byte	W24
	.byte		N05   , Gs2 
	.byte	W06
	.byte		N06   , Gs2 , v096
	.byte	W18
	.byte	PEND
	.byte		N48   , Bn3 , v127
	.byte	W24
	.byte		N06   , Gs2 
	.byte	W24
	.byte		N48   , Bn3 
	.byte	W24
	.byte		N06   , Gs2 
	.byte	W24
	.byte	PEND
	.byte		N48   , Bn3 
	.byte	W24
	.byte		N06   , Gs2 
	.byte	W18
	.byte		        Gs2 , v096
	.byte	W06
	.byte		N48   , Bn3 , v127
	.byte	W24
	.byte		N05   , Gs2 
	.byte	W24
	.byte	PATT
	 .word	seq_000_0 + 0x62
	.byte	PATT
	 .word	seq_000_0 + 0x62
	.byte	PATT
	 .word	seq_000_0 + 0x78
	.byte		N06   , Gs2 , v127
	.byte		N48   , Bn3 
	.byte	W24
	.byte		N06   , Gs2 
	.byte	W24
	.byte		N06
	.byte		N48   , Bn3 
	.byte	W24
	.byte		N06   , Gs2 
	.byte	W24
	.byte		N06
	.byte		N48   , Bn3 
	.byte	W24
	.byte		N06   , Gs2 
	.byte	W18
	.byte		N05   , Gs2 , v100
	.byte	W06
	.byte		N48   , Bn3 , v127
	.byte	W06
	.byte		N05   , Gs2 , v036
	.byte	W12
	.byte		        Gs2 , v068
	.byte	W12
	.byte		        Gs2 , v096
	.byte	W06
	.byte		        Gs2 , v112
	.byte	W06
	.byte		        Gs2 , v127
	.byte	W06
	.byte	PATT
	 .word	seq_000_0 + 0x78
	.byte	PATT
	 .word	seq_000_0 + 0x78
	.byte	PATT
	 .word	seq_000_0 + 0x78
	.byte		N48   , Bn3 , v127
	.byte	W24
	.byte		N06   , Gs2 
	.byte	W24
	.byte		N48   , Bn3 
	.byte	W24
	.byte		N05   , Gs2 
	.byte	W06
	.byte		N05
	.byte	W06
	.byte		N10   , Fn3 
	.byte	W12
	.byte	PATT
	 .word	seq_000_0 + 0x78
	.byte	PATT
	 .word	seq_000_0 + 0x78
	.byte	PATT
	 .word	seq_000_0 + 0x78
	.byte		N06   , Gs2 , v100
	.byte		N48   , Bn3 , v127
	.byte	W24
	.byte		N06   , Gs2 , v108
	.byte	W24
	.byte		        Gs2 , v116
	.byte		N48   , Bn3 , v127
	.byte	W24
	.byte		N06   , Gs2 , v120
	.byte	W24
	.byte		N05   , Gs2 , v127
	.byte		N24   , As3 , v100
	.byte	W06
	.byte		N06   , Fs3 , v060
	.byte	W06
	.byte		        Fs3 , v080
	.byte	W06
	.byte		N08   , Fs3 , v100
	.byte	W06
	.byte		N06   , Fn3 , v112
	.byte		N24   , As3 , v100
	.byte	W06
	.byte		N06   , Fn3 , v060
	.byte	W06
	.byte		        Fn3 , v080
	.byte	W06
	.byte		N08   , Fn3 , v100
	.byte	W06
	.byte		N06   , En3 , v112
	.byte		N24   , As3 , v100
	.byte	W06
	.byte		N06   , En3 , v060
	.byte	W06
	.byte		        En3 , v080
	.byte	W06
	.byte		N08   , En3 , v100
	.byte	W06
	.byte		N10   , Ds3 , v120
	.byte	W12
	.byte		N05   , Ds3 , v100
	.byte	W06
	.byte		N06   , Ds3 , v080
	.byte	W06
	.byte	PATT
	 .word	seq_000_0 + 0xD
	.byte	GOTO
	 .word	seq_000_0 + 0x18
	.byte	FINE

@*********************** Track 02 ***********************@

seq_000_1:
	.byte	KEYSH , seq_000_key+0
	.byte		VOICE , 0
	.byte		VOL   , 56*seq_000_mvl/mxv
	.byte	W01
	.byte		PAN   , c_v+0
	.byte	W11
	.byte		N02   , Fs1 , v127
	.byte	W06
	.byte		        Fs1 , v060
	.byte	W06
	.byte		        Fs1 , v100
	.byte	W06
	.byte		        Fs1 , v060
	.byte	W12
	.byte		N02
	.byte	W06
	.byte		        Fs1 , v100
	.byte	W06
	.byte		        Fs1 , v060
	.byte	W06
	.byte		        Fs1 , v127
	.byte	W06
	.byte		        Fs1 , v060
	.byte	W06
	.byte		        Fs1 , v100
	.byte	W06
	.byte		        Fs1 , v060
	.byte	W12
	.byte		N02
	.byte	W06
	.byte		        Fs1 , v100
	.byte	W06
	.byte		        Fs1 , v060
	.byte	W06
	.byte	PEND
	.byte		N02   , Fs1 , v127
	.byte	W06
	.byte		        Fs1 , v060
	.byte	W06
	.byte		N06   , As1 , v120
	.byte	W18
	.byte		N02   , Fs1 , v060
	.byte	W06
	.byte		        Fs1 , v100
	.byte	W06
	.byte		        Fs1 , v060
	.byte	W06
	.byte		        Fs1 , v127
	.byte	W06
	.byte		        Fs1 , v060
	.byte	W06
	.byte		N06   , As1 , v120
	.byte	W18
	.byte		N02   , Fs1 , v060
	.byte	W06
	.byte		        Fs1 , v100
	.byte	W06
	.byte		        Fs1 , v060
	.byte	W06
	.byte	PEND
	.byte	PATT
	 .word	seq_000_1 + 0xA
	.byte	PATT
	 .word	seq_000_1 + 0x34
	.byte	PATT
	 .word	seq_000_1 + 0xA
	.byte		N02   , Fs1 , v127
	.byte	W06
	.byte		        Fs1 , v060
	.byte	W06
	.byte		N06   , As1 , v120
	.byte	W18
	.byte		N02   , Fs1 , v060
	.byte	W06
	.byte		        Fs1 , v100
	.byte	W06
	.byte		        Fs1 , v060
	.byte	W06
	.byte		        Fs1 , v127
	.byte	W06
	.byte		        Fs1 , v060
	.byte	W06
	.byte		N06   , As1 , v120
	.byte	W12
	.byte		N02   , Fs1 , v004
	.byte	W06
	.byte		        Fs1 , v060
	.byte	W06
	.byte		        Fs1 , v100
	.byte	W06
	.byte		        Fs1 , v060
	.byte	W06
	.byte	PEND
	.byte	PATT
	 .word	seq_000_1 + 0xA
	.byte	PATT
	 .word	seq_000_1 + 0x34
	.byte		N02   , Fs1 , v127
	.byte	W06
	.byte		        Fs1 , v060
	.byte	W06
	.byte		N06   , As1 , v120
	.byte	W18
	.byte		N02   , Fs1 , v060
	.byte	W06
	.byte		        Fs1 , v100
	.byte	W06
	.byte		        Fs1 , v060
	.byte	W06
	.byte		        Fs1 , v127
	.byte	W06
	.byte		        Fs1 , v060
	.byte	W06
	.byte		        Fs1 , v100
	.byte	W06
	.byte		N06   , As1 , v120
	.byte	W06
	.byte		N02   , Fs1 , v004
	.byte	W06
	.byte		        Fs1 , v060
	.byte	W06
	.byte		        Fs1 , v100
	.byte	W06
	.byte		        Fs1 , v060
	.byte	W06
	.byte	PEND
	.byte		N02   , Fs1 , v127
	.byte	W06
	.byte		        Fs1 , v060
	.byte	W06
	.byte		        Fs1 , v100
	.byte	W06
	.byte		        Fs1 , v060
	.byte	W12
	.byte		N02
	.byte	W06
	.byte		        Fs1 , v100
	.byte	W06
	.byte		        Fs1 , v060
	.byte	W06
	.byte		        Fs1 , v127
	.byte	W06
	.byte		N06   , As1 , v120
	.byte	W06
	.byte		N02   , Fs1 , v100
	.byte	W06
	.byte		        Fs1 , v060
	.byte	W12
	.byte		N02
	.byte	W06
	.byte		        Fs1 , v100
	.byte	W06
	.byte		        Fs1 , v060
	.byte	W06
	.byte	PEND
	.byte	PATT
	 .word	seq_000_1 + 0xA
	.byte	W96
	.byte	PATT
	 .word	seq_000_1 + 0xA
	.byte	PATT
	 .word	seq_000_1 + 0x6D
	.byte	PATT
	 .word	seq_000_1 + 0xA
	.byte	PATT
	 .word	seq_000_1 + 0x34
	.byte	PATT
	 .word	seq_000_1 + 0xA4
	.byte	PATT
	 .word	seq_000_1 + 0xD4
	.byte	PATT
	 .word	seq_000_1 + 0xA
	.byte	W96
	.byte	W96
	.byte		N48   , Cs2 , v127
	.byte	W30
	.byte		N02   , Fs1 , v060
	.byte	W06
	.byte		        Fs1 , v100
	.byte	W06
	.byte		        Fs1 , v060
	.byte	W06
	.byte		        Fs1 , v127
	.byte	W06
	.byte		        Fs1 , v060
	.byte	W06
	.byte		        Fs1 , v100
	.byte	W06
	.byte		        Fs1 , v060
	.byte	W12
	.byte		N02
	.byte	W06
	.byte		        Fs1 , v100
	.byte	W06
	.byte		        Fs1 , v060
	.byte	W06
	.byte	PEND
	.byte	PATT
	 .word	seq_000_1 + 0xD4
	.byte	PATT
	 .word	seq_000_1 + 0x6D
	.byte	PATT
	 .word	seq_000_1 + 0xA
	.byte	PATT
	 .word	seq_000_1 + 0x12B
	.byte		N48   , Cs2 , v127
	.byte	W24
	.byte		N02   , Fs1 , v004
	.byte	W06
	.byte		        Fs1 , v060
	.byte	W06
	.byte		        Fs1 , v100
	.byte	W06
	.byte		        Fs1 , v060
	.byte	W06
	.byte		        Fs1 , v112
	.byte	W06
	.byte		        Fs1 , v060
	.byte	W06
	.byte		        Fs1 , v100
	.byte	W06
	.byte		        Fs1 , v060
	.byte	W12
	.byte		N02
	.byte	W06
	.byte		        Fs1 , v100
	.byte	W06
	.byte		        Fs1 , v060
	.byte	W06
	.byte		N48   , Cs2 , v127
	.byte	W12
	.byte		N02   , As1 , v120
	.byte	W18
	.byte		        Fs1 , v060
	.byte	W06
	.byte		        Fs1 , v100
	.byte	W06
	.byte		        Fs1 , v060
	.byte	W06
	.byte		        Fs1 , v127
	.byte	W06
	.byte		        Fs1 , v060
	.byte	W06
	.byte		N06   , As1 , v120
	.byte	W18
	.byte		N02   , Fs1 , v060
	.byte	W06
	.byte		        Fs1 , v100
	.byte	W06
	.byte		        Fs1 , v060
	.byte	W06
	.byte		N48   , Cs2 , v127
	.byte	W96
	.byte		N48
	.byte	W96
	.byte	PATT
	 .word	seq_000_1 + 0x12B
	.byte	GOTO
	 .word	seq_000_1 + 0x34
	.byte	FINE

@*********************** Track 03 ***********************@

seq_000_2:
	.byte	KEYSH , seq_000_key+0
	.byte		VOICE , 1
	.byte	W01
	.byte		VOL   , 120*seq_000_mvl/mxv
	.byte	W01
	.byte		LFOS  , 28
	.byte	W01
	.byte		PAN   , c_v+0
	.byte	W01
	.byte		LFODL , 20
	.byte	W01
	.byte		MOD   , 5
	.byte	W01
	.byte		MODT  , mod_vib
	.byte	W06
	.byte		N05   , Bn1 , v120
	.byte	W12
	.byte		N05
	.byte	W12
	.byte		N05
	.byte	W12
	.byte		N05
	.byte	W12
	.byte		N05
	.byte	W06
	.byte		N05
	.byte	W06
	.byte		N05
	.byte	W12
	.byte		N05
	.byte	W06
	.byte		N05
	.byte	W06
	.byte		N05
	.byte	W12
	.byte	PEND
	.byte		N05   , Cn2 , v120
	.byte	W12
	.byte		N05
	.byte	W12
	.byte		N05
	.byte	W12
	.byte		N05
	.byte	W12
	.byte		N05
	.byte	W06
	.byte		N05
	.byte	W06
	.byte		N05
	.byte	W12
	.byte		N05
	.byte	W06
	.byte		N05
	.byte	W06
	.byte		N05
	.byte	W12
	.byte	PEND
	.byte		N05   , Cs2 , v120
	.byte	W12
	.byte		N05
	.byte	W12
	.byte		N05
	.byte	W12
	.byte		N05
	.byte	W12
	.byte		N05
	.byte	W06
	.byte		N05
	.byte	W06
	.byte		N05
	.byte	W12
	.byte		N05
	.byte	W06
	.byte		N05
	.byte	W06
	.byte		N05
	.byte	W12
	.byte	PEND
	.byte	PATT
	 .word	seq_000_2 + 0x2E
	.byte	PATT
	 .word	seq_000_2 + 0x17
	.byte	PATT
	 .word	seq_000_2 + 0x2E
	.byte	PATT
	 .word	seq_000_2 + 0x45
	.byte	PATT
	 .word	seq_000_2 + 0x2E
	.byte	PATT
	 .word	seq_000_2 + 0x17
	.byte	PATT
	 .word	seq_000_2 + 0x2E
	.byte	PATT
	 .word	seq_000_2 + 0x45
	.byte	PATT
	 .word	seq_000_2 + 0x2E
	.byte	PATT
	 .word	seq_000_2 + 0x17
	.byte	PATT
	 .word	seq_000_2 + 0x2E
	.byte	PATT
	 .word	seq_000_2 + 0x45
	.byte	PATT
	 .word	seq_000_2 + 0x2E
	.byte	PATT
	 .word	seq_000_2 + 0x17
	.byte	PATT
	 .word	seq_000_2 + 0x2E
	.byte	PATT
	 .word	seq_000_2 + 0x45
	.byte	PATT
	 .word	seq_000_2 + 0x2E
	.byte	PATT
	 .word	seq_000_2 + 0x2E
	.byte		N05   , Fn2 , v120
	.byte	W12
	.byte		N05
	.byte	W12
	.byte		N16   , Cn2 
	.byte	W18
	.byte		N05
	.byte	W06
	.byte		N16   , Fn2 
	.byte	W18
	.byte		N05
	.byte	W06
	.byte		N22   , Cn2 
	.byte	W24
	.byte	PEND
	.byte	PATT
	 .word	seq_000_2 + 0xB6
	.byte		N05   , Ds2 , v120
	.byte	W12
	.byte		N05
	.byte	W12
	.byte		N16
	.byte	W18
	.byte		N05
	.byte	W06
	.byte		N21
	.byte	W24
	.byte		N11
	.byte	W12
	.byte		N08   , Gs2 
	.byte	W12
	.byte		N05   , Ds2 
	.byte	W06
	.byte		N05
	.byte	W18
	.byte		N05
	.byte	W06
	.byte		N05
	.byte	W18
	.byte		N05
	.byte	W06
	.byte		N05
	.byte	W18
	.byte		N16
	.byte	W18
	.byte		N05
	.byte	W06
	.byte		N05   , Dn2 , v120
	.byte	W12
	.byte		N05
	.byte	W12
	.byte		N05
	.byte	W12
	.byte		N05
	.byte	W12
	.byte		N05
	.byte	W12
	.byte		N05
	.byte	W12
	.byte		N05
	.byte	W12
	.byte		N05
	.byte	W06
	.byte		N05
	.byte	W06
	.byte	PEND
	.byte	PATT
	 .word	seq_000_2 + 0xF1
	.byte	PATT
	 .word	seq_000_2 + 0xF1
	.byte		N12   , Dn2 , v120
	.byte	W24
	.byte		N12
	.byte	W24
	.byte		N12
	.byte	W24
	.byte		N12
	.byte	W24
	.byte		N12
	.byte	W96
	.byte	PATT
	 .word	seq_000_2 + 0x17
	.byte	GOTO
	 .word	seq_000_2 + 0x2E
	.byte	FINE

@*********************** Track 04 ***********************@

seq_000_3:
	.byte	KEYSH , seq_000_key+0
	.byte		VOICE , 2
	.byte	W01
	.byte		VOL   , 89*seq_000_mvl/mxv
	.byte	W01
	.byte		PAN   , c_v-24
	.byte	W01
	.byte		LFOS  , 25
	.byte	W01
	.byte		LFODL , 23
	.byte	W02
	.byte		MODT  , mod_vib
	.byte	W01
	.byte		MOD   , 4
	.byte	W05
	.byte		N96   , Fs2 , v127
	.byte	W96
	.byte		N96   , Gn2 , v127
	.byte	W96
	.byte		        Gs2 
	.byte	W96
	.byte		        Gn2 
	.byte	W96
	.byte		        Fs2 
	.byte	W96
	.byte		        Gn2 
	.byte	W96
	.byte		        Gs2 
	.byte	W96
	.byte		        Gn2 
	.byte	W96
	.byte		        Fs2 
	.byte	W96
	.byte		        Gn2 
	.byte	W96
	.byte		        Gs2 
	.byte	W96
	.byte		        Gn2 
	.byte	W96
	.byte		        Fs2 
	.byte	W96
	.byte		        Gn2 
	.byte	W96
	.byte		        Gs2 
	.byte	W96
	.byte		        Gn2 
	.byte	W96
	.byte		        Fs2 
	.byte	W96
	.byte		        Gn2 
	.byte	W96
	.byte		        Gs2 
	.byte	W96
	.byte		        Gn2 
	.byte	W96
	.byte		N96
	.byte	W96
	.byte		        Cn3 
	.byte	W96
	.byte		N96
	.byte	W96
	.byte		        As2 
	.byte	W96
	.byte		N96
	.byte	W96
	.byte		N84   , An2 
	.byte	W84
	.byte		N96
	.byte	W12
	.byte	W84
	.byte		N96
	.byte	W12
	.byte	W96
	.byte	W96
	.byte	W96
	.byte		        Fs2 
	.byte	W96
	.byte	GOTO
	 .word	seq_000_3 + 0x1B
	.byte	FINE

@*********************** Track 05 ***********************@

seq_000_4:
	.byte	KEYSH , seq_000_key+0
	.byte		VOICE , 3
	.byte	W01
	.byte		VOL   , 120*seq_000_mvl/mxv
	.byte	W01
	.byte		PAN   , c_v+31
	.byte	W01
	.byte		LFOS  , 15
	.byte	W01
	.byte		LFODL , 25
	.byte	W01
	.byte		MODT  , mod_vib
	.byte	W01
	.byte		MOD   , 3
	.byte	W06
	.byte		N10   , Fs2 , v072
	.byte		N10   , Bn2 
	.byte	W18
	.byte		        Fs2 , v096
	.byte		N10   , Bn2 
	.byte	W18
	.byte		N04   , Fs2 , v060
	.byte		N04   , Bn2 
	.byte	W12
	.byte		        Fs2 , v040
	.byte		N04   , Bn2 
	.byte	W12
	.byte		        Fs2 , v092
	.byte		N04   , Bn2 
	.byte	W12
	.byte		        Fs2 , v052
	.byte		N04   , Bn2 
	.byte	W12
	.byte		        Fs2 , v112
	.byte		N04   , Bn2 
	.byte	W12
	.byte	PEND
	.byte		N10   , Bn2 , v072
	.byte		N10   , En3 
	.byte	W18
	.byte		        Bn2 , v096
	.byte		N10   , En3 
	.byte	W18
	.byte		N04   , Bn2 , v060
	.byte		N04   , En3 
	.byte	W12
	.byte		        Bn2 , v040
	.byte		N04   , En3 
	.byte	W12
	.byte		        Bn2 , v092
	.byte		N04   , En3 
	.byte	W12
	.byte		        Bn2 , v052
	.byte		N04   , En3 
	.byte	W12
	.byte		        Bn2 , v112
	.byte		N04   , En3 
	.byte	W12
	.byte	PEND
	.byte		N10   , Fs2 , v072
	.byte		N10   , Bn2 
	.byte	W18
	.byte		        Fs2 , v096
	.byte		N10   , Bn2 
	.byte	W18
	.byte		N04   , Fs2 , v060
	.byte		N04   , Bn2 
	.byte	W12
	.byte		        Fs2 , v040
	.byte		N04   , Bn2 
	.byte	W12
	.byte		        Fs2 , v092
	.byte		N04   , Bn2 
	.byte	W12
	.byte		        Fs2 , v052
	.byte		N04   , Bn2 
	.byte	W12
	.byte		        Fs2 , v100
	.byte		N04   , Bn2 
	.byte	W12
	.byte	PEND
	.byte		N10   , Bn2 , v072
	.byte		N10   , En3 
	.byte	W18
	.byte		        Bn2 , v096
	.byte		N10   , En3 
	.byte	W18
	.byte		N04   , Bn2 , v060
	.byte		N04   , En3 
	.byte	W12
	.byte		        Bn2 , v040
	.byte		N04   , En3 
	.byte	W12
	.byte		        Bn2 , v100
	.byte		N04   , En3 
	.byte	W12
	.byte		        Bn2 , v072
	.byte		N04   , En3 
	.byte	W06
	.byte		        Bn2 , v112
	.byte		N04   , En3 
	.byte	W18
	.byte	PEND
	.byte	PATT
	 .word	seq_000_4 + 0x17
	.byte	PATT
	 .word	seq_000_4 + 0x3D
	.byte	PATT
	 .word	seq_000_4 + 0x63
	.byte	PATT
	 .word	seq_000_4 + 0x89
	.byte	PATT
	 .word	seq_000_4 + 0x17
	.byte	PATT
	 .word	seq_000_4 + 0x3D
	.byte	PATT
	 .word	seq_000_4 + 0x17
	.byte	PATT
	 .word	seq_000_4 + 0x89
	.byte		N10   , Fs2 , v072
	.byte		N10   , Bn2 
	.byte	W18
	.byte		        Fs2 , v096
	.byte		N10   , Bn2 
	.byte	W18
	.byte		N04   , Fs2 , v060
	.byte		N04   , Bn2 
	.byte	W12
	.byte		        Fs2 , v040
	.byte		N04   , Bn2 
	.byte	W12
	.byte		        Fs2 , v092
	.byte		N04   , Bn2 
	.byte	W24
	.byte		        Fs2 , v112
	.byte		N04   , Bn2 
	.byte	W12
	.byte	PEND
	.byte		N10   , Bn2 , v072
	.byte		N10   , En3 
	.byte	W18
	.byte		        Bn2 , v096
	.byte		N10   , En3 
	.byte	W18
	.byte		N04   , Bn2 , v060
	.byte		N04   , En3 
	.byte	W12
	.byte		        Bn2 , v040
	.byte		N04   , En3 
	.byte	W12
	.byte		        Bn2 , v092
	.byte		N04   , En3 
	.byte	W24
	.byte		        Bn2 , v112
	.byte		N04   , En3 
	.byte	W12
	.byte	PEND
	.byte	PATT
	 .word	seq_000_4 + 0xD7
	.byte		N10   , Bn2 , v072
	.byte		N10   , En3 
	.byte	W18
	.byte		        Bn2 , v096
	.byte		N10   , En3 
	.byte	W18
	.byte		N04   , Bn2 , v060
	.byte		N04   , En3 
	.byte	W12
	.byte		        Bn2 , v040
	.byte		N04   , En3 
	.byte	W12
	.byte		        Bn2 , v100
	.byte		N04   , En3 
	.byte	W18
	.byte		        Bn2 , v112
	.byte		N04   , En3 
	.byte	W18
	.byte	PATT
	 .word	seq_000_4 + 0xD7
	.byte	PATT
	 .word	seq_000_4 + 0xF8
	.byte	PATT
	 .word	seq_000_4 + 0xD7
	.byte	W06
	.byte		N10   , Bn2 , v072
	.byte		N10   , En3 
	.byte	W12
	.byte		        Bn2 , v096
	.byte		N10   , En3 
	.byte	W18
	.byte		N04   , Bn2 , v060
	.byte		N04   , En3 
	.byte	W18
	.byte		        Bn2 , v040
	.byte		N04   , En3 
	.byte	W06
	.byte		        Bn2 , v100
	.byte		N04   , En3 
	.byte	W18
	.byte		        Bn2 , v072
	.byte		N04   , En3 
	.byte	W06
	.byte		        Bn2 , v112
	.byte		N04   , En3 
	.byte	W12
	.byte	W06
	.byte		N10   , Bn2 , v072
	.byte		N10   , En3 
	.byte	W12
	.byte		        Bn2 , v096
	.byte		N10   , En3 
	.byte	W18
	.byte		N04   , Bn2 , v060
	.byte		N04   , En3 
	.byte	W12
	.byte		        Bn2 , v040
	.byte		N04   , En3 
	.byte	W12
	.byte		        Bn2 , v100
	.byte		N04   , En3 
	.byte	W12
	.byte		        Bn2 , v072
	.byte		N04   , En3 
	.byte	W24
	.byte		        Fn2 , v080
	.byte		N04   , Gs2 
	.byte	W06
	.byte		        Fn2 
	.byte		N04   , Gs2 
	.byte	W12
	.byte		        Fn2 
	.byte		N04   , Gs2 
	.byte	W12
	.byte		        Fn2 
	.byte		N04   , Gs2 
	.byte	W12
	.byte		        Fn2 
	.byte		N04   , Gs2 
	.byte	W06
	.byte		        Fn2 
	.byte		N04   , Gs2 
	.byte	W12
	.byte		        Fn2 
	.byte		N04   , Gs2 
	.byte	W18
	.byte		N10   , Fn2 
	.byte		N10   , Gs2 
	.byte	W12
	.byte		N04   , Fn2 
	.byte		N04   , Gs2 
	.byte	W06
	.byte	W06
	.byte		        Fn2 
	.byte		N04   , Gs2 
	.byte	W12
	.byte		        Fn2 
	.byte		N04   , Gs2 
	.byte	W12
	.byte		        Fn2 
	.byte		N04   , Gs2 
	.byte	W12
	.byte		        Fn2 
	.byte		N04   , Gs2 
	.byte	W06
	.byte		        Fn2 
	.byte		N04   , Gs2 
	.byte	W12
	.byte		        Fn2 
	.byte		N04   , Gs2 
	.byte	W18
	.byte		        Fn2 
	.byte		N04   , Gs2 
	.byte	W06
	.byte		        Fn2 
	.byte		N04   , Gs2 
	.byte	W12
	.byte		N04
	.byte		N04   , Cn3 
	.byte	W06
	.byte		        Gs2 
	.byte		N04   , Cn3 
	.byte	W12
	.byte		        Gs2 
	.byte		N04   , Cn3 
	.byte	W12
	.byte		        Gs2 
	.byte		N04   , Cn3 
	.byte	W12
	.byte		        Gs2 
	.byte		N04   , Cn3 
	.byte	W06
	.byte		        Gs2 
	.byte		N04   , Cn3 
	.byte	W12
	.byte		        Gs2 
	.byte		N04   , Cn3 
	.byte	W18
	.byte		N10   , Gs2 
	.byte		N10   , Cn3 
	.byte	W12
	.byte		N04   , Gs2 
	.byte		N04   , Cn3 
	.byte	W06
	.byte		N06   , Gs2 
	.byte		N06   , Cn3 
	.byte	W30
	.byte		N10   , Gs2 
	.byte		N10   , Cn3 
	.byte	W12
	.byte		N06   , Gs2 
	.byte		N06   , Cn3 
	.byte	W12
	.byte		N10   , Gs2 
	.byte		N10   , Cn3 
	.byte	W18
	.byte		N06
	.byte	W06
	.byte		        Gs2 
	.byte	W06
	.byte		        Cn3 
	.byte	W12
	.byte		        Dn2 , v112
	.byte	W06
	.byte		        Cn2 , v116
	.byte	W06
	.byte		        Dn2 , v120
	.byte	W06
	.byte		N30   , Gn2 , v080
	.byte		N30   , Cn3 
	.byte	W36
	.byte		N15   , Gn2 
	.byte		N15   , Cn3 
	.byte	W18
	.byte		N06
	.byte	W06
	.byte		        Gn2 
	.byte	W06
	.byte		N06
	.byte		N06   , Cn3 
	.byte	W12
	.byte		        Dn2 , v112
	.byte	W06
	.byte		        Cn2 , v116
	.byte	W06
	.byte		        Dn2 , v120
	.byte	W06
	.byte		N30   , Gs2 , v080
	.byte		N30   , Cn3 
	.byte	W36
	.byte		N15   , Gs2 
	.byte		N15   , Cn3 
	.byte	W18
	.byte		N06
	.byte	W06
	.byte		        Gs2 
	.byte	W06
	.byte		N06
	.byte		N06   , Cn3 
	.byte	W12
	.byte		        Cn2 
	.byte		N06   , Gs2 
	.byte	W30
	.byte		N10   , Cn2 
	.byte		N10   , Gs2 
	.byte	W12
	.byte		N06   , Cn2 
	.byte		N06   , Gs2 
	.byte	W12
	.byte		N10   , Cn2 
	.byte		N10   , Gs2 
	.byte	W24
	.byte		N06   , Cn2 
	.byte		N06   , Gs2 
	.byte	W06
	.byte		        Cn2 
	.byte		N06   , Gs2 
	.byte	W12
	.byte		N10   , Cn3 
	.byte		N10   , Gs3 
	.byte	W24
	.byte		        Cn3 , v092
	.byte		N10   , Gs3 
	.byte	W24
	.byte		        Cn3 , v100
	.byte		N10   , Gs3 
	.byte	W24
	.byte		        Cn3 , v112
	.byte		N10   , Gs3 
	.byte	W24
	.byte		        Cn3 
	.byte		N10   , Gs3 
	.byte	W96
	.byte	PATT
	 .word	seq_000_4 + 0x17
	.byte	GOTO
	 .word	seq_000_4 + 0x3D
	.byte	FINE

@*********************** Track 06 ***********************@

seq_000_5:
	.byte	KEYSH , seq_000_key+0
	.byte	W01
	.byte		LFOS  , 25
	.byte	W01
	.byte		BENDR , 6
	.byte	W01
	.byte		LFODL , 15
	.byte		MODT  , mod_vib
	.byte	W09
	.byte	W96
	.byte	W96
	.byte		VOICE , 4
	.byte	W01
	.byte		VOL   , 70*seq_000_mvl/mxv
	.byte	W05
	.byte		MOD   , 5
	.byte	W18
	.byte		BEND  , c_v+0
	.byte	W72
	.byte	W24
	.byte		PAN   , c_v+0
	.byte	W72
	.byte		N06   , Bn3 , v120
	.byte	W06
	.byte		        An3 
	.byte	W06
	.byte		        Gn3 
	.byte	W06
	.byte		        Fs3 
	.byte	W06
	.byte		        Bn3 
	.byte	W06
	.byte		        An3 
	.byte	W06
	.byte		        Gn3 
	.byte	W06
	.byte		        Fs3 
	.byte	W06
	.byte		        Bn3 
	.byte	W06
	.byte		        An3 
	.byte	W06
	.byte		        Gn3 
	.byte	W06
	.byte		        Fs3 
	.byte	W06
	.byte		        Bn3 
	.byte	W06
	.byte		        An3 
	.byte	W06
	.byte		        Gn3 
	.byte	W06
	.byte		N12   , Fs3 
	.byte	W06
	.byte	W06
	.byte		N06   , Gn3 
	.byte	W06
	.byte		        Fs3 
	.byte	W06
	.byte		N12   , Gn3 
	.byte	W12
	.byte		N06   , Fs3 
	.byte	W06
	.byte		        En3 
	.byte	W06
	.byte		N12   , Fs3 
	.byte	W12
	.byte		N06   , En3 
	.byte	W06
	.byte		        Dn3 
	.byte	W06
	.byte		        En3 
	.byte	W06
	.byte		        Fs3 
	.byte	W06
	.byte		        Gn3 
	.byte	W06
	.byte		        An3 
	.byte	W06
	.byte		        Bn3 
	.byte	W06
	.byte		N06
	.byte	W06
	.byte		N06
	.byte	W06
	.byte		        Bn4 
	.byte	W06
	.byte		        Bn3 
	.byte	W06
	.byte		N06
	.byte	W06
	.byte		        Bn4 
	.byte	W06
	.byte		        Bn3 
	.byte	W06
	.byte		N06
	.byte	W06
	.byte		        Bn4 
	.byte	W06
	.byte		        Bn3 
	.byte	W06
	.byte		N06
	.byte	W06
	.byte		N06
	.byte	W06
	.byte		        Bn4 
	.byte	W06
	.byte		        Bn3 
	.byte	W06
	.byte		N06
	.byte	W06
	.byte		N06
	.byte	W06
	.byte		N04   , En4 
	.byte	W06
	.byte		N04
	.byte	W06
	.byte		N08
	.byte	W12
	.byte		N04   , Dn4 
	.byte	W06
	.byte		N04
	.byte	W06
	.byte		N08
	.byte	W12
	.byte		N04   , Cn4 
	.byte	W06
	.byte		N04
	.byte	W06
	.byte		N08
	.byte	W12
	.byte		N06   , Dn4 
	.byte	W06
	.byte		        Cn4 
	.byte	W06
	.byte		        Bn3 
	.byte	W06
	.byte		        An3 
	.byte	W06
	.byte		        Bn2 
	.byte	W06
	.byte		        Cn3 
	.byte	W06
	.byte		        Dn3 
	.byte	W06
	.byte		        En3 
	.byte	W06
	.byte		        Bn2 
	.byte	W06
	.byte		        Cn3 
	.byte	W06
	.byte		        Dn3 
	.byte	W06
	.byte		        En3 
	.byte	W06
	.byte		        Cn3 
	.byte	W06
	.byte		        Dn3 
	.byte	W06
	.byte		        En3 
	.byte	W06
	.byte		N12   , Fs3 
	.byte	W12
	.byte		N06   , Dn3 
	.byte	W06
	.byte		        En3 
	.byte	W06
	.byte		N12   , Fs3 
	.byte	W06
	.byte	W06
	.byte		N06   , En3 
	.byte	W06
	.byte		        Fs3 
	.byte	W06
	.byte		N12   , Gn3 
	.byte	W12
	.byte		N06   , Fs3 
	.byte	W06
	.byte		        Gn3 
	.byte	W06
	.byte		        An3 
	.byte	W06
	.byte		        Fs3 
	.byte	W06
	.byte		        Gn3 
	.byte	W06
	.byte		        An3 
	.byte	W06
	.byte		N12   , Bn3 
	.byte	W12
	.byte		N06   , An3 
	.byte	W06
	.byte		        Bn3 
	.byte	W06
	.byte		N18   , Cn4 
	.byte	W06
	.byte	W12
	.byte		N06   , Cs5 
	.byte	W06
	.byte		        Cs4 
	.byte	W06
	.byte		        Cs5 
	.byte	W06
	.byte		        Cs4 
	.byte	W06
	.byte		        Cs5 
	.byte	W06
	.byte		        Cs4 
	.byte	W06
	.byte		        Cs5 
	.byte	W06
	.byte		        Cs4 
	.byte	W06
	.byte		        Cs5 
	.byte	W06
	.byte		        Cs4 
	.byte	W06
	.byte		        Cs5 
	.byte	W06
	.byte		        Cs4 
	.byte	W06
	.byte		N06
	.byte	W06
	.byte		N06
	.byte	W06
	.byte		        En4 
	.byte	W06
	.byte		        Dn4 
	.byte	W06
	.byte		        Cn4 
	.byte	W06
	.byte		        Bn3 
	.byte	W06
	.byte		        Dn4 
	.byte	W06
	.byte		        Cn4 
	.byte	W06
	.byte		        Bn3 
	.byte	W06
	.byte		N12   , An3 
	.byte	W12
	.byte		N06   , Fs3 
	.byte	W06
	.byte		        Gn3 
	.byte	W06
	.byte		        An3 
	.byte	W06
	.byte		        Cn4 
	.byte	W06
	.byte		        Bn3 
	.byte	W06
	.byte		        An3 
	.byte	W06
	.byte		        Gn3 
	.byte	W06
	.byte		N18   , Bn2 
	.byte	W18
	.byte		        Bn3 
	.byte	W18
	.byte		N11   , Fs3 
	.byte	W12
	.byte		N18   , Bn2 
	.byte	W18
	.byte		        Bn3 
	.byte	W18
	.byte		N11   , Fs3 
	.byte	W12
	.byte		N18   , Cn3 
	.byte	W18
	.byte		        Cn4 
	.byte	W18
	.byte		N11   , Gn3 
	.byte	W12
	.byte		N18   , Cn3 
	.byte	W18
	.byte		        Cn4 
	.byte	W18
	.byte		N11   , Gn3 
	.byte	W12
	.byte		N18   , Cs3 
	.byte	W18
	.byte		        Cs4 
	.byte	W18
	.byte		N11   , Gs3 
	.byte	W12
	.byte		N18   , Cs3 
	.byte	W18
	.byte		        Cs4 
	.byte	W18
	.byte		N11   , Gs3 
	.byte	W12
	.byte		N18   , Cn3 
	.byte	W18
	.byte		        Cn4 
	.byte	W18
	.byte		N11   , Gn3 
	.byte	W12
	.byte		N18   , Cn3 
	.byte	W18
	.byte		N24   , Cn4 
	.byte	W30
	.byte		N18   , Bn3 
	.byte	W18
	.byte		        Bn4 
	.byte	W18
	.byte		N11   , Fs4 
	.byte	W12
	.byte		N18   , Bn3 
	.byte	W18
	.byte		        Bn4 
	.byte	W18
	.byte		N11   , Fs4 
	.byte	W12
	.byte		N18   , Cn4 
	.byte	W18
	.byte		        Cn5 
	.byte	W18
	.byte		N11   , Gn4 
	.byte	W12
	.byte		N18   , Cn4 
	.byte	W18
	.byte		        Cn5 
	.byte	W18
	.byte		N11   , Gn4 
	.byte	W12
	.byte		N18   , Cs4 
	.byte	W18
	.byte		        Cs5 
	.byte	W18
	.byte		N11   , Gs4 
	.byte	W12
	.byte		N18   , Cs4 
	.byte	W18
	.byte		        Cs5 
	.byte	W18
	.byte		N11   , Cs4 
	.byte	W06
	.byte		N05   , Gs4 
	.byte	W06
	.byte		N06   , Dn4 
	.byte	W06
	.byte		        Dn5 
	.byte	W06
	.byte		        Dn4 
	.byte	W06
	.byte		        Dn5 
	.byte	W06
	.byte		        Dn4 
	.byte	W06
	.byte		        Dn5 
	.byte	W06
	.byte		        Dn4 
	.byte	W06
	.byte		        Dn5 
	.byte	W06
	.byte		N04   , Dn4 
	.byte	W04
	.byte		        Dn5 
	.byte	W04
	.byte		        Dn4 
	.byte	W04
	.byte		        Dn5 
	.byte	W04
	.byte		        Dn4 
	.byte	W04
	.byte		        Dn5 
	.byte	W04
	.byte		        Dn4 
	.byte	W04
	.byte		        Dn5 
	.byte	W04
	.byte		        Dn4 
	.byte	W04
	.byte		        Dn5 
	.byte	W04
	.byte		        Dn4 
	.byte	W04
	.byte		TIE   , Dn5 
	.byte	W04
	.byte		BEND  , c_v+0
	.byte	W03
	.byte		MOD   , 4
	.byte	W03
	.byte		BEND  , c_v-4
	.byte	W03
	.byte		MOD   , 8
	.byte	W03
	.byte		BEND  , c_v-8
	.byte	W03
	.byte		MOD   , 13
	.byte	W03
	.byte		BEND  , c_v-12
	.byte	W03
	.byte		MOD   , 18
	.byte	W03
	.byte		BEND  , c_v-16
	.byte	W03
	.byte		MOD   , 23
	.byte	W03
	.byte		BEND  , c_v-20
	.byte	W03
	.byte		MOD   , 27
	.byte	W03
	.byte		BEND  , c_v-24
	.byte	W03
	.byte		MOD   , 32
	.byte	W03
	.byte		BEND  , c_v-28
	.byte	W03
	.byte		MOD   , 37
	.byte	W03
	.byte		BEND  , c_v-32
	.byte	W03
	.byte		MOD   , 42
	.byte	W03
	.byte		BEND  , c_v-36
	.byte	W03
	.byte		MOD   , 46
	.byte	W03
	.byte		BEND  , c_v-40
	.byte	W03
	.byte		MOD   , 51
	.byte	W03
	.byte		BEND  , c_v-44
	.byte	W03
	.byte		MOD   , 56
	.byte	W03
	.byte		BEND  , c_v-48
	.byte	W03
	.byte		MOD   , 61
	.byte	W03
	.byte		BEND  , c_v-52
	.byte	W03
	.byte		MOD   , 65
	.byte	W03
	.byte		BEND  , c_v-56
	.byte	W03
	.byte		MOD   , 70
	.byte	W03
	.byte		BEND  , c_v-60
	.byte	W03
	.byte		MOD   , 75
	.byte	W03
	.byte		EOT
	.byte		BEND  , c_v-64
	.byte	W03
	.byte		MOD   , 80
	.byte	W05
	.byte		VOICE , 5
	.byte	W01
	.byte		VOL   , 75*seq_000_mvl/mxv
	.byte	W01
	.byte		BEND  , c_v+0
	.byte	W01
	.byte		MOD   , 4
	.byte	W01
	.byte		N04   , Cn4 
	.byte	W12
	.byte		N04
	.byte	W12
	.byte		N15
	.byte	W24
	.byte		N06
	.byte	W12
	.byte		N11
	.byte	W12
	.byte		N09   , As3 
	.byte	W12
	.byte		N15   , Ds4 
	.byte	W18
	.byte		N16   , Cs4 
	.byte	W18
	.byte		N07   , Cn4 
	.byte	W12
	.byte		N15   , Ds4 
	.byte	W18
	.byte		N16   , Cs4 
	.byte	W18
	.byte		N09   , Cn4 
	.byte	W12
	.byte	W12
	.byte		N04
	.byte	W12
	.byte		N04
	.byte	W12
	.byte		N15
	.byte	W24
	.byte		N06
	.byte	W12
	.byte		N06
	.byte	W12
	.byte		N06
	.byte	W06
	.byte		        Cs4 
	.byte	W06
	.byte		N15   , Gs4 
	.byte	W18
	.byte		N16   , Gn4 
	.byte	W18
	.byte		N23   , Fn4 
	.byte	W24
	.byte		N10   , Ds4 
	.byte	W12
	.byte		        Cs4 
	.byte	W12
	.byte		        Cn4 
	.byte	W12
	.byte	W12
	.byte		N06   , Dn4 
	.byte	W12
	.byte		N06
	.byte	W12
	.byte		N06
	.byte	W12
	.byte		N18
	.byte	W24
	.byte		N11
	.byte	W12
	.byte		N09   , Ds4 
	.byte	W12
	.byte		N15   , Fn4 
	.byte	W18
	.byte		N16   , Ds4 
	.byte	W18
	.byte		N07   , Fn4 
	.byte	W12
	.byte		N30   , Gn4 
	.byte	W36
	.byte		N06   , Fn4 
	.byte	W06
	.byte		        Gn4 
	.byte	W06
	.byte		N15   , Gs4 
	.byte	W18
	.byte		N16   , Gn4 
	.byte	W18
	.byte		N07   , Gs4 
	.byte	W12
	.byte		N30   , As4 
	.byte	W36
	.byte		N06   , Gs4 
	.byte	W06
	.byte		        As4 
	.byte	W06
	.byte		PAN   , c_v-64
	.byte		N12   , Cn5 
	.byte	W24
	.byte		PAN   , c_v+63
	.byte		N12
	.byte	W24
	.byte		PAN   , c_v-64
	.byte		N12
	.byte	W24
	.byte		PAN   , c_v+63
	.byte		N12
	.byte	W24
	.byte		PAN   , c_v-64
	.byte		N12
	.byte	W96
	.byte	W96
	.byte	GOTO
	 .word	seq_000_5 + 0xF
	.byte	FINE

@*********************** Track 07 ***********************@

seq_000_6:
	.byte	KEYSH , seq_000_key+0
	.byte	W05
	.byte		LFOS  , 25
	.byte	W01
	.byte		BENDR , 6
	.byte	W01
	.byte		LFODL , 15
	.byte	W01
	.byte		MODT  , mod_vib
	.byte	W01
	.byte		TUNE  , c_v+4
	.byte	W03
	.byte	W96
	.byte	W96
	.byte	W04
	.byte		VOICE , 6
	.byte	W01
	.byte		VOL   , 75*seq_000_mvl/mxv
	.byte	W05
	.byte		MOD   , 5
	.byte	W18
	.byte		BEND  , c_v+0
	.byte	W68
	.byte	W04
	.byte		PAN   , c_v+63
	.byte	W92
	.byte	W04
	.byte		N06   , Bn3 , v080
	.byte	W06
	.byte		        An3 
	.byte	W06
	.byte		        Gn3 
	.byte	W06
	.byte		        Fs3 
	.byte	W06
	.byte		        Bn3 
	.byte	W06
	.byte		        An3 
	.byte	W06
	.byte		        Gn3 
	.byte	W06
	.byte		        Fs3 
	.byte	W06
	.byte		        Bn3 
	.byte	W06
	.byte		        An3 
	.byte	W06
	.byte		        Gn3 
	.byte	W06
	.byte		        Fs3 
	.byte	W06
	.byte		        Bn3 
	.byte	W06
	.byte		        An3 
	.byte	W06
	.byte		        Gn3 
	.byte	W06
	.byte		N12   , Fs3 
	.byte	W02
	.byte	W10
	.byte		N06   , Gn3 
	.byte	W06
	.byte		        Fs3 
	.byte	W06
	.byte		N12   , Gn3 
	.byte	W12
	.byte		N06   , Fs3 
	.byte	W06
	.byte		        En3 
	.byte	W06
	.byte		N12   , Fs3 
	.byte	W12
	.byte		N06   , En3 
	.byte	W06
	.byte		        Dn3 
	.byte	W06
	.byte		        En3 
	.byte	W06
	.byte		        Fs3 
	.byte	W06
	.byte		        Gn3 
	.byte	W06
	.byte		        An3 
	.byte	W06
	.byte		        Bn3 
	.byte	W02
	.byte	W04
	.byte		N06
	.byte	W06
	.byte		N06
	.byte	W06
	.byte		        Bn4 
	.byte	W06
	.byte		        Bn3 
	.byte	W06
	.byte		N06
	.byte	W06
	.byte		        Bn4 
	.byte	W06
	.byte		        Bn3 
	.byte	W06
	.byte		N06
	.byte	W06
	.byte		        Bn4 
	.byte	W06
	.byte		        Bn3 
	.byte	W06
	.byte		N06
	.byte	W06
	.byte		N06
	.byte	W06
	.byte		        Bn4 
	.byte	W06
	.byte		        Bn3 
	.byte	W06
	.byte		N06
	.byte	W06
	.byte		N06
	.byte	W02
	.byte	W04
	.byte		N04   , En4 
	.byte	W06
	.byte		N04
	.byte	W06
	.byte		N08
	.byte	W12
	.byte		N04   , Dn4 
	.byte	W06
	.byte		N04
	.byte	W06
	.byte		N08
	.byte	W12
	.byte		N04   , Cn4 
	.byte	W06
	.byte		N04
	.byte	W06
	.byte		N08
	.byte	W12
	.byte		N06   , Dn4 
	.byte	W06
	.byte		        Cn4 
	.byte	W06
	.byte		        Bn3 
	.byte	W06
	.byte		        An3 
	.byte	W02
	.byte	W04
	.byte		        Bn2 
	.byte	W06
	.byte		        Cn3 
	.byte	W06
	.byte		        Dn3 
	.byte	W06
	.byte		        En3 
	.byte	W06
	.byte		        Bn2 
	.byte	W06
	.byte		        Cn3 
	.byte	W06
	.byte		        Dn3 
	.byte	W06
	.byte		        En3 
	.byte	W06
	.byte		        Cn3 
	.byte	W06
	.byte		        Dn3 
	.byte	W06
	.byte		        En3 
	.byte	W06
	.byte		N12   , Fs3 
	.byte	W12
	.byte		N06   , Dn3 
	.byte	W06
	.byte		        En3 
	.byte	W06
	.byte		N12   , Fs3 
	.byte	W02
	.byte	W10
	.byte		N06   , En3 
	.byte	W06
	.byte		        Fs3 
	.byte	W06
	.byte		N12   , Gn3 
	.byte	W12
	.byte		N06   , Fs3 
	.byte	W06
	.byte		        Gn3 
	.byte	W06
	.byte		        An3 
	.byte	W06
	.byte		        Fs3 
	.byte	W06
	.byte		        Gn3 
	.byte	W06
	.byte		        An3 
	.byte	W06
	.byte		N12   , Bn3 
	.byte	W12
	.byte		N06   , An3 
	.byte	W06
	.byte		        Bn3 
	.byte	W06
	.byte		N18   , Cn4 
	.byte	W02
	.byte	W16
	.byte		N06   , Cs5 
	.byte	W06
	.byte		        Cs4 
	.byte	W06
	.byte		        Cs5 
	.byte	W06
	.byte		        Cs4 
	.byte	W06
	.byte		        Cs5 
	.byte	W06
	.byte		        Cs4 
	.byte	W06
	.byte		        Cs5 
	.byte	W06
	.byte		        Cs4 
	.byte	W06
	.byte		        Cs5 
	.byte	W06
	.byte		        Cs4 
	.byte	W06
	.byte		        Cs5 
	.byte	W06
	.byte		        Cs4 
	.byte	W06
	.byte		N06
	.byte	W06
	.byte		N06
	.byte	W02
	.byte	W04
	.byte		        En4 
	.byte	W06
	.byte		        Dn4 
	.byte	W06
	.byte		        Cn4 
	.byte	W06
	.byte		        Bn3 
	.byte	W06
	.byte		        Dn4 
	.byte	W06
	.byte		        Cn4 
	.byte	W06
	.byte		        Bn3 
	.byte	W06
	.byte		N12   , An3 
	.byte	W12
	.byte		N06   , Fs3 
	.byte	W06
	.byte		        Gn3 
	.byte	W06
	.byte		        An3 
	.byte	W06
	.byte		        Cn4 
	.byte	W06
	.byte		        Bn3 
	.byte	W06
	.byte		        An3 
	.byte	W06
	.byte		        Gn3 
	.byte	W02
	.byte	W04
	.byte		N18   , Bn2 
	.byte	W18
	.byte		        Bn3 
	.byte	W18
	.byte		N11   , Fs3 
	.byte	W12
	.byte		N18   , Bn2 
	.byte	W18
	.byte		        Bn3 
	.byte	W18
	.byte		N11   , Fs3 
	.byte	W08
	.byte	W04
	.byte		N18   , Cn3 
	.byte	W18
	.byte		        Cn4 
	.byte	W18
	.byte		N11   , Gn3 
	.byte	W12
	.byte		N18   , Cn3 
	.byte	W18
	.byte		        Cn4 
	.byte	W18
	.byte		N11   , Gn3 
	.byte	W08
	.byte	W04
	.byte		N18   , Cs3 
	.byte	W18
	.byte		        Cs4 
	.byte	W18
	.byte		N11   , Gs3 
	.byte	W12
	.byte		N18   , Cs3 
	.byte	W18
	.byte		        Cs4 
	.byte	W18
	.byte		N11   , Gs3 
	.byte	W08
	.byte	W04
	.byte		N18   , Cn3 
	.byte	W18
	.byte		        Cn4 
	.byte	W18
	.byte		N11   , Gn3 
	.byte	W12
	.byte		N18   , Cn3 
	.byte	W18
	.byte		N24   , Cn4 
	.byte	W24
	.byte	W02
	.byte	W04
	.byte		N18   , Bn3 
	.byte	W18
	.byte		        Bn4 
	.byte	W18
	.byte		N11   , Fs4 
	.byte	W12
	.byte		N18   , Bn3 
	.byte	W18
	.byte		        Bn4 
	.byte	W18
	.byte		N11   , Fs4 
	.byte	W08
	.byte	W04
	.byte		N18   , Cn4 
	.byte	W18
	.byte		        Cn5 
	.byte	W18
	.byte		N11   , Gn4 
	.byte	W12
	.byte		N18   , Cn4 
	.byte	W18
	.byte		        Cn5 
	.byte	W18
	.byte		N11   , Gn4 
	.byte	W08
	.byte	W04
	.byte		N18   , Cs4 
	.byte	W18
	.byte		        Cs5 
	.byte	W18
	.byte		N11   , Gs4 
	.byte	W12
	.byte		N18   , Cs4 
	.byte	W18
	.byte		        Cs5 
	.byte	W18
	.byte		N11   , Cs4 
	.byte	W06
	.byte		N05   , Gs4 
	.byte	W02
	.byte	W04
	.byte		N06   , Dn4 
	.byte	W06
	.byte		        Dn5 
	.byte	W06
	.byte		        Dn4 
	.byte	W06
	.byte		        Dn5 
	.byte	W06
	.byte		        Dn4 
	.byte	W06
	.byte		        Dn5 
	.byte	W06
	.byte		        Dn4 
	.byte	W06
	.byte		        Dn5 
	.byte	W06
	.byte		N04   , Dn4 
	.byte	W04
	.byte		        Dn5 
	.byte	W04
	.byte		        Dn4 
	.byte	W04
	.byte		        Dn5 
	.byte	W04
	.byte		        Dn4 
	.byte	W04
	.byte		        Dn5 
	.byte	W04
	.byte		        Dn4 
	.byte	W04
	.byte		        Dn5 
	.byte	W04
	.byte		        Dn4 
	.byte	W04
	.byte		        Dn5 
	.byte	W04
	.byte		        Dn4 
	.byte	W04
	.byte		TIE   , Dn5 
	.byte	W07
	.byte		MOD   , 4
	.byte	W03
	.byte		BEND  , c_v-4
	.byte	W03
	.byte		MOD   , 8
	.byte	W03
	.byte		BEND  , c_v-8
	.byte	W03
	.byte		MOD   , 13
	.byte	W03
	.byte		BEND  , c_v-12
	.byte	W03
	.byte		MOD   , 18
	.byte	W03
	.byte		BEND  , c_v-16
	.byte	W03
	.byte		MOD   , 23
	.byte	W03
	.byte		BEND  , c_v-20
	.byte	W03
	.byte		MOD   , 27
	.byte	W03
	.byte		BEND  , c_v-24
	.byte	W03
	.byte		MOD   , 32
	.byte	W03
	.byte		BEND  , c_v-28
	.byte	W03
	.byte		MOD   , 37
	.byte	W03
	.byte		BEND  , c_v-32
	.byte	W03
	.byte		MOD   , 42
	.byte	W03
	.byte		BEND  , c_v-36
	.byte	W03
	.byte		MOD   , 46
	.byte	W03
	.byte		BEND  , c_v-40
	.byte	W03
	.byte		MOD   , 51
	.byte	W03
	.byte		BEND  , c_v-44
	.byte	W03
	.byte		MOD   , 56
	.byte	W03
	.byte		BEND  , c_v-48
	.byte	W03
	.byte		MOD   , 61
	.byte	W03
	.byte		BEND  , c_v-52
	.byte	W03
	.byte		MOD   , 65
	.byte	W03
	.byte		BEND  , c_v-56
	.byte	W03
	.byte		MOD   , 70
	.byte	W03
	.byte		BEND  , c_v-60
	.byte	W02
	.byte	W01
	.byte		MOD   , 75
	.byte	W03
	.byte		EOT
	.byte		BEND  , c_v-64
	.byte	W03
	.byte		MOD   , 80
	.byte	W09
	.byte		VOICE , 7
	.byte	W01
	.byte		VOL   , 47*seq_000_mvl/mxv
	.byte	W01
	.byte		BEND  , c_v+0
	.byte	W01
	.byte		MOD   , 4
	.byte	W01
	.byte		N04   , Cn4 , v100
	.byte	W12
	.byte		N04
	.byte	W12
	.byte		N15
	.byte	W24
	.byte		N06
	.byte	W12
	.byte		N11
	.byte	W12
	.byte		N09   , As3 
	.byte	W04
	.byte	W08
	.byte		N15   , Ds4 
	.byte	W18
	.byte		N16   , Cs4 
	.byte	W18
	.byte		N07   , Cn4 
	.byte	W12
	.byte		N15   , Ds4 
	.byte	W18
	.byte		N16   , Cs4 
	.byte	W18
	.byte		N09   , Cn4 
	.byte	W04
	.byte	W20
	.byte		N04
	.byte	W12
	.byte		N04
	.byte	W12
	.byte		N15
	.byte	W24
	.byte		N06
	.byte	W12
	.byte		N06
	.byte	W12
	.byte		N06
	.byte	W04
	.byte	W02
	.byte		        Cs4 
	.byte	W06
	.byte		N15   , Gs4 
	.byte	W18
	.byte		N16   , Gn4 
	.byte	W18
	.byte		N23   , Fn4 
	.byte	W24
	.byte		N10   , Ds4 
	.byte	W12
	.byte		        Cs4 
	.byte	W12
	.byte		        Cn4 
	.byte	W04
	.byte	W20
	.byte		N06   , Dn4 
	.byte	W12
	.byte		N06
	.byte	W12
	.byte		N06
	.byte	W12
	.byte		N18
	.byte	W24
	.byte		N11
	.byte	W12
	.byte		N09   , Ds4 
	.byte	W04
	.byte	W08
	.byte		N15   , Fn4 
	.byte	W18
	.byte		N16   , Ds4 
	.byte	W18
	.byte		N07   , Fn4 
	.byte	W12
	.byte		N30   , Gn4 
	.byte	W36
	.byte		N06   , Fn4 
	.byte	W04
	.byte	W02
	.byte		        Gn4 
	.byte	W06
	.byte		N15   , Gs4 
	.byte	W18
	.byte		N16   , Gn4 
	.byte	W18
	.byte		N07   , Gs4 
	.byte	W12
	.byte		N30   , As4 
	.byte	W36
	.byte		N06   , Gs4 
	.byte	W04
	.byte	W02
	.byte		        As4 
	.byte	W06
	.byte		PAN   , c_v-64
	.byte		N12   , Cn5 
	.byte	W24
	.byte		PAN   , c_v+63
	.byte		N12
	.byte	W24
	.byte		PAN   , c_v-64
	.byte		N12
	.byte	W24
	.byte		PAN   , c_v+63
	.byte		N12
	.byte	W16
	.byte	W08
	.byte		PAN   , c_v-64
	.byte		N12
	.byte	W88
	.byte	W96
	.byte	GOTO
	 .word	seq_000_6 + 0x13
	.byte	FINE

@******************************************************@

	.align	2

seq_000:
	.byte	7	@ NumTrks
	.byte	0	@ NumBlks
	.byte	seq_000_pri	@ Priority
	.byte	seq_000_rev	@ Reverb

	.word	seq_000_grp

	.word	seq_000_0
	.word	seq_000_1
	.word	seq_000_2
	.word	seq_000_3
	.word	seq_000_4
	.word	seq_000_5
	.word	seq_000_6

	.end
