@ File generated by m4a2s Song-Module
	.include "MPlayDef.s"

	.equ	seq_000_grp, bank_000
	.equ	seq_000_pri, 0
	.equ	seq_000_rev, 168
	.equ	seq_000_mvl, 127
	.equ	seq_000_key, 0

	.section .rodata
	.global	seq_000
	.align	2

@*********************** Track 01 ***********************@

seq_000_0:
	.byte	KEYSH , seq_000_key+0
	.byte	TEMPO , 90/2
	.byte		VOICE , 0
	.byte	W01
	.byte		VOL   , 120*seq_000_mvl/mxv
	.byte	W11
	.byte	W48
	.byte	TEMPO , 104/2
	.byte	W24
	.byte	TEMPO , 130/2
	.byte	W24
	.byte	TEMPO , 144/2
	.byte	W24
	.byte	TEMPO , 150/2
	.byte	W48
	.byte	TEMPO , 170/2
	.byte		N04   , Ds3 , v072
	.byte	W06
	.byte		        Ds3 , v088
	.byte	W06
	.byte		        Ds3 , v108
	.byte	W06
	.byte		        Ds3 , v127
	.byte	W06
	.byte		N05   , Cn3 , v127
	.byte		N07   , Ds3 
	.byte	W12
	.byte		N05   , Cn3 
	.byte	W12
	.byte		        Cn3 , v072
	.byte	W12
	.byte		N07   , Ds3 , v116
	.byte	W12
	.byte		N05   , Cn3 , v127
	.byte	W12
	.byte		        Cn3 , v072
	.byte	W12
	.byte		N07   , Ds3 , v127
	.byte	W12
	.byte		N05   , Cn3 
	.byte	W12
	.byte		N05   , Cn3 , v072
	.byte	W12
	.byte		N07   , Ds3 , v112
	.byte	W12
	.byte		N05   , Cn3 , v127
	.byte	W12
	.byte		        Cn3 , v072
	.byte	W12
	.byte		N07   , Ds3 , v127
	.byte	W12
	.byte		        Ds3 , v092
	.byte	W12
	.byte		N05   , Cn3 , v127
	.byte	W12
	.byte		        Cn3 , v072
	.byte	W12
	.byte	PEND
	.byte		N07   , Ds3 , v127
	.byte	W12
	.byte		N05   , Cn3 
	.byte	W12
	.byte		        Cn3 , v072
	.byte	W12
	.byte		N07   , Ds3 , v116
	.byte	W12
	.byte		N05   , Cn3 , v127
	.byte	W12
	.byte		        Cn3 , v072
	.byte	W12
	.byte		N07   , Ds3 , v127
	.byte	W12
	.byte		N05   , Cn3 
	.byte	W12
	.byte	PEND
	.byte	PATT
	 .word	seq_000_0 + 0x44
	.byte	PATT
	 .word	seq_000_0 + 0x62
	.byte	PATT
	 .word	seq_000_0 + 0x44
	.byte	PATT
	 .word	seq_000_0 + 0x62
	.byte		N05   , Cn3 , v127
	.byte	W12
	.byte		N07   , Ds3 , v092
	.byte	W12
	.byte		N05   , Cn3 , v127
	.byte	W12
	.byte		N07   , Ds3 , v112
	.byte	W12
	.byte		        Ds3 , v127
	.byte	W12
	.byte		        Ds3 , v112
	.byte	W12
	.byte		        Ds3 , v120
	.byte	W12
	.byte		N05   , Cn3 , v092
	.byte	W12
	.byte		N07   , Ds3 , v100
	.byte	W12
	.byte		N05   , Cn3 , v092
	.byte	W12
	.byte		N07   , Ds3 , v108
	.byte	W12
	.byte		N05   , Cn3 , v100
	.byte	W12
	.byte		N07   , Ds3 , v120
	.byte	W12
	.byte		N05   , Cn3 , v112
	.byte	W12
	.byte		N07   , Ds3 , v127
	.byte	W12
	.byte		N05   , Cn3 , v120
	.byte	W12
	.byte	PEND
	.byte		N05   , Cn3 , v127
	.byte	W12
	.byte		N07   , Ds3 , v112
	.byte	W12
	.byte		N05   , Cn3 , v127
	.byte	W12
	.byte		        Cn3 , v080
	.byte	W12
	.byte		N07   , Ds3 , v127
	.byte	W12
	.byte		        Ds3 , v112
	.byte	W12
	.byte		        Ds3 , v127
	.byte	W12
	.byte		N05   , Cn3 , v092
	.byte	W12
	.byte	PEND
	.byte	PATT
	 .word	seq_000_0 + 0xB0
	.byte	PATT
	 .word	seq_000_0 + 0xD1
	.byte	PATT
	 .word	seq_000_0 + 0xB0
	.byte		N05   , Cn3 , v127
	.byte	W12
	.byte		N07   , Ds3 , v112
	.byte	W12
	.byte		N05   , Cn3 , v127
	.byte	W12
	.byte		        Cn3 , v080
	.byte	W12
	.byte		N07   , Ds3 , v127
	.byte	W12
	.byte		        Ds3 , v100
	.byte	W12
	.byte		N05   , Cn3 , v127
	.byte	W12
	.byte		        Cn3 , v080
	.byte	W12
	.byte	PATT
	 .word	seq_000_0 + 0xB0
	.byte		N05   , Cn3 , v088
	.byte	W12
	.byte		N07   , Ds3 , v100
	.byte	W12
	.byte		        Ds3 , v116
	.byte	W12
	.byte		N05   , Cn3 , v127
	.byte	W06
	.byte		        Cn3 , v080
	.byte	W06
	.byte		N07   , Ds3 
	.byte	W12
	.byte		        Ds3 , v096
	.byte	W12
	.byte		        Ds3 , v112
	.byte	W12
	.byte		        Ds3 , v127
	.byte	W12
	.byte		N05   , Cn3 , v127
	.byte	W24
	.byte		N07   , Ds3 
	.byte	W18
	.byte		N05   , Cn3 , v072
	.byte	W06
	.byte		        Cn3 , v127
	.byte	W12
	.byte		        Cn3 , v072
	.byte	W12
	.byte		N07   , Ds3 , v127
	.byte	W12
	.byte		N05   , Cn3 , v092
	.byte	W12
	.byte	PEND
	.byte		N05   , Cn3 , v127
	.byte	W12
	.byte		        Cn3 , v072
	.byte	W12
	.byte		N07   , Ds3 , v127
	.byte	W18
	.byte		N05   , Cn3 , v072
	.byte	W06
	.byte		        Cn3 , v127
	.byte	W12
	.byte		        Cn3 , v072
	.byte	W12
	.byte		N07   , Ds3 , v127
	.byte	W12
	.byte		N05   , Cn3 , v092
	.byte	W12
	.byte	PEND
	.byte	PATT
	 .word	seq_000_0 + 0x13E
	.byte		N05   , Cn3 , v127
	.byte	W12
	.byte		        Cn3 , v072
	.byte	W12
	.byte		N07   , Ds3 , v127
	.byte	W18
	.byte		N05   , Cn3 , v072
	.byte	W06
	.byte		        Cn3 , v127
	.byte	W12
	.byte		        Cn3 , v072
	.byte	W24
	.byte		        Cn3 , v092
	.byte	W12
	.byte	PATT
	 .word	seq_000_0 + 0x13E
	.byte	PATT
	 .word	seq_000_0 + 0x158
	.byte	PATT
	 .word	seq_000_0 + 0x13E
	.byte	PATT
	 .word	seq_000_0 + 0x158
	.byte		N05   , Cn3 , v127
	.byte	W12
	.byte		        Cn3 , v072
	.byte	W12
	.byte		N07   , Ds3 , v127
	.byte	W18
	.byte		N05   , Cn3 , v072
	.byte	W06
	.byte		        Cn3 , v127
	.byte	W12
	.byte		        Cn3 , v072
	.byte	W12
	.byte		N07   , Ds3 , v127
	.byte	W12
	.byte		N07
	.byte	W12
	.byte		N05   , Cn3 
	.byte	W12
	.byte		N07   , Ds3 , v116
	.byte	W12
	.byte		        Ds3 , v127
	.byte	W18
	.byte		N05   , Cn3 , v100
	.byte	W06
	.byte		N07   , Ds3 , v116
	.byte	W12
	.byte		        Ds3 , v127
	.byte	W24
	.byte		N07
	.byte	W12
	.byte		N05   , Cn3 
	.byte	W12
	.byte		N07   , Ds3 , v116
	.byte	W12
	.byte		        Ds3 , v127
	.byte	W18
	.byte		N05   , Cn3 , v100
	.byte	W06
	.byte		N07   , Ds3 , v116
	.byte	W12
	.byte		        Ds3 , v127
	.byte	W12
	.byte		N05   , Cn3 
	.byte	W06
	.byte		        Cn3 , v092
	.byte	W06
	.byte		        Cn3 , v127
	.byte	W12
	.byte	GOTO
	 .word	seq_000_0 + 0x26
	.byte	FINE

@*********************** Track 02 ***********************@

seq_000_1:
	.byte	KEYSH , seq_000_key+0
	.byte		VOICE , 0
	.byte		VOL   , 56*seq_000_mvl/mxv
	.byte	W01
	.byte		PAN   , c_v+0
	.byte	W11
	.byte		TIE   , Bn1 , v127
	.byte	W96
	.byte	W48
	.byte		EOT
	.byte	W48
	.byte		N48   , Dn2 , v116
	.byte	W24
	.byte		N02   , Fs1 , v120
	.byte	W06
	.byte		        Fs1 , v052
	.byte	W06
	.byte		N48   , Cs2 , v092
	.byte	W18
	.byte		N02   , Fs1 , v052
	.byte	W06
	.byte		        Fs1 , v092
	.byte	W12
	.byte		N48   , Ds2 , v116
	.byte	W24
	.byte		N02   , Fs1 , v100
	.byte	W06
	.byte		        Fs1 , v052
	.byte	W06
	.byte		N48   , Cs2 , v092
	.byte	W24
	.byte		N02   , Fs1 
	.byte	W06
	.byte		        Fs1 , v052
	.byte	W06
	.byte		N48   , Dn2 , v116
	.byte	W24
	.byte		N02   , Fs1 , v120
	.byte	W06
	.byte		        Fs1 , v052
	.byte	W06
	.byte		        Fs1 , v092
	.byte	W06
	.byte		        Fs1 , v052
	.byte	W06
	.byte		N48   , Cs2 , v092
	.byte	W24
	.byte		N02   , Fs1 , v120
	.byte	W06
	.byte		        Fs1 , v052
	.byte	W06
	.byte		N48   , Ds2 , v092
	.byte	W24
	.byte		N02   , Fs1 
	.byte	W06
	.byte		        Fs1 , v052
	.byte	W06
	.byte		N48   , Cs2 , v092
	.byte	W24
	.byte		N02   , Fs1 , v100
	.byte	W06
	.byte		        Fs1 , v052
	.byte	W06
	.byte		N48   , Dn2 , v092
	.byte	W24
	.byte		N02   , Fs1 
	.byte	W06
	.byte		        Fs1 , v052
	.byte	W06
	.byte		N48   , Cs2 , v092
	.byte	W24
	.byte		N02   , Fs1 , v120
	.byte	W06
	.byte		        Fs1 , v052
	.byte	W06
	.byte		        Fs1 , v092
	.byte	W06
	.byte		        Fs1 , v052
	.byte	W06
	.byte		N48   , Ds2 , v116
	.byte	W24
	.byte		N02   , Fs1 , v120
	.byte	W06
	.byte		        Fs1 , v052
	.byte	W06
	.byte		N48   , Cs2 , v092
	.byte	W24
	.byte		N02   , Fs1 
	.byte	W06
	.byte		        Fs1 , v052
	.byte	W06
	.byte		N48   , Dn2 , v116
	.byte	W24
	.byte		N02   , Fs1 , v100
	.byte	W06
	.byte		        Fs1 , v052
	.byte	W06
	.byte		N48   , Cs2 , v092
	.byte	W24
	.byte		N02   , Fs1 
	.byte	W06
	.byte		        Fs1 , v052
	.byte	W06
	.byte		N48   , Ds2 , v116
	.byte	W24
	.byte		        Cs2 , v092
	.byte	W24
	.byte		        Dn2 , v116
	.byte	W24
	.byte		N02   , Fs1 , v120
	.byte	W06
	.byte		        Fs1 , v052
	.byte	W06
	.byte		N48   , Cs2 , v092
	.byte	W24
	.byte		N02   , Fs1 
	.byte	W06
	.byte		        Fs1 , v052
	.byte	W06
	.byte		N48   , Ds2 , v116
	.byte	W24
	.byte		N02   , Fs1 , v100
	.byte	W06
	.byte		        Fs1 , v052
	.byte	W06
	.byte		N48   , Cs2 , v092
	.byte	W24
	.byte		N02   , Fs1 
	.byte	W06
	.byte		        Fs1 , v052
	.byte	W06
	.byte		N48   , Dn2 , v116
	.byte	W24
	.byte		N12   , Cs2 , v092
	.byte	W24
	.byte		N24   , Ds2 , v084
	.byte	W24
	.byte		        Cs2 , v092
	.byte	W24
	.byte		        Dn2 , v108
	.byte	W24
	.byte		N02   , Fs1 , v120
	.byte	W06
	.byte		        Fs1 , v052
	.byte	W06
	.byte		N24   , Cs2 , v084
	.byte	W12
	.byte	PEND
	.byte	W12
	.byte		N30   , Ds2 , v116
	.byte	W24
	.byte		N02   , Fs1 , v092
	.byte	W06
	.byte		        Fs1 , v052
	.byte	W06
	.byte		N24   , Cs2 , v092
	.byte	W24
	.byte		N02   , Fs1 , v120
	.byte	W06
	.byte		        Fs1 , v052
	.byte	W06
	.byte		        Fs1 , v092
	.byte	W06
	.byte		        Fs1 , v052
	.byte	W06
	.byte	PEND
	.byte		N24   , Dn2 , v084
	.byte	W24
	.byte		        Cs2 , v092
	.byte	W24
	.byte		        Ds2 , v108
	.byte	W24
	.byte		N02   , Fs1 , v120
	.byte	W06
	.byte		        Fs1 , v052
	.byte	W06
	.byte		N24   , Cs2 , v084
	.byte	W12
	.byte	PEND
	.byte	W12
	.byte		N30   , Dn2 , v116
	.byte	W24
	.byte		N02   , Fs1 , v092
	.byte	W06
	.byte		        Fs1 , v052
	.byte	W06
	.byte		N24   , Cs2 , v092
	.byte	W24
	.byte		N02   , Fs1 , v120
	.byte	W06
	.byte		        Fs1 , v052
	.byte	W06
	.byte		        Fs1 , v092
	.byte	W06
	.byte		        Fs1 , v052
	.byte	W06
	.byte	PATT
	 .word	seq_000_1 + 0xEA
	.byte	PATT
	 .word	seq_000_1 + 0x100
	.byte	PATT
	 .word	seq_000_1 + 0x11E
	.byte	W12
	.byte		N36   , Dn2 , v116
	.byte	W24
	.byte		N02   , Fs1 , v092
	.byte	W06
	.byte		        Fs1 , v052
	.byte	W06
	.byte		N24   , Cs2 , v092
	.byte	W24
	.byte		        Ds2 , v116
	.byte	W24
	.byte		N48   , Cs2 , v127
	.byte	W24
	.byte		N02   , Fs1 , v120
	.byte	W06
	.byte		        Fs1 , v052
	.byte	W06
	.byte		        Fs1 , v092
	.byte	W06
	.byte		        Fs1 , v052
	.byte	W06
	.byte		        Fs1 , v100
	.byte	W06
	.byte		        Fs1 , v052
	.byte	W06
	.byte		        Fs1 , v092
	.byte	W06
	.byte		        Fs1 , v052
	.byte	W06
	.byte		        Fs1 , v120
	.byte	W06
	.byte		        Fs1 , v052
	.byte	W06
	.byte		        Fs1 , v092
	.byte	W06
	.byte		        Fs1 , v052
	.byte	W06
	.byte		N02   , Fs1 , v100
	.byte	W06
	.byte		        Fs1 , v052
	.byte	W06
	.byte		        Fs1 , v092
	.byte	W06
	.byte		        Fs1 , v052
	.byte	W06
	.byte		        Fs1 , v120
	.byte	W06
	.byte		        Fs1 , v052
	.byte	W06
	.byte		        Fs1 , v092
	.byte	W06
	.byte		        Fs1 , v052
	.byte	W06
	.byte		        Fs1 , v100
	.byte	W06
	.byte		        Fs1 , v052
	.byte	W06
	.byte		        Fs1 , v092
	.byte	W06
	.byte		        Fs1 , v052
	.byte	W06
	.byte		        Fs1 , v120
	.byte	W06
	.byte		        Fs1 , v052
	.byte	W06
	.byte		        Fs1 , v092
	.byte	W06
	.byte		        Fs1 , v052
	.byte	W06
	.byte	PEND
	.byte	PATT
	 .word	seq_000_1 + 0x19C
	.byte	PATT
	 .word	seq_000_1 + 0x19C
	.byte	PATT
	 .word	seq_000_1 + 0x19C
	.byte	PATT
	 .word	seq_000_1 + 0x19C
	.byte	PATT
	 .word	seq_000_1 + 0x19C
	.byte	PATT
	 .word	seq_000_1 + 0x19C
	.byte	PATT
	 .word	seq_000_1 + 0x19C
	.byte	PATT
	 .word	seq_000_1 + 0x19C
	.byte	W96
	.byte	GOTO
	 .word	seq_000_1 + 0x11
	.byte	FINE

@*********************** Track 03 ***********************@

seq_000_2:
	.byte	KEYSH , seq_000_key+0
	.byte		VOICE , 9
	.byte	W01
	.byte		VOL   , 120*seq_000_mvl/mxv
	.byte	W01
	.byte		LFOS  , 28
	.byte	W01
	.byte		PAN   , c_v+0
	.byte	W01
	.byte		LFODL , 20
	.byte	W01
	.byte		MOD   , 5
	.byte	W01
	.byte		MODT  , mod_vib
	.byte	W06
	.byte		TIE   , En1 , v100
	.byte	W24
	.byte		VOL   , 75*seq_000_mvl/mxv
	.byte	W72
	.byte		        37*seq_000_mvl/mxv
	.byte	W48
	.byte		EOT
	.byte	W36
	.byte		VOICE , 1
	.byte	W01
	.byte		VOL   , 120*seq_000_mvl/mxv
	.byte	W11
	.byte		N15   , An1 , v127
	.byte	W24
	.byte		N15
	.byte	W24
	.byte		N15
	.byte	W24
	.byte		N06
	.byte	W12
	.byte		N15
	.byte	W12
	.byte	PEND
	.byte	W12
	.byte		N15   , An1 , v127
	.byte	W24
	.byte		N06
	.byte	W12
	.byte		N15
	.byte	W24
	.byte		N06
	.byte	W12
	.byte		N06
	.byte	W12
	.byte	PEND
	.byte	PATT
	 .word	seq_000_2 + 0x28
	.byte	W12
	.byte		N15   , An1 , v127
	.byte	W24
	.byte		N06
	.byte	W12
	.byte		N06
	.byte	W12
	.byte		N06
	.byte	W12
	.byte		N15
	.byte	W24
	.byte	PEND
	.byte		N15   , Gn1 , v127
	.byte	W24
	.byte		N15
	.byte	W24
	.byte		N15
	.byte	W24
	.byte		N06
	.byte	W12
	.byte		N15
	.byte	W12
	.byte	PEND
	.byte	W12
	.byte		N15   , Gn1 , v127
	.byte	W24
	.byte		N06
	.byte	W12
	.byte		N15
	.byte	W24
	.byte		N06
	.byte	W12
	.byte		N06
	.byte	W12
	.byte	PEND
	.byte	PATT
	 .word	seq_000_2 + 0x56
	.byte	PATT
	 .word	seq_000_2 + 0x63
	.byte	PATT
	 .word	seq_000_2 + 0x28
	.byte	PATT
	 .word	seq_000_2 + 0x35
	.byte	PATT
	 .word	seq_000_2 + 0x28
	.byte	PATT
	 .word	seq_000_2 + 0x48
	.byte	PATT
	 .word	seq_000_2 + 0x56
	.byte	PATT
	 .word	seq_000_2 + 0x63
	.byte	PATT
	 .word	seq_000_2 + 0x56
	.byte	PATT
	 .word	seq_000_2 + 0x63
	.byte		N07   , Fn1 , v127
	.byte	W12
	.byte		N07
	.byte	W12
	.byte		N07
	.byte	W12
	.byte		N07
	.byte	W12
	.byte		N12
	.byte	W12
	.byte		        Fn2 
	.byte	W12
	.byte		N07   , Fn1 
	.byte	W12
	.byte		N20   , En1 
	.byte	W12
	.byte	W12
	.byte		N07   , En1 , v127
	.byte	W12
	.byte		N07
	.byte	W12
	.byte		N07
	.byte	W12
	.byte		N12
	.byte	W12
	.byte		        En2 
	.byte	W12
	.byte		N07   , En1 
	.byte	W12
	.byte		N20   , Ds1 
	.byte	W12
	.byte	PEND
	.byte	W12
	.byte		N07   , Ds1 , v127
	.byte	W12
	.byte		N07
	.byte	W12
	.byte		N07
	.byte	W12
	.byte		N12
	.byte	W12
	.byte		        Ds2 
	.byte	W12
	.byte		N07   , Ds1 
	.byte	W12
	.byte		N20   , Dn1 
	.byte	W12
	.byte	PEND
	.byte	W12
	.byte		N07
	.byte	W12
	.byte		N20
	.byte	W24
	.byte		N10
	.byte	W12
	.byte		        Ds1 
	.byte	W12
	.byte		        En1 
	.byte	W12
	.byte		N20   , Fn1 
	.byte	W12
	.byte	W12
	.byte		N07
	.byte	W12
	.byte		N07
	.byte	W12
	.byte		N07
	.byte	W12
	.byte		N12
	.byte	W12
	.byte		        Fn2 
	.byte	W12
	.byte		N07   , Fn1 
	.byte	W12
	.byte		N20   , En1 
	.byte	W12
	.byte	PATT
	 .word	seq_000_2 + 0xB7
	.byte	PATT
	 .word	seq_000_2 + 0xCB
	.byte	W12
	.byte		N07   , Dn1 , v127
	.byte	W12
	.byte		N18
	.byte	W24
	.byte		N07
	.byte	W12
	.byte		N10
	.byte	W24
	.byte		N18
	.byte	W12
	.byte	PEND
	.byte	PATT
	 .word	seq_000_2 + 0x108
	.byte	PATT
	 .word	seq_000_2 + 0x108
	.byte	W12
	.byte		N07   , Dn1 , v127
	.byte	W12
	.byte		N18
	.byte	W24
	.byte		N07
	.byte	W12
	.byte		N10
	.byte	W36
	.byte	GOTO
	 .word	seq_000_2 + 0x28
	.byte	FINE

@*********************** Track 04 ***********************@

seq_000_3:
	.byte	KEYSH , seq_000_key+0
	.byte		VOICE , 2
	.byte	W01
	.byte		VOL   , 0*seq_000_mvl/mxv
	.byte	W01
	.byte		PAN   , c_v+0
	.byte	W01
	.byte		LFOS  , 25
	.byte	W01
	.byte		LFODL , 30
	.byte	W01
	.byte		MODT  , mod_vib
	.byte	W01
	.byte		MOD   , 4
	.byte	W01
	.byte		BENDR , 2
	.byte	W01
	.byte		BEND  , c_v+0
	.byte	W04
	.byte		TIE   , Dn3 , v120
	.byte	W06
	.byte		VOL   , 4*seq_000_mvl/mxv
	.byte	W03
	.byte		        5*seq_000_mvl/mxv
	.byte	W03
	.byte		        6*seq_000_mvl/mxv
	.byte	W03
	.byte		        7*seq_000_mvl/mxv
	.byte	W03
	.byte		        8*seq_000_mvl/mxv
	.byte	W03
	.byte		        9*seq_000_mvl/mxv
	.byte	W03
	.byte		        11*seq_000_mvl/mxv
	.byte	W03
	.byte		        12*seq_000_mvl/mxv
	.byte	W03
	.byte		        13*seq_000_mvl/mxv
	.byte	W03
	.byte		        15*seq_000_mvl/mxv
	.byte	W03
	.byte		        16*seq_000_mvl/mxv
	.byte	W03
	.byte		        17*seq_000_mvl/mxv
	.byte	W03
	.byte		        18*seq_000_mvl/mxv
	.byte	W03
	.byte		        19*seq_000_mvl/mxv
	.byte	W03
	.byte		        21*seq_000_mvl/mxv
	.byte	W03
	.byte		        22*seq_000_mvl/mxv
	.byte	W03
	.byte		        24*seq_000_mvl/mxv
	.byte	W03
	.byte		        26*seq_000_mvl/mxv
	.byte	W03
	.byte		        27*seq_000_mvl/mxv
	.byte	W03
	.byte		        29*seq_000_mvl/mxv
	.byte	W03
	.byte		        31*seq_000_mvl/mxv
	.byte	W03
	.byte		        33*seq_000_mvl/mxv
	.byte	W03
	.byte		        34*seq_000_mvl/mxv
	.byte	W03
	.byte		        35*seq_000_mvl/mxv
	.byte	W03
	.byte		        37*seq_000_mvl/mxv
	.byte	W03
	.byte		        39*seq_000_mvl/mxv
	.byte	W03
	.byte		        41*seq_000_mvl/mxv
	.byte	W03
	.byte		        43*seq_000_mvl/mxv
	.byte	W03
	.byte		        45*seq_000_mvl/mxv
	.byte	W03
	.byte		        47*seq_000_mvl/mxv
	.byte	W03
	.byte		        50*seq_000_mvl/mxv
	.byte	W03
	.byte		        51*seq_000_mvl/mxv
	.byte	W03
	.byte		        53*seq_000_mvl/mxv
	.byte	W03
	.byte		        56*seq_000_mvl/mxv
	.byte	W03
	.byte		        58*seq_000_mvl/mxv
	.byte	W03
	.byte		        61*seq_000_mvl/mxv
	.byte	W03
	.byte		        64*seq_000_mvl/mxv
	.byte	W03
	.byte		        66*seq_000_mvl/mxv
	.byte	W03
	.byte		        68*seq_000_mvl/mxv
	.byte	W03
	.byte		        71*seq_000_mvl/mxv
	.byte	W03
	.byte		        74*seq_000_mvl/mxv
	.byte	W03
	.byte		        77*seq_000_mvl/mxv
	.byte	W03
	.byte		        80*seq_000_mvl/mxv
	.byte	W03
	.byte		        84*seq_000_mvl/mxv
	.byte	W03
	.byte		        86*seq_000_mvl/mxv
	.byte	W03
	.byte		        90*seq_000_mvl/mxv
	.byte	W03
	.byte		EOT
	.byte		VOL   , 94*seq_000_mvl/mxv
	.byte	W24
	.byte		        61*seq_000_mvl/mxv
	.byte	W24
	.byte		N06   , Cn4 , v120
	.byte	W06
	.byte		N10   , Cn4 , v080
	.byte	W06
	.byte		N06   , Dn4 , v120
	.byte	W06
	.byte		N10   , Dn4 , v080
	.byte	W06
	.byte		N06   , En4 , v120
	.byte	W06
	.byte		N10   , En4 , v080
	.byte	W06
	.byte		N06   , Dn4 , v120
	.byte	W06
	.byte		N16   , Dn4 , v080
	.byte	W18
	.byte		N06   , En4 , v120
	.byte	W06
	.byte		N10   , En4 , v080
	.byte	W06
	.byte		N06   , Fs4 , v120
	.byte	W06
	.byte		N10   , Fs4 , v080
	.byte	W06
	.byte		N06   , En4 , v120
	.byte	W06
	.byte		N16   , En4 , v080
	.byte	W06
	.byte	PEND
	.byte	W12
	.byte		N06   , Fs4 , v120
	.byte	W06
	.byte		N10   , Fs4 , v080
	.byte	W06
	.byte		N06   , Gn4 , v120
	.byte	W06
	.byte		N10   , Gn4 , v080
	.byte	W06
	.byte		N06   , Fs4 , v120
	.byte	W06
	.byte		N16   , Fs4 , v080
	.byte	W18
	.byte		N06   , Gn4 , v120
	.byte	W06
	.byte		N10   , Gn4 , v080
	.byte	W06
	.byte		N06   , An4 , v120
	.byte	W06
	.byte		N10   , An4 , v080
	.byte	W18
	.byte	PEND
	.byte	PATT
	 .word	seq_000_3 + 0x84
	.byte	PATT
	 .word	seq_000_3 + 0xBD
	.byte		N06   , Cn4 , v120
	.byte	W06
	.byte		N10   , Cn4 , v080
	.byte	W06
	.byte		N06   , Dn4 , v120
	.byte	W06
	.byte		N10   , Dn4 , v080
	.byte	W06
	.byte		N06   , En4 , v120
	.byte	W06
	.byte		N10   , En4 , v080
	.byte	W06
	.byte		N06   , Dn4 , v120
	.byte	W06
	.byte		N16   , Dn4 , v080
	.byte	W18
	.byte		N06   , En4 , v120
	.byte	W06
	.byte		N10   , En4 , v080
	.byte	W06
	.byte		N06   , Fn4 , v120
	.byte	W06
	.byte		N10   , Fn4 , v080
	.byte	W06
	.byte		N06   , En4 , v120
	.byte	W06
	.byte		N16   , En4 , v080
	.byte	W06
	.byte	PEND
	.byte	W12
	.byte		N06   , Fn4 , v120
	.byte	W06
	.byte		N10   , Fn4 , v080
	.byte	W06
	.byte		N06   , Gn4 , v120
	.byte	W06
	.byte		N10   , Gn4 , v080
	.byte	W06
	.byte		N06   , An4 , v120
	.byte	W06
	.byte		N16   , An4 , v080
	.byte	W18
	.byte		N06   , An4 , v120
	.byte	W06
	.byte		N10   , An4 , v080
	.byte	W06
	.byte		N06   , Gn4 , v120
	.byte	W06
	.byte		N10   , Gn4 , v080
	.byte	W06
	.byte		N06   , Fn4 , v120
	.byte	W06
	.byte		N10   , Fn4 , v080
	.byte	W06
	.byte	PEND
	.byte	PATT
	 .word	seq_000_3 + 0xF1
	.byte	W12
	.byte		N06   , Fn4 , v120
	.byte	W06
	.byte		N10   , Fn4 , v080
	.byte	W06
	.byte		N06   , Gn4 , v120
	.byte	W06
	.byte		N10   , Gn4 , v080
	.byte	W06
	.byte		N06   , Cn5 , v120
	.byte	W06
	.byte		N16   , Cn5 , v080
	.byte	W18
	.byte		N06   , Cn5 , v120
	.byte	W06
	.byte		N10   , Cn5 , v080
	.byte	W06
	.byte		N06   , Bn4 , v120
	.byte	W06
	.byte		N16   , Bn4 , v080
	.byte	W18
	.byte	PATT
	 .word	seq_000_3 + 0x84
	.byte	PATT
	 .word	seq_000_3 + 0xBD
	.byte	PATT
	 .word	seq_000_3 + 0x84
	.byte	PATT
	 .word	seq_000_3 + 0xBD
	.byte	PATT
	 .word	seq_000_3 + 0xF1
	.byte	PATT
	 .word	seq_000_3 + 0x12A
	.byte		N06   , Cn4 , v120
	.byte	W06
	.byte		N10   , Cn4 , v080
	.byte	W06
	.byte		N06   , Dn4 , v120
	.byte	W06
	.byte		N10   , Dn4 , v080
	.byte	W06
	.byte		N06   , En4 , v120
	.byte	W06
	.byte		N10   , En4 , v080
	.byte	W06
	.byte		N06   , Dn4 , v120
	.byte	W06
	.byte		N16   , Dn4 , v080
	.byte	W18
	.byte		N06   , En4 , v120
	.byte	W06
	.byte		N10   , En4 , v080
	.byte	W06
	.byte		N06   , Fn4 , v120
	.byte	W06
	.byte		N10   , Fn4 , v080
	.byte	W06
	.byte		N06   , Cn5 , v120
	.byte	W06
	.byte		N18   , Cn5 , v080
	.byte	W06
	.byte	W12
	.byte		N06   , Cn5 , v120
	.byte	W06
	.byte		        Cn5 , v080
	.byte	W06
	.byte		        Bn4 , v120
	.byte	W06
	.byte		        Bn4 , v080
	.byte	W06
	.byte		        Bn4 , v120
	.byte	W06
	.byte		        Bn4 , v080
	.byte	W06
	.byte		        An4 , v120
	.byte	W06
	.byte		        An4 , v080
	.byte	W06
	.byte		        An4 , v120
	.byte	W06
	.byte		        An4 , v080
	.byte	W06
	.byte		        Gn4 , v120
	.byte	W06
	.byte		N16   , Gn4 , v080
	.byte	W18
	.byte		VOICE , 7
	.byte	W01
	.byte		VOL   , 56*seq_000_mvl/mxv
	.byte	W11
	.byte		N06   , En4 , v127
	.byte	W12
	.byte		        Dn4 
	.byte	W12
	.byte		        Cn4 
	.byte	W12
	.byte		        En4 
	.byte	W12
	.byte		        Dn4 
	.byte	W12
	.byte		        Cn4 
	.byte	W12
	.byte		N14   , En4 
	.byte	W12
	.byte	W12
	.byte		N06   , En4 , v127
	.byte	W12
	.byte		        Dn4 
	.byte	W12
	.byte		        Cn4 
	.byte	W12
	.byte		        En4 
	.byte	W12
	.byte		        Dn4 
	.byte	W12
	.byte		        Cn4 
	.byte	W12
	.byte		N54   , Ds4 
	.byte	W12
	.byte	PEND
	.byte	W48
	.byte		N30   , Gn4 
	.byte	W36
	.byte		N96   , Dn4 
	.byte	W12
	.byte	W44
	.byte		BEND  , c_v-4
	.byte	W06
	.byte		        c_v-10
	.byte	W02
	.byte		        c_v-12
	.byte	W01
	.byte		        c_v-14
	.byte	W02
	.byte		        c_v-15
	.byte	W03
	.byte		        c_v-17
	.byte	W01
	.byte		        c_v-19
	.byte	W01
	.byte		        c_v-20
	.byte	W01
	.byte		        c_v-22
	.byte	W01
	.byte		        c_v-24
	.byte	W01
	.byte		        c_v-27
	.byte	W01
	.byte		        c_v-29
	.byte	W01
	.byte		        c_v-34
	.byte	W01
	.byte		        c_v-36
	.byte	W01
	.byte		        c_v-37
	.byte	W02
	.byte		        c_v-40
	.byte	W02
	.byte		        c_v-41
	.byte	W02
	.byte		        c_v-44
	.byte	W01
	.byte		        c_v-46
	.byte	W01
	.byte		        c_v-50
	.byte	W01
	.byte		        c_v-53
	.byte	W01
	.byte		        c_v-58
	.byte	W01
	.byte		        c_v-59
	.byte	W01
	.byte		        c_v-64
	.byte	W17
	.byte	W06
	.byte		        c_v+0
	.byte	W06
	.byte		N06   , En4 
	.byte	W12
	.byte		        Dn4 
	.byte	W12
	.byte		        Cn4 
	.byte	W12
	.byte		        En4 
	.byte	W12
	.byte		        Dn4 
	.byte	W12
	.byte		        Cn4 
	.byte	W12
	.byte		N14   , En4 
	.byte	W12
	.byte	PATT
	 .word	seq_000_3 + 0x21E
	.byte	W48
	.byte		N30   , Gn4 , v127
	.byte	W36
	.byte		N54   , Fn4 
	.byte	W12
	.byte	W48
	.byte		N30   , As4 
	.byte	W36
	.byte		N54   , An4 
	.byte	W12
	.byte	W48
	.byte		N30   , Cn5 
	.byte	W36
	.byte		TIE   , Bn4 
	.byte	W12
	.byte	W24
	.byte		MOD   , 5
	.byte	W05
	.byte		        6
	.byte	W06
	.byte		        7
	.byte	W05
	.byte		        8
	.byte	W05
	.byte		        9
	.byte	W05
	.byte		        10
	.byte	W06
	.byte		        11
	.byte	W05
	.byte		        12
	.byte	W05
	.byte		        13
	.byte	W05
	.byte		        14
	.byte	W06
	.byte		        15
	.byte	W05
	.byte		        16
	.byte	W05
	.byte		        17
	.byte	W05
	.byte		        18
	.byte	W04
	.byte	W02
	.byte		        19
	.byte	W05
	.byte		        20
	.byte	W05
	.byte		        21
	.byte	W05
	.byte		        22
	.byte	W06
	.byte		        23
	.byte	W05
	.byte		        24
	.byte	W05
	.byte		        25
	.byte	W05
	.byte		        26
	.byte	W06
	.byte		        27
	.byte	W05
	.byte		        28
	.byte	W05
	.byte		        29
	.byte	W05
	.byte		        30
	.byte	W13
	.byte		EOT
	.byte	W21
	.byte		VOICE , 2
	.byte	W01
	.byte		MOD   , 4
	.byte	W01
	.byte		VOL   , 61*seq_000_mvl/mxv
	.byte	W01
	.byte	GOTO
	 .word	seq_000_3 + 0x84
	.byte	FINE

@*********************** Track 05 ***********************@

seq_000_4:
	.byte	KEYSH , seq_000_key+0
	.byte		VOICE , 3
	.byte	W01
	.byte		VOL   , 0*seq_000_mvl/mxv
	.byte	W01
	.byte		PAN   , c_v-64
	.byte	W01
	.byte		LFOS  , 25
	.byte	W01
	.byte		LFODL , 30
	.byte	W01
	.byte		MODT  , mod_vib
	.byte	W01
	.byte		MOD   , 4
	.byte	W01
	.byte		TUNE  , c_v+0
	.byte	W01
	.byte		BEND  , c_v+0
	.byte	W04
	.byte		TIE   , An2 , v120
	.byte	W06
	.byte		VOL   , 4*seq_000_mvl/mxv
	.byte	W03
	.byte		        6*seq_000_mvl/mxv
	.byte	W03
	.byte		        8*seq_000_mvl/mxv
	.byte	W03
	.byte		        10*seq_000_mvl/mxv
	.byte	W03
	.byte		        12*seq_000_mvl/mxv
	.byte	W03
	.byte		        14*seq_000_mvl/mxv
	.byte	W03
	.byte		        16*seq_000_mvl/mxv
	.byte	W03
	.byte		        17*seq_000_mvl/mxv
	.byte	W03
	.byte		        19*seq_000_mvl/mxv
	.byte	W03
	.byte		        21*seq_000_mvl/mxv
	.byte	W03
	.byte		        23*seq_000_mvl/mxv
	.byte	W03
	.byte		        25*seq_000_mvl/mxv
	.byte	W03
	.byte		        27*seq_000_mvl/mxv
	.byte	W03
	.byte		        29*seq_000_mvl/mxv
	.byte	W03
	.byte		        31*seq_000_mvl/mxv
	.byte	W03
	.byte		        33*seq_000_mvl/mxv
	.byte	W03
	.byte		        35*seq_000_mvl/mxv
	.byte	W03
	.byte		        37*seq_000_mvl/mxv
	.byte	W03
	.byte		        39*seq_000_mvl/mxv
	.byte	W03
	.byte		        41*seq_000_mvl/mxv
	.byte	W03
	.byte		        43*seq_000_mvl/mxv
	.byte	W03
	.byte		        45*seq_000_mvl/mxv
	.byte	W03
	.byte		        47*seq_000_mvl/mxv
	.byte	W03
	.byte		        49*seq_000_mvl/mxv
	.byte	W03
	.byte		        51*seq_000_mvl/mxv
	.byte	W03
	.byte		        52*seq_000_mvl/mxv
	.byte	W03
	.byte		        54*seq_000_mvl/mxv
	.byte	W03
	.byte		        56*seq_000_mvl/mxv
	.byte	W03
	.byte		        58*seq_000_mvl/mxv
	.byte	W03
	.byte		        60*seq_000_mvl/mxv
	.byte	W03
	.byte		        62*seq_000_mvl/mxv
	.byte	W03
	.byte		        65*seq_000_mvl/mxv
	.byte	W03
	.byte		        67*seq_000_mvl/mxv
	.byte	W03
	.byte		        68*seq_000_mvl/mxv
	.byte	W03
	.byte		        70*seq_000_mvl/mxv
	.byte	W03
	.byte		        72*seq_000_mvl/mxv
	.byte	W03
	.byte		        74*seq_000_mvl/mxv
	.byte	W03
	.byte		        76*seq_000_mvl/mxv
	.byte	W03
	.byte		        78*seq_000_mvl/mxv
	.byte	W03
	.byte		        80*seq_000_mvl/mxv
	.byte	W03
	.byte		        82*seq_000_mvl/mxv
	.byte	W03
	.byte		        84*seq_000_mvl/mxv
	.byte	W03
	.byte		        85*seq_000_mvl/mxv
	.byte	W03
	.byte		        87*seq_000_mvl/mxv
	.byte	W03
	.byte		        89*seq_000_mvl/mxv
	.byte	W03
	.byte		        91*seq_000_mvl/mxv
	.byte	W03
	.byte		EOT
	.byte		VOL   , 94*seq_000_mvl/mxv
	.byte	W24
	.byte		        85*seq_000_mvl/mxv
	.byte	W24
	.byte		N06   , An3 , v120
	.byte	W06
	.byte		N10   , An3 , v080
	.byte	W06
	.byte		N06   , Bn3 , v120
	.byte	W06
	.byte		N10   , Bn3 , v080
	.byte	W06
	.byte		N06   , Cn4 , v120
	.byte	W06
	.byte		N10   , Cn4 , v080
	.byte	W06
	.byte		N06   , Bn3 , v120
	.byte	W06
	.byte		N16   , Bn3 , v080
	.byte	W18
	.byte		N06   , Cn4 , v120
	.byte	W06
	.byte		N10   , Cn4 , v080
	.byte	W06
	.byte		N06   , Dn4 , v120
	.byte	W06
	.byte		N10   , Dn4 , v080
	.byte	W06
	.byte		N06   , Cn4 , v120
	.byte	W06
	.byte		N16   , Cn4 , v080
	.byte	W06
	.byte	PEND
	.byte	W12
	.byte		N06   , Dn4 , v120
	.byte	W06
	.byte		N10   , Dn4 , v080
	.byte	W06
	.byte		N06   , En4 , v120
	.byte	W06
	.byte		N10   , En4 , v080
	.byte	W06
	.byte		N06   , Dn4 , v120
	.byte	W06
	.byte		N16   , Dn4 , v080
	.byte	W18
	.byte		N06   , En4 , v120
	.byte	W06
	.byte		N10   , En4 , v080
	.byte	W06
	.byte		N06   , Fs4 , v120
	.byte	W06
	.byte		N10   , Fs4 , v080
	.byte	W18
	.byte	PEND
	.byte	PATT
	 .word	seq_000_4 + 0x84
	.byte	PATT
	 .word	seq_000_4 + 0xBD
	.byte	PATT
	 .word	seq_000_4 + 0x84
	.byte	W12
	.byte		N06   , Dn4 , v120
	.byte	W06
	.byte		N10   , Dn4 , v080
	.byte	W06
	.byte		N06   , En4 , v120
	.byte	W06
	.byte		N10   , En4 , v080
	.byte	W06
	.byte		N06   , Fn4 , v120
	.byte	W06
	.byte		N16   , Fn4 , v080
	.byte	W18
	.byte		N06   , Fn4 , v120
	.byte	W06
	.byte		N10   , Fn4 , v080
	.byte	W06
	.byte		N06   , En4 , v120
	.byte	W06
	.byte		N10   , En4 , v080
	.byte	W06
	.byte		N06   , Dn4 , v120
	.byte	W06
	.byte		N10   , Dn4 , v080
	.byte	W06
	.byte	PEND
	.byte	PATT
	 .word	seq_000_4 + 0x84
	.byte	W12
	.byte		N06   , Dn4 , v120
	.byte	W06
	.byte		N10   , Dn4 , v080
	.byte	W06
	.byte		N06   , En4 , v120
	.byte	W06
	.byte		N10   , En4 , v080
	.byte	W06
	.byte		N06   , An4 , v120
	.byte	W06
	.byte		N16   , An4 , v080
	.byte	W18
	.byte		N06   , An4 , v120
	.byte	W06
	.byte		N10   , An4 , v080
	.byte	W06
	.byte		N06   , Gn4 , v120
	.byte	W06
	.byte		N16   , Gn4 , v080
	.byte	W18
	.byte	PATT
	 .word	seq_000_4 + 0x84
	.byte	PATT
	 .word	seq_000_4 + 0xBD
	.byte	PATT
	 .word	seq_000_4 + 0x84
	.byte	PATT
	 .word	seq_000_4 + 0xBD
	.byte	PATT
	 .word	seq_000_4 + 0x84
	.byte	PATT
	 .word	seq_000_4 + 0xF6
	.byte		N06   , An3 , v120
	.byte	W06
	.byte		N10   , An3 , v080
	.byte	W06
	.byte		N06   , Bn3 , v120
	.byte	W06
	.byte		N10   , Bn3 , v080
	.byte	W06
	.byte		N06   , Cn4 , v120
	.byte	W06
	.byte		N10   , Cn4 , v080
	.byte	W06
	.byte		N06   , Bn3 , v120
	.byte	W06
	.byte		N16   , Bn3 , v080
	.byte	W18
	.byte		N06   , Cn4 , v120
	.byte	W06
	.byte		N10   , Cn4 , v080
	.byte	W06
	.byte		N06   , Dn4 , v120
	.byte	W06
	.byte		N10   , Dn4 , v080
	.byte	W06
	.byte		N06   , An4 , v120
	.byte	W06
	.byte		N18   , An4 , v080
	.byte	W06
	.byte	W12
	.byte		N06   , An4 , v120
	.byte	W06
	.byte		        An4 , v080
	.byte	W06
	.byte		        Gn4 , v120
	.byte	W06
	.byte		        Gn4 , v080
	.byte	W06
	.byte		        Gn4 , v120
	.byte	W06
	.byte		        Gn4 , v080
	.byte	W06
	.byte		        Fn4 , v120
	.byte	W06
	.byte		        Fn4 , v080
	.byte	W06
	.byte		        Fn4 , v120
	.byte	W06
	.byte		        Fn4 , v080
	.byte	W06
	.byte		        En4 , v120
	.byte	W06
	.byte		N16   , En4 , v080
	.byte	W18
	.byte	W15
	.byte		VOICE , 8
	.byte	W01
	.byte		VOL   , 28*seq_000_mvl/mxv
	.byte	W01
	.byte		PAN   , c_v+63
	.byte	W01
	.byte		TUNE  , c_v+6
	.byte	W09
	.byte		N06   , En4 , v127
	.byte	W12
	.byte		        Dn4 
	.byte	W12
	.byte		        Cn4 
	.byte	W12
	.byte		        En4 
	.byte	W12
	.byte		        Dn4 
	.byte	W12
	.byte		        Cn4 
	.byte	W09
	.byte	W03
	.byte		N14   , En4 , v127
	.byte	W24
	.byte		N06
	.byte	W12
	.byte		        Dn4 
	.byte	W12
	.byte		        Cn4 
	.byte	W12
	.byte		        En4 
	.byte	W12
	.byte		        Dn4 
	.byte	W12
	.byte		        Cn4 
	.byte	W09
	.byte	PEND
	.byte	W03
	.byte		N54   , Ds4 , v127
	.byte	W60
	.byte		N30   , Gn4 
	.byte	W32
	.byte	W01
	.byte	PEND
	.byte	W03
	.byte		N96   , Dn4 
	.byte	W56
	.byte		BEND  , c_v-4
	.byte	W06
	.byte		        c_v-10
	.byte	W02
	.byte		        c_v-12
	.byte	W01
	.byte		        c_v-14
	.byte	W02
	.byte		        c_v-15
	.byte	W03
	.byte		        c_v-17
	.byte	W01
	.byte		        c_v-19
	.byte	W01
	.byte		        c_v-20
	.byte	W01
	.byte		        c_v-22
	.byte	W01
	.byte		        c_v-24
	.byte	W01
	.byte		        c_v-27
	.byte	W01
	.byte		        c_v-29
	.byte	W01
	.byte		        c_v-34
	.byte	W01
	.byte		        c_v-36
	.byte	W01
	.byte		        c_v-37
	.byte	W02
	.byte		        c_v-40
	.byte	W02
	.byte		        c_v-41
	.byte	W02
	.byte		        c_v-44
	.byte	W01
	.byte		        c_v-46
	.byte	W01
	.byte		        c_v-50
	.byte	W01
	.byte		        c_v-53
	.byte	W01
	.byte		        c_v-58
	.byte	W01
	.byte		        c_v-59
	.byte	W01
	.byte		        c_v-64
	.byte	W02
	.byte	W21
	.byte		        c_v+0
	.byte	W06
	.byte		N06   , En4 
	.byte	W12
	.byte		        Dn4 
	.byte	W12
	.byte		        Cn4 
	.byte	W12
	.byte		        En4 
	.byte	W12
	.byte		        Dn4 
	.byte	W12
	.byte		        Cn4 
	.byte	W09
	.byte	PATT
	 .word	seq_000_4 + 0x1EE
	.byte	PATT
	 .word	seq_000_4 + 0x200
	.byte	W03
	.byte		N54   , Fn4 , v127
	.byte	W60
	.byte		N30   , As4 
	.byte	W32
	.byte	W01
	.byte	W03
	.byte		N54   , An4 
	.byte	W60
	.byte		N30   , Cn5 
	.byte	W32
	.byte	W01
	.byte	W03
	.byte		TIE   , Bn4 
	.byte	W36
	.byte		MOD   , 5
	.byte	W05
	.byte		        6
	.byte	W06
	.byte		        7
	.byte	W05
	.byte		        8
	.byte	W05
	.byte		        9
	.byte	W05
	.byte		        10
	.byte	W06
	.byte		        11
	.byte	W05
	.byte		        12
	.byte	W05
	.byte		        13
	.byte	W05
	.byte		        14
	.byte	W06
	.byte		        15
	.byte	W04
	.byte	W01
	.byte		        16
	.byte	W05
	.byte		        17
	.byte	W05
	.byte		        18
	.byte	W06
	.byte		        19
	.byte	W05
	.byte		        20
	.byte	W05
	.byte		        21
	.byte	W05
	.byte		        22
	.byte	W06
	.byte		        23
	.byte	W05
	.byte		        24
	.byte	W05
	.byte		        25
	.byte	W05
	.byte		        26
	.byte	W06
	.byte		        27
	.byte	W05
	.byte		        28
	.byte	W05
	.byte		        29
	.byte	W05
	.byte		        30
	.byte	W13
	.byte		EOT
	.byte	W04
	.byte		VOICE , 3
	.byte	W01
	.byte		MOD   , 4
	.byte	W01
	.byte		TUNE  , c_v+0
	.byte	W01
	.byte		PAN   , c_v-64
	.byte	W01
	.byte		VOL   , 75*seq_000_mvl/mxv
	.byte	W01
	.byte	GOTO
	 .word	seq_000_4 + 0x84
	.byte	FINE

@*********************** Track 06 ***********************@

seq_000_5:
	.byte	KEYSH , seq_000_key+0
	.byte		VOICE , 4
	.byte		PAN   , c_v+0
	.byte	W01
	.byte		VOL   , 42*seq_000_mvl/mxv
	.byte	W11
	.byte		N06   , Cn1 , v120
	.byte	W06
	.byte		        Ds1 
	.byte	W06
	.byte		        Gn1 
	.byte	W06
	.byte		        Cn2 
	.byte	W05
	.byte		PAN   , c_v+63
	.byte	W01
	.byte		N06   , Ds1 , v124
	.byte	W06
	.byte		        Gn1 
	.byte	W06
	.byte		        Cn2 
	.byte	W06
	.byte		        Ds2 
	.byte	W05
	.byte		PAN   , c_v-64
	.byte	W01
	.byte		N06   , Gn1 
	.byte	W06
	.byte		        Cn2 
	.byte	W06
	.byte		        Ds2 
	.byte	W06
	.byte		        Gn2 
	.byte	W05
	.byte		PAN   , c_v+63
	.byte	W01
	.byte		N06   , Cn2 
	.byte	W06
	.byte		        Ds2 
	.byte	W06
	.byte		        Gn2 
	.byte	W06
	.byte		        Cn3 
	.byte	W05
	.byte		PAN   , c_v-64
	.byte	W01
	.byte		N06   , Ds2 
	.byte	W06
	.byte		        Gn2 , v127
	.byte	W06
	.byte		        Cn3 
	.byte	W06
	.byte		        Ds3 
	.byte	W05
	.byte		PAN   , c_v+63
	.byte	W01
	.byte		N06   , Gn2 
	.byte	W06
	.byte		        Cn3 
	.byte	W06
	.byte		        Ds3 
	.byte	W06
	.byte		        Gn3 
	.byte	W05
	.byte		PAN   , c_v-64
	.byte	W24
	.byte		        c_v+63
	.byte	W24
	.byte		        c_v-64
	.byte	W01
	.byte		N06   , Cn1 , v116
	.byte	W06
	.byte		        Ds1 
	.byte	W06
	.byte		        Gn1 
	.byte	W06
	.byte		        Cn2 
	.byte	W05
	.byte		PAN   , c_v+63
	.byte	W01
	.byte		N06   , Ds1 
	.byte	W06
	.byte		        Gn1 
	.byte	W06
	.byte		        Cn2 
	.byte	W06
	.byte		        Ds2 
	.byte	W05
	.byte		PAN   , c_v-64
	.byte	W01
	.byte		N06   , Gn1 
	.byte	W06
	.byte		        Cn2 
	.byte	W06
	.byte		        Ds2 
	.byte	W06
	.byte		        Gn2 
	.byte	W05
	.byte		PAN   , c_v+63
	.byte	W01
	.byte		N06   , Cn2 
	.byte	W06
	.byte		        Ds2 
	.byte	W06
	.byte		        Gn2 
	.byte	W06
	.byte		        Cn3 
	.byte	W05
	.byte		PAN   , c_v-64
	.byte	W01
	.byte	PEND
	.byte		N06   , Ds2 , v116
	.byte	W06
	.byte		        Gn2 
	.byte	W06
	.byte		        Cn3 
	.byte	W06
	.byte		        Ds3 
	.byte	W05
	.byte		PAN   , c_v+63
	.byte	W01
	.byte		N06   , Gn2 
	.byte	W06
	.byte		        Cn3 
	.byte	W06
	.byte		        Ds3 
	.byte	W06
	.byte		        Gn3 
	.byte	W05
	.byte		PAN   , c_v-64
	.byte	W01
	.byte		N06   , Cn3 
	.byte	W06
	.byte		        Ds3 
	.byte	W06
	.byte		        Gn3 
	.byte	W06
	.byte		        Cn4 
	.byte	W05
	.byte		PAN   , c_v+63
	.byte	W01
	.byte		N06   , Ds3 
	.byte	W06
	.byte		        Gn3 
	.byte	W06
	.byte		        Cn4 
	.byte	W06
	.byte		        Ds4 
	.byte	W05
	.byte		PAN   , c_v-64
	.byte	W01
	.byte	PEND
	.byte	PATT
	 .word	seq_000_5 + 0x59
	.byte	PATT
	 .word	seq_000_5 + 0x8B
	.byte	PATT
	 .word	seq_000_5 + 0x59
	.byte	PATT
	 .word	seq_000_5 + 0x8B
	.byte	PATT
	 .word	seq_000_5 + 0x59
	.byte	PATT
	 .word	seq_000_5 + 0x8B
	.byte	PATT
	 .word	seq_000_5 + 0x59
	.byte	PATT
	 .word	seq_000_5 + 0x8B
	.byte	PATT
	 .word	seq_000_5 + 0x59
	.byte	PATT
	 .word	seq_000_5 + 0x8B
	.byte	PATT
	 .word	seq_000_5 + 0x59
	.byte	PATT
	 .word	seq_000_5 + 0x8B
	.byte	PATT
	 .word	seq_000_5 + 0x59
	.byte		N06   , Ds4 , v116
	.byte	W06
	.byte		        Cn4 
	.byte	W06
	.byte		        Gn3 
	.byte	W06
	.byte		        Ds3 
	.byte	W05
	.byte		PAN   , c_v+63
	.byte	W01
	.byte		N06   , Cn4 
	.byte	W06
	.byte		        Gn3 
	.byte	W06
	.byte		        Ds3 
	.byte	W06
	.byte		        Cn3 
	.byte	W05
	.byte		PAN   , c_v-64
	.byte	W01
	.byte		N04   , Gn3 
	.byte	W04
	.byte		        Ds3 
	.byte	W04
	.byte		        Cn3 
	.byte	W04
	.byte		        Gn2 
	.byte	W04
	.byte		        Ds3 
	.byte	W04
	.byte		        Cn3 
	.byte	W03
	.byte		PAN   , c_v+63
	.byte	W01
	.byte		N04   , Gn2 
	.byte	W04
	.byte		        Ds2 
	.byte	W04
	.byte		        Cn3 
	.byte	W04
	.byte		        Gn2 
	.byte	W04
	.byte		        Ds2 
	.byte	W04
	.byte		        Cn2 
	.byte	W04
	.byte	W96
	.byte	W96
	.byte	W96
	.byte	W96
	.byte	W96
	.byte	W96
	.byte	W96
	.byte	W96
	.byte	W96
	.byte	W96
	.byte	W96
	.byte	GOTO
	 .word	seq_000_5 + 0x59
	.byte	FINE

@*********************** Track 07 ***********************@

seq_000_6:
	.byte	KEYSH , seq_000_key+0
	.byte		VOICE , 6
	.byte	W01
	.byte		VOL   , 37*seq_000_mvl/mxv
	.byte	W01
	.byte		PAN   , c_v+16
	.byte	W01
	.byte		LFOS  , 25
	.byte	W01
	.byte		LFODL , 30
	.byte	W01
	.byte		MODT  , mod_vib
	.byte	W01
	.byte		MOD   , 8
	.byte	W06
	.byte		TIE   , An2 , v100
	.byte		TIE   , Dn3 
	.byte	W05
	.byte		VOL   , 39*seq_000_mvl/mxv
	.byte	W03
	.byte		        41*seq_000_mvl/mxv
	.byte	W03
	.byte		        43*seq_000_mvl/mxv
	.byte	W04
	.byte		        45*seq_000_mvl/mxv
	.byte	W03
	.byte		        47*seq_000_mvl/mxv
	.byte	W03
	.byte		        49*seq_000_mvl/mxv
	.byte	W03
	.byte		        51*seq_000_mvl/mxv
	.byte	W04
	.byte		        52*seq_000_mvl/mxv
	.byte	W03
	.byte		        54*seq_000_mvl/mxv
	.byte	W03
	.byte		        56*seq_000_mvl/mxv
	.byte	W03
	.byte		        58*seq_000_mvl/mxv
	.byte	W04
	.byte		        60*seq_000_mvl/mxv
	.byte	W03
	.byte		        62*seq_000_mvl/mxv
	.byte	W03
	.byte		        64*seq_000_mvl/mxv
	.byte	W03
	.byte		        66*seq_000_mvl/mxv
	.byte	W04
	.byte		        68*seq_000_mvl/mxv
	.byte	W03
	.byte		        69*seq_000_mvl/mxv
	.byte	W03
	.byte		        71*seq_000_mvl/mxv
	.byte	W04
	.byte		        73*seq_000_mvl/mxv
	.byte	W03
	.byte		        75*seq_000_mvl/mxv
	.byte	W03
	.byte		        77*seq_000_mvl/mxv
	.byte	W03
	.byte		        79*seq_000_mvl/mxv
	.byte	W04
	.byte		        81*seq_000_mvl/mxv
	.byte	W03
	.byte		        83*seq_000_mvl/mxv
	.byte	W03
	.byte		        85*seq_000_mvl/mxv
	.byte	W03
	.byte		        86*seq_000_mvl/mxv
	.byte	W04
	.byte		        88*seq_000_mvl/mxv
	.byte	W03
	.byte		        90*seq_000_mvl/mxv
	.byte	W03
	.byte		        92*seq_000_mvl/mxv
	.byte	W03
	.byte		        94*seq_000_mvl/mxv
	.byte	W04
	.byte		        96*seq_000_mvl/mxv
	.byte	W03
	.byte		        98*seq_000_mvl/mxv
	.byte	W03
	.byte		        100*seq_000_mvl/mxv
	.byte	W03
	.byte		        102*seq_000_mvl/mxv
	.byte	W04
	.byte		        103*seq_000_mvl/mxv
	.byte	W03
	.byte		        105*seq_000_mvl/mxv
	.byte	W03
	.byte		        107*seq_000_mvl/mxv
	.byte	W04
	.byte		        109*seq_000_mvl/mxv
	.byte	W03
	.byte		        111*seq_000_mvl/mxv
	.byte	W03
	.byte		        113*seq_000_mvl/mxv
	.byte	W03
	.byte		        115*seq_000_mvl/mxv
	.byte	W04
	.byte		        117*seq_000_mvl/mxv
	.byte	W03
	.byte		        119*seq_000_mvl/mxv
	.byte	W02
	.byte		EOT   , An2 
	.byte		        Dn3 
	.byte		VOL   , 120*seq_000_mvl/mxv
	.byte	W48
	.byte	W96
	.byte		VOICE , 5
	.byte	W01
	.byte		MOD   , 4
	.byte	W01
	.byte		PAN   , c_v+16
	.byte	W92
	.byte	W02
	.byte	W96
	.byte	W96
	.byte	W96
	.byte	W96
	.byte	W96
	.byte	W96
	.byte		N06   , Ds2 , v100
	.byte	W12
	.byte		        Fn2 
	.byte	W12
	.byte		        Gn2 
	.byte	W12
	.byte		        Fn2 
	.byte	W24
	.byte		        Gn2 
	.byte	W12
	.byte		        An2 
	.byte	W12
	.byte		        Gn2 
	.byte	W12
	.byte	PEND
	.byte	W12
	.byte		N06   , An2 , v100
	.byte	W12
	.byte		        As2 
	.byte	W12
	.byte		        An2 
	.byte	W24
	.byte		        As2 
	.byte	W12
	.byte		        Cn3 
	.byte	W24
	.byte	PEND
	.byte	PATT
	 .word	seq_000_6 + 0x8B
	.byte	PATT
	 .word	seq_000_6 + 0x9C
	.byte		N06   , Ds2 , v100
	.byte	W12
	.byte		        Fn2 
	.byte	W12
	.byte		        Gn2 
	.byte	W12
	.byte		        Fn2 
	.byte	W24
	.byte		        Gn2 
	.byte	W12
	.byte		        Gs2 
	.byte	W12
	.byte		        Gn2 
	.byte	W12
	.byte	W12
	.byte		        Gs2 
	.byte	W12
	.byte		        As2 
	.byte	W12
	.byte		        Cn3 
	.byte	W24
	.byte		N06
	.byte	W12
	.byte		        As2 
	.byte	W12
	.byte		        Gs2 
	.byte	W12
	.byte		        Ds2 
	.byte	W12
	.byte		        Fn2 
	.byte	W12
	.byte		        Gn2 
	.byte	W12
	.byte		        Fn2 
	.byte	W24
	.byte		        Gn2 
	.byte	W12
	.byte		        Gs2 
	.byte	W12
	.byte		        Ds3 
	.byte	W12
	.byte	W12
	.byte		N06
	.byte	W12
	.byte		        Dn3 
	.byte	W12
	.byte		N06
	.byte	W12
	.byte		        Cn3 
	.byte	W12
	.byte		N06
	.byte	W12
	.byte		        As2 
	.byte	W12
	.byte		VOICE , 6
	.byte	W01
	.byte		VOL   , 120*seq_000_mvl/mxv
	.byte	W01
	.byte		PAN   , c_v-14
	.byte	W10
	.byte		N72   , Cn3 , v124
	.byte		N72   , Fn3 
	.byte	W84
	.byte		N84   , Cn3 
	.byte		N84   , En3 
	.byte	W12
	.byte	W84
	.byte		N84   , Cn3 , v124
	.byte		N84   , Ds3 
	.byte	W12
	.byte	PEND
	.byte	W84
	.byte		N72   , Cn3 , v124
	.byte		N72   , Dn3 
	.byte	W12
	.byte	PEND
	.byte	W84
	.byte		N84   , Cn3 
	.byte		N84   , Fn3 
	.byte	W12
	.byte	W84
	.byte		        Cn3 
	.byte		N84   , En3 
	.byte	W12
	.byte	PATT
	 .word	seq_000_6 + 0x100
	.byte	PATT
	 .word	seq_000_6 + 0x108
	.byte	PATT
	 .word	seq_000_6 + 0x108
	.byte	W84
	.byte		N12   , Cn3 , v124
	.byte		N12   , Dn3 
	.byte	W12
	.byte	W12
	.byte		N06   , Cn3 , v092
	.byte		N06   , Dn3 
	.byte	W12
	.byte		N12   , Cn3 , v127
	.byte		N12   , Dn3 
	.byte	W24
	.byte		N06   , Cn3 
	.byte		N06   , Dn3 
	.byte	W12
	.byte		N10   , Cn3 , v092
	.byte		N10   , Dn3 
	.byte	W24
	.byte		N12   , Cn3 , v080
	.byte		N12   , Dn3 
	.byte	W12
	.byte	W12
	.byte		N06   , Cn3 , v092
	.byte		N06   , Dn3 
	.byte	W12
	.byte		N12   , Cn3 , v127
	.byte		N12   , Dn3 
	.byte	W24
	.byte		N06   , Cn3 
	.byte		N06   , Dn3 
	.byte	W12
	.byte		N10   , Cn3 , v092
	.byte		N10   , Dn3 
	.byte	W36
	.byte	GOTO
	 .word	seq_000_6 + 0x7A
	.byte	FINE

@*********************** Track 08 ***********************@

seq_000_7:
	.byte	KEYSH , seq_000_key+0
	.byte	W02
	.byte		VOICE , 6
	.byte	W01
	.byte		VOL   , 0*seq_000_mvl/mxv
	.byte	W01
	.byte		PAN   , c_v-54
	.byte	W01
	.byte		LFOS  , 25
	.byte	W01
	.byte		LFODL , 30
	.byte	W01
	.byte		MODT  , mod_vib
	.byte	W01
	.byte		MOD   , 6
	.byte	W01
	.byte		TUNE  , c_v+6
	.byte	W03
	.byte	W03
	.byte		TIE   , Dn3 , v060
	.byte	W02
	.byte		VOL   , 0*seq_000_mvl/mxv
	.byte	W02
	.byte		        2*seq_000_mvl/mxv
	.byte	W02
	.byte		        4*seq_000_mvl/mxv
	.byte	W02
	.byte		        6*seq_000_mvl/mxv
	.byte	W02
	.byte		        7*seq_000_mvl/mxv
	.byte	W02
	.byte		        9*seq_000_mvl/mxv
	.byte	W02
	.byte		        11*seq_000_mvl/mxv
	.byte	W02
	.byte		        13*seq_000_mvl/mxv
	.byte	W02
	.byte		        14*seq_000_mvl/mxv
	.byte	W02
	.byte		        16*seq_000_mvl/mxv
	.byte	W02
	.byte		        17*seq_000_mvl/mxv
	.byte	W02
	.byte		        19*seq_000_mvl/mxv
	.byte	W02
	.byte		        20*seq_000_mvl/mxv
	.byte	W02
	.byte		        22*seq_000_mvl/mxv
	.byte	W02
	.byte		        24*seq_000_mvl/mxv
	.byte	W02
	.byte		        26*seq_000_mvl/mxv
	.byte	W02
	.byte		        27*seq_000_mvl/mxv
	.byte	W02
	.byte		        29*seq_000_mvl/mxv
	.byte	W02
	.byte		        31*seq_000_mvl/mxv
	.byte	W02
	.byte		        33*seq_000_mvl/mxv
	.byte	W02
	.byte		        34*seq_000_mvl/mxv
	.byte	W02
	.byte		        35*seq_000_mvl/mxv
	.byte	W02
	.byte		        37*seq_000_mvl/mxv
	.byte	W02
	.byte		        39*seq_000_mvl/mxv
	.byte	W02
	.byte		        41*seq_000_mvl/mxv
	.byte	W02
	.byte		        42*seq_000_mvl/mxv
	.byte	W02
	.byte		        44*seq_000_mvl/mxv
	.byte	W02
	.byte		        46*seq_000_mvl/mxv
	.byte	W02
	.byte		        48*seq_000_mvl/mxv
	.byte	W02
	.byte		        49*seq_000_mvl/mxv
	.byte	W02
	.byte		        51*seq_000_mvl/mxv
	.byte	W02
	.byte		        52*seq_000_mvl/mxv
	.byte	W02
	.byte		        54*seq_000_mvl/mxv
	.byte	W02
	.byte		        55*seq_000_mvl/mxv
	.byte	W02
	.byte		        57*seq_000_mvl/mxv
	.byte	W02
	.byte		        59*seq_000_mvl/mxv
	.byte	W02
	.byte		        61*seq_000_mvl/mxv
	.byte	W02
	.byte		        63*seq_000_mvl/mxv
	.byte	W02
	.byte		        64*seq_000_mvl/mxv
	.byte	W02
	.byte		        66*seq_000_mvl/mxv
	.byte	W02
	.byte		        68*seq_000_mvl/mxv
	.byte	W02
	.byte		        69*seq_000_mvl/mxv
	.byte	W02
	.byte		        70*seq_000_mvl/mxv
	.byte	W02
	.byte		        72*seq_000_mvl/mxv
	.byte	W02
	.byte		        74*seq_000_mvl/mxv
	.byte	W02
	.byte		        76*seq_000_mvl/mxv
	.byte	W01
	.byte	W01
	.byte		        77*seq_000_mvl/mxv
	.byte	W02
	.byte		        79*seq_000_mvl/mxv
	.byte	W02
	.byte		        81*seq_000_mvl/mxv
	.byte	W02
	.byte		        83*seq_000_mvl/mxv
	.byte	W02
	.byte		        84*seq_000_mvl/mxv
	.byte	W02
	.byte		        85*seq_000_mvl/mxv
	.byte	W02
	.byte		        87*seq_000_mvl/mxv
	.byte	W02
	.byte		        89*seq_000_mvl/mxv
	.byte	W02
	.byte		        91*seq_000_mvl/mxv
	.byte	W02
	.byte		        92*seq_000_mvl/mxv
	.byte	W02
	.byte		        94*seq_000_mvl/mxv
	.byte	W02
	.byte		        96*seq_000_mvl/mxv
	.byte	W02
	.byte		        98*seq_000_mvl/mxv
	.byte	W02
	.byte		        99*seq_000_mvl/mxv
	.byte	W02
	.byte		        101*seq_000_mvl/mxv
	.byte	W02
	.byte		        102*seq_000_mvl/mxv
	.byte	W02
	.byte		        104*seq_000_mvl/mxv
	.byte	W02
	.byte		        105*seq_000_mvl/mxv
	.byte	W02
	.byte		        107*seq_000_mvl/mxv
	.byte	W02
	.byte		        109*seq_000_mvl/mxv
	.byte	W02
	.byte		        111*seq_000_mvl/mxv
	.byte	W02
	.byte		        112*seq_000_mvl/mxv
	.byte	W02
	.byte		        114*seq_000_mvl/mxv
	.byte	W02
	.byte		        116*seq_000_mvl/mxv
	.byte	W02
	.byte		        118*seq_000_mvl/mxv
	.byte	W02
	.byte		EOT
	.byte		VOL   , 120*seq_000_mvl/mxv
	.byte	W44
	.byte	W01
	.byte	W96
	.byte	W96
	.byte	W96
	.byte		VOICE , 5
	.byte	W02
	.byte		PAN   , c_v+56
	.byte	W01
	.byte		LFOS  , 25
	.byte	W01
	.byte		LFODL , 30
	.byte	W01
	.byte		MODT  , mod_vib
	.byte	W01
	.byte		MOD   , 4
	.byte	W01
	.byte		TUNE  , c_v+0
	.byte	W88
	.byte	W01
	.byte	W96
	.byte	W96
	.byte	W96
	.byte	W96
	.byte	W06
	.byte		N06   , Ds2 , v060
	.byte	W12
	.byte		        Fn2 
	.byte	W12
	.byte		        Gn2 
	.byte	W12
	.byte		N18   , Fn2 
	.byte	W24
	.byte		N06   , Gn2 
	.byte	W12
	.byte		        An2 
	.byte	W12
	.byte		N18   , Gn2 
	.byte	W06
	.byte	PEND
	.byte	W18
	.byte		N06   , An2 , v060
	.byte	W12
	.byte		        As2 
	.byte	W12
	.byte		N18   , An2 
	.byte	W24
	.byte		N06   , As2 
	.byte	W12
	.byte		        Cn3 
	.byte	W18
	.byte	PEND
	.byte	PATT
	 .word	seq_000_7 + 0xD2
	.byte	PATT
	 .word	seq_000_7 + 0xE7
	.byte	W06
	.byte		N06   , Ds2 , v060
	.byte	W12
	.byte		        Fn2 
	.byte	W12
	.byte		        Gn2 
	.byte	W12
	.byte		N18   , Fn2 
	.byte	W24
	.byte		N06   , Gn2 
	.byte	W12
	.byte		        Gs2 
	.byte	W12
	.byte		N18   , Gn2 
	.byte	W06
	.byte	W18
	.byte		N06   , Gs2 
	.byte	W12
	.byte		        As2 
	.byte	W12
	.byte		N12   , Cn3 
	.byte	W24
	.byte		N06
	.byte	W12
	.byte		        As2 
	.byte	W12
	.byte		N05   , Gs2 
	.byte	W06
	.byte	W06
	.byte		N06   , Ds2 
	.byte	W12
	.byte		        Fn2 
	.byte	W12
	.byte		        Gn2 
	.byte	W12
	.byte		N18   , Fn2 
	.byte	W24
	.byte		N06   , Gn2 
	.byte	W12
	.byte		        Gs2 
	.byte	W12
	.byte		N12   , Ds3 
	.byte	W06
	.byte	W18
	.byte		N02
	.byte	W12
	.byte		N01   , Dn3 
	.byte	W12
	.byte		N02
	.byte	W12
	.byte		N01   , Cn3 
	.byte	W12
	.byte		N02
	.byte	W12
	.byte		N18   , As2 
	.byte	W18
	.byte	W96
	.byte	W96
	.byte	W96
	.byte	W96
	.byte	W96
	.byte	W96
	.byte	W96
	.byte	W96
	.byte	W96
	.byte	W96
	.byte	W96
	.byte	GOTO
	 .word	seq_000_7 + 0xB5
	.byte	FINE

@******************************************************@

	.align	2

seq_000:
	.byte	8	@ NumTrks
	.byte	0	@ NumBlks
	.byte	seq_000_pri	@ Priority
	.byte	seq_000_rev	@ Reverb

	.word	seq_000_grp

	.word	seq_000_0
	.word	seq_000_1
	.word	seq_000_2
	.word	seq_000_3
	.word	seq_000_4
	.word	seq_000_5
	.word	seq_000_6
	.word	seq_000_7

	.end
