@ File generated by m4a2s Song-Module
	.include "MPlayDef.s"

	.equ	seq_000_grp, bank_000
	.equ	seq_000_pri, 20
	.equ	seq_000_rev, 163
	.equ	seq_000_mvl, 127
	.equ	seq_000_key, 0

	.section .rodata
	.global	seq_000
	.align	2

@*********************** Track 01 ***********************@

seq_000_0:
	.byte	KEYSH , seq_000_key+0
	.byte	TEMPO , 172/2
	.byte	W01
	.byte		VOICE , 2
	.byte	W01
	.byte		VOL   , 70*seq_000_mvl/mxv
	.byte	W01
	.byte		PAN   , c_v+0
	.byte	W01
	.byte		BEND  , c_v+0
	.byte	W01
	.byte		LFOS  , 28
	.byte	W01
	.byte		LFODL , 14
	.byte	W01
	.byte		MODT  , mod_vib
	.byte	W01
	.byte		MOD   , 7
	.byte	W01
	.byte	W01
	.byte		XCMD  , xIECV , 40
	.byte	W01
	.byte	W01
	.byte		        xIECL , 3
	.byte	W72
	.byte	W03
	.byte		N06   , En5 , v080
	.byte	W06
	.byte		        Bn4 
	.byte	W03
	.byte	W03
	.byte		        En4 
	.byte	W06
	.byte		        En3 
	.byte	W06
	.byte		VOICE , 2
	.byte		VOL   , 89*seq_000_mvl/mxv
	.byte		PAN   , c_v+63
	.byte		N12   , Cs5 , v080
	.byte	W12
	.byte		N06   , Cs5 , v040
	.byte	W05
	.byte		PAN   , c_v-64
	.byte	W01
	.byte		N12   , Cs5 , v080
	.byte	W12
	.byte		N06   , Cs5 , v040
	.byte	W05
	.byte		PAN   , c_v+63
	.byte	W01
	.byte		N12   , Cs5 , v080
	.byte	W12
	.byte		N06   , Cs5 , v040
	.byte	W11
	.byte		PAN   , c_v-64
	.byte	W01
	.byte		N06   , Cs5 , v080
	.byte	W11
	.byte		PAN   , c_v+63
	.byte	W01
	.byte		N12
	.byte	W09
	.byte	W03
	.byte		N06   , Cs5 , v040
	.byte	W11
	.byte		PAN   , c_v-64
	.byte	W01
	.byte		N12   , Cs5 , v080
	.byte	W12
	.byte		N06   , Cs5 , v040
	.byte	W05
	.byte		PAN   , c_v+63
	.byte	W01
	.byte		N12   , Cs5 , v080
	.byte	W12
	.byte		N06   , Cs5 , v040
	.byte	W05
	.byte		PAN   , c_v-64
	.byte	W01
	.byte		N12   , Cs5 , v080
	.byte	W12
	.byte		N06   , Cs5 , v040
	.byte	W11
	.byte		PAN   , c_v+63
	.byte	W01
	.byte		N06   , Cs5 , v080
	.byte	W11
	.byte		PAN   , c_v-64
	.byte	W01
	.byte		N12
	.byte	W09
	.byte	PEND
	.byte	W03
	.byte		N06   , Cs5 , v040
	.byte	W11
	.byte		PAN   , c_v+63
	.byte	W01
	.byte		N12   , Cs5 , v080
	.byte	W12
	.byte		N06   , Cs5 , v040
	.byte	W05
	.byte		PAN   , c_v-64
	.byte	W01
	.byte		N12   , Cs5 , v080
	.byte	W12
	.byte		N06   , Cs5 , v040
	.byte	W05
	.byte		PAN   , c_v+63
	.byte	W01
	.byte		N12   , Cs5 , v080
	.byte	W12
	.byte		N06   , Cs5 , v040
	.byte	W11
	.byte		PAN   , c_v-64
	.byte	W01
	.byte		N06   , Cs4 , v080
	.byte	W11
	.byte		PAN   , c_v+63
	.byte	W01
	.byte		N12
	.byte	W09
	.byte	W03
	.byte		N06   , Cs4 , v040
	.byte	W11
	.byte		PAN   , c_v-64
	.byte	W01
	.byte		N12   , Bn4 , v080
	.byte	W12
	.byte		N06   , Bn4 , v040
	.byte	W05
	.byte		PAN   , c_v+63
	.byte	W01
	.byte		N12   , Bn4 , v080
	.byte	W12
	.byte		N06   , Bn4 , v040
	.byte	W05
	.byte		PAN   , c_v-64
	.byte	W01
	.byte		N12   , Bn4 , v080
	.byte	W12
	.byte		N06   , Bn4 , v040
	.byte	W11
	.byte		PAN   , c_v+63
	.byte	W01
	.byte		N06   , Bn3 , v080
	.byte	W11
	.byte		PAN   , c_v-64
	.byte	W01
	.byte		N12
	.byte	W09
	.byte	W03
	.byte		N06   , Bn3 , v040
	.byte	W12
	.byte		PAN   , c_v+63
	.byte		N12   , Cs5 , v080
	.byte	W12
	.byte		N06   , Cs5 , v040
	.byte	W05
	.byte		PAN   , c_v-64
	.byte	W01
	.byte		N12   , Cs5 , v080
	.byte	W12
	.byte		N06   , Cs5 , v040
	.byte	W05
	.byte		PAN   , c_v+63
	.byte	W01
	.byte		N12   , Cs5 , v080
	.byte	W12
	.byte		N06   , Cs5 , v040
	.byte	W11
	.byte		PAN   , c_v-64
	.byte	W01
	.byte		N06   , Cs5 , v080
	.byte	W11
	.byte		PAN   , c_v+63
	.byte	W01
	.byte		N12
	.byte	W09
	.byte	PATT
	 .word	seq_000_0 + 0x62
	.byte	W03
	.byte		N06   , Cs5 , v040
	.byte	W11
	.byte		PAN   , c_v+63
	.byte	W01
	.byte		N12   , Cs5 , v080
	.byte	W12
	.byte		N06   , Cs5 , v040
	.byte	W05
	.byte		PAN   , c_v-64
	.byte	W01
	.byte		N12   , Cs5 , v080
	.byte	W12
	.byte		N06   , Cs5 , v040
	.byte	W05
	.byte		PAN   , c_v+63
	.byte	W01
	.byte		N12   , Cs5 , v080
	.byte	W12
	.byte		N06   , Cs5 , v040
	.byte	W11
	.byte		PAN   , c_v-64
	.byte	W01
	.byte		N06   , Cs4 , v080
	.byte	W11
	.byte		PAN   , c_v+63
	.byte	W01
	.byte		N12   , Cs5 
	.byte	W09
	.byte	W03
	.byte		N06   , Cs5 , v040
	.byte	W11
	.byte		PAN   , c_v-64
	.byte	W01
	.byte		N12   , Bn4 , v080
	.byte	W12
	.byte		N06   , Bn4 , v040
	.byte	W05
	.byte		PAN   , c_v+63
	.byte	W01
	.byte		N12   , Bn4 , v080
	.byte	W12
	.byte		N06   , Bn4 , v040
	.byte	W05
	.byte		PAN   , c_v-64
	.byte	W01
	.byte		N12   , Bn4 , v080
	.byte	W12
	.byte		N06   , Bn4 , v040
	.byte	W11
	.byte		PAN   , c_v+63
	.byte	W01
	.byte		N06   , Bn3 , v080
	.byte	W11
	.byte		PAN   , c_v-64
	.byte	W01
	.byte		N12   , Bn4 
	.byte	W09
	.byte	W03
	.byte		N06   , Bn4 , v040
	.byte	W12
	.byte		VOICE , 39
	.byte		VOL   , 108*seq_000_mvl/mxv
	.byte		PAN   , c_v+63
	.byte	W12
	.byte		        c_v+44
	.byte		N06   , Cn4 , v112
	.byte	W06
	.byte		        Cn4 , v060
	.byte	W06
	.byte		PAN   , c_v+38
	.byte		N06   , Ds4 , v112
	.byte	W06
	.byte		        Ds4 , v060
	.byte	W06
	.byte		PAN   , c_v+31
	.byte		N06   , Fs4 , v112
	.byte	W06
	.byte		        Fs4 , v060
	.byte	W06
	.byte		PAN   , c_v+25
	.byte		N06   , An3 , v112
	.byte	W06
	.byte		        An3 , v060
	.byte	W06
	.byte		PAN   , c_v+18
	.byte		N06   , Cn4 , v112
	.byte	W06
	.byte		        Cn4 , v060
	.byte	W06
	.byte		PAN   , c_v+11
	.byte		N06   , Ds3 , v112
	.byte	W06
	.byte		        Ds3 , v060
	.byte	W03
	.byte	W03
	.byte		PAN   , c_v+5
	.byte		N06   , Fs3 , v112
	.byte	W06
	.byte		        Fs3 , v060
	.byte	W06
	.byte		PAN   , c_v-2
	.byte		N06   , Cn3 , v112
	.byte	W06
	.byte		        Cn3 , v060
	.byte	W06
	.byte		PAN   , c_v-8
	.byte		N06   , Ds3 , v112
	.byte	W06
	.byte		        Ds3 , v060
	.byte	W06
	.byte		PAN   , c_v-15
	.byte		N06   , An2 , v112
	.byte	W06
	.byte		        An2 , v060
	.byte	W06
	.byte		PAN   , c_v-22
	.byte		N06   , Cn3 , v112
	.byte	W06
	.byte		        Cn3 , v060
	.byte	W06
	.byte		PAN   , c_v-28
	.byte		N06   , Fs2 , v112
	.byte	W06
	.byte		        Fs2 , v060
	.byte	W06
	.byte		PAN   , c_v-35
	.byte		N06   , An2 , v112
	.byte	W06
	.byte		        An2 , v060
	.byte	W06
	.byte		PAN   , c_v-42
	.byte		N12   , Cn2 , v112
	.byte	W09
	.byte	W03
	.byte		PAN   , c_v-64
	.byte		N12   , Cn2 , v060
	.byte	W12
	.byte		PAN   , c_v+63
	.byte	W12
	.byte		        c_v+44
	.byte		N06   , Cn4 , v112
	.byte	W06
	.byte		        Cn4 , v060
	.byte	W06
	.byte		PAN   , c_v+38
	.byte		N06   , Ds4 , v112
	.byte	W06
	.byte		        Ds4 , v060
	.byte	W06
	.byte		PAN   , c_v+31
	.byte		N06   , Fs4 , v112
	.byte	W06
	.byte		        Fs4 , v060
	.byte	W06
	.byte		PAN   , c_v+25
	.byte		N06   , An3 , v112
	.byte	W06
	.byte		        An3 , v060
	.byte	W06
	.byte		PAN   , c_v+18
	.byte		N06   , Cn4 , v112
	.byte	W06
	.byte		        Cn4 , v060
	.byte	W06
	.byte		PAN   , c_v+11
	.byte		N06   , Ds3 , v112
	.byte	W06
	.byte		        Ds3 , v060
	.byte	W03
	.byte	W03
	.byte		PAN   , c_v+5
	.byte		N06   , Fs3 , v112
	.byte	W06
	.byte		        Fs3 , v060
	.byte	W06
	.byte		PAN   , c_v-2
	.byte		N06   , Cn3 , v112
	.byte	W06
	.byte		        Cn3 , v060
	.byte	W06
	.byte		PAN   , c_v-8
	.byte		N06   , Ds3 , v112
	.byte	W06
	.byte		        Ds3 , v060
	.byte	W06
	.byte		PAN   , c_v-15
	.byte		N06   , An2 , v112
	.byte	W06
	.byte		        An2 , v060
	.byte	W06
	.byte		PAN   , c_v-22
	.byte		N06   , Cn3 , v112
	.byte	W06
	.byte		        Cn3 , v060
	.byte	W06
	.byte		PAN   , c_v-28
	.byte		N06   , Fs2 , v112
	.byte	W06
	.byte		        Fs2 , v060
	.byte	W06
	.byte		PAN   , c_v-35
	.byte		N06   , An2 , v112
	.byte	W06
	.byte		        An2 , v060
	.byte	W06
	.byte		PAN   , c_v-42
	.byte		N06   , Cn3 , v112
	.byte	W06
	.byte		        Cn3 , v060
	.byte	W03
	.byte	W03
	.byte		PAN   , c_v-64
	.byte		N06   , Fs3 , v112
	.byte	W06
	.byte		        Fs3 , v060
	.byte	W06
	.byte		VOICE , 3
	.byte		PAN   , c_v-64
	.byte		N06   , En3 , v100
	.byte	W06
	.byte		        En3 , v060
	.byte	W06
	.byte		        Gn3 , v100
	.byte	W06
	.byte		        As3 
	.byte	W06
	.byte		        Cs4 
	.byte	W06
	.byte		        Cs4 , v060
	.byte	W06
	.byte		        As3 , v100
	.byte	W06
	.byte		        Gn3 
	.byte	W06
	.byte		PAN   , c_v+63
	.byte		N06   , En3 
	.byte	W06
	.byte		        En3 , v060
	.byte	W06
	.byte		        Gn3 , v100
	.byte	W06
	.byte		        As3 
	.byte	W06
	.byte		        Cs4 
	.byte	W06
	.byte		        Cs4 , v060
	.byte	W03
	.byte	W15
	.byte		PAN   , c_v-64
	.byte		N06   , Fn3 , v100
	.byte	W06
	.byte		        Fn3 , v060
	.byte	W06
	.byte		        Gs3 , v100
	.byte	W06
	.byte		        Bn3 
	.byte	W06
	.byte		        Dn4 
	.byte	W06
	.byte		        Dn4 , v060
	.byte	W06
	.byte		        Bn3 , v100
	.byte	W06
	.byte		        Gs3 
	.byte	W06
	.byte		PAN   , c_v+63
	.byte		N06   , Fn3 
	.byte	W06
	.byte		        Fn3 , v060
	.byte	W06
	.byte		        Gs3 , v100
	.byte	W06
	.byte		        Bn3 
	.byte	W06
	.byte		        Dn4 
	.byte	W06
	.byte		        Dn4 , v060
	.byte	W03
	.byte	W15
	.byte		VOICE , 2
	.byte		VOL   , 80*seq_000_mvl/mxv
	.byte		PAN   , c_v+63
	.byte		N12   , Cs5 , v080
	.byte	W12
	.byte		N06   , Cs5 , v040
	.byte	W05
	.byte		PAN   , c_v-64
	.byte	W01
	.byte		N12   , Cs5 , v080
	.byte	W12
	.byte		N06   , Cs5 , v040
	.byte	W05
	.byte		PAN   , c_v+63
	.byte	W01
	.byte		N12   , Cs5 , v080
	.byte	W12
	.byte		N06   , Cs5 , v040
	.byte	W11
	.byte		PAN   , c_v-64
	.byte	W01
	.byte		N06   , Cs5 , v080
	.byte	W11
	.byte		PAN   , c_v+63
	.byte	W01
	.byte		N12
	.byte	W09
	.byte	PATT
	 .word	seq_000_0 + 0x62
	.byte	W03
	.byte		N06   , Cs5 , v040
	.byte	W12
	.byte		        Dn2 , v112
	.byte	W12
	.byte		        Fs2 
	.byte	W12
	.byte		        An2 
	.byte	W12
	.byte		        Cs3 
	.byte	W12
	.byte		PAN   , c_v+63
	.byte		N06   , Dn4 , v080
	.byte	W12
	.byte		        Fs4 
	.byte	W12
	.byte		        An4 
	.byte	W09
	.byte	W03
	.byte		        Cs5 
	.byte	W12
	.byte		PAN   , c_v-64
	.byte		N06   , Dn2 , v112
	.byte	W12
	.byte		        Fs2 
	.byte	W12
	.byte		        An2 
	.byte	W12
	.byte		        Cs3 
	.byte	W12
	.byte		PAN   , c_v+63
	.byte		N06   , En4 , v080
	.byte	W12
	.byte		        Gs4 
	.byte	W12
	.byte		        Bn4 
	.byte	W09
	.byte	W03
	.byte		        En5 
	.byte	W12
	.byte		PAN   , c_v+63
	.byte		N12   , Cs5 
	.byte	W12
	.byte		N06   , Cs5 , v040
	.byte	W05
	.byte		PAN   , c_v-64
	.byte	W01
	.byte		N12   , Cs5 , v080
	.byte	W12
	.byte		N06   , Cs5 , v040
	.byte	W05
	.byte		PAN   , c_v+63
	.byte	W01
	.byte		N12   , Cs5 , v080
	.byte	W12
	.byte		N06   , Cs5 , v040
	.byte	W11
	.byte		PAN   , c_v-64
	.byte	W01
	.byte		N06   , Cs5 , v080
	.byte	W11
	.byte		PAN   , c_v+63
	.byte	W01
	.byte		N12
	.byte	W09
	.byte	W03
	.byte		        Cs5 , v040
	.byte	W12
	.byte		PAN   , c_v+0
	.byte		N06   , Cs5 , v080
	.byte	W06
	.byte		        Cs5 , v040
	.byte	W06
	.byte		        Fs4 , v080
	.byte	W06
	.byte		        Fs4 , v040
	.byte	W06
	.byte		        An4 , v080
	.byte	W06
	.byte		        An4 , v040
	.byte	W06
	.byte		N12   , Bn4 , v080
	.byte	W12
	.byte		        Bn4 , v040
	.byte	W12
	.byte		N06   , Cs5 , v080
	.byte	W06
	.byte		        Cs5 , v040
	.byte	W06
	.byte		N24   , Fs4 , v080
	.byte	W09
	.byte	W15
	.byte		VOICE , 3
	.byte	W12
	.byte		N06   , En3 , v060
	.byte	W06
	.byte		        En3 , v032
	.byte	W06
	.byte		        Gn3 , v060
	.byte	W06
	.byte		        Gn3 , v032
	.byte	W06
	.byte		        Bn3 , v060
	.byte	W06
	.byte		        Bn3 , v032
	.byte	W06
	.byte		        Dn4 , v060
	.byte	W06
	.byte		        Dn4 , v032
	.byte	W06
	.byte		        Bn3 , v060
	.byte	W06
	.byte		        Bn3 , v032
	.byte	W06
	.byte		        Gn3 , v060
	.byte	W06
	.byte		        Gn3 , v032
	.byte	W03
	.byte	W03
	.byte		        En3 , v060
	.byte	W06
	.byte		        En3 , v032
	.byte	W18
	.byte		        Dn3 , v060
	.byte	W06
	.byte		        Dn3 , v032
	.byte	W06
	.byte		        Fs3 , v060
	.byte	W06
	.byte		        Fs3 , v032
	.byte	W06
	.byte		        An3 , v060
	.byte	W06
	.byte		        An3 , v032
	.byte	W06
	.byte		        En4 , v060
	.byte	W06
	.byte		        En4 , v032
	.byte	W06
	.byte		        An3 , v060
	.byte	W06
	.byte		        An3 , v032
	.byte	W06
	.byte		        Fs3 , v060
	.byte	W06
	.byte		        Fs3 , v032
	.byte	W03
	.byte	W03
	.byte		        Dn3 , v060
	.byte	W06
	.byte		        Dn3 , v032
	.byte	W18
	.byte		        Bn2 , v060
	.byte	W06
	.byte		        Bn2 , v032
	.byte	W06
	.byte		        Dn3 , v060
	.byte	W06
	.byte		        Dn3 , v032
	.byte	W06
	.byte		        Fs3 , v060
	.byte	W06
	.byte		        Fs3 , v032
	.byte	W06
	.byte		        Bn3 , v060
	.byte	W06
	.byte		        Bn3 , v032
	.byte	W06
	.byte		        Fs3 , v060
	.byte	W06
	.byte		        Fs3 , v032
	.byte	W06
	.byte		        Dn3 , v060
	.byte	W06
	.byte		        Dn3 , v032
	.byte	W03
	.byte	W03
	.byte		        Bn2 , v060
	.byte	W06
	.byte		        Bn2 , v032
	.byte	W18
	.byte		        Cs3 , v060
	.byte	W06
	.byte		        Cs3 , v032
	.byte	W06
	.byte		        En3 , v060
	.byte	W06
	.byte		        En3 , v032
	.byte	W06
	.byte		        Gs3 , v060
	.byte	W06
	.byte		        Gs3 , v032
	.byte	W06
	.byte		        Cs4 , v060
	.byte	W06
	.byte		        Cs4 , v032
	.byte	W06
	.byte		        Gs3 , v060
	.byte	W06
	.byte		        Gs3 , v032
	.byte	W06
	.byte		        En3 , v060
	.byte	W06
	.byte		        En3 , v032
	.byte	W03
	.byte	W03
	.byte		        Cs3 , v060
	.byte	W06
	.byte		        Cs3 , v032
	.byte	W84
	.byte	W03
	.byte	W96
	.byte	W96
	.byte	W96
	.byte	W96
	.byte	W15
	.byte	GOTO
	 .word	seq_000_0 + 0x32
	.byte	FINE

@*********************** Track 02 ***********************@

seq_000_1:
	.byte	KEYSH , seq_000_key+0
	.byte	W01
	.byte		VOICE , 7
	.byte	W01
	.byte		VOL   , 94*seq_000_mvl/mxv
	.byte	W01
	.byte		PAN   , c_v+0
	.byte	W01
	.byte		BEND  , c_v+0
	.byte	W01
	.byte		LFOS  , 28
	.byte	W01
	.byte		LFODL , 14
	.byte	W01
	.byte		MODT  , mod_vib
	.byte	W01
	.byte		MOD   , 5
	.byte	W01
	.byte	W01
	.byte		XCMD  , xIECV , 40
	.byte	W01
	.byte	W01
	.byte		        xIECL , 4
	.byte	W03
	.byte		PAN   , c_v-64
	.byte		N06   , Cs3 , v092
	.byte	W06
	.byte		        Fn3 
	.byte	W06
	.byte		        Gn3 
	.byte	W06
	.byte		        Cs4 
	.byte	W05
	.byte		PAN   , c_v+63
	.byte	W01
	.byte		N06   , Cs3 
	.byte	W06
	.byte		        Fn3 
	.byte	W06
	.byte		        Gn3 
	.byte	W06
	.byte		        Cs4 
	.byte	W06
	.byte		PAN   , c_v-64
	.byte		N06   , Cs3 
	.byte	W06
	.byte		        Fn3 
	.byte	W06
	.byte		        Gn3 
	.byte	W06
	.byte		        Cs4 
	.byte	W06
	.byte		PAN   , c_v+63
	.byte		N06   , Cs3 
	.byte	W06
	.byte		        Fn3 
	.byte	W03
	.byte	W03
	.byte		        Gn3 
	.byte	W06
	.byte		        Cs4 
	.byte	W05
	.byte		VOICE , 7
	.byte		VOL   , 94*seq_000_mvl/mxv
	.byte		PAN   , c_v+0
	.byte	W01
	.byte		N36   , En4 , v100
	.byte	W48
	.byte		N12
	.byte	W18
	.byte		        Ds4 
	.byte	W15
	.byte	W03
	.byte		N12   , Dn4 , v100
	.byte	W12
	.byte		N84   , Cs4 
	.byte	W80
	.byte	W01
	.byte	PEND
	.byte	W15
	.byte		VOICE , 6
	.byte		N12   , Fs3 , v072
	.byte	W24
	.byte		        En3 
	.byte	W12
	.byte		        Fs3 
	.byte	W12
	.byte		PAN   , c_v-64
	.byte		N06   , An1 , v100
	.byte	W06
	.byte		        Cs2 
	.byte	W06
	.byte		        Fs2 
	.byte	W06
	.byte		        An2 
	.byte	W06
	.byte		PAN   , c_v+63
	.byte		N06   , Cs4 
	.byte	W06
	.byte		        Fs4 
	.byte	W03
	.byte	PEND
	.byte	W03
	.byte		        An4 
	.byte	W06
	.byte		        Cs5 
	.byte	W06
	.byte		PAN   , c_v+0
	.byte		N12   , En3 , v072
	.byte	W24
	.byte		        Dn3 
	.byte	W12
	.byte		        En3 
	.byte	W12
	.byte		PAN   , c_v-64
	.byte		N06   , Bn1 , v100
	.byte	W06
	.byte		        Dn2 
	.byte	W06
	.byte		        Gs2 
	.byte	W06
	.byte		        Bn2 
	.byte	W06
	.byte		PAN   , c_v+63
	.byte		N06   , Dn4 
	.byte	W06
	.byte		        Gs4 
	.byte	W03
	.byte	W03
	.byte		        Bn4 
	.byte	W06
	.byte		        Dn5 
	.byte	W06
	.byte		VOICE , 7
	.byte		PAN   , c_v+0
	.byte		N36   , En4 
	.byte	W48
	.byte		N12
	.byte	W18
	.byte		        Ds4 
	.byte	W15
	.byte	PATT
	 .word	seq_000_1 + 0x62
	.byte	PATT
	 .word	seq_000_1 + 0x6C
	.byte	W03
	.byte		N06   , An4 , v100
	.byte	W06
	.byte		        Cs5 
	.byte	W06
	.byte		PAN   , c_v+0
	.byte		N12   , En3 , v072
	.byte	W24
	.byte		        Dn3 
	.byte	W12
	.byte		        En3 
	.byte	W12
	.byte		VOICE , 7
	.byte		N12   , Cs4 , v100
	.byte	W18
	.byte		        Dn4 
	.byte	W15
	.byte	W03
	.byte		        En4 
	.byte	W12
	.byte		N96   , Fs4 , v092
	.byte	W80
	.byte	W01
	.byte	W56
	.byte	W01
	.byte		VOICE , 5
	.byte		VOL   , 75*seq_000_mvl/mxv
	.byte	W06
	.byte		N06   , Cn3 , v072
	.byte	W06
	.byte		        Cs3 , v060
	.byte	W06
	.byte		        Dn3 , v052
	.byte	W06
	.byte		        Ds3 , v040
	.byte	W06
	.byte		        En3 , v072
	.byte	W06
	.byte		        Ds3 , v060
	.byte	W03
	.byte	W03
	.byte		        Dn3 , v052
	.byte	W06
	.byte		        Cs3 , v040
	.byte	W06
	.byte		        Cn3 , v072
	.byte	W06
	.byte		        Cs3 , v060
	.byte	W06
	.byte		        Dn3 , v052
	.byte	W06
	.byte		        Ds3 , v040
	.byte	W06
	.byte		        En3 , v072
	.byte	W06
	.byte		        Ds3 , v060
	.byte	W06
	.byte		        Dn3 , v052
	.byte	W06
	.byte		        Cs3 , v040
	.byte	W06
	.byte		        Cn3 , v072
	.byte	W06
	.byte		        Cs3 , v060
	.byte	W06
	.byte		        Dn3 , v052
	.byte	W06
	.byte		        Ds3 , v040
	.byte	W06
	.byte		        En3 , v072
	.byte	W06
	.byte		        Ds3 , v060
	.byte	W03
	.byte	W03
	.byte		        Dn3 , v052
	.byte	W06
	.byte		        Cs3 , v040
	.byte	W06
	.byte		        Cn3 , v072
	.byte	W06
	.byte		        Cs3 , v060
	.byte	W06
	.byte		        Dn3 , v052
	.byte	W06
	.byte		        Ds3 , v040
	.byte	W06
	.byte		        En3 , v072
	.byte	W06
	.byte		        Ds3 , v060
	.byte	W06
	.byte		        Dn3 , v052
	.byte	W06
	.byte		        Cs3 , v040
	.byte	W06
	.byte		        Cn3 , v072
	.byte	W06
	.byte		        Cs3 , v060
	.byte	W06
	.byte		        Dn3 , v052
	.byte	W06
	.byte		        Ds3 , v040
	.byte	W06
	.byte		        En3 , v072
	.byte	W06
	.byte		        Fn3 , v060
	.byte	W03
	.byte	W03
	.byte		        Fs3 , v052
	.byte	W06
	.byte		        Gn3 , v040
	.byte	W06
	.byte		VOICE , 7
	.byte		VOL   , 103*seq_000_mvl/mxv
	.byte		N06   , Gn3 , v100
	.byte	W06
	.byte		        Gn3 , v052
	.byte	W06
	.byte		        As3 , v100
	.byte	W06
	.byte		        Cs4 
	.byte	W06
	.byte		        Gn4 
	.byte	W06
	.byte		        Gn4 , v052
	.byte	W06
	.byte		        Cs4 , v100
	.byte	W06
	.byte		        As3 
	.byte	W06
	.byte		        Gn3 
	.byte	W06
	.byte		        Gn3 , v052
	.byte	W06
	.byte		        As3 , v100
	.byte	W06
	.byte		        Cs4 
	.byte	W06
	.byte		        Gn4 
	.byte	W06
	.byte		        Gn4 , v052
	.byte	W03
	.byte	W15
	.byte		        Gs3 , v100
	.byte	W06
	.byte		        Gs3 , v052
	.byte	W06
	.byte		        Bn3 , v100
	.byte	W06
	.byte		        Dn4 
	.byte	W06
	.byte		        Gs4 
	.byte	W06
	.byte		        Gs4 , v052
	.byte	W06
	.byte		        Dn4 , v100
	.byte	W06
	.byte		        Bn3 
	.byte	W06
	.byte		        Gs3 
	.byte	W06
	.byte		        Gs3 , v052
	.byte	W06
	.byte		        Bn3 , v100
	.byte	W06
	.byte		        Dn4 
	.byte	W06
	.byte		        Gs4 
	.byte	W06
	.byte		        Gs4 , v052
	.byte	W03
	.byte	W24
	.byte	W03
	.byte		PAN   , c_v-64
	.byte		N06   , An2 , v100
	.byte	W06
	.byte		        Cn4 , v060
	.byte	W06
	.byte		PAN   , c_v-56
	.byte		N06   , Fs2 , v100
	.byte	W06
	.byte		        An3 , v060
	.byte	W06
	.byte		PAN   , c_v-47
	.byte		N06   , Gs2 , v100
	.byte	W06
	.byte		        Bn3 , v060
	.byte	W06
	.byte		PAN   , c_v-38
	.byte		N06   , An2 , v100
	.byte	W06
	.byte		        Cn4 , v060
	.byte	W06
	.byte		PAN   , c_v-30
	.byte		N06   , As2 , v100
	.byte	W06
	.byte		        Cs4 , v060
	.byte	W06
	.byte		PAN   , c_v-21
	.byte		N06   , Bn2 , v100
	.byte	W06
	.byte		        Dn4 , v060
	.byte	W03
	.byte	W03
	.byte		PAN   , c_v-12
	.byte		N06   , Cn3 , v100
	.byte	W06
	.byte		        Ds4 , v060
	.byte	W06
	.byte		PAN   , c_v-3
	.byte		N06   , Cs3 , v100
	.byte	W06
	.byte		        En4 , v060
	.byte	W06
	.byte		PAN   , c_v+5
	.byte		N06   , Dn3 , v100
	.byte	W06
	.byte		        Fn4 , v060
	.byte	W06
	.byte		PAN   , c_v+14
	.byte		N06   , Ds3 , v100
	.byte	W06
	.byte		        Fs4 , v060
	.byte	W06
	.byte		PAN   , c_v+23
	.byte		N06   , En3 , v100
	.byte	W06
	.byte		        Gn4 , v060
	.byte	W06
	.byte		PAN   , c_v+31
	.byte		N06   , Fn3 , v100
	.byte	W06
	.byte		        Gs4 , v072
	.byte	W06
	.byte		PAN   , c_v+40
	.byte		N06   , Fs3 , v112
	.byte	W06
	.byte		        An4 , v072
	.byte	W06
	.byte		PAN   , c_v+49
	.byte		N06   , Gn3 , v112
	.byte	W06
	.byte		        As4 , v072
	.byte	W03
	.byte	W03
	.byte		PAN   , c_v+58
	.byte		N06   , Gs3 , v112
	.byte	W06
	.byte		        Bn4 , v072
	.byte	W05
	.byte		PAN   , c_v+63
	.byte	W01
	.byte		N12   , Fs3 , v100
	.byte	W12
	.byte		        Fs3 , v060
	.byte	W24
	.byte		N06   , Dn3 , v100
	.byte	W11
	.byte		PAN   , c_v-64
	.byte	W01
	.byte		N12   , Gs3 
	.byte	W12
	.byte		        Gs3 , v060
	.byte	W21
	.byte	W03
	.byte		N06   , En3 , v100
	.byte	W11
	.byte		PAN   , c_v+63
	.byte	W01
	.byte		N12   , An3 
	.byte	W12
	.byte		        An3 , v060
	.byte	W24
	.byte		N06   , Fs3 , v100
	.byte	W11
	.byte		PAN   , c_v-64
	.byte	W01
	.byte		N12   , Bn3 
	.byte	W12
	.byte		        Bn3 , v060
	.byte	W21
	.byte	W03
	.byte		N06   , Gs3 , v100
	.byte	W11
	.byte		PAN   , c_v+63
	.byte	W01
	.byte		N06   , Fs3 
	.byte	W12
	.byte		        Cs3 
	.byte	W12
	.byte		        En3 
	.byte	W11
	.byte		PAN   , c_v-64
	.byte	W01
	.byte		N60   , An3 
	.byte	W44
	.byte	W01
	.byte	W14
	.byte		PAN   , c_v+63
	.byte	W01
	.byte		N06   , An3 , v092
	.byte	W12
	.byte		        Cs3 
	.byte	W12
	.byte		        En3 
	.byte	W12
	.byte		N12   , Fs3 
	.byte	W17
	.byte		PAN   , c_v+0
	.byte	W04
	.byte		VOL   , 94*seq_000_mvl/mxv
	.byte	W03
	.byte		VOICE , 8
	.byte		N06   , An3 , v100
	.byte	W12
	.byte		        Bn3 
	.byte	W09
	.byte	W03
	.byte		        Cs4 
	.byte	W12
	.byte		PAN   , c_v+0
	.byte		N24   , Dn4 , v092
	.byte	W24
	.byte		        Dn4 , v040
	.byte	W24
	.byte		        Gn3 , v092
	.byte	W24
	.byte		        Gn3 , v040
	.byte	W09
	.byte	W15
	.byte		        An3 , v092
	.byte	W24
	.byte		        An3 , v040
	.byte	W24
	.byte		        Cs4 , v092
	.byte	W24
	.byte		        Cs4 , v040
	.byte	W09
	.byte	W15
	.byte		N48   , Bn3 , v092
	.byte	W48
	.byte		N12   , Bn3 , v040
	.byte	W12
	.byte		        Cs4 , v092
	.byte	W12
	.byte		        Cs4 , v040
	.byte	W09
	.byte	W03
	.byte		        Dn4 , v092
	.byte	W12
	.byte		N84   , En4 , v080
	.byte	W80
	.byte	W01
	.byte	W03
	.byte		N12   , En4 , v040
	.byte	W12
	.byte		PAN   , c_v-64
	.byte		N06   , Cs3 , v092
	.byte	W06
	.byte		        Fn3 
	.byte	W06
	.byte		        Gn3 
	.byte	W06
	.byte		        Cs4 
	.byte	W06
	.byte		PAN   , c_v+63
	.byte		N06   , Cs3 
	.byte	W06
	.byte		        Fn3 
	.byte	W06
	.byte		        Gn3 
	.byte	W06
	.byte		        Cs4 
	.byte	W06
	.byte		PAN   , c_v-64
	.byte		N06   , Cs3 
	.byte	W06
	.byte		        Fn3 
	.byte	W06
	.byte		        Gn3 
	.byte	W06
	.byte		        Cs4 
	.byte	W06
	.byte		PAN   , c_v+63
	.byte		N06   , Cs3 
	.byte	W06
	.byte		        Fn3 
	.byte	W03
	.byte	W03
	.byte		        Gn3 
	.byte	W06
	.byte		        Cs4 
	.byte	W09
	.byte		PAN   , c_v-64
	.byte		N18   , Fs1 , v060
	.byte	W18
	.byte		N06   , Fs1 , v040
	.byte	W06
	.byte		        Gn1 , v060
	.byte	W12
	.byte		N18   , Fs1 
	.byte	W18
	.byte		N06   , Fs1 , v040
	.byte	W06
	.byte		        Gn1 , v060
	.byte	W12
	.byte		N12   , Fs1 
	.byte	W06
	.byte	W06
	.byte		N12   , An1 , v060
	.byte	W12
	.byte		PAN   , c_v+63
	.byte		N18   , Fs1 
	.byte	W18
	.byte		N06   , Fs1 , v040
	.byte	W06
	.byte		        Gn1 , v060
	.byte	W12
	.byte		N18   , Fs1 
	.byte	W18
	.byte		N06   , Fs1 , v040
	.byte	W06
	.byte		        Gn1 , v060
	.byte	W12
	.byte		N12   , Fs1 
	.byte	W06
	.byte	PEND
	.byte	W06
	.byte		        An1 
	.byte	W12
	.byte		PAN   , c_v-64
	.byte		N18   , Fs1 
	.byte	W18
	.byte		N06   , Fs1 , v040
	.byte	W06
	.byte		        Gn1 , v060
	.byte	W12
	.byte		N18   , Fs1 
	.byte	W18
	.byte		N06   , Fs1 , v040
	.byte	W06
	.byte		        Gn1 , v060
	.byte	W12
	.byte		N12   , Fs1 
	.byte	W06
	.byte	PATT
	 .word	seq_000_1 + 0x32D
	.byte	W06
	.byte		N06   , An1 , v060
	.byte	W08
	.byte		VOICE , 7
	.byte		VOL   , 94*seq_000_mvl/mxv
	.byte		PAN   , c_v+0
	.byte	W01
	.byte	GOTO
	 .word	seq_000_1 + 0x5A
	.byte	FINE

@*********************** Track 03 ***********************@

seq_000_2:
	.byte	KEYSH , seq_000_key+0
	.byte	W01
	.byte		VOICE , 16
	.byte	W01
	.byte		VOL   , 120*seq_000_mvl/mxv
	.byte	W01
	.byte		PAN   , c_v+0
	.byte	W01
	.byte		BEND  , c_v+0
	.byte	W01
	.byte		LFOS  , 28
	.byte	W01
	.byte		LFODL , 14
	.byte	W01
	.byte		MODT  , mod_vib
	.byte	W01
	.byte		MOD   , 10
	.byte	W01
	.byte	W01
	.byte		XCMD  , xIECV , 30
	.byte	W01
	.byte	W01
	.byte		        xIECL , 3
	.byte	W84
	.byte	W15
	.byte		N18   , Fs1 , v127
	.byte	W18
	.byte		N06   , Fs1 , v068
	.byte	W06
	.byte		        Gn1 , v127
	.byte	W12
	.byte		N18   , Fs1 
	.byte	W18
	.byte		N06   , Fs1 , v068
	.byte	W06
	.byte		        Gn1 , v127
	.byte	W12
	.byte		N12   , Fs1 
	.byte	W09
	.byte	W03
	.byte		N12   , An1 , v127
	.byte	W12
	.byte		N18   , Fs1 
	.byte	W18
	.byte		N06   , Fs1 , v068
	.byte	W06
	.byte		        Gn1 , v127
	.byte	W12
	.byte		N18   , Fs1 
	.byte	W18
	.byte		N06   , Fs1 , v068
	.byte	W06
	.byte		        Gn1 , v127
	.byte	W12
	.byte		N12   , Fs1 
	.byte	W09
	.byte	PEND
	.byte	PATT
	 .word	seq_000_2 + 0x3D
	.byte	PATT
	 .word	seq_000_2 + 0x3D
	.byte	PATT
	 .word	seq_000_2 + 0x3D
	.byte	PATT
	 .word	seq_000_2 + 0x3D
	.byte	PATT
	 .word	seq_000_2 + 0x3D
	.byte	PATT
	 .word	seq_000_2 + 0x3D
	.byte	PATT
	 .word	seq_000_2 + 0x3D
	.byte	PATT
	 .word	seq_000_2 + 0x3D
	.byte	PATT
	 .word	seq_000_2 + 0x3D
	.byte	PATT
	 .word	seq_000_2 + 0x3D
	.byte	W03
	.byte		N12   , An1 , v127
	.byte	W12
	.byte		N18   , Gn1 
	.byte	W18
	.byte		N06   , Gn1 , v068
	.byte	W06
	.byte		        Gs1 , v127
	.byte	W12
	.byte		N18   , Gn1 
	.byte	W18
	.byte		N06   , Gn1 , v068
	.byte	W06
	.byte		        Gs1 , v127
	.byte	W12
	.byte		N12   , Gn1 
	.byte	W09
	.byte	W03
	.byte		        As1 
	.byte	W12
	.byte		N18   , Gs1 
	.byte	W18
	.byte		N06   , Gs1 , v068
	.byte	W06
	.byte		        An1 , v127
	.byte	W12
	.byte		N18   , Gs1 
	.byte	W18
	.byte		N06   , Gs1 , v068
	.byte	W06
	.byte		        An1 , v127
	.byte	W12
	.byte		        Gs1 
	.byte	W06
	.byte		        Gs2 
	.byte	W03
	.byte	W03
	.byte		        Gn2 
	.byte	W06
	.byte		        Fs2 
	.byte	W06
	.byte		N18   , Fs1 
	.byte	W18
	.byte		N06   , Fs1 , v068
	.byte	W06
	.byte		        Gn1 , v127
	.byte	W12
	.byte		N18   , Fs1 
	.byte	W18
	.byte		N06   , Fs1 , v068
	.byte	W06
	.byte		        Gn1 , v127
	.byte	W12
	.byte		N12   , Fs1 
	.byte	W09
	.byte	PATT
	 .word	seq_000_2 + 0x3D
	.byte	W03
	.byte		N12   , An1 , v127
	.byte	W12
	.byte		N18   , Dn2 
	.byte	W18
	.byte		N06   , Dn2 , v068
	.byte	W06
	.byte		        An1 , v127
	.byte	W12
	.byte		N18   , En2 
	.byte	W18
	.byte		N06   , En2 , v068
	.byte	W06
	.byte		        Bn1 , v127
	.byte	W12
	.byte		N12   , En2 
	.byte	W09
	.byte	W03
	.byte		        Bn1 
	.byte	W12
	.byte		N18   , Dn2 
	.byte	W18
	.byte		N06   , Dn2 , v068
	.byte	W06
	.byte		        An1 , v127
	.byte	W12
	.byte		N18   , En2 
	.byte	W18
	.byte		N06   , En2 , v068
	.byte	W06
	.byte		        Bn1 , v127
	.byte	W12
	.byte		N12   , En2 
	.byte	W09
	.byte	W03
	.byte		        Bn1 
	.byte	W12
	.byte		N18   , Fs1 
	.byte	W18
	.byte		N06   , Fs1 , v068
	.byte	W06
	.byte		        Gn1 , v127
	.byte	W12
	.byte		N18   , Fs1 
	.byte	W18
	.byte		N06   , Fs1 , v068
	.byte	W06
	.byte		        Gn1 , v127
	.byte	W12
	.byte		N12   , Fs1 
	.byte	W09
	.byte	PATT
	 .word	seq_000_2 + 0x3D
	.byte	W03
	.byte		N12   , An1 , v127
	.byte	W12
	.byte		N18   , En2 
	.byte	W18
	.byte		N06   , En2 , v068
	.byte	W06
	.byte		        Fn1 , v127
	.byte	W12
	.byte		N18   , En2 
	.byte	W18
	.byte		N06   , En2 , v068
	.byte	W06
	.byte		        Fn1 , v127
	.byte	W12
	.byte		N12   , En2 
	.byte	W09
	.byte	W03
	.byte		        Fn1 
	.byte	W12
	.byte		N18   , Dn2 
	.byte	W18
	.byte		N06   , Dn2 , v068
	.byte	W06
	.byte		        An1 , v127
	.byte	W12
	.byte		N18   , Dn2 
	.byte	W18
	.byte		N06   , Dn2 , v068
	.byte	W06
	.byte		        An1 , v127
	.byte	W12
	.byte		N12   , Dn2 
	.byte	W09
	.byte	W03
	.byte		        An1 
	.byte	W12
	.byte		N18   , Bn1 
	.byte	W18
	.byte		N06   , Bn1 , v068
	.byte	W06
	.byte		        Cn2 , v127
	.byte	W12
	.byte		N18   , Bn1 
	.byte	W18
	.byte		N06   , Bn1 , v068
	.byte	W06
	.byte		        Cn2 , v127
	.byte	W12
	.byte		N12   , Bn1 
	.byte	W09
	.byte	W03
	.byte		        Dn2 
	.byte	W12
	.byte		N18   , Cs2 
	.byte	W18
	.byte		N06   , Cs2 , v068
	.byte	W06
	.byte		        Cs3 , v127
	.byte	W12
	.byte		N18   , Cs2 
	.byte	W18
	.byte		N06   , Cs2 , v068
	.byte	W06
	.byte		        Cs3 , v127
	.byte	W12
	.byte		        Cs2 
	.byte	W06
	.byte		        En2 
	.byte	W03
	.byte	W03
	.byte		        Gs2 
	.byte	W06
	.byte		        Cs3 
	.byte	W84
	.byte	W03
	.byte	W15
	.byte		N18   , Fs1 
	.byte	W18
	.byte		N06   , Fs1 , v068
	.byte	W06
	.byte		        Gn1 , v127
	.byte	W12
	.byte		N18   , Fs1 
	.byte	W18
	.byte		N06   , Fs1 , v068
	.byte	W06
	.byte		        Gn1 , v127
	.byte	W12
	.byte		N12   , Fs1 
	.byte	W09
	.byte	PATT
	 .word	seq_000_2 + 0x3D
	.byte	PATT
	 .word	seq_000_2 + 0x3D
	.byte	PATT
	 .word	seq_000_2 + 0x3D
	.byte	W03
	.byte		N12   , An1 , v127
	.byte	W12
	.byte	GOTO
	 .word	seq_000_2 + 0x25
	.byte	FINE

@*********************** Track 04 ***********************@

seq_000_3:
	.byte	KEYSH , seq_000_key+0
	.byte	W01
	.byte		VOICE , 0
	.byte	W01
	.byte		VOL   , 103*seq_000_mvl/mxv
	.byte	W01
	.byte		PAN   , c_v+0
	.byte	W01
	.byte		BEND  , c_v+0
	.byte	W11
	.byte		N03   , Ds1 , v072
	.byte	W12
	.byte		        En1 
	.byte	W12
	.byte		        Ds1 
	.byte	W12
	.byte		        Ds1 , v052
	.byte	W12
	.byte		        Ds1 , v072
	.byte	W12
	.byte		        Ds1 , v052
	.byte	W12
	.byte		        En1 , v072
	.byte	W09
	.byte	W03
	.byte		        Ds1 , v060
	.byte	W06
	.byte		        Ds1 , v040
	.byte	W06
	.byte		N06   , Cs1 , v092
	.byte		N24   , Fs1 , v060
	.byte	W24
	.byte		N03   , Ds1 , v052
	.byte		N06   , Dn2 , v127
	.byte	W12
	.byte		        Cs1 , v092
	.byte		N03   , En1 , v072
	.byte	W12
	.byte		        Ds1 
	.byte	W12
	.byte		        Ds1 , v052
	.byte		N06   , Dn2 , v127
	.byte	W12
	.byte		        Cs1 , v092
	.byte		N03   , Ds1 , v072
	.byte	W09
	.byte	W03
	.byte		N03   , Ds1 , v052
	.byte		N06   , Cn4 , v072
	.byte	W12
	.byte		        Cs1 , v092
	.byte		N03   , Ds1 , v072
	.byte	W12
	.byte		        En1 
	.byte	W12
	.byte		        Ds1 
	.byte		N06   , Dn2 , v127
	.byte	W12
	.byte		        Cs1 , v092
	.byte		N03   , Ds1 , v052
	.byte	W12
	.byte		        Ds1 , v072
	.byte	W12
	.byte		        Ds1 , v052
	.byte		N06   , Dn2 , v127
	.byte	W12
	.byte		        Cs1 , v092
	.byte		N03   , En1 , v072
	.byte	W09
	.byte	PEND
	.byte	W03
	.byte		N03   , Ds1 , v060
	.byte		N06   , As3 , v072
	.byte	W06
	.byte		N03   , Ds1 , v040
	.byte	W06
	.byte		N06   , Cs1 , v092
	.byte		N03   , En1 , v072
	.byte	W12
	.byte		        Ds1 
	.byte	W12
	.byte		        Ds1 , v052
	.byte		N06   , Dn2 , v127
	.byte	W12
	.byte		        Cs1 , v092
	.byte		N03   , En1 , v072
	.byte	W12
	.byte		        Ds1 
	.byte	W12
	.byte		        Ds1 , v052
	.byte		N06   , Dn2 , v127
	.byte	W12
	.byte		        Cs1 , v092
	.byte		N03   , Ds1 , v072
	.byte	W09
	.byte	PEND
	.byte	PATT
	 .word	seq_000_3 + 0x4C
	.byte	W03
	.byte		N03   , Ds1 , v060
	.byte		N06   , As3 , v072
	.byte	W06
	.byte		N03   , Ds1 , v040
	.byte	W06
	.byte		N06   , Cs1 , v092
	.byte		N24   , Fs1 , v060
	.byte	W24
	.byte		N03   , Ds1 , v052
	.byte		N06   , Dn2 , v127
	.byte	W12
	.byte		        Cs1 , v092
	.byte		N03   , En1 , v072
	.byte	W12
	.byte		        Ds1 
	.byte	W12
	.byte		        Ds1 , v052
	.byte		N06   , Dn2 , v127
	.byte	W12
	.byte		        Cs1 , v092
	.byte		N03   , Ds1 , v072
	.byte	W09
	.byte	PEND
	.byte	PATT
	 .word	seq_000_3 + 0x4C
	.byte	PATT
	 .word	seq_000_3 + 0x77
	.byte	PATT
	 .word	seq_000_3 + 0x4C
	.byte	W03
	.byte		N03   , Ds1 , v060
	.byte		N06   , Dn2 , v127
	.byte		N06   , As3 , v072
	.byte	W06
	.byte		N03   , Ds1 , v040
	.byte		N06   , Dn2 , v100
	.byte	W06
	.byte		        Cs1 , v092
	.byte		N24   , Fs1 , v060
	.byte	W24
	.byte		N03   , Ds1 , v052
	.byte		N06   , Dn2 , v127
	.byte	W12
	.byte		        Cs1 , v092
	.byte		N03   , En1 , v072
	.byte	W12
	.byte		        Ds1 
	.byte	W12
	.byte		        Ds1 , v052
	.byte		N06   , Dn2 , v127
	.byte	W12
	.byte		        Cs1 , v092
	.byte		N03   , Ds1 , v072
	.byte	W09
	.byte	PATT
	 .word	seq_000_3 + 0x4C
	.byte	PATT
	 .word	seq_000_3 + 0x77
	.byte	PATT
	 .word	seq_000_3 + 0x4C
	.byte	W03
	.byte		N03   , Ds1 , v060
	.byte		N06   , As3 , v072
	.byte	W06
	.byte		N03   , Ds1 , v040
	.byte	W06
	.byte		N06   , Cs1 , v092
	.byte		N24   , Fs1 , v060
	.byte	W24
	.byte		N03   , Ds1 , v052
	.byte		N06   , Dn2 , v127
	.byte	W12
	.byte		        Cs1 , v092
	.byte		N18   , En1 , v072
	.byte	W24
	.byte		N03   , Ds1 , v052
	.byte		N12   , An2 , v100
	.byte	W12
	.byte		N06   , Cs1 , v092
	.byte		N03   , Ds1 , v072
	.byte	W09
	.byte	W03
	.byte		        Ds1 , v052
	.byte		N12   , Gn2 , v100
	.byte	W12
	.byte		N06   , Cs1 , v092
	.byte		N24   , Fs1 , v060
	.byte	W24
	.byte		N03   , Ds1 , v052
	.byte		N06   , Dn2 , v127
	.byte	W12
	.byte		        Cs1 , v092
	.byte		N18   , En1 , v072
	.byte	W24
	.byte		N03   , Ds1 , v052
	.byte		N12   , An2 , v100
	.byte	W12
	.byte		N06   , Cs1 , v092
	.byte		N03   , Ds1 , v072
	.byte	W09
	.byte	W03
	.byte		        Ds1 , v060
	.byte		N12   , Gn2 , v100
	.byte	W06
	.byte		N03   , Ds1 , v040
	.byte	W06
	.byte		N06   , Cs1 , v092
	.byte		N03   , En1 , v072
	.byte	W12
	.byte		        Ds1 
	.byte	W12
	.byte		        Ds1 , v052
	.byte		N06   , Dn2 , v127
	.byte	W12
	.byte		        Cs1 , v092
	.byte		N03   , En1 , v072
	.byte	W12
	.byte		        Ds1 
	.byte	W12
	.byte		        Ds1 , v052
	.byte		N06   , Dn2 , v127
	.byte	W12
	.byte		        Cs1 , v092
	.byte		N03   , Ds1 , v072
	.byte	W09
	.byte	PATT
	 .word	seq_000_3 + 0x4C
	.byte	W03
	.byte		N03   , Ds1 , v060
	.byte		N06   , As3 , v072
	.byte	W06
	.byte		        Cs1 
	.byte		N03   , Ds1 , v040
	.byte	W06
	.byte		N06   , Cs1 , v092
	.byte		N24   , Fs1 , v060
	.byte	W24
	.byte		N03   , Ds1 , v052
	.byte		N06   , Dn2 , v127
	.byte	W12
	.byte		        Cs1 , v092
	.byte		N03   , En1 , v072
	.byte	W12
	.byte		        Ds1 
	.byte	W12
	.byte		        Ds1 , v052
	.byte		N06   , Dn2 , v127
	.byte	W12
	.byte		        Cs1 , v092
	.byte		N03   , Ds1 , v072
	.byte	W09
	.byte	PATT
	 .word	seq_000_3 + 0x4C
	.byte	PATT
	 .word	seq_000_3 + 0x77
	.byte	PATT
	 .word	seq_000_3 + 0x4C
	.byte	PATT
	 .word	seq_000_3 + 0xAC
	.byte	PATT
	 .word	seq_000_3 + 0x4C
	.byte	PATT
	 .word	seq_000_3 + 0x77
	.byte	PATT
	 .word	seq_000_3 + 0x4C
	.byte	W03
	.byte		N03   , Ds1 , v060
	.byte		N06   , As3 , v072
	.byte	W06
	.byte		N03   , Ds1 , v040
	.byte	W06
	.byte		N06   , Cs1 , v100
	.byte		N03   , Ds1 , v072
	.byte	W12
	.byte		        En1 
	.byte	W12
	.byte		        Ds1 
	.byte		N06   , Dn2 , v127
	.byte	W12
	.byte		        Cs1 , v100
	.byte		N03   , Ds1 , v052
	.byte	W12
	.byte		        Ds1 , v072
	.byte	W06
	.byte		N42   , Fn1 , v100
	.byte	W06
	.byte		N06   , Cs1 , v092
	.byte	W12
	.byte		        Cs1 , v100
	.byte		N06   , Cn4 
	.byte	W09
	.byte	W03
	.byte		        As3 
	.byte	W12
	.byte		        Cs1 , v092
	.byte		N24   , Fs1 , v060
	.byte	W24
	.byte		N03   , Ds1 , v052
	.byte		N06   , Dn2 , v127
	.byte	W12
	.byte		        Cs1 , v092
	.byte		N03   , En1 , v072
	.byte	W12
	.byte		        Ds1 
	.byte	W12
	.byte		        Ds1 , v052
	.byte		N06   , Dn2 , v127
	.byte	W12
	.byte		        Cs1 , v092
	.byte		N03   , Ds1 , v072
	.byte	W09
	.byte	PATT
	 .word	seq_000_3 + 0x4C
	.byte	PATT
	 .word	seq_000_3 + 0x77
	.byte	W03
	.byte		N03   , Ds1 , v052
	.byte		N06   , Cn4 , v072
	.byte	W12
	.byte		        Cs1 , v092
	.byte		N03   , Ds1 , v072
	.byte	W12
	.byte		        En1 
	.byte	W12
	.byte		        Ds1 
	.byte		N06   , Dn2 , v127
	.byte	W12
	.byte		        Cs1 , v092
	.byte		N03   , Ds1 , v052
	.byte	W12
	.byte		        Ds1 , v072
	.byte	W12
	.byte		        Ds1 , v052
	.byte		N06   , Dn2 , v127
	.byte	W12
	.byte		        Cs1 , v092
	.byte		N03   , En1 , v072
	.byte		N06   , Dn2 , v127
	.byte	W06
	.byte		        Dn2 , v112
	.byte	W03
	.byte	W03
	.byte		N03   , Ds1 , v060
	.byte		N06   , Dn2 , v100
	.byte	W06
	.byte		N03   , Ds1 , v040
	.byte		N06   , Dn2 , v127
	.byte	W06
	.byte	GOTO
	 .word	seq_000_3 + 0x2A
	.byte	FINE

@*********************** Track 05 ***********************@

seq_000_4:
	.byte	KEYSH , seq_000_key+0
	.byte		VOICE , 17
	.byte	W01
	.byte		VOL   , 94*seq_000_mvl/mxv
	.byte	W01
	.byte		PAN   , c_v+0
	.byte	W01
	.byte		BEND  , c_v+0
	.byte	W92
	.byte	W01
	.byte	W15
	.byte		VOICE , 17
	.byte		VOL   , 103*seq_000_mvl/mxv
	.byte		PAN   , c_v+0
	.byte		N24   , Gn3 , v100
	.byte	W24
	.byte		N48   , Gn3 , v032
	.byte	W56
	.byte	W01
	.byte	W96
	.byte	W96
	.byte	W96
	.byte	W15
	.byte		N24   , Gn3 , v100
	.byte	W24
	.byte		N48   , Gn3 , v032
	.byte	W56
	.byte	W01
	.byte	W96
	.byte	W96
	.byte	W96
	.byte	W15
	.byte		VOICE , 27
	.byte		N24   , Fs2 , v092
	.byte	W24
	.byte		N06   , An2 
	.byte	W12
	.byte		        Cn3 
	.byte	W12
	.byte		N24   , Fs3 
	.byte	W24
	.byte		N06   , Cn3 
	.byte	W09
	.byte	W03
	.byte		        An2 
	.byte	W12
	.byte		N24   , Fs2 
	.byte	W24
	.byte		N06   , An2 
	.byte	W12
	.byte		        Cn3 
	.byte	W12
	.byte		N36   , Ds2 
	.byte	W32
	.byte	W01
	.byte	W03
	.byte		N12   , Ds2 , v052
	.byte	W12
	.byte		N24   , Fs2 , v092
	.byte	W24
	.byte		N06   , An2 
	.byte	W12
	.byte		        Cn3 
	.byte	W12
	.byte		N18   , Fs3 
	.byte	W24
	.byte		N06   , Cn3 
	.byte	W09
	.byte	W03
	.byte		        An2 
	.byte	W12
	.byte		N24   , Fs2 
	.byte	W24
	.byte		N06   , An2 
	.byte	W12
	.byte		        Cn3 
	.byte	W12
	.byte		N36   , Ds3 
	.byte	W32
	.byte	W01
	.byte	W03
	.byte		N12   , Ds3 , v052
	.byte	W92
	.byte	W01
	.byte	W96
	.byte	W96
	.byte	W96
	.byte	W96
	.byte	W96
	.byte	W96
	.byte	W96
	.byte	W15
	.byte		VOICE , 21
	.byte		VOL   , 85*seq_000_mvl/mxv
	.byte		PAN   , c_v+63
	.byte		N24   , Gn2 , v060
	.byte	W44
	.byte	W03
	.byte		PAN   , c_v-64
	.byte	W01
	.byte		N24   , En2 
	.byte	W32
	.byte	W01
	.byte	W14
	.byte		PAN   , c_v+63
	.byte	W01
	.byte		N24   , Cs2 
	.byte	W44
	.byte	W03
	.byte		PAN   , c_v-64
	.byte	W01
	.byte		N24   , An2 
	.byte	W32
	.byte	W01
	.byte	W14
	.byte		PAN   , c_v+63
	.byte	W01
	.byte		N24   , Fs2 
	.byte	W44
	.byte	W03
	.byte		PAN   , c_v-64
	.byte	W13
	.byte		N12   , An2 
	.byte	W21
	.byte	W03
	.byte		        Bn2 
	.byte	W11
	.byte		PAN   , c_v+63
	.byte	W01
	.byte		N72   , Gs2 
	.byte	W80
	.byte	W01
	.byte	W96
	.byte	W96
	.byte	W96
	.byte	W96
	.byte	W96
	.byte	W15
	.byte	GOTO
	 .word	seq_000_4 + 0x10
	.byte	FINE

@*********************** Track 06 ***********************@

seq_000_5:
	.byte	KEYSH , seq_000_key+0
	.byte		VOICE , 22
	.byte	W01
	.byte		VOL   , 103*seq_000_mvl/mxv
	.byte	W01
	.byte		PAN   , c_v+0
	.byte	W01
	.byte		BEND  , c_v+0
	.byte	W92
	.byte	W01
	.byte	W15
	.byte		VOL   , 103*seq_000_mvl/mxv
	.byte	W80
	.byte	W01
	.byte	W96
	.byte	W15
	.byte		N12   , An3 , v080
	.byte	W12
	.byte		N06   , Bn3 
	.byte	W12
	.byte		        Cs4 
	.byte	W12
	.byte		N54   , Fs3 
	.byte	W44
	.byte	W01
	.byte	PEND
	.byte	W15
	.byte		N12   , Gs3 
	.byte	W12
	.byte		N06   , An3 
	.byte	W12
	.byte		        Bn3 
	.byte	W12
	.byte		N54   , En3 
	.byte	W44
	.byte	W01
	.byte	W96
	.byte	W96
	.byte	PATT
	 .word	seq_000_5 + 0x15
	.byte	W15
	.byte		N12   , Gs3 , v080
	.byte	W18
	.byte		        An3 
	.byte	W18
	.byte		        Bn3 
	.byte	W12
	.byte		N42   , En3 
	.byte	W32
	.byte	W01
	.byte	W96
	.byte	W96
	.byte	W96
	.byte	W96
	.byte	W96
	.byte	W96
	.byte	W96
	.byte	W96
	.byte	W15
	.byte		VOL   , 108*seq_000_mvl/mxv
	.byte		N24   , An2 , v112
	.byte	W36
	.byte		N12   , Fs2 
	.byte	W12
	.byte		N24   , Bn2 
	.byte	W32
	.byte	W01
	.byte	W03
	.byte		N12   , Gs2 
	.byte	W12
	.byte		N24   , Cs3 
	.byte	W36
	.byte		N12   , An2 
	.byte	W12
	.byte		N24   , Dn3 
	.byte	W32
	.byte	W01
	.byte	W03
	.byte		N12   , Bn2 
	.byte	W12
	.byte		        An2 
	.byte	W12
	.byte		        En2 
	.byte	W12
	.byte		        Fs2 
	.byte	W12
	.byte		N60   , Cs3 
	.byte	W44
	.byte	W01
	.byte	W15
	.byte		VOL   , 43*seq_000_mvl/mxv
	.byte		N96   , En2 
	.byte	W06
	.byte		VOL   , 48*seq_000_mvl/mxv
	.byte	W06
	.byte		        52*seq_000_mvl/mxv
	.byte	W06
	.byte		        58*seq_000_mvl/mxv
	.byte	W06
	.byte		        63*seq_000_mvl/mxv
	.byte	W06
	.byte		        68*seq_000_mvl/mxv
	.byte	W06
	.byte		        73*seq_000_mvl/mxv
	.byte	W06
	.byte		        79*seq_000_mvl/mxv
	.byte	W06
	.byte		        84*seq_000_mvl/mxv
	.byte	W06
	.byte		        88*seq_000_mvl/mxv
	.byte	W06
	.byte		        94*seq_000_mvl/mxv
	.byte	W06
	.byte		        99*seq_000_mvl/mxv
	.byte	W06
	.byte		        104*seq_000_mvl/mxv
	.byte	W06
	.byte		        109*seq_000_mvl/mxv
	.byte	W03
	.byte	W03
	.byte		        115*seq_000_mvl/mxv
	.byte	W06
	.byte		        120*seq_000_mvl/mxv
	.byte	W84
	.byte	W03
	.byte	W96
	.byte	W96
	.byte	W96
	.byte	W96
	.byte	W96
	.byte	W96
	.byte	W96
	.byte	W96
	.byte	W15
	.byte	GOTO
	 .word	seq_000_5 + 0x10
	.byte	FINE

@*********************** Track 07 ***********************@

seq_000_6:
	.byte	KEYSH , seq_000_key+0
	.byte		VOICE , 44
	.byte	W01
	.byte		VOL   , 103*seq_000_mvl/mxv
	.byte	W01
	.byte		PAN   , c_v+0
	.byte	W01
	.byte		BEND  , c_v+0
	.byte	W12
	.byte		N06   , En4 , v112
	.byte	W12
	.byte		        As3 
	.byte	W12
	.byte		        Ds4 
	.byte	W12
	.byte		        An3 
	.byte	W12
	.byte		        Dn4 
	.byte	W12
	.byte		        Gs3 
	.byte	W12
	.byte		        Cs4 
	.byte	W09
	.byte	W03
	.byte		        Gn3 
	.byte	W12
	.byte	W80
	.byte	W01
	.byte	W96
	.byte	W96
	.byte	W96
	.byte	W96
	.byte	W96
	.byte	W96
	.byte	W96
	.byte	W96
	.byte	W96
	.byte	W96
	.byte	W96
	.byte	W15
	.byte		PAN   , c_v+0
	.byte		N36   , Dn4 , v100
	.byte	W36
	.byte		N54   , Ds4 
	.byte	W44
	.byte	W01
	.byte	W15
	.byte		N36
	.byte	W36
	.byte		N60   , En4 
	.byte	W44
	.byte	W01
	.byte	W24
	.byte	W03
	.byte		N06   , Bn4 
	.byte	W12
	.byte		        Fn4 
	.byte	W12
	.byte		        As4 
	.byte	W12
	.byte		        En4 
	.byte	W12
	.byte		        An4 
	.byte	W12
	.byte		        Ds4 
	.byte	W09
	.byte	W03
	.byte		        Gs4 
	.byte	W12
	.byte		        Dn4 
	.byte	W12
	.byte		        Gn4 
	.byte	W12
	.byte		        Cs4 
	.byte	W12
	.byte		        Fs4 
	.byte	W12
	.byte		        Cn4 
	.byte	W12
	.byte		        Fn4 
	.byte	W12
	.byte		        Bn3 
	.byte	W09
	.byte	W96
	.byte	W96
	.byte	W96
	.byte	W96
	.byte	W96
	.byte	W96
	.byte	W96
	.byte	W96
	.byte	W15
	.byte		        En4 , v112
	.byte	W12
	.byte		        As3 
	.byte	W12
	.byte		        Ds4 
	.byte	W12
	.byte		        An3 
	.byte	W12
	.byte		        Dn4 
	.byte	W12
	.byte		        Gs3 
	.byte	W12
	.byte		        Cs4 
	.byte	W09
	.byte	W03
	.byte		        Gn3 
	.byte	W60
	.byte		VOL   , 8*seq_000_mvl/mxv
	.byte		PAN   , c_v-60
	.byte		TIE   , Cn4 , v120
	.byte	W06
	.byte		VOL   , 13*seq_000_mvl/mxv
	.byte		PAN   , c_v-52
	.byte	W06
	.byte		VOL   , 18*seq_000_mvl/mxv
	.byte		PAN   , c_v-43
	.byte	W06
	.byte		VOL   , 24*seq_000_mvl/mxv
	.byte		PAN   , c_v-34
	.byte	W06
	.byte		VOL   , 30*seq_000_mvl/mxv
	.byte		PAN   , c_v-25
	.byte	W06
	.byte		VOL   , 35*seq_000_mvl/mxv
	.byte		PAN   , c_v-17
	.byte	W03
	.byte	W03
	.byte		VOL   , 41*seq_000_mvl/mxv
	.byte		PAN   , c_v-8
	.byte	W06
	.byte		VOL   , 47*seq_000_mvl/mxv
	.byte		PAN   , c_v+1
	.byte	W06
	.byte		VOL   , 52*seq_000_mvl/mxv
	.byte		PAN   , c_v+10
	.byte	W06
	.byte		VOL   , 58*seq_000_mvl/mxv
	.byte		PAN   , c_v+19
	.byte	W06
	.byte		VOL   , 64*seq_000_mvl/mxv
	.byte		PAN   , c_v+27
	.byte	W06
	.byte		VOL   , 68*seq_000_mvl/mxv
	.byte		PAN   , c_v+36
	.byte	W06
	.byte		VOL   , 74*seq_000_mvl/mxv
	.byte		PAN   , c_v+45
	.byte	W06
	.byte		VOL   , 80*seq_000_mvl/mxv
	.byte		PAN   , c_v+54
	.byte	W06
	.byte		VOL   , 85*seq_000_mvl/mxv
	.byte		PAN   , c_v+53
	.byte	W06
	.byte		VOL   , 91*seq_000_mvl/mxv
	.byte		PAN   , c_v+42
	.byte	W06
	.byte		VOL   , 97*seq_000_mvl/mxv
	.byte		PAN   , c_v+31
	.byte	W06
	.byte		VOL   , 102*seq_000_mvl/mxv
	.byte		PAN   , c_v+20
	.byte	W06
	.byte		VOL   , 108*seq_000_mvl/mxv
	.byte		PAN   , c_v+8
	.byte	W06
	.byte		VOL   , 114*seq_000_mvl/mxv
	.byte		PAN   , c_v-3
	.byte	W06
	.byte		        c_v-14
	.byte	W06
	.byte		        c_v-26
	.byte	W03
	.byte	PEND
	.byte	W03
	.byte		PAN   , c_v-37
	.byte	W06
	.byte		        c_v-48
	.byte	W06
	.byte	PEND
	.byte		EOT   , Cn4 
	.byte	W48
	.byte		VOL   , 8*seq_000_mvl/mxv
	.byte		PAN   , c_v-60
	.byte		TIE   , Bn3 , v120
	.byte	W06
	.byte		VOL   , 13*seq_000_mvl/mxv
	.byte		PAN   , c_v-52
	.byte	W06
	.byte		VOL   , 18*seq_000_mvl/mxv
	.byte		PAN   , c_v-43
	.byte	W06
	.byte		VOL   , 24*seq_000_mvl/mxv
	.byte		PAN   , c_v-34
	.byte	W06
	.byte		VOL   , 30*seq_000_mvl/mxv
	.byte		PAN   , c_v-25
	.byte	W06
	.byte		VOL   , 35*seq_000_mvl/mxv
	.byte		PAN   , c_v-17
	.byte	W03
	.byte	PATT
	 .word	seq_000_6 + 0x9C
	.byte	PATT
	 .word	seq_000_6 + 0xE8
	.byte		EOT   , Bn3 
	.byte	GOTO
	 .word	seq_000_6 + 0x21
	.byte	FINE

@******************************************************@

	.align	2

seq_000:
	.byte	7	@ NumTrks
	.byte	0	@ NumBlks
	.byte	seq_000_pri	@ Priority
	.byte	seq_000_rev	@ Reverb

	.word	seq_000_grp

	.word	seq_000_0
	.word	seq_000_1
	.word	seq_000_2
	.word	seq_000_3
	.word	seq_000_4
	.word	seq_000_5
	.word	seq_000_6

	.end
