@ File generated by m4a2s Song-Module
	.include "MPlayDef.s"

	.equ	seq_000_grp, bank_000
	.equ	seq_000_pri, 0
	.equ	seq_000_rev, 168
	.equ	seq_000_mvl, 127
	.equ	seq_000_key, 0

	.section .rodata
	.global	seq_000
	.align	2

@*********************** Track 01 ***********************@

seq_000_0:
	.byte	KEYSH , seq_000_key+0
	.byte	TEMPO , 150/2
	.byte		VOICE , 0
	.byte	W03
	.byte		VOL   , 75*seq_000_mvl/mxv
	.byte	W03
	.byte		BENDR , 12
	.byte	W03
	.byte		PAN   , c_v+0
	.byte	W03
	.byte		N02   , Fs1 , v040
	.byte	W06
	.byte		N02
	.byte	W06
	.byte		        Fs1 , v072
	.byte	W06
	.byte		        Fs1 , v040
	.byte	W06
	.byte		N02
	.byte	W06
	.byte		N02
	.byte	W06
	.byte		        Fs1 , v072
	.byte	W06
	.byte		        Fs1 , v040
	.byte	W06
	.byte		N02
	.byte	W06
	.byte		N02
	.byte	W06
	.byte		        Fs1 , v072
	.byte	W06
	.byte		        Fs1 , v040
	.byte	W06
	.byte		N02
	.byte	W06
	.byte		N02
	.byte	W06
	.byte		N02   , Fs1 , v072
	.byte	W06
	.byte		        Fs1 , v040
	.byte	W06
	.byte		N02
	.byte	W06
	.byte		N02
	.byte	W06
	.byte		        Fs1 , v072
	.byte	W06
	.byte		        Fs1 , v040
	.byte	W06
	.byte		N02
	.byte	W06
	.byte		N02
	.byte	W06
	.byte		        Fs1 , v072
	.byte	W06
	.byte		        Fs1 , v040
	.byte	W06
	.byte		N02
	.byte	W06
	.byte		N02
	.byte	W06
	.byte		        Fs1 , v072
	.byte	W06
	.byte		        Fs1 , v040
	.byte	W06
	.byte		N02
	.byte	W06
	.byte		N02
	.byte	W06
	.byte	PEND
	.byte	PATT
	 .word	seq_000_0 + 0x34
	.byte		N02   , Fs1 , v072
	.byte	W06
	.byte		        Fs1 , v040
	.byte	W06
	.byte		N02
	.byte	W06
	.byte		N02
	.byte	W06
	.byte		        Fs1 , v072
	.byte	W06
	.byte		        Fs1 , v040
	.byte	W06
	.byte		N02
	.byte	W06
	.byte		N02
	.byte	W06
	.byte		        Fs1 , v072
	.byte	W06
	.byte		        Fs1 , v040
	.byte	W06
	.byte		N02
	.byte		N05   , Fs3 , v080
	.byte	W06
	.byte		N02   , Fs1 , v040
	.byte		N05   , Fs3 
	.byte	W06
	.byte		N02   , Fs1 , v072
	.byte		N05   , Fs3 , v060
	.byte	W06
	.byte		N02   , Fs1 , v040
	.byte		N05   , Fs3 , v080
	.byte	W06
	.byte		N23   , Gs1 , v072
	.byte		N05   , Fs3 , v100
	.byte	W06
	.byte		        Fs3 , v080
	.byte	W06
	.byte		        Fs3 , v100
	.byte	W06
	.byte		        Fs3 , v120
	.byte	W06
	.byte		N10   , Cs1 , v052
	.byte		N23   , Cs2 , v072
	.byte	W18
	.byte		N05   , Cs1 , v020
	.byte	W06
	.byte		N10   , En1 , v080
	.byte		N02   , Fs1 , v040
	.byte	W06
	.byte		N02
	.byte	W06
	.byte		N10   , Cs1 
	.byte		N02   , Fs1 , v072
	.byte	W06
	.byte		        Fs1 , v040
	.byte	W06
	.byte		N02
	.byte	W06
	.byte		N02
	.byte		N05   , Bn2 , v032
	.byte	W06
	.byte		N10   , En1 , v080
	.byte		N02   , Fs1 , v072
	.byte	W06
	.byte		        Fs1 , v040
	.byte	W06
	.byte		N10   , Cs1 , v052
	.byte		N02   , Fs1 , v040
	.byte	W06
	.byte		N02
	.byte	W06
	.byte		N10   , Cs1 , v020
	.byte		N02   , Fs1 , v072
	.byte	W06
	.byte		        Fs1 , v040
	.byte	W06
	.byte		N10   , Cs1 , v052
	.byte		N02   , Fs1 , v040
	.byte	W06
	.byte		N02
	.byte	W06
	.byte		        Fs1 , v072
	.byte	W06
	.byte		N05   , Cs1 , v020
	.byte		N02   , Fs1 , v040
	.byte	W06
	.byte		N10   , En1 , v080
	.byte		N02   , Fs1 , v040
	.byte	W06
	.byte		N02
	.byte	W06
	.byte		N10   , Cs1 
	.byte		N02   , Fs1 , v072
	.byte	W06
	.byte		        Fs1 , v040
	.byte	W06
	.byte		N02
	.byte	W06
	.byte		N02
	.byte		N05   , Bn2 , v032
	.byte	W06
	.byte		N10   , En1 , v080
	.byte		N02   , Fs1 , v072
	.byte	W06
	.byte		        Fs1 , v040
	.byte	W06
	.byte		N05   , Cs1 
	.byte		N02   , Fs1 
	.byte	W06
	.byte		N05   , En1 , v060
	.byte		N02   , Fs1 , v040
	.byte	W06
	.byte	PEND
	.byte		N05   , En1 , v080
	.byte		N07   , As1 , v060
	.byte	W06
	.byte		N05   , Cs1 , v020
	.byte	W06
	.byte		N10   , Cs1 , v052
	.byte		N02   , Fs1 , v040
	.byte	W06
	.byte		N02
	.byte	W06
	.byte		        Fs1 , v072
	.byte	W06
	.byte		N05   , Cs1 , v020
	.byte		N02   , Fs1 , v040
	.byte	W06
	.byte		N10   , En1 , v080
	.byte		N02   , Fs1 , v040
	.byte	W06
	.byte		N02
	.byte	W06
	.byte		N10   , Cs1 
	.byte		N02   , Fs1 , v072
	.byte	W06
	.byte		        Fs1 , v040
	.byte	W06
	.byte		N02
	.byte	W06
	.byte		N02
	.byte		N05   , Bn2 , v032
	.byte	W06
	.byte		N10   , En1 , v080
	.byte		N02   , Fs1 , v072
	.byte	W06
	.byte		        Fs1 , v040
	.byte	W06
	.byte		N10   , Cs1 , v052
	.byte		N02   , Fs1 , v040
	.byte	W06
	.byte		N02
	.byte	W06
	.byte	PEND
	.byte		N10   , Cs1 , v020
	.byte		N02   , Fs1 , v072
	.byte	W06
	.byte		        Fs1 , v040
	.byte	W06
	.byte		N10   , Cs1 , v052
	.byte		N02   , Fs1 , v040
	.byte	W06
	.byte		N02
	.byte	W06
	.byte		        Fs1 , v072
	.byte	W06
	.byte		N05   , Cs1 , v020
	.byte		N02   , Fs1 , v040
	.byte	W06
	.byte		N10   , En1 , v080
	.byte		N02   , Fs1 , v040
	.byte	W06
	.byte		N02
	.byte	W06
	.byte		N10   , Cs1 
	.byte		N02   , Fs1 , v072
	.byte	W06
	.byte		        Fs1 , v040
	.byte	W06
	.byte		N02
	.byte	W06
	.byte		N02
	.byte		N05   , Bn2 , v032
	.byte	W06
	.byte		N10   , En1 , v080
	.byte		N02   , Fs1 , v072
	.byte	W06
	.byte		        Fs1 , v040
	.byte	W06
	.byte		N05   , Cs1 , v052
	.byte		N02   , Fs1 , v040
	.byte	W06
	.byte		N05   , En1 , v052
	.byte		N02   , Fs1 , v040
	.byte	W06
	.byte		N05   , En1 , v072
	.byte		N07   , As1 , v060
	.byte	W06
	.byte		N05   , En1 , v080
	.byte	W06
	.byte		N10   , Cs1 , v052
	.byte		N23   , Cs2 , v072
	.byte	W18
	.byte		N05   , Cs1 , v020
	.byte	W06
	.byte		N10   , En1 , v080
	.byte		N02   , Fs1 , v040
	.byte	W06
	.byte		N02
	.byte	W06
	.byte		N10   , Cs1 
	.byte		N02   , Fs1 , v072
	.byte	W06
	.byte		        Fs1 , v040
	.byte	W06
	.byte		N02
	.byte	W06
	.byte		N02
	.byte		N05   , Bn2 , v032
	.byte	W06
	.byte		N10   , En1 , v080
	.byte		N02   , Fs1 , v072
	.byte	W06
	.byte		        Fs1 , v040
	.byte	W06
	.byte		N10   , Cs1 , v052
	.byte		N02   , Fs1 , v040
	.byte	W06
	.byte		N02
	.byte	W06
	.byte	PATT
	 .word	seq_000_0 + 0xDE
	.byte	PATT
	 .word	seq_000_0 + 0x12B
	.byte		N10   , Cs1 , v020
	.byte		N02   , Fs1 , v072
	.byte	W06
	.byte		        Fs1 , v040
	.byte	W06
	.byte		N10   , Cs1 , v052
	.byte		N02   , Fs1 , v072
	.byte	W06
	.byte		        Fs1 , v040
	.byte	W06
	.byte		N02
	.byte	W06
	.byte		N05   , Cs1 , v020
	.byte		N02   , Fs1 , v072
	.byte	W06
	.byte		N10   , En1 , v080
	.byte		N02   , Fs1 , v040
	.byte	W06
	.byte		N02
	.byte	W06
	.byte		N10   , Cs1 
	.byte		N02   , Fs1 , v072
	.byte	W06
	.byte		        Fs1 , v040
	.byte	W06
	.byte		        Fs1 , v072
	.byte	W06
	.byte		        Fs1 , v040
	.byte		N05   , Bn2 , v032
	.byte	W06
	.byte		        En1 , v060
	.byte	W06
	.byte		        En1 , v080
	.byte		N02   , Fs1 , v072
	.byte	W06
	.byte		N05   , Cs1 , v052
	.byte	W06
	.byte		        En1 , v060
	.byte		N02   , Fs1 , v040
	.byte	W06
	.byte		N05   , En1 , v072
	.byte		N07   , As1 , v060
	.byte	W06
	.byte		N05   , En1 , v080
	.byte	W06
	.byte		        Cs1 , v072
	.byte		N02   , Fs1 , v040
	.byte	W06
	.byte		N05   , Ds1 , v080
	.byte		N17   , Cs2 , v072
	.byte	W06
	.byte		N10   , Cs1 , v040
	.byte	W12
	.byte		N05   , Cs1 , v032
	.byte		N23   , Cs2 , v072
	.byte	W06
	.byte		N05   , Ds1 , v060
	.byte	W06
	.byte		        Ds1 , v080
	.byte	W06
	.byte		        Cs1 , v040
	.byte	W06
	.byte		N02   , Cn2 , v092
	.byte		N07   , Cs2 , v072
	.byte	W02
	.byte		N09   , Cn2 , v112
	.byte	W10
	.byte		N05   , Cs1 , v032
	.byte		N02   , Fs1 , v040
	.byte	W06
	.byte		        Fs1 , v072
	.byte		N02   , Bn1 , v092
	.byte	W02
	.byte		N12   , Bn1 , v100
	.byte	W04
	.byte		N02   , Fs1 , v040
	.byte	W06
	.byte		N02
	.byte	W06
	.byte		        Gn1 , v092
	.byte		N07   , As1 , v072
	.byte	W02
	.byte		N09   , Gn1 , v100
	.byte	W10
	.byte		N10   , Cs1 , v052
	.byte		N23   , Cs2 , v072
	.byte	W18
	.byte		N05   , Cs1 , v020
	.byte	W06
	.byte		N10   , En1 , v080
	.byte		N02   , Fs1 , v040
	.byte	W06
	.byte		N02
	.byte	W06
	.byte		N10   , Cs1 
	.byte		N02   , Fs1 , v072
	.byte	W06
	.byte		        Fs1 , v040
	.byte	W06
	.byte		N02
	.byte	W06
	.byte		N02
	.byte		N05   , Bn2 , v032
	.byte	W06
	.byte		N10   , En1 , v080
	.byte		N07   , As1 , v072
	.byte	W12
	.byte		N10   , Cs1 , v052
	.byte		N02   , Fs1 , v040
	.byte	W06
	.byte		N02
	.byte	W06
	.byte		N10   , Cs1 , v020
	.byte		N02   , Fs1 , v072
	.byte	W06
	.byte		        Fs1 , v040
	.byte	W06
	.byte		N10   , Cs1 , v052
	.byte		N02   , Fs1 , v040
	.byte	W06
	.byte		N02
	.byte	W06
	.byte		        Fs1 , v072
	.byte	W06
	.byte		N05   , Cs1 , v020
	.byte		N02   , Fs1 , v040
	.byte	W06
	.byte		N10   , En1 , v080
	.byte		N02   , Fs1 , v040
	.byte	W06
	.byte		N02
	.byte	W06
	.byte		N10   , Cs1 
	.byte		N02   , Fs1 , v072
	.byte	W06
	.byte		        Fs1 , v040
	.byte	W06
	.byte		N02
	.byte	W06
	.byte		N02
	.byte		N05   , Bn2 , v032
	.byte	W06
	.byte		N10   , En1 , v080
	.byte		N02   , As1 , v072
	.byte	W12
	.byte		N05   , Cs1 , v040
	.byte		N02   , Fs1 
	.byte	W06
	.byte		N05   , En1 , v060
	.byte		N02   , Fs1 , v040
	.byte	W06
	.byte		N05   , En1 , v080
	.byte		N02   , As1 , v072
	.byte	W06
	.byte		N05   , Cs1 , v020
	.byte		N02   , Fs1 , v040
	.byte	W06
	.byte		N10   , Cs1 , v052
	.byte		N02   , Fs1 , v040
	.byte	W06
	.byte		N02
	.byte	W06
	.byte		        Fs1 , v072
	.byte	W06
	.byte		N05   , Cs1 , v020
	.byte		N02   , Fs1 , v040
	.byte	W06
	.byte		N10   , En1 , v080
	.byte		N02   , Fs1 , v040
	.byte	W06
	.byte		N02
	.byte	W06
	.byte		N10   , Cs1 
	.byte		N02   , Fs1 , v072
	.byte	W06
	.byte		        Fs1 , v040
	.byte	W06
	.byte		N02
	.byte	W06
	.byte		N02
	.byte		N05   , Bn2 , v032
	.byte	W06
	.byte		N10   , En1 , v080
	.byte		N02   , As1 , v072
	.byte	W12
	.byte		N10   , Cs1 , v052
	.byte		N02   , Fs1 , v040
	.byte	W06
	.byte		N02
	.byte	W06
	.byte		N10   , Cs1 , v020
	.byte		N02   , Fs1 , v072
	.byte	W06
	.byte		        Fs1 , v040
	.byte	W06
	.byte		N10   , Cs1 , v052
	.byte		N02   , Fs1 , v040
	.byte	W06
	.byte		N02
	.byte	W06
	.byte		        Fs1 , v072
	.byte	W06
	.byte		N05   , Cs1 , v020
	.byte		N02   , Fs1 , v040
	.byte	W06
	.byte		N10   , En1 , v080
	.byte		N02   , Fs1 , v040
	.byte	W06
	.byte		N02
	.byte	W06
	.byte		N10   , Cs1 
	.byte		N02   , Fs1 , v072
	.byte	W06
	.byte		        Fs1 , v040
	.byte	W06
	.byte		N02
	.byte	W06
	.byte		N02
	.byte		N05   , Bn2 , v032
	.byte	W06
	.byte		N10   , En1 , v080
	.byte		N02   , As1 , v072
	.byte	W12
	.byte		N05   , Cs1 , v052
	.byte		N02   , Fs1 , v040
	.byte	W06
	.byte		N05   , En1 , v052
	.byte		N02   , Fs1 , v040
	.byte	W06
	.byte		N05   , En1 , v072
	.byte		N02   , As1 
	.byte	W06
	.byte		N05   , En1 , v080
	.byte		N02   , Fs1 , v040
	.byte	W06
	.byte		N10   , Cs1 , v052
	.byte		N23   , Cs2 , v072
	.byte	W18
	.byte		N05   , Cs1 , v020
	.byte	W06
	.byte		N10   , En1 , v080
	.byte		N02   , Fs1 , v040
	.byte	W06
	.byte		N02
	.byte	W06
	.byte		N10   , Cs1 
	.byte		N02   , Fs1 , v072
	.byte	W06
	.byte		        Fs1 , v040
	.byte	W06
	.byte		N23   , Cs2 , v072
	.byte	W06
	.byte		N05   , Bn2 , v032
	.byte	W06
	.byte		N10   , En1 , v080
	.byte	W12
	.byte		        Cs1 , v052
	.byte		N02   , Fs1 , v040
	.byte	W06
	.byte		N02
	.byte	W06
	.byte		N10   , Cs1 , v020
	.byte		N07   , As1 , v072
	.byte	W12
	.byte		N10   , Cs1 , v052
	.byte		N23   , Cs2 , v072
	.byte	W18
	.byte		N05   , Cs1 , v020
	.byte	W06
	.byte		N10   , En1 , v080
	.byte		N02   , Fs1 , v040
	.byte	W06
	.byte		N02
	.byte	W06
	.byte		N10   , Cs1 
	.byte		N02   , Fs1 , v072
	.byte	W06
	.byte		        Fs1 , v040
	.byte	W06
	.byte		N12   , As1 , v072
	.byte	W06
	.byte		N05   , Bn2 , v032
	.byte	W06
	.byte		N10   , En1 , v080
	.byte	W06
	.byte		N12   , As1 , v072
	.byte	W06
	.byte		N05   , Cs1 , v040
	.byte	W06
	.byte		        Ds1 , v060
	.byte	W06
	.byte		        Ds1 , v072
	.byte		N02   , Fs1 
	.byte	W06
	.byte		N05   , Ds1 , v080
	.byte		N02   , Fs1 , v040
	.byte	W06
	.byte		N05   , Cs1 , v072
	.byte		N02   , Fs1 , v040
	.byte	W06
	.byte		N05   , Ds1 , v080
	.byte		N17   , Cs2 , v072
	.byte	W06
	.byte		N10   , Cs1 , v040
	.byte	W12
	.byte		N05   , Ds1 , v032
	.byte		N23   , Cs2 , v072
	.byte	W06
	.byte		N05   , Ds1 , v060
	.byte	W06
	.byte		        Ds1 , v080
	.byte	W06
	.byte		        Cs1 , v040
	.byte	W06
	.byte		N02   , Cn2 , v092
	.byte		N23   , Cs2 , v072
	.byte	W02
	.byte		N09   , Cn2 , v100
	.byte	W10
	.byte		N05   , Cs1 , v032
	.byte	W06
	.byte		N02   , Bn1 , v092
	.byte	W02
	.byte		N15   , Bn1 , v100
	.byte	W04
	.byte		N02   , Fs1 , v060
	.byte	W04
	.byte		N02
	.byte	W04
	.byte		        Fs1 , v040
	.byte	W04
	.byte		        Gn1 , v092
	.byte		N07   , As1 , v072
	.byte	W02
	.byte		N09   , Gn1 , v100
	.byte	W10
	.byte		N10   , Cs1 , v052
	.byte		N23   , Cs2 , v072
	.byte	W18
	.byte		N05   , Cs1 , v012
	.byte	W06
	.byte		N10   , En1 , v080
	.byte		N02   , Fs1 , v040
	.byte	W06
	.byte		N02
	.byte	W06
	.byte		N10   , Cs1 
	.byte		N02   , Fs1 , v072
	.byte	W06
	.byte		        Fs1 , v040
	.byte	W06
	.byte		N02
	.byte	W06
	.byte		N02
	.byte		N05   , Bn2 , v032
	.byte	W06
	.byte		N10   , En1 , v080
	.byte		N07   , As1 , v072
	.byte	W12
	.byte		N10   , Cs1 , v052
	.byte		N02   , Fs1 , v040
	.byte	W06
	.byte		N02
	.byte	W06
	.byte		N10   , Cs1 , v020
	.byte		N02   , Fs1 , v072
	.byte	W06
	.byte		        Fs1 , v040
	.byte	W06
	.byte		N10   , Cs1 , v052
	.byte		N02   , Fs1 , v040
	.byte	W06
	.byte		N02
	.byte	W06
	.byte		        Fs1 , v072
	.byte	W06
	.byte		N05   , Cs1 , v012
	.byte		N02   , Fs1 , v040
	.byte	W06
	.byte		N10   , En1 , v080
	.byte		N02   , Fs1 , v040
	.byte	W06
	.byte		N02
	.byte	W06
	.byte		N10   , Cs1 
	.byte		N02   , Fs1 , v072
	.byte	W06
	.byte		        Fs1 , v040
	.byte	W06
	.byte		N02
	.byte	W06
	.byte		N02
	.byte		N05   , Bn2 , v032
	.byte	W06
	.byte		N10   , En1 , v080
	.byte		N02   , As1 , v072
	.byte	W12
	.byte		N05   , Cs1 , v040
	.byte		N02   , Fs1 
	.byte	W06
	.byte		N05   , En1 , v060
	.byte		N02   , Fs1 , v040
	.byte	W06
	.byte		N05   , En1 , v080
	.byte		N02   , As1 , v072
	.byte	W06
	.byte		N05   , Cs1 , v020
	.byte		N02   , Fs1 , v040
	.byte	W06
	.byte		N10   , Cs1 , v052
	.byte		N02   , Fs1 , v040
	.byte	W06
	.byte		N02
	.byte	W06
	.byte		        Fs1 , v072
	.byte	W06
	.byte		N05   , Cs1 , v012
	.byte		N02   , Fs1 , v040
	.byte	W06
	.byte		N10   , En1 , v080
	.byte		N02   , Fs1 , v040
	.byte	W06
	.byte		N02
	.byte	W06
	.byte		N10   , Cs1 
	.byte		N02   , Fs1 , v072
	.byte	W06
	.byte		        Fs1 , v040
	.byte	W06
	.byte		N02
	.byte	W06
	.byte		N02
	.byte		N05   , Bn2 , v032
	.byte	W06
	.byte		N10   , En1 , v080
	.byte		N02   , As1 , v072
	.byte	W12
	.byte		N10   , Cs1 , v052
	.byte		N02   , Fs1 , v040
	.byte	W06
	.byte		N02
	.byte	W06
	.byte		N10   , Cs1 , v020
	.byte		N02   , Fs1 , v072
	.byte	W06
	.byte		        Fs1 , v040
	.byte	W06
	.byte		N10   , Cs1 , v052
	.byte		N02   , Fs1 , v040
	.byte	W06
	.byte		N02
	.byte	W06
	.byte		        Fs1 , v072
	.byte	W06
	.byte		N05   , Cs1 , v012
	.byte		N02   , Fs1 , v040
	.byte	W06
	.byte		N10   , En1 , v080
	.byte		N02   , Fs1 , v040
	.byte	W06
	.byte		N02
	.byte	W06
	.byte		N10   , Cs1 
	.byte		N02   , Fs1 , v072
	.byte	W06
	.byte		        Fs1 , v040
	.byte	W06
	.byte		N02
	.byte	W06
	.byte		N02
	.byte		N05   , Bn2 , v032
	.byte	W06
	.byte		        En1 , v080
	.byte		N02   , As1 , v072
	.byte	W06
	.byte		N05   , En1 , v080
	.byte	W06
	.byte		        En1 , v032
	.byte		N22   , Gs1 , v072
	.byte	W06
	.byte		N05   , En1 , v052
	.byte	W06
	.byte		        En1 , v072
	.byte	W06
	.byte		        En1 , v080
	.byte	W06
	.byte		N10   , Dn1 
	.byte		N23   , Cs2 , v072
	.byte	W18
	.byte		N05   , Cn1 , v040
	.byte	W06
	.byte		N02   , Fs1 , v072
	.byte		N10   , Bn2 , v100
	.byte	W06
	.byte		N02   , Fs1 , v040
	.byte	W06
	.byte		N10   , Dn1 , v060
	.byte		N02   , Fs1 , v040
	.byte	W06
	.byte		N07   , As1 , v072
	.byte	W12
	.byte		N02   , Fs1 , v040
	.byte		N05   , Bn2 , v052
	.byte	W06
	.byte		N02   , Fs1 , v060
	.byte		N10   , Bn2 , v100
	.byte	W04
	.byte		N02   , Fs1 , v060
	.byte	W04
	.byte		        Fs1 , v040
	.byte	W04
	.byte		N05   , Dn1 , v072
	.byte		N02   , Fs1 , v040
	.byte	W06
	.byte		N02
	.byte		N05   , Bn2 , v052
	.byte	W06
	.byte		N02   , Fs1 , v072
	.byte		N05   , Bn2 , v100
	.byte	W06
	.byte		        Dn1 , v072
	.byte		N24   , Cs2 
	.byte	W06
	.byte		N10   , Dn1 
	.byte	W18
	.byte		N05   , Dn1 , v032
	.byte	W06
	.byte		N02   , Fs1 , v072
	.byte		N05   , Bn2 , v052
	.byte	W06
	.byte		N02   , Fs1 , v040
	.byte		N05   , Bn2 , v072
	.byte	W06
	.byte		N02   , Fs1 , v040
	.byte		N05   , Bn2 , v100
	.byte	W06
	.byte		        Dn1 , v060
	.byte		N23   , Cs2 , v072
	.byte	W18
	.byte		N10   , Bn2 , v100
	.byte	W06
	.byte		N17   , Cs2 , v072
	.byte	W06
	.byte		N05   , Dn1 , v060
	.byte	W06
	.byte		        Bn2 , v100
	.byte	W06
	.byte		N02   , Fs1 , v072
	.byte		N08   , Bn2 , v120
	.byte	W06
	.byte		N02   , Fs1 , v040
	.byte	W06
	.byte		N10   , Dn1 , v080
	.byte		N23   , Cs2 , v072
	.byte	W18
	.byte		N05   , Cn1 , v040
	.byte	W06
	.byte		N02   , Fs1 , v072
	.byte		N10   , Bn2 , v100
	.byte	W06
	.byte		N02   , Fs1 , v040
	.byte	W06
	.byte		N10   , Dn1 , v060
	.byte		N02   , Fs1 , v040
	.byte	W06
	.byte		N07   , As1 , v072
	.byte	W12
	.byte		N02   , Fs1 , v040
	.byte		N05   , Bn2 , v052
	.byte	W06
	.byte		N02   , Fs1 , v060
	.byte		N10   , Bn2 , v100
	.byte	W04
	.byte		N02   , Fs1 , v060
	.byte	W04
	.byte		        Fs1 , v040
	.byte	W04
	.byte		N05   , Dn1 , v072
	.byte		N02   , Fs1 , v040
	.byte	W06
	.byte		N02
	.byte		N05   , Bn2 , v052
	.byte	W06
	.byte		N02   , Fs1 , v072
	.byte		N05   , Bn2 , v100
	.byte	W06
	.byte		        Dn1 , v072
	.byte		N24   , Cs2 
	.byte	W06
	.byte		N10   , Dn1 
	.byte	W18
	.byte		N05   , Dn1 , v032
	.byte	W06
	.byte		N02   , Fs1 , v072
	.byte		N05   , Bn2 , v052
	.byte	W06
	.byte		N02   , Fs1 , v040
	.byte		N05   , Bn2 , v072
	.byte	W06
	.byte		N02   , Fs1 , v040
	.byte		N05   , Bn2 , v100
	.byte	W06
	.byte		N10   , Dn1 , v060
	.byte		N23   , Cs2 , v072
	.byte	W06
	.byte		N05   , Fs3 , v112
	.byte	W06
	.byte		        Fs3 , v072
	.byte	W06
	.byte		        Fs3 , v080
	.byte	W06
	.byte		N28   , Gs1 , v072
	.byte		N05   , Fs3 , v092
	.byte	W06
	.byte		        Fs3 , v112
	.byte	W06
	.byte		        Fs3 , v072
	.byte	W06
	.byte		        Fs3 , v100
	.byte	W06
	.byte		        Fs3 , v120
	.byte	W06
	.byte		N02   , Fs1 , v060
	.byte	W04
	.byte		N02
	.byte	W04
	.byte		        Fs1 , v040
	.byte	W04
	.byte		N07   , As1 , v072
	.byte	W12
	.byte	GOTO
	 .word	seq_000_0 + 0xA7
	.byte	FINE

@*********************** Track 02 ***********************@

seq_000_1:
	.byte	KEYSH , seq_000_key+0
	.byte		VOL   , 90*seq_000_mvl/mxv
	.byte	W02
	.byte		PAN   , c_v+0
	.byte	W03
	.byte		BENDR , 12
	.byte	W03
	.byte		MODT  , mod_vib
	.byte	W02
	.byte		VOICE , 5
	.byte	W02
	.byte		TIE   , Dn2 , v040
	.byte	W84
	.byte	W12
	.byte		        Gn2 
	.byte	W84
	.byte	W11
	.byte		EOT   , Dn2 
	.byte	W01
	.byte		TIE   , Cn3 
	.byte	W84
	.byte	W11
	.byte		EOT   , Gn2 
	.byte	W01
	.byte		N44   , Fn3 
	.byte	W48
	.byte		        As3 
	.byte	W36
	.byte	W11
	.byte		EOT   , Cn3 
	.byte	W01
	.byte		VOICE , 22
	.byte		PAN   , c_v+0
	.byte		N11   , Gn3 , v072
	.byte	W12
	.byte		N05   , Gn3 , v032
	.byte	W06
	.byte		PAN   , c_v+43
	.byte		N11   , Gn3 , v072
	.byte	W12
	.byte		N05   , Gn3 , v032
	.byte	W06
	.byte		PAN   , c_v-34
	.byte		N11   , Gn3 , v072
	.byte	W12
	.byte		N05   , Gn3 , v032
	.byte	W06
	.byte		PAN   , c_v+0
	.byte		N17   , Gn3 , v052
	.byte	W18
	.byte		        Gn3 , v020
	.byte	W12
	.byte	W06
	.byte		N05   , Gn3 , v012
	.byte	W06
	.byte		PAN   , c_v+0
	.byte		N11   , Fn3 , v072
	.byte	W12
	.byte		N05   , Fn3 , v032
	.byte	W06
	.byte		PAN   , c_v+43
	.byte		N11   , Fn3 , v072
	.byte	W12
	.byte		N05   , Fn3 , v032
	.byte	W06
	.byte		PAN   , c_v-34
	.byte		N11   , Fn3 , v072
	.byte	W12
	.byte		N05   , Fn3 , v032
	.byte	W06
	.byte		PAN   , c_v+0
	.byte		N17   , Fn3 , v052
	.byte	W18
	.byte		        Fn3 , v020
	.byte	W12
	.byte	PEND
	.byte	W06
	.byte		N05   , Fn3 , v012
	.byte	W06
	.byte		PAN   , c_v+0
	.byte		N11   , Gn3 , v072
	.byte	W12
	.byte		N05   , Gn3 , v032
	.byte	W06
	.byte		PAN   , c_v+43
	.byte		N11   , Gn3 , v072
	.byte	W12
	.byte		N05   , Gn3 , v032
	.byte	W06
	.byte		PAN   , c_v-34
	.byte		N11   , Gn3 , v072
	.byte	W12
	.byte		N05   , Gn3 , v032
	.byte	W06
	.byte		PAN   , c_v+0
	.byte		N17   , Gn3 , v052
	.byte	W18
	.byte		        Gn3 , v020
	.byte	W12
	.byte	PEND
	.byte	PATT
	 .word	seq_000_1 + 0x55
	.byte	PATT
	 .word	seq_000_1 + 0x82
	.byte	PATT
	 .word	seq_000_1 + 0x55
	.byte	PATT
	 .word	seq_000_1 + 0x82
	.byte	W06
	.byte		N05   , Gn3 , v012
	.byte	W06
	.byte		PAN   , c_v+0
	.byte		N11   , Gn3 , v072
	.byte	W12
	.byte		N05   , Gn3 , v032
	.byte	W06
	.byte		PAN   , c_v+43
	.byte		N11   , Fn3 , v072
	.byte	W12
	.byte		N05   , Fn3 , v032
	.byte	W06
	.byte		PAN   , c_v-34
	.byte		N11   , Gs3 , v080
	.byte	W12
	.byte		PAN   , c_v+0
	.byte		N11   , Gn3 , v072
	.byte	W12
	.byte		N05   , Gn3 , v032
	.byte	W06
	.byte		N11   , Gs3 , v072
	.byte	W12
	.byte		N05   , Gs3 , v032
	.byte	W06
	.byte		N11   , As3 , v072
	.byte	W12
	.byte		N05   , As3 , v020
	.byte	W06
	.byte		VOICE , 22
	.byte		VOL   , 90*seq_000_mvl/mxv
	.byte		PAN   , c_v-34
	.byte		N11   , Cs3 , v080
	.byte	W12
	.byte		N05   , Cs3 , v032
	.byte	W06
	.byte		PAN   , c_v+43
	.byte		N11   , Cs3 , v080
	.byte	W12
	.byte		        Cs3 , v032
	.byte	W12
	.byte		        Cs3 , v020
	.byte	W12
	.byte		VOICE , 53
	.byte		PAN   , c_v-34
	.byte		BEND  , c_v+0
	.byte		N32   , Cn3 , v060
	.byte	W04
	.byte		BEND  , c_v+5
	.byte	W04
	.byte		        c_v+10
	.byte	W04
	.byte		PAN   , c_v+0
	.byte		BEND  , c_v+15
	.byte	W04
	.byte		        c_v+20
	.byte	W04
	.byte		        c_v+25
	.byte	W04
	.byte		PAN   , c_v+23
	.byte		BEND  , c_v+31
	.byte	W04
	.byte		        c_v+36
	.byte	W04
	.byte		        c_v+41
	.byte	W04
	.byte		VOICE , 28
	.byte		PAN   , c_v-40
	.byte		BEND  , c_v+0
	.byte		N92   , As2 
	.byte	W24
	.byte		PAN   , c_v-20
	.byte	W24
	.byte		        c_v+0
	.byte	W24
	.byte		        c_v+20
	.byte	W12
	.byte	W12
	.byte		VOICE , 23
	.byte		PAN   , c_v+40
	.byte		N92   , Gn2 , v072
	.byte	W24
	.byte		PAN   , c_v+20
	.byte	W24
	.byte		        c_v+0
	.byte	W24
	.byte		        c_v-20
	.byte	W12
	.byte	W12
	.byte		        c_v-40
	.byte		N92   , Fn2 , v080
	.byte	W24
	.byte		PAN   , c_v-20
	.byte	W24
	.byte		        c_v+0
	.byte	W24
	.byte		        c_v+20
	.byte	W12
	.byte	W12
	.byte		        c_v+40
	.byte		N92   , Gn2 
	.byte	W24
	.byte		PAN   , c_v+20
	.byte	W24
	.byte		        c_v+0
	.byte	W24
	.byte		        c_v-20
	.byte	W12
	.byte	W12
	.byte		VOICE , 19
	.byte		PAN   , c_v-24
	.byte		N17   , As3 , v092
	.byte	W18
	.byte		PAN   , c_v+33
	.byte		N17
	.byte	W18
	.byte		PAN   , c_v+0
	.byte		N11
	.byte	W12
	.byte		PAN   , c_v+33
	.byte		N17   , Cn4 
	.byte	W18
	.byte		PAN   , c_v-24
	.byte		N17
	.byte	W18
	.byte		PAN   , c_v+0
	.byte		N11
	.byte	W12
	.byte		PAN   , c_v-24
	.byte		N17   , Cs4 
	.byte	W18
	.byte		PAN   , c_v+33
	.byte		N17
	.byte	W18
	.byte		PAN   , c_v+0
	.byte		N11
	.byte	W12
	.byte		VOICE , 52
	.byte		VOL   , 30*seq_000_mvl/mxv
	.byte		N44   , As3 , v120
	.byte	W12
	.byte		VOL   , 45*seq_000_mvl/mxv
	.byte	W12
	.byte		        60*seq_000_mvl/mxv
	.byte	W12
	.byte		        75*seq_000_mvl/mxv
	.byte	W12
	.byte		N05
	.byte	W06
	.byte		VOICE , 22
	.byte		VOL   , 90*seq_000_mvl/mxv
	.byte		PAN   , c_v-34
	.byte		N11   , Dn3 , v080
	.byte	W12
	.byte		N05   , Dn3 , v032
	.byte	W06
	.byte		PAN   , c_v+43
	.byte		N11   , Dn3 , v080
	.byte	W12
	.byte		        Dn3 , v032
	.byte	W12
	.byte		        Dn3 , v020
	.byte	W12
	.byte		VOICE , 53
	.byte		PAN   , c_v-34
	.byte		BEND  , c_v+0
	.byte		N32   , Cn3 , v060
	.byte	W04
	.byte		BEND  , c_v+5
	.byte	W04
	.byte		        c_v+10
	.byte	W04
	.byte		PAN   , c_v+0
	.byte		BEND  , c_v+15
	.byte	W04
	.byte		        c_v+20
	.byte	W04
	.byte		        c_v+25
	.byte	W04
	.byte		PAN   , c_v+23
	.byte		BEND  , c_v+31
	.byte	W04
	.byte		        c_v+36
	.byte	W04
	.byte		        c_v+41
	.byte	W04
	.byte		VOICE , 28
	.byte		PAN   , c_v+40
	.byte		BEND  , c_v+0
	.byte		N92   , Bn2 , v072
	.byte	W24
	.byte		PAN   , c_v+20
	.byte	W24
	.byte		        c_v+0
	.byte	W24
	.byte		        c_v-20
	.byte	W12
	.byte	W12
	.byte		VOICE , 23
	.byte		PAN   , c_v-40
	.byte		N92   , Gs2 
	.byte	W24
	.byte		PAN   , c_v-20
	.byte	W24
	.byte		        c_v+0
	.byte	W24
	.byte		        c_v+20
	.byte	W12
	.byte	W12
	.byte		        c_v+40
	.byte		N92   , Fs2 
	.byte	W24
	.byte		PAN   , c_v+20
	.byte	W24
	.byte		        c_v+0
	.byte	W24
	.byte		        c_v-20
	.byte	W12
	.byte	W11
	.byte		VOICE , 52
	.byte	W01
	.byte		VOL   , 45*seq_000_mvl/mxv
	.byte		PAN   , c_v+0
	.byte		N92   , Ds3 , v100
	.byte	W24
	.byte		VOL   , 60*seq_000_mvl/mxv
	.byte	W24
	.byte		        75*seq_000_mvl/mxv
	.byte	W24
	.byte		        90*seq_000_mvl/mxv
	.byte	W12
	.byte	W12
	.byte		VOICE , 22
	.byte		PAN   , c_v+0
	.byte		N11   , Bn2 , v080
	.byte	W12
	.byte		        Bn2 , v032
	.byte	W12
	.byte		        Bn2 , v020
	.byte	W12
	.byte		        Bn2 , v012
	.byte	W12
	.byte		VOICE , 5
	.byte		PAN   , c_v-24
	.byte		N05   , En4 , v040
	.byte	W06
	.byte		        En4 , v032
	.byte	W06
	.byte		        En4 , v020
	.byte	W06
	.byte		PAN   , c_v+23
	.byte		N05   , Dn4 , v040
	.byte	W06
	.byte		        Dn4 , v032
	.byte	W06
	.byte		        Dn4 , v020
	.byte	W06
	.byte		PAN   , c_v-24
	.byte		N05   , Bn3 , v040
	.byte	W06
	.byte		        Bn3 , v032
	.byte	W06
	.byte		PAN   , c_v+23
	.byte		N05   , Fn4 , v040
	.byte	W06
	.byte		        Fn4 , v032
	.byte	W06
	.byte		        Fn4 , v020
	.byte	W06
	.byte		PAN   , c_v-24
	.byte		N05   , En4 , v040
	.byte	W06
	.byte		        En4 , v032
	.byte	W06
	.byte		        En4 , v020
	.byte	W06
	.byte		PAN   , c_v+23
	.byte		N05   , Dn4 , v040
	.byte	W06
	.byte		        Dn4 , v032
	.byte	W06
	.byte		PAN   , c_v-24
	.byte		N05   , En4 , v040
	.byte	W06
	.byte		        En4 , v032
	.byte	W06
	.byte		        En4 , v020
	.byte	W06
	.byte		PAN   , c_v+23
	.byte		N05   , Dn4 , v040
	.byte	W06
	.byte		        Dn4 , v032
	.byte	W06
	.byte		        Dn4 , v020
	.byte	W06
	.byte		PAN   , c_v-24
	.byte		N05   , An3 , v040
	.byte	W06
	.byte		        An3 , v032
	.byte	W06
	.byte		VOICE , 22
	.byte		PAN   , c_v+0
	.byte		N11   , Bn2 , v080
	.byte	W12
	.byte		        Bn2 , v032
	.byte	W12
	.byte		        Bn2 , v020
	.byte	W12
	.byte		        Bn2 , v012
	.byte	W12
	.byte		VOICE , 5
	.byte		PAN   , c_v+23
	.byte		N05   , En4 , v040
	.byte	W06
	.byte		        En4 , v032
	.byte	W06
	.byte		        En4 , v020
	.byte	W06
	.byte		PAN   , c_v-24
	.byte		N05   , Dn4 , v040
	.byte	W06
	.byte		        Dn4 , v032
	.byte	W06
	.byte		        Dn4 , v020
	.byte	W06
	.byte		PAN   , c_v+23
	.byte		N05   , Bn3 , v040
	.byte	W06
	.byte		        Bn3 , v032
	.byte	W06
	.byte		PAN   , c_v-24
	.byte		N05   , Fn4 , v040
	.byte	W06
	.byte		        Fn4 , v032
	.byte	W06
	.byte		        Fn4 , v020
	.byte	W06
	.byte		PAN   , c_v+23
	.byte		N05   , En4 , v040
	.byte	W06
	.byte		        En4 , v032
	.byte	W06
	.byte		        En4 , v020
	.byte	W06
	.byte		PAN   , c_v-24
	.byte		N05   , Dn4 , v040
	.byte	W06
	.byte		        Dn4 , v032
	.byte	W06
	.byte		        Dn4 , v020
	.byte	W06
	.byte		        Dn4 , v012
	.byte	W06
	.byte		VOICE , 10
	.byte		PAN   , c_v+0
	.byte		N04   , Fn2 , v092
	.byte	W06
	.byte		PAN   , c_v-14
	.byte		N04   , Gn2 
	.byte	W06
	.byte		PAN   , c_v+20
	.byte		N04   , An2 
	.byte	W06
	.byte		PAN   , c_v-28
	.byte		N04   , Bn2 
	.byte	W06
	.byte		PAN   , c_v+34
	.byte		N04   , Cn3 
	.byte	W06
	.byte		PAN   , c_v-42
	.byte		N04   , Dn3 
	.byte	W06
	.byte		        Dn3 , v040
	.byte	W24
	.byte	GOTO
	 .word	seq_000_1 + 0x2C
	.byte	FINE

@*********************** Track 03 ***********************@

seq_000_2:
	.byte	KEYSH , seq_000_key+0
	.byte		VOL   , 68*seq_000_mvl/mxv
	.byte	W01
	.byte		PAN   , c_v+0
	.byte	W01
	.byte	W01
	.byte		XCMD  , xIECV , 40
	.byte	W01
	.byte	W02
	.byte		        xIECL , 3
	.byte	W01
	.byte		BENDR , 12
	.byte	W01
	.byte		LFOS  , 31
	.byte	W01
	.byte		LFODL , 14
	.byte	W01
	.byte		MODT  , mod_vib
	.byte	W01
	.byte		MOD   , 6
	.byte	W84
	.byte	W01
	.byte	W96
	.byte	W96
	.byte	W96
	.byte	W12
	.byte		VOICE , 24
	.byte		N72   , Gn4 , v092
	.byte	W72
	.byte		N06   , Gn4 , v080
	.byte	W06
	.byte		        Gn4 , v060
	.byte	W06
	.byte		        Fn4 , v092
	.byte	W06
	.byte		        Ds4 
	.byte	W06
	.byte		N42   , Dn4 
	.byte	W42
	.byte		N06   , Dn4 , v080
	.byte	W06
	.byte		N24   , Cn4 , v092
	.byte	W24
	.byte		        Ds4 
	.byte	W12
	.byte	W12
	.byte		N72   , Dn4 
	.byte	W72
	.byte		N06   , Dn4 , v080
	.byte	W06
	.byte		        Dn4 , v060
	.byte	W06
	.byte		        Cn4 , v092
	.byte	W06
	.byte		        As3 
	.byte	W06
	.byte		N18   , An3 
	.byte	W18
	.byte		        As3 
	.byte	W18
	.byte		N12   , Cn4 
	.byte	W12
	.byte		N18   , Fn3 
	.byte	W18
	.byte		        An3 
	.byte	W18
	.byte		N06   , Dn4 
	.byte	W06
	.byte		        Dn4 , v072
	.byte	W06
	.byte		N72   , Gn4 , v092
	.byte	W72
	.byte		N06   , Gn4 , v080
	.byte	W06
	.byte		        Gn4 , v060
	.byte	W06
	.byte		        Fn4 , v092
	.byte	W06
	.byte		        Ds4 
	.byte	W06
	.byte		N42   , Dn4 
	.byte	W42
	.byte		N06   , Dn4 , v080
	.byte	W06
	.byte		N24   , Ds4 , v092
	.byte	W24
	.byte		        Fn4 
	.byte	W12
	.byte	W12
	.byte		N72   , Gn4 
	.byte	W72
	.byte		N06   , Gn4 , v080
	.byte	W06
	.byte		        Gn4 , v060
	.byte	W06
	.byte		        Fn4 , v092
	.byte	W06
	.byte		        Gs4 
	.byte	W06
	.byte		        Gn4 , v100
	.byte	W06
	.byte		        Gn4 , v080
	.byte	W06
	.byte		        Gn4 , v060
	.byte	W06
	.byte		        Fn4 , v100
	.byte	W06
	.byte		        Fn4 , v080
	.byte	W06
	.byte		        Fn4 , v060
	.byte	W06
	.byte		        Gs4 , v100
	.byte	W06
	.byte		        Gs4 , v060
	.byte	W06
	.byte		        Gn4 , v100
	.byte	W06
	.byte		        Gn4 , v080
	.byte	W06
	.byte		        Gn4 , v060
	.byte	W06
	.byte		        Gs4 , v100
	.byte	W06
	.byte		        Gs4 , v080
	.byte	W06
	.byte		        Gs4 , v060
	.byte	W06
	.byte		        As4 , v100
	.byte	W06
	.byte		        As4 , v060
	.byte	W06
	.byte		        As4 , v020
	.byte	W06
	.byte		VOICE , 4
	.byte		N06   , Cs5 , v092
	.byte	W06
	.byte		        Cs5 , v052
	.byte	W06
	.byte		        Cs5 , v020
	.byte	W06
	.byte		N18   , Cs5 , v092
	.byte	W18
	.byte		N06   , Cs5 , v072
	.byte	W06
	.byte		N16   , Bn4 , v092
	.byte	W18
	.byte		        As4 
	.byte	W18
	.byte		N11   , Gs4 
	.byte	W12
	.byte		        Fn4 
	.byte	W12
	.byte		        Fs4 
	.byte	W12
	.byte		        Cs5 
	.byte	W12
	.byte		N24   , Gs4 
	.byte	W24
	.byte		        Fs4 
	.byte	W24
	.byte		N06   , Fn4 
	.byte	W06
	.byte		        Fn4 , v060
	.byte	W06
	.byte		N11   , Fn4 , v092
	.byte	W12
	.byte		        Fs4 
	.byte	W12
	.byte		        Cs5 
	.byte	W12
	.byte		N24   , Gs4 
	.byte	W24
	.byte		        Fs4 
	.byte	W24
	.byte		N06   , Fn4 
	.byte	W06
	.byte		        Fn4 , v060
	.byte	W06
	.byte		N16   , Fn4 , v092
	.byte	W18
	.byte		        Fs4 
	.byte	W18
	.byte		N18   , Ds4 
	.byte	W18
	.byte		N06   , Ds4 , v072
	.byte	W06
	.byte		N12   , Ds4 , v092
	.byte	W12
	.byte		        Fs4 
	.byte	W12
	.byte		        As4 
	.byte	W12
	.byte		N24   , Gs4 
	.byte	W24
	.byte		        Fs4 
	.byte	W24
	.byte		        Fn4 
	.byte	W24
	.byte		        Cs4 
	.byte	W12
	.byte	W12
	.byte		N18   , Ds4 
	.byte	W18
	.byte		        Fs4 
	.byte	W18
	.byte		N06   , As4 
	.byte	W06
	.byte		        As4 , v052
	.byte	W06
	.byte		N18   , Fn4 , v092
	.byte	W18
	.byte		        Gs4 
	.byte	W18
	.byte		N06   , Cn5 
	.byte	W06
	.byte		        Cn5 , v052
	.byte	W06
	.byte		N18   , Fs4 , v092
	.byte	W18
	.byte		        An4 
	.byte	W18
	.byte		N06   , Cs5 
	.byte	W06
	.byte		        Cs5 , v052
	.byte	W06
	.byte		        En5 , v092
	.byte	W06
	.byte		        En5 , v052
	.byte	W06
	.byte		        Dn5 , v092
	.byte	W06
	.byte		        Dn5 , v052
	.byte	W06
	.byte		        Cs5 , v092
	.byte	W06
	.byte		        Cs5 , v052
	.byte	W06
	.byte		        Bn4 , v092
	.byte	W06
	.byte		        Bn4 , v052
	.byte	W06
	.byte		        Bn4 , v012
	.byte	W06
	.byte		        Dn5 , v092
	.byte	W06
	.byte		        Dn5 , v052
	.byte	W06
	.byte		        Dn5 , v020
	.byte	W06
	.byte		N18   , Dn5 , v092
	.byte	W18
	.byte		N06   , Dn5 , v072
	.byte	W06
	.byte		N16   , Cn5 , v092
	.byte	W18
	.byte		        Bn4 
	.byte	W18
	.byte		N11   , An4 
	.byte	W12
	.byte		        Fs4 
	.byte	W12
	.byte		        Gn4 
	.byte	W12
	.byte		        Dn5 
	.byte	W12
	.byte		N24   , An4 
	.byte	W24
	.byte		        Gn4 
	.byte	W24
	.byte		N06   , Fs4 
	.byte	W06
	.byte		        Fs4 , v060
	.byte	W06
	.byte		N11   , Fs4 , v092
	.byte	W12
	.byte		        Gn4 
	.byte	W12
	.byte		        Fs5 
	.byte	W12
	.byte		N24   , Bn4 
	.byte	W24
	.byte		        Cs5 
	.byte	W24
	.byte		N06   , Dn5 
	.byte	W06
	.byte		        Dn5 , v060
	.byte	W06
	.byte		N72   , En5 , v092
	.byte	W72
	.byte		N12   , En5 , v072
	.byte	W12
	.byte		        En5 , v052
	.byte	W12
	.byte		N36   , Dn5 , v092
	.byte	W36
	.byte		        Cs5 
	.byte	W36
	.byte		N24   , An4 
	.byte	W12
	.byte	W12
	.byte		N06   , Bn4 
	.byte	W06
	.byte		        Bn4 , v072
	.byte	W06
	.byte		        Bn4 , v052
	.byte	W06
	.byte		        Bn4 , v032
	.byte	W06
	.byte		        Bn3 , v092
	.byte	W06
	.byte		        An3 
	.byte	W06
	.byte		        Bn3 
	.byte	W06
	.byte		        Dn4 
	.byte	W06
	.byte		        Dn4 , v072
	.byte	W06
	.byte		        Dn4 , v052
	.byte	W06
	.byte		        Dn4 , v032
	.byte	W06
	.byte		        Dn4 , v012
	.byte	W06
	.byte		        Bn3 , v092
	.byte	W06
	.byte		        An3 
	.byte	W06
	.byte		        Bn3 
	.byte	W06
	.byte		        En4 
	.byte	W06
	.byte		        En4 , v072
	.byte	W06
	.byte		        En4 , v052
	.byte	W06
	.byte		        En4 , v032
	.byte	W06
	.byte		        En4 , v012
	.byte	W06
	.byte		        Bn3 , v092
	.byte	W06
	.byte		        An3 
	.byte	W06
	.byte		        Bn3 
	.byte	W06
	.byte		        Fn4 
	.byte	W06
	.byte		        Fn4 , v072
	.byte	W06
	.byte		        Fn4 , v052
	.byte	W06
	.byte		        Fn4 , v032
	.byte	W06
	.byte		        En4 , v092
	.byte	W06
	.byte		        En4 , v072
	.byte	W06
	.byte		        En4 , v052
	.byte	W06
	.byte		        Dn4 , v092
	.byte	W06
	.byte		        Dn4 , v052
	.byte	W06
	.byte		        Bn3 , v092
	.byte	W06
	.byte		        Bn3 , v072
	.byte	W06
	.byte		        Bn3 , v052
	.byte	W06
	.byte		        Bn3 , v032
	.byte	W06
	.byte		        Bn3 , v092
	.byte	W06
	.byte		        An3 
	.byte	W06
	.byte		        Bn3 
	.byte	W06
	.byte		        Dn4 
	.byte	W06
	.byte		        Dn4 , v072
	.byte	W06
	.byte		        Dn4 , v052
	.byte	W06
	.byte		        Dn4 , v032
	.byte	W06
	.byte		        Dn4 , v012
	.byte	W06
	.byte		        Bn3 , v092
	.byte	W06
	.byte		        An3 
	.byte	W06
	.byte		        Bn3 
	.byte	W06
	.byte		        En4 
	.byte	W06
	.byte		        En4 , v072
	.byte	W06
	.byte		        En4 , v052
	.byte	W06
	.byte		        En4 , v032
	.byte	W06
	.byte		        En4 , v012
	.byte	W06
	.byte		        Bn3 , v092
	.byte	W06
	.byte		        An3 
	.byte	W06
	.byte		        Bn3 
	.byte	W06
	.byte		        Fn4 
	.byte	W06
	.byte		        Fn4 , v072
	.byte	W06
	.byte		        Fn4 , v052
	.byte	W06
	.byte		        Fn4 , v032
	.byte	W06
	.byte		        Fn4 , v072
	.byte	W06
	.byte		        Fn4 , v052
	.byte	W06
	.byte		        Fn4 , v032
	.byte	W06
	.byte		        Fn4 , v052
	.byte	W06
	.byte		        Fn4 , v032
	.byte	W30
	.byte	GOTO
	 .word	seq_000_2 + 0x25
	.byte	FINE

@*********************** Track 04 ***********************@

seq_000_3:
	.byte	KEYSH , seq_000_key+0
	.byte		VOL   , 68*seq_000_mvl/mxv
	.byte	W03
	.byte		PAN   , c_v+0
	.byte	W03
	.byte		BENDR , 12
	.byte	W03
	.byte		MODT  , mod_vib
	.byte	W84
	.byte	W03
	.byte	W96
	.byte	W96
	.byte	W96
	.byte	W12
	.byte		VOICE , 5
	.byte		N92   , Dn2 , v056
	.byte	W84
	.byte	W12
	.byte		N44   , Ds2 
	.byte	W48
	.byte		        Fn2 
	.byte	W36
	.byte	W12
	.byte		N92   , Gn2 , v048
	.byte	W84
	.byte	W12
	.byte		N44   , Fn2 
	.byte	W48
	.byte		        Gs2 , v052
	.byte	W36
	.byte	W12
	.byte		N92   , Dn3 , v040
	.byte	W84
	.byte	W12
	.byte		N44
	.byte	W48
	.byte		        Cn3 
	.byte	W36
	.byte	W12
	.byte		N92   , Dn3 
	.byte	W84
	.byte	W96
	.byte	W96
	.byte	W96
	.byte	W96
	.byte	W96
	.byte	W96
	.byte	W96
	.byte	W96
	.byte	W96
	.byte	W96
	.byte	W96
	.byte	W96
	.byte	W96
	.byte	W96
	.byte	W96
	.byte	W96
	.byte	W96
	.byte	W36
	.byte	GOTO
	 .word	seq_000_3 + 0x13
	.byte	FINE

@*********************** Track 05 ***********************@

seq_000_4:
	.byte	KEYSH , seq_000_key+0
	.byte		VOICE , 17
	.byte	W01
	.byte		VOL   , 96*seq_000_mvl/mxv
	.byte	W01
	.byte		PAN   , c_v+0
	.byte	W01
	.byte	W01
	.byte		XCMD  , xIECV , 40
	.byte	W01
	.byte	W01
	.byte		        xIECL , 3
	.byte	W01
	.byte		BENDR , 12
	.byte	W01
	.byte		LFOS  , 28
	.byte	W01
	.byte		LFODL , 14
	.byte	W01
	.byte		MOD   , 3
	.byte	W01
	.byte		MODT  , mod_vib
	.byte	W01
	.byte		N10   , Gn2 , v127
	.byte	W18
	.byte		        Gs2 
	.byte	W18
	.byte		        Gn2 
	.byte	W18
	.byte		        Fn2 
	.byte	W18
	.byte		        Gs2 
	.byte	W12
	.byte		N10   , Fn2 , v127
	.byte	W12
	.byte		        Gn2 
	.byte	W18
	.byte		        Gs2 
	.byte	W18
	.byte		        Gn2 
	.byte	W18
	.byte		        Fn2 
	.byte	W18
	.byte		        Gs2 
	.byte	W12
	.byte	PEND
	.byte		N10   , As2 , v127
	.byte	W12
	.byte		        Gn2 
	.byte	W18
	.byte		        Gs2 
	.byte	W18
	.byte		        Gn2 
	.byte	W18
	.byte		        Fn2 
	.byte	W18
	.byte		        Gs2 
	.byte	W12
	.byte	PEND
	.byte	PATT
	 .word	seq_000_4 + 0x2F
	.byte		N10   , As2 , v127
	.byte	W12
	.byte		N10   , Gn2 , v127
	.byte	W18
	.byte		        Gs2 
	.byte	W18
	.byte		        Gn2 
	.byte	W18
	.byte		        Fn2 
	.byte	W18
	.byte		        Gs2 
	.byte	W12
	.byte	PATT
	 .word	seq_000_4 + 0x2F
	.byte	PATT
	 .word	seq_000_4 + 0x3E
	.byte	PATT
	 .word	seq_000_4 + 0x2F
	.byte	PATT
	 .word	seq_000_4 + 0x3E
	.byte	PATT
	 .word	seq_000_4 + 0x2F
	.byte	PATT
	 .word	seq_000_4 + 0x3E
	.byte	PATT
	 .word	seq_000_4 + 0x2F
	.byte		N10   , As2 , v127
	.byte	W12
	.byte		N06   , Bn1 , v052
	.byte	W06
	.byte		N10   , Bn2 , v127
	.byte	W18
	.byte		N23
	.byte	W24
	.byte		N15   , Bn1 
	.byte	W18
	.byte		        Bn2 
	.byte	W18
	.byte		N10   , Bn1 
	.byte	W12
	.byte		        Ds2 
	.byte	W18
	.byte		N10
	.byte	W18
	.byte		N18
	.byte	W24
	.byte		N06   , Fn2 
	.byte	W06
	.byte		        Ds2 
	.byte	W06
	.byte		        As2 
	.byte	W06
	.byte		        Ds2 
	.byte	W06
	.byte		        As1 
	.byte	W06
	.byte		        Ds2 
	.byte	W06
	.byte		N10   , Cs2 
	.byte	W18
	.byte		N10
	.byte	W18
	.byte		N18
	.byte	W24
	.byte		N06   , Ds2 
	.byte	W06
	.byte		        Cs2 
	.byte	W06
	.byte		        Gs2 
	.byte	W06
	.byte		        Cs2 
	.byte	W06
	.byte		        Gs1 
	.byte	W06
	.byte		        Cs2 
	.byte	W06
	.byte		N10   , Bn1 
	.byte	W18
	.byte		        Bn2 
	.byte	W18
	.byte		N18   , Bn1 
	.byte	W24
	.byte		N06   , Cs2 
	.byte	W06
	.byte		        Bn2 
	.byte	W06
	.byte		        Fs3 
	.byte	W06
	.byte		        Bn2 
	.byte	W06
	.byte		        Fs2 
	.byte	W06
	.byte		        Bn1 
	.byte	W06
	.byte		N10   , As1 
	.byte	W18
	.byte		        As2 
	.byte	W18
	.byte		N18   , As1 
	.byte	W24
	.byte		N06   , Cn2 
	.byte	W06
	.byte		        As2 
	.byte	W06
	.byte		        Fn3 
	.byte	W06
	.byte		        As2 
	.byte	W06
	.byte		        Fn2 
	.byte	W06
	.byte		        As1 
	.byte	W06
	.byte		N15   , Gs1 
	.byte	W18
	.byte		N11   , Gs2 
	.byte	W12
	.byte		N06   , Gs1 
	.byte	W06
	.byte		        Gs2 
	.byte	W06
	.byte		        Gs1 
	.byte	W06
	.byte		N15   , As1 
	.byte	W18
	.byte		N11   , As2 
	.byte	W12
	.byte		N06   , As1 
	.byte	W06
	.byte		        As2 
	.byte	W06
	.byte		        As1 
	.byte	W06
	.byte		N15   , Bn1 
	.byte	W18
	.byte		N11   , Bn2 
	.byte	W12
	.byte		N06   , Bn1 
	.byte	W06
	.byte		        Bn2 
	.byte	W06
	.byte		        Bn1 
	.byte	W06
	.byte		N15   , Cs2 
	.byte	W18
	.byte		N11   , Cs3 
	.byte	W12
	.byte		N06   , Cs2 
	.byte	W06
	.byte		        Cs3 
	.byte	W06
	.byte		        Cs2 
	.byte	W06
	.byte		        Cn2 , v052
	.byte	W06
	.byte		N10   , Cn3 , v127
	.byte	W18
	.byte		N23
	.byte	W24
	.byte		N15   , Cn2 
	.byte	W18
	.byte		        Cn3 
	.byte	W18
	.byte		N10   , Cn2 
	.byte	W12
	.byte		        En2 
	.byte	W18
	.byte		N10
	.byte	W18
	.byte		N18
	.byte	W24
	.byte		N06   , Fs2 
	.byte	W06
	.byte		        En2 
	.byte	W06
	.byte		        Bn2 
	.byte	W06
	.byte		        En2 
	.byte	W06
	.byte		        Bn1 
	.byte	W06
	.byte		        En2 
	.byte	W06
	.byte		N10   , Dn2 
	.byte	W18
	.byte		N10
	.byte	W18
	.byte		N18
	.byte	W24
	.byte		N06   , En2 
	.byte	W06
	.byte		        Dn2 
	.byte	W06
	.byte		        An2 
	.byte	W06
	.byte		        Dn2 
	.byte	W06
	.byte		        An1 
	.byte	W06
	.byte		        Dn2 
	.byte	W06
	.byte		N10   , Cn2 
	.byte	W18
	.byte		        Cn3 
	.byte	W18
	.byte		N18   , Cn2 
	.byte	W24
	.byte		N06   , Dn2 
	.byte	W06
	.byte		        Cn2 
	.byte	W06
	.byte		        Gn2 
	.byte	W06
	.byte		        Cn2 
	.byte	W06
	.byte		        Gn1 
	.byte	W06
	.byte		        Cn2 
	.byte	W06
	.byte		N10   , Fs2 
	.byte	W18
	.byte		        En2 
	.byte	W18
	.byte		N18   , Fs2 
	.byte	W24
	.byte		N06   , Gn2 
	.byte	W06
	.byte		        Fs2 
	.byte	W06
	.byte		        Cs2 
	.byte	W06
	.byte		        Fs2 
	.byte	W06
	.byte		        Cs3 
	.byte	W06
	.byte		        Fs2 
	.byte	W06
	.byte		N20   , Bn2 
	.byte	W24
	.byte		N06   , Bn1 
	.byte	W06
	.byte		        An1 
	.byte	W06
	.byte		        Bn1 
	.byte	W06
	.byte		N18   , Dn2 
	.byte	W18
	.byte		N12   , Dn2 , v052
	.byte	W12
	.byte		N06   , Bn1 , v127
	.byte	W06
	.byte		        An1 
	.byte	W06
	.byte		        Bn1 
	.byte	W06
	.byte		N18   , En2 
	.byte	W18
	.byte		N12   , En2 , v052
	.byte	W12
	.byte		N06   , Bn1 , v127
	.byte	W06
	.byte		        An1 
	.byte	W06
	.byte		        Bn1 
	.byte	W06
	.byte		N12   , Fn2 
	.byte	W12
	.byte		        Fn2 , v052
	.byte	W12
	.byte		        En2 , v127
	.byte	W12
	.byte		N06   , En2 , v052
	.byte	W06
	.byte		N10   , Dn2 , v127
	.byte	W12
	.byte		N20   , Bn1 
	.byte	W24
	.byte		N06
	.byte	W06
	.byte		        An1 
	.byte	W06
	.byte		        Bn1 
	.byte	W06
	.byte		N18   , Dn2 
	.byte	W18
	.byte		N12   , Dn2 , v052
	.byte	W12
	.byte		N06   , Bn1 , v127
	.byte	W06
	.byte		        An1 
	.byte	W06
	.byte		        Bn1 
	.byte	W06
	.byte		N18   , En2 
	.byte	W18
	.byte		N12   , En2 , v052
	.byte	W12
	.byte		N06   , Bn1 , v127
	.byte	W06
	.byte		        An1 
	.byte	W06
	.byte		        Bn1 
	.byte	W06
	.byte		N12   , Fn2 
	.byte	W12
	.byte		        Fn2 , v052
	.byte	W12
	.byte		        Fn2 , v080
	.byte	W12
	.byte		N06   , Fn2 , v052
	.byte	W06
	.byte		N12
	.byte	W12
	.byte		N10   , Fn2 , v032
	.byte	W24
	.byte	GOTO
	 .word	seq_000_4 + 0x56
	.byte	FINE

@*********************** Track 06 ***********************@

seq_000_5:
	.byte	KEYSH , seq_000_key+0
	.byte		VOL   , 83*seq_000_mvl/mxv
	.byte	W01
	.byte	W01
	.byte		XCMD  , xIECV , 40
	.byte	W01
	.byte	W01
	.byte		        xIECL , 3
	.byte	W01
	.byte		BENDR , 12
	.byte	W01
	.byte		LFOS  , 28
	.byte	W01
	.byte		LFODL , 14
	.byte	W02
	.byte		MOD   , 3
	.byte	W01
	.byte		MODT  , mod_vib
	.byte	W01
	.byte		PAN   , c_v+0
	.byte	W84
	.byte	W01
	.byte	W96
	.byte	W96
	.byte	W48
	.byte		VOICE , 26
	.byte	W06
	.byte		PAN   , c_v-64
	.byte	W06
	.byte		N03   , Gn2 , v100
	.byte	W03
	.byte		        Gn2 , v060
	.byte	W03
	.byte		        Cn3 , v100
	.byte	W03
	.byte		        Cn3 , v060
	.byte	W03
	.byte		        Fn3 , v100
	.byte	W03
	.byte		        Fn3 , v060
	.byte	W03
	.byte		        As3 , v100
	.byte	W03
	.byte		        As3 , v060
	.byte	W03
	.byte		PAN   , c_v+63
	.byte		N03   , Ds4 , v100
	.byte	W03
	.byte		        Ds4 , v060
	.byte	W03
	.byte		        Gs4 , v100
	.byte	W03
	.byte		        Gs4 , v060
	.byte	W03
	.byte		        Cs5 , v100
	.byte	W03
	.byte		        Cs5 , v060
	.byte	W03
	.byte		        Fs5 , v100
	.byte	W03
	.byte		        Fs5 , v060
	.byte	W03
	.byte		VOICE , 26
	.byte	W06
	.byte		PAN   , c_v+0
	.byte		N03   , Gn1 , v092
	.byte	W03
	.byte		        Gn1 , v060
	.byte	W03
	.byte		        Dn2 , v092
	.byte	W03
	.byte		        Dn2 , v060
	.byte	W03
	.byte		        Gs2 , v092
	.byte	W03
	.byte		        Gs2 , v060
	.byte	W03
	.byte		        As2 , v092
	.byte	W03
	.byte		        As2 , v060
	.byte	W03
	.byte		        Dn3 , v092
	.byte	W03
	.byte		        Dn3 , v060
	.byte	W03
	.byte		        Fn3 , v092
	.byte	W03
	.byte		        Fn3 , v060
	.byte	W03
	.byte		        Gs3 , v092
	.byte	W03
	.byte		        Gs3 , v060
	.byte	W03
	.byte		PAN   , c_v-64
	.byte		N03   , As3 , v100
	.byte	W03
	.byte		        As3 , v072
	.byte	W03
	.byte		        Dn4 , v100
	.byte	W03
	.byte		        Dn4 , v072
	.byte	W03
	.byte		        Fn4 , v100
	.byte	W03
	.byte		        Fn4 , v072
	.byte	W03
	.byte		        Gn4 , v100
	.byte	W03
	.byte		        Gn4 , v072
	.byte	W03
	.byte		PAN   , c_v+63
	.byte		N03   , As4 , v100
	.byte	W03
	.byte		        As4 , v072
	.byte	W03
	.byte		        Dn5 , v100
	.byte	W03
	.byte		        Dn5 , v072
	.byte	W03
	.byte		N03   , Gs5 , v100
	.byte	W03
	.byte		        Gs5 , v072
	.byte	W03
	.byte		        As5 , v100
	.byte	W03
	.byte		        As5 , v072
	.byte	W03
	.byte		PAN   , c_v+0
	.byte	W06
	.byte		N03   , Gn1 , v092
	.byte	W03
	.byte		        Gn1 , v060
	.byte	W03
	.byte		        Dn2 , v092
	.byte	W03
	.byte		        Dn2 , v060
	.byte	W03
	.byte		        Gs2 , v092
	.byte	W03
	.byte		        Gs2 , v060
	.byte	W03
	.byte		        As2 , v092
	.byte	W03
	.byte		        As2 , v060
	.byte	W03
	.byte		        Dn3 , v092
	.byte	W03
	.byte		        Dn3 , v060
	.byte	W03
	.byte		        Fn3 , v092
	.byte	W03
	.byte		        Fn3 , v060
	.byte	W03
	.byte		        Gs3 , v092
	.byte	W03
	.byte		        Gs3 , v060
	.byte	W03
	.byte		PAN   , c_v-64
	.byte		N03   , As3 , v092
	.byte	W03
	.byte		        As3 , v060
	.byte	W03
	.byte		        Fn3 , v092
	.byte	W03
	.byte		        Fn3 , v060
	.byte	W03
	.byte		        Dn3 , v092
	.byte	W03
	.byte		        Dn3 , v060
	.byte	W03
	.byte		        Gs2 , v092
	.byte	W03
	.byte		        Gs2 , v060
	.byte	W03
	.byte		PAN   , c_v+63
	.byte		N03   , Fn2 , v092
	.byte	W03
	.byte		        Fn2 , v060
	.byte	W03
	.byte		        Gn2 , v092
	.byte	W03
	.byte		        Gn2 , v060
	.byte	W03
	.byte	PEND
	.byte		N03   , Fn2 , v092
	.byte	W03
	.byte		        Fn2 , v060
	.byte	W03
	.byte		        Gs2 , v092
	.byte	W03
	.byte		        Gs2 , v060
	.byte	W03
	.byte		PAN   , c_v+0
	.byte	W06
	.byte		N03   , Gn1 , v092
	.byte	W03
	.byte		        Gn1 , v060
	.byte	W03
	.byte		        Dn2 , v092
	.byte	W03
	.byte		        Dn2 , v060
	.byte	W03
	.byte		        Gs2 , v092
	.byte	W03
	.byte		        Gs2 , v060
	.byte	W03
	.byte		        As2 , v092
	.byte	W03
	.byte		        As2 , v060
	.byte	W03
	.byte		        Dn3 , v092
	.byte	W03
	.byte		        Dn3 , v060
	.byte	W03
	.byte		        Fn3 , v092
	.byte	W03
	.byte		        Fn3 , v060
	.byte	W03
	.byte		        Gs3 , v092
	.byte	W03
	.byte		        Gs3 , v060
	.byte	W03
	.byte		PAN   , c_v-64
	.byte		N03   , As3 , v100
	.byte	W03
	.byte		        As3 , v072
	.byte	W03
	.byte		        Dn4 , v100
	.byte	W03
	.byte		        Dn4 , v072
	.byte	W03
	.byte		        Fn4 , v100
	.byte	W03
	.byte		        Fn4 , v072
	.byte	W03
	.byte		        Gn4 , v100
	.byte	W03
	.byte		        Gn4 , v072
	.byte	W03
	.byte		PAN   , c_v+63
	.byte		N03   , As4 , v100
	.byte	W03
	.byte		        As4 , v072
	.byte	W03
	.byte		        Dn5 , v100
	.byte	W03
	.byte		        Dn5 , v072
	.byte	W03
	.byte	PEND
	.byte		        Gs5 , v100
	.byte	W03
	.byte		        Gs5 , v072
	.byte	W03
	.byte		        As5 , v100
	.byte	W03
	.byte		        As5 , v072
	.byte	W03
	.byte		PAN   , c_v+0
	.byte	W06
	.byte		N03   , Gn1 , v092
	.byte	W03
	.byte		        Gn1 , v060
	.byte	W03
	.byte		        Dn2 , v092
	.byte	W03
	.byte		        Dn2 , v060
	.byte	W03
	.byte		        As2 , v092
	.byte	W03
	.byte		        As2 , v060
	.byte	W03
	.byte		        Dn3 , v092
	.byte	W03
	.byte		        Dn3 , v060
	.byte	W03
	.byte		        Fn3 , v092
	.byte	W03
	.byte		        Fn3 , v060
	.byte	W03
	.byte		        Gs3 , v092
	.byte	W03
	.byte		        Gs3 , v060
	.byte	W03
	.byte		        Gn3 , v092
	.byte	W03
	.byte		        Gn3 , v060
	.byte	W03
	.byte		PAN   , c_v-64
	.byte		N03   , Fn5 , v092
	.byte	W03
	.byte		        Fn5 , v060
	.byte	W03
	.byte		        Dn5 , v092
	.byte	W03
	.byte		        Dn5 , v060
	.byte	W03
	.byte		        As4 , v092
	.byte	W03
	.byte		        As4 , v060
	.byte	W03
	.byte		        Gs4 , v092
	.byte	W03
	.byte		        Gs4 , v060
	.byte	W03
	.byte		PAN   , c_v+63
	.byte		N03   , Dn5 , v092
	.byte	W03
	.byte		        Dn5 , v060
	.byte	W03
	.byte		        As4 , v092
	.byte	W03
	.byte		        As4 , v060
	.byte	W03
	.byte		        Gs4 , v092
	.byte	W03
	.byte		        Gs4 , v060
	.byte	W03
	.byte		        Dn4 , v092
	.byte	W03
	.byte		        Dn4 , v060
	.byte	W09
	.byte		PAN   , c_v+0
	.byte		N03   , Gn1 , v092
	.byte	W03
	.byte		        Gn1 , v060
	.byte	W03
	.byte		        Dn2 , v092
	.byte	W03
	.byte		        Dn2 , v060
	.byte	W03
	.byte		        Gs2 , v092
	.byte	W03
	.byte		        Gs2 , v060
	.byte	W03
	.byte		        As2 , v092
	.byte	W03
	.byte		        As2 , v060
	.byte	W03
	.byte		        Dn3 , v092
	.byte	W03
	.byte		        Dn3 , v060
	.byte	W03
	.byte		        Fn3 , v092
	.byte	W03
	.byte		        Fn3 , v060
	.byte	W03
	.byte		        Gs3 , v092
	.byte	W03
	.byte		        Gs3 , v060
	.byte	W03
	.byte		PAN   , c_v-64
	.byte		N03   , As3 , v100
	.byte	W03
	.byte		        As3 , v072
	.byte	W03
	.byte		        Dn4 , v100
	.byte	W03
	.byte		        Dn4 , v072
	.byte	W03
	.byte		        Fn4 , v100
	.byte	W03
	.byte		        Fn4 , v072
	.byte	W03
	.byte		        Gn4 , v100
	.byte	W03
	.byte		        Gn4 , v072
	.byte	W03
	.byte		PAN   , c_v+63
	.byte		N03   , As4 , v100
	.byte	W03
	.byte		        As4 , v072
	.byte	W03
	.byte		        Dn5 , v100
	.byte	W03
	.byte		        Dn5 , v072
	.byte	W03
	.byte	PATT
	 .word	seq_000_5 + 0xB8
	.byte	PATT
	 .word	seq_000_5 + 0x11E
	.byte		N03   , Gs5 , v100
	.byte	W03
	.byte		        Gs5 , v072
	.byte	W03
	.byte		        As5 , v100
	.byte	W03
	.byte		        As5 , v072
	.byte	W03
	.byte		PAN   , c_v+0
	.byte		N06   , Cn4 , v092
	.byte	W06
	.byte		        Cn4 , v072
	.byte	W06
	.byte		        Cn4 , v052
	.byte	W06
	.byte		        As3 , v092
	.byte	W06
	.byte		        As3 , v072
	.byte	W06
	.byte		        As3 , v052
	.byte	W06
	.byte		        Cs4 , v092
	.byte	W06
	.byte		        Cs4 , v052
	.byte	W06
	.byte		        Cn4 , v092
	.byte	W06
	.byte		        Cn4 , v072
	.byte	W06
	.byte		        Cn4 , v052
	.byte	W06
	.byte		        Cs4 , v092
	.byte	W06
	.byte		        Cs4 , v072
	.byte	W06
	.byte		        Cs4 , v052
	.byte	W06
	.byte		        Ds4 , v092
	.byte	W06
	.byte		        Ds4 , v052
	.byte	W06
	.byte		        Ds4 , v032
	.byte	W06
	.byte		VOICE , 1
	.byte		N06   , As4 , v092
	.byte	W06
	.byte		        As4 , v052
	.byte	W06
	.byte		        As4 , v020
	.byte	W06
	.byte		PAN   , c_v-64
	.byte		N06   , Ds3 , v100
	.byte	W06
	.byte		        Fs3 
	.byte	W06
	.byte		PAN   , c_v+63
	.byte		N06   , As3 
	.byte	W06
	.byte		        Fs4 , v080
	.byte	W06
	.byte		PAN   , c_v-64
	.byte		N06   , Bn4 , v100
	.byte	W06
	.byte		        Fs4 
	.byte	W06
	.byte		        Ds4 
	.byte	W06
	.byte		PAN   , c_v+63
	.byte		N06   , Fs4 
	.byte	W06
	.byte		        Ds4 
	.byte	W06
	.byte		        As3 
	.byte	W06
	.byte		PAN   , c_v-64
	.byte		N06   , Ds3 
	.byte	W06
	.byte		        Fs3 
	.byte	W06
	.byte		PAN   , c_v+63
	.byte		N06   , As2 
	.byte	W06
	.byte		        Ds3 
	.byte	W06
	.byte		        Fs3 
	.byte	W06
	.byte		        As3 
	.byte	W06
	.byte		        Cs4 
	.byte	W06
	.byte		        Fs3 
	.byte	W06
	.byte		        As3 
	.byte	W06
	.byte		        Cs4 
	.byte	W06
	.byte		PAN   , c_v-64
	.byte		N06   , Fs4 
	.byte	W06
	.byte		        Cs4 
	.byte	W06
	.byte		        Ds4 
	.byte	W06
	.byte		        Fs4 
	.byte	W06
	.byte		        As4 
	.byte	W06
	.byte		        Ds4 
	.byte	W06
	.byte		        Fs4 
	.byte	W06
	.byte		        As4 
	.byte	W06
	.byte		PAN   , c_v+63
	.byte		N06   , As2 
	.byte	W06
	.byte		        Ds3 
	.byte	W06
	.byte		        Fs3 
	.byte	W06
	.byte		        As3 
	.byte	W06
	.byte		        Cs4 
	.byte	W06
	.byte		        Fs3 
	.byte	W06
	.byte		        As3 
	.byte	W06
	.byte		        Cs4 
	.byte	W06
	.byte		PAN   , c_v-64
	.byte		N06   , Fs4 
	.byte	W06
	.byte		        Cs4 
	.byte	W06
	.byte		        As3 
	.byte	W06
	.byte		        Fs3 
	.byte	W06
	.byte		        As3 
	.byte	W06
	.byte		        Fs3 
	.byte	W06
	.byte		        Ds3 
	.byte	W06
	.byte		        Cs3 
	.byte	W06
	.byte		PAN   , c_v+63
	.byte		N06   , Bn2 
	.byte	W06
	.byte		        Ds3 
	.byte	W06
	.byte		        Fs3 
	.byte	W06
	.byte		        As3 
	.byte	W06
	.byte		        Cs4 
	.byte	W06
	.byte		        Fs3 
	.byte	W06
	.byte		        As3 
	.byte	W06
	.byte		        Cs4 
	.byte	W06
	.byte		PAN   , c_v-64
	.byte		N06   , Fs4 
	.byte	W06
	.byte		        Bn3 
	.byte	W06
	.byte		        Ds4 
	.byte	W06
	.byte		        Fs4 
	.byte	W06
	.byte		        As4 
	.byte	W06
	.byte		        Cs5 
	.byte	W06
	.byte		        Ds5 
	.byte	W06
	.byte		        Fs5 
	.byte	W06
	.byte		PAN   , c_v+63
	.byte		N06   , As2 
	.byte	W06
	.byte		        Cs3 
	.byte	W06
	.byte		        Fn3 
	.byte	W06
	.byte		        Gs3 
	.byte	W06
	.byte		        Cs4 
	.byte	W06
	.byte		        Fn3 
	.byte	W06
	.byte		        Gs3 
	.byte	W06
	.byte		        Cs4 
	.byte	W06
	.byte		PAN   , c_v-64
	.byte		N06   , Fn4 
	.byte	W06
	.byte		        Cs4 
	.byte	W06
	.byte		        Gs3 
	.byte	W06
	.byte		        Fn3 
	.byte	W06
	.byte		        As2 
	.byte	W06
	.byte		        Fn3 
	.byte	W06
	.byte		        Cs3 
	.byte	W06
	.byte		        As2 
	.byte	W06
	.byte		PAN   , c_v+63
	.byte		N06   , Gs2 
	.byte	W06
	.byte		        Bn2 
	.byte	W06
	.byte		        Ds3 
	.byte	W06
	.byte		PAN   , c_v-64
	.byte		N06   , Fs3 
	.byte	W06
	.byte		        As3 
	.byte	W06
	.byte		        Ds4 
	.byte	W06
	.byte		PAN   , c_v+63
	.byte		N06   , Fs4 
	.byte	W06
	.byte		        As4 
	.byte	W06
	.byte		PAN   , c_v-64
	.byte		N06   , As2 
	.byte	W06
	.byte		        Cs3 
	.byte	W06
	.byte		        Fn3 
	.byte	W06
	.byte		PAN   , c_v+63
	.byte		N06   , Gs3 
	.byte	W06
	.byte		        Cn4 
	.byte	W06
	.byte		        Cs4 
	.byte	W06
	.byte		PAN   , c_v-64
	.byte		N06   , Fn4 
	.byte	W06
	.byte		        Gs4 
	.byte	W06
	.byte		PAN   , c_v+63
	.byte		N06   , Bn2 
	.byte	W06
	.byte		        Dn3 
	.byte	W06
	.byte		        Fs3 
	.byte	W06
	.byte		PAN   , c_v-64
	.byte		N06   , An3 
	.byte	W06
	.byte		        Cs4 
	.byte	W06
	.byte		        Dn4 
	.byte	W06
	.byte		PAN   , c_v+63
	.byte		N06   , Fs4 
	.byte	W06
	.byte		        An4 
	.byte	W06
	.byte		PAN   , c_v-64
	.byte		N06   , Cs3 
	.byte	W06
	.byte		        Fn3 
	.byte	W06
	.byte		        Bn3 
	.byte	W06
	.byte		PAN   , c_v+63
	.byte		N06   , Cs4 
	.byte	W06
	.byte		        En4 
	.byte	W06
	.byte		        Fn4 
	.byte	W06
	.byte		PAN   , c_v-64
	.byte		N06   , Bn4 
	.byte	W06
	.byte		        Cs5 
	.byte	W06
	.byte		        Cs5 , v060
	.byte	W06
	.byte		PAN   , c_v+0
	.byte		N06   , Bn4 , v092
	.byte	W06
	.byte		        Bn4 , v052
	.byte	W06
	.byte		        Bn4 , v020
	.byte	W06
	.byte		PAN   , c_v-64
	.byte		N06   , En3 , v100
	.byte	W06
	.byte		        Gn3 
	.byte	W06
	.byte		PAN   , c_v+63
	.byte		N06   , Bn3 
	.byte	W06
	.byte		        Gn4 , v080
	.byte	W06
	.byte		PAN   , c_v-64
	.byte		N06   , Cn5 , v100
	.byte	W06
	.byte		        Gn4 
	.byte	W06
	.byte		        En4 
	.byte	W06
	.byte		PAN   , c_v+63
	.byte		N06   , Gn4 
	.byte	W06
	.byte		        En4 
	.byte	W06
	.byte		        Bn3 
	.byte	W06
	.byte		PAN   , c_v-64
	.byte		N06   , En3 
	.byte	W06
	.byte		        Gn3 
	.byte	W06
	.byte		PAN   , c_v+63
	.byte		N06   , Bn2 
	.byte	W06
	.byte		        En3 
	.byte	W06
	.byte		        Gn3 
	.byte	W06
	.byte		        Bn3 
	.byte	W06
	.byte		        Dn4 
	.byte	W06
	.byte		        Gn3 
	.byte	W06
	.byte		        Bn3 
	.byte	W06
	.byte		        Dn4 
	.byte	W06
	.byte		PAN   , c_v-64
	.byte		N06   , Gn4 
	.byte	W06
	.byte		        Dn4 
	.byte	W06
	.byte		        En4 
	.byte	W06
	.byte		        Gn4 
	.byte	W06
	.byte		        Bn4 
	.byte	W06
	.byte		        En4 
	.byte	W06
	.byte		        Gn4 
	.byte	W06
	.byte		        Bn4 
	.byte	W06
	.byte		PAN   , c_v+63
	.byte		N06   , Bn2 
	.byte	W06
	.byte		        En3 
	.byte	W06
	.byte		        Gn3 
	.byte	W06
	.byte		        Bn3 
	.byte	W06
	.byte		        Dn4 
	.byte	W06
	.byte		        Gn3 
	.byte	W06
	.byte		        Bn3 
	.byte	W06
	.byte		        Dn4 
	.byte	W06
	.byte		PAN   , c_v-64
	.byte		N06   , Gn4 
	.byte	W06
	.byte		        Dn4 
	.byte	W06
	.byte		        Bn3 
	.byte	W06
	.byte		        Gn3 
	.byte	W06
	.byte		        Bn3 
	.byte	W06
	.byte		        Gn3 
	.byte	W06
	.byte		        En3 
	.byte	W06
	.byte		        Dn3 
	.byte	W06
	.byte		PAN   , c_v+63
	.byte		N06   , Cn3 
	.byte	W06
	.byte		        En3 
	.byte	W06
	.byte		        Gn3 
	.byte	W06
	.byte		        Bn3 
	.byte	W06
	.byte		        Dn4 
	.byte	W06
	.byte		        Gn3 
	.byte	W06
	.byte		        Bn3 
	.byte	W06
	.byte		        Dn4 
	.byte	W06
	.byte		PAN   , c_v-64
	.byte		N06   , Gn4 
	.byte	W06
	.byte		        Cn4 
	.byte	W06
	.byte		        En4 
	.byte	W06
	.byte		        Gn4 
	.byte	W06
	.byte		        Bn4 
	.byte	W06
	.byte		        Dn5 
	.byte	W06
	.byte		        En5 
	.byte	W06
	.byte		        Gn5 
	.byte	W06
	.byte		PAN   , c_v+63
	.byte		N06   , Fs2 
	.byte	W06
	.byte		        As2 
	.byte	W06
	.byte		        En3 
	.byte	W06
	.byte		        Fs3 
	.byte	W06
	.byte		        An3 
	.byte	W06
	.byte		        As3 
	.byte	W06
	.byte		        En4 
	.byte	W06
	.byte		        Fs4 
	.byte	W06
	.byte		PAN   , c_v-64
	.byte		N06   , As3 
	.byte	W06
	.byte		        En4 
	.byte	W06
	.byte		        Fs4 
	.byte	W06
	.byte		PAN   , c_v+63
	.byte		N06   , As4 
	.byte	W06
	.byte		        En5 
	.byte	W06
	.byte		        Fs5 
	.byte	W06
	.byte		PAN   , c_v-64
	.byte		N06   , An5 
	.byte	W06
	.byte		        As5 
	.byte	W06
	.byte		PAN   , c_v+0
	.byte		N06   , Fs4 , v092
	.byte	W06
	.byte		        Fs4 , v072
	.byte	W06
	.byte		        Fs4 , v052
	.byte	W06
	.byte		        Fs4 , v032
	.byte	W06
	.byte		        Fs3 , v092
	.byte	W06
	.byte		        En3 
	.byte	W06
	.byte		        Fs3 
	.byte	W06
	.byte		        An3 
	.byte	W06
	.byte		PAN   , c_v-64
	.byte		N03   , Bn3 , v112
	.byte	W03
	.byte		        Bn3 , v072
	.byte	W03
	.byte		        Fn3 , v112
	.byte	W03
	.byte		        Fn3 , v072
	.byte	W03
	.byte		PAN   , c_v+63
	.byte		N03   , En3 , v112
	.byte	W03
	.byte		        En3 , v072
	.byte	W03
	.byte		        Dn3 , v112
	.byte	W03
	.byte		        Dn3 , v072
	.byte	W03
	.byte		PAN   , c_v+0
	.byte		N06   , Fs3 , v092
	.byte	W06
	.byte		        En3 
	.byte	W06
	.byte		        Fs3 
	.byte	W06
	.byte		        Gs3 
	.byte	W06
	.byte		PAN   , c_v+63
	.byte		N03   , Bn3 , v112
	.byte	W03
	.byte		        Bn3 , v072
	.byte	W03
	.byte		        En3 , v112
	.byte	W03
	.byte		        En3 , v072
	.byte	W03
	.byte		PAN   , c_v-64
	.byte		N03   , Dn3 , v112
	.byte	W03
	.byte		        Dn3 , v072
	.byte	W03
	.byte		        Bn2 , v112
	.byte	W03
	.byte		        Bn2 , v072
	.byte	W03
	.byte		PAN   , c_v+0
	.byte		N06   , Fs3 , v092
	.byte	W06
	.byte		        En3 
	.byte	W06
	.byte		        Fs3 
	.byte	W06
	.byte		        Cn4 
	.byte	W06
	.byte		PAN   , c_v-64
	.byte		N06   , Cn4 , v072
	.byte	W06
	.byte		        Cn4 , v052
	.byte	W06
	.byte		        Cn4 , v032
	.byte	W06
	.byte		PAN   , c_v+63
	.byte		N06   , Bn3 , v092
	.byte	W06
	.byte		        Bn3 , v072
	.byte	W06
	.byte		        Bn3 , v052
	.byte	W06
	.byte		PAN   , c_v-64
	.byte		N06   , An3 , v092
	.byte	W06
	.byte		        An3 , v052
	.byte	W06
	.byte		PAN   , c_v+0
	.byte		N06   , Fs4 , v092
	.byte	W06
	.byte		        Fs4 , v072
	.byte	W06
	.byte		        Fs4 , v052
	.byte	W06
	.byte		        Fs4 , v032
	.byte	W06
	.byte		        Fs3 , v092
	.byte	W06
	.byte		        En3 
	.byte	W06
	.byte		        Fs3 
	.byte	W06
	.byte		        An3 
	.byte	W06
	.byte		PAN   , c_v-64
	.byte		N03   , Bn3 , v112
	.byte	W03
	.byte		        Bn3 , v072
	.byte	W03
	.byte		        Fn3 , v112
	.byte	W03
	.byte		        Fn3 , v072
	.byte	W03
	.byte		PAN   , c_v+63
	.byte		N03   , En3 , v112
	.byte	W03
	.byte		        En3 , v072
	.byte	W03
	.byte		        Dn3 , v112
	.byte	W03
	.byte		        Dn3 , v072
	.byte	W03
	.byte		PAN   , c_v+0
	.byte		N06   , Fs3 , v092
	.byte	W06
	.byte		        En3 
	.byte	W06
	.byte		        Fs3 
	.byte	W06
	.byte		        Bn3 
	.byte	W06
	.byte		PAN   , c_v+63
	.byte		N03   , Bn3 , v112
	.byte	W03
	.byte		        Bn3 , v072
	.byte	W03
	.byte		        En3 , v112
	.byte	W03
	.byte		        En3 , v072
	.byte	W03
	.byte		PAN   , c_v-64
	.byte		N03   , Dn3 , v112
	.byte	W03
	.byte		        Dn3 , v072
	.byte	W03
	.byte		        Bn2 , v112
	.byte	W03
	.byte		        Bn2 , v072
	.byte	W03
	.byte		PAN   , c_v+0
	.byte		N06   , Fs3 , v092
	.byte	W06
	.byte		        En3 
	.byte	W06
	.byte		        Fs3 
	.byte	W06
	.byte		        Cn4 
	.byte	W06
	.byte		PAN   , c_v-64
	.byte		N03   , Bn3 , v100
	.byte	W03
	.byte		        Bn3 , v072
	.byte	W03
	.byte		        Cn4 , v100
	.byte	W03
	.byte		        Cn4 , v072
	.byte	W03
	.byte		        Cs4 , v100
	.byte	W03
	.byte		        Cs4 , v072
	.byte	W03
	.byte		PAN   , c_v+63
	.byte		N03   , Dn4 , v100
	.byte	W03
	.byte		        Dn4 , v072
	.byte	W03
	.byte		        Ds4 , v100
	.byte	W03
	.byte		        Ds4 , v072
	.byte	W03
	.byte		        En4 , v100
	.byte	W03
	.byte		        En4 , v072
	.byte	W03
	.byte		PAN   , c_v-64
	.byte		N03   , Fn4 , v100
	.byte	W03
	.byte		        Fn4 , v072
	.byte	W03
	.byte		        Fs4 , v100
	.byte	W03
	.byte		        Fs4 , v072
	.byte	W24
	.byte	W03
	.byte	GOTO
	 .word	seq_000_5 + 0x5E
	.byte	FINE

@******************************************************@

	.align	2

seq_000:
	.byte	6	@ NumTrks
	.byte	0	@ NumBlks
	.byte	seq_000_pri	@ Priority
	.byte	seq_000_rev	@ Reverb

	.word	seq_000_grp

	.word	seq_000_0
	.word	seq_000_1
	.word	seq_000_2
	.word	seq_000_3
	.word	seq_000_4
	.word	seq_000_5

	.end
