@ File generated by m4a2s Song-Module
	.include "MPlayDef.s"

	.equ	seq_000_grp, bank_000
	.equ	seq_000_pri, 0
	.equ	seq_000_rev, 168
	.equ	seq_000_mvl, 127
	.equ	seq_000_key, 0

	.section .rodata
	.global	seq_000
	.align	2

@*********************** Track 01 ***********************@

seq_000_0:
	.byte	KEYSH , seq_000_key+0
	.byte	TEMPO , 152/2
	.byte		VOICE , 0
	.byte	W03
	.byte		VOL   , 68*seq_000_mvl/mxv
	.byte	W03
	.byte		BENDR , 12
	.byte	W03
	.byte		PAN   , c_v+0
	.byte	W03
	.byte		N08   , Dn1 , v080
	.byte		N23   , Cs2 , v072
	.byte	W24
	.byte		N02   , Fs1 , v040
	.byte	W06
	.byte		        Fs1 , v052
	.byte	W06
	.byte		N08   , Cs2 , v060
	.byte	W12
	.byte		N02   , Fs1 , v072
	.byte	W06
	.byte		        Fs1 , v040
	.byte	W06
	.byte		N08   , Cs2 , v060
	.byte	W12
	.byte		N02   , Fs1 , v040
	.byte	W06
	.byte		        Fs1 , v072
	.byte	W06
	.byte		N08   , Cs2 , v060
	.byte	W12
	.byte		        Dn1 , v080
	.byte		N10   , Cs2 , v072
	.byte	W12
	.byte		N02   , Fs1 
	.byte	W04
	.byte		N02
	.byte	W04
	.byte		        Fs1 , v052
	.byte	W04
	.byte		N02
	.byte	W06
	.byte		N02
	.byte	W06
	.byte		N10   , As1 , v060
	.byte	W12
	.byte		N08   , Dn1 , v040
	.byte		N23   , Cs2 , v072
	.byte	W12
	.byte		N05   , Ds1 , v080
	.byte	W06
	.byte		N05
	.byte	W06
	.byte		N23   , Gs1 , v072
	.byte		N05   , Bn1 , v092
	.byte	W06
	.byte		N05
	.byte	W06
	.byte		N11   , Gn1 
	.byte	W12
	.byte		N08   , Dn1 , v080
	.byte		N23   , Cs2 , v072
	.byte	W18
	.byte		N05   , Dn1 , v060
	.byte	W06
	.byte		N08   , En1 , v080
	.byte		N02   , Fs1 , v052
	.byte	W06
	.byte		        Fs1 , v040
	.byte	W06
	.byte		N08   , Dn1 , v072
	.byte		N02   , Fs1 
	.byte	W06
	.byte		        Fs1 , v040
	.byte	W06
	.byte		        Fs1 , v052
	.byte	W06
	.byte		        Fs1 , v040
	.byte	W06
	.byte		N08   , Dn1 , v080
	.byte		N02   , Fs1 , v072
	.byte	W06
	.byte		        Fs1 , v040
	.byte	W06
	.byte		N08   , En1 , v080
	.byte		N02   , Fs1 , v052
	.byte	W06
	.byte		        Fs1 , v040
	.byte	W06
	.byte		N08   , Dn1 , v060
	.byte		N02   , Fs1 , v072
	.byte	W06
	.byte		        Fs1 , v040
	.byte	W06
	.byte		N08   , Dn1 , v080
	.byte		N02   , Fs1 , v052
	.byte	W06
	.byte		        Fs1 , v040
	.byte	W06
	.byte		        Fs1 , v072
	.byte	W06
	.byte		N05   , Dn1 , v060
	.byte		N02   , Fs1 , v040
	.byte	W06
	.byte		N08   , En1 , v080
	.byte		N02   , Fs1 , v052
	.byte	W06
	.byte		        Fs1 , v040
	.byte	W06
	.byte		N08   , Dn1 , v080
	.byte		N02   , Fs1 , v072
	.byte	W06
	.byte		        Fs1 , v040
	.byte	W06
	.byte		        Fs1 , v052
	.byte	W06
	.byte		        Fs1 , v040
	.byte	W06
	.byte		N05   , Dn1 , v080
	.byte		N02   , Fs1 , v072
	.byte	W06
	.byte		N05   , En1 , v080
	.byte		N02   , Fs1 , v040
	.byte	W06
	.byte		N08   , En1 , v080
	.byte		N02   , Fs1 , v052
	.byte	W06
	.byte		        Fs1 , v040
	.byte	W06
	.byte		N08   , Dn1 , v080
	.byte		N10   , As1 , v060
	.byte	W12
	.byte		N08   , Dn1 , v080
	.byte		N02   , Fs1 , v052
	.byte	W06
	.byte		        Fs1 , v040
	.byte	W06
	.byte		        Fs1 , v060
	.byte	W06
	.byte		N05   , Dn1 
	.byte		N02   , Fs1 , v040
	.byte	W06
	.byte		N08   , En1 , v080
	.byte		N02   , Fs1 , v052
	.byte	W06
	.byte		        Fs1 , v040
	.byte	W06
	.byte		N08   , Dn1 , v072
	.byte		N02   , Fs1 
	.byte	W06
	.byte		        Fs1 , v040
	.byte	W06
	.byte		        Fs1 , v052
	.byte	W06
	.byte		        Fs1 , v040
	.byte	W06
	.byte		N08   , Dn1 , v080
	.byte		N02   , Fs1 , v072
	.byte	W06
	.byte		        Fs1 , v040
	.byte	W06
	.byte		N08   , En1 , v080
	.byte		N02   , Fs1 , v052
	.byte	W06
	.byte		        Fs1 , v040
	.byte	W06
	.byte	PEND
	.byte		N08   , Dn1 , v060
	.byte		N02   , Fs1 , v072
	.byte	W06
	.byte		        Fs1 , v040
	.byte	W06
	.byte		N08   , Dn1 , v080
	.byte		N02   , Fs1 , v052
	.byte	W06
	.byte		        Fs1 , v040
	.byte	W06
	.byte		N05   , Dn1 , v060
	.byte		N02   , Fs1 , v072
	.byte	W06
	.byte		N05   , Dn1 , v052
	.byte		N02   , Fs1 , v040
	.byte	W06
	.byte		N08   , En1 , v080
	.byte		N02   , Fs1 , v052
	.byte	W06
	.byte		        Fs1 , v040
	.byte	W06
	.byte		N08   , Dn1 , v072
	.byte		N02   , Fs1 
	.byte	W06
	.byte		        Fs1 , v040
	.byte	W06
	.byte		        Fs1 , v052
	.byte	W06
	.byte		        Fs1 , v040
	.byte	W06
	.byte		N08   , Dn1 , v080
	.byte		N02   , Fs1 , v072
	.byte	W06
	.byte		N06   , As1 , v060
	.byte	W06
	.byte		N08   , Dn1 
	.byte	W06
	.byte		N05   , En1 
	.byte		N06   , As1 
	.byte	W06
	.byte		N05   , En1 , v072
	.byte	W06
	.byte		        Ds1 , v080
	.byte		N02   , Fs1 , v060
	.byte	W06
	.byte		N08   , Dn1 , v080
	.byte		N23   , Cs2 , v072
	.byte	W18
	.byte		N05   , Dn1 , v060
	.byte	W06
	.byte		N08   , En1 , v080
	.byte		N02   , Fs1 , v052
	.byte	W06
	.byte		        Fs1 , v040
	.byte	W06
	.byte		N08   , Dn1 , v072
	.byte		N02   , Fs1 
	.byte	W06
	.byte		        Fs1 , v040
	.byte	W06
	.byte		        Fs1 , v052
	.byte	W06
	.byte		        Fs1 , v040
	.byte	W06
	.byte		N08   , Dn1 , v080
	.byte		N02   , Fs1 , v072
	.byte	W06
	.byte		        Fs1 , v040
	.byte	W06
	.byte		N08   , En1 , v080
	.byte		N02   , Fs1 , v052
	.byte	W06
	.byte		        Fs1 , v040
	.byte	W06
	.byte		N08   , Dn1 , v060
	.byte		N02   , Fs1 , v072
	.byte	W06
	.byte		        Fs1 , v040
	.byte	W06
	.byte		N08   , Dn1 , v080
	.byte		N02   , Fs1 , v052
	.byte	W06
	.byte		        Fs1 , v040
	.byte	W06
	.byte		        Fs1 , v072
	.byte	W06
	.byte		N05   , Dn1 , v060
	.byte		N02   , Fs1 , v040
	.byte	W06
	.byte		N08   , En1 , v080
	.byte		N02   , Fs1 , v052
	.byte	W06
	.byte		        Fs1 , v040
	.byte	W06
	.byte		N08   , Dn1 , v080
	.byte		N02   , Fs1 , v072
	.byte	W06
	.byte		        Fs1 , v040
	.byte	W06
	.byte		        Fs1 , v052
	.byte	W06
	.byte		        Fs1 , v040
	.byte	W06
	.byte		N05   , Dn1 , v080
	.byte		N02   , Fs1 , v072
	.byte	W06
	.byte		N05   , En1 
	.byte		N02   , Fs1 , v040
	.byte	W06
	.byte		N05   , En1 , v080
	.byte		N02   , Fs1 , v052
	.byte	W06
	.byte		        Fs1 , v040
	.byte	W06
	.byte	PEND
	.byte	PATT
	 .word	seq_000_0 + 0xEF
	.byte		N08   , Dn1 , v060
	.byte		N02   , Fs1 , v072
	.byte	W06
	.byte		        Fs1 , v040
	.byte	W06
	.byte		N08   , Dn1 , v080
	.byte		N02   , Fs1 , v052
	.byte	W06
	.byte		        Fs1 , v040
	.byte	W06
	.byte		N05   , Dn1 , v060
	.byte		N02   , Fs1 , v072
	.byte	W06
	.byte		N05   , Dn1 , v052
	.byte		N02   , Fs1 , v040
	.byte	W06
	.byte		N08   , En1 , v080
	.byte		N02   , Fs1 , v052
	.byte	W06
	.byte		        Fs1 , v040
	.byte	W06
	.byte		N08   , Dn1 , v072
	.byte		N02   , Fs1 
	.byte	W06
	.byte		        Fs1 , v040
	.byte	W06
	.byte		N08   , En1 , v080
	.byte		N10   , As1 , v072
	.byte	W12
	.byte		N08   , Dn1 , v080
	.byte		N02   , Fs1 , v060
	.byte	W06
	.byte		        Fs1 , v040
	.byte	W06
	.byte		N05   , En1 , v052
	.byte		N23   , Gs1 , v072
	.byte	W06
	.byte		N05   , En1 , v060
	.byte	W06
	.byte		        En1 , v072
	.byte	W06
	.byte		        En1 , v080
	.byte	W06
	.byte		N08   , Dn1 
	.byte		N23   , Cs2 , v072
	.byte	W18
	.byte		N05   , Dn1 , v060
	.byte	W06
	.byte		N08   , Ds1 , v092
	.byte		N02   , Fs1 , v052
	.byte	W06
	.byte		        Fs1 , v040
	.byte	W06
	.byte		N08   , Dn1 , v072
	.byte		N02   , Fs1 
	.byte	W06
	.byte		        Fs1 , v040
	.byte	W06
	.byte		        Fs1 , v052
	.byte	W06
	.byte		        Fs1 , v040
	.byte	W06
	.byte		N08   , Dn1 , v080
	.byte		N02   , Fs1 , v072
	.byte	W06
	.byte		        Fs1 , v040
	.byte	W06
	.byte		N08   , Ds1 , v092
	.byte		N02   , Fs1 , v052
	.byte	W06
	.byte		        Fs1 , v040
	.byte	W06
	.byte		N08   , Dn1 , v060
	.byte		N10   , As1 
	.byte	W12
	.byte		N08   , Dn1 , v080
	.byte		N02   , Fs1 , v052
	.byte	W06
	.byte		        Fs1 , v040
	.byte	W06
	.byte		        Fs1 , v072
	.byte	W06
	.byte		N05   , Dn1 , v060
	.byte		N02   , Fs1 , v040
	.byte	W06
	.byte		N08   , Ds1 , v092
	.byte		N02   , Fs1 , v052
	.byte	W06
	.byte		        Fs1 , v040
	.byte	W06
	.byte		N08   , Dn1 , v080
	.byte		N02   , Fs1 , v072
	.byte	W06
	.byte		        Fs1 , v040
	.byte	W06
	.byte		        Fs1 , v052
	.byte	W06
	.byte		        Fs1 , v040
	.byte	W06
	.byte		N08   , Dn1 , v080
	.byte		N10   , As1 , v072
	.byte	W12
	.byte		N05   , Ds1 , v060
	.byte		N02   , Fs1 , v052
	.byte	W06
	.byte		N05   , Ds1 , v072
	.byte		N02   , Fs1 , v040
	.byte	W06
	.byte		N08   , Ds1 , v080
	.byte		N10   , As1 , v060
	.byte	W12
	.byte		N08   , Dn1 , v080
	.byte		N02   , Fs1 , v052
	.byte	W06
	.byte		        Fs1 , v040
	.byte	W06
	.byte		        Fs1 , v060
	.byte	W06
	.byte		N05   , Dn1 
	.byte		N02   , Fs1 , v040
	.byte	W06
	.byte		N08   , Ds1 , v092
	.byte		N02   , Fs1 , v052
	.byte	W06
	.byte		        Fs1 , v040
	.byte	W06
	.byte		N08   , Dn1 , v072
	.byte		N02   , Fs1 
	.byte	W06
	.byte		        Fs1 , v040
	.byte	W06
	.byte		        Fs1 , v052
	.byte	W06
	.byte		        Fs1 , v040
	.byte	W06
	.byte		N08   , Dn1 , v080
	.byte		N02   , Fs1 , v072
	.byte	W06
	.byte		        Fs1 , v040
	.byte	W06
	.byte		N08   , Ds1 , v092
	.byte		N02   , Fs1 , v052
	.byte	W06
	.byte		        Fs1 , v040
	.byte	W06
	.byte		N08   , Dn1 , v060
	.byte		N10   , As1 , v072
	.byte	W12
	.byte		N08   , Dn1 , v080
	.byte		N02   , Fs1 , v052
	.byte	W06
	.byte		        Fs1 , v040
	.byte	W06
	.byte		N05   , Dn1 , v060
	.byte		N02   , Fs1 , v072
	.byte	W06
	.byte		N05   , Dn1 , v052
	.byte		N02   , Fs1 , v040
	.byte	W06
	.byte		N08   , Ds1 , v092
	.byte		N02   , Fs1 , v052
	.byte	W06
	.byte		        Fs1 , v040
	.byte	W06
	.byte		N08   , Dn1 , v072
	.byte		N02   , Fs1 
	.byte	W06
	.byte		        Fs1 , v040
	.byte	W06
	.byte		N10   , Cs2 , v072
	.byte	W12
	.byte		N08   , Ds1 , v080
	.byte		N01   , Fs1 , v072
	.byte	W04
	.byte		N01
	.byte	W04
	.byte		        Fs1 , v052
	.byte	W04
	.byte		N08   , Dn1 , v060
	.byte		N06   , As1 
	.byte	W06
	.byte		N05   , Ds1 
	.byte	W06
	.byte		        Ds1 , v072
	.byte		N06   , As1 , v060
	.byte	W06
	.byte		N05   , Ds1 , v080
	.byte	W06
	.byte		N08   , Dn1 
	.byte		N23   , Cs2 , v072
	.byte	W18
	.byte		N05   , Dn1 , v060
	.byte	W06
	.byte		N08   , Ds1 , v092
	.byte		N02   , Fs1 , v052
	.byte	W06
	.byte		        Fs1 , v040
	.byte	W06
	.byte		N08   , Dn1 , v072
	.byte		N02   , Fs1 
	.byte	W06
	.byte		        Fs1 , v040
	.byte	W06
	.byte		        Cn1 , v052
	.byte	W06
	.byte		        Fs1 , v040
	.byte	W06
	.byte		N08   , Dn1 , v080
	.byte		N02   , Fs1 , v072
	.byte	W06
	.byte		        Fs1 , v040
	.byte	W06
	.byte		N08   , Ds1 , v092
	.byte		N02   , Fs1 , v052
	.byte	W06
	.byte		        Fs1 , v040
	.byte	W06
	.byte		N08   , Dn1 , v060
	.byte		N10   , As1 , v072
	.byte	W12
	.byte		N08   , Dn1 , v080
	.byte		N02   , Fs1 , v052
	.byte	W06
	.byte		        Fs1 , v040
	.byte	W06
	.byte		        Fs1 , v072
	.byte	W06
	.byte		N05   , Dn1 , v060
	.byte		N02   , Fs1 , v040
	.byte	W06
	.byte		N08   , Ds1 , v092
	.byte		N02   , Fs1 , v052
	.byte	W06
	.byte		        Fs1 , v040
	.byte	W06
	.byte		N08   , Dn1 , v080
	.byte		N02   , Fs1 , v072
	.byte	W06
	.byte		        Fs1 , v040
	.byte	W06
	.byte		        Fs1 , v052
	.byte	W06
	.byte		        Fs1 , v040
	.byte	W06
	.byte		N08   , Dn1 , v080
	.byte		N10   , As1 , v060
	.byte	W12
	.byte		N05   , Ds1 , v080
	.byte		N02   , Fs1 , v052
	.byte	W06
	.byte		N05   , Ds1 , v080
	.byte		N02   , Fs1 , v040
	.byte	W06
	.byte		N08   , Dn1 , v072
	.byte		N10   , As1 
	.byte	W12
	.byte		N08   , Dn1 , v080
	.byte		N02   , Fs1 , v052
	.byte	W06
	.byte		        Fs1 , v040
	.byte	W06
	.byte		        Fs1 , v060
	.byte	W06
	.byte		N05   , Dn1 
	.byte		N02   , Fs1 , v040
	.byte	W06
	.byte		N08   , Ds1 , v092
	.byte		N10   , As1 , v072
	.byte	W12
	.byte		N08   , Dn1 
	.byte		N02   , Fs1 
	.byte	W06
	.byte		        Fs1 , v040
	.byte	W06
	.byte		N10   , As1 , v072
	.byte	W12
	.byte		N08   , Dn1 , v080
	.byte		N02   , Fs1 , v072
	.byte	W06
	.byte		        Fs1 , v040
	.byte	W06
	.byte		N23   , Gs1 , v072
	.byte	W06
	.byte		N05   , Ds1 
	.byte	W06
	.byte		        Ds1 , v080
	.byte	W06
	.byte		        Ds1 , v092
	.byte	W06
	.byte		N08   , Dn1 , v080
	.byte		N23   , Cs2 , v072
	.byte	W18
	.byte		N01   , Ds1 , v080
	.byte	W01
	.byte		N08   , Ds1 , v092
	.byte	W05
	.byte		N02   , Fs1 , v040
	.byte	W06
	.byte		        Fs1 , v060
	.byte	W06
	.byte		N08   , Dn1 , v072
	.byte		N02   , Fs1 , v092
	.byte	W06
	.byte		        Fs1 , v040
	.byte	W06
	.byte		N01   , Cn2 , v072
	.byte		N18   , Cs2 
	.byte	W01
	.byte		N15   , Cn2 , v092
	.byte	W17
	.byte		N01   , Bn1 , v072
	.byte		N18   , Cs2 
	.byte	W01
	.byte		N15   , Bn1 , v092
	.byte	W17
	.byte		N02   , Fs1 , v072
	.byte		N01   , Gn1 
	.byte	W01
	.byte		N10   , Gn1 , v092
	.byte	W05
	.byte		N02   , Fs1 , v052
	.byte	W06
	.byte		N08   , Dn1 , v080
	.byte		N23   , Cs2 , v072
	.byte	W18
	.byte		N05   , Dn1 , v060
	.byte	W06
	.byte		N02   , Fs1 , v052
	.byte		N08   , Bn2 , v100
	.byte	W06
	.byte		N02   , Fs1 , v040
	.byte	W06
	.byte		N08   , Dn1 , v080
	.byte		N02   , Fs1 , v072
	.byte	W06
	.byte		        Fs1 , v040
	.byte	W06
	.byte		        Fs1 , v052
	.byte	W06
	.byte		        Fs1 , v040
	.byte	W06
	.byte		N08   , Dn1 , v080
	.byte		N02   , Fs1 , v072
	.byte	W06
	.byte		        Fs1 , v040
	.byte	W06
	.byte		        Fs1 , v052
	.byte		N08   , Bn2 , v100
	.byte	W06
	.byte		N02   , Fs1 , v040
	.byte	W06
	.byte		N08   , Dn1 , v080
	.byte		N02   , Fs1 , v072
	.byte	W06
	.byte		        Fs1 , v040
	.byte	W06
	.byte		N08   , Dn1 , v080
	.byte		N02   , Fs1 , v052
	.byte	W06
	.byte		        Fs1 , v040
	.byte	W06
	.byte		        Fs1 , v072
	.byte	W06
	.byte		N05   , Dn1 , v060
	.byte		N02   , Fs1 , v040
	.byte	W06
	.byte		        Fs1 , v052
	.byte		N08   , Bn2 , v100
	.byte	W06
	.byte		N02   , Fs1 , v040
	.byte	W06
	.byte		N08   , Dn1 , v080
	.byte		N02   , Fs1 , v072
	.byte	W06
	.byte		        Fs1 , v040
	.byte	W06
	.byte		        Fs1 , v052
	.byte	W06
	.byte		        Fs1 , v040
	.byte	W06
	.byte		N05   , Dn1 , v080
	.byte		N02   , Fs1 , v072
	.byte	W06
	.byte		        Fs1 , v040
	.byte		N05   , Bn2 , v092
	.byte	W06
	.byte		N02   , Fs1 , v052
	.byte		N08   , Bn2 , v100
	.byte	W06
	.byte		N02   , Fs1 , v040
	.byte	W06
	.byte		N08   , Dn1 , v080
	.byte		N10   , As1 , v060
	.byte	W12
	.byte		N08   , Dn1 , v080
	.byte		N02   , Fs1 , v052
	.byte	W06
	.byte		        Fs1 , v040
	.byte	W06
	.byte		        Fs1 , v060
	.byte	W06
	.byte		N05   , Dn1 
	.byte		N02   , Fs1 , v040
	.byte	W06
	.byte		        Fs1 , v052
	.byte		N08   , Bn2 , v100
	.byte	W06
	.byte		N02   , Fs1 , v040
	.byte	W06
	.byte		N08   , Dn1 , v072
	.byte		N02   , Fs1 
	.byte	W06
	.byte		        Fs1 , v040
	.byte	W06
	.byte		        Fs1 , v052
	.byte	W06
	.byte		        Fs1 , v040
	.byte	W06
	.byte		N08   , Dn1 , v080
	.byte		N02   , Fs1 , v072
	.byte	W06
	.byte		        Fs1 , v040
	.byte	W06
	.byte		        Fs1 , v052
	.byte		N08   , Bn2 , v100
	.byte	W06
	.byte		N02   , Fs1 , v040
	.byte	W06
	.byte		N08   , Dn1 , v060
	.byte		N02   , Fs1 , v072
	.byte	W06
	.byte		        Fs1 , v040
	.byte	W06
	.byte		N08   , Dn1 , v080
	.byte		N02   , Fs1 , v052
	.byte	W06
	.byte		        Fs1 , v040
	.byte	W06
	.byte		N05   , Dn1 , v060
	.byte		N02   , Fs1 , v072
	.byte	W06
	.byte		N05   , Dn1 , v052
	.byte		N02   , Fs1 , v040
	.byte	W06
	.byte		N10   , Cs2 , v052
	.byte		N08   , Bn2 , v100
	.byte	W12
	.byte		        Dn1 , v072
	.byte		N02   , Fs1 
	.byte	W04
	.byte		N02
	.byte	W04
	.byte		        Fs1 , v040
	.byte	W04
	.byte		        Fs1 , v052
	.byte	W06
	.byte		        Fs1 , v040
	.byte	W06
	.byte		N08   , Dn1 , v080
	.byte		N10   , As1 , v072
	.byte	W12
	.byte		N08   , Dn1 , v060
	.byte		N23   , Gs1 , v072
	.byte	W06
	.byte		N05   , En1 , v060
	.byte	W06
	.byte		        En1 , v072
	.byte	W06
	.byte		        En1 , v080
	.byte	W06
	.byte		N08   , Dn1 
	.byte		N23   , Cs2 , v072
	.byte	W18
	.byte		N05   , Dn1 , v060
	.byte	W06
	.byte		N08   , En1 , v080
	.byte		N02   , Fs1 , v052
	.byte	W06
	.byte		        Fs1 , v040
	.byte	W06
	.byte		N08   , Dn1 , v072
	.byte		N02   , Fs1 
	.byte	W06
	.byte		        Fs1 , v040
	.byte	W06
	.byte		        Fs1 , v052
	.byte	W06
	.byte		        Fs1 , v040
	.byte	W06
	.byte		N08   , Dn1 , v080
	.byte		N02   , Fs1 , v072
	.byte	W06
	.byte		        Fs1 , v040
	.byte	W06
	.byte		N08   , En1 , v080
	.byte		N02   , Fs1 , v052
	.byte	W06
	.byte		        Fs1 , v040
	.byte	W06
	.byte	PATT
	 .word	seq_000_0 + 0x1C7
	.byte	PATT
	 .word	seq_000_0 + 0xEF
	.byte		N08   , Dn1 , v060
	.byte		N02   , Fs1 , v072
	.byte	W06
	.byte		        Fs1 , v040
	.byte	W06
	.byte		N08   , Dn1 , v080
	.byte		N01   , Fs1 , v072
	.byte	W06
	.byte		        Fs1 , v052
	.byte	W06
	.byte		N05   , Dn1 , v060
	.byte		N06   , As1 , v080
	.byte	W06
	.byte		N05   , Dn1 , v052
	.byte	W06
	.byte		N08   , En1 , v080
	.byte		N06   , As1 
	.byte	W12
	.byte		N08   , Dn1 , v072
	.byte		N01   , Fs1 
	.byte	W06
	.byte		        Fs1 , v052
	.byte	W06
	.byte		N08   , En1 , v080
	.byte		N01   , Fs1 , v072
	.byte	W06
	.byte		        Fs1 , v052
	.byte	W06
	.byte		N08   , Dn1 , v080
	.byte		N08   , As1 , v072
	.byte	W12
	.byte		N05   , En1 , v052
	.byte		N08   , As1 , v072
	.byte	W06
	.byte		N05   , En1 , v060
	.byte	W06
	.byte		        En1 , v072
	.byte		N01   , Fs1 
	.byte	W06
	.byte		N05   , En1 , v080
	.byte		N01   , Fs1 , v052
	.byte	W06
	.byte	GOTO
	 .word	seq_000_0 + 0x67
	.byte	FINE

@*********************** Track 02 ***********************@

seq_000_1:
	.byte	KEYSH , seq_000_key+0
	.byte		VOICE , 4
	.byte	W01
	.byte		VOL   , 75*seq_000_mvl/mxv
	.byte	W01
	.byte		PAN   , c_v+0
	.byte	W01
	.byte	W01
	.byte		XCMD  , xIECV , 40
	.byte	W01
	.byte	W01
	.byte		        xIECL , 3
	.byte	W01
	.byte		BENDR , 12
	.byte	W01
	.byte		LFOS  , 31
	.byte	W01
	.byte		LFODL , 14
	.byte	W01
	.byte		MODT  , mod_vib
	.byte	W84
	.byte	W02
	.byte	W42
	.byte		N03   , Fn5 , v060
	.byte	W03
	.byte		        Fn5 , v040
	.byte	W03
	.byte		        As5 , v060
	.byte	W03
	.byte		        As5 , v040
	.byte	W03
	.byte		        Cn6 , v060
	.byte	W03
	.byte		        Cn6 , v040
	.byte	W03
	.byte		        An5 , v060
	.byte	W03
	.byte		        An5 , v040
	.byte	W03
	.byte		        Fn5 , v060
	.byte	W03
	.byte		        Fn5 , v040
	.byte	W03
	.byte		        An5 , v060
	.byte	W03
	.byte		        An5 , v040
	.byte	W03
	.byte		        Gn5 , v060
	.byte	W03
	.byte		        Gn5 , v040
	.byte	W03
	.byte		        Fn5 , v060
	.byte	W03
	.byte		        Fn5 , v040
	.byte	W03
	.byte		        En5 , v060
	.byte	W03
	.byte		        En5 , v040
	.byte	W03
	.byte		N06   , Fn3 , v100
	.byte	W06
	.byte		        Gn3 
	.byte	W06
	.byte		LFOS  , 27
	.byte		MOD   , 12
	.byte		N24   , An3 , v100
	.byte	W24
	.byte		N06   , An3 , v080
	.byte	W06
	.byte		        An3 , v060
	.byte	W06
	.byte		        Gn3 , v100
	.byte	W06
	.byte		        Fn3 
	.byte	W06
	.byte		N24   , Gn3 
	.byte	W24
	.byte		N06   , Gn3 , v080
	.byte	W06
	.byte		        Gn3 , v060
	.byte	W06
	.byte		N06   , Fn3 , v100
	.byte	W06
	.byte		        En3 
	.byte	W06
	.byte		N24   , Fn3 
	.byte	W24
	.byte		N06   , Fn3 , v080
	.byte	W06
	.byte		        Fn3 , v060
	.byte	W06
	.byte		        En3 , v100
	.byte	W06
	.byte		        Dn3 
	.byte	W06
	.byte		N18   , En3 
	.byte	W18
	.byte		        Fn3 
	.byte	W18
	.byte	PEND
	.byte		N12   , Gn3 
	.byte	W12
	.byte		N18   , En3 
	.byte	W18
	.byte		        Cn3 
	.byte	W18
	.byte		N12   , An2 
	.byte	W12
	.byte		N36   , Bn2 
	.byte	W36
	.byte		N06   , Bn2 , v080
	.byte	W06
	.byte		        Bn2 , v060
	.byte	W06
	.byte		VOICE , 24
	.byte		LFOS  , 31
	.byte		MOD   , 6
	.byte		N06   , An2 , v112
	.byte	W06
	.byte		        An2 , v072
	.byte	W06
	.byte		        An2 , v052
	.byte	W06
	.byte		        Dn2 , v112
	.byte	W06
	.byte		        Dn2 , v072
	.byte	W06
	.byte		        Dn2 , v052
	.byte	W06
	.byte		N03   , Gn2 , v112
	.byte	W06
	.byte		        An2 
	.byte	W06
	.byte		N06   , Bn2 
	.byte	W06
	.byte		        Bn2 , v072
	.byte	W06
	.byte		        Bn2 , v052
	.byte	W06
	.byte		        Dn2 , v112
	.byte	W06
	.byte		        Dn2 , v072
	.byte	W06
	.byte		        Bn2 , v112
	.byte	W06
	.byte		VOICE , 4
	.byte		LFOS  , 27
	.byte		MOD   , 12
	.byte		N06   , Fn3 , v100
	.byte	W06
	.byte		        Gn3 
	.byte	W06
	.byte		N24   , An3 
	.byte	W24
	.byte		N06   , An3 , v080
	.byte	W06
	.byte		        An3 , v060
	.byte	W06
	.byte		        Gn3 , v100
	.byte	W06
	.byte		        Fn3 
	.byte	W06
	.byte		N24   , Gn3 
	.byte	W24
	.byte		N06   , Gn3 , v080
	.byte	W06
	.byte		        Gn3 , v060
	.byte	W06
	.byte	PATT
	 .word	seq_000_1 + 0x7D
	.byte		N12   , Gn3 , v100
	.byte	W12
	.byte		N18   , Cn4 
	.byte	W18
	.byte		        An3 
	.byte	W18
	.byte		N12   , Fn3 
	.byte	W12
	.byte		N36   , Gs3 
	.byte	W36
	.byte		N06   , Gs3 , v080
	.byte	W06
	.byte		        Gs3 , v060
	.byte	W06
	.byte		VOICE , 24
	.byte		LFOS  , 31
	.byte		MOD   , 6
	.byte		N06   , Dn2 , v092
	.byte	W06
	.byte		        An1 
	.byte	W06
	.byte		        Dn2 
	.byte	W06
	.byte		        Fn2 
	.byte	W06
	.byte		        An2 
	.byte	W06
	.byte		        Dn3 
	.byte	W06
	.byte		        Fn3 , v080
	.byte	W06
	.byte		        An3 
	.byte	W06
	.byte		        Dn4 
	.byte	W06
	.byte		        Fn4 
	.byte	W06
	.byte		        An4 
	.byte	W06
	.byte		        Dn5 
	.byte	W06
	.byte		        Dn4 , v112
	.byte	W06
	.byte		        En4 
	.byte	W06
	.byte		        Fn4 
	.byte	W06
	.byte		        An4 
	.byte	W06
	.byte		N72   , Dn5 
	.byte	W72
	.byte		N06   , Dn5 , v092
	.byte	W06
	.byte		        Dn5 , v072
	.byte	W06
	.byte		        Cn5 , v112
	.byte	W06
	.byte		        As4 
	.byte	W06
	.byte		N18   , An4 
	.byte	W18
	.byte		        As4 
	.byte	W18
	.byte		N12   , Cn5 
	.byte	W12
	.byte		N30   , En4 
	.byte	W30
	.byte		N06   , En4 , v092
	.byte	W06
	.byte		        Fn4 , v112
	.byte	W06
	.byte		        Gn4 
	.byte	W06
	.byte		        An4 
	.byte	W06
	.byte		        An4 , v072
	.byte	W06
	.byte		        Gn4 , v112
	.byte	W06
	.byte		        Fn4 
	.byte	W06
	.byte		        Gn4 
	.byte	W06
	.byte		        Gn4 , v072
	.byte	W06
	.byte		        Fn4 , v112
	.byte	W06
	.byte		        En4 
	.byte	W06
	.byte		        Fn4 
	.byte	W06
	.byte		        Fn4 , v072
	.byte	W06
	.byte		        En4 , v112
	.byte	W06
	.byte		        Dn4 
	.byte	W06
	.byte		N03   , En4 
	.byte	W03
	.byte		        En4 , v072
	.byte	W03
	.byte		        Dn4 , v112
	.byte	W03
	.byte		        Dn4 , v072
	.byte	W03
	.byte		        Cn4 , v112
	.byte	W03
	.byte		        Cn4 , v072
	.byte	W03
	.byte		N06   , An3 , v112
	.byte	W06
	.byte		N18   , Dn4 
	.byte	W18
	.byte		        Fs4 
	.byte	W18
	.byte		N12   , Gn4 
	.byte	W12
	.byte		N23   , An4 
	.byte	W20
	.byte		BEND  , c_v-3
	.byte	W01
	.byte		        c_v-6
	.byte	W01
	.byte		        c_v-8
	.byte	W01
	.byte		        c_v-12
	.byte	W01
	.byte		        c_v+0
	.byte		N24   , Dn4 
	.byte	W12
	.byte	W12
	.byte		VOICE , 4
	.byte		N72   , Dn5 , v092
	.byte	W72
	.byte		N06   , Dn5 , v072
	.byte	W06
	.byte		        Dn5 , v052
	.byte	W06
	.byte		        Cn5 , v092
	.byte	W06
	.byte		        Dn5 
	.byte	W06
	.byte		N18   , En5 
	.byte	W18
	.byte		        Dn5 
	.byte	W18
	.byte		N12   , En5 
	.byte	W12
	.byte		N18   , Gn5 
	.byte	W18
	.byte		        Fn5 
	.byte	W18
	.byte		N12   , En5 
	.byte	W12
	.byte		N48   , Dn5 
	.byte	W48
	.byte		N06   , Dn5 , v060
	.byte	W06
	.byte		        Dn5 , v032
	.byte	W06
	.byte		        Dn5 , v092
	.byte	W06
	.byte		        Dn5 , v060
	.byte	W06
	.byte		        Dn5 , v032
	.byte	W06
	.byte		        Bn4 , v092
	.byte	W06
	.byte		        Bn4 , v060
	.byte	W06
	.byte		        Bn4 , v032
	.byte	W06
	.byte		N12   , Cs5 , v092
	.byte	W12
	.byte		N06   , Cs5 , v052
	.byte	W06
	.byte		        Cs5 , v032
	.byte	W06
	.byte		        Cs5 , v012
	.byte	W24
	.byte		        Cn5 , v100
	.byte	W06
	.byte		        Cn5 , v060
	.byte	W06
	.byte		        Cn5 , v040
	.byte	W06
	.byte		        As4 , v100
	.byte	W06
	.byte		        As4 , v060
	.byte	W06
	.byte		        As4 , v040
	.byte	W06
	.byte		        An4 , v100
	.byte	W06
	.byte		        An4 , v060
	.byte	W06
	.byte		VOICE , 12
	.byte		N15   , Dn3 , v052
	.byte	W18
	.byte		PAN   , c_v-64
	.byte		N15   , Cn3 , v060
	.byte	W18
	.byte		PAN   , c_v+63
	.byte		N10   , Bn2 
	.byte	W12
	.byte		PAN   , c_v+0
	.byte		N15   , Cn3 , v052
	.byte	W18
	.byte		PAN   , c_v+63
	.byte		N15   , Bn2 , v060
	.byte	W18
	.byte		PAN   , c_v-64
	.byte		N10   , An2 , v060
	.byte	W12
	.byte		PAN   , c_v+0
	.byte		N15   , As2 , v052
	.byte	W18
	.byte		PAN   , c_v-64
	.byte		N15   , An2 , v060
	.byte	W18
	.byte		PAN   , c_v+63
	.byte		N10   , Gn2 
	.byte	W12
	.byte		PAN   , c_v+0
	.byte		N15   , An2 , v052
	.byte	W18
	.byte		PAN   , c_v-64
	.byte		N15   , Gn2 , v060
	.byte	W18
	.byte	PEND
	.byte		PAN   , c_v+63
	.byte		N10   , Fn2 , v060
	.byte	W12
	.byte		N15   , Ds3 , v052
	.byte	W18
	.byte		PAN   , c_v-64
	.byte		N15   , Cs3 , v060
	.byte	W18
	.byte		PAN   , c_v+63
	.byte		N10   , Cn3 
	.byte	W12
	.byte		PAN   , c_v+0
	.byte		N15   , Cs3 , v052
	.byte	W18
	.byte		PAN   , c_v+63
	.byte		N15   , Cn3 , v060
	.byte	W18
	.byte	PEND
	.byte		PAN   , c_v-64
	.byte		N10   , As2 
	.byte	W12
	.byte		PAN   , c_v+0
	.byte		N15   , Bn2 , v052
	.byte	W18
	.byte		PAN   , c_v-64
	.byte		N15   , As2 , v060
	.byte	W18
	.byte		PAN   , c_v+63
	.byte		N10   , Gs2 
	.byte	W12
	.byte		PAN   , c_v+0
	.byte		N15   , As2 , v052
	.byte	W18
	.byte		PAN   , c_v-64
	.byte		N15   , Gs2 , v060
	.byte	W18
	.byte		PAN   , c_v+63
	.byte		N10   , Fs2 
	.byte	W12
	.byte		N15   , Dn3 , v052
	.byte	W18
	.byte		PAN   , c_v-64
	.byte		N15   , Cn3 , v060
	.byte	W18
	.byte		PAN   , c_v+63
	.byte		N10   , Bn2 
	.byte	W12
	.byte		PAN   , c_v+0
	.byte		N15   , Cn3 , v052
	.byte	W18
	.byte		PAN   , c_v+63
	.byte		N15   , Bn2 , v060
	.byte	W18
	.byte	PATT
	 .word	seq_000_1 + 0x239
	.byte	PATT
	 .word	seq_000_1 + 0x25D
	.byte		PAN   , c_v-64
	.byte		N10   , As2 , v060
	.byte	W12
	.byte		PAN   , c_v+0
	.byte		N15   , Bn2 , v052
	.byte	W18
	.byte		PAN   , c_v-64
	.byte		N15   , As2 , v060
	.byte	W18
	.byte		PAN   , c_v+63
	.byte		N10   , Gs2 
	.byte	W12
	.byte		VOICE , 4
	.byte		PAN   , c_v+0
	.byte		N03   , Cn6 
	.byte	W03
	.byte		        Cn6 , v040
	.byte	W03
	.byte		        Fs5 , v060
	.byte	W03
	.byte		        Fs5 , v040
	.byte	W03
	.byte		        Ds5 , v060
	.byte	W03
	.byte		        Ds5 , v040
	.byte	W03
	.byte		        Bn5 , v060
	.byte	W03
	.byte		        Bn5 , v040
	.byte	W03
	.byte		        Fn5 , v060
	.byte	W03
	.byte		        Fn5 , v040
	.byte	W03
	.byte		        Dn5 , v060
	.byte	W03
	.byte		        Dn5 , v040
	.byte	W03
	.byte		PAN   , c_v+0
	.byte		N06   , Fn3 , v100
	.byte	W06
	.byte		N05   , Gn3 
	.byte	W06
	.byte	GOTO
	 .word	seq_000_1 + 0x5F
	.byte	FINE

@*********************** Track 03 ***********************@

seq_000_2:
	.byte	KEYSH , seq_000_key+0
	.byte		VOICE , 27
	.byte	W02
	.byte		VOL   , 45*seq_000_mvl/mxv
	.byte	W02
	.byte		PAN   , c_v+0
	.byte	W02
	.byte		BENDR , 12
	.byte	W02
	.byte		MODT  , mod_vib
	.byte	W04
	.byte		N05   , Cn4 , v092
	.byte	W06
	.byte		        Cn4 , v052
	.byte	W06
	.byte		        Dn3 , v092
	.byte	W06
	.byte		        Cn4 
	.byte	W06
	.byte		        Cn4 , v052
	.byte	W06
	.byte		        Dn3 , v092
	.byte	W06
	.byte		        Cn4 
	.byte	W06
	.byte		        Cn4 , v052
	.byte	W06
	.byte		        Bn3 , v092
	.byte	W06
	.byte		        Bn3 , v052
	.byte	W06
	.byte		        Dn3 , v092
	.byte	W06
	.byte		        Bn3 
	.byte	W06
	.byte		        Bn3 , v052
	.byte	W06
	.byte		        Dn3 , v092
	.byte	W06
	.byte		N05   , Bn3 , v092
	.byte	W06
	.byte		        Bn3 , v052
	.byte	W06
	.byte		        As3 , v092
	.byte	W06
	.byte		        As3 , v052
	.byte	W06
	.byte		        Dn3 , v092
	.byte	W06
	.byte		        As3 
	.byte	W06
	.byte		        As3 , v052
	.byte	W06
	.byte		        Dn3 , v092
	.byte	W06
	.byte		        As3 
	.byte	W06
	.byte		        As3 , v052
	.byte	W06
	.byte		        Bn3 , v092
	.byte	W06
	.byte		        Bn3 , v052
	.byte	W06
	.byte		        Dn3 , v092
	.byte	W06
	.byte		        Bn3 
	.byte	W06
	.byte		        Bn3 , v052
	.byte	W06
	.byte		        Dn3 , v092
	.byte	W06
	.byte	PEND
	.byte		        Bn3 
	.byte	W06
	.byte		        Bn3 , v052
	.byte	W06
	.byte		N05   , Cn4 , v092
	.byte	W06
	.byte		        Cn4 , v052
	.byte	W06
	.byte		        Dn3 , v092
	.byte	W06
	.byte		        Cn4 
	.byte	W06
	.byte		        Cn4 , v052
	.byte	W06
	.byte		        Dn3 , v092
	.byte	W06
	.byte		        Cn4 
	.byte	W06
	.byte		        Cn4 , v052
	.byte	W06
	.byte		        Bn3 , v092
	.byte	W06
	.byte		        Bn3 , v052
	.byte	W06
	.byte		        Dn3 , v092
	.byte	W06
	.byte		        Bn3 
	.byte	W06
	.byte		        Bn3 , v052
	.byte	W06
	.byte		        Dn3 , v092
	.byte	W06
	.byte	PATT
	 .word	seq_000_2 + 0x39
	.byte		N05   , Bn3 , v092
	.byte	W06
	.byte		        Bn3 , v052
	.byte	W06
	.byte		        Cn4 , v092
	.byte	W06
	.byte		        Cn4 , v052
	.byte	W06
	.byte		        Dn3 , v092
	.byte	W06
	.byte		        Cn4 
	.byte	W06
	.byte		        Cn4 , v052
	.byte	W06
	.byte		        Dn3 , v092
	.byte	W06
	.byte		        Cn4 
	.byte	W06
	.byte		        Cn4 , v052
	.byte	W06
	.byte		        Bn3 , v092
	.byte	W06
	.byte		        Bn3 , v052
	.byte	W06
	.byte		        Dn3 , v092
	.byte	W06
	.byte		        Bn3 
	.byte	W06
	.byte		        Bn3 , v052
	.byte	W06
	.byte		        Dn3 , v092
	.byte	W06
	.byte	PEND
	.byte	PATT
	 .word	seq_000_2 + 0x39
	.byte	PATT
	 .word	seq_000_2 + 0x9A
	.byte	PATT
	 .word	seq_000_2 + 0x39
	.byte	PATT
	 .word	seq_000_2 + 0x9A
	.byte	PATT
	 .word	seq_000_2 + 0x39
	.byte		N05   , Bn3 , v092
	.byte	W06
	.byte		        Bn3 , v052
	.byte	W06
	.byte		VOICE , 28
	.byte		N92   , An2 , v112
	.byte	W84
	.byte	W12
	.byte		VOICE , 23
	.byte		N92   , Fs2 , v120
	.byte	W84
	.byte	PEND
	.byte	W12
	.byte		N92
	.byte	W84
	.byte	W12
	.byte		        Gs2 
	.byte	W84
	.byte	W12
	.byte		VOICE , 28
	.byte		N92   , An2 , v112
	.byte	W84
	.byte	PATT
	 .word	seq_000_2 + 0xEF
	.byte	W12
	.byte		N32   , Gs2 , v120
	.byte	W36
	.byte		N11   , Gs2 , v080
	.byte	W12
	.byte		VOICE , 5
	.byte		N11   , Fs2 , v036
	.byte		N11   , An2 
	.byte	W12
	.byte		        Fs2 , v052
	.byte		N11   , An2 
	.byte	W12
	.byte		N23   , Fs2 , v076
	.byte		N23   , An2 
	.byte	W12
	.byte	W12
	.byte		VOICE , 6
	.byte		N05   , Cn2 , v127
	.byte		N05   , As2 
	.byte	W06
	.byte		        Cn2 , v072
	.byte		N05   , As2 
	.byte	W06
	.byte		        Cn2 , v040
	.byte		N05   , As2 
	.byte	W06
	.byte		        Cn2 , v100
	.byte		N05   , As2 
	.byte	W06
	.byte		        Cn2 , v060
	.byte		N05   , As2 
	.byte	W06
	.byte		        Cn2 , v032
	.byte		N05   , As2 
	.byte	W06
	.byte		        As2 , v060
	.byte	W06
	.byte		        As2 , v032
	.byte	W06
	.byte		        Cn3 , v127
	.byte	W06
	.byte		        Cn3 , v072
	.byte	W06
	.byte		        Cn3 , v040
	.byte	W06
	.byte		        Fs2 , v127
	.byte	W06
	.byte		        Fs2 , v072
	.byte	W06
	.byte		        Fs2 , v040
	.byte	W06
	.byte		        Fs2 , v127
	.byte	W06
	.byte		        Fs2 , v072
	.byte	W06
	.byte		VOICE , 27
	.byte		N05   , Cn4 , v100
	.byte	W06
	.byte		        Cn4 , v060
	.byte	W06
	.byte		        Dn3 , v100
	.byte	W06
	.byte		        Cn4 
	.byte	W06
	.byte		        Cn4 , v060
	.byte	W06
	.byte		        Dn3 , v100
	.byte	W06
	.byte		        Cn4 
	.byte	W06
	.byte		        Cn4 , v060
	.byte	W06
	.byte		        Bn3 , v100
	.byte	W06
	.byte		        Bn3 , v060
	.byte	W06
	.byte		        Dn3 , v100
	.byte	W06
	.byte		        Bn3 
	.byte	W06
	.byte		        Bn3 , v060
	.byte	W06
	.byte		        Dn3 , v100
	.byte	W06
	.byte		N05   , Bn3 , v100
	.byte	W06
	.byte		        Bn3 , v060
	.byte	W06
	.byte		        As3 , v100
	.byte	W06
	.byte		        As3 , v060
	.byte	W06
	.byte		        Dn3 , v100
	.byte	W06
	.byte		        As3 
	.byte	W06
	.byte		        As3 , v060
	.byte	W06
	.byte		        Dn3 , v100
	.byte	W06
	.byte		        As3 
	.byte	W06
	.byte		        As3 , v060
	.byte	W06
	.byte		        Bn3 , v100
	.byte	W06
	.byte		        Bn3 , v060
	.byte	W06
	.byte		        Dn3 , v100
	.byte	W06
	.byte		        Bn3 
	.byte	W06
	.byte		        Bn3 , v060
	.byte	W06
	.byte		        Dn3 , v100
	.byte	W06
	.byte	PEND
	.byte		N05   , Bn3 , v100
	.byte	W06
	.byte		        Bn3 , v060
	.byte	W06
	.byte		        Cs4 , v100
	.byte	W06
	.byte		        Cs4 , v060
	.byte	W06
	.byte		        Ds3 , v100
	.byte	W06
	.byte		        Cs4 
	.byte	W06
	.byte		        Cs4 , v060
	.byte	W06
	.byte		        Ds3 , v100
	.byte	W06
	.byte		        Cs4 
	.byte	W06
	.byte		        Cs4 , v060
	.byte	W06
	.byte		        Cn4 , v100
	.byte	W06
	.byte		        Cn4 , v060
	.byte	W06
	.byte		        Ds3 , v100
	.byte	W06
	.byte		        Cn4 
	.byte	W06
	.byte		        Cn4 , v060
	.byte	W06
	.byte		        Ds3 , v100
	.byte	W06
	.byte	PEND
	.byte		        Cn4 
	.byte	W06
	.byte		        Cn4 , v060
	.byte	W06
	.byte		        Bn3 , v100
	.byte	W06
	.byte		        Bn3 , v060
	.byte	W06
	.byte		        Ds3 , v100
	.byte	W06
	.byte		        Bn3 
	.byte	W06
	.byte		        Bn3 , v060
	.byte	W06
	.byte		        Ds3 , v100
	.byte	W06
	.byte		        Bn3 
	.byte	W06
	.byte		        Bn3 , v060
	.byte	W06
	.byte		        Cn4 , v100
	.byte	W06
	.byte		        Cn4 , v060
	.byte	W06
	.byte		        Ds3 , v100
	.byte	W06
	.byte		        Cn4 
	.byte	W06
	.byte		        Cn4 , v060
	.byte	W06
	.byte		        Ds3 , v100
	.byte	W06
	.byte		        Cn4 
	.byte	W06
	.byte		        Cn4 , v060
	.byte	W06
	.byte		        Cn4 , v100
	.byte	W06
	.byte		        Cn4 , v060
	.byte	W06
	.byte		        Dn3 , v100
	.byte	W06
	.byte		        Cn4 
	.byte	W06
	.byte		        Cn4 , v060
	.byte	W06
	.byte		        Dn3 , v100
	.byte	W06
	.byte		        Cn4 
	.byte	W06
	.byte		        Cn4 , v060
	.byte	W06
	.byte		        Bn3 , v100
	.byte	W06
	.byte		        Bn3 , v060
	.byte	W06
	.byte		        Dn3 , v100
	.byte	W06
	.byte		        Bn3 
	.byte	W06
	.byte		        Bn3 , v060
	.byte	W06
	.byte		        Dn3 , v100
	.byte	W06
	.byte	PATT
	 .word	seq_000_2 + 0x18F
	.byte	PATT
	 .word	seq_000_2 + 0x1BE
	.byte		N05   , Cn4 , v100
	.byte	W06
	.byte		        Cn4 , v060
	.byte	W06
	.byte		        Bn3 , v100
	.byte	W06
	.byte		        Bn3 , v060
	.byte	W06
	.byte		        Ds3 , v100
	.byte	W06
	.byte		        Bn3 
	.byte	W06
	.byte		        Bn3 , v060
	.byte	W06
	.byte		        Ds3 , v100
	.byte	W06
	.byte		        Bn3 
	.byte	W06
	.byte		        Bn3 , v060
	.byte	W06
	.byte		        Cn4 , v100
	.byte	W06
	.byte		        Cn4 , v060
	.byte	W06
	.byte		        Ds3 , v100
	.byte	W06
	.byte		        Bn3 
	.byte	W06
	.byte		        Bn3 , v060
	.byte	W06
	.byte		        Dn3 , v100
	.byte	W06
	.byte		        As3 
	.byte	W06
	.byte		        As3 , v060
	.byte	W06
	.byte	GOTO
	 .word	seq_000_2 + 0x6D
	.byte	FINE

@*********************** Track 04 ***********************@

seq_000_3:
	.byte	KEYSH , seq_000_key+0
	.byte		VOICE , 3
	.byte	W01
	.byte		VOL   , 96*seq_000_mvl/mxv
	.byte	W01
	.byte		PAN   , c_v+0
	.byte	W01
	.byte	W01
	.byte		XCMD  , xIECV , 40
	.byte	W01
	.byte	W01
	.byte		        xIECL , 3
	.byte	W01
	.byte		BENDR , 12
	.byte	W01
	.byte		LFOS  , 28
	.byte	W01
	.byte		LFODL , 14
	.byte	W01
	.byte		MOD   , 3
	.byte	W02
	.byte		N12   , Dn2 , v127
	.byte	W12
	.byte		N06   , Dn2 , v080
	.byte	W06
	.byte		        Dn2 , v052
	.byte	W06
	.byte		        Dn2 , v032
	.byte	W60
	.byte	W72
	.byte		N12   , Gn2 , v127
	.byte	W18
	.byte		N06   , An2 
	.byte	W06
	.byte		        Ds2 
	.byte	W06
	.byte		        Fn2 
	.byte	W06
	.byte		N06   , Dn2 , v127
	.byte	W06
	.byte		        Dn2 , v080
	.byte	W06
	.byte		        Dn2 , v052
	.byte	W06
	.byte		N18   , Cn3 , v127
	.byte	W18
	.byte		N06   , Bn2 
	.byte	W06
	.byte		        Bn2 , v080
	.byte	W06
	.byte		        Dn2 , v127
	.byte	W06
	.byte		        Dn2 , v080
	.byte	W06
	.byte		        Dn2 , v052
	.byte	W06
	.byte		N18   , Bn2 , v127
	.byte	W18
	.byte		N06   , As2 , v127
	.byte	W06
	.byte		        As2 , v080
	.byte	W06
	.byte		        Dn2 , v127
	.byte	W06
	.byte		        Dn2 , v080
	.byte	W06
	.byte		        Dn2 , v052
	.byte	W06
	.byte		N18   , As2 , v127
	.byte	W18
	.byte		N06   , An2 
	.byte	W06
	.byte		        An2 , v080
	.byte	W06
	.byte		        Dn2 , v127
	.byte	W06
	.byte		        Dn2 , v080
	.byte	W06
	.byte		        Dn2 , v052
	.byte	W06
	.byte		N18   , An2 , v127
	.byte	W18
	.byte	PEND
	.byte		N06   , Bn2 , v127
	.byte	W06
	.byte		        Bn2 , v080
	.byte	W06
	.byte		        Dn2 , v127
	.byte	W06
	.byte		        Dn2 , v080
	.byte	W06
	.byte		        Dn2 , v052
	.byte	W06
	.byte		N18   , Cn3 , v127
	.byte	W18
	.byte		N06   , Bn2 
	.byte	W06
	.byte		        Bn2 , v080
	.byte	W06
	.byte		        Dn2 , v127
	.byte	W06
	.byte		        Dn2 , v080
	.byte	W06
	.byte		        Dn2 , v052
	.byte	W06
	.byte		N18   , Bn2 , v127
	.byte	W18
	.byte	PEND
	.byte		N06   , As2 , v127
	.byte	W06
	.byte		        As2 , v080
	.byte	W06
	.byte		        Dn2 , v127
	.byte	W06
	.byte		        Dn2 , v080
	.byte	W06
	.byte		        Dn2 , v052
	.byte	W06
	.byte		N18   , As2 , v127
	.byte	W18
	.byte		N06   , An2 
	.byte	W06
	.byte		        An2 , v080
	.byte	W06
	.byte		        Dn2 , v127
	.byte	W06
	.byte		        Dn2 , v080
	.byte	W06
	.byte		        Dn2 , v052
	.byte	W06
	.byte		N12   , An2 , v127
	.byte	W12
	.byte		N06
	.byte	W06
	.byte	PEND
	.byte		        Bn2 
	.byte	W06
	.byte		        Cs3 
	.byte	W06
	.byte		        Dn2 
	.byte	W06
	.byte		        Dn2 , v080
	.byte	W06
	.byte		        Dn2 , v052
	.byte	W06
	.byte		N18   , Cn3 , v127
	.byte	W18
	.byte		N06   , Bn2 
	.byte	W06
	.byte		        Bn2 , v080
	.byte	W06
	.byte		        Dn2 , v127
	.byte	W06
	.byte		        Dn2 , v080
	.byte	W06
	.byte		        Dn2 , v052
	.byte	W06
	.byte		N18   , Bn2 , v127
	.byte	W18
	.byte	PATT
	 .word	seq_000_3 + 0x5B
	.byte	PATT
	 .word	seq_000_3 + 0x83
	.byte	PATT
	 .word	seq_000_3 + 0xAB
	.byte		N06   , Bn2 , v127
	.byte	W06
	.byte		        Cs3 
	.byte	W06
	.byte		        As2 
	.byte	W06
	.byte		        As2 , v080
	.byte	W06
	.byte		        As2 , v052
	.byte	W06
	.byte		N18   , An2 , v127
	.byte	W18
	.byte		N06   , As2 
	.byte	W06
	.byte		        As2 , v080
	.byte	W06
	.byte		N18   , As2 , v127
	.byte	W18
	.byte		N12   , An2 
	.byte	W12
	.byte		N06   , As2 
	.byte	W06
	.byte		N06   , An2 , v127
	.byte	W06
	.byte		        As2 
	.byte	W06
	.byte		        Cn3 
	.byte	W06
	.byte		        Cn3 , v080
	.byte	W06
	.byte		        Cn3 , v052
	.byte	W06
	.byte		N18   , Bn2 , v127
	.byte	W18
	.byte		N06   , Cn3 
	.byte	W06
	.byte		        Cn3 , v080
	.byte	W06
	.byte		N18   , Bn2 , v127
	.byte	W18
	.byte		N12   , Cn3 
	.byte	W12
	.byte		N06   , En3 
	.byte	W06
	.byte	PEND
	.byte		        Dn3 
	.byte	W06
	.byte		        Cn3 
	.byte	W06
	.byte		        Dn2 
	.byte	W06
	.byte		        Dn2 , v080
	.byte	W06
	.byte		        Dn2 , v052
	.byte	W06
	.byte		N18   , Cn2 , v127
	.byte	W18
	.byte		        Dn2 
	.byte	W18
	.byte		N12   , Dn3 
	.byte	W12
	.byte		N06   , Dn2 
	.byte	W06
	.byte		        An2 
	.byte	W06
	.byte		        Gn2 
	.byte	W06
	.byte		        Fn2 
	.byte	W06
	.byte		        An2 
	.byte	W06
	.byte		        Cn3 
	.byte	W06
	.byte		        Cn3 , v080
	.byte	W06
	.byte		        Cn3 , v052
	.byte	W06
	.byte		N18   , As2 , v127
	.byte	W18
	.byte		        Cn3 
	.byte	W18
	.byte		        As2 
	.byte	W18
	.byte		N12   , Cn3 
	.byte	W12
	.byte		        As2 
	.byte	W12
	.byte		N06
	.byte	W06
	.byte		        As2 , v080
	.byte	W06
	.byte		        As2 , v052
	.byte	W06
	.byte		N18   , An2 , v127
	.byte	W18
	.byte		N06   , As2 
	.byte	W06
	.byte		        As2 , v080
	.byte	W06
	.byte		N18   , As2 , v127
	.byte	W18
	.byte		N12   , An2 
	.byte	W12
	.byte		N06   , As2 
	.byte	W06
	.byte	PATT
	 .word	seq_000_3 + 0x129
	.byte		N06   , Dn3 , v127
	.byte	W06
	.byte		        Cn3 
	.byte	W06
	.byte		        En2 
	.byte	W06
	.byte		        En2 , v080
	.byte	W06
	.byte		        En2 , v052
	.byte	W06
	.byte		N18   , Dn2 , v127
	.byte	W18
	.byte		        En2 
	.byte	W18
	.byte		N12   , Gn2 
	.byte	W12
	.byte		N06   , En2 
	.byte	W06
	.byte		        As2 
	.byte	W06
	.byte		        An2 
	.byte	W06
	.byte		        Gn2 
	.byte	W06
	.byte		        En2 
	.byte	W06
	.byte		N18   , Ds2 
	.byte	W18
	.byte		N06   , Ds3 
	.byte	W06
	.byte		        Ds3 , v080
	.byte	W06
	.byte		        Ds3 , v052
	.byte	W06
	.byte		        Ds2 , v127
	.byte	W06
	.byte		        Ds3 
	.byte	W06
	.byte		N18   , An2 
	.byte	W18
	.byte		N06   , Cs3 
	.byte	W06
	.byte		        An2 
	.byte	W06
	.byte		        Gn2 
	.byte	W06
	.byte		        An2 
	.byte	W06
	.byte		        An2 , v080
	.byte	W06
	.byte		N12   , Dn2 , v127
	.byte	W12
	.byte		N06   , Dn2 , v080
	.byte	W06
	.byte		        Dn2 , v052
	.byte	W06
	.byte		        Dn2 , v032
	.byte	W60
	.byte	W72
	.byte		N18   , Fn2 , v127
	.byte	W18
	.byte		        Gn2 
	.byte	W06
	.byte	W12
	.byte		N06   , Ds2 
	.byte	W06
	.byte		        Ds2 , v080
	.byte	W06
	.byte		        Ds2 , v052
	.byte	W06
	.byte		        Ds2 , v032
	.byte	W66
	.byte	W72
	.byte		VOICE , 16
	.byte		N06   , Ds3 , v127
	.byte	W06
	.byte		        As2 
	.byte	W06
	.byte		        Fs2 
	.byte	W06
	.byte		        Ds2 
	.byte	W06
	.byte		        As2 
	.byte	W06
	.byte		        Fn2 
	.byte	W06
	.byte		VOICE , 3
	.byte		N06   , Dn2 
	.byte	W06
	.byte		        Dn2 , v080
	.byte	W06
	.byte		        Dn2 , v052
	.byte	W06
	.byte		N18   , Cn3 , v127
	.byte	W18
	.byte		N06   , Bn2 
	.byte	W06
	.byte		        Bn2 , v080
	.byte	W06
	.byte		        Dn2 , v127
	.byte	W06
	.byte		        Dn2 , v080
	.byte	W06
	.byte		        Dn2 , v052
	.byte	W06
	.byte		N18   , Bn2 , v127
	.byte	W18
	.byte	PATT
	 .word	seq_000_3 + 0x5B
	.byte		N06   , Bn2 , v127
	.byte	W06
	.byte		        Bn2 , v080
	.byte	W06
	.byte		        Ds2 , v127
	.byte	W06
	.byte		        Ds2 , v080
	.byte	W06
	.byte		        Ds2 , v052
	.byte	W06
	.byte		N18   , Cs3 , v127
	.byte	W18
	.byte		N06   , Cn3 
	.byte	W06
	.byte		        Cn3 , v080
	.byte	W06
	.byte		        Ds2 , v127
	.byte	W06
	.byte		        Ds2 , v080
	.byte	W06
	.byte		        Ds2 , v052
	.byte	W06
	.byte		N18   , Cn3 , v127
	.byte	W18
	.byte		N06   , Bn2 
	.byte	W06
	.byte		        Bn2 , v080
	.byte	W06
	.byte		N12   , Ds2 , v127
	.byte	W12
	.byte		N06   , Ds2 , v080
	.byte	W06
	.byte		        Ds2 , v052
	.byte	W48
	.byte		N18   , Dn2 , v127
	.byte	W18
	.byte		N06   , Cs2 
	.byte	W06
	.byte		N05   , Cs2 , v080
	.byte	W06
	.byte	GOTO
	 .word	seq_000_3 + 0x3A
	.byte	FINE

@*********************** Track 05 ***********************@

seq_000_4:
	.byte	KEYSH , seq_000_key+0
	.byte		VOICE , 1
	.byte	W01
	.byte		VOL   , 83*seq_000_mvl/mxv
	.byte	W01
	.byte	W01
	.byte		XCMD  , xIECV , 40
	.byte	W01
	.byte	W01
	.byte		        xIECL , 3
	.byte	W01
	.byte		BENDR , 12
	.byte	W01
	.byte		LFOS  , 28
	.byte	W01
	.byte		LFODL , 14
	.byte	W01
	.byte		MOD   , 3
	.byte	W03
	.byte		PAN   , c_v-64
	.byte		N06   , Dn4 , v080
	.byte	W06
	.byte		        An3 , v060
	.byte	W06
	.byte		        Fn4 , v100
	.byte	W06
	.byte		        Dn4 
	.byte	W06
	.byte		        Cn5 
	.byte	W06
	.byte		        Fn4 
	.byte	W06
	.byte		        An4 
	.byte	W06
	.byte		        Fn4 
	.byte	W06
	.byte		PAN   , c_v+63
	.byte		N06   , Fn4 , v080
	.byte	W06
	.byte		        Dn4 
	.byte	W06
	.byte		        Bn4 , v100
	.byte	W06
	.byte		        Fn4 
	.byte	W06
	.byte		        An4 
	.byte	W06
	.byte		        Fn4 
	.byte	W06
	.byte		        Dn4 
	.byte	W06
	.byte		        An4 
	.byte	W06
	.byte		PAN   , c_v-64
	.byte		N06   , As4 , v080
	.byte	W06
	.byte		        An4 , v060
	.byte	W06
	.byte		        Fn4 , v100
	.byte	W06
	.byte		        Dn4 
	.byte	W06
	.byte		        As4 
	.byte	W06
	.byte		        Fn4 
	.byte	W06
	.byte		        An4 
	.byte	W06
	.byte		        Fn4 
	.byte	W06
	.byte		PAN   , c_v+63
	.byte		N06   , An4 , v080
	.byte	W06
	.byte		        Dn4 , v060
	.byte	W06
	.byte		        Bn4 , v100
	.byte	W06
	.byte		        Fn4 
	.byte	W06
	.byte		        An4 
	.byte	W06
	.byte		        Fn4 
	.byte	W06
	.byte		VOICE , 26
	.byte		PAN   , c_v+0
	.byte		N03   , Cn5 , v060
	.byte	W03
	.byte		        Cn5 , v040
	.byte	W03
	.byte		        An4 , v060
	.byte	W03
	.byte		        An4 , v040
	.byte	W03
	.byte		VOICE , 1
	.byte		PAN   , c_v+0
	.byte		N06   , Dn2 , v080
	.byte	W06
	.byte		        Dn2 , v060
	.byte	W06
	.byte		PAN   , c_v-64
	.byte		N06   , Fn4 , v100
	.byte	W06
	.byte		        Dn4 
	.byte	W06
	.byte		        Cn5 
	.byte	W06
	.byte		        Fn4 
	.byte	W06
	.byte		        An4 
	.byte	W06
	.byte		        Fn4 
	.byte	W06
	.byte		PAN   , c_v+0
	.byte		N06   , Dn2 , v080
	.byte	W06
	.byte		N06
	.byte	W06
	.byte		PAN   , c_v+63
	.byte		N06   , Bn4 , v100
	.byte	W06
	.byte		        Fn4 
	.byte	W06
	.byte		        An4 
	.byte	W06
	.byte		        Fn4 
	.byte	W06
	.byte		N06   , Dn4 , v100
	.byte	W06
	.byte		        An4 
	.byte	W06
	.byte		PAN   , c_v+0
	.byte		N06   , Dn2 , v080
	.byte	W06
	.byte		        Dn2 , v060
	.byte	W06
	.byte		PAN   , c_v-64
	.byte		N06   , Fn4 , v100
	.byte	W06
	.byte		        Dn4 
	.byte	W06
	.byte		        As4 
	.byte	W06
	.byte		        Fn4 
	.byte	W06
	.byte		        An4 
	.byte	W06
	.byte		        Fn4 
	.byte	W06
	.byte		PAN   , c_v+0
	.byte		N06   , Dn2 , v080
	.byte	W06
	.byte		        Dn2 , v060
	.byte	W06
	.byte		PAN   , c_v+63
	.byte		N06   , Bn4 , v100
	.byte	W06
	.byte		        Fn4 
	.byte	W06
	.byte		        An4 
	.byte	W06
	.byte		        Fn4 
	.byte	W06
	.byte	PEND
	.byte		N06   , Dn4 , v100
	.byte	W06
	.byte		        An4 
	.byte	W06
	.byte		PAN   , c_v+0
	.byte		N06   , Dn2 , v080
	.byte	W06
	.byte		        Dn2 , v060
	.byte	W06
	.byte		PAN   , c_v-64
	.byte		N06   , Fn4 , v100
	.byte	W06
	.byte		        Dn4 
	.byte	W06
	.byte		        Cn5 
	.byte	W06
	.byte		        Fn4 
	.byte	W06
	.byte		        An4 
	.byte	W06
	.byte		        Fn4 
	.byte	W06
	.byte		PAN   , c_v+0
	.byte		N06   , Dn2 , v080
	.byte	W06
	.byte		        Dn2 , v060
	.byte	W06
	.byte		PAN   , c_v+63
	.byte		N06   , Bn4 , v100
	.byte	W06
	.byte		        Fn4 
	.byte	W06
	.byte		        An4 
	.byte	W06
	.byte		        Fn4 
	.byte	W06
	.byte	PEND
	.byte		        Dn4 
	.byte	W06
	.byte		        An4 
	.byte	W06
	.byte		PAN   , c_v+0
	.byte		N06   , Dn2 , v080
	.byte	W06
	.byte		        Dn2 , v060
	.byte	W06
	.byte		PAN   , c_v-64
	.byte		N06   , Fn4 , v100
	.byte	W06
	.byte		        Dn4 
	.byte	W06
	.byte		        As4 
	.byte	W06
	.byte		        Fn4 
	.byte	W06
	.byte		        An4 
	.byte	W06
	.byte		        Fn4 
	.byte	W06
	.byte		PAN   , c_v+63
	.byte		N06   , Dn4 
	.byte	W06
	.byte		        An3 
	.byte	W06
	.byte		        Bn4 
	.byte	W06
	.byte		        Fn4 
	.byte	W06
	.byte		PAN   , c_v+0
	.byte		N06   , An4 , v080
	.byte	W06
	.byte		        Fn4 
	.byte	W06
	.byte		PAN   , c_v-64
	.byte		N06   , An4 , v100
	.byte	W06
	.byte		        Dn5 
	.byte	W06
	.byte		PAN   , c_v+0
	.byte		N06   , Dn2 , v080
	.byte	W06
	.byte		        Dn2 , v060
	.byte	W06
	.byte		PAN   , c_v-64
	.byte		N06   , Fn4 , v100
	.byte	W06
	.byte		        Dn4 
	.byte	W06
	.byte		        Cn5 
	.byte	W06
	.byte		        Fn4 
	.byte	W06
	.byte		        An4 
	.byte	W06
	.byte		        Fn4 
	.byte	W06
	.byte		PAN   , c_v+0
	.byte		N06   , Dn2 , v080
	.byte	W06
	.byte		        Dn2 , v060
	.byte	W06
	.byte		PAN   , c_v+63
	.byte		N06   , Bn4 , v100
	.byte	W06
	.byte		        Fn4 
	.byte	W06
	.byte		        An4 
	.byte	W06
	.byte		        Fn4 
	.byte	W06
	.byte	PATT
	 .word	seq_000_4 + 0xB0
	.byte	PATT
	 .word	seq_000_4 + 0xE5
	.byte		N06   , Dn4 , v100
	.byte	W06
	.byte		        An4 
	.byte	W06
	.byte		PAN   , c_v+0
	.byte		N06   , Dn2 , v080
	.byte	W06
	.byte		        Dn2 , v060
	.byte	W06
	.byte		PAN   , c_v-64
	.byte		N06   , Fn4 , v100
	.byte	W06
	.byte		        Dn4 
	.byte	W06
	.byte		        As4 
	.byte	W06
	.byte		        Fn4 
	.byte	W06
	.byte		        An4 
	.byte	W06
	.byte		        Fn4 
	.byte	W06
	.byte		PAN   , c_v+0
	.byte		N06   , Dn3 
	.byte	W06
	.byte		        En3 
	.byte	W06
	.byte		        Fn3 
	.byte	W06
	.byte		        Gn3 
	.byte	W06
	.byte		PAN   , c_v-64
	.byte		N06   , An3 
	.byte	W06
	.byte		        Bn3 
	.byte	W06
	.byte		PAN   , c_v+63
	.byte		N06   , Cn4 
	.byte	W06
	.byte		        Dn4 
	.byte	W06
	.byte		VOICE , 26
	.byte		PAN   , c_v-64
	.byte		N06   , As1 , v092
	.byte	W06
	.byte		        Dn2 
	.byte	W06
	.byte		        Fn2 
	.byte	W06
	.byte		        An2 
	.byte	W06
	.byte		PAN   , c_v+63
	.byte		N06   , As2 
	.byte	W06
	.byte		        Dn3 
	.byte	W06
	.byte		        Fn3 
	.byte	W06
	.byte		        An3 
	.byte	W06
	.byte		PAN   , c_v-64
	.byte		N06   , As3 
	.byte	W06
	.byte		        Dn4 
	.byte	W06
	.byte		        Fn4 
	.byte	W06
	.byte		        An4 
	.byte	W06
	.byte		PAN   , c_v+63
	.byte		N06   , As4 
	.byte	W06
	.byte		        Dn5 
	.byte	W06
	.byte		        Fn5 
	.byte	W06
	.byte		        As4 
	.byte	W06
	.byte		PAN   , c_v-64
	.byte		N06   , Cn2 
	.byte	W06
	.byte		        En2 
	.byte	W06
	.byte		        Gn2 
	.byte	W06
	.byte		        As2 
	.byte	W06
	.byte		PAN   , c_v+63
	.byte		N06   , Cn3 
	.byte	W06
	.byte		        En3 
	.byte	W06
	.byte		        Gn3 
	.byte	W06
	.byte		        As3 
	.byte	W06
	.byte		PAN   , c_v-64
	.byte		N06   , Cn4 
	.byte	W06
	.byte		        En4 
	.byte	W06
	.byte		        Gn4 
	.byte	W06
	.byte		        As4 
	.byte	W06
	.byte		PAN   , c_v+63
	.byte		N06   , Cn5 
	.byte	W06
	.byte		        En5 
	.byte	W06
	.byte		        Dn5 
	.byte	W06
	.byte		        Cn5 
	.byte	W06
	.byte		PAN   , c_v-64
	.byte		N06   , Fn2 
	.byte	W06
	.byte		        Cn3 
	.byte	W06
	.byte		        An3 
	.byte	W06
	.byte		        En4 
	.byte	W06
	.byte		PAN   , c_v+63
	.byte		N06   , An2 
	.byte	W06
	.byte		        Fn3 
	.byte	W06
	.byte		        Cn4 
	.byte	W06
	.byte		        An4 
	.byte	W06
	.byte		PAN   , c_v+0
	.byte		N06   , Dn5 , v072
	.byte	W06
	.byte		        Dn5 , v040
	.byte	W06
	.byte		        Cn5 , v072
	.byte	W06
	.byte		        An4 
	.byte	W06
	.byte		N03   , Cn5 
	.byte	W03
	.byte		        Cn5 , v052
	.byte	W03
	.byte		        Cn5 , v072
	.byte	W03
	.byte		        Cn5 , v052
	.byte	W03
	.byte		        An4 , v072
	.byte	W03
	.byte		        An4 , v052
	.byte	W03
	.byte		        Fn4 , v072
	.byte	W03
	.byte		        Fn4 , v052
	.byte	W03
	.byte		N18   , An3 , v072
	.byte	W18
	.byte		        Dn4 
	.byte	W18
	.byte		N12   , En4 
	.byte	W12
	.byte		        Fs4 
	.byte	W12
	.byte		N03   , An2 , v080
	.byte	W03
	.byte		        An2 , v060
	.byte	W03
	.byte		        Dn3 , v080
	.byte	W03
	.byte		        Dn3 , v060
	.byte	W03
	.byte		PAN   , c_v+63
	.byte		N03   , Fs3 , v092
	.byte	W03
	.byte		        Fs3 , v072
	.byte	W03
	.byte		        An3 , v092
	.byte	W03
	.byte		        An3 , v072
	.byte	W03
	.byte		PAN   , c_v-64
	.byte		N03   , Dn4 , v092
	.byte	W03
	.byte		        Dn4 , v072
	.byte	W03
	.byte		        Dn5 , v092
	.byte	W03
	.byte		        Dn5 , v072
	.byte	W03
	.byte		VOICE , 1
	.byte		PAN   , c_v-64
	.byte		N06   , As1 , v100
	.byte	W06
	.byte		        Dn2 
	.byte	W06
	.byte		        Fn2 
	.byte	W06
	.byte		        An2 
	.byte	W06
	.byte		PAN   , c_v+63
	.byte		N06   , As2 
	.byte	W06
	.byte		        Dn3 
	.byte	W06
	.byte		        Fn3 
	.byte	W06
	.byte		        An3 
	.byte	W06
	.byte		PAN   , c_v-64
	.byte		N06   , As3 
	.byte	W06
	.byte		        Dn4 
	.byte	W06
	.byte		        Fn4 
	.byte	W06
	.byte		        An4 
	.byte	W06
	.byte		PAN   , c_v+63
	.byte		N06   , As4 
	.byte	W06
	.byte		        Dn5 
	.byte	W06
	.byte		        Fn5 
	.byte	W06
	.byte		        As4 
	.byte	W06
	.byte		PAN   , c_v-64
	.byte		N06   , Cn2 
	.byte	W06
	.byte		        Gn2 
	.byte	W06
	.byte		        En3 
	.byte	W06
	.byte		        As3 
	.byte	W06
	.byte		PAN   , c_v+63
	.byte		N06   , Gn2 
	.byte	W06
	.byte		        En3 
	.byte	W06
	.byte		        As3 
	.byte	W06
	.byte		        Cn5 
	.byte	W06
	.byte		PAN   , c_v+0
	.byte		N18   , En4 
	.byte	W18
	.byte		        Dn4 
	.byte	W18
	.byte		N12   , Cn4 
	.byte	W12
	.byte		N24   , An3 
	.byte	W24
	.byte		N06   , Dn1 , v092
	.byte	W06
	.byte		        Fs1 , v080
	.byte	W06
	.byte		PAN   , c_v+63
	.byte		N06   , Fs2 , v100
	.byte	W06
	.byte		        An2 
	.byte	W06
	.byte		PAN   , c_v-64
	.byte		N06   , Bn2 
	.byte	W06
	.byte		        Dn3 
	.byte	W06
	.byte		        Fs3 
	.byte	W06
	.byte		        An3 
	.byte	W06
	.byte		PAN   , c_v+63
	.byte		N06   , Bn3 
	.byte	W06
	.byte		        Dn4 
	.byte	W06
	.byte		        Fs4 
	.byte	W06
	.byte		        An4 
	.byte	W06
	.byte		PAN   , c_v+0
	.byte		N06   , Fn4 , v092
	.byte	W06
	.byte		        Fn4 , v060
	.byte	W06
	.byte		VOICE , 26
	.byte		PAN   , c_v+0
	.byte		N06   , Ds2 , v100
	.byte	W06
	.byte		        Cs3 
	.byte	W06
	.byte		PAN   , c_v-64
	.byte		N06   , Fn3 
	.byte	W06
	.byte		        An3 
	.byte	W06
	.byte		PAN   , c_v+63
	.byte		N06   , Cs4 
	.byte	W06
	.byte		        An4 
	.byte	W06
	.byte		PAN   , c_v+0
	.byte		N06   , Gn4 , v092
	.byte	W06
	.byte		        Gn4 , v052
	.byte	W06
	.byte		        Gn4 , v032
	.byte	W06
	.byte		        Gn4 , v092
	.byte	W06
	.byte		        Gn4 , v052
	.byte	W06
	.byte		        Gn4 , v032
	.byte	W06
	.byte		        Cs4 , v092
	.byte	W06
	.byte		        Cs4 , v052
	.byte	W06
	.byte		VOICE , 26
	.byte		PAN   , c_v+0
	.byte		N06   , Dn2 , v072
	.byte	W06
	.byte		        An2 
	.byte	W06
	.byte		PAN   , c_v-64
	.byte		N06   , Fn4 , v092
	.byte	W06
	.byte		        Dn4 
	.byte	W06
	.byte		        Cn5 
	.byte	W06
	.byte		        Fn4 
	.byte	W06
	.byte		        An4 
	.byte	W06
	.byte		        Fn4 
	.byte	W06
	.byte		PAN   , c_v+0
	.byte		N06   , Dn2 , v072
	.byte	W06
	.byte		        Fn2 
	.byte	W06
	.byte		PAN   , c_v+63
	.byte		N06   , Bn4 , v092
	.byte	W06
	.byte		        Fn4 
	.byte	W06
	.byte		        An4 
	.byte	W06
	.byte		        Fn4 
	.byte	W06
	.byte		        Dn4 
	.byte	W06
	.byte		        An4 
	.byte	W06
	.byte		PAN   , c_v+0
	.byte		N06   , Dn2 , v072
	.byte	W06
	.byte		        As2 
	.byte	W06
	.byte		PAN   , c_v-64
	.byte		N06   , Fn4 , v092
	.byte	W06
	.byte		        Dn4 
	.byte	W06
	.byte		        As4 
	.byte	W06
	.byte		        Fn4 
	.byte	W06
	.byte		        An4 
	.byte	W06
	.byte		        Fn4 
	.byte	W06
	.byte		PAN   , c_v+0
	.byte		N06   , Dn2 , v072
	.byte	W06
	.byte		        Fn2 
	.byte	W06
	.byte		PAN   , c_v+63
	.byte		N06   , Bn4 , v092
	.byte	W06
	.byte		        Fn4 
	.byte	W06
	.byte		        An4 
	.byte	W06
	.byte		        Fn4 
	.byte	W06
	.byte		        Dn4 
	.byte	W06
	.byte		        An4 
	.byte	W06
	.byte		PAN   , c_v+0
	.byte		N06   , Ds2 , v072
	.byte	W06
	.byte		        As2 
	.byte	W06
	.byte		PAN   , c_v-64
	.byte		N06   , Fs4 , v092
	.byte	W06
	.byte		        Ds4 
	.byte	W06
	.byte		        Cs5 
	.byte	W06
	.byte		        Fs4 
	.byte	W06
	.byte		        As4 
	.byte	W06
	.byte		        Fs4 
	.byte	W06
	.byte		PAN   , c_v+0
	.byte		N06   , Ds2 , v072
	.byte	W06
	.byte		        Fs2 
	.byte	W06
	.byte		PAN   , c_v+63
	.byte		N06   , Cn5 , v092
	.byte	W06
	.byte		        Fs4 
	.byte	W06
	.byte		        As4 
	.byte	W06
	.byte		        Fs4 
	.byte	W06
	.byte		        Ds4 
	.byte	W06
	.byte		        As4 
	.byte	W06
	.byte		PAN   , c_v+0
	.byte		N06   , Ds2 , v072
	.byte	W06
	.byte		        Bn2 
	.byte	W06
	.byte		PAN   , c_v-64
	.byte		N06   , Fs4 , v092
	.byte	W06
	.byte		        Ds4 
	.byte	W06
	.byte		        Bn4 
	.byte	W06
	.byte		        Fs4 
	.byte	W06
	.byte		        As4 
	.byte	W06
	.byte		        Fs4 
	.byte	W06
	.byte		PAN   , c_v+63
	.byte		N06   , Ds4 
	.byte	W06
	.byte		        As3 
	.byte	W06
	.byte		        Cn5 
	.byte	W06
	.byte		        Fs4 
	.byte	W06
	.byte		PAN   , c_v+0
	.byte		N06   , As4 , v072
	.byte	W06
	.byte		        Fs4 
	.byte	W06
	.byte		PAN   , c_v-64
	.byte		N06   , As4 , v092
	.byte	W06
	.byte		        Ds5 
	.byte	W06
	.byte		VOICE , 1
	.byte		PAN   , c_v+0
	.byte		N06   , Dn2 , v080
	.byte	W06
	.byte		        An2 
	.byte	W06
	.byte		PAN   , c_v-64
	.byte		N06   , Fn4 , v100
	.byte	W06
	.byte		        Dn4 
	.byte	W06
	.byte		        Cn5 
	.byte	W06
	.byte		        Fn4 
	.byte	W06
	.byte		        An4 
	.byte	W06
	.byte		        Fn4 
	.byte	W06
	.byte		PAN   , c_v+0
	.byte		N06   , Dn2 , v080
	.byte	W06
	.byte		        Fn2 
	.byte	W06
	.byte		PAN   , c_v+63
	.byte		N06   , Bn4 , v100
	.byte	W06
	.byte		        Fn4 
	.byte	W06
	.byte		        An4 
	.byte	W06
	.byte		        Fn4 
	.byte	W06
	.byte		        Dn4 
	.byte	W06
	.byte		        An4 
	.byte	W06
	.byte		PAN   , c_v+0
	.byte		N06   , Dn2 , v080
	.byte	W06
	.byte		        As2 
	.byte	W06
	.byte		PAN   , c_v-64
	.byte		N06   , Fn4 , v100
	.byte	W06
	.byte		        Dn4 
	.byte	W06
	.byte		        As4 
	.byte	W06
	.byte		        Fn4 
	.byte	W06
	.byte		        An4 
	.byte	W06
	.byte		        Fn4 
	.byte	W06
	.byte		PAN   , c_v+0
	.byte		N06   , Dn2 , v080
	.byte	W06
	.byte		        Fn2 
	.byte	W06
	.byte		PAN   , c_v+63
	.byte		N06   , Bn4 , v100
	.byte	W06
	.byte		        Fn4 
	.byte	W06
	.byte		        An4 
	.byte	W06
	.byte		        Fn4 
	.byte	W06
	.byte		        Dn4 
	.byte	W06
	.byte		        An4 
	.byte	W06
	.byte		PAN   , c_v+0
	.byte		N06   , Ds2 , v080
	.byte	W06
	.byte		        As2 
	.byte	W06
	.byte		PAN   , c_v-64
	.byte		N06   , Fs4 , v100
	.byte	W06
	.byte		        Ds4 
	.byte	W06
	.byte		        Cs5 
	.byte	W06
	.byte		        Fs4 
	.byte	W06
	.byte		        As4 
	.byte	W06
	.byte		        Fs4 
	.byte	W06
	.byte		PAN   , c_v+0
	.byte		N06   , Ds2 , v080
	.byte	W06
	.byte		        Fs2 
	.byte	W06
	.byte		PAN   , c_v+63
	.byte		N06   , Cn5 , v100
	.byte	W06
	.byte		        Fs4 
	.byte	W06
	.byte		        As4 
	.byte	W06
	.byte		        Fs4 
	.byte	W06
	.byte		        Ds4 
	.byte	W06
	.byte		        As4 
	.byte	W06
	.byte		PAN   , c_v+0
	.byte		N06   , Ds2 , v080
	.byte	W06
	.byte		        Bn2 
	.byte	W06
	.byte		PAN   , c_v-64
	.byte		N06   , Fs4 , v100
	.byte	W06
	.byte		        Ds4 
	.byte	W06
	.byte		        Bn4 
	.byte	W06
	.byte		        Fs4 
	.byte	W06
	.byte		        As4 
	.byte	W06
	.byte		        Fs4 
	.byte	W06
	.byte		PAN   , c_v+63
	.byte		N06   , Ds4 
	.byte	W06
	.byte		        As3 
	.byte	W06
	.byte		        Cn5 
	.byte	W06
	.byte		        Fs4 
	.byte	W06
	.byte		PAN   , c_v+0
	.byte		N06   , An4 , v080
	.byte	W06
	.byte		        Fn4 
	.byte	W06
	.byte		VOICE , 26
	.byte		PAN   , c_v+0
	.byte		N03   , As5 , v060
	.byte	W03
	.byte		        As5 , v040
	.byte	W03
	.byte		        En5 , v060
	.byte	W03
	.byte		N02   , En5 , v040
	.byte	W03
	.byte	GOTO
	 .word	seq_000_4 + 0x81
	.byte	FINE

@*********************** Track 06 ***********************@

seq_000_5:
	.byte	KEYSH , seq_000_key+0
	.byte		VOICE , 22
	.byte	W02
	.byte		VOL   , 68*seq_000_mvl/mxv
	.byte	W02
	.byte		PAN   , c_v+0
	.byte	W02
	.byte		BENDR , 12
	.byte	W04
	.byte		MODT  , mod_vib
	.byte	W02
	.byte		N11   , Dn3 , v127
	.byte	W12
	.byte		        Dn3 , v072
	.byte	W12
	.byte		        Dn3 , v032
	.byte	W12
	.byte		VOICE , 27
	.byte		N05   , Fn3 , v060
	.byte	W06
	.byte		N03   , Fn3 , v032
	.byte	W06
	.byte		N04   , Fn3 , v060
	.byte	W06
	.byte		N03   , Fn3 , v032
	.byte	W12
	.byte		N05   , Fn3 , v060
	.byte	W06
	.byte		N03   , Fn3 , v032
	.byte	W12
	.byte		N05   , Fn3 , v060
	.byte	W06
	.byte		N03   , Fn3 , v032
	.byte	W06
	.byte		N05   , Fn3 , v060
	.byte	W06
	.byte		N03   , Fn3 , v032
	.byte	W12
	.byte		N05   , Fn3 , v060
	.byte	W06
	.byte		N03   , Fn3 , v032
	.byte	W12
	.byte		N05   , Fn3 , v060
	.byte	W06
	.byte		N03   , Fn3 , v032
	.byte	W06
	.byte		N04   , Fn3 , v060
	.byte	W06
	.byte		N03   , Fn3 , v032
	.byte	W12
	.byte		N05   , Fn3 , v060
	.byte	W06
	.byte		N03   , Fn3 , v032
	.byte	W12
	.byte	PEND
	.byte		N05   , Fn3 , v060
	.byte	W06
	.byte		N03   , Fn3 , v032
	.byte	W06
	.byte		N05   , Fn3 , v060
	.byte	W06
	.byte		N03   , Fn3 , v032
	.byte	W12
	.byte		N05   , Fn3 , v060
	.byte	W06
	.byte		N03   , Fn3 , v032
	.byte	W12
	.byte		N05   , Fn3 , v060
	.byte	W06
	.byte		N03   , Fn3 , v032
	.byte	W06
	.byte		N04   , Fn3 , v060
	.byte	W06
	.byte		N03   , Fn3 , v032
	.byte	W12
	.byte		N05   , Fn3 , v060
	.byte	W06
	.byte		N03   , Fn3 , v032
	.byte	W12
	.byte	PATT
	 .word	seq_000_5 + 0x35
	.byte	PATT
	 .word	seq_000_5 + 0x35
	.byte	PATT
	 .word	seq_000_5 + 0x35
	.byte	PATT
	 .word	seq_000_5 + 0x35
	.byte	PATT
	 .word	seq_000_5 + 0x35
	.byte	PATT
	 .word	seq_000_5 + 0x35
	.byte	PATT
	 .word	seq_000_5 + 0x35
	.byte		N05   , Fn3 , v060
	.byte	W06
	.byte		N03   , Fn3 , v032
	.byte	W90
	.byte	W96
	.byte	W96
	.byte	W96
	.byte	W96
	.byte	W96
	.byte	W96
	.byte	W96
	.byte	W12
	.byte		VOICE , 22
	.byte		N11   , Dn3 , v127
	.byte	W12
	.byte		        Dn3 , v072
	.byte	W12
	.byte		        Dn3 , v032
	.byte	W12
	.byte		VOICE , 21
	.byte		N05   , Fn3 , v060
	.byte	W06
	.byte		N03   , Fn3 , v032
	.byte	W06
	.byte		N04   , Fn3 , v060
	.byte	W06
	.byte		N03   , Fn3 , v032
	.byte	W12
	.byte		N05   , Fn3 , v060
	.byte	W06
	.byte		N03   , Fn3 , v032
	.byte	W12
	.byte	PATT
	 .word	seq_000_5 + 0x35
	.byte		N05   , Fn3 , v060
	.byte	W06
	.byte		N03   , Fn3 , v032
	.byte	W06
	.byte		N05   , Fs3 , v060
	.byte	W06
	.byte		N03   , Fs3 , v032
	.byte	W12
	.byte		N05   , Fs3 , v060
	.byte	W06
	.byte		N03   , Fs3 , v032
	.byte	W12
	.byte		N05   , Fs3 , v060
	.byte	W06
	.byte		N03   , Fs3 , v032
	.byte	W06
	.byte		N04   , Fs3 , v060
	.byte	W06
	.byte		N03   , Fs3 , v032
	.byte	W12
	.byte		N05   , Fs3 , v060
	.byte	W06
	.byte		N03   , Fs3 , v032
	.byte	W12
	.byte	PEND
	.byte		N05   , Fs3 , v060
	.byte	W06
	.byte		N03   , Fs3 , v032
	.byte	W06
	.byte		N05   , Fs3 , v060
	.byte	W06
	.byte		N03   , Fs3 , v032
	.byte	W12
	.byte		N05   , Fs3 , v060
	.byte	W06
	.byte		N03   , Fs3 , v032
	.byte	W12
	.byte		N05   , Fs3 , v060
	.byte	W06
	.byte		N03   , Fs3 , v032
	.byte	W06
	.byte		N04   , Fs3 , v060
	.byte	W06
	.byte		N03   , Fs3 , v032
	.byte	W12
	.byte		N05   , Fs3 , v060
	.byte	W06
	.byte		N03   , Fs3 , v032
	.byte	W12
	.byte		N05   , Fs3 , v060
	.byte	W06
	.byte		N03   , Fs3 , v032
	.byte	W06
	.byte		VOICE , 22
	.byte		N11   , Dn3 , v127
	.byte	W12
	.byte		        Dn3 , v072
	.byte	W12
	.byte		        Dn3 , v032
	.byte	W12
	.byte		VOICE , 21
	.byte		N05   , Fn3 , v060
	.byte	W06
	.byte		N03   , Fn3 , v032
	.byte	W06
	.byte		N04   , Fn3 , v060
	.byte	W06
	.byte		N03   , Fn3 , v032
	.byte	W12
	.byte		N05   , Fn3 , v060
	.byte	W06
	.byte		N03   , Fn3 , v032
	.byte	W12
	.byte	PATT
	 .word	seq_000_5 + 0x35
	.byte	PATT
	 .word	seq_000_5 + 0xF4
	.byte		N05   , Fs3 , v060
	.byte	W06
	.byte		N03   , Fs3 , v032
	.byte	W06
	.byte		N05   , Fs3 , v060
	.byte	W06
	.byte		N03   , Fs3 , v032
	.byte	W12
	.byte		N05   , Fs3 , v060
	.byte	W06
	.byte		N03   , Fs3 , v032
	.byte	W12
	.byte		N05   , Fs3 , v060
	.byte	W06
	.byte		N03   , Fs3 , v032
	.byte	W06
	.byte		N04   , Fs3 , v060
	.byte	W06
	.byte		N03   , Fs3 , v032
	.byte	W12
	.byte		N05   , Fn2 , v060
	.byte	W06
	.byte		N03   , Fn2 , v032
	.byte	W12
	.byte		N05   , En2 , v060
	.byte	W06
	.byte		N03   , En2 , v032
	.byte	W06
	.byte	GOTO
	 .word	seq_000_5 + 0x6E
	.byte	FINE

@******************************************************@

	.align	2

seq_000:
	.byte	6	@ NumTrks
	.byte	0	@ NumBlks
	.byte	seq_000_pri	@ Priority
	.byte	seq_000_rev	@ Reverb

	.word	seq_000_grp

	.word	seq_000_0
	.word	seq_000_1
	.word	seq_000_2
	.word	seq_000_3
	.word	seq_000_4
	.word	seq_000_5

	.end
