@ File generated by m4a2s Song-Module
	.include "MPlayDef.s"

	.equ	seq_000_grp, bank_000
	.equ	seq_000_pri, 0
	.equ	seq_000_rev, 128
	.equ	seq_000_mvl, 127
	.equ	seq_000_key, 0

	.section .rodata
	.global	seq_000
	.align	2

@*********************** Track 01 ***********************@

seq_000_0:
	.byte		VOL   , 102*seq_000_mvl/mxv
	.byte	KEYSH , seq_000_key+0
	.byte	TEMPO , 190/2
	.byte		VOICE , 0
	.byte	W01
	.byte		PAN   , c_v+30
	.byte	W02
	.byte	W96
	.byte	W24
	.byte		N12   , Cn2 , v092
	.byte		N12   , Gs2 
	.byte	W12
	.byte		        Cn2 , v032
	.byte		N12   , Gs2 
	.byte	W24
	.byte		        Cn2 , v092
	.byte		N12   , Gs2 
	.byte	W12
	.byte		        Cn2 , v032
	.byte		N12   , Gs2 
	.byte	W24
	.byte		N12   , Cn2 , v092
	.byte		N12   , Gs2 
	.byte	W12
	.byte		        Cn2 , v032
	.byte		N12   , Gs2 
	.byte	W24
	.byte		        Cn2 , v092
	.byte		N12   , Gs2 
	.byte	W12
	.byte		        Cn2 , v032
	.byte		N12   , Gs2 
	.byte	W12
	.byte		        As1 , v092
	.byte		N12   , Gn2 
	.byte	W12
	.byte		        As1 , v032
	.byte		N12   , Gn2 
	.byte	W12
	.byte		        Cn2 , v092
	.byte		N12   , Gs2 
	.byte	W12
	.byte	PEND
	.byte		N12   , Cn2 , v032
	.byte		N12   , Gs2 
	.byte	W24
	.byte		        Cn2 , v092
	.byte		N12   , Gs2 
	.byte	W12
	.byte		        Cn2 , v032
	.byte		N12   , Gs2 
	.byte	W24
	.byte		        Cn2 , v092
	.byte		N12   , Gs2 
	.byte	W12
	.byte		        Cn2 , v032
	.byte		N12   , Gs2 
	.byte	W24
	.byte	PEND
	.byte		N12   , Cn2 , v092
	.byte		N12   , Gs2 
	.byte	W12
	.byte		        Cn2 , v032
	.byte		N12   , Gs2 
	.byte	W12
	.byte		        As1 , v092
	.byte		N12   , Gn2 
	.byte	W12
	.byte		        Cn2 
	.byte		N12   , Gs2 
	.byte	W12
	.byte		        Cn2 , v032
	.byte		N12   , Gs2 
	.byte	W12
	.byte		N36   , As1 , v092
	.byte		N36   , Gn2 
	.byte	W36
	.byte	PEND
	.byte		N12   , As1 , v032
	.byte		N12   , Gn2 
	.byte	W24
	.byte		        Gs1 , v092
	.byte		N12   , Fn2 
	.byte	W12
	.byte		        Gs1 , v032
	.byte		N12   , Fn2 
	.byte	W24
	.byte		        Gs1 , v092
	.byte		N12   , Fn2 
	.byte	W12
	.byte		        Gs1 , v032
	.byte		N12   , Fn2 
	.byte	W24
	.byte	PEND
	.byte		N12   , As1 , v092
	.byte		N12   , Gn2 
	.byte	W12
	.byte		        As1 , v032
	.byte		N12   , Gn2 
	.byte	W24
	.byte		        As1 , v092
	.byte		N12   , Gn2 
	.byte	W12
	.byte		        As1 , v032
	.byte		N12   , Gn2 
	.byte	W12
	.byte		        Gs1 , v092
	.byte		N12   , Fn2 
	.byte	W12
	.byte		        Gs1 , v032
	.byte		N12   , Fn2 
	.byte	W12
	.byte		        As1 , v092
	.byte		N12   , Gn2 
	.byte	W12
	.byte	PEND
	.byte		N12   , As1 , v032
	.byte		N12   , Gn2 
	.byte	W24
	.byte		        Cn2 , v092
	.byte		N12   , Gs2 
	.byte	W12
	.byte		        Cn2 , v032
	.byte		N12   , Gs2 
	.byte	W24
	.byte		        Cn2 , v092
	.byte		N12   , Gs2 
	.byte	W12
	.byte		        Cn2 , v032
	.byte		N12   , Gs2 
	.byte	W24
	.byte	PEND
	.byte	PATT
	 .word	seq_000_0 + 0x63
	.byte	PATT
	 .word	seq_000_0 + 0xC3
	.byte	PATT
	 .word	seq_000_0 + 0x23
	.byte	PATT
	 .word	seq_000_0 + 0x48
	.byte	PATT
	 .word	seq_000_0 + 0x63
	.byte	PATT
	 .word	seq_000_0 + 0x83
	.byte	PATT
	 .word	seq_000_0 + 0x9E
	.byte	PATT
	 .word	seq_000_0 + 0xC3
	.byte	PATT
	 .word	seq_000_0 + 0x63
	.byte		N06   , Cs3 , v092
	.byte	W06
	.byte		        Cs3 , v032
	.byte	W06
	.byte		        Gs3 , v092
	.byte	W06
	.byte		        Cs3 , v032
	.byte	W06
	.byte		        Gn3 , v092
	.byte	W06
	.byte		        Gs3 , v032
	.byte	W06
	.byte		        Gs3 , v092
	.byte	W06
	.byte		        Gn3 , v032
	.byte	W06
	.byte		        Cs4 , v092
	.byte	W06
	.byte		        Gs3 , v032
	.byte	W06
	.byte		        Gs3 , v092
	.byte	W06
	.byte		        Cs4 , v032
	.byte	W06
	.byte		        Gn3 , v092
	.byte	W06
	.byte		        Gs3 , v032
	.byte	W06
	.byte		        Gs3 , v092
	.byte	W06
	.byte		        Gn3 , v032
	.byte	W06
	.byte	PEND
	.byte		N06   , Cs3 , v092
	.byte	W06
	.byte		        Gs3 , v032
	.byte	W06
	.byte		        Gs3 , v092
	.byte	W06
	.byte		        Cs3 , v032
	.byte	W06
	.byte		        Gn3 , v092
	.byte	W06
	.byte		        Gs3 , v032
	.byte	W06
	.byte		        Gs3 , v092
	.byte	W06
	.byte		        Gn3 , v032
	.byte	W06
	.byte		        Cs4 , v092
	.byte	W06
	.byte		        Gs3 , v032
	.byte	W06
	.byte		        Gs3 , v092
	.byte	W06
	.byte		        Cs4 , v032
	.byte	W06
	.byte		        Gn3 , v092
	.byte	W06
	.byte		        Gs3 , v032
	.byte	W06
	.byte		        Gs3 , v092
	.byte	W06
	.byte		        Gn3 , v032
	.byte	W06
	.byte	PEND
	.byte		N06   , Cn3 , v092
	.byte	W06
	.byte		        Gs3 , v032
	.byte	W06
	.byte		        Gs3 , v092
	.byte	W06
	.byte		        Cn3 , v032
	.byte	W06
	.byte		        Gn3 , v092
	.byte	W06
	.byte		        Gs3 , v032
	.byte	W06
	.byte		        Gs3 , v092
	.byte	W06
	.byte		        Gn3 , v032
	.byte	W06
	.byte		        Cn4 , v092
	.byte	W06
	.byte		        Gs3 , v032
	.byte	W06
	.byte		        Gs3 , v092
	.byte	W06
	.byte		        Cn4 , v032
	.byte	W06
	.byte		        Gn3 , v092
	.byte	W06
	.byte		        Gs3 , v032
	.byte	W06
	.byte		        Gs3 , v092
	.byte	W06
	.byte		        Gn3 , v032
	.byte	W06
	.byte	PEND
	.byte	PATT
	 .word	seq_000_0 + 0x16F
	.byte	PATT
	 .word	seq_000_0 + 0x13D
	.byte	PATT
	 .word	seq_000_0 + 0x13D
	.byte	PATT
	 .word	seq_000_0 + 0x16F
	.byte	PATT
	 .word	seq_000_0 + 0x16F
	.byte	PATT
	 .word	seq_000_0 + 0x10B
	.byte	PATT
	 .word	seq_000_0 + 0x13D
	.byte	PATT
	 .word	seq_000_0 + 0x16F
	.byte	PATT
	 .word	seq_000_0 + 0x16F
	.byte	PATT
	 .word	seq_000_0 + 0x13D
	.byte	PATT
	 .word	seq_000_0 + 0x13D
	.byte		N06   , Ds3 , v092
	.byte	W06
	.byte		        Gs3 , v032
	.byte	W06
	.byte		        As3 , v092
	.byte	W06
	.byte		        Ds3 , v032
	.byte	W06
	.byte		        Gs3 , v092
	.byte	W06
	.byte		        As3 , v032
	.byte	W06
	.byte		        As3 , v092
	.byte	W06
	.byte		        Gs3 , v032
	.byte	W06
	.byte		        Ds4 , v092
	.byte	W06
	.byte		        As3 , v032
	.byte	W06
	.byte		        As3 , v092
	.byte	W06
	.byte		        Ds4 , v032
	.byte	W06
	.byte		        Gs3 , v092
	.byte	W06
	.byte		        As3 , v032
	.byte	W06
	.byte		        As3 , v092
	.byte	W06
	.byte		        Gs3 , v032
	.byte	W06
	.byte		        Ds3 , v092
	.byte	W06
	.byte		        As3 , v032
	.byte	W06
	.byte		        As3 , v092
	.byte	W06
	.byte		        Ds3 , v032
	.byte	W06
	.byte		        Gn3 , v092
	.byte	W06
	.byte		        As3 , v032
	.byte	W06
	.byte		        As3 , v092
	.byte	W06
	.byte		        Gn3 , v032
	.byte	W06
	.byte		        Ds4 , v092
	.byte	W06
	.byte		        As3 , v032
	.byte	W06
	.byte		        As3 , v092
	.byte	W06
	.byte		        Ds4 , v032
	.byte	W06
	.byte		        Gn3 , v092
	.byte	W06
	.byte		        As3 , v032
	.byte	W06
	.byte		        As3 , v092
	.byte	W06
	.byte		        Gn3 , v032
	.byte	W06
	.byte	W96
	.byte	W96
	.byte		N24   , Fn2 , v092
	.byte		N24   , Gs2 
	.byte	W24
	.byte		N12   , Fn2 , v032
	.byte		N12   , Gs2 
	.byte	W12
	.byte		N24   , Gs2 , v092
	.byte		N24   , Cn3 
	.byte	W24
	.byte		N12   , Gs2 , v032
	.byte		N12   , Cn3 
	.byte	W12
	.byte		N24   , Gn2 , v092
	.byte		N24   , As2 
	.byte	W24
	.byte		N12   , Gn2 , v032
	.byte		N12   , As2 
	.byte	W12
	.byte		N24   , Gs2 , v092
	.byte		N24   , Cn3 
	.byte	W24
	.byte		N12   , Gs2 , v032
	.byte		N12   , Cn3 
	.byte	W12
	.byte		        As2 , v092
	.byte		N12   , Cs3 
	.byte	W12
	.byte		        As2 , v032
	.byte		N12   , Cs3 
	.byte	W12
	.byte		        Cn3 , v092
	.byte		N12   , Ds3 
	.byte	W12
	.byte		        Cn3 , v032
	.byte		N12   , Ds3 
	.byte	W12
	.byte	GOTO
	 .word	seq_000_0 + 0xD
	.byte	FINE

@*********************** Track 02 ***********************@

seq_000_1:
	.byte		VOL   , 102*seq_000_mvl/mxv
	.byte	KEYSH , seq_000_key+0
	.byte		VOICE , 1
	.byte	W01
	.byte		PAN   , c_v+0
	.byte	W02
	.byte	W96
	.byte	W12
	.byte		MOD   , 0
	.byte		N12   , Gs2 , v092
	.byte	W12
	.byte		        Cn3 
	.byte	W12
	.byte		BEND  , c_v-32
	.byte		N12   , Gs3 
	.byte	W03
	.byte		BEND  , c_v+0
	.byte	W09
	.byte		N12   , Gn3 
	.byte	W12
	.byte		        Ds3 
	.byte	W12
	.byte		        As2 
	.byte	W12
	.byte		MOD   , 0
	.byte		N48   , Cn3 
	.byte	W12
	.byte	PEND
	.byte	W12
	.byte		MOD   , 3
	.byte	W36
	.byte		        0
	.byte		BEND  , c_v-32
	.byte		N12   , Cn3 , v092
	.byte	W03
	.byte		BEND  , c_v+0
	.byte	W09
	.byte		N12   , As2 
	.byte	W12
	.byte		        Gs2 
	.byte	W12
	.byte		MOD   , 0
	.byte		N36   , Cn3 
	.byte	W12
	.byte	PEND
	.byte	W12
	.byte		MOD   , 3
	.byte	W12
	.byte		        0
	.byte		N12   , Cs3 , v092
	.byte	W12
	.byte		N24   , Ds3 
	.byte	W24
	.byte		N12   , Fn2 
	.byte	W12
	.byte		BEND  , c_v-32
	.byte		N12   , Cs3 
	.byte	W03
	.byte		BEND  , c_v+0
	.byte	W09
	.byte		MOD   , 0
	.byte		N96   , Cn3 
	.byte	W12
	.byte	PEND
	.byte	W12
	.byte		MOD   , 3
	.byte	W24
	.byte		        6
	.byte	W60
	.byte	PEND
	.byte	W12
	.byte		MOD   , 0
	.byte		N12   , Fn2 , v092
	.byte	W12
	.byte		        Gs2 
	.byte	W12
	.byte		        Fn2 
	.byte	W12
	.byte		BEND  , c_v-32
	.byte		N24   , Cs3 
	.byte	W03
	.byte		BEND  , c_v+0
	.byte	W21
	.byte		N12   , Gs2 
	.byte	W12
	.byte		MOD   , 0
	.byte		N36   , As2 
	.byte	W12
	.byte	PEND
	.byte	W12
	.byte		MOD   , 3
	.byte	W12
	.byte		        0
	.byte		N12   , Gs2 
	.byte	W12
	.byte		N24   , Gn2 
	.byte	W24
	.byte		N12   , Gs2 
	.byte	W24
	.byte		        As2 
	.byte	W12
	.byte	W12
	.byte		MOD   , 0
	.byte		BEND  , c_v-32
	.byte		N72   , Cn3 
	.byte	W03
	.byte		BEND  , c_v+0
	.byte	W21
	.byte		MOD   , 3
	.byte	W24
	.byte		        6
	.byte	W36
	.byte	W96
	.byte	PATT
	 .word	seq_000_1 + 0xB
	.byte	PATT
	 .word	seq_000_1 + 0x29
	.byte	PATT
	 .word	seq_000_1 + 0x42
	.byte	PATT
	 .word	seq_000_1 + 0x5F
	.byte	PATT
	 .word	seq_000_1 + 0x66
	.byte	W12
	.byte		MOD   , 3
	.byte	W12
	.byte		        0
	.byte		N12   , Gs2 , v092
	.byte	W12
	.byte		N24   , Gn2 
	.byte	W24
	.byte		N12   , Gs2 
	.byte	W24
	.byte		        Gn2 
	.byte	W12
	.byte	W12
	.byte		MOD   , 0
	.byte		BEND  , c_v-32
	.byte		N72   , Fn2 
	.byte	W03
	.byte		BEND  , c_v+0
	.byte	W21
	.byte		MOD   , 3
	.byte	W24
	.byte		        6
	.byte	W36
	.byte	W96
	.byte		MOD   , 0
	.byte		BEND  , c_v-32
	.byte		N24   , Fn3 , v092
	.byte	W03
	.byte		BEND  , c_v+0
	.byte	W21
	.byte		N12   , Cs3 
	.byte	W12
	.byte		N24   , Gs2 
	.byte	W24
	.byte		N12   , Fn2 
	.byte	W12
	.byte		        Gs2 
	.byte	W12
	.byte		        Cs3 
	.byte	W12
	.byte	PEND
	.byte		MOD   , 0
	.byte		N36   , Fn3 , v092
	.byte	W24
	.byte		MOD   , 3
	.byte	W12
	.byte		        0
	.byte		N36   , Gn3 
	.byte	W24
	.byte		MOD   , 3
	.byte	W12
	.byte		        0
	.byte		N24   , Gs3 
	.byte	W24
	.byte	PEND
	.byte		BEND  , c_v-32
	.byte		N24   , Gs3 , v092
	.byte	W06
	.byte		BEND  , c_v+0
	.byte	W18
	.byte		N12   , Gn3 
	.byte	W12
	.byte		MOD   , 0
	.byte		N48   , Fn3 
	.byte	W24
	.byte		MOD   , 3
	.byte	W36
	.byte	PEND
	.byte	W96
	.byte	PATT
	 .word	seq_000_1 + 0xDE
	.byte		MOD   , 0
	.byte		N36   , Fn3 , v092
	.byte	W24
	.byte		MOD   , 3
	.byte	W12
	.byte		        0
	.byte		N36   , Gn3 
	.byte	W24
	.byte		MOD   , 3
	.byte	W12
	.byte		        0
	.byte		N18   , Fn3 
	.byte	W24
	.byte	W96
	.byte	W96
	.byte		BEND  , c_v-32
	.byte		N24
	.byte	W03
	.byte		BEND  , c_v+0
	.byte	W21
	.byte		N12   , Cs3 
	.byte	W12
	.byte		N24   , Gs2 
	.byte	W24
	.byte		N12   , Fn2 
	.byte	W12
	.byte		        Gs2 
	.byte	W12
	.byte		        Cs3 
	.byte	W12
	.byte	PATT
	 .word	seq_000_1 + 0xF7
	.byte	PATT
	 .word	seq_000_1 + 0x10C
	.byte	W96
	.byte	PATT
	 .word	seq_000_1 + 0xDE
	.byte	PATT
	 .word	seq_000_1 + 0xF7
	.byte		MOD   , 0
	.byte		BEND  , c_v-32
	.byte		N84   , As3 , v092
	.byte	W03
	.byte		BEND  , c_v+0
	.byte	W21
	.byte		MOD   , 3
	.byte	W24
	.byte		        6
	.byte	W36
	.byte		        0
	.byte		N04   , Gs3 
	.byte	W04
	.byte		        As3 
	.byte	W04
	.byte		        Gs3 
	.byte	W04
	.byte		MOD   , 0
	.byte		N84   , Gn3 
	.byte	W24
	.byte		MOD   , 3
	.byte	W24
	.byte		        6
	.byte	W48
	.byte	W96
	.byte	W96
	.byte	W96
	.byte	W96
	.byte	GOTO
	 .word	seq_000_1 + 0xB
	.byte	FINE

@*********************** Track 03 ***********************@

seq_000_2:
	.byte		VOL   , 102*seq_000_mvl/mxv
	.byte	KEYSH , seq_000_key+0
	.byte		VOICE , 2
	.byte	W01
	.byte		PAN   , c_v-30
	.byte	W02
	.byte	W96
	.byte	W96
	.byte	W96
	.byte	W96
	.byte	W96
	.byte	W96
	.byte	W96
	.byte	W96
	.byte		N06   , Gs2 , v060
	.byte		N06   , Fn3 
	.byte	W06
	.byte		        Gs2 , v020
	.byte		N06   , Fn3 
	.byte	W06
	.byte		        Gs2 , v060
	.byte		N06   , Fn3 
	.byte	W06
	.byte		        As2 
	.byte		N06   , Gn3 
	.byte	W06
	.byte		        Cn3 
	.byte		N06   , Gs3 
	.byte	W06
	.byte		        Cn3 , v020
	.byte		N06   , Gs3 
	.byte	W06
	.byte		        As2 , v060
	.byte		N06   , Gn3 
	.byte	W06
	.byte		        Cn3 
	.byte		N06   , Gs3 
	.byte	W06
	.byte		        Cs3 
	.byte		N06   , As3 
	.byte	W06
	.byte		        Cs3 , v020
	.byte		N06   , As3 
	.byte	W06
	.byte		        Cn3 , v060
	.byte		N06   , Gs3 
	.byte	W06
	.byte		        Cn3 , v020
	.byte		N06   , Gs3 
	.byte	W06
	.byte		N24   , As2 , v060
	.byte		N24   , Gn3 
	.byte	W24
	.byte	W96
	.byte	W96
	.byte	W96
	.byte	W96
	.byte	W96
	.byte	W96
	.byte	W96
	.byte		N06   , Gs3 
	.byte		N06   , Cn4 
	.byte	W06
	.byte		        As3 
	.byte		N06   , Cs4 
	.byte	W06
	.byte		        Gs3 
	.byte		N06   , Cn4 
	.byte	W06
	.byte		        Gn3 
	.byte		N06   , As3 
	.byte	W06
	.byte		        Gs3 
	.byte		N06   , Cn4 
	.byte	W06
	.byte		        Gn3 
	.byte		N06   , As3 
	.byte	W06
	.byte		        Fn3 
	.byte		N06   , Gs3 
	.byte	W06
	.byte		        Ds3 
	.byte		N06   , Gn3 
	.byte	W06
	.byte		        Fn3 
	.byte		N06   , Gs3 
	.byte	W06
	.byte		        Gn3 
	.byte		N06   , As3 
	.byte	W06
	.byte		        Fn3 
	.byte		N06   , Gs3 
	.byte	W06
	.byte		        Ds3 
	.byte		N06   , Gn3 
	.byte	W06
	.byte		        Fn3 
	.byte		N06   , Gs3 
	.byte	W06
	.byte		        Ds3 
	.byte		N06   , Gn3 
	.byte	W06
	.byte		        Cs3 
	.byte		N06   , Fn3 
	.byte	W06
	.byte		        Cn3 
	.byte		N06   , Ds3 
	.byte	W06
	.byte	W96
	.byte	W96
	.byte	W96
	.byte		N06   , Gs3 , v060
	.byte		N06   , Cn4 
	.byte	W06
	.byte		        Gs3 , v020
	.byte		N06   , Cn4 
	.byte	W06
	.byte		        Gn3 , v060
	.byte		N06   , As3 
	.byte	W06
	.byte		        Gn3 , v020
	.byte		N06   , As3 
	.byte	W06
	.byte		        Fn3 , v060
	.byte		N06   , Gs3 
	.byte	W06
	.byte		        Fn3 , v020
	.byte		N06   , Gs3 
	.byte	W06
	.byte		N18   , Gn3 , v060
	.byte		N18   , As3 
	.byte	W18
	.byte		N06   , Gn3 , v020
	.byte		N06   , As3 
	.byte	W06
	.byte		        Fn3 , v060
	.byte		N06   , Gs3 
	.byte	W06
	.byte		        Fn3 , v020
	.byte		N06   , Gs3 
	.byte	W06
	.byte		        Ds3 , v060
	.byte		N06   , Gn3 
	.byte	W06
	.byte		        Ds3 , v020
	.byte		N06   , Gn3 
	.byte	W06
	.byte		        Fn3 , v060
	.byte		N06   , Gs3 
	.byte	W06
	.byte		        Fn3 , v020
	.byte		N06   , Gs3 
	.byte	W06
	.byte	PEND
	.byte	W96
	.byte	W90
	.byte		N03   , As2 , v060
	.byte		N03   , Cs3 
	.byte	W03
	.byte		        Cn3 
	.byte		N03   , Ds3 
	.byte	W03
	.byte		N06   , Cs3 
	.byte		N06   , Fn3 
	.byte	W06
	.byte		        Cs3 , v020
	.byte		N06   , Fn3 
	.byte	W06
	.byte		        Ds3 , v060
	.byte		N06   , Gn3 
	.byte	W06
	.byte		        Ds3 , v020
	.byte		N06   , Gn3 
	.byte	W06
	.byte		        Fn3 , v060
	.byte		N06   , Gs3 
	.byte	W06
	.byte		        Fn3 , v020
	.byte		N06   , Gs3 
	.byte	W06
	.byte		N18   , Ds3 , v060
	.byte		N18   , Gn3 
	.byte	W18
	.byte		N06   , Ds3 , v020
	.byte		N06   , Gn3 
	.byte	W06
	.byte		        Fn3 , v060
	.byte		N06   , Gs3 
	.byte	W06
	.byte		        Fn3 , v020
	.byte		N06   , Gs3 
	.byte	W06
	.byte		        Gn3 , v060
	.byte		N06   , As3 
	.byte	W06
	.byte		        Gn3 , v020
	.byte		N06   , As3 
	.byte	W06
	.byte		N18   , Fn3 , v060
	.byte		N18   , Gs3 
	.byte	W12
	.byte	W06
	.byte		N06   , Fn3 , v020
	.byte		N06   , Gs3 
	.byte	W06
	.byte		        Gn3 , v060
	.byte		N06   , As3 
	.byte	W06
	.byte		        Gn3 , v020
	.byte		N06   , As3 
	.byte	W06
	.byte		        Gs3 , v060
	.byte		N06   , Cn4 
	.byte	W06
	.byte		        Gs3 , v020
	.byte		N06   , Cn4 
	.byte	W06
	.byte		N18   , Gn3 , v060
	.byte		N18   , As3 
	.byte	W18
	.byte		N06   , Gn3 , v020
	.byte		N06   , As3 
	.byte	W06
	.byte		        Gs3 , v060
	.byte		N06   , Cn4 
	.byte	W06
	.byte		        Gs3 , v020
	.byte		N06   , Cn4 
	.byte	W06
	.byte		        As3 , v060
	.byte		N06   , Cs4 
	.byte	W06
	.byte		        As3 , v020
	.byte		N06   , Cs4 
	.byte	W06
	.byte		        Cn4 , v060
	.byte		N06   , Ds4 
	.byte	W06
	.byte		        Cn4 , v020
	.byte		N06   , Ds4 
	.byte	W06
	.byte	W96
	.byte	W96
	.byte	W96
	.byte	PATT
	 .word	seq_000_2 + 0x9C
	.byte	W96
	.byte	W96
	.byte	W96
	.byte	W96
	.byte		N24   , Cn3 , v060
	.byte		N24   , Fn3 
	.byte	W24
	.byte		N12   , Cn3 , v020
	.byte		N12   , Fn3 
	.byte	W12
	.byte		N24   , Fn3 , v060
	.byte		N24   , Gs3 
	.byte	W24
	.byte		N12   , Fn3 , v020
	.byte		N12   , Gs3 
	.byte	W12
	.byte		N24   , Ds3 , v060
	.byte		N24   , Gn3 
	.byte	W24
	.byte	PEND
	.byte		N12   , Ds3 , v020
	.byte		N12   , Gn3 
	.byte	W12
	.byte		N24   , Fn3 , v060
	.byte		N24   , Gs3 
	.byte	W24
	.byte		N12   , Fn3 , v020
	.byte		N12   , Gs3 
	.byte	W12
	.byte		        Gn3 , v060
	.byte		N12   , As3 
	.byte	W12
	.byte		        Gn3 , v020
	.byte		N12   , As3 
	.byte	W12
	.byte		        Gs3 , v060
	.byte		N12   , Cn4 
	.byte	W12
	.byte		        Gs3 , v020
	.byte		N12   , Cn4 
	.byte	W12
	.byte	PEND
	.byte	PATT
	 .word	seq_000_2 + 0x187
	.byte	PATT
	 .word	seq_000_2 + 0x1A6
	.byte	GOTO
	 .word	seq_000_2 + 0xB
	.byte	FINE

@*********************** Track 04 ***********************@

seq_000_3:
	.byte		VOL   , 102*seq_000_mvl/mxv
	.byte	KEYSH , seq_000_key+0
	.byte		VOICE , 3
	.byte	W01
	.byte		PAN   , c_v+0
	.byte	W02
	.byte	W96
	.byte		N12   , Fn3 , v120
	.byte	W36
	.byte		N12
	.byte	W24
	.byte		        Cn3 
	.byte	W12
	.byte		        Ds3 
	.byte	W12
	.byte		        Cn3 
	.byte	W12
	.byte	PEND
	.byte		N12   , Fn3 , v120
	.byte	W24
	.byte		        Ds3 
	.byte	W12
	.byte		        Fn3 
	.byte	W24
	.byte		        Cn3 
	.byte	W12
	.byte		        Ds3 
	.byte	W24
	.byte	PEND
	.byte	PATT
	 .word	seq_000_3 + 0xB
	.byte	PATT
	 .word	seq_000_3 + 0x18
	.byte		N12   , Cs3 , v120
	.byte	W36
	.byte		N12
	.byte	W24
	.byte		        Gs3 
	.byte	W12
	.byte		        Cs3 
	.byte	W12
	.byte		        Gs3 
	.byte	W12
	.byte	PEND
	.byte		N12   , Ds3 , v120
	.byte	W36
	.byte		N12
	.byte	W24
	.byte		        As3 
	.byte	W12
	.byte		        Ds3 
	.byte	W12
	.byte		        As3 
	.byte	W12
	.byte	PEND
	.byte	PATT
	 .word	seq_000_3 + 0xB
	.byte	PATT
	 .word	seq_000_3 + 0x18
	.byte	PATT
	 .word	seq_000_3 + 0xB
	.byte	PATT
	 .word	seq_000_3 + 0x18
	.byte	PATT
	 .word	seq_000_3 + 0xB
	.byte	PATT
	 .word	seq_000_3 + 0x18
	.byte	PATT
	 .word	seq_000_3 + 0x2F
	.byte	PATT
	 .word	seq_000_3 + 0x3C
	.byte	PATT
	 .word	seq_000_3 + 0xB
	.byte		N12   , Fn3 , v120
	.byte	W12
	.byte		        Fn4 
	.byte	W12
	.byte		        Gn3 
	.byte	W12
	.byte		        Gn4 
	.byte	W12
	.byte		        Gs3 
	.byte	W12
	.byte		        Gs4 
	.byte	W12
	.byte		        As3 
	.byte	W12
	.byte		        As4 
	.byte	W12
	.byte		N12   , Cs3 , v120
	.byte	W12
	.byte		        Cs4 
	.byte	W12
	.byte		        Gs3 
	.byte	W12
	.byte		        Cs3 
	.byte	W12
	.byte		        Cs4 
	.byte	W12
	.byte		        Gs3 
	.byte	W12
	.byte		        Cs3 
	.byte	W12
	.byte		        Cs4 
	.byte	W12
	.byte	PEND
	.byte	PATT
	 .word	seq_000_3 + 0x88
	.byte		N12   , Fn3 , v120
	.byte	W12
	.byte		        Fn4 
	.byte	W12
	.byte		        Cn4 
	.byte	W12
	.byte		        Fn3 
	.byte	W12
	.byte		        Fn4 
	.byte	W12
	.byte		        Cn4 
	.byte	W12
	.byte		        Fn3 
	.byte	W12
	.byte		        Fn4 
	.byte	W12
	.byte	PEND
	.byte	PATT
	 .word	seq_000_3 + 0xA0
	.byte	PATT
	 .word	seq_000_3 + 0x88
	.byte	PATT
	 .word	seq_000_3 + 0x88
	.byte	PATT
	 .word	seq_000_3 + 0xA0
	.byte	PATT
	 .word	seq_000_3 + 0xA0
	.byte	PATT
	 .word	seq_000_3 + 0x88
	.byte	PATT
	 .word	seq_000_3 + 0x88
	.byte	PATT
	 .word	seq_000_3 + 0xA0
	.byte	PATT
	 .word	seq_000_3 + 0xA0
	.byte	PATT
	 .word	seq_000_3 + 0x88
	.byte	PATT
	 .word	seq_000_3 + 0x88
	.byte		N12   , Ds3 , v120
	.byte	W12
	.byte		        Ds4 
	.byte	W12
	.byte		        As3 
	.byte	W12
	.byte		        Ds3 
	.byte	W12
	.byte		        Ds4 
	.byte	W12
	.byte		        As3 
	.byte	W12
	.byte		        Ds3 
	.byte	W12
	.byte		        Ds4 
	.byte	W12
	.byte	PEND
	.byte	PATT
	 .word	seq_000_3 + 0xEA
	.byte		N24   , Fn4 , v120
	.byte	W36
	.byte		        En4 
	.byte	W36
	.byte		        Ds4 
	.byte	W24
	.byte	W12
	.byte		        Dn4 
	.byte	W36
	.byte		N12   , Cs4 
	.byte	W24
	.byte		        Cn4 
	.byte	W24
	.byte		        Fn3 
	.byte	W12
	.byte		        Fn4 
	.byte	W12
	.byte		        Fn3 
	.byte	W12
	.byte		        En3 
	.byte	W12
	.byte		        En4 
	.byte	W12
	.byte		        En3 
	.byte	W12
	.byte		        Ds3 
	.byte	W12
	.byte		        Ds4 
	.byte	W12
	.byte		        Ds3 
	.byte	W12
	.byte		        Dn3 
	.byte	W12
	.byte		        Dn4 
	.byte	W12
	.byte		        Dn3 
	.byte	W12
	.byte		        Cs3 
	.byte	W12
	.byte		        Cs4 
	.byte	W12
	.byte		        Cn3 
	.byte	W12
	.byte		        Cn4 
	.byte	W12
	.byte	GOTO
	 .word	seq_000_3 + 0xB
	.byte	FINE

@*********************** Track 05 ***********************@

seq_000_4:
	.byte		VOL   , 102*seq_000_mvl/mxv
	.byte	KEYSH , seq_000_key+0
	.byte		VOICE , 4
	.byte	W01
	.byte		PAN   , c_v+0
	.byte	W02
	.byte		N24   , As1 , v040
	.byte	W24
	.byte		N24
	.byte	W24
	.byte		N24
	.byte	W48
	.byte		N36   , Cs2 , v100
	.byte	W36
	.byte		N12   , Fs1 , v052
	.byte	W12
	.byte		        Fs1 , v072
	.byte	W12
	.byte		        Fs1 , v052
	.byte	W12
	.byte		        Fs1 , v072
	.byte	W12
	.byte		        Fs1 , v052
	.byte	W12
	.byte	PEND
	.byte		N12   , Fs1 , v072
	.byte	W12
	.byte		        Fs1 , v052
	.byte	W12
	.byte		        Fs1 , v072
	.byte	W12
	.byte		        Fs1 , v052
	.byte	W12
	.byte		        Fs1 , v072
	.byte	W12
	.byte		        Fs1 , v052
	.byte	W12
	.byte		        Fs1 , v072
	.byte	W12
	.byte		        Fs1 , v052
	.byte	W12
	.byte	PEND
	.byte	PATT
	 .word	seq_000_4 + 0x27
	.byte		N12   , Fs1 , v072
	.byte	W12
	.byte		        Fs1 , v052
	.byte	W12
	.byte		        Fs1 , v072
	.byte	W12
	.byte		        Fs1 , v052
	.byte	W12
	.byte		        Fs1 , v072
	.byte	W12
	.byte		        Fs1 , v052
	.byte	W12
	.byte		        Fs1 , v072
	.byte	W12
	.byte		        As1 , v040
	.byte	W12
	.byte	PEND
	.byte	PATT
	 .word	seq_000_4 + 0x27
	.byte	PATT
	 .word	seq_000_4 + 0x27
	.byte	PATT
	 .word	seq_000_4 + 0x27
	.byte	PATT
	 .word	seq_000_4 + 0x46
	.byte	PATT
	 .word	seq_000_4 + 0x12
	.byte	PATT
	 .word	seq_000_4 + 0x27
	.byte	PATT
	 .word	seq_000_4 + 0x27
	.byte	PATT
	 .word	seq_000_4 + 0x46
	.byte	PATT
	 .word	seq_000_4 + 0x27
	.byte	PATT
	 .word	seq_000_4 + 0x27
	.byte	PATT
	 .word	seq_000_4 + 0x27
	.byte		N24   , As1 , v040
	.byte	W24
	.byte		N36   , As1 , v052
	.byte	W72
	.byte		N48   , Cs2 , v100
	.byte	W48
	.byte		N24   , As1 , v052
	.byte	W24
	.byte		        As1 , v040
	.byte	W24
	.byte	PEND
	.byte		N24   , As1 , v052
	.byte	W24
	.byte		        As1 , v040
	.byte	W24
	.byte		        As1 , v052
	.byte	W24
	.byte		        As1 , v040
	.byte	W24
	.byte	PEND
	.byte	PATT
	 .word	seq_000_4 + 0xAB
	.byte	PATT
	 .word	seq_000_4 + 0xAB
	.byte	PATT
	 .word	seq_000_4 + 0xAB
	.byte	PATT
	 .word	seq_000_4 + 0xAB
	.byte	PATT
	 .word	seq_000_4 + 0xAB
	.byte		N24   , As1 , v052
	.byte	W24
	.byte		        As1 , v040
	.byte	W72
	.byte	PEND
	.byte	PATT
	 .word	seq_000_4 + 0x9F
	.byte	PATT
	 .word	seq_000_4 + 0xAB
	.byte	PATT
	 .word	seq_000_4 + 0xAB
	.byte	PATT
	 .word	seq_000_4 + 0xAB
	.byte	PATT
	 .word	seq_000_4 + 0xAB
	.byte	PATT
	 .word	seq_000_4 + 0xAB
	.byte	PATT
	 .word	seq_000_4 + 0xAB
	.byte	PATT
	 .word	seq_000_4 + 0xD2
	.byte		N48   , Cs2 , v100
	.byte	W24
	.byte		N24   , Fs1 , v032
	.byte	W24
	.byte		        Fs1 , v052
	.byte	W24
	.byte		        Fs1 , v032
	.byte	W24
	.byte		        Fs1 , v052
	.byte	W24
	.byte		        Fs1 , v032
	.byte	W24
	.byte		        Fs1 , v052
	.byte	W24
	.byte		        Fs1 , v032
	.byte	W24
	.byte	W96
	.byte	W96
	.byte	GOTO
	 .word	seq_000_4 + 0x12
	.byte	FINE

@*********************** Track 06 ***********************@

seq_000_5:
	.byte		VOL   , 102*seq_000_mvl/mxv
	.byte	KEYSH , seq_000_key+0
	.byte		VOICE , 4
	.byte	W01
	.byte		PAN   , c_v+0
	.byte	W02
	.byte		N12   , Dn1 , v127
	.byte	W12
	.byte		        Cn1 
	.byte	W12
	.byte		        Dn1 
	.byte	W12
	.byte		        Cn1 
	.byte	W12
	.byte		        Dn1 
	.byte	W12
	.byte		N06   , Cn1 
	.byte	W06
	.byte		N05
	.byte	W05
	.byte		N03   , Dn1 , v080
	.byte	W03
	.byte		N22   , Dn1 , v127
	.byte	W22
	.byte		N24   , Cn1 , v127
	.byte	W24
	.byte		N12   , Dn1 
	.byte	W12
	.byte		N24   , Cn1 
	.byte	W24
	.byte		N12
	.byte	W12
	.byte		N24   , Dn1 
	.byte	W24
	.byte	PEND
	.byte	PATT
	 .word	seq_000_5 + 0x23
	.byte	PATT
	 .word	seq_000_5 + 0x23
	.byte		N24   , Cn1 , v127
	.byte	W24
	.byte		N12   , Dn1 
	.byte	W12
	.byte		N24   , Cn1 
	.byte	W24
	.byte		N12
	.byte	W12
	.byte		        Dn1 
	.byte	W12
	.byte		        Cn1 
	.byte	W12
	.byte	PEND
	.byte	PATT
	 .word	seq_000_5 + 0x23
	.byte	PATT
	 .word	seq_000_5 + 0x23
	.byte	PATT
	 .word	seq_000_5 + 0x23
	.byte		N24   , Cn1 , v127
	.byte	W24
	.byte		N12   , Dn1 
	.byte	W12
	.byte		N24   , Cn1 
	.byte	W24
	.byte		N12
	.byte	W12
	.byte		        Dn1 
	.byte	W12
	.byte		N06   , Cn1 
	.byte	W06
	.byte		        Dn1 
	.byte	W06
	.byte	PATT
	 .word	seq_000_5 + 0x23
	.byte	PATT
	 .word	seq_000_5 + 0x23
	.byte	PATT
	 .word	seq_000_5 + 0x23
	.byte	PATT
	 .word	seq_000_5 + 0x3D
	.byte	PATT
	 .word	seq_000_5 + 0x23
	.byte	PATT
	 .word	seq_000_5 + 0x23
	.byte	PATT
	 .word	seq_000_5 + 0x23
	.byte		N24   , Cn1 , v127
	.byte	W24
	.byte		N12   , Dn1 
	.byte	W12
	.byte		        Cn1 
	.byte	W12
	.byte		N06   , Dn1 
	.byte	W06
	.byte		N06
	.byte	W06
	.byte		N12   , Cn1 
	.byte	W12
	.byte		N06   , Dn1 
	.byte	W06
	.byte		N06
	.byte	W06
	.byte		N06
	.byte	W06
	.byte		N06
	.byte	W06
	.byte	PATT
	 .word	seq_000_5 + 0x23
	.byte	PATT
	 .word	seq_000_5 + 0x23
	.byte	PATT
	 .word	seq_000_5 + 0x23
	.byte	PATT
	 .word	seq_000_5 + 0x3D
	.byte	PATT
	 .word	seq_000_5 + 0x23
	.byte	PATT
	 .word	seq_000_5 + 0x23
	.byte	PATT
	 .word	seq_000_5 + 0x23
	.byte		N24   , Cn1 , v127
	.byte	W24
	.byte		N12   , Dn1 
	.byte	W12
	.byte		        Cn1 
	.byte	W12
	.byte		N06   , Dn1 
	.byte	W06
	.byte		N06
	.byte	W06
	.byte		N12   , Cn1 
	.byte	W01
	.byte		N11   , Bn1 
	.byte	W11
	.byte		N06   , Dn1 
	.byte	W06
	.byte		N06
	.byte	W06
	.byte		N12   , Cn1 
	.byte	W01
	.byte		N11   , Gn1 
	.byte	W11
	.byte	PATT
	 .word	seq_000_5 + 0x23
	.byte	PATT
	 .word	seq_000_5 + 0x23
	.byte	PATT
	 .word	seq_000_5 + 0x23
	.byte	PATT
	 .word	seq_000_5 + 0x3D
	.byte	PATT
	 .word	seq_000_5 + 0x23
	.byte	PATT
	 .word	seq_000_5 + 0x23
	.byte	PATT
	 .word	seq_000_5 + 0x23
	.byte		N24   , Cn1 , v127
	.byte	W24
	.byte		N12   , Dn1 
	.byte	W12
	.byte		        Cn1 
	.byte	W12
	.byte		N06   , Dn1 
	.byte	W06
	.byte		N06
	.byte	W06
	.byte		N06
	.byte	W06
	.byte		N06
	.byte	W06
	.byte		        Bn1 
	.byte	W06
	.byte		N06
	.byte	W06
	.byte		        Gn1 
	.byte	W06
	.byte		N06
	.byte	W06
	.byte		N24   , Cn1 
	.byte	W96
	.byte	W96
	.byte		N12   , Dn1 
	.byte	W12
	.byte		        Cn1 
	.byte	W01
	.byte		        Bn1 
	.byte	W11
	.byte		        Cn1 
	.byte	W01
	.byte		        Gn1 
	.byte	W11
	.byte		        Dn1 
	.byte	W12
	.byte		        Cn1 
	.byte	W01
	.byte		        Gn1 
	.byte	W11
	.byte		        Cn1 
	.byte	W01
	.byte		        Gn1 
	.byte	W11
	.byte		        Dn1 
	.byte	W12
	.byte		        Cn1 
	.byte	W01
	.byte		N11   , Bn1 
	.byte	W11
	.byte		N12   , Cn1 
	.byte	W01
	.byte		N11   , Gn1 
	.byte	W11
	.byte		N12   , Dn1 
	.byte	W12
	.byte		        Cn1 
	.byte	W01
	.byte		N11   , Dn2 
	.byte	W11
	.byte		N12   , Cn1 
	.byte	W01
	.byte		        Bn1 
	.byte	W11
	.byte		        Dn1 
	.byte	W12
	.byte		        Cn1 
	.byte	W01
	.byte		N11   , Bn1 
	.byte	W11
	.byte		N12   , Dn1 
	.byte	W12
	.byte		        Cn1 
	.byte	W01
	.byte		N11   , Gn1 
	.byte	W11
	.byte	GOTO
	 .word	seq_000_5 + 0x23
	.byte	FINE

@*********************** Track 07 ***********************@

seq_000_6:
	.byte		VOL   , 102*seq_000_mvl/mxv
	.byte	KEYSH , seq_000_key+0
	.byte		VOICE , 5
	.byte	W01
	.byte		PAN   , c_v-10
	.byte	W02
	.byte	W96
	.byte	W28
	.byte		MOD   , 0
	.byte		N12   , Gs2 , v040
	.byte	W12
	.byte		        Cn3 
	.byte	W12
	.byte		BEND  , c_v-32
	.byte		N12   , Gs3 
	.byte	W03
	.byte		BEND  , c_v+0
	.byte	W09
	.byte		N12   , Gn3 
	.byte	W12
	.byte		        Ds3 
	.byte	W12
	.byte		        As2 
	.byte	W08
	.byte	PEND
	.byte	W04
	.byte		MOD   , 0
	.byte		N48   , Cn3 , v040
	.byte	W24
	.byte		MOD   , 3
	.byte	W36
	.byte		        0
	.byte		BEND  , c_v-32
	.byte		N12
	.byte	W03
	.byte		BEND  , c_v+0
	.byte	W09
	.byte		N12   , As2 
	.byte	W12
	.byte		        Gs2 
	.byte	W08
	.byte	PEND
	.byte	W04
	.byte		MOD   , 0
	.byte		N36   , Cn3 , v040
	.byte	W24
	.byte		MOD   , 3
	.byte	W12
	.byte		        0
	.byte		N12   , Cs3 
	.byte	W12
	.byte		N24   , Ds3 
	.byte	W24
	.byte		N12   , Fn2 
	.byte	W12
	.byte		BEND  , c_v-32
	.byte		N12   , Cs3 
	.byte	W03
	.byte		BEND  , c_v+0
	.byte	W05
	.byte	PEND
	.byte	W04
	.byte		MOD   , 0
	.byte		N96   , Cn3 , v040
	.byte	W24
	.byte		MOD   , 3
	.byte	W24
	.byte		        6
	.byte	W44
	.byte	PEND
	.byte	W28
	.byte		MOD   , 0
	.byte		N12   , Fn2 , v040
	.byte	W12
	.byte		        Gs2 
	.byte	W12
	.byte		        Fn2 
	.byte	W12
	.byte		BEND  , c_v-32
	.byte		N24   , Cs3 
	.byte	W03
	.byte		BEND  , c_v+0
	.byte	W21
	.byte		N12   , Gs2 
	.byte	W08
	.byte	PEND
	.byte	W04
	.byte		MOD   , 0
	.byte		N36   , As2 , v040
	.byte	W24
	.byte		MOD   , 3
	.byte	W12
	.byte		        0
	.byte		N12   , Gs2 
	.byte	W12
	.byte		N24   , Gn2 
	.byte	W24
	.byte		N12   , Gs2 
	.byte	W20
	.byte	PEND
	.byte	W04
	.byte		        As2 
	.byte	W24
	.byte		MOD   , 0
	.byte		BEND  , c_v-32
	.byte		N72   , Cn3 
	.byte	W03
	.byte		BEND  , c_v+0
	.byte	W21
	.byte		MOD   , 3
	.byte	W24
	.byte		        6
	.byte	W20
	.byte	W96
	.byte	PATT
	 .word	seq_000_6 + 0xB
	.byte	PATT
	 .word	seq_000_6 + 0x24
	.byte	PATT
	 .word	seq_000_6 + 0x3C
	.byte	PATT
	 .word	seq_000_6 + 0x59
	.byte	PATT
	 .word	seq_000_6 + 0x66
	.byte	PATT
	 .word	seq_000_6 + 0x7D
	.byte	W04
	.byte		N12   , Gn2 , v040
	.byte	W24
	.byte		MOD   , 0
	.byte		BEND  , c_v-32
	.byte		N72   , Fn2 
	.byte	W03
	.byte		BEND  , c_v+0
	.byte	W21
	.byte		MOD   , 3
	.byte	W24
	.byte		        6
	.byte	W20
	.byte	W96
	.byte	W16
	.byte		MOD   , 0
	.byte		BEND  , c_v-32
	.byte		N24   , Fn3 , v040
	.byte	W03
	.byte		BEND  , c_v+0
	.byte	W21
	.byte		N12   , Cs3 
	.byte	W12
	.byte		N24   , Gs2 
	.byte	W24
	.byte		N12   , Fn2 
	.byte	W12
	.byte		        Gs2 
	.byte	W08
	.byte	PEND
	.byte	W04
	.byte		N12   , Cs3 , v040
	.byte	W12
	.byte		MOD   , 0
	.byte		N36   , Fn3 
	.byte	W24
	.byte		MOD   , 3
	.byte	W12
	.byte		        0
	.byte		N36   , Gn3 
	.byte	W24
	.byte		MOD   , 3
	.byte	W12
	.byte		        0
	.byte		N24   , Gs3 
	.byte	W08
	.byte	PEND
	.byte	W16
	.byte		BEND  , c_v-32
	.byte		N24   , Gs3 , v040
	.byte	W06
	.byte		BEND  , c_v+0
	.byte	W18
	.byte		N12   , Gn3 
	.byte	W12
	.byte		MOD   , 0
	.byte		N48   , Fn3 
	.byte	W24
	.byte		MOD   , 3
	.byte	W20
	.byte	PEND
	.byte	W96
	.byte	PATT
	 .word	seq_000_6 + 0xD8
	.byte	W04
	.byte		N12   , Cs3 , v040
	.byte	W12
	.byte		MOD   , 0
	.byte		N36   , Fn3 
	.byte	W24
	.byte		MOD   , 3
	.byte	W12
	.byte		        0
	.byte		N36   , Gn3 
	.byte	W24
	.byte		MOD   , 3
	.byte	W12
	.byte		        0
	.byte		N18   , Fn3 
	.byte	W08
	.byte	W96
	.byte	W96
	.byte	W16
	.byte		BEND  , c_v-32
	.byte		N24
	.byte	W03
	.byte		BEND  , c_v+0
	.byte	W21
	.byte		N12   , Cs3 
	.byte	W12
	.byte		N24   , Gs2 
	.byte	W24
	.byte		N12   , Fn2 
	.byte	W12
	.byte		        Gs2 
	.byte	W08
	.byte	PATT
	 .word	seq_000_6 + 0xF0
	.byte	PATT
	 .word	seq_000_6 + 0x109
	.byte	W96
	.byte	PATT
	 .word	seq_000_6 + 0xD8
	.byte	PATT
	 .word	seq_000_6 + 0xF0
	.byte	W16
	.byte		MOD   , 0
	.byte		BEND  , c_v-32
	.byte		N84   , As3 , v040
	.byte	W03
	.byte		BEND  , c_v+0
	.byte	W21
	.byte		MOD   , 3
	.byte	W24
	.byte		        6
	.byte	W32
	.byte	W04
	.byte		        0
	.byte		N04   , Gs3 
	.byte	W04
	.byte		        As3 
	.byte	W04
	.byte		        Gs3 
	.byte	W04
	.byte		MOD   , 0
	.byte		N84   , Gn3 
	.byte	W24
	.byte		MOD   , 3
	.byte	W24
	.byte		        6
	.byte	W32
	.byte	W96
	.byte	W96
	.byte	W96
	.byte	W96
	.byte	GOTO
	 .word	seq_000_6 + 0xB
	.byte	FINE

@******************************************************@

	.align	2

seq_000:
	.byte	7	@ NumTrks
	.byte	0	@ NumBlks
	.byte	seq_000_pri	@ Priority
	.byte	seq_000_rev	@ Reverb

	.word	seq_000_grp

	.word	seq_000_0
	.word	seq_000_1
	.word	seq_000_2
	.word	seq_000_3
	.word	seq_000_4
	.word	seq_000_5
	.word	seq_000_6

	.end
