@ File generated by m4a2s Song-Module
	.include "MPlayDef.s"

	.equ	seq_000_grp, bank_000
	.equ	seq_000_pri, 0
	.equ	seq_000_rev, 168
	.equ	seq_000_mvl, 127
	.equ	seq_000_key, 0

	.section .rodata
	.global	seq_000
	.align	2

@*********************** Track 01 ***********************@

seq_000_0:
	.byte	KEYSH , seq_000_key+0
	.byte	TEMPO , 146/2
	.byte		VOICE , 8
	.byte	W01
	.byte		PAN   , c_v-44
	.byte	W02
	.byte		VOL   , 94*seq_000_mvl/mxv
	.byte	W01
	.byte		BENDR , 12
	.byte	W02
	.byte		MODT  , mod_vib
	.byte	W01
	.byte		LFOS  , 31
	.byte	W02
	.byte		LFODL , 14
	.byte	W01
	.byte		MOD   , 0
	.byte	W02
	.byte		N05   , Fs2 , v072
	.byte	W06
	.byte		PAN   , c_v-14
	.byte		N05   , Gs2 
	.byte	W06
	.byte		PAN   , c_v+6
	.byte		N05   , An2 
	.byte	W06
	.byte		PAN   , c_v+26
	.byte		N05   , Bn2 
	.byte	W06
	.byte		PAN   , c_v-24
	.byte		N84   , Cs3 , v056
	.byte	W60
	.byte	W24
	.byte		N12   , Cs3 , v048
	.byte	W12
	.byte		N84   , Ds3 , v056
	.byte	W60
	.byte	W24
	.byte		N12   , Ds3 , v048
	.byte	W12
	.byte		N84   , En3 , v056
	.byte	W60
	.byte	W24
	.byte		N12   , En3 , v048
	.byte	W12
	.byte		N72   , Fs3 , v056
	.byte	W60
	.byte	W12
	.byte		N12   , Fs3 , v048
	.byte	W12
	.byte		        Fs3 , v036
	.byte	W12
	.byte		VOICE , 17
	.byte		PAN   , c_v+36
	.byte		N06   , Dn2 , v100
	.byte	W12
	.byte		        Dn2 , v072
	.byte	W12
	.byte		        Dn2 , v040
	.byte	W12
	.byte		        Dn2 , v020
	.byte	W24
	.byte	W36
	.byte		PAN   , c_v-37
	.byte		N06   , En2 , v100
	.byte	W12
	.byte		        En2 , v072
	.byte	W12
	.byte		        En2 , v040
	.byte	W12
	.byte		        En2 , v020
	.byte	W12
	.byte		PAN   , c_v+36
	.byte		N06   , Dn2 , v100
	.byte	W12
	.byte		        Dn2 , v072
	.byte	W12
	.byte		        Dn2 , v040
	.byte	W12
	.byte		        Dn2 , v020
	.byte	W12
	.byte		PAN   , c_v-37
	.byte		N06   , Cs2 , v100
	.byte	W12
	.byte		        Cs2 , v072
	.byte	W12
	.byte		        Cs2 , v040
	.byte	W12
	.byte		        Cs2 , v020
	.byte	W24
	.byte	W36
	.byte		PAN   , c_v+36
	.byte		N06   , An1 , v100
	.byte	W12
	.byte		        An1 , v072
	.byte	W12
	.byte		        An1 , v040
	.byte	W12
	.byte		        An1 , v020
	.byte	W12
	.byte		PAN   , c_v-37
	.byte		N06   , Bn1 , v100
	.byte	W12
	.byte		        Bn1 , v072
	.byte	W12
	.byte		        Bn1 , v040
	.byte	W12
	.byte		        Bn1 , v020
	.byte	W12
	.byte		VOICE , 8
	.byte		PAN   , c_v-24
	.byte		N96   , Fs3 , v048
	.byte	W60
	.byte	W36
	.byte		        Gs3 , v052
	.byte	W60
	.byte	W36
	.byte		        An3 , v056
	.byte	W60
	.byte	W36
	.byte		N72   , Bn3 , v060
	.byte	W60
	.byte	W12
	.byte		VOICE , 12
	.byte		PAN   , c_v+4
	.byte		N06   , Fs3 , v092
	.byte	W06
	.byte		        Gs3 
	.byte	W06
	.byte		BEND  , c_v+0
	.byte		N12   , An3 
	.byte	W06
	.byte		BEND  , c_v+10
	.byte	W06
	.byte		        c_v+0
	.byte		N12   , Cs4 
	.byte	W12
	.byte		        Bn3 
	.byte	W12
	.byte		        Cs4 
	.byte	W12
	.byte		N24   , Fs3 
	.byte	W24
	.byte		        An3 
	.byte	W24
	.byte		BEND  , c_v+0
	.byte		N12   , Fs3 
	.byte	W06
	.byte		BEND  , c_v+16
	.byte	W06
	.byte		MOD   , 7
	.byte		BEND  , c_v+0
	.byte		N48   , En4 
	.byte	W48
	.byte		N18   , Dn4 
	.byte	W12
	.byte	W06
	.byte		        En4 
	.byte	W18
	.byte		N12   , Dn4 
	.byte	W12
	.byte		N48   , Cs4 
	.byte	W48
	.byte		N18
	.byte	W12
	.byte	W06
	.byte		        Bn3 
	.byte	W18
	.byte		N12   , An3 
	.byte	W12
	.byte		N36   , Bn3 
	.byte	W36
	.byte		        Fs3 
	.byte	W24
	.byte	W12
	.byte		MOD   , 0
	.byte		N24   , Gs3 
	.byte	W24
	.byte		MOD   , 7
	.byte		N48   , An3 
	.byte	W48
	.byte		MOD   , 0
	.byte		N18
	.byte	W12
	.byte	W06
	.byte		        Gs3 
	.byte	W18
	.byte		N12   , En3 
	.byte	W12
	.byte		N17   , Fs3 
	.byte	W18
	.byte		        En3 
	.byte	W18
	.byte		N11   , Fs3 
	.byte	W12
	.byte		N17   , Gs3 
	.byte	W12
	.byte	W06
	.byte		        Fs3 
	.byte	W18
	.byte		BEND  , c_v+0
	.byte		N11   , Gs3 
	.byte	W06
	.byte		BEND  , c_v+5
	.byte	W06
	.byte		MOD   , 7
	.byte		BEND  , c_v+0
	.byte		N48   , As3 
	.byte	W48
	.byte		MOD   , 0
	.byte		N06
	.byte	W06
	.byte		        As3 , v072
	.byte	W06
	.byte		        As3 , v052
	.byte	W06
	.byte		        Gs3 , v092
	.byte	W06
	.byte		        Gs3 , v072
	.byte	W06
	.byte		        Gs3 , v052
	.byte	W06
	.byte		BEND  , c_v+0
	.byte		N12   , As3 , v092
	.byte	W06
	.byte		BEND  , c_v+5
	.byte	W06
	.byte		        c_v+0
	.byte		N12   , En4 
	.byte	W12
	.byte		        En4 , v060
	.byte	W12
	.byte		        En4 , v032
	.byte	W12
	.byte		        Dn4 , v092
	.byte	W12
	.byte		        Dn4 , v060
	.byte	W12
	.byte		        Cs4 , v092
	.byte	W12
	.byte		        Cs4 , v060
	.byte	W12
	.byte		VOICE , 8
	.byte		PAN   , c_v-24
	.byte		N06   , An2 
	.byte	W06
	.byte		PAN   , c_v+16
	.byte		N05   , Bn2 
	.byte	W06
	.byte	GOTO
	 .word	seq_000_0 + 0x2F
	.byte	FINE

@*********************** Track 02 ***********************@

seq_000_1:
	.byte	KEYSH , seq_000_key+0
	.byte		VOICE , 2
	.byte	W01
	.byte		VOL   , 103*seq_000_mvl/mxv
	.byte	W01
	.byte		PAN   , c_v+0
	.byte	W01
	.byte	W01
	.byte		XCMD  , xIECV , 40
	.byte	W01
	.byte	W01
	.byte		        xIECL , 3
	.byte	W01
	.byte		BENDR , 12
	.byte	W01
	.byte		LFOS  , 31
	.byte	W01
	.byte		LFODL , 14
	.byte	W01
	.byte		MODT  , mod_vib
	.byte	W01
	.byte		MOD   , 6
	.byte	W01
	.byte		N04   , Fs3 , v080
	.byte	W06
	.byte		        Gs3 
	.byte	W06
	.byte		        An3 
	.byte	W06
	.byte		        Bn3 
	.byte	W06
	.byte		N72   , En3 , v080
	.byte	W60
	.byte	W12
	.byte		N06   , En3 , v060
	.byte	W06
	.byte		N05   , En3 , v040
	.byte	W06
	.byte		N06   , Ds3 , v080
	.byte	W06
	.byte		        En3 
	.byte	W06
	.byte		N72   , Fs3 
	.byte	W60
	.byte	W12
	.byte		N06   , Fs3 , v060
	.byte	W06
	.byte		N05   , Fs3 , v040
	.byte	W06
	.byte		N06   , En3 , v080
	.byte	W06
	.byte		        Fs3 
	.byte	W06
	.byte		N72   , Gs3 
	.byte	W60
	.byte	W12
	.byte		N06   , Gs3 , v060
	.byte	W06
	.byte		N05   , Gs3 , v040
	.byte	W06
	.byte		N06   , Fs3 , v080
	.byte	W06
	.byte		        Gs3 
	.byte	W06
	.byte		N84   , An3 
	.byte	W48
	.byte		N12   , Bn3 
	.byte	W12
	.byte		        Bn3 , v072
	.byte	W12
	.byte		        Bn3 , v052
	.byte	W12
	.byte		        Bn3 , v032
	.byte	W12
	.byte		        En4 , v092
	.byte	W12
	.byte		        Gs3 
	.byte	W12
	.byte		        An3 
	.byte	W12
	.byte		N84   , En4 
	.byte	W24
	.byte	W60
	.byte		N06   , En4 , v060
	.byte	W06
	.byte		        En4 , v032
	.byte	W06
	.byte		N12   , En4 , v092
	.byte	W12
	.byte		N06   , Fs4 
	.byte	W06
	.byte		        Fs4 , v060
	.byte	W06
	.byte	PEND
	.byte		        Fs4 , v032
	.byte	W06
	.byte		        En4 , v092
	.byte	W06
	.byte		        En4 , v060
	.byte	W06
	.byte		        En4 , v032
	.byte	W06
	.byte		        Ds4 , v092
	.byte	W06
	.byte		        Ds4 , v060
	.byte	W06
	.byte		N18   , Ds4 , v092
	.byte	W18
	.byte		N06   , En4 
	.byte	W06
	.byte		        En4 , v060
	.byte	W06
	.byte		        En4 , v032
	.byte	W06
	.byte		N36   , Cs4 , v092
	.byte	W24
	.byte	W12
	.byte		N06   , Cs4 , v060
	.byte	W06
	.byte		        Cs4 , v032
	.byte	W06
	.byte		        Bn3 , v092
	.byte	W06
	.byte		        Cs4 
	.byte	W06
	.byte		N24   , An3 
	.byte	W24
	.byte		N06   , An3 , v060
	.byte	W06
	.byte		        An3 , v032
	.byte	W06
	.byte		        An3 , v092
	.byte	W06
	.byte		        Bn3 
	.byte	W06
	.byte		        Fs3 
	.byte	W06
	.byte		        Fs3 , v060
	.byte	W06
	.byte		        Fs3 , v092
	.byte	W06
	.byte		        Gs3 
	.byte	W06
	.byte		        An3 
	.byte	W06
	.byte		        Gs3 
	.byte	W06
	.byte		        An3 
	.byte	W06
	.byte		        Bn3 
	.byte	W06
	.byte		N12   , En4 
	.byte	W12
	.byte		        Gs3 
	.byte	W12
	.byte		        An3 
	.byte	W12
	.byte		N84   , En4 
	.byte	W24
	.byte	PATT
	 .word	seq_000_1 + 0x7D
	.byte		N06   , Fs4 , v032
	.byte	W06
	.byte		        En4 , v092
	.byte	W06
	.byte		        En4 , v060
	.byte	W06
	.byte		        En4 , v032
	.byte	W06
	.byte		N12   , Ds4 , v092
	.byte	W12
	.byte		N18   , Bn3 
	.byte	W18
	.byte		N06   , Cs4 
	.byte	W06
	.byte		        Cs4 , v060
	.byte	W06
	.byte		        Cs4 , v032
	.byte	W06
	.byte		N36   , Gs4 , v092
	.byte	W24
	.byte	W12
	.byte		N06   , Gs4 , v060
	.byte	W06
	.byte		        Gs4 , v032
	.byte	W06
	.byte		        An4 , v092
	.byte	W06
	.byte		        Bn4 
	.byte	W06
	.byte		N30   , Cs5 
	.byte	W30
	.byte		N06   , Cs5 , v060
	.byte	W06
	.byte		        Bn4 , v092
	.byte	W06
	.byte		        Cs5 
	.byte	W06
	.byte		N42   , Fs4 
	.byte	W12
	.byte	W30
	.byte		N06   , Fs4 , v060
	.byte	W30
	.byte		N24   , Dn3 , v080
	.byte	W24
	.byte		        An3 
	.byte	W12
	.byte	W12
	.byte		        Fs3 
	.byte	W24
	.byte		N48   , Fn3 
	.byte	W48
	.byte		N18
	.byte	W12
	.byte	W06
	.byte		        Fs3 
	.byte	W18
	.byte		N12   , Gs3 
	.byte	W12
	.byte		N48   , An3 
	.byte	W48
	.byte		N24   , Gs3 
	.byte	W12
	.byte	W12
	.byte		        En3 
	.byte	W24
	.byte		N36   , Gs3 
	.byte	W36
	.byte		N24   , An3 
	.byte	W24
	.byte		N12   , An3 , v060
	.byte	W12
	.byte		N06   , An3 , v032
	.byte	W06
	.byte		        An3 , v012
	.byte	W06
	.byte		N12   , Fs3 , v072
	.byte	W12
	.byte		N48   , Cs4 , v080
	.byte	W48
	.byte		N18
	.byte	W12
	.byte	W06
	.byte		        Bn3 
	.byte	W18
	.byte		N12   , An3 
	.byte	W12
	.byte		N18   , Gs3 
	.byte	W18
	.byte		        An3 
	.byte	W18
	.byte		N12   , Fs3 
	.byte	W12
	.byte		N18   , Dn3 
	.byte	W12
	.byte	W06
	.byte		        En3 
	.byte	W18
	.byte		N12   , An3 
	.byte	W12
	.byte		N06   , Bn2 
	.byte	W06
	.byte		        Bn2 , v040
	.byte	W06
	.byte		        Bn2 , v020
	.byte	W06
	.byte		        Ds3 , v080
	.byte	W06
	.byte		        Ds3 , v040
	.byte	W06
	.byte		        Ds3 , v020
	.byte	W06
	.byte		        Fs3 , v080
	.byte	W06
	.byte		        Fs3 , v040
	.byte	W06
	.byte		        Ds3 , v080
	.byte	W06
	.byte		        Ds3 , v040
	.byte	W06
	.byte		        Ds3 , v020
	.byte	W06
	.byte		        Fs3 , v080
	.byte	W06
	.byte		        Fs3 , v040
	.byte	W06
	.byte		        Fs3 , v020
	.byte	W06
	.byte		        Gs3 , v072
	.byte	W06
	.byte		        Gs3 , v052
	.byte	W06
	.byte		N12   , Bn3 , v080
	.byte	W12
	.byte		        Bn3 , v040
	.byte	W12
	.byte		        Bn3 , v020
	.byte	W12
	.byte		        An3 , v080
	.byte	W12
	.byte		        An3 , v040
	.byte	W12
	.byte		        Bn3 , v080
	.byte	W12
	.byte		        Bn3 , v040
	.byte	W12
	.byte		N11   , Bn3 , v020
	.byte	W12
	.byte	GOTO
	 .word	seq_000_1 + 0x2D
	.byte	FINE

@*********************** Track 03 ***********************@

seq_000_2:
	.byte	KEYSH , seq_000_key+0
	.byte		VOL   , 103*seq_000_mvl/mxv
	.byte	W01
	.byte		PAN   , c_v+0
	.byte	W01
	.byte	W01
	.byte		XCMD  , xIECV , 20
	.byte	W01
	.byte	W01
	.byte		        xIECL , 2
	.byte	W01
	.byte		VOICE , 0
	.byte	W06
	.byte		N01   , Fs1 , v040
	.byte	W06
	.byte		N01
	.byte	W06
	.byte		N11   , As1 , v052
	.byte	W12
	.byte		N32   , Cs2 , v060
	.byte		N03   , En2 , v127
	.byte	W12
	.byte		N03
	.byte	W12
	.byte		        Gs2 
	.byte	W12
	.byte		N01   , Ds1 , v092
	.byte		N01   , Fs1 , v040
	.byte	W06
	.byte		N01
	.byte		N01   , Gs2 , v080
	.byte	W06
	.byte		        Ds1 , v100
	.byte		N01   , As1 , v040
	.byte	W06
	.byte		        Gs2 , v060
	.byte	W06
	.byte		        Fs1 
	.byte		N03   , En2 , v127
	.byte	W06
	.byte		N01   , Fs1 , v040
	.byte	W06
	.byte		N01
	.byte		N03   , Gs2 , v127
	.byte	W06
	.byte		N01   , Fs1 , v040
	.byte	W06
	.byte		        As1 , v060
	.byte		N03   , En2 , v100
	.byte	W12
	.byte		N01   , Fs1 , v040
	.byte		N03   , En2 , v127
	.byte	W06
	.byte		N01   , Fs1 , v040
	.byte	W06
	.byte		        Ds1 
	.byte		N01   , As1 , v060
	.byte	W06
	.byte		        En2 , v080
	.byte	W06
	.byte		        Fs1 , v040
	.byte		N03   , Gs2 , v127
	.byte	W06
	.byte		N01   , Fs1 , v040
	.byte	W06
	.byte		        Ds1 , v092
	.byte		N01   , Fs1 , v060
	.byte	W06
	.byte		        Fs1 , v040
	.byte		N01   , Gs2 , v080
	.byte	W06
	.byte		        As1 , v060
	.byte		N01   , En2 , v092
	.byte	W06
	.byte		        Ds1 , v080
	.byte	W06
	.byte		        Fs1 , v060
	.byte		N03   , En2 , v127
	.byte	W06
	.byte		N01   , Fs1 , v040
	.byte	W06
	.byte		N01
	.byte		N03   , Gs2 , v127
	.byte	W06
	.byte		N01   , Fs1 , v040
	.byte	W06
	.byte		        As1 , v060
	.byte		N03   , En2 , v080
	.byte	W06
	.byte		        Gs2 , v100
	.byte	W06
	.byte		N32   , Cs2 , v052
	.byte		N03   , En2 , v127
	.byte	W12
	.byte		N03
	.byte	W12
	.byte		        Gs2 
	.byte	W12
	.byte		N01   , Ds1 , v092
	.byte		N01   , Fs1 , v040
	.byte	W06
	.byte		N01
	.byte		N01   , Gs2 , v080
	.byte	W06
	.byte		        Ds1 , v092
	.byte		N01   , As1 , v040
	.byte	W06
	.byte		        Gs2 , v080
	.byte	W06
	.byte		N01   , Fs1 , v060
	.byte		N03   , En2 , v127
	.byte	W06
	.byte		N01   , Fs1 , v040
	.byte	W06
	.byte		N01
	.byte		N03   , Gs2 , v127
	.byte	W06
	.byte		N01   , Fs1 , v040
	.byte	W06
	.byte		        As1 , v060
	.byte		N03   , En2 , v100
	.byte	W12
	.byte		N01   , Fs1 , v040
	.byte		N03   , En2 , v127
	.byte	W06
	.byte		N01   , Fs1 , v040
	.byte	W06
	.byte		        Ds1 , v060
	.byte		N01   , As1 
	.byte	W06
	.byte		        En2 , v092
	.byte	W06
	.byte		        Fs1 , v040
	.byte		N03   , Gs2 , v127
	.byte	W06
	.byte		N01   , Fs1 , v040
	.byte	W06
	.byte		        Ds1 , v092
	.byte		N01   , Fs1 , v060
	.byte	W06
	.byte		        Fs1 , v040
	.byte		N01   , Gs2 , v080
	.byte	W06
	.byte		        As1 , v060
	.byte		N01   , En2 , v092
	.byte	W06
	.byte		        Ds1 , v080
	.byte	W06
	.byte	PEND
	.byte		        Fs1 , v060
	.byte		N03   , En2 , v127
	.byte	W06
	.byte		N01   , Fs1 , v040
	.byte	W06
	.byte		N01
	.byte		N02   , Fn3 , v120
	.byte	W06
	.byte		N01   , Fs1 , v040
	.byte		N02   , Fs3 , v120
	.byte	W06
	.byte		N01   , Fs1 , v060
	.byte		N06   , En3 , v120
	.byte	W06
	.byte		N01   , Fs1 , v060
	.byte	W06
	.byte		N32   , Cs2 
	.byte		N03   , En2 , v127
	.byte	W12
	.byte		N03
	.byte	W12
	.byte		        Gs2 
	.byte	W12
	.byte		N01   , Ds1 , v092
	.byte		N01   , Fs1 , v040
	.byte	W06
	.byte		N01
	.byte		N01   , Gs2 , v080
	.byte	W06
	.byte		        Ds1 , v092
	.byte		N01   , As1 , v040
	.byte	W06
	.byte		        Gs2 , v092
	.byte	W06
	.byte		        Fs1 , v060
	.byte		N03   , En2 , v127
	.byte	W06
	.byte		N01   , Fs1 , v040
	.byte	W06
	.byte		N01
	.byte		N03   , Gs2 , v127
	.byte	W06
	.byte		N01   , Fs1 , v040
	.byte	W06
	.byte		        As1 , v060
	.byte		N03   , En2 , v100
	.byte	W12
	.byte		N01   , Fs1 , v040
	.byte		N03   , En2 , v127
	.byte	W06
	.byte		N01   , Fs1 , v040
	.byte	W06
	.byte		        Ds1 , v052
	.byte		N01   , As1 , v060
	.byte	W06
	.byte		        En2 , v092
	.byte	W06
	.byte		        Fs1 , v040
	.byte		N03   , Gs2 , v127
	.byte	W06
	.byte		N01   , Fs1 , v040
	.byte	W06
	.byte		        Ds1 , v092
	.byte		N01   , Fs1 , v060
	.byte	W06
	.byte		        Fs1 , v040
	.byte		N01   , Gs2 , v080
	.byte	W06
	.byte		        As1 , v060
	.byte		N01   , En2 , v092
	.byte	W06
	.byte		        Ds1 
	.byte	W06
	.byte		        Fs1 , v060
	.byte		N03   , En2 , v127
	.byte	W06
	.byte		N01   , Fs1 , v040
	.byte	W06
	.byte		N01
	.byte		N03   , Gs2 , v127
	.byte	W06
	.byte		N01   , Fs1 , v040
	.byte	W06
	.byte		        As1 , v060
	.byte		N01   , En2 , v092
	.byte	W06
	.byte		        Gs2 , v100
	.byte	W06
	.byte		        Fs1 , v040
	.byte		N03   , En2 , v127
	.byte	W06
	.byte		N01   , Fs1 , v040
	.byte	W06
	.byte		        Fs1 , v060
	.byte		N03   , En2 , v127
	.byte	W06
	.byte		N01   , Fs1 , v040
	.byte	W06
	.byte		N01
	.byte		N03   , Gs2 , v127
	.byte	W06
	.byte		N01   , Fs1 , v040
	.byte	W06
	.byte		        Ds1 , v092
	.byte		N01   , Fs1 , v060
	.byte	W06
	.byte		        Fs1 , v040
	.byte		N01   , Gs2 , v080
	.byte	W06
	.byte		        Ds1 , v092
	.byte		N01   , As1 , v060
	.byte	W06
	.byte		        Gs2 , v080
	.byte	W06
	.byte	PATT
	 .word	seq_000_2 + 0xC4
	.byte		N01   , Fs1 , v060
	.byte		N03   , En2 , v127
	.byte	W06
	.byte		N01   , Fs1 , v040
	.byte	W06
	.byte		N01
	.byte		N01   , Gs2 , v127
	.byte	W06
	.byte		        Fs1 , v040
	.byte		N01   , Gs2 , v127
	.byte	W06
	.byte		N03   , Ds1 
	.byte		N01   , As1 , v060
	.byte	W12
	.byte		N32   , Cs2 
	.byte		N03   , En2 , v127
	.byte	W12
	.byte		N03
	.byte	W12
	.byte		        Gs2 
	.byte	W12
	.byte		N01   , Ds1 , v092
	.byte		N01   , Fs1 , v040
	.byte	W06
	.byte		N01
	.byte		N01   , Gs2 , v080
	.byte	W06
	.byte		        Ds1 , v092
	.byte		N01   , As1 , v040
	.byte	W06
	.byte		        Gs2 , v080
	.byte	W06
	.byte	PATT
	 .word	seq_000_2 + 0xC4
	.byte		N01   , Fs1 , v060
	.byte		N03   , En2 , v127
	.byte	W06
	.byte		N01   , Fs1 , v040
	.byte	W06
	.byte		N01
	.byte		N03   , Gs2 , v127
	.byte	W06
	.byte		N01   , Fs1 , v040
	.byte	W06
	.byte		        As1 , v060
	.byte		N01   , En2 , v080
	.byte	W06
	.byte		        Gs2 , v120
	.byte	W06
	.byte		        Fs1 , v040
	.byte		N03   , En2 , v127
	.byte	W06
	.byte		N01   , Fs1 , v040
	.byte	W06
	.byte		        Fs1 , v060
	.byte		N03   , En2 , v127
	.byte	W06
	.byte		N01   , Fs1 , v040
	.byte	W06
	.byte		N01
	.byte		N03   , Gs2 , v127
	.byte	W06
	.byte		N01   , Fs1 , v040
	.byte	W06
	.byte		        Ds1 , v092
	.byte		N01   , Fs1 , v060
	.byte	W06
	.byte		        Fs1 , v040
	.byte		N01   , Gs2 , v080
	.byte	W06
	.byte		        Ds1 , v092
	.byte		N01   , As1 , v060
	.byte	W06
	.byte		        Gs2 , v080
	.byte	W06
	.byte		        Fs1 , v060
	.byte		N03   , En2 , v127
	.byte	W06
	.byte		N01   , Fs1 , v040
	.byte	W06
	.byte		N01
	.byte		N03   , Gs2 , v127
	.byte	W06
	.byte		N01   , Fs1 , v040
	.byte	W06
	.byte		        As1 , v060
	.byte		N03   , En2 , v100
	.byte	W12
	.byte		N01   , Fs1 , v040
	.byte		N03   , En2 , v127
	.byte	W06
	.byte		N01   , Fs1 , v040
	.byte	W06
	.byte		        Ds1 , v060
	.byte		N01   , As1 
	.byte	W06
	.byte		        En2 , v092
	.byte	W06
	.byte		        Fs1 , v040
	.byte		N03   , Gs2 , v127
	.byte	W06
	.byte		N01   , Fs1 , v040
	.byte	W06
	.byte		        Ds1 , v092
	.byte		N01   , As1 , v060
	.byte	W06
	.byte		        Gs2 , v080
	.byte	W06
	.byte		        As1 , v060
	.byte		N01   , En2 , v092
	.byte	W06
	.byte		        Ds1 , v080
	.byte	W06
	.byte		        Fs1 , v060
	.byte		N03   , En2 , v127
	.byte	W06
	.byte		N01   , Fs1 , v040
	.byte	W06
	.byte		N01
	.byte		N03   , Fn3 , v120
	.byte	W06
	.byte		N01   , Fs1 , v040
	.byte		N03   , Fs3 , v120
	.byte	W06
	.byte		N01   , Fs1 , v060
	.byte		N03   , Fn3 , v120
	.byte	W06
	.byte		N01   , Fs1 , v040
	.byte		N03   , En3 , v120
	.byte	W06
	.byte		N32   , Cs2 , v060
	.byte		N03   , En2 , v127
	.byte	W12
	.byte		N03
	.byte	W12
	.byte		        Gs2 
	.byte	W12
	.byte		N01   , Ds1 , v092
	.byte		N01   , Fs1 , v040
	.byte	W06
	.byte		N01
	.byte		N01   , Gs2 , v080
	.byte	W06
	.byte		        Ds1 , v092
	.byte		N01   , As1 , v040
	.byte	W06
	.byte		        Gs2 , v080
	.byte	W06
	.byte	PATT
	 .word	seq_000_2 + 0xC4
	.byte		N01   , Fs1 , v060
	.byte		N03   , En2 , v127
	.byte	W06
	.byte		N01   , Fs1 , v040
	.byte	W06
	.byte		N01
	.byte		N03   , Gs2 , v127
	.byte	W06
	.byte		N01   , Fs1 , v040
	.byte	W06
	.byte		        As1 , v060
	.byte		N01   , En2 , v080
	.byte	W06
	.byte		        Gs2 , v100
	.byte	W06
	.byte		        Fs1 , v040
	.byte		N03   , En2 , v127
	.byte	W06
	.byte		N01   , Fs1 , v040
	.byte	W06
	.byte		        Fs1 , v060
	.byte		N03   , En2 , v127
	.byte	W06
	.byte		N01   , Fs1 , v040
	.byte	W06
	.byte		N01
	.byte		N03   , Gs2 , v127
	.byte	W06
	.byte		N01   , Fs1 , v040
	.byte	W06
	.byte		        Ds1 , v092
	.byte		N01   , Fs1 , v060
	.byte	W06
	.byte		        Fs1 , v040
	.byte		N01   , Gs2 , v080
	.byte	W06
	.byte		        Ds1 , v092
	.byte		N01   , As1 , v060
	.byte	W06
	.byte		        Gs2 , v080
	.byte	W06
	.byte	PATT
	 .word	seq_000_2 + 0xC4
	.byte		N01   , Fs1 , v060
	.byte		N03   , En2 , v127
	.byte	W06
	.byte		N01   , Fs1 , v040
	.byte	W06
	.byte		N01
	.byte		N01   , Gs2 , v127
	.byte	W06
	.byte		        Fs1 , v040
	.byte		N01   , Gs2 , v127
	.byte	W06
	.byte		        Ds1 
	.byte		N01   , As1 , v060
	.byte	W06
	.byte		        En2 , v127
	.byte	W06
	.byte		N32   , Cs2 , v060
	.byte		N03   , En2 , v127
	.byte	W12
	.byte		N03
	.byte	W12
	.byte		        Gs2 
	.byte	W12
	.byte		N01   , Ds1 , v092
	.byte		N01   , Fs1 , v040
	.byte	W06
	.byte		N01
	.byte		N01   , Gs2 , v080
	.byte	W06
	.byte		        Ds1 , v092
	.byte		N01   , As1 , v040
	.byte	W06
	.byte		        Gs2 , v080
	.byte	W06
	.byte		        Fs1 , v060
	.byte		N03   , En2 , v127
	.byte	W06
	.byte		N01   , Fs1 , v040
	.byte	W06
	.byte		N01
	.byte		N03   , Gs2 , v127
	.byte	W06
	.byte		N01   , Fs1 , v040
	.byte	W06
	.byte		        As1 , v060
	.byte		N03   , En2 , v100
	.byte	W12
	.byte		N01   , Fs1 , v040
	.byte		N03   , En2 , v127
	.byte	W06
	.byte		N01   , Fs1 , v040
	.byte	W06
	.byte		        Ds1 , v072
	.byte		N01   , As1 , v060
	.byte	W06
	.byte		        Ds1 
	.byte	W06
	.byte		        Fs1 , v040
	.byte		N03   , Gs2 , v127
	.byte	W06
	.byte		N01   , Fs1 , v040
	.byte	W06
	.byte		        Ds1 , v092
	.byte		N01   , Fs1 , v060
	.byte	W06
	.byte		        Fs1 , v040
	.byte		N01   , Gs2 , v080
	.byte	W06
	.byte		        As1 , v060
	.byte		N01   , En2 , v092
	.byte	W06
	.byte		        Ds1 , v080
	.byte	W06
	.byte		        Fs1 , v060
	.byte		N03   , En2 , v127
	.byte	W06
	.byte		N01   , Fs1 , v040
	.byte	W06
	.byte		N01
	.byte		N03   , Gs2 , v127
	.byte	W06
	.byte		N01   , Fs1 , v040
	.byte	W06
	.byte		        As1 , v060
	.byte		N01   , En2 , v080
	.byte	W06
	.byte		        Gs2 , v120
	.byte	W06
	.byte		        Fs1 , v040
	.byte		N03   , En2 , v127
	.byte	W06
	.byte		N01   , Fs1 , v040
	.byte	W06
	.byte		        Fs1 , v060
	.byte		N03   , En2 , v127
	.byte	W06
	.byte		N01   , Fs1 , v040
	.byte	W06
	.byte		N01
	.byte		N03   , Gs2 , v127
	.byte	W06
	.byte		N01   , Fs1 , v040
	.byte	W06
	.byte		        Ds1 , v092
	.byte		N01   , Fs1 , v060
	.byte	W06
	.byte		        Fs1 , v040
	.byte		N01   , Gs2 , v127
	.byte	W06
	.byte		        As1 , v060
	.byte		N01   , Gs2 , v092
	.byte	W06
	.byte		        En2 , v060
	.byte	W06
	.byte		        Fs1 
	.byte		N03   , Gs2 , v127
	.byte	W06
	.byte		N01   , As1 , v052
	.byte	W06
	.byte		N03   , Gs2 , v127
	.byte	W06
	.byte		N03
	.byte	W06
	.byte		N01   , As1 , v040
	.byte		N06   , Fn3 , v120
	.byte	W12
	.byte		N23   , Cs2 , v060
	.byte		N03   , En2 , v127
	.byte	W12
	.byte		N01   , Ds1 , v060
	.byte	W06
	.byte		        En2 , v092
	.byte	W06
	.byte		        Fs1 , v040
	.byte		N03   , Gs2 , v127
	.byte	W06
	.byte		N01   , Fs1 , v040
	.byte	W06
	.byte		N32   , Cs2 , v052
	.byte		N03   , Fs3 , v120
	.byte	W12
	.byte		N01
	.byte	W02
	.byte		N12
	.byte	W10
	.byte	W06
	.byte		N01   , Fn3 , v092
	.byte	W02
	.byte		N12   , Fn3 , v120
	.byte	W04
	.byte		N23   , Bn1 , v060
	.byte	W12
	.byte		N01   , En3 , v092
	.byte	W02
	.byte		N08   , En3 , v120
	.byte	W10
	.byte	GOTO
	 .word	seq_000_2 + 0x1E
	.byte	FINE

@*********************** Track 04 ***********************@

seq_000_3:
	.byte	KEYSH , seq_000_key+0
	.byte		VOICE , 3
	.byte	W03
	.byte		VOL   , 103*seq_000_mvl/mxv
	.byte	W03
	.byte		PAN   , c_v+0
	.byte	W03
	.byte	W03
	.byte		XCMD  , xIECV , 40
	.byte	W03
	.byte	W03
	.byte		        xIECL , 3
	.byte	W03
	.byte		BENDR , 12
	.byte	W03
	.byte		LFOS  , 28
	.byte	W03
	.byte		LFODL , 14
	.byte	W03
	.byte		MOD   , 3
	.byte	W03
	.byte		MODT  , mod_vib
	.byte	W03
	.byte		N09   , Fs2 , v127
	.byte	W12
	.byte		N06
	.byte	W06
	.byte		N03   , Fs2 , v080
	.byte	W06
	.byte		N06   , Fs3 , v127
	.byte	W06
	.byte		        An2 
	.byte	W06
	.byte		        An2 , v080
	.byte	W06
	.byte		        Bn2 , v127
	.byte	W06
	.byte		        Bn2 , v080
	.byte	W06
	.byte		        Bn2 , v127
	.byte	W06
	.byte		N06   , Bn2 , v080
	.byte	W06
	.byte		N03   , Cn3 , v127
	.byte	W06
	.byte		N06   , Cs3 
	.byte	W06
	.byte		        Fs2 
	.byte	W06
	.byte		        Fs2 , v080
	.byte	W06
	.byte		N04   , Fs2 , v127
	.byte	W06
	.byte		N09   , Bn2 
	.byte	W12
	.byte		N06
	.byte	W06
	.byte		        Bn2 , v080
	.byte	W06
	.byte		N03   , Dn3 , v127
	.byte	W06
	.byte		N06   , Bn2 
	.byte	W06
	.byte		        Bn2 , v080
	.byte	W06
	.byte		        An2 , v127
	.byte	W06
	.byte		        An2 , v080
	.byte	W06
	.byte		        Bn2 , v127
	.byte	W06
	.byte	PEND
	.byte		N06   , Bn2 , v080
	.byte	W06
	.byte		N03   , Bn2 , v127
	.byte	W06
	.byte		        Dn3 
	.byte	W06
	.byte		        Ds3 
	.byte	W06
	.byte		N06   , En3 
	.byte	W06
	.byte		        En3 , v080
	.byte	W06
	.byte		N09   , Fs2 , v127
	.byte	W12
	.byte		N06
	.byte	W06
	.byte		N03   , Fs2 , v080
	.byte	W06
	.byte		N06   , Fs3 , v127
	.byte	W06
	.byte		        An2 
	.byte	W06
	.byte		        An2 , v080
	.byte	W06
	.byte		        Bn2 , v127
	.byte	W06
	.byte		        Bn2 , v080
	.byte	W06
	.byte		        Bn2 , v127
	.byte	W06
	.byte	PEND
	.byte	PATT
	 .word	seq_000_3 + 0x3F
	.byte		N06   , Bn2 , v080
	.byte	W06
	.byte		N03   , Bn1 , v127
	.byte	W06
	.byte		        Fs3 
	.byte	W06
	.byte		        Fn3 
	.byte	W06
	.byte		        En3 
	.byte	W06
	.byte		        Dn3 
	.byte	W06
	.byte		N09   , Fs2 
	.byte	W12
	.byte		N06
	.byte	W06
	.byte		N03   , Fs2 , v080
	.byte	W06
	.byte		N06   , Fs3 , v127
	.byte	W06
	.byte		        An2 
	.byte	W06
	.byte		        An2 , v080
	.byte	W06
	.byte		        Bn2 , v127
	.byte	W06
	.byte		        Bn2 , v080
	.byte	W06
	.byte		        Bn2 , v127
	.byte	W06
	.byte	PATT
	 .word	seq_000_3 + 0x3F
	.byte	PATT
	 .word	seq_000_3 + 0x6F
	.byte	PATT
	 .word	seq_000_3 + 0x3F
	.byte		N06   , Bn2 , v080
	.byte	W06
	.byte		N03   , Bn2 , v127
	.byte	W06
	.byte		        Dn3 
	.byte	W06
	.byte		        Bn2 
	.byte	W06
	.byte		        Dn3 
	.byte	W06
	.byte		        En3 
	.byte	W06
	.byte		N09   , Fs2 
	.byte	W12
	.byte		N06
	.byte	W06
	.byte		N03   , Fs2 , v080
	.byte	W06
	.byte		N06   , Fs3 , v127
	.byte	W06
	.byte		        An2 
	.byte	W06
	.byte		        An2 , v080
	.byte	W06
	.byte		        Bn2 , v127
	.byte	W06
	.byte		        Bn2 , v080
	.byte	W06
	.byte		        Bn2 , v127
	.byte	W06
	.byte	PATT
	 .word	seq_000_3 + 0x3F
	.byte	PATT
	 .word	seq_000_3 + 0x6F
	.byte	PATT
	 .word	seq_000_3 + 0x3F
	.byte		N06   , Bn2 , v080
	.byte	W06
	.byte		N03   , Bn2 , v127
	.byte	W06
	.byte		        Fs3 
	.byte	W06
	.byte		        Gn3 
	.byte	W06
	.byte		        An3 
	.byte	W06
	.byte		        Fs3 
	.byte	W06
	.byte		N09   , Dn2 
	.byte	W12
	.byte		N06
	.byte	W06
	.byte		N03   , Dn2 , v080
	.byte	W06
	.byte		N06   , Dn3 , v127
	.byte	W06
	.byte		        Dn2 
	.byte	W06
	.byte		        Dn2 , v080
	.byte	W06
	.byte		        An2 , v127
	.byte	W06
	.byte		        An2 , v080
	.byte	W06
	.byte		        Dn2 , v127
	.byte	W06
	.byte		        Dn2 , v080
	.byte	W06
	.byte		N03   , Dn2 , v127
	.byte	W06
	.byte		N06   , Fs2 
	.byte	W06
	.byte		        An2 
	.byte	W06
	.byte		        An2 , v080
	.byte	W06
	.byte		N04   , Dn2 , v127
	.byte	W06
	.byte		N09   , Gn2 
	.byte	W12
	.byte		N06
	.byte	W06
	.byte		        Gn2 , v080
	.byte	W06
	.byte		N03   , Gn3 , v127
	.byte	W06
	.byte		N06   , Gn2 
	.byte	W06
	.byte		        Gn2 , v080
	.byte	W06
	.byte		        Fn2 , v127
	.byte	W06
	.byte		        Fn2 , v080
	.byte	W06
	.byte		        Gn2 , v127
	.byte	W06
	.byte		        Gn2 , v080
	.byte	W06
	.byte		N03   , Gn2 , v127
	.byte	W06
	.byte		        Gn3 
	.byte	W06
	.byte		        Gn2 
	.byte	W06
	.byte		N06   , Bn2 
	.byte	W06
	.byte		        Gn2 , v080
	.byte	W06
	.byte		N09   , Fs2 , v127
	.byte	W12
	.byte		N06
	.byte	W06
	.byte		N03   , Fs2 , v080
	.byte	W06
	.byte		N06   , Fs3 , v127
	.byte	W06
	.byte		        An2 
	.byte	W06
	.byte		        An2 , v080
	.byte	W06
	.byte		        Bn2 , v127
	.byte	W06
	.byte		        Bn2 , v080
	.byte	W06
	.byte		        Bn2 , v127
	.byte	W06
	.byte		        Bn2 , v080
	.byte	W06
	.byte		N03   , Cn3 , v127
	.byte	W06
	.byte		N06   , Cs3 
	.byte	W06
	.byte		        Fs2 
	.byte	W06
	.byte		        Fs2 , v080
	.byte	W06
	.byte		N04   , Fs2 , v127
	.byte	W06
	.byte		N09   , Ds2 
	.byte	W12
	.byte		N06
	.byte	W06
	.byte		        Ds2 , v080
	.byte	W06
	.byte		N03   , Ds3 , v127
	.byte	W06
	.byte		N06   , Ds2 
	.byte	W06
	.byte		        Ds2 , v080
	.byte	W06
	.byte		        Fs2 , v127
	.byte	W06
	.byte		        Fs2 , v080
	.byte	W06
	.byte		        Fs2 , v127
	.byte	W06
	.byte		        Fs2 , v080
	.byte	W06
	.byte		N03   , Ds2 , v127
	.byte	W06
	.byte		        Bn2 
	.byte	W06
	.byte		        Fs2 
	.byte	W06
	.byte		        Ds2 
	.byte	W06
	.byte		        Fs2 
	.byte	W06
	.byte		N09   , Dn2 
	.byte	W12
	.byte		N06
	.byte	W06
	.byte		N03   , Dn2 , v080
	.byte	W06
	.byte		N06   , Dn3 , v127
	.byte	W06
	.byte		        An2 
	.byte	W06
	.byte		        An2 , v080
	.byte	W06
	.byte		        Dn2 , v127
	.byte	W06
	.byte		        Dn2 , v080
	.byte	W06
	.byte		N06
	.byte	W06
	.byte		        An2 , v127
	.byte	W06
	.byte		        En2 
	.byte	W06
	.byte		        En2 , v080
	.byte	W06
	.byte		        Cs3 , v127
	.byte	W06
	.byte		        An2 
	.byte	W06
	.byte		N04   , Dn2 
	.byte	W06
	.byte		N06   , Cs3 
	.byte	W06
	.byte		        Cs3 , v080
	.byte	W06
	.byte		        Dn2 , v127
	.byte	W06
	.byte		        An2 
	.byte	W06
	.byte		        Dn3 
	.byte	W06
	.byte		        An2 
	.byte	W06
	.byte		        An2 , v080
	.byte	W06
	.byte		        Dn2 , v127
	.byte	W06
	.byte		        Dn2 , v080
	.byte	W06
	.byte		        Dn2 , v127
	.byte	W06
	.byte		        Dn3 
	.byte	W06
	.byte		        Dn3 , v080
	.byte	W06
	.byte		        An2 , v127
	.byte	W06
	.byte		        Cs3 
	.byte	W06
	.byte		        Cs3 , v080
	.byte	W06
	.byte		N04   , Dn3 , v127
	.byte	W06
	.byte		N09   , Gs2 
	.byte	W12
	.byte		N06
	.byte	W06
	.byte		N03   , Gs2 , v080
	.byte	W06
	.byte		N06   , As2 , v127
	.byte	W06
	.byte		        Gs2 
	.byte	W06
	.byte		        Gs2 , v080
	.byte	W06
	.byte		        Gs2 , v127
	.byte	W06
	.byte		        Gs2 , v080
	.byte	W06
	.byte		        Gs2 , v127
	.byte	W06
	.byte		N06
	.byte	W06
	.byte		N03   , Gs2 , v080
	.byte	W06
	.byte		N06   , Ds2 , v127
	.byte	W06
	.byte		        Fs2 
	.byte	W06
	.byte		BEND  , c_v+0
	.byte		N12   , Bn2 
	.byte	W06
	.byte		BEND  , c_v-3
	.byte	W02
	.byte		        c_v-5
	.byte	W02
	.byte		        c_v-8
	.byte	W02
	.byte		        c_v-8
	.byte		N48   , Cs2 
	.byte	W03
	.byte		BEND  , c_v-5
	.byte	W01
	.byte		        c_v-3
	.byte	W02
	.byte		        c_v+0
	.byte	W42
	.byte		N06   , Cs2 , v080
	.byte	W06
	.byte		        Cs2 , v052
	.byte	W06
	.byte		        Cs2 , v032
	.byte	W36
	.byte	GOTO
	 .word	seq_000_3 + 0x23
	.byte	FINE

@*********************** Track 05 ***********************@

seq_000_4:
	.byte	KEYSH , seq_000_key+0
	.byte		VOICE , 1
	.byte	W03
	.byte		VOL   , 103*seq_000_mvl/mxv
	.byte	W04
	.byte	W04
	.byte		XCMD  , xIECV , 40
	.byte	W03
	.byte	W03
	.byte		        xIECL , 3
	.byte	W04
	.byte		BENDR , 12
	.byte	W03
	.byte		LFOS  , 28
	.byte	W03
	.byte		LFODL , 14
	.byte	W03
	.byte		MOD   , 3
	.byte	W03
	.byte		MODT  , mod_vib
	.byte	W03
	.byte		PAN   , c_v+63
	.byte		N06   , Cs4 , v100
	.byte	W06
	.byte		        En3 
	.byte	W06
	.byte		        An3 
	.byte	W06
	.byte		        Cs4 
	.byte	W06
	.byte		        Cs4 , v040
	.byte	W06
	.byte		PAN   , c_v-64
	.byte		N06   , En3 , v100
	.byte	W06
	.byte		        An3 
	.byte	W06
	.byte		        Cs4 
	.byte	W06
	.byte		        Cs4 , v040
	.byte	W06
	.byte		PAN   , c_v+63
	.byte		N06   , En3 , v100
	.byte	W06
	.byte		N06   , An3 , v100
	.byte	W06
	.byte		        Cs4 
	.byte	W06
	.byte		        Cs4 , v040
	.byte	W06
	.byte		PAN   , c_v-64
	.byte		N06   , Gs3 , v100
	.byte	W06
	.byte		        An3 
	.byte	W06
	.byte		        Bn3 
	.byte	W06
	.byte		PAN   , c_v+63
	.byte		N06   , Cs4 
	.byte	W06
	.byte		        En3 
	.byte	W06
	.byte		        An3 
	.byte	W06
	.byte		        Cs4 
	.byte	W06
	.byte		        Cs4 , v040
	.byte	W06
	.byte		PAN   , c_v-64
	.byte		N06   , En3 , v100
	.byte	W06
	.byte		        An3 
	.byte	W06
	.byte		        Cs4 
	.byte	W06
	.byte		        Cs4 , v040
	.byte	W06
	.byte		PAN   , c_v+63
	.byte		N06   , En3 , v100
	.byte	W06
	.byte	PEND
	.byte	PATT
	 .word	seq_000_4 + 0x42
	.byte		N06   , An3 , v100
	.byte	W06
	.byte		        Cs4 
	.byte	W06
	.byte		        Cs4 , v040
	.byte	W06
	.byte		PAN   , c_v-64
	.byte		N06   , Bn3 , v100
	.byte	W06
	.byte		        An3 
	.byte	W06
	.byte		        Gs3 
	.byte	W06
	.byte		PAN   , c_v+63
	.byte		N06   , Cs4 
	.byte	W06
	.byte		        Ds3 
	.byte	W06
	.byte		        An3 
	.byte	W06
	.byte		        Cs4 
	.byte	W06
	.byte		        Cs4 , v040
	.byte	W06
	.byte		PAN   , c_v-64
	.byte		N06   , Ds3 , v100
	.byte	W06
	.byte		        An3 
	.byte	W06
	.byte		        Cs4 
	.byte	W06
	.byte		        Cs4 , v040
	.byte	W06
	.byte		PAN   , c_v+63
	.byte		N06   , Ds3 , v100
	.byte	W06
	.byte	PEND
	.byte		N06   , An3 , v100
	.byte	W06
	.byte		        Bn3 
	.byte	W06
	.byte		PAN   , c_v-64
	.byte		N06   , Cs4 
	.byte	W06
	.byte		        Bn3 
	.byte	W06
	.byte		        Cs4 
	.byte	W06
	.byte		        Gs4 
	.byte	W06
	.byte		PAN   , c_v+63
	.byte		N06   , Cs4 
	.byte	W06
	.byte		        En3 
	.byte	W06
	.byte		        An3 
	.byte	W06
	.byte		        Cs4 
	.byte	W06
	.byte		        Cs4 , v040
	.byte	W06
	.byte		PAN   , c_v-64
	.byte		N06   , En3 , v100
	.byte	W06
	.byte		        An3 
	.byte	W06
	.byte		        Cs4 
	.byte	W06
	.byte		        Cs4 , v040
	.byte	W06
	.byte		PAN   , c_v+63
	.byte		N06   , En3 , v100
	.byte	W06
	.byte	PEND
	.byte		N06   , An3 , v100
	.byte	W06
	.byte		        Cs4 
	.byte	W06
	.byte		        Cs4 , v040
	.byte	W06
	.byte		PAN   , c_v-64
	.byte		N06   , Gs3 , v100
	.byte	W06
	.byte		        An3 
	.byte	W06
	.byte		        Bn3 
	.byte	W06
	.byte		PAN   , c_v+63
	.byte		N06   , Cs4 
	.byte	W06
	.byte		        Ds3 
	.byte	W06
	.byte		        An3 
	.byte	W06
	.byte		        Cs4 
	.byte	W06
	.byte		        Cs4 , v040
	.byte	W06
	.byte		PAN   , c_v-64
	.byte		N06   , Ds3 , v100
	.byte	W06
	.byte		        An3 
	.byte	W06
	.byte		        Cs4 
	.byte	W06
	.byte		        Cs4 , v040
	.byte	W06
	.byte		PAN   , c_v+63
	.byte		N06   , Ds3 , v100
	.byte	W06
	.byte	PEND
	.byte	PATT
	 .word	seq_000_4 + 0xB1
	.byte	PATT
	 .word	seq_000_4 + 0x7C
	.byte	PATT
	 .word	seq_000_4 + 0xB1
	.byte	PATT
	 .word	seq_000_4 + 0xE4
	.byte	PATT
	 .word	seq_000_4 + 0xB1
	.byte		N06   , An3 , v100
	.byte	W06
	.byte		        Bn3 
	.byte	W06
	.byte		PAN   , c_v-64
	.byte		N06   , Cs4 
	.byte	W06
	.byte		        Bn3 
	.byte	W06
	.byte		        Cs4 
	.byte	W06
	.byte		        Gs4 
	.byte	W06
	.byte		PAN   , c_v+63
	.byte		N06   , An4 
	.byte	W06
	.byte		        Gs4 
	.byte	W06
	.byte		        Fs4 
	.byte	W06
	.byte		        An4 
	.byte	W06
	.byte		PAN   , c_v-64
	.byte		N06   , Gs4 
	.byte	W06
	.byte		        Fs4 
	.byte	W06
	.byte		        Ds4 
	.byte	W06
	.byte		        Gs4 
	.byte	W06
	.byte		PAN   , c_v+63
	.byte		N06   , Fs4 
	.byte	W06
	.byte		        Ds4 
	.byte	W06
	.byte		        Cs4 
	.byte	W06
	.byte		        Fs4 
	.byte	W06
	.byte		PAN   , c_v-64
	.byte		N06   , Ds4 
	.byte	W06
	.byte		        Cs4 
	.byte	W06
	.byte		        Bn3 
	.byte	W06
	.byte		        Ds3 
	.byte	W06
	.byte		PAN   , c_v+63
	.byte		N06   , An4 
	.byte	W06
	.byte		        Fs4 
	.byte	W06
	.byte		        Cs5 
	.byte	W06
	.byte		        Fs4 
	.byte	W06
	.byte		PAN   , c_v-64
	.byte		N06   , Dn4 
	.byte	W06
	.byte		        Fs4 
	.byte	W06
	.byte		        An4 
	.byte	W06
	.byte		        Dn5 
	.byte	W06
	.byte		PAN   , c_v+63
	.byte		N06   , Cs5 
	.byte	W06
	.byte		        An4 
	.byte	W06
	.byte		        Cs4 
	.byte	W06
	.byte		        Fs4 
	.byte	W06
	.byte		PAN   , c_v-64
	.byte		N06   , An4 
	.byte	W06
	.byte		        Gs4 
	.byte	W06
	.byte		        Fs4 
	.byte	W06
	.byte		        Cs4 
	.byte	W06
	.byte		PAN   , c_v+63
	.byte		N06   , Bn3 
	.byte	W06
	.byte		        En4 
	.byte	W06
	.byte		        Fn4 
	.byte	W06
	.byte		        Gn4 
	.byte	W06
	.byte		PAN   , c_v-64
	.byte		N06   , En4 
	.byte	W06
	.byte		        Bn4 
	.byte	W06
	.byte		        Fn4 
	.byte	W06
	.byte		        Gn4 
	.byte	W06
	.byte		PAN   , c_v+63
	.byte		N06   , Bn4 
	.byte	W06
	.byte		        Dn5 
	.byte	W06
	.byte		        En5 
	.byte	W06
	.byte		        Bn4 
	.byte	W06
	.byte		PAN   , c_v-64
	.byte		N06   , Gn4 
	.byte	W06
	.byte		        Fn4 
	.byte	W06
	.byte		        Bn4 
	.byte	W06
	.byte		        En4 
	.byte	W06
	.byte		PAN   , c_v+63
	.byte		N06   , Cs4 
	.byte	W06
	.byte		        Gs3 
	.byte	W06
	.byte		        An3 
	.byte	W06
	.byte		        Cs4 
	.byte	W06
	.byte		PAN   , c_v-64
	.byte		N06   , En4 
	.byte	W06
	.byte		        Gs4 
	.byte	W06
	.byte		        An4 
	.byte	W06
	.byte		        Cs4 
	.byte	W06
	.byte		PAN   , c_v+63
	.byte		N06   , En4 
	.byte	W06
	.byte		        Cs5 
	.byte	W06
	.byte		        An4 
	.byte	W06
	.byte		        Gs4 
	.byte	W06
	.byte		PAN   , c_v+63
	.byte		N06   , An4 
	.byte	W06
	.byte		        Gs4 
	.byte	W06
	.byte		        Fs4 
	.byte	W06
	.byte		        En4 
	.byte	W06
	.byte		PAN   , c_v+63
	.byte		N06   , Cs4 
	.byte	W06
	.byte		        Fs4 
	.byte	W06
	.byte		        Bn4 
	.byte	W06
	.byte		        Cs4 
	.byte	W06
	.byte		PAN   , c_v-64
	.byte		N06   , Bn3 
	.byte	W06
	.byte		        Fs3 
	.byte	W06
	.byte		        Cs4 
	.byte	W06
	.byte		        Bn4 
	.byte	W06
	.byte		PAN   , c_v+63
	.byte		N06   , Ds4 
	.byte	W06
	.byte		        Fs4 
	.byte	W06
	.byte		        Cs5 
	.byte	W06
	.byte		        Bn4 
	.byte	W06
	.byte		PAN   , c_v-64
	.byte		N06   , Ds5 
	.byte	W06
	.byte		        Bn4 
	.byte	W06
	.byte		PAN   , c_v+0
	.byte		N03   , Fs4 , v080
	.byte	W03
	.byte		        Cs4 
	.byte	W03
	.byte		        Ds5 
	.byte	W03
	.byte		        Bn4 
	.byte	W03
	.byte		PAN   , c_v+63
	.byte		N06   , Cs4 , v100
	.byte	W06
	.byte		        Dn4 
	.byte	W06
	.byte		        Fs4 
	.byte	W06
	.byte		        An4 
	.byte	W06
	.byte		PAN   , c_v-64
	.byte		N06   , Cs5 
	.byte	W06
	.byte		        Fs4 
	.byte	W06
	.byte		        An4 
	.byte	W06
	.byte		        Cs5 
	.byte	W06
	.byte		PAN   , c_v+63
	.byte		N06   , An4 
	.byte	W06
	.byte		        Dn4 
	.byte	W06
	.byte		        Fs4 
	.byte	W06
	.byte		        Dn4 
	.byte	W06
	.byte		PAN   , c_v-64
	.byte		N06   , Cs5 
	.byte	W06
	.byte		        Fs4 
	.byte	W06
	.byte		        An4 
	.byte	W06
	.byte		        Dn4 
	.byte	W06
	.byte		PAN   , c_v+63
	.byte		N06   , Cs4 
	.byte	W06
	.byte		        Dn3 
	.byte	W06
	.byte		        Fs3 
	.byte	W06
	.byte		        An3 
	.byte	W06
	.byte		PAN   , c_v-64
	.byte		N06   , Cs4 
	.byte	W06
	.byte		        Fs3 
	.byte	W06
	.byte		        An3 
	.byte	W06
	.byte		        Cs4 
	.byte	W06
	.byte		PAN   , c_v+63
	.byte		N06   , Dn4 
	.byte	W06
	.byte		        An3 
	.byte	W06
	.byte		        Cs4 
	.byte	W06
	.byte		        Dn4 
	.byte	W06
	.byte		PAN   , c_v-64
	.byte		N06   , Fs4 
	.byte	W06
	.byte		        An4 
	.byte	W06
	.byte		        Cs5 
	.byte	W06
	.byte		        Dn5 
	.byte	W06
	.byte		PAN   , c_v+63
	.byte		N06   , Ds5 
	.byte	W06
	.byte		        Bn4 
	.byte	W06
	.byte		        Ds4 
	.byte	W06
	.byte		        Fs4 
	.byte	W06
	.byte		PAN   , c_v-64
	.byte		N06   , Bn4 
	.byte	W06
	.byte		        Fs4 
	.byte	W06
	.byte		        En4 
	.byte	W06
	.byte		        As3 
	.byte	W06
	.byte		PAN   , c_v+63
	.byte		N06   , Gs3 
	.byte	W06
	.byte		        As3 
	.byte	W06
	.byte		        Ds4 
	.byte	W06
	.byte		        Fs4 
	.byte	W06
	.byte		PAN   , c_v-64
	.byte		N03   , Gs3 
	.byte	W03
	.byte		        Bn3 
	.byte	W03
	.byte		        Ds4 
	.byte	W03
	.byte		        Fs4 
	.byte	W03
	.byte		PAN   , c_v+63
	.byte		N03   , As4 
	.byte	W03
	.byte		        Bn4 
	.byte	W03
	.byte		        Ds5 
	.byte	W03
	.byte		        Fs5 
	.byte	W03
	.byte		PAN   , c_v+0
	.byte		N12   , Fn4 , v080
	.byte	W12
	.byte		        Fn4 , v052
	.byte	W12
	.byte		        Fn4 , v032
	.byte	W12
	.byte		        Fn4 , v080
	.byte	W12
	.byte		        Fn4 , v052
	.byte	W12
	.byte		        Fn4 , v080
	.byte	W12
	.byte		        Fn4 , v052
	.byte	W12
	.byte		N11   , Fn4 , v032
	.byte	W12
	.byte	GOTO
	 .word	seq_000_4 + 0x20
	.byte	FINE

@******************************************************@

	.align	2

seq_000:
	.byte	5	@ NumTrks
	.byte	0	@ NumBlks
	.byte	seq_000_pri	@ Priority
	.byte	seq_000_rev	@ Reverb

	.word	seq_000_grp

	.word	seq_000_0
	.word	seq_000_1
	.word	seq_000_2
	.word	seq_000_3
	.word	seq_000_4

	.end
