@ File generated by m4a2s Song-Module
	.include "MPlayDef.s"

	.equ	seq_000_grp, bank_000
	.equ	seq_000_pri, 0
	.equ	seq_000_rev, 163
	.equ	seq_000_mvl, 127
	.equ	seq_000_key, 0

	.section .rodata
	.global	seq_000
	.align	2

@*********************** Track 01 ***********************@

seq_000_0:
	.byte	KEYSH , seq_000_key+0
	.byte	TEMPO , 150/2
	.byte		VOICE , 0
	.byte		VOL   , 113*seq_000_mvl/mxv
	.byte		PAN   , c_v+0
	.byte		XCMD  , xIECV , 20
	.byte		        xIECL , 2
	.byte		N06   , Bn0 , v112
	.byte		N48   , Cs2 , v072
	.byte	W96
	.byte	W84
	.byte		N06   , Bn0 , v112
	.byte	W12
	.byte		N06
	.byte		N48   , Cs2 , v072
	.byte	W96
	.byte	W60
	.byte		N36   , Bn1 
	.byte	W24
	.byte		N06   , Bn0 , v112
	.byte	W12
	.byte		N06   , Bn0 , v112
	.byte		N36   , Cs2 , v072
	.byte	W12
	.byte		N10   , Fn1 , v092
	.byte	W12
	.byte		N06   , Bn0 , v100
	.byte	W12
	.byte		N10   , Fn1 , v080
	.byte		N02   , Fs1 , v060
	.byte	W06
	.byte		        Fs1 , v040
	.byte	W06
	.byte		N06   , Bn0 , v112
	.byte		N02   , Fs1 , v060
	.byte	W06
	.byte		        Fs1 , v040
	.byte	W06
	.byte		        Fs1 , v060
	.byte	W06
	.byte		N06   , Fn1 , v092
	.byte		N02   , Fs1 , v040
	.byte	W06
	.byte		        Fs1 , v060
	.byte	W06
	.byte		        Fs1 , v040
	.byte	W06
	.byte		N06   , Bn0 , v092
	.byte		N12   , As1 , v060
	.byte	W12
	.byte	PEND
	.byte		N06   , Bn0 , v112
	.byte		N02   , Fs1 , v060
	.byte	W06
	.byte		        Fs1 , v040
	.byte	W06
	.byte		N10   , Fn1 , v100
	.byte		N02   , Fs1 , v060
	.byte	W06
	.byte		        Fs1 , v040
	.byte	W06
	.byte		N06   , Bn0 , v100
	.byte		N02   , Fs1 , v060
	.byte	W06
	.byte		        Fs1 , v040
	.byte	W06
	.byte		N10   , Fn1 , v092
	.byte		N02   , Fs1 , v060
	.byte	W06
	.byte		        Fs1 , v040
	.byte	W06
	.byte		N06   , Fn1 , v092
	.byte		N02   , Fs1 , v060
	.byte	W06
	.byte		        Fs1 , v040
	.byte	W06
	.byte		N06   , Bn0 , v112
	.byte		N02   , Fs1 , v060
	.byte	W06
	.byte		N06   , Fn1 , v092
	.byte		N02   , Fs1 , v040
	.byte	W06
	.byte		        Fs1 , v060
	.byte	W06
	.byte		N06   , Bn0 , v112
	.byte		N02   , Fs1 , v040
	.byte	W06
	.byte		N06   , Fn1 , v080
	.byte		N02   , Fs1 , v060
	.byte	W06
	.byte		        Fs1 , v040
	.byte	W06
	.byte		N06   , Bn0 , v112
	.byte		N02   , Fs1 , v060
	.byte	W06
	.byte		        Fs1 , v040
	.byte	W06
	.byte		N10   , Fn1 , v092
	.byte		N02   , Fs1 , v060
	.byte	W06
	.byte		        Fs1 , v040
	.byte	W06
	.byte		N06   , Bn0 , v100
	.byte		N02   , Fs1 , v060
	.byte	W06
	.byte		        Fs1 , v040
	.byte	W06
	.byte		N10   , Fn1 , v080
	.byte		N02   , Fs1 , v060
	.byte	W06
	.byte		        Fs1 , v040
	.byte	W06
	.byte		N06   , Bn0 , v112
	.byte		N02   , Fs1 , v060
	.byte	W06
	.byte		        Fs1 , v040
	.byte	W06
	.byte		        Fs1 , v060
	.byte	W06
	.byte		N06   , Fn1 , v092
	.byte		N02   , Fs1 , v040
	.byte	W06
	.byte		        Fs1 , v060
	.byte	W06
	.byte		        Fs1 , v040
	.byte	W06
	.byte		N06   , Bn0 , v092
	.byte		N12   , As1 , v060
	.byte	W12
	.byte	PEND
	.byte		N06   , Bn0 , v112
	.byte		N02   , Fs1 , v060
	.byte	W06
	.byte		        Fs1 , v040
	.byte	W06
	.byte		N10   , Fn1 , v092
	.byte		N02   , Fs1 , v060
	.byte	W06
	.byte		        Fs1 , v040
	.byte	W06
	.byte		N06   , Bn0 , v100
	.byte		N02   , Fs1 , v060
	.byte	W06
	.byte		        Fs1 , v040
	.byte	W06
	.byte		N10   , Fn1 , v080
	.byte		N02   , Fs1 , v060
	.byte	W06
	.byte		        Fs1 , v040
	.byte	W06
	.byte		N06   , Fn1 , v092
	.byte		N02   , Fs1 , v060
	.byte	W06
	.byte		        Fs1 , v040
	.byte	W06
	.byte		N06   , Bn0 , v112
	.byte		N02   , Fs1 , v060
	.byte	W06
	.byte		N06   , Fn1 , v092
	.byte		N02   , Fs1 , v040
	.byte	W06
	.byte		        Fs1 , v060
	.byte	W06
	.byte		N06   , Bn0 , v112
	.byte		N02   , Fs1 , v040
	.byte	W06
	.byte		N06   , Fn1 , v080
	.byte		N02   , Fs1 , v060
	.byte	W06
	.byte		N06   , Fn1 , v080
	.byte		N02   , Fs1 , v040
	.byte	W06
	.byte	PEND
	.byte	PATT
	 .word	seq_000_0 + 0x28
	.byte		N06   , Bn0 , v112
	.byte		N02   , Fs1 , v060
	.byte	W06
	.byte		        Fs1 , v040
	.byte	W06
	.byte		N10   , Fn1 , v092
	.byte		N02   , Fs1 , v060
	.byte	W06
	.byte		        Fs1 , v040
	.byte	W06
	.byte		N06   , Bn0 , v100
	.byte		N02   , Fs1 , v060
	.byte	W06
	.byte		        Fs1 , v040
	.byte	W06
	.byte		N10   , Fn1 , v080
	.byte		N02   , Fs1 , v060
	.byte	W06
	.byte		        Fs1 , v040
	.byte	W06
	.byte		N06   , Fn1 , v092
	.byte		N02   , Fs1 , v060
	.byte	W06
	.byte		        Fs1 , v040
	.byte	W06
	.byte		N06   , Bn0 , v112
	.byte		N02   , Fs1 , v060
	.byte	W06
	.byte		N06   , Fn1 , v092
	.byte		N02   , Fs1 , v040
	.byte	W06
	.byte		        Fs1 , v060
	.byte	W06
	.byte		N06   , Bn0 , v112
	.byte		N02   , Fs1 , v040
	.byte	W06
	.byte		N06   , Fn1 , v080
	.byte		N02   , Fs1 , v060
	.byte	W06
	.byte		        Fs1 , v040
	.byte	W06
	.byte	PEND
	.byte	PATT
	 .word	seq_000_0 + 0xB7
	.byte	PATT
	 .word	seq_000_0 + 0x101
	.byte		N06   , Bn0 , v112
	.byte		N36   , Cs2 , v072
	.byte	W12
	.byte		N10   , Fn1 , v092
	.byte	W12
	.byte		N06   , Bn0 , v100
	.byte	W12
	.byte		N10   , Fn1 , v092
	.byte		N02   , Fs1 , v060
	.byte	W06
	.byte		        Fs1 , v040
	.byte	W06
	.byte		N06   , Bn0 , v112
	.byte		N02   , Fs1 , v060
	.byte	W06
	.byte		        Fs1 , v040
	.byte	W06
	.byte		        Fs1 , v060
	.byte	W06
	.byte		N06   , Fn1 , v080
	.byte		N02   , Fs1 , v040
	.byte	W06
	.byte		        Fs1 , v060
	.byte	W06
	.byte		        Fs1 , v040
	.byte	W06
	.byte		N06   , Bn0 , v092
	.byte		N12   , As1 , v060
	.byte	W12
	.byte	PATT
	 .word	seq_000_0 + 0x15F
	.byte	PATT
	 .word	seq_000_0 + 0xB7
	.byte	PATT
	 .word	seq_000_0 + 0x101
	.byte	PATT
	 .word	seq_000_0 + 0x28
	.byte	PATT
	 .word	seq_000_0 + 0x15F
	.byte	PATT
	 .word	seq_000_0 + 0xB7
	.byte		N06   , Bn0 , v112
	.byte		N02   , Fs1 , v060
	.byte	W06
	.byte		        Fs1 , v040
	.byte	W06
	.byte		N10   , Fn1 , v092
	.byte		N02   , Fs1 , v060
	.byte	W06
	.byte		        Fs1 , v040
	.byte	W06
	.byte		N06   , Bn0 , v100
	.byte		N02   , Fs1 , v060
	.byte	W06
	.byte		        Fs1 , v040
	.byte	W06
	.byte		N10   , Fn1 , v080
	.byte		N02   , Fs1 , v060
	.byte	W06
	.byte		        Fs1 , v040
	.byte	W06
	.byte		        Fs1 , v060
	.byte		N06   , An1 , v120
	.byte	W06
	.byte		N02   , Fs1 , v040
	.byte		N10   , An1 , v112
	.byte	W06
	.byte		N02   , Fs1 , v060
	.byte	W06
	.byte		        Fs1 , v040
	.byte		N06   , Gs1 , v120
	.byte	W06
	.byte		N02   , Fs1 , v060
	.byte		N10   , Gs1 , v120
	.byte	W06
	.byte		N02   , Fs1 , v040
	.byte	W06
	.byte		        Fs1 , v060
	.byte		N06   , Gn1 , v120
	.byte	W06
	.byte		N02   , Fs1 , v040
	.byte		N06   , Gn1 , v120
	.byte	W06
	.byte	PATT
	 .word	seq_000_0 + 0x28
	.byte	PATT
	 .word	seq_000_0 + 0x15F
	.byte		N06   , Bn0 , v112
	.byte		N30   , Cs2 , v052
	.byte	W12
	.byte		N10   , Fn1 , v092
	.byte	W12
	.byte		N06   , Bn0 , v100
	.byte	W06
	.byte		N02   , Fs1 , v040
	.byte	W06
	.byte		N10   , Fn1 , v080
	.byte		N02   , Fs1 , v060
	.byte	W06
	.byte		        Fs1 , v040
	.byte	W06
	.byte		N06   , Bn0 , v112
	.byte		N02   , Fs1 , v060
	.byte	W06
	.byte		        Fs1 , v040
	.byte	W06
	.byte		        Fs1 , v060
	.byte	W06
	.byte		N06   , Fn1 , v092
	.byte		N02   , Fs1 , v040
	.byte	W06
	.byte		        Fs1 , v060
	.byte	W06
	.byte		        Fs1 , v040
	.byte	W06
	.byte		N06   , Bn0 , v092
	.byte		N12   , As1 , v060
	.byte	W12
	.byte	PATT
	 .word	seq_000_0 + 0x101
	.byte	PATT
	 .word	seq_000_0 + 0x28
	.byte	PATT
	 .word	seq_000_0 + 0x15F
	.byte		N06   , Bn0 , v112
	.byte		N02   , Fs1 , v060
	.byte	W06
	.byte		        Fs1 , v040
	.byte	W06
	.byte		N10   , Fn1 , v092
	.byte		N02   , Fs1 , v060
	.byte	W06
	.byte		        Fs1 , v040
	.byte	W06
	.byte		N06   , Bn0 , v100
	.byte		N02   , Fs1 , v060
	.byte	W06
	.byte		        Fs1 , v040
	.byte	W06
	.byte		N10   , Fn1 , v080
	.byte		N02   , Fs1 , v060
	.byte	W06
	.byte		        Fs1 , v040
	.byte	W06
	.byte		N06   , An1 , v120
	.byte		N18   , As1 , v060
	.byte	W06
	.byte		N10   , An1 , v112
	.byte	W12
	.byte		N06   , Gs1 , v120
	.byte		N18   , As1 , v060
	.byte	W06
	.byte		N10   , Gs1 , v120
	.byte	W12
	.byte		N06   , Gn1 
	.byte		N12   , As1 , v060
	.byte	W06
	.byte		N06   , Gn1 , v120
	.byte	W06
	.byte		        Bn0 , v112
	.byte		N48   , Cs2 , v072
	.byte	W24
	.byte		N06   , Bn0 , v100
	.byte	W24
	.byte		N06
	.byte	W12
	.byte		N36   , Bn1 , v072
	.byte	W12
	.byte		N06   , Bn0 , v100
	.byte	W24
	.byte	GOTO
	 .word	seq_000_0 + 0x28
	.byte	FINE

@*********************** Track 02 ***********************@

seq_000_1:
	.byte	KEYSH , seq_000_key+0
	.byte	W96
	.byte	W96
	.byte	W96
	.byte	W96
	.byte		VOICE , 1
	.byte		VOL   , 94*seq_000_mvl/mxv
	.byte		XCMD  , xIECV , 40
	.byte		        xIECL , 3
	.byte		BENDR , 12
	.byte		LFOS  , 28
	.byte		LFODL , 14
	.byte		MOD   , 3
	.byte		MODT  , mod_vib
	.byte		PAN   , c_v+0
	.byte		N03   , An2 , v100
	.byte	W03
	.byte		        An2 , v060
	.byte	W03
	.byte		        Cs3 , v100
	.byte	W03
	.byte		        Cs3 , v060
	.byte	W03
	.byte		        Gs3 , v100
	.byte	W03
	.byte		        Gs3 , v060
	.byte	W03
	.byte		        En3 , v100
	.byte	W03
	.byte		        En3 , v060
	.byte	W03
	.byte		        An2 , v100
	.byte	W03
	.byte		        An2 , v060
	.byte	W03
	.byte		        Cs3 , v100
	.byte	W03
	.byte		        Cs3 , v060
	.byte	W03
	.byte		        Gs3 , v100
	.byte	W03
	.byte		        Gs3 , v060
	.byte	W03
	.byte		        En3 , v100
	.byte	W03
	.byte		        En3 , v060
	.byte	W03
	.byte		        An2 , v100
	.byte	W03
	.byte		        An2 , v060
	.byte	W03
	.byte		        Cs3 , v100
	.byte	W03
	.byte		        Cs3 , v060
	.byte	W03
	.byte		        Gs3 , v100
	.byte	W03
	.byte		        Gs3 , v060
	.byte	W03
	.byte		        En3 , v100
	.byte	W03
	.byte		        En3 , v060
	.byte	W03
	.byte		        An2 , v100
	.byte	W03
	.byte		        An2 , v060
	.byte	W03
	.byte		        Cs3 , v100
	.byte	W03
	.byte		        Cs3 , v060
	.byte	W03
	.byte		        Gs3 , v100
	.byte	W03
	.byte		        Gs3 , v060
	.byte	W03
	.byte		        En3 , v100
	.byte	W03
	.byte		        En3 , v060
	.byte	W03
	.byte		PAN   , c_v+63
	.byte		N03   , Fs1 , v100
	.byte	W03
	.byte		        Fs1 , v060
	.byte	W03
	.byte		        Bn1 , v100
	.byte	W03
	.byte		        Bn1 , v060
	.byte	W03
	.byte		        Cs2 , v100
	.byte	W03
	.byte		        Cs2 , v060
	.byte	W03
	.byte		        Fs2 , v100
	.byte	W03
	.byte		        Fs2 , v060
	.byte	W03
	.byte		PAN   , c_v-64
	.byte		N03   , Fs2 , v100
	.byte	W03
	.byte		        Fs2 , v060
	.byte	W03
	.byte		        Bn2 , v100
	.byte	W03
	.byte		        Bn2 , v060
	.byte	W03
	.byte		        Cs3 , v100
	.byte	W03
	.byte		        Cs3 , v060
	.byte	W03
	.byte		        Fn3 , v100
	.byte	W03
	.byte		        Fn3 , v060
	.byte	W03
	.byte		PAN   , c_v+63
	.byte		N03   , Fs3 , v100
	.byte	W03
	.byte		        Fs3 , v060
	.byte	W03
	.byte		        Bn3 , v100
	.byte	W03
	.byte		        Bn3 , v060
	.byte	W03
	.byte		        Cn4 , v100
	.byte	W03
	.byte		        Cn4 , v060
	.byte	W03
	.byte		        En4 , v100
	.byte	W03
	.byte		        En4 , v060
	.byte	W03
	.byte		PAN   , c_v-64
	.byte		N03   , Fs4 , v100
	.byte	W03
	.byte		        Fs4 , v060
	.byte	W03
	.byte		        Bn4 , v100
	.byte	W03
	.byte		        Bn4 , v060
	.byte	W03
	.byte		        Cn5 , v100
	.byte	W03
	.byte		        Cn5 , v060
	.byte	W03
	.byte		        Fs5 , v100
	.byte	W03
	.byte		        Fs5 , v060
	.byte	W03
	.byte	PEND
	.byte		PAN   , c_v+0
	.byte		N03   , An2 , v100
	.byte	W03
	.byte		        An2 , v060
	.byte	W03
	.byte		        Cs3 , v100
	.byte	W03
	.byte		        Cs3 , v060
	.byte	W03
	.byte		        Gs3 , v100
	.byte	W03
	.byte		        Gs3 , v060
	.byte	W03
	.byte		        En3 , v100
	.byte	W03
	.byte		        En3 , v060
	.byte	W03
	.byte		        An2 , v100
	.byte	W03
	.byte		        An2 , v060
	.byte	W03
	.byte		        Cs3 , v100
	.byte	W03
	.byte		        Cs3 , v060
	.byte	W03
	.byte		        Gs3 , v100
	.byte	W03
	.byte		        Gs3 , v060
	.byte	W03
	.byte		        En3 , v100
	.byte	W03
	.byte		        En3 , v060
	.byte	W03
	.byte		        An2 , v100
	.byte	W03
	.byte		        An2 , v060
	.byte	W03
	.byte		        Cs3 , v100
	.byte	W03
	.byte		        Cs3 , v060
	.byte	W03
	.byte		        Gs3 , v100
	.byte	W03
	.byte		        Gs3 , v060
	.byte	W03
	.byte		        En3 , v100
	.byte	W03
	.byte		        En3 , v060
	.byte	W03
	.byte		        An2 , v100
	.byte	W03
	.byte		        An2 , v060
	.byte	W03
	.byte		        Cs3 , v100
	.byte	W03
	.byte		        Cs3 , v060
	.byte	W03
	.byte		        Gs3 , v100
	.byte	W03
	.byte		        Gs3 , v060
	.byte	W03
	.byte		        En3 , v100
	.byte	W03
	.byte		        En3 , v060
	.byte	W03
	.byte	PEND
	.byte		PAN   , c_v+63
	.byte		N03   , Fs5 , v100
	.byte	W03
	.byte		        Fs5 , v060
	.byte	W03
	.byte		        Cs5 , v100
	.byte	W03
	.byte		        Cs5 , v060
	.byte	W03
	.byte		        Bn4 , v100
	.byte	W03
	.byte		        Bn4 , v060
	.byte	W03
	.byte		        Fs4 , v100
	.byte	W03
	.byte		        Fs4 , v060
	.byte	W03
	.byte		PAN   , c_v-64
	.byte		N03   , Fn4 , v100
	.byte	W03
	.byte		        Fn4 , v060
	.byte	W03
	.byte		        Cs4 , v100
	.byte	W03
	.byte		        Cs4 , v060
	.byte	W03
	.byte		        Bn3 , v100
	.byte	W03
	.byte		        Bn3 , v060
	.byte	W03
	.byte		        Fs3 , v100
	.byte	W03
	.byte		        Fs3 , v060
	.byte	W03
	.byte		PAN   , c_v+63
	.byte		N03   , En3 , v100
	.byte	W03
	.byte		        En3 , v060
	.byte	W03
	.byte		        Cn3 , v100
	.byte	W03
	.byte		        Cn3 , v060
	.byte	W03
	.byte		        Bn2 , v100
	.byte	W03
	.byte		        Bn2 , v060
	.byte	W03
	.byte		        Fs2 , v100
	.byte	W03
	.byte		        Fs2 , v060
	.byte	W03
	.byte		PAN   , c_v-64
	.byte		N03   , Fs2 , v100
	.byte	W03
	.byte		        Fs2 , v060
	.byte	W03
	.byte		        Cn2 , v100
	.byte	W03
	.byte		        Cn2 , v060
	.byte	W03
	.byte		        Bn1 , v100
	.byte	W03
	.byte		        Bn1 , v060
	.byte	W03
	.byte		        Fs1 , v100
	.byte	W03
	.byte		        Fs1 , v060
	.byte	W03
	.byte	PEND
	.byte	PATT
	 .word	seq_000_1 + 0xE9
	.byte	PATT
	 .word	seq_000_1 + 0x7C
	.byte	PATT
	 .word	seq_000_1 + 0xE9
	.byte	PATT
	 .word	seq_000_1 + 0x14D
	.byte		PAN   , c_v+0
	.byte		N03   , Bn2 , v100
	.byte	W03
	.byte		        Bn2 , v060
	.byte	W03
	.byte		        Dn3 , v100
	.byte	W03
	.byte		        Dn3 , v060
	.byte	W03
	.byte		        An3 , v100
	.byte	W03
	.byte		        An3 , v060
	.byte	W03
	.byte		        Fs3 , v100
	.byte	W03
	.byte		        Fs3 , v060
	.byte	W03
	.byte		        Bn2 , v100
	.byte	W03
	.byte		        Bn2 , v060
	.byte	W03
	.byte		        Dn3 , v100
	.byte	W03
	.byte		        Dn3 , v060
	.byte	W03
	.byte		        An3 , v100
	.byte	W03
	.byte		        An3 , v060
	.byte	W03
	.byte		        Fs3 , v100
	.byte	W03
	.byte		        Fs3 , v060
	.byte	W03
	.byte		        Bn2 , v100
	.byte	W03
	.byte		        Bn2 , v060
	.byte	W03
	.byte		        Dn3 , v100
	.byte	W03
	.byte		        Dn3 , v060
	.byte	W03
	.byte		        An3 , v100
	.byte	W03
	.byte		        An3 , v060
	.byte	W03
	.byte		        Fs3 , v100
	.byte	W03
	.byte		        Fs3 , v060
	.byte	W03
	.byte		        Bn2 , v100
	.byte	W03
	.byte		        Bn2 , v060
	.byte	W03
	.byte		        Dn3 , v100
	.byte	W03
	.byte		        Dn3 , v060
	.byte	W03
	.byte		        An3 , v100
	.byte	W03
	.byte		        An3 , v060
	.byte	W03
	.byte		        Fs3 , v100
	.byte	W03
	.byte		        Fs3 , v060
	.byte	W03
	.byte	PEND
	.byte	PATT
	 .word	seq_000_1 + 0x7C
	.byte	PATT
	 .word	seq_000_1 + 0x1CE
	.byte	PATT
	 .word	seq_000_1 + 0x14D
	.byte		PAN   , c_v+0
	.byte		N03   , Fs2 , v100
	.byte	W03
	.byte		        Fs2 , v060
	.byte	W03
	.byte		        As2 , v100
	.byte	W03
	.byte		        As2 , v060
	.byte	W03
	.byte		        Fn3 , v100
	.byte	W03
	.byte		        Fn3 , v060
	.byte	W03
	.byte		        Cs3 , v100
	.byte	W03
	.byte		        Cs3 , v060
	.byte	W03
	.byte		        Fs2 , v100
	.byte	W03
	.byte		        Fs2 , v060
	.byte	W03
	.byte		        As2 , v100
	.byte	W03
	.byte		        As2 , v060
	.byte	W03
	.byte		        Fn3 , v100
	.byte	W03
	.byte		        Fn3 , v060
	.byte	W03
	.byte		        Cs3 , v100
	.byte	W03
	.byte		        Cs3 , v060
	.byte	W03
	.byte		        Fs2 , v100
	.byte	W03
	.byte		        Fs2 , v060
	.byte	W03
	.byte		        As2 , v100
	.byte	W03
	.byte		        As2 , v060
	.byte	W03
	.byte		        Fn3 , v100
	.byte	W03
	.byte		        Fn3 , v060
	.byte	W03
	.byte		        Cs3 , v100
	.byte	W03
	.byte		        Cs3 , v060
	.byte	W03
	.byte		        Fs2 , v100
	.byte	W03
	.byte		        Fs2 , v060
	.byte	W03
	.byte		        As2 , v100
	.byte	W03
	.byte		        As2 , v060
	.byte	W03
	.byte		        Fn3 , v100
	.byte	W03
	.byte		        Fn3 , v060
	.byte	W03
	.byte		        Cs3 , v100
	.byte	W03
	.byte		        Cs3 , v060
	.byte	W03
	.byte	PEND
	.byte		PAN   , c_v+63
	.byte		N03   , Ds1 , v100
	.byte	W03
	.byte		        Ds1 , v060
	.byte	W03
	.byte		        Gs1 , v100
	.byte	W03
	.byte		        Gs1 , v060
	.byte	W03
	.byte		        As1 , v100
	.byte	W03
	.byte		        As1 , v060
	.byte	W03
	.byte		        Ds2 , v100
	.byte	W03
	.byte		        Ds2 , v060
	.byte	W03
	.byte		PAN   , c_v-64
	.byte		N03   , Ds2 , v100
	.byte	W03
	.byte		        Ds2 , v060
	.byte	W03
	.byte		        Gs2 , v100
	.byte	W03
	.byte		        Gs2 , v060
	.byte	W03
	.byte		        As2 , v100
	.byte	W03
	.byte		        As2 , v060
	.byte	W03
	.byte		        Dn3 , v100
	.byte	W03
	.byte		        Dn3 , v060
	.byte	W03
	.byte		PAN   , c_v+63
	.byte		N03   , Ds3 , v100
	.byte	W03
	.byte		        Ds3 , v060
	.byte	W03
	.byte		        Gs3 , v100
	.byte	W03
	.byte		        Gs3 , v060
	.byte	W03
	.byte		        An3 , v100
	.byte	W03
	.byte		        An3 , v060
	.byte	W03
	.byte		        Cs4 , v100
	.byte	W03
	.byte		        Cs4 , v060
	.byte	W03
	.byte		PAN   , c_v-64
	.byte		N03   , Ds4 , v100
	.byte	W03
	.byte		        Ds4 , v060
	.byte	W03
	.byte		        Gs4 , v100
	.byte	W03
	.byte		        Gs4 , v060
	.byte	W03
	.byte		        An4 , v100
	.byte	W03
	.byte		        An4 , v060
	.byte	W03
	.byte		        Ds5 , v100
	.byte	W03
	.byte		        Ds5 , v060
	.byte	W03
	.byte	PATT
	 .word	seq_000_1 + 0x241
	.byte		PAN   , c_v+63
	.byte		N03   , Ds5 , v100
	.byte	W03
	.byte		        Ds5 , v060
	.byte	W03
	.byte		        As4 , v100
	.byte	W03
	.byte		        As4 , v060
	.byte	W03
	.byte		        Gs4 , v100
	.byte	W03
	.byte		        Gs4 , v060
	.byte	W03
	.byte		        Ds4 , v100
	.byte	W03
	.byte		        Ds4 , v060
	.byte	W03
	.byte		PAN   , c_v-64
	.byte		N03   , Dn4 , v112
	.byte	W03
	.byte		        Dn4 , v060
	.byte	W03
	.byte		        As3 , v112
	.byte	W03
	.byte		        As3 , v060
	.byte	W03
	.byte		        Gs3 , v112
	.byte	W03
	.byte		        Gs3 , v060
	.byte	W03
	.byte		        Ds3 , v112
	.byte	W03
	.byte		        Ds3 , v060
	.byte	W03
	.byte		PAN   , c_v+63
	.byte		N03   , Cs3 , v120
	.byte	W03
	.byte		        Cs3 , v080
	.byte	W03
	.byte		        An2 , v120
	.byte	W03
	.byte		        An2 , v080
	.byte	W03
	.byte		        Gs2 , v120
	.byte	W03
	.byte		        Gs2 , v080
	.byte	W03
	.byte		        Ds2 , v120
	.byte	W03
	.byte		        Ds2 , v080
	.byte	W03
	.byte		PAN   , c_v-64
	.byte		N03   , Ds2 , v120
	.byte	W03
	.byte		        Ds2 , v080
	.byte	W03
	.byte		        An1 , v120
	.byte	W03
	.byte		        An1 , v080
	.byte	W03
	.byte		        Gs1 , v120
	.byte	W03
	.byte		        Gs1 , v080
	.byte	W03
	.byte		        Ds1 , v120
	.byte	W03
	.byte		        Ds1 , v080
	.byte	W03
	.byte		PAN   , c_v+63
	.byte		N03   , En2 , v100
	.byte	W03
	.byte		        En2 , v060
	.byte	W03
	.byte		        Gn2 , v100
	.byte	W03
	.byte		        Gn2 , v060
	.byte	W03
	.byte		        Dn3 , v100
	.byte	W03
	.byte		        Dn3 , v060
	.byte	W03
	.byte		        Bn2 , v100
	.byte	W03
	.byte		        Bn2 , v060
	.byte	W03
	.byte		PAN   , c_v-64
	.byte		N03   , Gn2 , v100
	.byte	W03
	.byte		        Gn2 , v060
	.byte	W03
	.byte		        Bn2 , v100
	.byte	W03
	.byte		        Bn2 , v060
	.byte	W03
	.byte		        Fs3 , v100
	.byte	W03
	.byte		        Fs3 , v060
	.byte	W03
	.byte		        Dn3 , v100
	.byte	W03
	.byte		        Dn3 , v060
	.byte	W03
	.byte		PAN   , c_v+63
	.byte		N03   , Bn2 , v100
	.byte	W03
	.byte		        Bn2 , v060
	.byte	W03
	.byte		        Dn3 , v100
	.byte	W03
	.byte		        Dn3 , v060
	.byte	W03
	.byte		        An3 , v100
	.byte	W03
	.byte		        An3 , v060
	.byte	W03
	.byte		        Fs3 , v100
	.byte	W03
	.byte		        Fs3 , v060
	.byte	W03
	.byte		PAN   , c_v-64
	.byte		N03   , Dn3 , v100
	.byte	W03
	.byte		        Dn3 , v060
	.byte	W03
	.byte		        Fs3 , v100
	.byte	W03
	.byte		        Fs3 , v060
	.byte	W03
	.byte		        Cs4 , v100
	.byte	W03
	.byte		        Cs4 , v060
	.byte	W03
	.byte		        An3 , v100
	.byte	W03
	.byte		        An3 , v060
	.byte	W03
	.byte	PEND
	.byte		PAN   , c_v+63
	.byte		N03   , En3 , v100
	.byte	W03
	.byte		        En3 , v060
	.byte	W03
	.byte		        Gn3 , v100
	.byte	W03
	.byte		        Gn3 , v060
	.byte	W03
	.byte		        Dn4 , v100
	.byte	W03
	.byte		        Dn4 , v060
	.byte	W03
	.byte		        Bn3 , v100
	.byte	W03
	.byte		        Bn3 , v060
	.byte	W03
	.byte		PAN   , c_v-64
	.byte		N03   , Gn3 , v100
	.byte	W03
	.byte		        Gn3 , v060
	.byte	W03
	.byte		        Bn3 , v100
	.byte	W03
	.byte		        Bn3 , v060
	.byte	W03
	.byte		        Fs4 , v100
	.byte	W03
	.byte		        Fs4 , v060
	.byte	W03
	.byte		        Dn4 , v100
	.byte	W03
	.byte		        Dn4 , v060
	.byte	W03
	.byte		PAN   , c_v+63
	.byte		N03   , Bn3 , v100
	.byte	W03
	.byte		        Bn3 , v060
	.byte	W03
	.byte		        Dn4 , v100
	.byte	W03
	.byte		        Dn4 , v060
	.byte	W03
	.byte		        An4 , v100
	.byte	W03
	.byte		        An4 , v060
	.byte	W03
	.byte		        Fs4 , v100
	.byte	W03
	.byte		        Fs4 , v060
	.byte	W03
	.byte		PAN   , c_v-64
	.byte		N03   , Dn4 , v100
	.byte	W03
	.byte		        Dn4 , v060
	.byte	W03
	.byte		        Fs4 , v100
	.byte	W03
	.byte		        Fs4 , v060
	.byte	W03
	.byte		        Cs5 , v100
	.byte	W03
	.byte		        Cs5 , v060
	.byte	W03
	.byte		        An4 , v100
	.byte	W03
	.byte		        An4 , v060
	.byte	W03
	.byte	PEND
	.byte		PAN   , c_v+63
	.byte		N03   , Ds2 , v100
	.byte	W03
	.byte		        Ds2 , v060
	.byte	W03
	.byte		        Fs2 , v100
	.byte	W03
	.byte		        Fs2 , v060
	.byte	W03
	.byte		        Cs3 , v100
	.byte	W03
	.byte		        Cs3 , v060
	.byte	W03
	.byte		        As2 , v100
	.byte	W03
	.byte		        As2 , v060
	.byte	W03
	.byte		PAN   , c_v-64
	.byte		N03   , Fs2 , v100
	.byte	W03
	.byte		        Fs2 , v060
	.byte	W03
	.byte		        As2 , v100
	.byte	W03
	.byte		        As2 , v060
	.byte	W03
	.byte		        Fn3 , v100
	.byte	W03
	.byte		        Fn3 , v060
	.byte	W03
	.byte		        Cs3 , v100
	.byte	W03
	.byte		        Cs3 , v060
	.byte	W03
	.byte		PAN   , c_v+63
	.byte		N03   , As2 , v100
	.byte	W03
	.byte		        As2 , v060
	.byte	W03
	.byte		        Cs3 , v100
	.byte	W03
	.byte		        Cs3 , v060
	.byte	W03
	.byte		        Gs3 , v100
	.byte	W03
	.byte		        Gs3 , v060
	.byte	W03
	.byte		        Fn3 , v100
	.byte	W03
	.byte		        Fn3 , v060
	.byte	W03
	.byte		PAN   , c_v-64
	.byte		N03   , Cs3 , v100
	.byte	W03
	.byte		        Cs3 , v060
	.byte	W03
	.byte		        Fn3 , v100
	.byte	W03
	.byte		        Fn3 , v060
	.byte	W03
	.byte		        Cn4 , v100
	.byte	W03
	.byte		        Cn4 , v060
	.byte	W03
	.byte		        Gs3 , v100
	.byte	W03
	.byte		        Gs3 , v060
	.byte	W03
	.byte	PEND
	.byte		PAN   , c_v+63
	.byte		N03   , Ds3 , v100
	.byte	W03
	.byte		        Ds3 , v060
	.byte	W03
	.byte		        Fs3 , v100
	.byte	W03
	.byte		        Fs3 , v060
	.byte	W03
	.byte		        Cs4 , v100
	.byte	W03
	.byte		        Cs4 , v060
	.byte	W03
	.byte		        As3 , v100
	.byte	W03
	.byte		        As3 , v060
	.byte	W03
	.byte		PAN   , c_v-64
	.byte		N03   , Fs3 , v100
	.byte	W03
	.byte		        Fs3 , v060
	.byte	W03
	.byte		        As3 , v100
	.byte	W03
	.byte		        As3 , v060
	.byte	W03
	.byte		        Fn4 , v100
	.byte	W03
	.byte		        Fn4 , v060
	.byte	W03
	.byte		        Cs4 , v100
	.byte	W03
	.byte		        Cs4 , v060
	.byte	W03
	.byte		PAN   , c_v+63
	.byte		N03   , As3 , v100
	.byte	W03
	.byte		        As3 , v060
	.byte	W03
	.byte		        Cs4 , v100
	.byte	W03
	.byte		        Cs4 , v060
	.byte	W03
	.byte		        Gs4 , v100
	.byte	W03
	.byte		        Gs4 , v060
	.byte	W03
	.byte		        Fn4 , v100
	.byte	W03
	.byte		        Fn4 , v060
	.byte	W03
	.byte		PAN   , c_v-64
	.byte		N03   , Cs4 , v100
	.byte	W03
	.byte		        Cs4 , v060
	.byte	W03
	.byte		        Fn4 , v100
	.byte	W03
	.byte		        Fn4 , v060
	.byte	W03
	.byte		        Cn5 , v100
	.byte	W03
	.byte		        Cn5 , v060
	.byte	W03
	.byte		        Gs4 , v100
	.byte	W03
	.byte		        Gs4 , v060
	.byte	W03
	.byte	PATT
	 .word	seq_000_1 + 0x382
	.byte	PATT
	 .word	seq_000_1 + 0x3EF
	.byte	PATT
	 .word	seq_000_1 + 0x45C
	.byte		PAN   , c_v+63
	.byte		N03   , Fs2 , v100
	.byte	W03
	.byte		        Fs2 , v060
	.byte	W03
	.byte		        Cn3 , v100
	.byte	W03
	.byte		        Cn3 , v060
	.byte	W03
	.byte		        Gs3 , v100
	.byte	W03
	.byte		        Gs3 , v060
	.byte	W03
	.byte		        En3 , v100
	.byte	W03
	.byte		        En3 , v060
	.byte	W03
	.byte		PAN   , c_v-64
	.byte		N03   , Fs3 , v100
	.byte	W03
	.byte		        Fs3 , v060
	.byte	W03
	.byte		        Cn4 , v100
	.byte	W03
	.byte		        Cn4 , v060
	.byte	W03
	.byte		        Gs4 , v100
	.byte	W03
	.byte		        Gs4 , v060
	.byte	W03
	.byte		        En4 , v100
	.byte	W03
	.byte		        En4 , v060
	.byte	W03
	.byte		PAN   , c_v+0
	.byte		N03   , Gs5 , v100
	.byte	W03
	.byte		        Fs5 
	.byte	W03
	.byte		        En5 
	.byte	W03
	.byte		        Cn5 
	.byte	W03
	.byte		        Gs4 
	.byte	W03
	.byte		        Fs4 
	.byte	W03
	.byte		        En4 
	.byte	W03
	.byte		        Cn4 
	.byte	W03
	.byte		        Gs3 
	.byte	W03
	.byte		        Fs3 
	.byte	W03
	.byte		        En3 
	.byte	W03
	.byte		        Cn3 
	.byte	W03
	.byte		        Gs2 
	.byte	W03
	.byte		        Fs2 
	.byte	W03
	.byte		        En2 
	.byte	W03
	.byte		        Cn2 
	.byte	W03
	.byte	GOTO
	 .word	seq_000_1 + 0x6
	.byte	FINE

@*********************** Track 03 ***********************@

seq_000_2:
	.byte	KEYSH , seq_000_key+0
	.byte	W96
	.byte		VOICE , 5
	.byte	W48
	.byte		PAN   , c_v+0
	.byte	W48
	.byte	W12
	.byte		XCMD  , xIECV , 40
	.byte	W12
	.byte	W12
	.byte		        xIECL , 3
	.byte	W12
	.byte		BENDR , 12
	.byte	W12
	.byte		LFOS  , 29
	.byte	W12
	.byte		LFODL , 14
	.byte	W12
	.byte		MODT  , mod_vib
	.byte	W12
	.byte	W96
	.byte		VOL   , 85*seq_000_mvl/mxv
	.byte		N12   , Fs3 , v112
	.byte	W12
	.byte		MOD   , 5
	.byte		N12   , Gs3 
	.byte	W12
	.byte		        An3 
	.byte	W12
	.byte		TIE   , En4 
	.byte	W60
	.byte	W48
	.byte		EOT
	.byte		N48   , Dn4 
	.byte	W48
	.byte		TIE   , Cs4 
	.byte	W96
	.byte	W64
	.byte		VOL   , 75*seq_000_mvl/mxv
	.byte	W04
	.byte		        66*seq_000_mvl/mxv
	.byte	W04
	.byte		        56*seq_000_mvl/mxv
	.byte	W04
	.byte		        47*seq_000_mvl/mxv
	.byte	W04
	.byte		        37*seq_000_mvl/mxv
	.byte	W04
	.byte		        28*seq_000_mvl/mxv
	.byte	W04
	.byte		        16*seq_000_mvl/mxv
	.byte	W04
	.byte		        5*seq_000_mvl/mxv
	.byte	W04
	.byte		EOT
	.byte		VOL   , 85*seq_000_mvl/mxv
	.byte		N12   , Fs3 
	.byte	W12
	.byte		        Gs3 
	.byte	W12
	.byte		        An3 
	.byte	W12
	.byte		TIE   , En4 
	.byte	W60
	.byte	W48
	.byte		EOT
	.byte		N36   , Dn4 
	.byte	W36
	.byte		N06   , En4 
	.byte	W06
	.byte		        Dn4 
	.byte	W06
	.byte		TIE   , Cs4 
	.byte	W96
	.byte	W64
	.byte		VOL   , 75*seq_000_mvl/mxv
	.byte	W04
	.byte		        66*seq_000_mvl/mxv
	.byte	W04
	.byte		        56*seq_000_mvl/mxv
	.byte	W04
	.byte		        47*seq_000_mvl/mxv
	.byte	W04
	.byte		        37*seq_000_mvl/mxv
	.byte	W04
	.byte		        28*seq_000_mvl/mxv
	.byte	W04
	.byte		        16*seq_000_mvl/mxv
	.byte	W04
	.byte		        4*seq_000_mvl/mxv
	.byte	W04
	.byte		EOT
	.byte		VOL   , 85*seq_000_mvl/mxv
	.byte		N12   , Bn3 
	.byte	W12
	.byte		        Cs4 
	.byte	W12
	.byte		        Dn4 
	.byte	W12
	.byte		N60   , Fs4 
	.byte	W60
	.byte		N12   , Fs4 , v052
	.byte	W12
	.byte		        Fs4 , v020
	.byte	W12
	.byte		N24   , En4 , v112
	.byte	W24
	.byte		N36   , An4 
	.byte	W36
	.byte		N06   , Gs4 
	.byte	W06
	.byte		        Gn4 
	.byte	W06
	.byte		TIE   , Fs4 
	.byte	W96
	.byte	W48
	.byte		EOT
	.byte		N12   , Fs4 , v060
	.byte	W12
	.byte		        Fs4 , v040
	.byte	W12
	.byte		N24   , Fs4 , v112
	.byte	W24
	.byte		N18   , Fn4 
	.byte	W18
	.byte		        Fs4 
	.byte	W18
	.byte		N06   , Fn4 
	.byte	W06
	.byte		        Cs4 
	.byte	W06
	.byte		TIE   , As3 
	.byte	W48
	.byte	W96
	.byte	W64
	.byte		VOL   , 75*seq_000_mvl/mxv
	.byte	W04
	.byte		        66*seq_000_mvl/mxv
	.byte	W04
	.byte		        56*seq_000_mvl/mxv
	.byte	W04
	.byte		        47*seq_000_mvl/mxv
	.byte	W04
	.byte		        37*seq_000_mvl/mxv
	.byte	W04
	.byte		        28*seq_000_mvl/mxv
	.byte	W04
	.byte		        15*seq_000_mvl/mxv
	.byte	W04
	.byte		        2*seq_000_mvl/mxv
	.byte	W04
	.byte		EOT
	.byte	W96
	.byte		VOL   , 85*seq_000_mvl/mxv
	.byte		N06   , Dn4 , v100
	.byte	W06
	.byte		        Dn4 , v040
	.byte	W06
	.byte		        Dn4 , v020
	.byte	W06
	.byte		        Bn3 , v100
	.byte	W06
	.byte		        Bn3 , v040
	.byte	W06
	.byte		        Bn3 , v020
	.byte	W06
	.byte		        Gn3 , v100
	.byte	W06
	.byte		        Gn3 , v040
	.byte	W06
	.byte		        Dn3 , v100
	.byte	W06
	.byte		        Dn3 , v040
	.byte	W06
	.byte		        Dn3 , v020
	.byte	W06
	.byte		        Gn3 , v100
	.byte	W06
	.byte		        Gn3 , v040
	.byte	W06
	.byte		        Gn3 , v020
	.byte	W06
	.byte		        Bn3 , v100
	.byte	W06
	.byte		        Bn3 , v040
	.byte	W06
	.byte		N06   , Dn4 , v100
	.byte	W06
	.byte		        Dn4 , v040
	.byte	W06
	.byte		        Dn4 , v020
	.byte	W06
	.byte		        Cs4 , v100
	.byte	W06
	.byte		        Cs4 , v040
	.byte	W06
	.byte		        Cs4 , v020
	.byte	W06
	.byte		        Cs4 , v100
	.byte	W06
	.byte		        Cs4 , v040
	.byte	W06
	.byte		        En4 , v100
	.byte	W06
	.byte		        En4 , v040
	.byte	W06
	.byte		        En4 , v020
	.byte	W06
	.byte		        Dn4 , v100
	.byte	W06
	.byte		        Dn4 , v040
	.byte	W06
	.byte		        Dn4 , v020
	.byte	W06
	.byte		        Dn4 , v100
	.byte	W06
	.byte		        Dn4 , v040
	.byte	W06
	.byte	PEND
	.byte		        Cs4 , v100
	.byte	W06
	.byte		        Cs4 , v040
	.byte	W06
	.byte		        Cs4 , v020
	.byte	W06
	.byte		        As3 , v100
	.byte	W06
	.byte		        As3 , v040
	.byte	W06
	.byte		        As3 , v020
	.byte	W06
	.byte		        Fs3 , v100
	.byte	W06
	.byte		        Fs3 , v040
	.byte	W06
	.byte		        Ds3 , v100
	.byte	W06
	.byte		        Ds3 , v040
	.byte	W06
	.byte		        Ds3 , v020
	.byte	W06
	.byte		        Fs3 , v100
	.byte	W06
	.byte		        Fs3 , v040
	.byte	W06
	.byte		        Fs3 , v020
	.byte	W06
	.byte		        As3 , v100
	.byte	W06
	.byte		        As3 , v040
	.byte	W06
	.byte		        Cs4 , v100
	.byte	W06
	.byte		        Cs4 , v040
	.byte	W06
	.byte		        Cs4 , v020
	.byte	W06
	.byte		        As3 , v100
	.byte	W06
	.byte		        As3 , v040
	.byte	W06
	.byte		        As3 , v020
	.byte	W06
	.byte		        As3 , v100
	.byte	W06
	.byte		        As3 , v040
	.byte	W06
	.byte		        Ds4 , v100
	.byte	W06
	.byte		        Ds4 , v040
	.byte	W06
	.byte		        Ds4 , v020
	.byte	W06
	.byte		        Cs4 , v100
	.byte	W06
	.byte		        Cs4 , v040
	.byte	W06
	.byte		        Cs4 , v020
	.byte	W06
	.byte		        Cs4 , v100
	.byte	W06
	.byte		        Cs4 , v040
	.byte	W06
	.byte		        Dn4 , v100
	.byte	W06
	.byte		        Dn4 , v040
	.byte	W06
	.byte		        Dn4 , v020
	.byte	W06
	.byte		        Bn3 , v100
	.byte	W06
	.byte		        Bn3 , v040
	.byte	W06
	.byte		        Bn3 , v020
	.byte	W06
	.byte		        Gn3 , v100
	.byte	W06
	.byte		        Gn3 , v040
	.byte	W06
	.byte		        Dn3 , v100
	.byte	W06
	.byte		        Dn3 , v040
	.byte	W06
	.byte		        Dn3 , v020
	.byte	W06
	.byte		        Gn3 , v100
	.byte	W06
	.byte		        Gn3 , v040
	.byte	W06
	.byte		        Gn3 , v020
	.byte	W06
	.byte		        Bn3 , v100
	.byte	W06
	.byte		        Bn3 , v040
	.byte	W06
	.byte	PATT
	 .word	seq_000_2 + 0xFA
	.byte		MOD   , 3
	.byte		N78   , Cs4 , v100
	.byte	W78
	.byte		N06   , Cs4 , v040
	.byte	W06
	.byte		        Bn3 , v100
	.byte	W06
	.byte		        As3 
	.byte	W06
	.byte		N90   , Gs3 
	.byte	W90
	.byte		N06   , Gs3 , v052
	.byte	W06
	.byte	GOTO
	 .word	seq_000_2 + 0x1F
	.byte	FINE

@*********************** Track 04 ***********************@

seq_000_3:
	.byte	KEYSH , seq_000_key+0
	.byte		VOICE , 14
	.byte		VOL   , 120*seq_000_mvl/mxv
	.byte		PAN   , c_v+0
	.byte		XCMD  , xIECV , 40
	.byte		        xIECL , 3
	.byte		BENDR , 12
	.byte		LFOS  , 28
	.byte		LFODL , 14
	.byte		MOD   , 3
	.byte		MODT  , mod_vib
	.byte		N06   , Fs2 , v100
	.byte	W06
	.byte		        Fs2 , v040
	.byte	W06
	.byte		        Fs2 , v100
	.byte	W06
	.byte		        Fs2 , v040
	.byte	W06
	.byte		        Fs2 , v100
	.byte	W06
	.byte		        Fs2 , v040
	.byte	W06
	.byte		        Fs2 , v100
	.byte	W06
	.byte		        Fs2 , v040
	.byte	W06
	.byte		N04   , An2 , v100
	.byte	W06
	.byte		N06
	.byte	W06
	.byte		        An2 , v040
	.byte	W06
	.byte		N04   , Gs2 , v100
	.byte	W06
	.byte		N06
	.byte	W06
	.byte		        Gs2 , v040
	.byte	W06
	.byte		N04   , Gn2 , v100
	.byte	W06
	.byte		N04
	.byte	W06
	.byte		N06   , Fs2 , v100
	.byte	W06
	.byte		        Fs2 , v040
	.byte	W06
	.byte		        Fs2 , v100
	.byte	W06
	.byte		        Fs2 , v040
	.byte	W06
	.byte		        Fs2 , v100
	.byte	W06
	.byte		        Fs2 , v040
	.byte	W06
	.byte		        Fs2 , v100
	.byte	W06
	.byte		        Fs2 , v040
	.byte	W06
	.byte		N04   , An2 , v100
	.byte	W06
	.byte		N06
	.byte	W06
	.byte		        An2 , v040
	.byte	W06
	.byte		N04   , Bn2 , v100
	.byte	W06
	.byte		N06
	.byte	W06
	.byte		        Bn2 , v040
	.byte	W06
	.byte		N04   , Gn2 , v100
	.byte	W06
	.byte		N04
	.byte	W06
	.byte	PEND
	.byte		N06   , Fs2 , v100
	.byte	W06
	.byte		        Fs2 , v040
	.byte	W06
	.byte		        Fs2 , v100
	.byte	W06
	.byte		        Fs2 , v040
	.byte	W06
	.byte		        Fs2 , v100
	.byte	W06
	.byte		        Fs2 , v040
	.byte	W06
	.byte		        Fs2 , v100
	.byte	W06
	.byte		        Fs2 , v040
	.byte	W06
	.byte		N04   , An2 , v100
	.byte	W06
	.byte		N06
	.byte	W06
	.byte		        An2 , v040
	.byte	W06
	.byte		N04   , Gs2 , v100
	.byte	W06
	.byte		N06
	.byte	W06
	.byte		        Gs2 , v040
	.byte	W06
	.byte		N04   , Gn2 , v100
	.byte	W06
	.byte		N04
	.byte	W06
	.byte	PEND
	.byte	PATT
	 .word	seq_000_3 + 0x48
	.byte	PATT
	 .word	seq_000_3 + 0x7A
	.byte	PATT
	 .word	seq_000_3 + 0x48
	.byte	PATT
	 .word	seq_000_3 + 0x7A
	.byte	PATT
	 .word	seq_000_3 + 0x48
	.byte	PATT
	 .word	seq_000_3 + 0x7A
	.byte	PATT
	 .word	seq_000_3 + 0x48
	.byte	PATT
	 .word	seq_000_3 + 0x7A
	.byte	PATT
	 .word	seq_000_3 + 0x48
	.byte		N06   , En2 , v100
	.byte	W06
	.byte		        En2 , v040
	.byte	W06
	.byte		        En2 , v100
	.byte	W06
	.byte		        En2 , v040
	.byte	W06
	.byte		        En2 , v100
	.byte	W06
	.byte		        En2 , v040
	.byte	W06
	.byte		        En2 , v100
	.byte	W06
	.byte		        En2 , v040
	.byte	W06
	.byte		N04   , Gn2 , v100
	.byte	W06
	.byte		N06
	.byte	W06
	.byte		        Gn2 , v040
	.byte	W06
	.byte		N04   , Fs2 , v100
	.byte	W06
	.byte		N06
	.byte	W06
	.byte		        Fs2 , v040
	.byte	W06
	.byte		N04   , Fn2 , v100
	.byte	W06
	.byte		N04
	.byte	W06
	.byte	PEND
	.byte		N06   , En2 , v100
	.byte	W06
	.byte		        En2 , v040
	.byte	W06
	.byte		        En2 , v100
	.byte	W06
	.byte		        En2 , v040
	.byte	W06
	.byte		        En2 , v100
	.byte	W06
	.byte		        En2 , v040
	.byte	W06
	.byte		        En2 , v100
	.byte	W06
	.byte		        En2 , v040
	.byte	W06
	.byte		N04   , Gn2 , v100
	.byte	W06
	.byte		N06
	.byte	W06
	.byte		        Gn2 , v040
	.byte	W06
	.byte		N04   , An2 , v100
	.byte	W06
	.byte		N06
	.byte	W06
	.byte		        An2 , v040
	.byte	W06
	.byte		N04   , Fn2 , v100
	.byte	W06
	.byte		N04
	.byte	W06
	.byte	PEND
	.byte	PATT
	 .word	seq_000_3 + 0xD9
	.byte	PATT
	 .word	seq_000_3 + 0x10B
	.byte		N06   , Ds2 , v100
	.byte	W06
	.byte		        Ds2 , v040
	.byte	W06
	.byte		        Ds2 , v100
	.byte	W06
	.byte		        Ds2 , v040
	.byte	W06
	.byte		        Ds2 , v100
	.byte	W06
	.byte		        Ds2 , v040
	.byte	W06
	.byte		        Ds2 , v100
	.byte	W06
	.byte		        Ds2 , v040
	.byte	W06
	.byte		N04   , Fs2 , v100
	.byte	W06
	.byte		N06
	.byte	W06
	.byte		        Fs2 , v040
	.byte	W06
	.byte		N04   , Fn2 , v100
	.byte	W06
	.byte		N06
	.byte	W06
	.byte		        Fn2 , v040
	.byte	W06
	.byte		N04   , En2 , v100
	.byte	W06
	.byte		N04
	.byte	W06
	.byte	PEND
	.byte		N06   , Ds2 , v100
	.byte	W06
	.byte		        Ds2 , v040
	.byte	W06
	.byte		        Ds2 , v100
	.byte	W06
	.byte		        Ds2 , v040
	.byte	W06
	.byte		        Ds2 , v100
	.byte	W06
	.byte		        Ds2 , v040
	.byte	W06
	.byte		        Ds2 , v100
	.byte	W06
	.byte		        Ds2 , v040
	.byte	W06
	.byte		N04   , Fs2 , v100
	.byte	W06
	.byte		N06
	.byte	W06
	.byte		        Fs2 , v040
	.byte	W06
	.byte		N04   , Gs2 , v100
	.byte	W06
	.byte		N06
	.byte	W06
	.byte		        Gs2 , v040
	.byte	W06
	.byte		N04   , En2 , v100
	.byte	W06
	.byte		N04
	.byte	W06
	.byte	PEND
	.byte	PATT
	 .word	seq_000_3 + 0x147
	.byte	PATT
	 .word	seq_000_3 + 0x179
	.byte	PATT
	 .word	seq_000_3 + 0xD9
	.byte		N06   , En2 , v100
	.byte	W06
	.byte		        En2 , v040
	.byte	W06
	.byte		        En2 , v100
	.byte	W06
	.byte		        En2 , v040
	.byte	W06
	.byte		        En2 , v100
	.byte	W06
	.byte		        En2 , v040
	.byte	W06
	.byte		        En2 , v100
	.byte	W06
	.byte		        En2 , v040
	.byte	W06
	.byte		N04   , En2 , v100
	.byte	W06
	.byte		N06
	.byte	W06
	.byte		        En2 , v040
	.byte	W06
	.byte		N04   , Bn2 , v100
	.byte	W06
	.byte		N06
	.byte	W06
	.byte		        Bn2 , v040
	.byte	W06
	.byte		N04   , En3 , v100
	.byte	W06
	.byte		N04
	.byte	W06
	.byte	PEND
	.byte	PATT
	 .word	seq_000_3 + 0x147
	.byte		N06   , Ds2 , v100
	.byte	W06
	.byte		        Ds2 , v040
	.byte	W06
	.byte		        Ds2 , v100
	.byte	W06
	.byte		        Ds2 , v040
	.byte	W06
	.byte		        Ds2 , v100
	.byte	W06
	.byte		        Ds2 , v040
	.byte	W06
	.byte		        Ds2 , v100
	.byte	W06
	.byte		        Ds2 , v040
	.byte	W06
	.byte		N04   , Ds2 , v100
	.byte	W06
	.byte		N06
	.byte	W06
	.byte		        Ds2 , v040
	.byte	W06
	.byte		N04   , As2 , v100
	.byte	W06
	.byte		N06
	.byte	W06
	.byte		        As2 , v040
	.byte	W06
	.byte		N04   , Ds3 , v100
	.byte	W06
	.byte		N04
	.byte	W06
	.byte	PATT
	 .word	seq_000_3 + 0xD9
	.byte	PATT
	 .word	seq_000_3 + 0x1BA
	.byte		N06   , Ds2 , v100
	.byte	W06
	.byte		        Ds2 , v040
	.byte	W06
	.byte		        Ds2 , v100
	.byte	W06
	.byte		        Ds2 , v040
	.byte	W06
	.byte		        Ds2 , v100
	.byte	W06
	.byte		        Ds2 , v040
	.byte	W06
	.byte		        Ds2 , v100
	.byte	W06
	.byte		        Ds2 , v040
	.byte	W06
	.byte		N04   , Fs2 , v100
	.byte	W06
	.byte		N06
	.byte	W06
	.byte		        Fs2 , v040
	.byte	W06
	.byte		N04   , En2 , v100
	.byte	W06
	.byte		N06
	.byte	W06
	.byte		        En2 , v040
	.byte	W06
	.byte		N04   , Ds2 , v100
	.byte	W06
	.byte		N04
	.byte	W06
	.byte		BEND  , c_v+0
	.byte		N48   , Dn2 
	.byte	W32
	.byte	W03
	.byte		BEND  , c_v+1
	.byte	W01
	.byte		        c_v+2
	.byte	W01
	.byte		        c_v+3
	.byte	W01
	.byte		        c_v+4
	.byte	W01
	.byte		        c_v+6
	.byte	W01
	.byte		        c_v+11
	.byte	W01
	.byte		        c_v+14
	.byte	W01
	.byte		        c_v+19
	.byte	W01
	.byte		        c_v+24
	.byte	W01
	.byte		        c_v+30
	.byte	W01
	.byte		        c_v+36
	.byte	W01
	.byte		        c_v+46
	.byte	W01
	.byte		        c_v+52
	.byte	W01
	.byte		        c_v+0
	.byte		N48   , Dn3 
	.byte	W48
	.byte	GOTO
	 .word	seq_000_3 + 0xB1
	.byte	FINE

@*********************** Track 05 ***********************@

seq_000_4:
	.byte	KEYSH , seq_000_key+0
	.byte		VOICE , 21
	.byte		VOL   , 66*seq_000_mvl/mxv
	.byte		PAN   , c_v+0
	.byte		BENDR , 12
	.byte		MODT  , mod_vib
	.byte	W96
	.byte	W96
	.byte	W96
	.byte	W48
	.byte		VOL   , 0*seq_000_mvl/mxv
	.byte		N48   , Fs3 , v040
	.byte		N48   , Cs4 , v060
	.byte	W04
	.byte		VOL   , 4*seq_000_mvl/mxv
	.byte	W04
	.byte		        10*seq_000_mvl/mxv
	.byte	W04
	.byte		        16*seq_000_mvl/mxv
	.byte	W04
	.byte		        21*seq_000_mvl/mxv
	.byte	W04
	.byte		        27*seq_000_mvl/mxv
	.byte	W04
	.byte		        33*seq_000_mvl/mxv
	.byte	W04
	.byte		        37*seq_000_mvl/mxv
	.byte	W04
	.byte		        43*seq_000_mvl/mxv
	.byte	W04
	.byte		        49*seq_000_mvl/mxv
	.byte	W04
	.byte		        54*seq_000_mvl/mxv
	.byte	W04
	.byte		        60*seq_000_mvl/mxv
	.byte	W04
	.byte		VOICE , 21
	.byte		VOL   , 66*seq_000_mvl/mxv
	.byte		TIE   , Gs3 , v072
	.byte	W96
	.byte	W48
	.byte		EOT
	.byte		N36   , Bn3 
	.byte	W36
	.byte		N06   , As3 
	.byte	W06
	.byte		        An3 
	.byte	W06
	.byte		TIE   , Gs3 
	.byte	W96
	.byte	W90
	.byte		EOT
	.byte		N06   , Gs3 , v032
	.byte	W06
	.byte		TIE   , Gs3 , v072
	.byte	W96
	.byte	W48
	.byte		EOT
	.byte		N36   , Bn3 
	.byte	W36
	.byte		N06   , As3 
	.byte	W06
	.byte		        An3 
	.byte	W06
	.byte		TIE   , Gs3 
	.byte	W96
	.byte	W90
	.byte		EOT
	.byte		N06   , Gs3 , v032
	.byte	W06
	.byte		TIE   , Bn3 , v060
	.byte	W96
	.byte	W84
	.byte		EOT
	.byte		N06   , Cs4 
	.byte	W06
	.byte		        Cn4 
	.byte	W06
	.byte		TIE   , Bn3 
	.byte	W96
	.byte	W90
	.byte		EOT
	.byte		N06   , Bn3 , v032
	.byte	W06
	.byte		TIE   , As3 , v060
	.byte	W96
	.byte	W84
	.byte		EOT
	.byte		N06   , Gs3 
	.byte	W06
	.byte		        Fs3 
	.byte	W06
	.byte		TIE   , Fn3 
	.byte	W96
	.byte	W78
	.byte		EOT
	.byte		N06   , Fn3 , v032
	.byte	W06
	.byte		        Fn3 , v020
	.byte	W06
	.byte		        Fn3 , v012
	.byte	W06
	.byte		VOICE , 27
	.byte		N06   , Fs3 , v092
	.byte	W06
	.byte		        Fs3 , v052
	.byte	W06
	.byte		        Fs3 , v020
	.byte	W06
	.byte		        Dn3 , v092
	.byte	W06
	.byte		        Dn3 , v052
	.byte	W06
	.byte		        Dn3 , v020
	.byte	W06
	.byte		        Bn2 , v092
	.byte	W06
	.byte		        Bn2 , v032
	.byte	W06
	.byte		        Gn2 , v092
	.byte	W06
	.byte		        Gn2 , v052
	.byte	W06
	.byte		        Gn2 , v020
	.byte	W06
	.byte		        Bn2 , v092
	.byte	W06
	.byte		        Bn2 , v052
	.byte	W06
	.byte		        Bn2 , v020
	.byte	W06
	.byte		        Dn3 , v092
	.byte	W06
	.byte		        Dn3 , v032
	.byte	W06
	.byte		N06   , Fs3 , v092
	.byte	W06
	.byte		        Fs3 , v052
	.byte	W06
	.byte		        Fs3 , v020
	.byte	W06
	.byte		        En3 , v092
	.byte	W06
	.byte		        En3 , v052
	.byte	W06
	.byte		        En3 , v020
	.byte	W06
	.byte		        En3 , v092
	.byte	W06
	.byte		        En3 , v032
	.byte	W06
	.byte		        An3 , v092
	.byte	W06
	.byte		        An3 , v052
	.byte	W06
	.byte		        An3 , v020
	.byte	W06
	.byte		        Gn3 , v092
	.byte	W06
	.byte		        Gn3 , v052
	.byte	W06
	.byte		        Gn3 , v020
	.byte	W06
	.byte		        Gn3 , v092
	.byte	W06
	.byte		        Gn3 , v032
	.byte	W06
	.byte	PEND
	.byte		        Fn3 , v092
	.byte	W06
	.byte		        Fn3 , v052
	.byte	W06
	.byte		        Fn3 , v020
	.byte	W06
	.byte		        Cs3 , v092
	.byte	W06
	.byte		        Cs3 , v052
	.byte	W06
	.byte		        Cs3 , v020
	.byte	W06
	.byte		        As2 , v092
	.byte	W06
	.byte		        As2 , v032
	.byte	W06
	.byte		        Fs2 , v092
	.byte	W06
	.byte		        Fs2 , v052
	.byte	W06
	.byte		        Fs2 , v020
	.byte	W06
	.byte		        As2 , v092
	.byte	W06
	.byte		        As2 , v052
	.byte	W06
	.byte		        As2 , v020
	.byte	W06
	.byte		        Cs3 , v092
	.byte	W06
	.byte		        Cs3 , v032
	.byte	W06
	.byte		        Fn3 , v092
	.byte	W06
	.byte		        Fn3 , v052
	.byte	W06
	.byte		        Fn3 , v020
	.byte	W06
	.byte		        Ds3 , v092
	.byte	W06
	.byte		        Ds3 , v052
	.byte	W06
	.byte		        Ds3 , v020
	.byte	W06
	.byte		        Ds3 , v092
	.byte	W06
	.byte		        Ds3 , v032
	.byte	W06
	.byte		        Gs3 , v092
	.byte	W06
	.byte		        Gs3 , v052
	.byte	W06
	.byte		        Gs3 , v020
	.byte	W06
	.byte		        Fs3 , v092
	.byte	W06
	.byte		        Fs3 , v052
	.byte	W06
	.byte		        Fs3 , v020
	.byte	W06
	.byte		        Fs3 , v092
	.byte	W06
	.byte		        Fs3 , v032
	.byte	W06
	.byte		        Fs3 , v092
	.byte	W06
	.byte		        Fs3 , v052
	.byte	W06
	.byte		        Fs3 , v020
	.byte	W06
	.byte		        Dn3 , v092
	.byte	W06
	.byte		        Dn3 , v052
	.byte	W06
	.byte		        Dn3 , v020
	.byte	W06
	.byte		        Bn2 , v092
	.byte	W06
	.byte		        Bn2 , v032
	.byte	W06
	.byte		        Gn2 , v092
	.byte	W06
	.byte		        Gn2 , v052
	.byte	W06
	.byte		        Gn2 , v020
	.byte	W06
	.byte		        Bn2 , v092
	.byte	W06
	.byte		        Bn2 , v052
	.byte	W06
	.byte		        Bn2 , v020
	.byte	W06
	.byte		        Dn3 , v092
	.byte	W06
	.byte		        Dn3 , v032
	.byte	W06
	.byte	PATT
	 .word	seq_000_4 + 0xC3
	.byte		N80   , Fs3 , v092
	.byte	W84
	.byte		N06   , En3 
	.byte	W06
	.byte		        Dn3 
	.byte	W06
	.byte		N60   , Cn3 
	.byte	W60
	.byte		N06   , Cn3 , v032
	.byte	W06
	.byte		        Cn3 , v012
	.byte	W06
	.byte		VOICE , 21
	.byte		N06   , Cs3 , v052
	.byte	W06
	.byte		        Ds3 
	.byte	W06
	.byte		        Fn3 , v060
	.byte	W06
	.byte		        Fs3 , v072
	.byte	W06
	.byte	GOTO
	 .word	seq_000_4 + 0x30
	.byte	FINE

@******************************************************@

	.align	2

seq_000:
	.byte	5	@ NumTrks
	.byte	0	@ NumBlks
	.byte	seq_000_pri	@ Priority
	.byte	seq_000_rev	@ Reverb

	.word	seq_000_grp

	.word	seq_000_0
	.word	seq_000_1
	.word	seq_000_2
	.word	seq_000_3
	.word	seq_000_4

	.end
