@ File generated by m4a2s Song-Module
	.include "MPlayDef.s"

	.equ	seq_000_grp, bank_000
	.equ	seq_000_pri, 0
	.equ	seq_000_rev, 168
	.equ	seq_000_mvl, 127
	.equ	seq_000_key, 0

	.section .rodata
	.global	seq_000
	.align	2

@*********************** Track 01 ***********************@

seq_000_0:
	.byte	KEYSH , seq_000_key+0
	.byte	TEMPO , 148/2
	.byte		VOICE , 24
	.byte	W01
	.byte		PAN   , c_v+0
	.byte	W01
	.byte		VOL   , 120*seq_000_mvl/mxv
	.byte	W01
	.byte		BENDR , 12
	.byte	W01
	.byte		MODT  , mod_vib
	.byte	W01
	.byte		LFOS  , 31
	.byte	W01
	.byte		LFODL , 14
	.byte	W01
	.byte		MOD   , 0
	.byte	W01
	.byte		PAN   , c_v-44
	.byte	W01
	.byte		N12   , Cn3 , v120
	.byte	W12
	.byte		N06   , Cn3 , v080
	.byte	W06
	.byte		PAN   , c_v+43
	.byte		N12   , Bn2 , v120
	.byte	W12
	.byte		N06   , Bn2 , v080
	.byte	W06
	.byte		PAN   , c_v+0
	.byte		N12   , As2 , v120
	.byte	W12
	.byte		N06   , As2 , v080
	.byte	W06
	.byte		        As2 , v060
	.byte	W18
	.byte		VOICE , 9
	.byte		VOL   , 85*seq_000_mvl/mxv
	.byte		N92   , Ds2 , v127
	.byte	W15
	.byte	W80
	.byte	W01
	.byte		        As2 
	.byte	W15
	.byte	W13
	.byte		VOL   , 103*seq_000_mvl/mxv
	.byte	W28
	.byte		        113*seq_000_mvl/mxv
	.byte	W24
	.byte		        120*seq_000_mvl/mxv
	.byte	W16
	.byte		VOICE , 22
	.byte		PAN   , c_v+0
	.byte		BEND  , c_v+0
	.byte		N17   , Gs3 , v108
	.byte	W15
	.byte	W03
	.byte		N17   , Gs3 , v108
	.byte	W18
	.byte		VOICE , 19
	.byte		N05
	.byte	W06
	.byte		        Gs3 , v056
	.byte	W06
	.byte		        Gs3 , v036
	.byte	W06
	.byte		        Gs3 , v016
	.byte	W06
	.byte		VOICE , 22
	.byte		N17   , Fs3 , v108
	.byte	W18
	.byte		        Gs3 
	.byte	W18
	.byte		N17
	.byte	W15
	.byte	PEND
	.byte	W03
	.byte		N17   , Gs3 , v108
	.byte	W18
	.byte		VOICE , 19
	.byte		N05
	.byte	W06
	.byte		        Gs3 , v056
	.byte	W06
	.byte		        Gs3 , v036
	.byte	W06
	.byte		        Gs3 , v016
	.byte	W06
	.byte		VOICE , 22
	.byte		N17   , As3 , v108
	.byte	W18
	.byte		        Bn3 
	.byte	W18
	.byte		        Gs3 
	.byte	W15
	.byte	PEND
	.byte	PATT
	 .word	seq_000_0 + 0x5C
	.byte	PATT
	 .word	seq_000_0 + 0x79
	.byte	PATT
	 .word	seq_000_0 + 0x5C
	.byte	PATT
	 .word	seq_000_0 + 0x79
	.byte	PATT
	 .word	seq_000_0 + 0x5C
	.byte	W03
	.byte		N17   , Dn4 , v108
	.byte	W18
	.byte		VOICE , 19
	.byte		N05   , Cs4 
	.byte	W06
	.byte		N04   , Cs4 , v040
	.byte	W06
	.byte		VOICE , 22
	.byte		N17   , Cn4 , v108
	.byte	W18
	.byte		        Bn3 
	.byte	W18
	.byte		N11   , As3 
	.byte	W12
	.byte		VOICE , 23
	.byte		BEND  , c_v-8
	.byte		TIE   , Bn2 , v100
	.byte	W04
	.byte		BEND  , c_v-6
	.byte	W02
	.byte		        c_v-3
	.byte	W01
	.byte		        c_v+0
	.byte	W08
	.byte	W21
	.byte		BEND  , c_v-6
	.byte	W72
	.byte	W03
	.byte	PEND
	.byte	W80
	.byte		EOT   , Bn2 
	.byte	W01
	.byte		BEND  , c_v-8
	.byte		TIE   , An2 , v100
	.byte	W04
	.byte		BEND  , c_v-6
	.byte	W02
	.byte		        c_v-3
	.byte	W01
	.byte		        c_v+0
	.byte	W08
	.byte	PATT
	 .word	seq_000_0 + 0xD7
	.byte	W78
	.byte	W01
	.byte		EOT   , An2 
	.byte	W02
	.byte		VOICE , 19
	.byte		PAN   , c_v+56
	.byte		VOL   , 18*seq_000_mvl/mxv
	.byte		BEND  , c_v+0
	.byte		N22   , An4 , v108
	.byte	W06
	.byte		PAN   , c_v-24
	.byte		VOL   , 56*seq_000_mvl/mxv
	.byte		BEND  , c_v-2
	.byte	W06
	.byte		PAN   , c_v-14
	.byte		VOL   , 75*seq_000_mvl/mxv
	.byte		BEND  , c_v-4
	.byte	W03
	.byte	W03
	.byte		PAN   , c_v-34
	.byte		VOL   , 113*seq_000_mvl/mxv
	.byte		BEND  , c_v-8
	.byte	W03
	.byte		VOL   , 120*seq_000_mvl/mxv
	.byte	W03
	.byte		VOICE , 22
	.byte		VOL   , 120*seq_000_mvl/mxv
	.byte		PAN   , c_v+0
	.byte		BEND  , c_v+0
	.byte		N17   , An3 
	.byte	W18
	.byte		N17
	.byte	W18
	.byte		VOICE , 19
	.byte		N05
	.byte	W06
	.byte		        An3 , v056
	.byte	W06
	.byte		        An3 , v036
	.byte	W06
	.byte		        An3 , v016
	.byte	W06
	.byte		VOICE , 22
	.byte		N17   , Gn3 , v108
	.byte	W18
	.byte		        An3 
	.byte	W09
	.byte	W09
	.byte		N17   , An3 , v108
	.byte	W18
	.byte		N17
	.byte	W18
	.byte		VOICE , 19
	.byte		N05
	.byte	W06
	.byte		        An3 , v056
	.byte	W06
	.byte		        An3 , v036
	.byte	W06
	.byte		        An3 , v016
	.byte	W06
	.byte		VOICE , 22
	.byte		N17   , Bn3 , v108
	.byte	W18
	.byte		        Cn4 
	.byte	W09
	.byte	PEND
	.byte	W09
	.byte		        An3 
	.byte	W18
	.byte		N17
	.byte	W18
	.byte		VOICE , 19
	.byte		N05
	.byte	W06
	.byte		        An3 , v056
	.byte	W06
	.byte		        An3 , v036
	.byte	W06
	.byte		        An3 , v016
	.byte	W06
	.byte		VOICE , 22
	.byte		N17   , Gn3 , v108
	.byte	W18
	.byte		        An3 
	.byte	W09
	.byte	PATT
	 .word	seq_000_0 + 0x13F
	.byte	W09
	.byte		VOICE , 9
	.byte		PAN   , c_v-44
	.byte		TIE   , As2 , v108
	.byte	W24
	.byte		PAN   , c_v-14
	.byte	W24
	.byte		        c_v+16
	.byte	W24
	.byte		        c_v+46
	.byte	W15
	.byte	W32
	.byte	W01
	.byte		PAN   , c_v+16
	.byte	W24
	.byte		        c_v-14
	.byte	W24
	.byte		        c_v-44
	.byte	W15
	.byte	PEND
	.byte	W08
	.byte		EOT   , As2 
	.byte	W01
	.byte		TIE   , Bn2 , v108
	.byte	W24
	.byte		PAN   , c_v-14
	.byte	W24
	.byte		        c_v+16
	.byte	W24
	.byte		        c_v+46
	.byte	W15
	.byte	PATT
	 .word	seq_000_0 + 0x18B
	.byte	W08
	.byte		EOT   , Bn2 
	.byte	W01
	.byte		PAN   , c_v-44
	.byte		TIE   , As2 , v108
	.byte	W24
	.byte		PAN   , c_v-14
	.byte	W24
	.byte		        c_v+16
	.byte	W24
	.byte		        c_v+46
	.byte	W15
	.byte	PATT
	 .word	seq_000_0 + 0x18B
	.byte	W08
	.byte		EOT   , As2 
	.byte	W01
	.byte		TIE   , Bn2 , v108
	.byte	W24
	.byte		PAN   , c_v-14
	.byte	W24
	.byte		        c_v+16
	.byte	W24
	.byte		        c_v+46
	.byte	W15
	.byte	PATT
	 .word	seq_000_0 + 0x18B
	.byte	W08
	.byte		EOT   , Bn2 
	.byte	W01
	.byte		VOICE , 23
	.byte		PAN   , c_v+0
	.byte		N16   , Gn2 , v100
	.byte	W18
	.byte		        Cn3 
	.byte	W18
	.byte		N10   , An2 
	.byte	W12
	.byte		N16   , Dn3 
	.byte	W18
	.byte		        Bn2 
	.byte	W18
	.byte		N10   , En3 
	.byte	W03
	.byte	W09
	.byte		TIE   , Fs3 
	.byte	W84
	.byte	W03
	.byte	W32
	.byte	W03
	.byte		BEND  , c_v-3
	.byte	W04
	.byte		        c_v-6
	.byte	W04
	.byte		        c_v-8
	.byte	W03
	.byte		        c_v-12
	.byte	W03
	.byte		        c_v-17
	.byte	W03
	.byte		        c_v-21
	.byte	W03
	.byte		        c_v-26
	.byte	W01
	.byte		EOT
	.byte	W01
	.byte	GOTO
	 .word	seq_000_0 + 0x52
	.byte	FINE

@*********************** Track 02 ***********************@

seq_000_1:
	.byte	KEYSH , seq_000_key+0
	.byte		VOICE , 4
	.byte	W01
	.byte		VOL   , 75*seq_000_mvl/mxv
	.byte	W01
	.byte		PAN   , c_v+0
	.byte	W01
	.byte	W01
	.byte		XCMD  , xIECV , 40
	.byte	W01
	.byte	W01
	.byte		        xIECL , 3
	.byte	W01
	.byte		BENDR , 12
	.byte	W01
	.byte		LFOS  , 31
	.byte	W01
	.byte		LFODL , 14
	.byte	W03
	.byte		MODT  , mod_vib
	.byte	W12
	.byte		MOD   , 8
	.byte	W15
	.byte		N03   , An2 , v100
	.byte	W03
	.byte		        An2 , v060
	.byte	W03
	.byte		        Cs3 , v100
	.byte	W03
	.byte		        Cs3 , v060
	.byte	W03
	.byte		        Fs3 , v100
	.byte	W03
	.byte		        Fs3 , v060
	.byte	W03
	.byte		PAN   , c_v-64
	.byte		N03   , Gs3 , v100
	.byte	W03
	.byte		        Gs3 , v060
	.byte	W03
	.byte		        Cs4 , v100
	.byte	W03
	.byte		        Cs4 , v060
	.byte	W03
	.byte		        Fs4 , v100
	.byte	W03
	.byte		        Fs4 , v060
	.byte	W03
	.byte		PAN   , c_v+63
	.byte		N03   , Gs4 , v100
	.byte	W03
	.byte		        Gs4 , v060
	.byte	W18
	.byte	W96
	.byte	W80
	.byte	W01
	.byte		PAN   , c_v+0
	.byte		N12   , Ds3 , v100
	.byte	W12
	.byte		        En3 
	.byte	W03
	.byte	W09
	.byte		        Fs3 
	.byte	W12
	.byte		TIE   , Cs3 
	.byte	W72
	.byte	W03
	.byte	W40
	.byte	W01
	.byte		EOT
	.byte	W04
	.byte		N12   , Ds3 
	.byte	W12
	.byte		        En3 
	.byte	W12
	.byte		        Fs3 
	.byte	W12
	.byte		N36   , Gs3 
	.byte	W15
	.byte	W21
	.byte		N06   , Gs3 , v080
	.byte	W06
	.byte		        Gs3 , v052
	.byte	W06
	.byte		N18   , Gs3 , v100
	.byte	W18
	.byte		        An3 
	.byte	W18
	.byte		N12   , Bn3 
	.byte	W12
	.byte		N18   , Ds3 
	.byte	W15
	.byte	W03
	.byte		        En3 
	.byte	W18
	.byte		N12   , Fs3 
	.byte	W12
	.byte		N36   , Bn2 
	.byte	W36
	.byte		N06   , Bn2 , v080
	.byte	W06
	.byte		        Bn2 , v052
	.byte	W06
	.byte		        Bn2 , v040
	.byte	W06
	.byte		        Bn2 , v032
	.byte	W06
	.byte		        Bn2 , v020
	.byte	W03
	.byte	W03
	.byte		        Bn2 , v012
	.byte	W30
	.byte		N02   , As2 , v100
	.byte	W02
	.byte		N16   , Bn2 
	.byte	W16
	.byte		N17   , Ds3 
	.byte	W18
	.byte		N10   , Cs3 
	.byte	W12
	.byte		N18   , En3 
	.byte	W15
	.byte	W03
	.byte		        Ds3 
	.byte	W18
	.byte		N12   , Fs3 
	.byte	W12
	.byte		N18   , Bn3 
	.byte	W18
	.byte		        Cs4 
	.byte	W18
	.byte		N12   , Ds4 
	.byte	W12
	.byte		N36   , En4 
	.byte	W15
	.byte	W21
	.byte		        Ds4 
	.byte	W36
	.byte		N24   , Fs4 
	.byte	W24
	.byte		N42   , Gs4 
	.byte	W15
	.byte	W24
	.byte	W03
	.byte		N06   , Gs4 , v080
	.byte	W06
	.byte		        Gs4 , v072
	.byte	W06
	.byte		PAN   , c_v+0
	.byte		N03   , An3 , v100
	.byte	W03
	.byte		        An3 , v052
	.byte	W03
	.byte		        Cs4 , v100
	.byte	W03
	.byte		        Cs4 , v052
	.byte	W03
	.byte		        En4 , v100
	.byte	W03
	.byte		        En4 , v052
	.byte	W03
	.byte		PAN   , c_v+63
	.byte		N03   , Gs4 , v120
	.byte	W03
	.byte		        Gs4 , v060
	.byte	W03
	.byte		        Cs4 , v120
	.byte	W03
	.byte		        Cs4 , v060
	.byte	W03
	.byte		PAN   , c_v-64
	.byte		N03   , En4 , v120
	.byte	W03
	.byte		        En4 , v060
	.byte	W03
	.byte		        Gs4 , v120
	.byte	W03
	.byte		        Gs4 , v060
	.byte	W03
	.byte		VOICE , 6
	.byte		PAN   , c_v+63
	.byte		N06   , Ds5 , v100
	.byte	W06
	.byte		        As4 
	.byte	W06
	.byte		        Bn4 
	.byte	W03
	.byte	W03
	.byte		        Cs5 
	.byte	W06
	.byte		        Bn4 
	.byte	W06
	.byte		        As4 
	.byte	W06
	.byte		        Gs4 
	.byte	W06
	.byte		        Ds4 
	.byte	W06
	.byte		PAN   , c_v-64
	.byte		N06   , Cs4 
	.byte	W06
	.byte		        Ds4 
	.byte	W06
	.byte		        En4 
	.byte	W06
	.byte		        Gs4 
	.byte	W06
	.byte		        As4 
	.byte	W06
	.byte		        Gs4 
	.byte	W06
	.byte		        Ds5 
	.byte	W06
	.byte		        Gs4 
	.byte	W06
	.byte		PAN   , c_v+63
	.byte		N06   , En4 
	.byte	W06
	.byte		        Fs4 
	.byte	W06
	.byte		        Gs4 
	.byte	W03
	.byte	W03
	.byte		        Ds5 
	.byte	W06
	.byte		        Cs5 
	.byte	W06
	.byte		        As4 
	.byte	W06
	.byte		        Bn4 
	.byte	W06
	.byte		        Cs5 
	.byte	W06
	.byte		PAN   , c_v-64
	.byte		N06   , Ds5 
	.byte	W06
	.byte		        As4 
	.byte	W06
	.byte		        Ds5 
	.byte	W06
	.byte		        Cs5 
	.byte	W06
	.byte		        Bn4 
	.byte	W06
	.byte		        As4 
	.byte	W06
	.byte		        Gs4 
	.byte	W06
	.byte		        Ds4 
	.byte	W06
	.byte		PAN   , c_v+63
	.byte		N06   , Ds5 
	.byte	W06
	.byte		        As4 
	.byte	W06
	.byte		        Bn4 
	.byte	W03
	.byte	W03
	.byte		        Cs5 
	.byte	W06
	.byte		        Bn4 
	.byte	W06
	.byte		        As4 
	.byte	W06
	.byte		        Gs4 
	.byte	W06
	.byte		        Ds4 
	.byte	W06
	.byte		PAN   , c_v-64
	.byte		N06   , Cs4 
	.byte	W06
	.byte		        Ds4 
	.byte	W06
	.byte		        En4 
	.byte	W06
	.byte		        Gs4 
	.byte	W06
	.byte		        As4 
	.byte	W06
	.byte		        Gs4 
	.byte	W06
	.byte		        Ds5 
	.byte	W06
	.byte		        Gs4 
	.byte	W06
	.byte		PAN   , c_v+63
	.byte		N06
	.byte	W06
	.byte		        As4 
	.byte	W06
	.byte		        Bn4 
	.byte	W03
	.byte	W03
	.byte		        Cs5 
	.byte	W06
	.byte		        Bn4 
	.byte	W06
	.byte		        Fs4 
	.byte	W06
	.byte		        Gs4 
	.byte	W06
	.byte		        As4 
	.byte	W06
	.byte		PAN   , c_v-64
	.byte		N06   , Fs4 
	.byte	W06
	.byte		        En4 
	.byte	W06
	.byte		        Ds4 
	.byte	W06
	.byte		        Fs4 
	.byte	W06
	.byte		        As4 
	.byte	W06
	.byte		        Cs5 
	.byte	W06
	.byte		        Fs4 
	.byte	W06
	.byte		N05   , Gs4 
	.byte	W21
	.byte	W09
	.byte		VOICE , 4
	.byte		PAN   , c_v+0
	.byte		N12   , En3 
	.byte	W12
	.byte		        Fn3 
	.byte	W12
	.byte		        Gn3 
	.byte	W12
	.byte		TIE   , Dn3 
	.byte	W48
	.byte	W03
	.byte	W60
	.byte	W03
	.byte		EOT
	.byte		N06   , Dn3 , v080
	.byte	W06
	.byte		N12   , En3 , v100
	.byte	W12
	.byte		        Fn3 
	.byte	W12
	.byte		        Gn3 
	.byte	W03
	.byte	W09
	.byte		N36   , An3 
	.byte	W36
	.byte		N06   , An3 , v080
	.byte	W06
	.byte		        An3 , v052
	.byte	W06
	.byte		N18   , An3 , v100
	.byte	W18
	.byte		        As3 
	.byte	W18
	.byte		N12   , Cn4 
	.byte	W03
	.byte	W09
	.byte		N18   , Dn4 
	.byte	W18
	.byte		        En4 
	.byte	W18
	.byte		N12   , Fn4 
	.byte	W12
	.byte		N18   , Gn4 
	.byte	W18
	.byte		        An4 
	.byte	W18
	.byte		N12   , As4 
	.byte	W03
	.byte	W09
	.byte		TIE   , Bn4 
	.byte	W84
	.byte	W03
	.byte	W21
	.byte		EOT
	.byte		N12   , Bn4 , v072
	.byte	W12
	.byte		        Bn4 , v060
	.byte	W12
	.byte		        Bn4 , v052
	.byte	W12
	.byte		        Bn4 , v040
	.byte	W12
	.byte		        Bn4 , v032
	.byte	W12
	.byte		        Bn4 , v020
	.byte	W12
	.byte		VOICE , 6
	.byte		N12   , Cn5 , v032
	.byte	W03
	.byte	W09
	.byte		        Cn5 , v012
	.byte	W12
	.byte		        Fn4 , v080
	.byte	W12
	.byte		        Gn4 
	.byte	W12
	.byte		        Cn5 
	.byte	W12
	.byte		        Cn5 , v040
	.byte	W12
	.byte		PAN   , c_v+63
	.byte		N12   , Fn4 , v127
	.byte	W12
	.byte		        Gn4 
	.byte	W12
	.byte		        Cn5 
	.byte	W03
	.byte	W09
	.byte		N12   , Cn5 , v060
	.byte	W12
	.byte		PAN   , c_v-64
	.byte		N12   , Fn4 , v127
	.byte	W12
	.byte		        Gn4 
	.byte	W12
	.byte		        Cn5 
	.byte	W12
	.byte		PAN   , c_v+0
	.byte		N12   , Gn4 , v080
	.byte	W12
	.byte		        Fn4 
	.byte	W12
	.byte		        Gn4 
	.byte	W12
	.byte		        Cn5 
	.byte	W03
	.byte	PEND
	.byte	W09
	.byte		        Cn5 , v040
	.byte	W12
	.byte		        En4 , v080
	.byte	W12
	.byte		        Fs4 
	.byte	W12
	.byte		        Bn4 
	.byte	W12
	.byte		        Bn4 , v040
	.byte	W12
	.byte		PAN   , c_v+63
	.byte		N12   , En4 , v127
	.byte	W12
	.byte		        Fs4 
	.byte	W12
	.byte		        Bn4 
	.byte	W03
	.byte	W09
	.byte		        Bn4 , v060
	.byte	W12
	.byte		PAN   , c_v-64
	.byte		N12   , En4 , v127
	.byte	W12
	.byte		        Fs4 
	.byte	W12
	.byte		        Bn4 
	.byte	W12
	.byte		PAN   , c_v+0
	.byte		N12   , Fs4 , v080
	.byte	W12
	.byte		        En4 
	.byte	W12
	.byte		        Fs4 
	.byte	W12
	.byte		        Bn4 
	.byte	W03
	.byte	W09
	.byte		        Bn4 , v040
	.byte	W12
	.byte		        Fn4 , v080
	.byte	W12
	.byte		        Gn4 
	.byte	W12
	.byte		        Cn5 
	.byte	W12
	.byte		        Cn5 , v040
	.byte	W12
	.byte		PAN   , c_v+63
	.byte		N12   , Fn4 , v127
	.byte	W12
	.byte		        Gn4 
	.byte	W12
	.byte		        Cn5 
	.byte	W03
	.byte	PATT
	 .word	seq_000_1 + 0x226
	.byte	W09
	.byte		N18   , As4 , v060
	.byte	W18
	.byte		        Ds5 
	.byte	W18
	.byte		N12   , Cn5 
	.byte	W12
	.byte		N18   , Fn5 
	.byte	W18
	.byte		        Dn5 
	.byte	W18
	.byte		N12   , Gn5 
	.byte	W03
	.byte	W09
	.byte		N96   , An5 
	.byte	W84
	.byte	W03
	.byte	W09
	.byte		N06   , An5 , v052
	.byte	W06
	.byte		        An5 , v040
	.byte	W06
	.byte		        An5 , v032
	.byte	W06
	.byte		        An5 , v020
	.byte	W24
	.byte		VOICE , 4
	.byte	W06
	.byte	GOTO
	 .word	seq_000_1 + 0x57
	.byte	FINE

@*********************** Track 03 ***********************@

seq_000_2:
	.byte	KEYSH , seq_000_key+0
	.byte		VOL   , 103*seq_000_mvl/mxv
	.byte	W01
	.byte		PAN   , c_v+0
	.byte	W01
	.byte	W01
	.byte		XCMD  , xIECV , 20
	.byte	W01
	.byte	W01
	.byte		        xIECL , 2
	.byte	W01
	.byte		VOICE , 0
	.byte	W03
	.byte		N17   , Cs2 , v052
	.byte	W18
	.byte		N17
	.byte	W18
	.byte		N11   , Cs2 , v040
	.byte	W12
	.byte		N01   , Fs1 , v060
	.byte	W04
	.byte		N01
	.byte	W04
	.byte		N01
	.byte	W04
	.byte		N11   , As1 , v052
	.byte	W12
	.byte		N32   , Cs2 , v060
	.byte		N03   , Dn4 , v127
	.byte	W15
	.byte	W03
	.byte		        Dn4 , v100
	.byte	W18
	.byte		N11   , As1 , v040
	.byte		N03   , Dn4 , v127
	.byte	W12
	.byte		N01   , Fs1 , v052
	.byte	W06
	.byte		N01
	.byte	W06
	.byte		N11   , As1 , v040
	.byte	W12
	.byte		N01   , Fs1 , v052
	.byte	W06
	.byte		N01
	.byte	W06
	.byte		N11   , As1 , v040
	.byte		N04   , En3 , v100
	.byte	W06
	.byte		        Fs3 
	.byte	W06
	.byte		N01   , Fs1 , v052
	.byte		N03   , Dn4 , v127
	.byte	W06
	.byte		N01   , Fs1 , v052
	.byte	W06
	.byte		N11   , As1 , v040
	.byte	W03
	.byte	W03
	.byte		N03   , Dn4 , v100
	.byte	W06
	.byte		N01   , Fs1 , v052
	.byte		N09   , Gs2 , v127
	.byte	W06
	.byte		N01   , Fs1 , v052
	.byte	W06
	.byte		N11   , As1 , v040
	.byte		N03   , Dn4 , v127
	.byte	W12
	.byte		N01   , Fs1 , v052
	.byte	W06
	.byte		N01
	.byte	W06
	.byte		N32   , Bn1 , v060
	.byte		N03   , Gs4 , v127
	.byte	W06
	.byte		        Gs4 , v072
	.byte	W06
	.byte		        Gs4 , v100
	.byte	W06
	.byte		        Gs4 , v127
	.byte	W06
	.byte		        Gs4 , v100
	.byte	W06
	.byte		        Gs4 , v127
	.byte	W06
	.byte		N32   , Cs2 , v052
	.byte		N03   , Dn4 , v127
	.byte	W15
	.byte	W03
	.byte		N03   , Dn4 , v100
	.byte	W06
	.byte		        Gs4 , v127
	.byte	W12
	.byte		N11   , As1 , v040
	.byte		N03   , Dn4 , v127
	.byte	W12
	.byte		N01   , Fs1 , v052
	.byte	W06
	.byte		N01
	.byte	W06
	.byte		N11   , As1 , v040
	.byte		N03   , Gs4 , v072
	.byte	W06
	.byte		        Gs4 , v100
	.byte	W06
	.byte		N01   , Fs1 , v052
	.byte		N03   , Gs4 , v127
	.byte	W06
	.byte		N01   , Fs1 , v052
	.byte	W06
	.byte		N11   , As1 , v040
	.byte		N03   , Dn4 , v127
	.byte	W12
	.byte		N01   , Fs1 , v052
	.byte		N03   , Dn4 , v127
	.byte	W06
	.byte		N01   , Fs1 , v052
	.byte	W06
	.byte		N11   , As1 , v040
	.byte	W03
	.byte	PEND
	.byte	W03
	.byte		N03   , Dn4 , v100
	.byte	W06
	.byte		N01   , Fs1 , v052
	.byte		N03   , Gs4 , v127
	.byte	W06
	.byte		N01   , Fs1 , v052
	.byte	W06
	.byte		N11   , As1 , v040
	.byte		N03   , Dn4 , v127
	.byte	W12
	.byte		N01   , Fs1 , v052
	.byte	W06
	.byte		N01
	.byte	W06
	.byte		N11   , As1 , v040
	.byte		N03   , Gs4 , v072
	.byte	W06
	.byte		        Gs4 , v100
	.byte	W06
	.byte		N01   , Fs1 , v052
	.byte		N03   , Gs4 , v127
	.byte	W06
	.byte		N01   , Fs1 , v040
	.byte	W06
	.byte		        Fs1 , v052
	.byte		N03   , Dn4 , v127
	.byte	W04
	.byte		N01   , Fs1 , v052
	.byte	W02
	.byte		N03   , Dn4 , v127
	.byte	W02
	.byte		N01   , Fs1 , v040
	.byte	W04
	.byte		        Fs1 , v052
	.byte		N03   , Dn4 , v127
	.byte	W06
	.byte		N01   , Fs1 , v052
	.byte	W06
	.byte		N11   , As1 , v040
	.byte	W03
	.byte	PEND
	.byte	W03
	.byte		N03   , Dn4 , v100
	.byte	W06
	.byte		N01   , Fs1 , v052
	.byte		N03   , Gs4 , v127
	.byte	W06
	.byte		N01   , Fs1 , v052
	.byte	W06
	.byte		N11   , As1 , v040
	.byte		N03   , Dn4 , v127
	.byte	W12
	.byte		N01   , Fs1 , v052
	.byte	W06
	.byte		N01
	.byte	W06
	.byte		N11   , As1 , v040
	.byte		N03   , Gs4 , v072
	.byte	W06
	.byte		        Gs4 , v100
	.byte	W06
	.byte		N01   , Fs1 , v052
	.byte		N03   , Gs4 , v127
	.byte	W06
	.byte		N01   , Fs1 , v052
	.byte	W06
	.byte		N11   , As1 , v040
	.byte		N03   , Dn4 , v127
	.byte	W12
	.byte		N01   , Fs1 , v052
	.byte		N03   , Dn4 , v127
	.byte	W06
	.byte		N01   , Fs1 , v052
	.byte	W06
	.byte		N11   , As1 , v040
	.byte	W03
	.byte	PEND
	.byte	W03
	.byte		N03   , Dn4 , v100
	.byte	W06
	.byte		N01   , Fs1 , v052
	.byte		N03   , Gs4 , v127
	.byte	W06
	.byte		N01   , Fs1 , v052
	.byte	W06
	.byte		N11   , As1 , v040
	.byte		N03   , Dn4 , v127
	.byte	W12
	.byte		N01   , Fs1 , v052
	.byte	W06
	.byte		N11   , As1 , v040
	.byte	W06
	.byte		N03   , Gs4 , v072
	.byte	W06
	.byte		N01   , Fs1 , v052
	.byte		N03   , Gs4 , v100
	.byte	W06
	.byte		N01   , Fs1 , v052
	.byte		N03   , Gs4 , v127
	.byte	W04
	.byte		N01   , Fs1 , v052
	.byte	W02
	.byte		N03   , Gs4 , v100
	.byte	W02
	.byte		N01   , Fs1 , v040
	.byte	W04
	.byte		N11   , As1 , v052
	.byte		N03   , Gs4 , v112
	.byte	W06
	.byte		        Gs4 , v127
	.byte	W06
	.byte		N32   , Cs2 , v052
	.byte		N03   , Dn4 , v127
	.byte	W15
	.byte	PATT
	 .word	seq_000_2 + 0x9E
	.byte	PATT
	 .word	seq_000_2 + 0xDF
	.byte	PATT
	 .word	seq_000_2 + 0x132
	.byte	W03
	.byte		N03   , Gs4 , v100
	.byte	W06
	.byte		N01   , Fs1 , v052
	.byte		N03   , Gs4 , v127
	.byte	W06
	.byte		N01   , Fs1 , v052
	.byte	W06
	.byte		N11   , As1 , v040
	.byte		N03   , Dn4 , v127
	.byte	W12
	.byte		N01   , Fs1 , v052
	.byte		N03   , Dn4 , v127
	.byte	W06
	.byte		N11   , As1 , v040
	.byte	W06
	.byte		N03   , Gs4 , v072
	.byte	W06
	.byte		N01   , Fs1 , v052
	.byte		N03   , Gs4 , v100
	.byte	W06
	.byte		N01   , Fs1 , v052
	.byte		N03   , Gs4 , v127
	.byte	W04
	.byte		N01   , Fs1 , v052
	.byte	W02
	.byte		N03   , Gs4 , v100
	.byte	W02
	.byte		N01   , Fs1 , v040
	.byte	W04
	.byte		N11   , As1 , v052
	.byte		N03   , Gs4 , v112
	.byte	W06
	.byte		        Gs4 , v127
	.byte	W06
	.byte		N32   , Cs2 , v052
	.byte		N03   , Dn4 , v127
	.byte	W15
	.byte	W03
	.byte		        Gs2 , v100
	.byte	W06
	.byte		        Gs2 , v127
	.byte	W12
	.byte		N32   , Cs2 , v052
	.byte		N03   , Dn4 , v127
	.byte	W24
	.byte		N06   , Gs2 
	.byte	W12
	.byte		N01   , Fs1 , v052
	.byte		N03   , Fs3 , v100
	.byte	W06
	.byte		N01   , Fs1 , v052
	.byte		N03   , Fs3 , v100
	.byte	W06
	.byte		N11   , As1 , v040
	.byte		N03   , Fn3 , v100
	.byte	W06
	.byte		N03
	.byte	W06
	.byte		N01   , Fs1 , v052
	.byte		N06   , En3 , v100
	.byte	W06
	.byte		N01   , Fs1 , v052
	.byte	W06
	.byte		N11   , As1 , v040
	.byte	W03
	.byte	W03
	.byte		N03   , Dn4 , v100
	.byte	W06
	.byte		N01   , Fs1 , v052
	.byte		N03   , Gs4 , v127
	.byte	W06
	.byte		N01   , Fs1 , v052
	.byte	W06
	.byte		N11   , As1 , v040
	.byte		N03   , Dn4 , v127
	.byte	W12
	.byte		N01   , Fs1 , v052
	.byte	W06
	.byte		N01
	.byte	W06
	.byte		N11   , As1 , v040
	.byte		N03   , Gs4 , v072
	.byte	W06
	.byte		        Gs4 , v100
	.byte	W06
	.byte		N01   , Fs1 , v052
	.byte		N03   , Gs4 , v127
	.byte	W06
	.byte		N01   , Fs1 , v040
	.byte	W06
	.byte		        Fs1 , v052
	.byte		N03   , Dn4 , v127
	.byte	W04
	.byte		N01   , Fs1 , v052
	.byte	W02
	.byte		N03   , Dn4 , v127
	.byte	W02
	.byte		N01   , Fs1 , v040
	.byte	W04
	.byte		N32   , Cs2 , v052
	.byte		N03   , Dn4 , v127
	.byte	W15
	.byte	W03
	.byte		        Dn4 , v100
	.byte	W06
	.byte		        Gs2 , v127
	.byte	W12
	.byte		N32   , Cs2 , v052
	.byte		N03   , Dn4 , v127
	.byte	W24
	.byte		N06   , Gs2 
	.byte	W12
	.byte		N01   , Fs1 , v052
	.byte		N03   , Cs4 , v100
	.byte	W06
	.byte		N01   , Fs1 , v052
	.byte		N03   , Fn3 , v100
	.byte	W06
	.byte		N11   , As1 , v040
	.byte		N03   , En3 , v100
	.byte	W06
	.byte		        Fs3 
	.byte	W06
	.byte		N01   , Fs1 , v052
	.byte		N03   , En3 , v100
	.byte	W06
	.byte		N01   , Fs1 , v052
	.byte	W06
	.byte		N11   , As1 , v040
	.byte	W03
	.byte	W03
	.byte		N03   , Dn4 , v100
	.byte	W06
	.byte		N01   , Fs1 , v052
	.byte		N03   , Gs4 , v127
	.byte	W06
	.byte		N01   , Fs1 , v052
	.byte	W06
	.byte		N11   , As1 , v040
	.byte		N03   , Dn4 , v127
	.byte	W12
	.byte		N01   , Fs1 , v052
	.byte	W06
	.byte		N01
	.byte	W06
	.byte		N11   , As1 , v040
	.byte		N03   , Gs4 , v072
	.byte	W06
	.byte		        Gs4 , v100
	.byte	W06
	.byte		N01   , Fs1 , v052
	.byte		N03   , Gs4 , v127
	.byte	W06
	.byte		N01   , Fs1 , v040
	.byte		N03   , Gs4 , v072
	.byte	W06
	.byte		N01   , Fs1 , v052
	.byte		N03   , Dn4 , v127
	.byte	W04
	.byte		N01   , Fs1 , v052
	.byte	W02
	.byte		N03   , Gs4 , v080
	.byte	W02
	.byte		N01   , Fs1 , v040
	.byte	W04
	.byte		        Fs1 , v052
	.byte	W04
	.byte		N01
	.byte	W04
	.byte		N01
	.byte	W04
	.byte		N11   , As1 
	.byte		N06   , Fs3 , v100
	.byte	W03
	.byte	W03
	.byte		        En3 
	.byte	W06
	.byte		N32   , Cs2 , v052
	.byte		N03   , Dn4 , v127
	.byte	W18
	.byte		        Dn4 , v100
	.byte	W06
	.byte		        Gs4 , v127
	.byte	W12
	.byte		N11   , As1 , v040
	.byte		N03   , Dn4 , v127
	.byte	W12
	.byte		N01   , Fs1 , v052
	.byte	W06
	.byte		N01
	.byte	W06
	.byte		N11   , As1 , v040
	.byte		N03   , Gs4 , v072
	.byte	W06
	.byte		        Gs4 , v100
	.byte	W06
	.byte		N01   , Fs1 , v052
	.byte		N03   , Gs4 , v127
	.byte	W06
	.byte		N01   , Fs1 , v052
	.byte	W06
	.byte		N11   , As1 , v040
	.byte		N03   , Dn4 , v127
	.byte	W03
	.byte	W09
	.byte		N01   , Fs1 , v052
	.byte		N03   , Dn4 , v127
	.byte	W06
	.byte		N01   , Fs1 , v052
	.byte	W06
	.byte		N11   , As1 , v040
	.byte	W06
	.byte		N03   , Dn4 , v100
	.byte	W06
	.byte		N01   , Fs1 , v052
	.byte		N03   , Gs4 , v127
	.byte	W06
	.byte		N01   , Fs1 , v052
	.byte	W06
	.byte		N11   , As1 , v040
	.byte		N03   , Dn4 , v127
	.byte	W12
	.byte		N01   , Fs1 , v052
	.byte	W06
	.byte		N01
	.byte	W06
	.byte		N11   , As1 , v040
	.byte		N03   , Gs4 , v072
	.byte	W06
	.byte		        Gs4 , v100
	.byte	W06
	.byte		N01   , Fs1 , v052
	.byte		N03   , Gs4 , v127
	.byte	W06
	.byte		N01   , Fs1 , v040
	.byte	W06
	.byte		        Fs1 , v052
	.byte		N03   , Dn4 , v127
	.byte	W03
	.byte	W01
	.byte		N01   , Fs1 , v052
	.byte	W02
	.byte		N03   , Dn4 , v127
	.byte	W02
	.byte		N01   , Fs1 , v040
	.byte	W04
	.byte		        Fs1 , v052
	.byte		N03   , Dn4 , v127
	.byte	W06
	.byte		N01   , Fs1 , v052
	.byte	W06
	.byte		N11   , As1 , v040
	.byte	W06
	.byte		N03   , Dn4 , v100
	.byte	W06
	.byte		N01   , Fs1 , v052
	.byte		N03   , Gs4 , v127
	.byte	W06
	.byte		N01   , Fs1 , v052
	.byte	W06
	.byte		N11   , As1 , v040
	.byte		N03   , Dn4 , v127
	.byte	W12
	.byte		N01   , Fs1 , v052
	.byte	W06
	.byte		N01
	.byte	W06
	.byte		N11   , As1 , v040
	.byte		N03   , Gs4 , v072
	.byte	W06
	.byte		        Gs4 , v100
	.byte	W06
	.byte		N01   , Fs1 , v052
	.byte		N03   , Gs4 , v127
	.byte	W06
	.byte		N01   , Fs1 , v052
	.byte	W06
	.byte		N11   , As1 , v040
	.byte		N03   , Dn4 , v127
	.byte	W03
	.byte	W09
	.byte		N01   , Fs1 , v052
	.byte		N03   , Dn4 , v127
	.byte	W06
	.byte		N01   , Fs1 , v052
	.byte	W06
	.byte		N11   , As1 , v040
	.byte	W06
	.byte		N03   , Dn4 , v100
	.byte	W06
	.byte		N01   , Fs1 , v052
	.byte		N03   , Gs4 , v127
	.byte	W06
	.byte		N01   , Fs1 , v052
	.byte	W06
	.byte		N11   , As1 , v040
	.byte		N03   , Dn4 , v127
	.byte	W12
	.byte		N01   , Fs1 , v052
	.byte	W06
	.byte		N11   , As1 , v040
	.byte	W06
	.byte		N03   , Gs4 , v072
	.byte	W06
	.byte		N01   , Fs1 , v052
	.byte		N03   , Gs4 , v100
	.byte	W06
	.byte		N23   , Bn1 , v052
	.byte		N03   , Gs4 , v127
	.byte	W06
	.byte		        Gs4 , v100
	.byte	W06
	.byte		        Gs4 , v127
	.byte	W03
	.byte	W03
	.byte		N03   , Gs4 , v127
	.byte	W06
	.byte		N32   , Cs2 , v052
	.byte		N03   , Dn4 , v127
	.byte	W18
	.byte		        Dn4 , v072
	.byte	W06
	.byte		        Dn4 , v127
	.byte	W12
	.byte		N11   , As1 , v040
	.byte		N03   , Dn4 , v127
	.byte	W12
	.byte		N01   , Fs1 , v052
	.byte	W06
	.byte		N01
	.byte	W06
	.byte		N11   , As1 , v040
	.byte		N03   , An2 , v080
	.byte	W06
	.byte		N03
	.byte	W06
	.byte		N01   , Fs1 , v052
	.byte	W06
	.byte		N01
	.byte	W06
	.byte		N11   , As1 , v040
	.byte		N03   , Dn4 , v127
	.byte	W03
	.byte	PEND
	.byte	W09
	.byte		N01   , Fs1 , v052
	.byte		N03   , Dn4 , v127
	.byte	W06
	.byte		N01   , Fs1 , v052
	.byte	W06
	.byte		N11   , As1 , v040
	.byte	W06
	.byte		N03   , Dn4 , v100
	.byte	W06
	.byte		N01   , Fs1 , v052
	.byte	W06
	.byte		N01
	.byte	W06
	.byte		N11   , As1 , v040
	.byte		N03   , Dn4 , v127
	.byte	W12
	.byte		N01   , Fs1 , v052
	.byte	W06
	.byte		N01
	.byte	W06
	.byte		N11   , As1 , v040
	.byte		N04   , Fs3 , v080
	.byte	W06
	.byte		        Fn3 
	.byte	W06
	.byte		N01   , Fs1 , v052
	.byte		N09   , En3 , v080
	.byte	W06
	.byte		N01   , Fs1 , v040
	.byte	W06
	.byte		        Fs1 , v052
	.byte		N03   , Dn4 , v127
	.byte	W03
	.byte	PEND
	.byte	W01
	.byte		N01   , Fs1 , v052
	.byte	W02
	.byte		N03   , Dn4 , v127
	.byte	W02
	.byte		N01   , Fs1 , v040
	.byte	W04
	.byte		N28   , Cs2 , v052
	.byte		N03   , Dn4 , v127
	.byte	W18
	.byte		        Dn4 , v100
	.byte	W12
	.byte		N01   , Fs1 , v052
	.byte	W06
	.byte		N11   , As1 , v040
	.byte		N03   , Dn4 , v127
	.byte	W12
	.byte		N01   , Fs1 , v052
	.byte	W06
	.byte		N01
	.byte	W06
	.byte		N11   , As1 , v040
	.byte		N03   , An2 , v080
	.byte	W06
	.byte		N03
	.byte	W06
	.byte		N01   , Fs1 , v052
	.byte	W06
	.byte		N01
	.byte	W06
	.byte		N11   , As1 , v040
	.byte		N03   , Dn4 , v127
	.byte	W03
	.byte	PEND
	.byte	W09
	.byte		N01   , Fs1 , v052
	.byte		N03   , Dn4 , v127
	.byte	W06
	.byte		N01   , Fs1 , v052
	.byte	W06
	.byte		N11   , As1 , v040
	.byte	W06
	.byte		N03   , Dn4 , v100
	.byte	W06
	.byte		N01   , Fs1 , v052
	.byte	W06
	.byte		N01
	.byte	W06
	.byte		N11   , As1 , v040
	.byte		N03   , Dn4 , v127
	.byte	W12
	.byte		N01   , Fs1 , v052
	.byte	W06
	.byte		N11   , As1 , v040
	.byte	W06
	.byte		N03   , Gs4 , v072
	.byte	W06
	.byte		N01   , Fs1 , v052
	.byte		N03   , Gs4 , v100
	.byte	W06
	.byte		N01   , Fs1 , v052
	.byte		N03   , Gs4 , v127
	.byte	W04
	.byte		N01   , Fs1 , v052
	.byte	W02
	.byte		N03   , Gs4 , v100
	.byte	W02
	.byte		N01   , Fs1 , v040
	.byte	W04
	.byte		N11   , As1 , v052
	.byte		N03   , Gs4 , v112
	.byte	W03
	.byte	PATT
	 .word	seq_000_2 + 0x450
	.byte	PATT
	 .word	seq_000_2 + 0x486
	.byte	PATT
	 .word	seq_000_2 + 0x4C8
	.byte	W09
	.byte		N01   , Fs1 , v052
	.byte		N03   , Dn4 , v127
	.byte	W06
	.byte		N01   , Fs1 , v052
	.byte	W06
	.byte		N11   , As1 , v040
	.byte	W06
	.byte		N03   , Dn4 , v100
	.byte	W06
	.byte		N01   , Fs1 , v052
	.byte	W06
	.byte		N01
	.byte	W06
	.byte		N11   , As1 , v040
	.byte		N03   , Dn4 , v127
	.byte	W12
	.byte		N01   , Fs1 , v052
	.byte	W06
	.byte		N11   , As1 , v040
	.byte	W06
	.byte		N03   , Gs4 , v072
	.byte	W06
	.byte		N28   , Bn1 , v052
	.byte		N03   , Gs4 , v100
	.byte	W06
	.byte		        Gs4 , v127
	.byte	W06
	.byte		        Gs4 , v100
	.byte	W06
	.byte		        Gs4 , v112
	.byte	W03
	.byte	W03
	.byte		        Gs4 , v127
	.byte	W06
	.byte		N23   , Cs2 , v052
	.byte		N03   , Dn4 , v127
	.byte	W18
	.byte		        Gs4 , v100
	.byte	W06
	.byte		N23   , Cs2 , v052
	.byte		N03   , Gs4 , v127
	.byte	W12
	.byte		        Dn4 
	.byte	W12
	.byte		N23   , Cs2 , v052
	.byte		N03   , Dn4 , v127
	.byte	W06
	.byte		        Gs4 
	.byte	W06
	.byte		        Gs4 , v072
	.byte	W06
	.byte		        Gs4 , v100
	.byte	W06
	.byte		N23   , Cs2 , v060
	.byte		N03   , Gs4 , v127
	.byte	W06
	.byte		        Gs4 , v100
	.byte	W06
	.byte		        Gs4 , v112
	.byte	W03
	.byte	W03
	.byte		        Gs4 , v127
	.byte	W06
	.byte		N92   , Cs2 , v060
	.byte		N03   , Dn4 , v127
	.byte		N03   , Gs4 
	.byte	W24
	.byte		        Dn4 
	.byte	W24
	.byte		N03
	.byte	W24
	.byte		N03
	.byte	W15
	.byte	W09
	.byte		N03
	.byte	W12
	.byte		N32   , Bn1 , v060
	.byte		N03   , Gs4 , v127
	.byte	W06
	.byte		N03
	.byte	W06
	.byte		        Dn4 
	.byte		N03   , Gs4 
	.byte	W06
	.byte		        Gs4 , v100
	.byte	W06
	.byte		N03
	.byte	W06
	.byte		        Gs4 , v127
	.byte	W06
	.byte	GOTO
	 .word	seq_000_2 + 0x97
	.byte	FINE

@*********************** Track 04 ***********************@

seq_000_3:
	.byte	KEYSH , seq_000_key+0
	.byte		VOL   , 120*seq_000_mvl/mxv
	.byte	W01
	.byte	W01
	.byte		VOICE , 5
	.byte		XCMD  , xIECV , 40
	.byte	W01
	.byte	W01
	.byte		        xIECL , 3
	.byte	W01
	.byte		BENDR , 12
	.byte	W01
	.byte		LFOS  , 28
	.byte	W01
	.byte		LFODL , 14
	.byte	W01
	.byte		MOD   , 3
	.byte	W01
	.byte		N09   , Ds2 , v100
	.byte	W18
	.byte		        Dn2 
	.byte	W18
	.byte		N05   , Cs2 
	.byte	W11
	.byte		VOICE , 3
	.byte	W01
	.byte		BEND  , c_v-24
	.byte		N23   , Fn2 , v127
	.byte	W01
	.byte		BEND  , c_v-16
	.byte	W01
	.byte		        c_v-8
	.byte	W01
	.byte		        c_v+0
	.byte	W12
	.byte		        c_v-4
	.byte	W01
	.byte		        c_v-8
	.byte	W02
	.byte		        c_v-16
	.byte	W02
	.byte		        c_v-24
	.byte	W02
	.byte		        c_v-32
	.byte	W02
	.byte		VOICE , 5
	.byte		PAN   , c_v+0
	.byte		VOL   , 103*seq_000_mvl/mxv
	.byte		BEND  , c_v-11
	.byte		N12   , Fs2 
	.byte	W05
	.byte		BEND  , c_v-8
	.byte	W01
	.byte		        c_v-4
	.byte	W01
	.byte		        c_v+0
	.byte	W05
	.byte		N06   , Fs3 
	.byte	W03
	.byte	W03
	.byte		N06   , Fs3 , v060
	.byte	W06
	.byte		        En3 , v127
	.byte	W06
	.byte		        Fs3 
	.byte	W06
	.byte		        Fs3 , v080
	.byte	W06
	.byte		        En2 , v127
	.byte	W06
	.byte		        Bn1 , v100
	.byte	W06
	.byte		N03   , Bn2 
	.byte	W06
	.byte		BEND  , c_v-11
	.byte		N12   , Cs3 , v127
	.byte	W05
	.byte		BEND  , c_v-8
	.byte	W01
	.byte		        c_v-4
	.byte	W01
	.byte		        c_v+0
	.byte	W05
	.byte		N06   , Cs3 , v060
	.byte	W06
	.byte		BEND  , c_v-6
	.byte		N06   , En3 , v127
	.byte	W01
	.byte		BEND  , c_v-3
	.byte	W02
	.byte		        c_v+0
	.byte	W03
	.byte		N06   , An2 
	.byte	W06
	.byte		        Fs2 
	.byte	W06
	.byte		BEND  , c_v-11
	.byte		N12
	.byte	W05
	.byte		BEND  , c_v-8
	.byte	W01
	.byte		        c_v-4
	.byte	W01
	.byte		        c_v+0
	.byte	W05
	.byte		N06   , Fs3 
	.byte	W03
	.byte	PEND
	.byte	W03
	.byte		        Fs3 , v060
	.byte	W06
	.byte		        En3 , v127
	.byte	W06
	.byte		        Fs3 
	.byte	W06
	.byte		        Fs3 , v080
	.byte	W06
	.byte		        En2 , v127
	.byte	W06
	.byte		        Bn1 , v100
	.byte	W06
	.byte		N03   , Bn2 
	.byte	W06
	.byte		BEND  , c_v-11
	.byte		N12   , Cs3 , v127
	.byte	W05
	.byte		BEND  , c_v-8
	.byte	W01
	.byte		        c_v-4
	.byte	W01
	.byte		        c_v+0
	.byte	W05
	.byte		N06   , Ds2 
	.byte	W06
	.byte		        Ds3 
	.byte	W06
	.byte		        En2 
	.byte	W06
	.byte		        En3 
	.byte	W06
	.byte		VOICE , 5
	.byte		PAN   , c_v+0
	.byte		BEND  , c_v-11
	.byte		N12   , Fs2 , v127
	.byte	W05
	.byte		BEND  , c_v-8
	.byte	W01
	.byte		        c_v-4
	.byte	W01
	.byte		        c_v+0
	.byte	W05
	.byte		N06   , Fs3 
	.byte	W03
	.byte	PATT
	 .word	seq_000_3 + 0x54
	.byte	W03
	.byte		N06   , Fs3 , v060
	.byte	W06
	.byte		        En3 , v127
	.byte	W06
	.byte		        Fs3 
	.byte	W06
	.byte		        Fs3 , v080
	.byte	W06
	.byte		        En2 , v127
	.byte	W06
	.byte		        Bn1 , v100
	.byte	W06
	.byte		N03   , Bn2 
	.byte	W06
	.byte		BEND  , c_v-11
	.byte		N12   , Cs3 , v127
	.byte	W05
	.byte		BEND  , c_v-8
	.byte	W01
	.byte		        c_v-4
	.byte	W01
	.byte		        c_v+0
	.byte	W05
	.byte		N06   , Ds2 
	.byte	W06
	.byte		        Ds3 
	.byte	W06
	.byte		        En2 
	.byte	W06
	.byte		        En3 
	.byte	W06
	.byte		BEND  , c_v-11
	.byte		N12   , Fs2 
	.byte	W05
	.byte		BEND  , c_v-8
	.byte	W01
	.byte		        c_v-4
	.byte	W01
	.byte		        c_v+0
	.byte	W05
	.byte		N06   , Fs3 
	.byte	W03
	.byte	PEND
	.byte	PATT
	 .word	seq_000_3 + 0x54
	.byte	W03
	.byte		N06   , Fs3 , v080
	.byte	W06
	.byte		        En3 , v127
	.byte	W06
	.byte		        Fs3 
	.byte	W06
	.byte		        Fs3 , v060
	.byte	W06
	.byte		        En2 , v127
	.byte	W06
	.byte		        Bn1 , v100
	.byte	W06
	.byte		N03   , Bn2 
	.byte	W06
	.byte		BEND  , c_v-11
	.byte		N12   , Cs3 , v127
	.byte	W05
	.byte		BEND  , c_v-8
	.byte	W01
	.byte		        c_v-4
	.byte	W01
	.byte		        c_v+0
	.byte	W05
	.byte		N06   , Ds2 
	.byte	W06
	.byte		        Ds3 
	.byte	W06
	.byte		        En2 
	.byte	W06
	.byte		        En3 
	.byte	W06
	.byte		BEND  , c_v-11
	.byte		N12   , Fs2 
	.byte	W05
	.byte		BEND  , c_v-8
	.byte	W01
	.byte		        c_v-4
	.byte	W01
	.byte		        c_v+0
	.byte	W05
	.byte		N06   , Fs3 
	.byte	W03
	.byte	PATT
	 .word	seq_000_3 + 0x54
	.byte	PATT
	 .word	seq_000_3 + 0xDE
	.byte	PATT
	 .word	seq_000_3 + 0x54
	.byte	W03
	.byte		N06   , Fs3 , v060
	.byte	W06
	.byte		        En3 , v127
	.byte	W06
	.byte		        Fs3 
	.byte	W06
	.byte		        Fs3 , v080
	.byte	W06
	.byte		        En2 , v127
	.byte	W06
	.byte		        Bn1 , v100
	.byte	W06
	.byte		N03   , Bn2 
	.byte	W06
	.byte		BEND  , c_v-11
	.byte		N12   , Cs3 , v127
	.byte	W05
	.byte		BEND  , c_v-8
	.byte	W01
	.byte		        c_v-4
	.byte	W01
	.byte		        c_v+0
	.byte	W05
	.byte		N06   , Ds2 
	.byte	W06
	.byte		        Ds3 
	.byte	W06
	.byte		        En2 
	.byte	W06
	.byte		        En3 
	.byte	W06
	.byte		VOICE , 3
	.byte		BEND  , c_v-11
	.byte		N12   , Fs2 
	.byte	W05
	.byte		BEND  , c_v-8
	.byte	W01
	.byte		        c_v-4
	.byte	W01
	.byte		        c_v+0
	.byte	W05
	.byte		N06   , Fs3 
	.byte	W03
	.byte	W03
	.byte		        Fs3 , v060
	.byte	W06
	.byte		        En3 , v127
	.byte	W06
	.byte		        Fs3 
	.byte	W06
	.byte		        Fs3 , v080
	.byte	W06
	.byte		        Ds2 , v127
	.byte	W06
	.byte		        As1 , v100
	.byte	W06
	.byte		N03   , As2 
	.byte	W06
	.byte		BEND  , c_v-11
	.byte		N12   , Cn3 , v127
	.byte	W05
	.byte		BEND  , c_v-8
	.byte	W01
	.byte		        c_v-4
	.byte	W01
	.byte		        c_v+0
	.byte	W05
	.byte		N06   , Cn3 , v060
	.byte	W06
	.byte		BEND  , c_v-6
	.byte		N06   , Ds3 , v127
	.byte	W01
	.byte		BEND  , c_v-3
	.byte	W02
	.byte		        c_v+0
	.byte	W03
	.byte		N06   , Gs2 
	.byte	W06
	.byte		        Fn2 
	.byte	W06
	.byte		BEND  , c_v-11
	.byte		N12
	.byte	W05
	.byte		BEND  , c_v-8
	.byte	W01
	.byte		        c_v-4
	.byte	W01
	.byte		        c_v+0
	.byte	W05
	.byte		N06   , Fn3 
	.byte	W03
	.byte	W03
	.byte		        Fn3 , v060
	.byte	W06
	.byte		        Ds3 , v127
	.byte	W06
	.byte		        Fn3 
	.byte	W06
	.byte		        Fn3 , v080
	.byte	W06
	.byte		        Ds2 , v127
	.byte	W06
	.byte		        As1 , v100
	.byte	W06
	.byte		N03   , As2 
	.byte	W06
	.byte		BEND  , c_v-11
	.byte		N12   , Cn3 , v127
	.byte	W05
	.byte		BEND  , c_v-8
	.byte	W01
	.byte		        c_v-4
	.byte	W01
	.byte		        c_v+0
	.byte	W05
	.byte		N06   , Dn2 
	.byte	W06
	.byte		        Dn3 
	.byte	W06
	.byte		        Ds2 
	.byte	W06
	.byte		        Ds3 
	.byte	W06
	.byte		BEND  , c_v-11
	.byte		N12   , En2 
	.byte	W05
	.byte		BEND  , c_v-8
	.byte	W01
	.byte		        c_v-4
	.byte	W01
	.byte		        c_v+0
	.byte	W05
	.byte		N06   , En3 
	.byte	W03
	.byte	W03
	.byte		        En3 , v060
	.byte	W06
	.byte		        Dn3 , v127
	.byte	W06
	.byte		        En3 
	.byte	W06
	.byte		        En3 , v080
	.byte	W06
	.byte		        Cs2 , v127
	.byte	W06
	.byte		        Gs1 , v100
	.byte	W06
	.byte		N03   , Gs2 
	.byte	W06
	.byte		BEND  , c_v-11
	.byte		N12   , As2 , v127
	.byte	W05
	.byte		BEND  , c_v-8
	.byte	W01
	.byte		        c_v-4
	.byte	W01
	.byte		        c_v+0
	.byte	W05
	.byte		N06   , As2 , v060
	.byte	W06
	.byte		BEND  , c_v-6
	.byte		N06   , Cs3 , v127
	.byte	W01
	.byte		BEND  , c_v-3
	.byte	W02
	.byte		        c_v+0
	.byte	W03
	.byte		N06   , Fs2 
	.byte	W06
	.byte		        Ds2 
	.byte	W06
	.byte		BEND  , c_v-11
	.byte		N12
	.byte	W05
	.byte		BEND  , c_v-8
	.byte	W01
	.byte		        c_v-4
	.byte	W01
	.byte		        c_v+0
	.byte	W05
	.byte		N06   , Ds3 
	.byte	W03
	.byte	W03
	.byte		        Ds3 , v060
	.byte	W06
	.byte		        Cs3 , v127
	.byte	W06
	.byte		        Ds3 
	.byte	W06
	.byte		        Ds3 , v080
	.byte	W06
	.byte		        Cs2 , v127
	.byte	W06
	.byte		        Gs1 , v100
	.byte	W06
	.byte		N03   , Gs2 
	.byte	W06
	.byte		BEND  , c_v-11
	.byte		N12   , As2 , v127
	.byte	W05
	.byte		BEND  , c_v-8
	.byte	W01
	.byte		        c_v-4
	.byte	W01
	.byte		        c_v+0
	.byte	W05
	.byte		N06   , Cn2 
	.byte	W06
	.byte		        Cn3 
	.byte	W06
	.byte		        Cs2 
	.byte	W06
	.byte		        Cs3 
	.byte	W21
	.byte	W09
	.byte		VOICE , 5
	.byte		BEND  , c_v-11
	.byte		N12   , Gn2 
	.byte	W05
	.byte		BEND  , c_v-8
	.byte	W01
	.byte		        c_v-4
	.byte	W01
	.byte		        c_v+0
	.byte	W05
	.byte		N06   , Gn3 
	.byte	W06
	.byte		        Gn3 , v060
	.byte	W06
	.byte		        Fn3 , v127
	.byte	W06
	.byte		        Gn3 
	.byte	W06
	.byte		        Gn3 , v080
	.byte	W06
	.byte		        Fn2 , v127
	.byte	W06
	.byte		        Cn2 , v100
	.byte	W06
	.byte		N03   , Cn3 
	.byte	W06
	.byte		BEND  , c_v-11
	.byte		N12   , Dn3 , v127
	.byte	W05
	.byte		BEND  , c_v-8
	.byte	W01
	.byte		        c_v-4
	.byte	W01
	.byte		        c_v+0
	.byte	W05
	.byte		N06   , Dn3 , v060
	.byte	W06
	.byte		BEND  , c_v-6
	.byte		N06   , Fn3 , v127
	.byte	W01
	.byte		BEND  , c_v-3
	.byte	W02
	.byte		        c_v+0
	.byte	W03
	.byte		N06   , As2 
	.byte	W03
	.byte	W03
	.byte		N06   , Gn2 , v127
	.byte	W06
	.byte		BEND  , c_v-11
	.byte		N12
	.byte	W05
	.byte		BEND  , c_v-8
	.byte	W01
	.byte		        c_v-4
	.byte	W01
	.byte		        c_v+0
	.byte	W05
	.byte		N06   , Gn3 
	.byte	W06
	.byte		        Gn3 , v060
	.byte	W06
	.byte		        Fn3 , v127
	.byte	W06
	.byte		        Gn3 
	.byte	W06
	.byte		        Gn3 , v080
	.byte	W06
	.byte		        Fn2 , v127
	.byte	W06
	.byte		        Cn2 , v100
	.byte	W06
	.byte		N03   , Cn3 
	.byte	W06
	.byte		BEND  , c_v-11
	.byte		N12   , Dn3 , v127
	.byte	W05
	.byte		BEND  , c_v-8
	.byte	W01
	.byte		        c_v-4
	.byte	W01
	.byte		        c_v+0
	.byte	W05
	.byte		N06   , En2 
	.byte	W06
	.byte		        En3 
	.byte	W06
	.byte		        Fn2 
	.byte	W03
	.byte	PEND
	.byte	W03
	.byte		        Fn3 
	.byte	W06
	.byte		BEND  , c_v-11
	.byte		N12   , Gn2 
	.byte	W05
	.byte		BEND  , c_v-8
	.byte	W01
	.byte		        c_v-4
	.byte	W01
	.byte		        c_v+0
	.byte	W05
	.byte		N06   , Gn3 
	.byte	W06
	.byte		        Gn3 , v060
	.byte	W06
	.byte		        Fn3 , v127
	.byte	W06
	.byte		        Gn3 
	.byte	W06
	.byte		        Gn3 , v080
	.byte	W06
	.byte		        Fn2 , v127
	.byte	W06
	.byte		        Cn2 , v100
	.byte	W06
	.byte		N03   , Cn3 
	.byte	W06
	.byte		BEND  , c_v-11
	.byte		N12   , Dn3 , v127
	.byte	W05
	.byte		BEND  , c_v-8
	.byte	W01
	.byte		        c_v-4
	.byte	W01
	.byte		        c_v+0
	.byte	W05
	.byte		N06   , Dn3 , v060
	.byte	W06
	.byte		BEND  , c_v-6
	.byte		N06   , Fn3 , v127
	.byte	W01
	.byte		BEND  , c_v-3
	.byte	W02
	.byte		        c_v+0
	.byte	W03
	.byte		N06   , As2 
	.byte	W03
	.byte	PATT
	 .word	seq_000_3 + 0x2D8
	.byte	W03
	.byte		N06   , Fn3 , v127
	.byte	W06
	.byte		BEND  , c_v-11
	.byte		N12   , Dn2 
	.byte	W05
	.byte		BEND  , c_v-8
	.byte	W01
	.byte		        c_v-4
	.byte	W01
	.byte		        c_v+0
	.byte	W05
	.byte		N06   , Dn3 
	.byte	W06
	.byte		        Dn3 , v060
	.byte	W06
	.byte		        Cn3 , v127
	.byte	W06
	.byte		        Dn3 
	.byte	W06
	.byte		        Dn3 , v080
	.byte	W06
	.byte		        Cn2 , v127
	.byte	W06
	.byte		        Gn1 , v100
	.byte	W06
	.byte		N03   , Gn2 
	.byte	W06
	.byte		BEND  , c_v-11
	.byte		N12   , An2 , v127
	.byte	W05
	.byte		BEND  , c_v-8
	.byte	W01
	.byte		        c_v-4
	.byte	W01
	.byte		        c_v+0
	.byte	W05
	.byte		N06   , An2 , v060
	.byte	W06
	.byte		BEND  , c_v-6
	.byte		N06   , Cn3 , v127
	.byte	W01
	.byte		BEND  , c_v-3
	.byte	W02
	.byte		        c_v+0
	.byte	W03
	.byte		N06   , Fn2 
	.byte	W03
	.byte	W03
	.byte		N06   , Dn2 , v127
	.byte	W06
	.byte		BEND  , c_v-11
	.byte		N12
	.byte	W05
	.byte		BEND  , c_v-8
	.byte	W01
	.byte		        c_v-4
	.byte	W01
	.byte		        c_v+0
	.byte	W05
	.byte		N06   , Dn3 
	.byte	W06
	.byte		        Dn3 , v060
	.byte	W06
	.byte		        Cn3 , v127
	.byte	W06
	.byte		        Dn3 
	.byte	W06
	.byte		        Dn3 , v080
	.byte	W06
	.byte		        Cn2 , v127
	.byte	W06
	.byte		        Gn1 , v100
	.byte	W06
	.byte		N03   , Gn2 
	.byte	W06
	.byte		BEND  , c_v-11
	.byte		N12   , An2 , v127
	.byte	W05
	.byte		BEND  , c_v-8
	.byte	W01
	.byte		        c_v-4
	.byte	W01
	.byte		        c_v+0
	.byte	W05
	.byte		N06   , Bn1 
	.byte	W06
	.byte		        Bn2 
	.byte	W06
	.byte		        Cn2 
	.byte	W03
	.byte	PEND
	.byte	W03
	.byte		N06   , Cn3 , v127
	.byte	W06
	.byte		BEND  , c_v-11
	.byte		N12   , Ds2 
	.byte	W05
	.byte		BEND  , c_v-8
	.byte	W01
	.byte		        c_v-4
	.byte	W01
	.byte		        c_v+0
	.byte	W05
	.byte		N06   , Ds3 
	.byte	W06
	.byte		        Ds3 , v060
	.byte	W06
	.byte		        Cs3 , v127
	.byte	W06
	.byte		        Ds3 
	.byte	W06
	.byte		        Ds3 , v080
	.byte	W06
	.byte		        Cs2 , v127
	.byte	W06
	.byte		        Gs1 , v100
	.byte	W06
	.byte		N03   , Gs2 
	.byte	W06
	.byte		BEND  , c_v-11
	.byte		N12   , As2 , v127
	.byte	W05
	.byte		BEND  , c_v-8
	.byte	W01
	.byte		        c_v-4
	.byte	W01
	.byte		        c_v+0
	.byte	W05
	.byte		N06   , As2 , v060
	.byte	W06
	.byte		BEND  , c_v-6
	.byte		N06   , Cs3 , v127
	.byte	W01
	.byte		BEND  , c_v-3
	.byte	W02
	.byte		        c_v+0
	.byte	W03
	.byte		N06   , Fs2 
	.byte	W03
	.byte	PEND
	.byte	W03
	.byte		N06   , Ds2 , v127
	.byte	W06
	.byte		BEND  , c_v-11
	.byte		N12
	.byte	W05
	.byte		BEND  , c_v-8
	.byte	W01
	.byte		        c_v-4
	.byte	W01
	.byte		        c_v+0
	.byte	W05
	.byte		N06   , Ds3 
	.byte	W06
	.byte		        Ds3 , v060
	.byte	W06
	.byte		        Cs3 , v127
	.byte	W06
	.byte		        Ds3 
	.byte	W06
	.byte		        Ds3 , v080
	.byte	W06
	.byte		        Cs2 , v127
	.byte	W06
	.byte		        Gs1 , v100
	.byte	W06
	.byte		N03   , Gs2 
	.byte	W06
	.byte		BEND  , c_v-11
	.byte		N12   , As2 , v127
	.byte	W05
	.byte		BEND  , c_v-8
	.byte	W01
	.byte		        c_v-4
	.byte	W01
	.byte		        c_v+0
	.byte	W05
	.byte		N06   , Cn2 
	.byte	W06
	.byte		        Cn3 
	.byte	W06
	.byte		        Cs2 
	.byte	W03
	.byte	PEND
	.byte	W03
	.byte		        Cs3 
	.byte	W06
	.byte		BEND  , c_v-11
	.byte		N12   , Dn2 
	.byte	W05
	.byte		BEND  , c_v-8
	.byte	W01
	.byte		        c_v-4
	.byte	W01
	.byte		        c_v+0
	.byte	W05
	.byte		N06   , Dn3 
	.byte	W06
	.byte		        Dn3 , v060
	.byte	W06
	.byte		        Cn3 , v127
	.byte	W06
	.byte		        Dn3 
	.byte	W06
	.byte		        Dn3 , v080
	.byte	W06
	.byte		        Cn2 , v127
	.byte	W06
	.byte		        Gn1 , v100
	.byte	W06
	.byte		N03   , Gn2 
	.byte	W06
	.byte		BEND  , c_v-11
	.byte		N12   , An2 , v127
	.byte	W05
	.byte		BEND  , c_v-8
	.byte	W01
	.byte		        c_v-4
	.byte	W01
	.byte		        c_v+0
	.byte	W05
	.byte		N06   , An2 , v060
	.byte	W06
	.byte		BEND  , c_v-6
	.byte		N06   , Cn3 , v127
	.byte	W01
	.byte		BEND  , c_v-3
	.byte	W02
	.byte		        c_v+0
	.byte	W03
	.byte		N06   , Fn2 
	.byte	W03
	.byte	PATT
	 .word	seq_000_3 + 0x3A5
	.byte	PATT
	 .word	seq_000_3 + 0x3E1
	.byte	PATT
	 .word	seq_000_3 + 0x429
	.byte	W03
	.byte		N06   , Cs3 , v127
	.byte	W06
	.byte		VOICE , 3
	.byte		N06   , Dn2 
	.byte	W06
	.byte		N06
	.byte	W06
	.byte		        Dn2 , v072
	.byte	W06
	.byte		        Gn2 , v127
	.byte	W06
	.byte		        Fn2 
	.byte	W06
	.byte		        Gn2 
	.byte	W06
	.byte		        En2 
	.byte	W06
	.byte		        En2 , v060
	.byte	W06
	.byte		        An2 , v127
	.byte	W06
	.byte		N06
	.byte	W06
	.byte		        An2 , v080
	.byte	W06
	.byte		        Fs2 , v127
	.byte	W06
	.byte		        En2 , v060
	.byte	W06
	.byte		        Fs2 , v127
	.byte	W06
	.byte		        Bn2 
	.byte	W03
	.byte	W03
	.byte		        Bn2 , v080
	.byte	W06
	.byte		TIE   , Cs2 , v127
	.byte	W84
	.byte	W03
	.byte	W48
	.byte	W03
	.byte		BEND  , c_v-3
	.byte	W01
	.byte		        c_v-6
	.byte	W02
	.byte		        c_v-8
	.byte	W01
	.byte		        c_v-11
	.byte	W01
	.byte		EOT
	.byte	W01
	.byte	GOTO
	 .word	seq_000_3 + 0xC5
	.byte	FINE

@*********************** Track 05 ***********************@

seq_000_4:
	.byte	KEYSH , seq_000_key+0
	.byte		VOICE , 1
	.byte	W06
	.byte		VOL   , 75*seq_000_mvl/mxv
	.byte	W06
	.byte	W06
	.byte		XCMD  , xIECV , 40
	.byte	W06
	.byte	W12
	.byte		        xIECL , 3
	.byte	W12
	.byte		BENDR , 12
	.byte	W12
	.byte		LFOS  , 28
	.byte	W07
	.byte		LFODL , 14
	.byte	W06
	.byte		MOD   , 3
	.byte	W05
	.byte		MODT  , mod_vib
	.byte	W18
	.byte	W96
	.byte	W80
	.byte	W01
	.byte		PAN   , c_v-64
	.byte		N03   , Gs4 , v100
	.byte	W03
	.byte		        Gs4 , v040
	.byte	W03
	.byte		        Ds4 , v100
	.byte	W03
	.byte		        Ds4 , v040
	.byte	W03
	.byte		        En4 , v100
	.byte	W03
	.byte		N03   , En4 , v040
	.byte	W03
	.byte		        Fs4 , v100
	.byte	W03
	.byte		        Fs4 , v040
	.byte	W03
	.byte		        En4 , v100
	.byte	W03
	.byte		        En4 , v040
	.byte	W03
	.byte		        Ds4 , v100
	.byte	W03
	.byte		        Ds4 , v040
	.byte	W03
	.byte		        Cs4 , v100
	.byte	W03
	.byte		        Cs4 , v040
	.byte	W03
	.byte		        Gs3 , v100
	.byte	W03
	.byte		        Gs3 , v040
	.byte	W03
	.byte		PAN   , c_v+63
	.byte		N03   , Fs3 , v100
	.byte	W03
	.byte		        Fs3 , v040
	.byte	W03
	.byte		        Gs3 , v100
	.byte	W03
	.byte		        Gs3 , v040
	.byte	W03
	.byte		        An3 , v100
	.byte	W03
	.byte		        An3 , v040
	.byte	W03
	.byte		        Cs4 , v100
	.byte	W03
	.byte		        Cs4 , v040
	.byte	W03
	.byte		        Ds4 , v100
	.byte	W03
	.byte		        Ds4 , v040
	.byte	W03
	.byte		        Cs4 , v100
	.byte	W03
	.byte		        Cs4 , v040
	.byte	W03
	.byte		        Gs4 , v100
	.byte	W03
	.byte		        Gs4 , v040
	.byte	W03
	.byte		        Cs4 , v100
	.byte	W03
	.byte		        Cs4 , v040
	.byte	W03
	.byte		PAN   , c_v-64
	.byte		N03   , An3 , v100
	.byte	W03
	.byte		        An3 , v040
	.byte	W03
	.byte		        Bn3 , v100
	.byte	W03
	.byte		        Bn3 , v040
	.byte	W03
	.byte		        Cs4 , v100
	.byte	W03
	.byte	PEND
	.byte		N03   , Cs4 , v040
	.byte	W03
	.byte		        Gs4 , v100
	.byte	W03
	.byte		        Gs4 , v040
	.byte	W03
	.byte		        Fs4 , v100
	.byte	W03
	.byte		        Fs4 , v040
	.byte	W03
	.byte		        Ds4 , v100
	.byte	W03
	.byte		        Ds4 , v040
	.byte	W03
	.byte		        En4 , v100
	.byte	W03
	.byte		        En4 , v040
	.byte	W03
	.byte		        Fs4 , v100
	.byte	W03
	.byte		        Fs4 , v040
	.byte	W03
	.byte		PAN   , c_v+63
	.byte		N03   , Gs4 , v100
	.byte	W03
	.byte		        Gs4 , v040
	.byte	W03
	.byte		        Ds4 , v100
	.byte	W03
	.byte		        Ds4 , v040
	.byte	W03
	.byte		        Gs4 , v100
	.byte	W03
	.byte		        Gs4 , v040
	.byte	W03
	.byte		        Fs4 , v100
	.byte	W03
	.byte		        Fs4 , v040
	.byte	W03
	.byte		        En4 , v100
	.byte	W03
	.byte		        En4 , v040
	.byte	W03
	.byte		        Ds4 , v100
	.byte	W03
	.byte		        Ds4 , v040
	.byte	W03
	.byte		        Cs4 , v100
	.byte	W03
	.byte		        Cs4 , v040
	.byte	W03
	.byte		        Gs3 , v100
	.byte	W03
	.byte		        Gs3 , v040
	.byte	W03
	.byte		PAN   , c_v-64
	.byte		N03   , Gs4 , v100
	.byte	W03
	.byte		        Gs4 , v040
	.byte	W03
	.byte		        Ds4 , v100
	.byte	W03
	.byte		        Ds4 , v040
	.byte	W03
	.byte		        En4 , v100
	.byte	W03
	.byte	PEND
	.byte		N03   , En4 , v040
	.byte	W03
	.byte		        Fs4 , v100
	.byte	W03
	.byte		        Fs4 , v040
	.byte	W03
	.byte		        En4 , v100
	.byte	W03
	.byte		        En4 , v040
	.byte	W03
	.byte		        Ds4 , v100
	.byte	W03
	.byte		        Ds4 , v040
	.byte	W03
	.byte		        Cs4 , v100
	.byte	W03
	.byte		        Cs4 , v040
	.byte	W03
	.byte		        Gs3 , v100
	.byte	W03
	.byte		        Gs3 , v040
	.byte	W03
	.byte		PAN   , c_v+63
	.byte		N03   , Fs3 , v100
	.byte	W03
	.byte		        Fs3 , v040
	.byte	W03
	.byte		        Gs3 , v100
	.byte	W03
	.byte		        Gs3 , v040
	.byte	W03
	.byte		        An3 , v100
	.byte	W03
	.byte		        An3 , v040
	.byte	W03
	.byte		        Cs4 , v100
	.byte	W03
	.byte		        Cs4 , v040
	.byte	W03
	.byte		        Ds4 , v100
	.byte	W03
	.byte		        Ds4 , v040
	.byte	W03
	.byte		        Cs4 , v100
	.byte	W03
	.byte		        Cs4 , v040
	.byte	W03
	.byte		        Gs4 , v100
	.byte	W03
	.byte		        Gs4 , v040
	.byte	W03
	.byte		        Cs4 , v100
	.byte	W03
	.byte		        Cs4 , v040
	.byte	W03
	.byte		PAN   , c_v-64
	.byte		N03   , Cs4 , v100
	.byte	W03
	.byte		        Cs4 , v040
	.byte	W03
	.byte		        Ds4 , v100
	.byte	W03
	.byte		        Ds4 , v040
	.byte	W03
	.byte		        En4 , v100
	.byte	W03
	.byte	PEND
	.byte		        En4 , v040
	.byte	W03
	.byte		        Fs4 , v100
	.byte	W03
	.byte		        Fs4 , v040
	.byte	W03
	.byte		        En4 , v100
	.byte	W03
	.byte		        En4 , v040
	.byte	W03
	.byte		        Bn3 , v100
	.byte	W03
	.byte		        Bn3 , v040
	.byte	W03
	.byte		        Cs4 , v100
	.byte	W03
	.byte		        Cs4 , v040
	.byte	W03
	.byte		        Ds4 , v100
	.byte	W03
	.byte		        Ds4 , v040
	.byte	W03
	.byte		PAN   , c_v+63
	.byte		N03   , Bn3 , v100
	.byte	W03
	.byte		        Bn3 , v040
	.byte	W03
	.byte		        An3 , v100
	.byte	W03
	.byte		        An3 , v040
	.byte	W03
	.byte		        Gs3 , v100
	.byte	W03
	.byte		        Gs3 , v040
	.byte	W03
	.byte		        Bn3 , v100
	.byte	W03
	.byte		        Bn3 , v040
	.byte	W03
	.byte		        Ds4 , v100
	.byte	W03
	.byte		        Ds4 , v040
	.byte	W03
	.byte		        Fs4 , v100
	.byte	W03
	.byte		        Fs4 , v040
	.byte	W03
	.byte		        Bn3 , v100
	.byte	W03
	.byte		        Bn3 , v040
	.byte	W03
	.byte		        Cs4 , v100
	.byte	W03
	.byte		        Cs4 , v040
	.byte	W03
	.byte		PAN   , c_v-64
	.byte		N03   , Gs4 , v100
	.byte	W03
	.byte		        Gs4 , v040
	.byte	W03
	.byte		        Ds4 , v100
	.byte	W03
	.byte		        Ds4 , v040
	.byte	W03
	.byte		        En4 , v100
	.byte	W03
	.byte	PATT
	 .word	seq_000_4 + 0x35
	.byte	PATT
	 .word	seq_000_4 + 0x9D
	.byte	PATT
	 .word	seq_000_4 + 0x105
	.byte		N03   , En4 , v040
	.byte	W03
	.byte		        Fs4 , v100
	.byte	W03
	.byte		        Fs4 , v040
	.byte	W03
	.byte		        En4 , v100
	.byte	W03
	.byte		        En4 , v040
	.byte	W03
	.byte		        Bn3 , v100
	.byte	W03
	.byte		        Bn3 , v040
	.byte	W03
	.byte		        Cs4 , v100
	.byte	W03
	.byte		        Cs4 , v040
	.byte	W03
	.byte		        Ds4 , v100
	.byte	W03
	.byte		        Ds4 , v040
	.byte	W03
	.byte		PAN   , c_v+63
	.byte		N03   , Bn3 , v100
	.byte	W03
	.byte		        Bn3 , v040
	.byte	W03
	.byte		        An3 , v100
	.byte	W03
	.byte		        An3 , v040
	.byte	W03
	.byte		        Gs3 , v100
	.byte	W03
	.byte		        Gs3 , v040
	.byte	W03
	.byte		        Bn3 , v100
	.byte	W03
	.byte		        Bn3 , v040
	.byte	W03
	.byte		        Ds4 , v100
	.byte	W03
	.byte		        Ds4 , v040
	.byte	W03
	.byte		        Fs4 , v100
	.byte	W03
	.byte		        Fs4 , v040
	.byte	W03
	.byte		        Bn3 , v100
	.byte	W03
	.byte		        Bn3 , v040
	.byte	W03
	.byte		        Cs4 , v100
	.byte	W03
	.byte		        Cs4 , v040
	.byte	W03
	.byte		VOICE , 14
	.byte		PAN   , c_v-64
	.byte		N06   , Gs4 , v100
	.byte	W06
	.byte		        Ds4 
	.byte	W06
	.byte		        En4 
	.byte	W03
	.byte	W03
	.byte		        Fs4 
	.byte	W06
	.byte		        En4 
	.byte	W06
	.byte		        Ds4 
	.byte	W06
	.byte		        Cs4 
	.byte	W06
	.byte		        Gs3 
	.byte	W06
	.byte		PAN   , c_v+63
	.byte		N06   , Fs3 
	.byte	W06
	.byte		        Gs3 
	.byte	W06
	.byte		        An3 
	.byte	W06
	.byte		        Cs4 
	.byte	W06
	.byte		        Ds4 
	.byte	W06
	.byte		        Cs4 
	.byte	W06
	.byte		        Gs4 
	.byte	W06
	.byte		        Cs4 
	.byte	W06
	.byte		PAN   , c_v-64
	.byte		N06   , An3 
	.byte	W06
	.byte		        Bn3 
	.byte	W06
	.byte		        Cs4 
	.byte	W03
	.byte	W03
	.byte		        Gs4 
	.byte	W06
	.byte		        Fs4 
	.byte	W06
	.byte		        Ds4 
	.byte	W06
	.byte		        En4 
	.byte	W06
	.byte		        Fs4 
	.byte	W06
	.byte		PAN   , c_v+63
	.byte		N06   , Gs4 
	.byte	W06
	.byte		        Ds4 
	.byte	W06
	.byte		        Gs4 
	.byte	W06
	.byte		        Fs4 
	.byte	W06
	.byte		        En4 
	.byte	W06
	.byte		        Ds4 
	.byte	W06
	.byte		        Cs4 
	.byte	W06
	.byte		        Gs3 
	.byte	W06
	.byte		PAN   , c_v-64
	.byte		N06   , Gs4 
	.byte	W06
	.byte		        Ds4 
	.byte	W06
	.byte		        En4 
	.byte	W03
	.byte	W03
	.byte		        Fs4 
	.byte	W06
	.byte		        En4 
	.byte	W06
	.byte		        Ds4 
	.byte	W06
	.byte		        Cs4 
	.byte	W06
	.byte		        Gs3 
	.byte	W06
	.byte		PAN   , c_v+63
	.byte		N06   , Fs3 
	.byte	W06
	.byte		        Gs3 
	.byte	W06
	.byte		        An3 
	.byte	W06
	.byte		        Cs4 
	.byte	W06
	.byte		        Ds4 
	.byte	W06
	.byte		        Cs4 
	.byte	W06
	.byte		        Gs4 
	.byte	W06
	.byte		        Cs4 
	.byte	W06
	.byte		PAN   , c_v-64
	.byte		N06
	.byte	W06
	.byte		        Ds4 
	.byte	W06
	.byte		        En4 
	.byte	W03
	.byte	W03
	.byte		        Fs4 
	.byte	W06
	.byte		        En4 
	.byte	W06
	.byte		        Bn3 
	.byte	W06
	.byte		        Cs4 
	.byte	W06
	.byte		        Ds4 
	.byte	W06
	.byte		PAN   , c_v+63
	.byte		N06   , Bn3 
	.byte	W06
	.byte		        An3 
	.byte	W06
	.byte		        Gs3 
	.byte	W06
	.byte		        Bn3 
	.byte	W06
	.byte		        Ds4 
	.byte	W06
	.byte		        Fs4 
	.byte	W06
	.byte		        Bn3 
	.byte	W06
	.byte		N05   , Cs4 
	.byte	W21
	.byte	W09
	.byte		VOICE , 1
	.byte		PAN   , c_v-64
	.byte		N03   , An4 
	.byte	W03
	.byte		        An4 , v040
	.byte	W03
	.byte		        En4 , v100
	.byte	W03
	.byte		        En4 , v040
	.byte	W03
	.byte		        Fn4 , v100
	.byte	W03
	.byte		        Fn4 , v040
	.byte	W03
	.byte		        Gn4 , v100
	.byte	W03
	.byte		        Gn4 , v040
	.byte	W03
	.byte		        Fn4 , v100
	.byte	W03
	.byte		        Fn4 , v040
	.byte	W03
	.byte		        En4 , v100
	.byte	W03
	.byte		        En4 , v040
	.byte	W03
	.byte		        Dn4 , v100
	.byte	W03
	.byte		        Dn4 , v040
	.byte	W03
	.byte		        An3 , v100
	.byte	W03
	.byte		        An3 , v040
	.byte	W03
	.byte		PAN   , c_v+63
	.byte		N03   , Gn3 , v100
	.byte	W03
	.byte		        Gn3 , v040
	.byte	W03
	.byte		        An3 , v100
	.byte	W03
	.byte		        An3 , v040
	.byte	W03
	.byte		        As3 , v100
	.byte	W03
	.byte		        As3 , v040
	.byte	W03
	.byte		        Dn4 , v100
	.byte	W03
	.byte		        Dn4 , v040
	.byte	W03
	.byte		        En4 , v100
	.byte	W03
	.byte		        En4 , v040
	.byte	W03
	.byte		        Dn4 , v100
	.byte	W03
	.byte		        Dn4 , v040
	.byte	W03
	.byte		        An4 , v100
	.byte	W03
	.byte		        An4 , v040
	.byte	W03
	.byte		        Dn4 , v100
	.byte	W03
	.byte		        Dn4 , v040
	.byte	W03
	.byte		PAN   , c_v-64
	.byte		N03   , As3 , v100
	.byte	W03
	.byte		        As3 , v040
	.byte	W03
	.byte		        Cn4 , v100
	.byte	W03
	.byte		        Cn4 , v040
	.byte	W03
	.byte		        Dn4 , v100
	.byte	W03
	.byte		        Dn4 , v040
	.byte	W03
	.byte		        An4 , v100
	.byte	W03
	.byte		        An4 , v040
	.byte	W03
	.byte		        Gn4 , v100
	.byte	W03
	.byte		        Gn4 , v040
	.byte	W03
	.byte		        En4 , v100
	.byte	W03
	.byte		        En4 , v040
	.byte	W03
	.byte		        Fn4 , v100
	.byte	W03
	.byte		        Fn4 , v040
	.byte	W03
	.byte		        Gn4 , v100
	.byte	W03
	.byte		        Gn4 , v040
	.byte	W03
	.byte		PAN   , c_v+63
	.byte		N03   , An4 , v100
	.byte	W03
	.byte		        An4 , v040
	.byte	W03
	.byte		        En4 , v100
	.byte	W03
	.byte		        En4 , v040
	.byte	W03
	.byte		        An4 , v100
	.byte	W03
	.byte		        An4 , v040
	.byte	W03
	.byte		        Gn4 , v100
	.byte	W03
	.byte		        Gn4 , v040
	.byte	W03
	.byte		        Fn4 , v100
	.byte	W03
	.byte		        Fn4 , v040
	.byte	W03
	.byte		        En4 , v100
	.byte	W03
	.byte		        En4 , v040
	.byte	W03
	.byte		        Dn4 , v100
	.byte	W03
	.byte		        Dn4 , v040
	.byte	W03
	.byte		        An3 , v100
	.byte	W03
	.byte		        An3 , v040
	.byte	W03
	.byte		PAN   , c_v-64
	.byte		N03   , An4 , v100
	.byte	W03
	.byte		        An4 , v040
	.byte	W03
	.byte		        En4 , v100
	.byte	W03
	.byte		        En4 , v040
	.byte	W03
	.byte		        Fn4 , v100
	.byte	W03
	.byte		        Fn4 , v040
	.byte	W03
	.byte		        Gn4 , v100
	.byte	W03
	.byte		        Gn4 , v040
	.byte	W03
	.byte		        Fn4 , v100
	.byte	W03
	.byte		        Fn4 , v040
	.byte	W03
	.byte		        En4 , v100
	.byte	W03
	.byte		        En4 , v040
	.byte	W03
	.byte		        Dn4 , v100
	.byte	W03
	.byte		        Dn4 , v040
	.byte	W03
	.byte		        An3 , v100
	.byte	W03
	.byte		        An3 , v040
	.byte	W03
	.byte		PAN   , c_v+63
	.byte		N03   , Gn3 , v100
	.byte	W03
	.byte		        Gn3 , v040
	.byte	W03
	.byte		        An3 , v100
	.byte	W03
	.byte		        An3 , v040
	.byte	W03
	.byte		        As3 , v100
	.byte	W03
	.byte		        As3 , v040
	.byte	W03
	.byte		        Dn4 , v100
	.byte	W03
	.byte		        Dn4 , v040
	.byte	W03
	.byte		        En4 , v100
	.byte	W03
	.byte		        En4 , v040
	.byte	W03
	.byte		        Dn4 , v100
	.byte	W03
	.byte		        Dn4 , v040
	.byte	W03
	.byte		        An4 , v100
	.byte	W03
	.byte		        An4 , v040
	.byte	W03
	.byte		        Dn4 , v100
	.byte	W03
	.byte		        Dn4 , v040
	.byte	W03
	.byte		PAN   , c_v-64
	.byte		N03   , Dn4 , v100
	.byte	W03
	.byte		        Dn4 , v040
	.byte	W03
	.byte		        En4 , v100
	.byte	W03
	.byte		        En4 , v040
	.byte	W03
	.byte		        Fn4 , v100
	.byte	W03
	.byte		        Fn4 , v040
	.byte	W03
	.byte		        Gn4 , v100
	.byte	W03
	.byte		        Gn4 , v040
	.byte	W03
	.byte		        Fn4 , v100
	.byte	W03
	.byte		        Fn4 , v040
	.byte	W03
	.byte		        Cn4 , v100
	.byte	W03
	.byte		        Cn4 , v040
	.byte	W03
	.byte		        Dn4 , v100
	.byte	W03
	.byte		        Dn4 , v040
	.byte	W03
	.byte		        En4 , v100
	.byte	W03
	.byte		        En4 , v040
	.byte	W03
	.byte		PAN   , c_v+63
	.byte		N03   , Cn4 , v100
	.byte	W03
	.byte		        Cn4 , v040
	.byte	W03
	.byte		        As3 , v100
	.byte	W03
	.byte		        As3 , v040
	.byte	W03
	.byte		        An3 , v100
	.byte	W03
	.byte		        An3 , v040
	.byte	W03
	.byte		        Cn4 , v100
	.byte	W03
	.byte		        Cn4 , v040
	.byte	W03
	.byte		        En4 , v100
	.byte	W03
	.byte		        En4 , v040
	.byte	W03
	.byte		        Gn4 , v100
	.byte	W03
	.byte		        Gn4 , v040
	.byte	W03
	.byte		        Cn4 , v100
	.byte	W03
	.byte		        Cn4 , v040
	.byte	W03
	.byte		        Dn4 , v100
	.byte	W03
	.byte		        Dn4 , v040
	.byte	W03
	.byte		PAN   , c_v-64
	.byte		N03   , En3 , v100
	.byte	W03
	.byte		        En3 , v040
	.byte	W03
	.byte		        Bn3 , v100
	.byte	W03
	.byte		        Bn3 , v040
	.byte	W03
	.byte		        Cn4 , v100
	.byte	W03
	.byte		        Cn4 , v040
	.byte	W03
	.byte		        Bn3 , v100
	.byte	W03
	.byte		        Bn3 , v040
	.byte	W03
	.byte		        Gs3 , v100
	.byte	W03
	.byte		        Gs3 , v040
	.byte	W03
	.byte		        En3 , v100
	.byte	W03
	.byte		        En3 , v040
	.byte	W03
	.byte		        Dn3 , v100
	.byte	W03
	.byte		        Dn3 , v040
	.byte	W03
	.byte		        En3 , v100
	.byte	W03
	.byte		        En3 , v040
	.byte	W03
	.byte		PAN   , c_v+63
	.byte		N03   , Dn3 , v100
	.byte	W03
	.byte		        Dn3 , v040
	.byte	W03
	.byte		        En3 , v100
	.byte	W03
	.byte		        En3 , v040
	.byte	W03
	.byte		        Gs3 , v100
	.byte	W03
	.byte		        Gs3 , v040
	.byte	W03
	.byte		        An3 , v100
	.byte	W03
	.byte		        An3 , v040
	.byte	W03
	.byte		        Bn3 , v100
	.byte	W03
	.byte		        Bn3 , v040
	.byte	W03
	.byte		        Dn3 , v100
	.byte	W03
	.byte		        Dn3 , v040
	.byte	W03
	.byte		        En4 , v100
	.byte	W03
	.byte		N03   , En4 , v040
	.byte	W03
	.byte		        Gs3 , v100
	.byte	W03
	.byte		        Gs3 , v040
	.byte	W03
	.byte		PAN   , c_v-64
	.byte		N03   , Bn2 , v100
	.byte	W03
	.byte		        Bn2 , v040
	.byte	W03
	.byte		        Gs3 , v100
	.byte	W03
	.byte		        Gs3 , v040
	.byte	W03
	.byte		        En3 , v100
	.byte	W03
	.byte		        En3 , v040
	.byte	W03
	.byte		        Bn3 , v100
	.byte	W03
	.byte		        Bn3 , v040
	.byte	W03
	.byte		        Dn3 , v100
	.byte	W03
	.byte		        Dn3 , v040
	.byte	W03
	.byte		        En3 , v100
	.byte	W03
	.byte		        En3 , v040
	.byte	W03
	.byte		        Bn3 , v100
	.byte	W03
	.byte		        Bn3 , v040
	.byte	W03
	.byte		        En3 , v100
	.byte	W03
	.byte		        En3 , v040
	.byte	W03
	.byte		PAN   , c_v+63
	.byte		N03   , Gs3 , v100
	.byte	W03
	.byte		        Gs3 , v040
	.byte	W03
	.byte		        En4 , v100
	.byte	W03
	.byte		        En4 , v040
	.byte	W03
	.byte		        Bn3 , v100
	.byte	W03
	.byte		        Bn3 , v040
	.byte	W03
	.byte		        Dn3 , v100
	.byte	W03
	.byte		        Dn3 , v040
	.byte	W03
	.byte		        Dn4 , v100
	.byte	W03
	.byte		        Dn4 , v040
	.byte	W03
	.byte		        Bn3 , v100
	.byte	W03
	.byte		        Bn3 , v040
	.byte	W03
	.byte		        En3 , v100
	.byte	W03
	.byte	PEND
	.byte		N03   , En3 , v040
	.byte	W03
	.byte		        Gs3 , v100
	.byte	W03
	.byte		        Gs3 , v040
	.byte	W03
	.byte		PAN   , c_v-64
	.byte		N03   , Fn3 , v100
	.byte	W03
	.byte		        Fn3 , v040
	.byte	W03
	.byte		        Cn4 , v100
	.byte	W03
	.byte		        Cn4 , v040
	.byte	W03
	.byte		        Cs4 , v100
	.byte	W03
	.byte		        Cs4 , v040
	.byte	W03
	.byte		        Cn4 , v100
	.byte	W03
	.byte		        Cn4 , v040
	.byte	W03
	.byte		        An3 , v100
	.byte	W03
	.byte		        An3 , v040
	.byte	W03
	.byte		        Fn3 , v100
	.byte	W03
	.byte		        Fn3 , v040
	.byte	W03
	.byte		        Ds3 , v100
	.byte	W03
	.byte		        Ds3 , v040
	.byte	W03
	.byte		        Fn3 , v100
	.byte	W03
	.byte		        Fn3 , v040
	.byte	W03
	.byte		PAN   , c_v+63
	.byte		N03   , Ds3 , v100
	.byte	W03
	.byte		        Ds3 , v040
	.byte	W03
	.byte		        Fn3 , v100
	.byte	W03
	.byte		        Fn3 , v040
	.byte	W03
	.byte		        An3 , v100
	.byte	W03
	.byte		        An3 , v040
	.byte	W03
	.byte		        As3 , v100
	.byte	W03
	.byte		        As3 , v040
	.byte	W03
	.byte		        Cn4 , v100
	.byte	W03
	.byte		        Cn4 , v040
	.byte	W03
	.byte		        Ds3 , v100
	.byte	W03
	.byte		        Ds3 , v040
	.byte	W03
	.byte		        Fn4 , v100
	.byte	W03
	.byte	PEND
	.byte		N03   , Fn4 , v040
	.byte	W03
	.byte		        An3 , v100
	.byte	W03
	.byte		        An3 , v040
	.byte	W03
	.byte		PAN   , c_v-64
	.byte		N03   , Cn3 , v100
	.byte	W03
	.byte		        Cn3 , v040
	.byte	W03
	.byte		        An3 , v100
	.byte	W03
	.byte		        An3 , v040
	.byte	W03
	.byte		        Fn3 , v100
	.byte	W03
	.byte		        Fn3 , v040
	.byte	W03
	.byte		        Cn4 , v100
	.byte	W03
	.byte		        Cn4 , v040
	.byte	W03
	.byte		        Ds3 , v100
	.byte	W03
	.byte		        Ds3 , v040
	.byte	W03
	.byte		        Fn3 , v100
	.byte	W03
	.byte		        Fn3 , v040
	.byte	W03
	.byte		        Cn4 , v100
	.byte	W03
	.byte		        Cn4 , v040
	.byte	W03
	.byte		        Fn3 , v100
	.byte	W03
	.byte		        Fn3 , v040
	.byte	W03
	.byte		PAN   , c_v+63
	.byte		N03   , An3 , v100
	.byte	W03
	.byte		        An3 , v040
	.byte	W03
	.byte		        Fn4 , v100
	.byte	W03
	.byte		        Fn4 , v040
	.byte	W03
	.byte		        Cn4 , v100
	.byte	W03
	.byte		        Cn4 , v040
	.byte	W03
	.byte		        Ds3 , v100
	.byte	W03
	.byte		        Ds3 , v040
	.byte	W03
	.byte		        Ds4 , v100
	.byte	W03
	.byte		        Ds4 , v040
	.byte	W03
	.byte		        Cn4 , v100
	.byte	W03
	.byte		        Cn4 , v040
	.byte	W03
	.byte		        Fn3 , v100
	.byte	W03
	.byte	PEND
	.byte		        Fn3 , v040
	.byte	W03
	.byte		        An3 , v100
	.byte	W03
	.byte		        An3 , v040
	.byte	W03
	.byte		PAN   , c_v-64
	.byte		N03   , En3 , v100
	.byte	W03
	.byte		        En3 , v040
	.byte	W03
	.byte		        Bn3 , v100
	.byte	W03
	.byte		        Bn3 , v040
	.byte	W03
	.byte		        Cn4 , v100
	.byte	W03
	.byte		        Cn4 , v040
	.byte	W03
	.byte		        Bn3 , v100
	.byte	W03
	.byte		        Bn3 , v040
	.byte	W03
	.byte		        Gs3 , v100
	.byte	W03
	.byte		        Gs3 , v040
	.byte	W03
	.byte		        En3 , v100
	.byte	W03
	.byte		        En3 , v040
	.byte	W03
	.byte		        Dn3 , v100
	.byte	W03
	.byte		        Dn3 , v040
	.byte	W03
	.byte		        En3 , v100
	.byte	W03
	.byte		        En3 , v040
	.byte	W03
	.byte		PAN   , c_v+63
	.byte		N03   , Dn3 , v100
	.byte	W03
	.byte		        Dn3 , v040
	.byte	W03
	.byte		        En3 , v100
	.byte	W03
	.byte		        En3 , v040
	.byte	W03
	.byte		        Gs3 , v100
	.byte	W03
	.byte		        Gs3 , v040
	.byte	W03
	.byte		        An3 , v100
	.byte	W03
	.byte		        An3 , v040
	.byte	W03
	.byte		        Bn3 , v100
	.byte	W03
	.byte		        Bn3 , v040
	.byte	W03
	.byte		        Dn3 , v100
	.byte	W03
	.byte		        Dn3 , v040
	.byte	W03
	.byte		        En4 , v100
	.byte	W03
	.byte	PATT
	 .word	seq_000_4 + 0x4CD
	.byte	PATT
	 .word	seq_000_4 + 0x535
	.byte	PATT
	 .word	seq_000_4 + 0x59D
	.byte		N03   , Fn3 , v040
	.byte	W03
	.byte		        An3 , v100
	.byte	W03
	.byte		        An3 , v040
	.byte	W03
	.byte		PAN   , c_v-64
	.byte		N03   , Gs4 , v100
	.byte	W03
	.byte		        Gs4 , v040
	.byte	W03
	.byte		        Ds4 , v100
	.byte	W03
	.byte		        Ds4 , v040
	.byte	W03
	.byte		        En4 , v100
	.byte	W03
	.byte		        En4 , v040
	.byte	W03
	.byte		        Fs4 , v100
	.byte	W03
	.byte		        Fs4 , v040
	.byte	W03
	.byte		        En4 , v100
	.byte	W03
	.byte		        En4 , v040
	.byte	W03
	.byte		        Ds4 , v100
	.byte	W03
	.byte		        Ds4 , v040
	.byte	W03
	.byte		        Cs4 , v100
	.byte	W03
	.byte		        Cs4 , v040
	.byte	W03
	.byte		        Gs3 , v100
	.byte	W03
	.byte		        Gs3 , v040
	.byte	W03
	.byte		PAN   , c_v+63
	.byte		N03   , Fs3 , v100
	.byte	W03
	.byte		        Fs3 , v040
	.byte	W03
	.byte		        Gs3 , v100
	.byte	W03
	.byte		        Gs3 , v040
	.byte	W03
	.byte		        An3 , v100
	.byte	W03
	.byte		        An3 , v040
	.byte	W03
	.byte		        Cs4 , v100
	.byte	W03
	.byte		        Cs4 , v040
	.byte	W03
	.byte		        Ds4 , v100
	.byte	W03
	.byte		        Ds4 , v040
	.byte	W03
	.byte		        Cs4 , v100
	.byte	W03
	.byte		        Cs4 , v040
	.byte	W03
	.byte		        Gs4 , v100
	.byte	W03
	.byte		        Gs4 , v040
	.byte	W03
	.byte		        Cs4 , v100
	.byte	W03
	.byte		        Cs4 , v040
	.byte	W90
	.byte	W56
	.byte	W01
	.byte	GOTO
	 .word	seq_000_4 + 0x23
	.byte	FINE

@******************************************************@

	.align	2

seq_000:
	.byte	5	@ NumTrks
	.byte	0	@ NumBlks
	.byte	seq_000_pri	@ Priority
	.byte	seq_000_rev	@ Reverb

	.word	seq_000_grp

	.word	seq_000_0
	.word	seq_000_1
	.word	seq_000_2
	.word	seq_000_3
	.word	seq_000_4

	.end
