@ File generated by m4a2s Song-Module
	.include "MPlayDef.s"

	.equ	seq_000_grp, bank_000
	.equ	seq_000_pri, 0
	.equ	seq_000_rev, 158
	.equ	seq_000_mvl, 127
	.equ	seq_000_key, 0

	.section .rodata
	.global	seq_000
	.align	2

@*********************** Track 01 ***********************@

seq_000_0:
	.byte	KEYSH , seq_000_key+0
	.byte	TEMPO , 156/2
	.byte		VOICE , 0
	.byte		VOL   , 120*seq_000_mvl/mxv
	.byte	W01
	.byte		PAN   , c_v+0
	.byte	W11
	.byte		N03   , Dn1 , v127
	.byte	W03
	.byte		N10   , Dn1 , v092
	.byte	W21
	.byte		N05   , Cn3 , v120
	.byte	W24
	.byte		N05
	.byte	W24
	.byte		N05
	.byte	W18
	.byte		        Cn3 , v092
	.byte	W06
	.byte		N10   , Dn1 , v127
	.byte	W12
	.byte		N05   , Cn3 , v092
	.byte	W12
	.byte	PEND
	.byte	W24
	.byte		        Cn3 , v108
	.byte	W24
	.byte		        Cn3 , v120
	.byte	W12
	.byte		        Cn3 , v092
	.byte	W12
	.byte		N10   , Dn1 , v127
	.byte	W24
	.byte	PATT
	 .word	seq_000_0 + 0x14
	.byte		N05   , Cn3 , v120
	.byte	W24
	.byte		N10   , Dn1 , v127
	.byte	W18
	.byte		N06   , Dn1 , v088
	.byte	W06
	.byte		        Dn1 , v127
	.byte	W06
	.byte		        Dn1 , v092
	.byte	W06
	.byte		        Dn1 , v104
	.byte	W12
	.byte		N10   , Dn1 , v127
	.byte	W12
	.byte		        Dn1 , v104
	.byte	W12
	.byte		N05   , Cn3 , v120
	.byte	W18
	.byte		        Cn3 , v080
	.byte	W06
	.byte		N10   , Dn1 , v127
	.byte	W18
	.byte		        Dn1 , v060
	.byte	W06
	.byte		N05   , Cn3 , v120
	.byte	W18
	.byte		        Cn3 , v092
	.byte	W06
	.byte		N10   , Dn1 , v127
	.byte	W12
	.byte		N05   , Cn3 , v092
	.byte	W12
	.byte	PEND
	.byte		N05   , Cn3 , v120
	.byte	W18
	.byte		        Cn3 , v080
	.byte	W06
	.byte		N10   , Dn1 , v127
	.byte	W18
	.byte		        Dn1 , v060
	.byte	W06
	.byte		N05   , Cn3 , v120
	.byte	W06
	.byte		        Cn3 , v072
	.byte	W06
	.byte		        Cn3 , v100
	.byte	W12
	.byte		N10   , Dn1 , v127
	.byte	W12
	.byte		N05   , Cn3 , v092
	.byte	W12
	.byte	PEND
	.byte	PATT
	 .word	seq_000_0 + 0x57
	.byte	PATT
	 .word	seq_000_0 + 0x75
	.byte	PATT
	 .word	seq_000_0 + 0x57
	.byte	PATT
	 .word	seq_000_0 + 0x75
	.byte	PATT
	 .word	seq_000_0 + 0x57
	.byte		N05   , Cn3 , v120
	.byte	W18
	.byte		        Cn3 , v092
	.byte	W06
	.byte		N10   , Dn1 , v127
	.byte	W18
	.byte		N05   , Cn3 , v080
	.byte	W06
	.byte		        Cn3 , v120
	.byte	W06
	.byte		        Cn3 , v072
	.byte	W06
	.byte		N10   , Dn1 , v092
	.byte	W12
	.byte		        Dn1 , v116
	.byte	W12
	.byte		        Dn1 , v127
	.byte	W12
	.byte		N05   , Cn3 , v120
	.byte	W18
	.byte		        Cn3 , v080
	.byte	W06
	.byte		N10   , Dn1 , v127
	.byte	W18
	.byte		N05   , Cn3 , v080
	.byte	W06
	.byte		        Cn3 , v120
	.byte	W12
	.byte		        Cn3 , v100
	.byte	W12
	.byte		N10   , Dn1 , v127
	.byte	W12
	.byte		N05   , Cn3 , v100
	.byte	W12
	.byte	PEND
	.byte		N05   , Cn3 , v120
	.byte	W18
	.byte		        Cn3 , v080
	.byte	W06
	.byte		N10   , Dn1 , v127
	.byte	W24
	.byte		N05   , Cn3 , v120
	.byte	W12
	.byte		        Cn3 , v092
	.byte	W12
	.byte		N10   , Dn1 , v127
	.byte	W24
	.byte	PEND
	.byte	PATT
	 .word	seq_000_0 + 0xCE
	.byte	PATT
	 .word	seq_000_0 + 0xEC
	.byte	PATT
	 .word	seq_000_0 + 0xCE
	.byte		N05   , Cn3 , v120
	.byte	W18
	.byte		        Cn3 , v080
	.byte	W06
	.byte		N10   , Dn1 , v127
	.byte	W24
	.byte		N05   , Cn3 , v120
	.byte	W12
	.byte		        Cn3 , v092
	.byte	W12
	.byte		N10   , Dn1 , v127
	.byte	W12
	.byte		N05   , Cn3 , v092
	.byte	W12
	.byte	PEND
	.byte	PATT
	 .word	seq_000_0 + 0x112
	.byte		N10   , Dn1 , v080
	.byte	W18
	.byte		        Dn1 , v096
	.byte	W18
	.byte		N05   , Cn3 , v100
	.byte	W12
	.byte		N10   , Dn1 , v127
	.byte	W12
	.byte		N05   , Cn3 , v092
	.byte	W06
	.byte		N06   , Dn1 , v040
	.byte	W06
	.byte		        Dn1 , v092
	.byte	W06
	.byte		        Dn1 , v100
	.byte	W06
	.byte		        Dn1 , v112
	.byte	W06
	.byte		N10   , Dn1 , v127
	.byte	W06
	.byte	GOTO
	 .word	seq_000_0 + 0x57
	.byte	FINE

@*********************** Track 02 ***********************@

seq_000_1:
	.byte	KEYSH , seq_000_key+0
	.byte		VOICE , 0
	.byte		VOL   , 47*seq_000_mvl/mxv
	.byte	W01
	.byte		PAN   , c_v+0
	.byte	W11
	.byte	W24
	.byte		N48   , Cs2 , v120
	.byte	W24
	.byte		N02   , Fs1 
	.byte	W06
	.byte		        Fs1 , v060
	.byte	W06
	.byte		        Fs1 , v100
	.byte	W06
	.byte		        Fs1 , v060
	.byte	W06
	.byte		        Fs1 , v120
	.byte	W06
	.byte		        Fs1 , v060
	.byte	W06
	.byte		        Fs1 , v100
	.byte	W06
	.byte		        Fs1 , v060
	.byte	W06
	.byte		        Fs1 , v120
	.byte	W06
	.byte		        Fs1 , v060
	.byte	W06
	.byte		        Fs1 , v100
	.byte	W06
	.byte		        Fs1 , v060
	.byte	W06
	.byte		N02   , Fs1 , v120
	.byte	W06
	.byte		        Fs1 , v060
	.byte	W06
	.byte		        Fs1 , v100
	.byte	W06
	.byte		        Fs1 , v060
	.byte	W06
	.byte		        Fs1 , v120
	.byte	W06
	.byte		        Fs1 , v060
	.byte	W06
	.byte		        Fs1 , v100
	.byte	W06
	.byte		        Fs1 , v060
	.byte	W06
	.byte		        Fs1 , v120
	.byte	W06
	.byte		        Fs1 , v060
	.byte	W06
	.byte		        Fs1 , v100
	.byte	W06
	.byte		        Fs1 , v060
	.byte	W06
	.byte		        Fs1 , v120
	.byte	W06
	.byte		        Fs1 , v060
	.byte	W06
	.byte		        Fs1 , v100
	.byte	W06
	.byte		        Fs1 , v060
	.byte	W06
	.byte	PEND
	.byte	PATT
	 .word	seq_000_1 + 0x33
	.byte	PATT
	 .word	seq_000_1 + 0x33
	.byte		N42   , Cs2 , v120
	.byte	W24
	.byte		N02   , Fs1 
	.byte	W06
	.byte		        Fs1 , v060
	.byte	W06
	.byte		        Fs1 , v100
	.byte	W06
	.byte		        Fs1 , v060
	.byte	W06
	.byte		        Fs1 , v120
	.byte	W06
	.byte		        Fs1 , v060
	.byte	W06
	.byte		        Fs1 , v100
	.byte	W06
	.byte		        Fs1 , v060
	.byte	W06
	.byte		        Fs1 , v120
	.byte	W06
	.byte		        Fs1 , v060
	.byte	W06
	.byte		        Fs1 , v100
	.byte	W06
	.byte		        Fs1 , v060
	.byte	W06
	.byte	PEND
	.byte	PATT
	 .word	seq_000_1 + 0x33
	.byte	PATT
	 .word	seq_000_1 + 0x33
	.byte	PATT
	 .word	seq_000_1 + 0x33
	.byte	PATT
	 .word	seq_000_1 + 0x33
	.byte	PATT
	 .word	seq_000_1 + 0x33
	.byte	PATT
	 .word	seq_000_1 + 0x33
	.byte	PATT
	 .word	seq_000_1 + 0x33
	.byte	PATT
	 .word	seq_000_1 + 0x6F
	.byte	PATT
	 .word	seq_000_1 + 0x33
	.byte	PATT
	 .word	seq_000_1 + 0x6F
	.byte	PATT
	 .word	seq_000_1 + 0x33
	.byte	PATT
	 .word	seq_000_1 + 0x6F
	.byte	PATT
	 .word	seq_000_1 + 0x33
	.byte		N02   , Fs1 , v120
	.byte	W06
	.byte		        Fs1 , v060
	.byte	W06
	.byte		        Fs1 , v100
	.byte	W06
	.byte		        Fs1 , v060
	.byte	W06
	.byte		        Fs1 , v120
	.byte	W06
	.byte		        Fs1 , v060
	.byte	W06
	.byte		        Fs1 , v100
	.byte	W06
	.byte		        Fs1 , v060
	.byte	W06
	.byte		        Fs1 , v120
	.byte	W06
	.byte		        Fs1 , v060
	.byte	W06
	.byte		        Fs1 , v100
	.byte	W06
	.byte		        Fs1 , v060
	.byte	W06
	.byte		        Fs1 , v120
	.byte	W06
	.byte		        Fs1 , v060
	.byte	W06
	.byte		        Fs1 , v100
	.byte	W06
	.byte		        Fs1 , v060
	.byte	W05
	.byte		PAN   , c_v-64
	.byte	W01
	.byte		N18   , Cs2 , v112
	.byte	W17
	.byte		PAN   , c_v+63
	.byte	W01
	.byte		N42   , Cs2 , v127
	.byte	W52
	.byte	W01
	.byte		PAN   , c_v+0
	.byte	W01
	.byte		N24   , Cs2 , v112
	.byte	W24
	.byte	GOTO
	 .word	seq_000_1 + 0x6F
	.byte	FINE

@*********************** Track 03 ***********************@

seq_000_2:
	.byte	KEYSH , seq_000_key+0
	.byte		VOICE , 2
	.byte		VOL   , 120*seq_000_mvl/mxv
	.byte	W01
	.byte		PAN   , c_v+0
	.byte	W02
	.byte		BENDR , 12
	.byte	W01
	.byte		LFOS  , 28
	.byte		LFODL , 14
	.byte	W01
	.byte		MOD   , 3
	.byte		MODT  , mod_vib
	.byte	W07
	.byte	W24
	.byte		N04   , An1 , v120
	.byte	W06
	.byte		N04
	.byte	W06
	.byte		        An2 , v100
	.byte	W06
	.byte		N04
	.byte	W06
	.byte		        An1 , v120
	.byte	W06
	.byte		N04
	.byte	W06
	.byte		        An2 , v100
	.byte	W06
	.byte		N04
	.byte	W06
	.byte		        An1 , v120
	.byte	W06
	.byte		N04
	.byte	W06
	.byte		        An2 , v100
	.byte	W06
	.byte		N04
	.byte	W06
	.byte		        An1 , v120
	.byte	W06
	.byte		N04
	.byte	W06
	.byte		        An2 , v100
	.byte	W06
	.byte		N04
	.byte	W06
	.byte	PEND
	.byte	PATT
	 .word	seq_000_2 + 0x18
	.byte	PATT
	 .word	seq_000_2 + 0x18
	.byte	PATT
	 .word	seq_000_2 + 0x18
	.byte	PATT
	 .word	seq_000_2 + 0x18
	.byte	PATT
	 .word	seq_000_2 + 0x18
	.byte	PATT
	 .word	seq_000_2 + 0x18
	.byte	PATT
	 .word	seq_000_2 + 0x18
	.byte		N04   , Gn1 , v120
	.byte	W06
	.byte		N04
	.byte	W06
	.byte		        Gn2 , v100
	.byte	W06
	.byte		N04
	.byte	W06
	.byte		        Gn1 , v120
	.byte	W06
	.byte		N04
	.byte	W06
	.byte		        Gn2 , v100
	.byte	W06
	.byte		N04
	.byte	W06
	.byte		        Gn1 , v120
	.byte	W06
	.byte		N04
	.byte	W06
	.byte		        Gn2 , v100
	.byte	W06
	.byte		N04
	.byte	W06
	.byte		        Gn1 , v120
	.byte	W06
	.byte		N04
	.byte	W06
	.byte		        Gn2 , v100
	.byte	W06
	.byte		N04
	.byte	W06
	.byte	PEND
	.byte	PATT
	 .word	seq_000_2 + 0x65
	.byte	PATT
	 .word	seq_000_2 + 0x65
	.byte	PATT
	 .word	seq_000_2 + 0x65
	.byte		N04   , Fn1 , v120
	.byte	W06
	.byte		N04
	.byte	W06
	.byte		        Fn2 , v100
	.byte	W06
	.byte		N04
	.byte	W06
	.byte		        Fn1 , v120
	.byte	W06
	.byte		N04
	.byte	W06
	.byte		        Fn2 , v100
	.byte	W06
	.byte		N04
	.byte	W06
	.byte		        Fn1 , v120
	.byte	W06
	.byte		N04
	.byte	W06
	.byte		        Fn2 , v100
	.byte	W06
	.byte		N04
	.byte	W06
	.byte		        Fn1 , v120
	.byte	W06
	.byte		N04
	.byte	W06
	.byte		        Fn2 , v100
	.byte	W06
	.byte		N04
	.byte	W06
	.byte	PEND
	.byte	PATT
	 .word	seq_000_2 + 0x9E
	.byte		N04   , En1 , v120
	.byte	W06
	.byte		N04
	.byte	W06
	.byte		        En2 , v100
	.byte	W06
	.byte		N04
	.byte	W06
	.byte		        En1 , v120
	.byte	W06
	.byte		N04
	.byte	W06
	.byte		        En2 , v100
	.byte	W06
	.byte		N04
	.byte	W06
	.byte		        En1 , v120
	.byte	W06
	.byte		N04
	.byte	W06
	.byte		        En2 , v100
	.byte	W06
	.byte		N04
	.byte	W06
	.byte		        En1 , v120
	.byte	W06
	.byte		N04
	.byte	W06
	.byte		        En2 , v100
	.byte	W06
	.byte		N04
	.byte	W06
	.byte	PEND
	.byte	PATT
	 .word	seq_000_2 + 0xCD
	.byte		N04   , Ds1 , v120
	.byte	W06
	.byte		N04
	.byte	W06
	.byte		        Ds2 , v100
	.byte	W06
	.byte		N04
	.byte	W06
	.byte		        Ds1 , v120
	.byte	W06
	.byte		N04
	.byte	W06
	.byte		        Ds2 , v100
	.byte	W06
	.byte		N04
	.byte	W06
	.byte		        Ds1 , v120
	.byte	W06
	.byte		N04
	.byte	W06
	.byte		        Ds2 , v100
	.byte	W06
	.byte		N04
	.byte	W06
	.byte		        Ds1 , v120
	.byte	W06
	.byte		N04
	.byte	W06
	.byte		        Ds2 , v100
	.byte	W06
	.byte		N04
	.byte	W06
	.byte	PEND
	.byte	PATT
	 .word	seq_000_2 + 0xFC
	.byte	PATT
	 .word	seq_000_2 + 0xFC
	.byte		N12   , Ds2 , v100
	.byte	W18
	.byte		N11
	.byte	W18
	.byte		N08
	.byte	W12
	.byte		N05
	.byte	W24
	.byte		BEND  , c_v+0
	.byte		N23   , En3 , v127
	.byte	W01
	.byte		BEND  , c_v-3
	.byte	W01
	.byte		        c_v-6
	.byte	W01
	.byte		        c_v-9
	.byte	W01
	.byte		        c_v-12
	.byte	W01
	.byte		        c_v-15
	.byte	W01
	.byte		        c_v-18
	.byte	W01
	.byte		        c_v-21
	.byte	W01
	.byte		        c_v-24
	.byte	W01
	.byte		        c_v-27
	.byte	W01
	.byte		        c_v-30
	.byte	W01
	.byte		        c_v-32
	.byte	W01
	.byte		        c_v-35
	.byte	W01
	.byte		        c_v-38
	.byte	W01
	.byte		        c_v-41
	.byte	W01
	.byte		        c_v-44
	.byte	W01
	.byte		        c_v-47
	.byte	W01
	.byte		        c_v-50
	.byte	W01
	.byte		        c_v-53
	.byte	W01
	.byte		        c_v-56
	.byte	W01
	.byte		        c_v-59
	.byte	W01
	.byte		        c_v-62
	.byte	W01
	.byte		        c_v-64
	.byte	W01
	.byte		        c_v+0
	.byte	W01
	.byte	GOTO
	 .word	seq_000_2 + 0x51
	.byte	FINE

@*********************** Track 04 ***********************@

seq_000_3:
	.byte	KEYSH , seq_000_key+0
	.byte		VOICE , 3
	.byte		VOL   , 56*seq_000_mvl/mxv
	.byte	W01
	.byte		PAN   , c_v-64
	.byte	W11
	.byte	W24
	.byte	W96
	.byte	W96
	.byte	W96
	.byte	W96
	.byte		N04   , Cn2 , v052
	.byte		N04   , Ds2 
	.byte	W06
	.byte		        Cn2 
	.byte		N04   , Ds2 
	.byte	W06
	.byte		        Gn2 
	.byte		N04   , Cn3 
	.byte	W06
	.byte		        Gn2 , v056
	.byte		N04   , Cn3 
	.byte	W06
	.byte		        Cn2 
	.byte		N04   , Ds2 
	.byte	W06
	.byte		        Cn2 
	.byte		N04   , Ds2 
	.byte	W06
	.byte		        Gn2 , v060
	.byte		N04   , Cn3 
	.byte	W06
	.byte		        Gn2 
	.byte		N04   , Cn3 
	.byte	W06
	.byte		        Cn2 
	.byte		N04   , Ds2 
	.byte	W06
	.byte		        Cn2 , v064
	.byte		N04   , Ds2 
	.byte	W06
	.byte		        Gn2 
	.byte		N04   , Cn3 
	.byte	W06
	.byte		        Gn2 
	.byte		N04   , Cn3 
	.byte	W06
	.byte		        Cn2 , v068
	.byte		N04   , Ds2 
	.byte	W06
	.byte		        Cn2 
	.byte		N04   , Ds2 
	.byte	W06
	.byte		        Gn2 
	.byte		N04   , Cn3 
	.byte	W06
	.byte		        Gn2 
	.byte		N04   , Cn3 
	.byte	W06
	.byte	PEND
	.byte		N04   , Cn2 , v072
	.byte		N04   , Ds2 
	.byte	W06
	.byte		        Cn2 
	.byte		N04   , Ds2 
	.byte	W06
	.byte		        Gn2 
	.byte		N04   , Cn3 
	.byte	W06
	.byte		        Gn2 , v076
	.byte		N04   , Cn3 
	.byte	W06
	.byte		        Cn2 
	.byte		N04   , Ds2 
	.byte	W06
	.byte		        Cn2 
	.byte		N04   , Ds2 
	.byte	W06
	.byte		        Gn2 , v080
	.byte		N04   , Cn3 
	.byte	W06
	.byte		        Gn2 
	.byte		N04   , Cn3 
	.byte	W06
	.byte		        Cn2 
	.byte		N04   , Ds2 
	.byte	W06
	.byte		        Cn2 , v084
	.byte		N04   , Ds2 
	.byte	W06
	.byte		        Gn2 
	.byte		N04   , Cn3 
	.byte	W06
	.byte		        Gn2 
	.byte		N04   , Cn3 
	.byte	W06
	.byte		        Cn2 , v088
	.byte		N04   , Ds2 
	.byte	W06
	.byte		        Cn2 
	.byte		N04   , Ds2 
	.byte	W06
	.byte		        Gn2 
	.byte		N04   , Cn3 
	.byte	W06
	.byte		        Gn2 
	.byte		N04   , Cn3 
	.byte	W06
	.byte	PEND
	.byte	PATT
	 .word	seq_000_3 + 0xF
	.byte	PATT
	 .word	seq_000_3 + 0x56
	.byte		N04   , As1 , v052
	.byte		N04   , Ds2 
	.byte	W06
	.byte		        As1 
	.byte		N04   , Ds2 
	.byte	W06
	.byte		        Gn2 
	.byte		N04   , As2 
	.byte	W06
	.byte		        Gn2 , v056
	.byte		N04   , As2 
	.byte	W06
	.byte		        As1 
	.byte		N04   , Ds2 
	.byte	W06
	.byte		        As1 
	.byte		N04   , Ds2 
	.byte	W06
	.byte		        Gn2 , v060
	.byte		N04   , As2 
	.byte	W06
	.byte		        Gn2 
	.byte		N04   , As2 
	.byte	W06
	.byte		        As1 
	.byte		N04   , Ds2 
	.byte	W06
	.byte		        As1 , v064
	.byte		N04   , Ds2 
	.byte	W06
	.byte		        Gn2 
	.byte		N04   , As2 
	.byte	W06
	.byte		        Gn2 
	.byte		N04   , As2 
	.byte	W06
	.byte		        As1 , v068
	.byte		N04   , Ds2 
	.byte	W06
	.byte		        As1 
	.byte		N04   , Ds2 
	.byte	W06
	.byte		        Gn2 
	.byte		N04   , As2 
	.byte	W06
	.byte		        Gn2 
	.byte		N04   , As2 
	.byte	W06
	.byte	PEND
	.byte		        As1 , v072
	.byte		N04   , Ds2 
	.byte	W06
	.byte		        As1 
	.byte		N04   , Ds2 
	.byte	W06
	.byte		        Gn2 
	.byte		N04   , As2 
	.byte	W06
	.byte		        Gn2 , v076
	.byte		N04   , As2 
	.byte	W06
	.byte		        As1 
	.byte		N04   , Ds2 
	.byte	W06
	.byte		        As1 
	.byte		N04   , Ds2 
	.byte	W06
	.byte		        Gn2 , v080
	.byte		N04   , As2 
	.byte	W06
	.byte		        Gn2 
	.byte		N04   , As2 
	.byte	W06
	.byte		        As1 
	.byte		N04   , Ds2 
	.byte	W06
	.byte		        As1 , v084
	.byte		N04   , Ds2 
	.byte	W06
	.byte		        Gn2 
	.byte		N04   , As2 
	.byte	W06
	.byte		        Gn2 
	.byte		N04   , As2 
	.byte	W06
	.byte		        As1 , v088
	.byte		N04   , Ds2 
	.byte	W06
	.byte		        As1 
	.byte		N04   , Ds2 
	.byte	W06
	.byte		        Gn2 
	.byte		N04   , As2 
	.byte	W06
	.byte		        Gn2 
	.byte		N04   , As2 
	.byte	W06
	.byte	PATT
	 .word	seq_000_3 + 0xA7
	.byte		N04   , As1 , v072
	.byte		N04   , Ds2 
	.byte	W06
	.byte		        As1 
	.byte		N04   , Ds2 
	.byte	W06
	.byte		        Gn2 
	.byte		N04   , As2 
	.byte	W06
	.byte		        Gn2 , v076
	.byte		N04   , As2 
	.byte	W06
	.byte		        As1 
	.byte		N04   , Ds2 
	.byte	W06
	.byte		        As1 
	.byte		N04   , Ds2 
	.byte	W06
	.byte		        Gn2 , v080
	.byte		N04   , As2 
	.byte	W06
	.byte		        Gn2 
	.byte		N04   , As2 
	.byte	W06
	.byte		        As1 
	.byte		N04   , Ds2 
	.byte	W06
	.byte		        As1 , v084
	.byte		N04   , Ds2 
	.byte	W06
	.byte		        Gn2 
	.byte		N04   , As2 
	.byte	W06
	.byte		        Gn2 
	.byte		N04   , As2 
	.byte	W06
	.byte		        As1 , v088
	.byte		N04   , Ds2 
	.byte	W06
	.byte		        As1 
	.byte		N04   , Ds2 
	.byte	W06
	.byte		        Gn2 
	.byte		N04   , As2 
	.byte	W06
	.byte		        Gn2 
	.byte		N04   , As2 
	.byte	W05
	.byte		PAN   , c_v+63
	.byte	W01
	.byte		N03   , As1 , v072
	.byte		N03   , Dn2 
	.byte	W06
	.byte		        As1 
	.byte		N03   , Dn2 
	.byte	W06
	.byte		        As1 
	.byte		N03   , Dn2 
	.byte	W06
	.byte		        As1 
	.byte		N03   , Dn2 
	.byte	W06
	.byte		        As1 
	.byte		N03   , Dn2 
	.byte	W06
	.byte		        As1 
	.byte		N03   , Dn2 
	.byte	W06
	.byte		        As1 
	.byte		N03   , Dn2 
	.byte	W06
	.byte		        As1 
	.byte		N03   , Dn2 
	.byte	W06
	.byte		        As1 
	.byte		N03   , Dn2 
	.byte	W06
	.byte		        As1 
	.byte		N03   , Dn2 
	.byte	W06
	.byte		        As1 
	.byte		N03   , Dn2 
	.byte	W06
	.byte		        As1 
	.byte		N03   , Dn2 
	.byte	W06
	.byte		        As1 
	.byte		N03   , Dn2 
	.byte	W06
	.byte		        As1 
	.byte		N03   , Dn2 
	.byte	W06
	.byte		        As1 
	.byte		N03   , Dn2 
	.byte	W06
	.byte		        As1 
	.byte		N03   , Dn2 
	.byte	W06
	.byte		N04   , Fn1 
	.byte		N04   , Gs1 
	.byte	W06
	.byte		        Gn1 
	.byte		N04   , As1 
	.byte	W06
	.byte		        Gs1 , v076
	.byte		N04   , Cn2 
	.byte	W06
	.byte		        As1 , v080
	.byte		N04   , Dn2 
	.byte	W06
	.byte		        Gn1 
	.byte		N04   , As1 
	.byte	W06
	.byte		        Gs1 , v084
	.byte		N04   , Cn2 
	.byte	W06
	.byte		        As1 , v088
	.byte		N04   , Dn2 
	.byte	W06
	.byte		        Cn2 
	.byte		N04   , Ds2 
	.byte	W06
	.byte		        Gs1 , v092
	.byte		N04   , Cn2 
	.byte	W06
	.byte		        As1 , v096
	.byte		N04   , Dn2 
	.byte	W06
	.byte		        Cn2 
	.byte		N04   , Ds2 
	.byte	W06
	.byte		        Dn2 , v100
	.byte		N04   , Fn2 
	.byte	W06
	.byte		        As1 , v104
	.byte		N04   , Dn2 
	.byte	W06
	.byte		        Cn2 
	.byte		N04   , Ds2 
	.byte	W06
	.byte		        Dn2 , v108
	.byte		N04   , Fn2 
	.byte	W06
	.byte		        Ds2 , v112
	.byte		N04   , Gn2 
	.byte	W05
	.byte		PAN   , c_v-64
	.byte	W01
	.byte		N03   , Cn2 , v072
	.byte		N03   , Ds2 
	.byte	W06
	.byte		        Cn2 
	.byte		N03   , Ds2 
	.byte	W06
	.byte		        Cn2 
	.byte		N03   , Ds2 
	.byte	W06
	.byte		        Cn2 
	.byte		N03   , Ds2 
	.byte	W06
	.byte		        Cn2 
	.byte		N03   , Ds2 
	.byte	W06
	.byte		        Cn2 
	.byte		N03   , Ds2 
	.byte	W06
	.byte		        Cn2 
	.byte		N03   , Ds2 
	.byte	W06
	.byte		        Cn2 
	.byte		N03   , Ds2 
	.byte	W06
	.byte		        Cn2 
	.byte		N03   , Ds2 
	.byte	W06
	.byte		        Cn2 
	.byte		N03   , Ds2 
	.byte	W06
	.byte		        Cn2 
	.byte		N03   , Ds2 
	.byte	W06
	.byte		        Cn2 
	.byte		N03   , Ds2 
	.byte	W06
	.byte		        Cn2 
	.byte		N03   , Ds2 
	.byte	W06
	.byte		        Cn2 
	.byte		N03   , Ds2 
	.byte	W06
	.byte		        Cn2 
	.byte		N03   , Ds2 
	.byte	W06
	.byte		        Cn2 
	.byte		N03   , Ds2 
	.byte	W06
	.byte	PEND
	.byte		N04   , Gn1 
	.byte		N04   , As1 
	.byte	W06
	.byte		        Gs1 
	.byte		N04   , Cn2 
	.byte	W06
	.byte		        As1 , v076
	.byte		N04   , Dn2 
	.byte	W06
	.byte		        Cn2 , v080
	.byte		N04   , Ds2 
	.byte	W06
	.byte		        Gs1 
	.byte		N04   , Cn2 
	.byte	W06
	.byte		        As1 , v084
	.byte		N04   , Dn2 
	.byte	W06
	.byte		        Cn2 , v088
	.byte		N04   , Ds2 
	.byte	W06
	.byte		        Dn2 
	.byte		N04   , Fn2 
	.byte	W06
	.byte		        As1 , v092
	.byte		N04   , Dn2 
	.byte	W06
	.byte		        Cn2 , v096
	.byte		N04   , Ds2 
	.byte	W06
	.byte		        Dn2 
	.byte		N04   , Fn2 
	.byte	W06
	.byte		        Ds2 , v100
	.byte		N04   , Gn2 
	.byte	W06
	.byte		        Cn2 , v104
	.byte		N04   , Ds2 
	.byte	W06
	.byte		        Dn2 
	.byte		N04   , Fn2 
	.byte	W06
	.byte		        Ds2 , v108
	.byte		N04   , Gn2 
	.byte	W06
	.byte		        Fn2 , v112
	.byte		N04   , Gs2 
	.byte	W05
	.byte		PAN   , c_v+63
	.byte	W01
	.byte	PATT
	 .word	seq_000_3 + 0x211
	.byte	PATT
	 .word	seq_000_3 + 0x211
	.byte	PATT
	 .word	seq_000_3 + 0x211
	.byte	W92
	.byte	W03
	.byte		PAN   , c_v-64
	.byte	W01
	.byte	GOTO
	 .word	seq_000_3 + 0xF
	.byte	FINE

@*********************** Track 05 ***********************@

seq_000_4:
	.byte	KEYSH , seq_000_key+0
	.byte		VOICE , 5
	.byte		VOL   , 56*seq_000_mvl/mxv
	.byte	W01
	.byte		PAN   , c_v+0
	.byte	W01
	.byte		XCMD  , xIECV , 40
	.byte	W01
	.byte		        xIECL , 5
	.byte	W01
	.byte		LFOS  , 100
	.byte		LFODL , 11
	.byte	W01
	.byte		MOD   , 2
	.byte		MODT  , mod_vib
	.byte	W07
	.byte	W24
	.byte	W96
	.byte	W96
	.byte	W96
	.byte	W96
	.byte		N06   , En4 , v120
	.byte	W06
	.byte		N14   , En4 , v060
	.byte	W18
	.byte		N06   , En4 , v120
	.byte	W06
	.byte		N13   , En4 , v060
	.byte	W12
	.byte		N06   , Dn4 , v120
	.byte	W06
	.byte		N03   , Dn4 , v060
	.byte	W12
	.byte		N06   , En4 , v120
	.byte	W06
	.byte		N17   , En4 , v060
	.byte	W18
	.byte		N06   , Fs4 , v120
	.byte	W06
	.byte		N03   , Fs4 , v060
	.byte	W06
	.byte	PEND
	.byte		N06   , Gn4 , v120
	.byte	W06
	.byte		N14   , Gn4 , v060
	.byte	W18
	.byte		N06   , Gn4 , v120
	.byte	W06
	.byte		N13   , Gn4 , v060
	.byte	W12
	.byte		N06   , Fs4 , v120
	.byte	W06
	.byte		N03   , Fs4 , v060
	.byte	W12
	.byte		N06   , En4 , v120
	.byte	W06
	.byte		N21   , En4 , v060
	.byte	W30
	.byte	PEND
	.byte	PATT
	 .word	seq_000_4 + 0x20
	.byte	PATT
	 .word	seq_000_4 + 0x49
	.byte		N06   , Fn4 , v120
	.byte	W06
	.byte		N14   , Fn4 , v060
	.byte	W18
	.byte		N06   , Fn4 , v120
	.byte	W06
	.byte		N13   , Fn4 , v060
	.byte	W12
	.byte		N06   , En4 , v120
	.byte	W06
	.byte		N03   , En4 , v060
	.byte	W12
	.byte		N06   , Fn4 , v120
	.byte	W06
	.byte		N17   , Fn4 , v060
	.byte	W18
	.byte		N06   , Gn4 , v120
	.byte	W06
	.byte		N03   , Gn4 , v060
	.byte	W06
	.byte	PEND
	.byte		N06   , An4 , v120
	.byte	W06
	.byte		N28   , An4 , v060
	.byte	W30
	.byte		N06   , Bn4 , v120
	.byte	W06
	.byte		N17   , Bn4 , v060
	.byte	W18
	.byte		N06   , An4 , v120
	.byte	W06
	.byte		        An4 , v060
	.byte	W06
	.byte		        Gn4 , v120
	.byte	W06
	.byte		        Gn4 , v060
	.byte	W06
	.byte		        Fn4 , v120
	.byte	W06
	.byte		N05   , Fn4 , v060
	.byte	W06
	.byte	PATT
	 .word	seq_000_4 + 0x74
	.byte		N06   , An4 , v120
	.byte	W06
	.byte		N15   , An4 , v060
	.byte	W18
	.byte		N06   , Bn4 , v120
	.byte	W06
	.byte		N15   , Bn4 , v060
	.byte	W18
	.byte		N06   , Cn5 , v120
	.byte	W06
	.byte		N15   , Cn5 , v060
	.byte	W18
	.byte		N06   , Dn5 , v120
	.byte	W06
	.byte		N15   , Dn5 , v060
	.byte	W17
	.byte		VOICE , 8
	.byte		VOL   , 37*seq_000_mvl/mxv
	.byte	W01
	.byte		N06   , Bn4 , v120
	.byte	W06
	.byte		N24   , Bn4 , v060
	.byte	W30
	.byte		N06   , An4 , v120
	.byte	W06
	.byte		N12   , An4 , v060
	.byte	W18
	.byte		N06   , Bn4 , v120
	.byte	W06
	.byte		N03   , Bn4 , v060
	.byte	W06
	.byte		N06   , An4 , v120
	.byte	W06
	.byte		N03   , An4 , v060
	.byte	W18
	.byte	W96
	.byte		N06   , Cn5 , v120
	.byte	W06
	.byte		N24   , Cn5 , v060
	.byte	W30
	.byte		N06   , Bn4 , v120
	.byte	W06
	.byte		N12   , Bn4 , v060
	.byte	W18
	.byte		N06   , Cn5 , v120
	.byte	W06
	.byte		N03   , Cn5 , v060
	.byte	W06
	.byte		N06   , Bn4 , v120
	.byte	W06
	.byte		N03   , Bn4 , v060
	.byte	W18
	.byte	W96
	.byte		N06   , Cn5 , v120
	.byte	W06
	.byte		N24   , Cn5 , v060
	.byte	W30
	.byte		N06   , Bn4 , v120
	.byte	W06
	.byte		N12   , Bn4 , v060
	.byte	W18
	.byte		N06   , Cn5 , v120
	.byte	W06
	.byte		N03   , Cn5 , v060
	.byte	W06
	.byte		N06   , Bn4 , v120
	.byte	W06
	.byte		N03   , Bn4 , v060
	.byte	W06
	.byte		N06   , An4 , v120
	.byte	W06
	.byte		N13   , An4 , v060
	.byte	W06
	.byte	W12
	.byte		N06   , An4 , v120
	.byte	W06
	.byte		N03   , An4 , v060
	.byte	W06
	.byte		N06   , Gn4 , v120
	.byte	W06
	.byte		N03   , Gn4 , v060
	.byte	W06
	.byte		N06   , Fn4 , v120
	.byte	W06
	.byte		N13   , Fn4 , v060
	.byte	W18
	.byte		N06   , Fn4 , v120
	.byte	W06
	.byte		N03   , Fn4 , v060
	.byte	W06
	.byte		N06   , Ds4 , v120
	.byte	W06
	.byte		N03   , Ds4 , v060
	.byte	W05
	.byte		VOL   , 37*seq_000_mvl/mxv
	.byte	W01
	.byte		N06   , Dn4 , v120
	.byte	W04
	.byte		VOL   , 42*seq_000_mvl/mxv
	.byte	W02
	.byte		N92   , Dn4 , v060
	.byte	W04
	.byte		VOL   , 47*seq_000_mvl/mxv
	.byte	W02
	.byte	W04
	.byte		        51*seq_000_mvl/mxv
	.byte	W06
	.byte		        56*seq_000_mvl/mxv
	.byte	W06
	.byte		        61*seq_000_mvl/mxv
	.byte	W06
	.byte		        66*seq_000_mvl/mxv
	.byte	W06
	.byte		        70*seq_000_mvl/mxv
	.byte	W06
	.byte		        75*seq_000_mvl/mxv
	.byte	W06
	.byte		        80*seq_000_mvl/mxv
	.byte	W06
	.byte		        85*seq_000_mvl/mxv
	.byte	W06
	.byte		        89*seq_000_mvl/mxv
	.byte	W06
	.byte		        94*seq_000_mvl/mxv
	.byte	W05
	.byte		        99*seq_000_mvl/mxv
	.byte	W06
	.byte		        103*seq_000_mvl/mxv
	.byte	W06
	.byte		        108*seq_000_mvl/mxv
	.byte	W06
	.byte		        113*seq_000_mvl/mxv
	.byte	W06
	.byte		        118*seq_000_mvl/mxv
	.byte	W03
	.byte		        120*seq_000_mvl/mxv
	.byte	W05
	.byte		        75*seq_000_mvl/mxv
	.byte	W01
	.byte		N06   , Ds4 , v080
	.byte	W06
	.byte		N09   , Ds4 , v040
	.byte	W12
	.byte		N06   , Ds4 , v092
	.byte	W06
	.byte		N08   , Ds4 , v048
	.byte	W12
	.byte		N06   , Ds4 , v100
	.byte	W06
	.byte		N05   , Ds4 , v052
	.byte	W06
	.byte		N06   , Ds4 , v112
	.byte	W06
	.byte		N03   , Ds4 , v056
	.byte	W18
	.byte		N06   , En4 , v120
	.byte	W06
	.byte		N20   , En4 , v060
	.byte	W17
	.byte		VOICE , 5
	.byte		VOL   , 51*seq_000_mvl/mxv
	.byte	W01
	.byte	GOTO
	 .word	seq_000_4 + 0x20
	.byte	FINE

@*********************** Track 06 ***********************@

seq_000_5:
	.byte	KEYSH , seq_000_key+0
	.byte		VOICE , 6
	.byte		VOL   , 66*seq_000_mvl/mxv
	.byte		PAN   , c_v+63
	.byte		XCMD  , xIECV , 40
	.byte		        xIECL , 5
	.byte		BENDR , 12
	.byte		LFOS  , 35
	.byte		LFODL , 11
	.byte		MOD   , 6
	.byte		MODT  , mod_vib
	.byte	W12
	.byte	W24
	.byte		N03   , An1 , v072
	.byte	W06
	.byte		N03
	.byte	W05
	.byte		PAN   , c_v-64
	.byte	W01
	.byte		N03   , An3 , v076
	.byte	W05
	.byte		PAN   , c_v+63
	.byte	W01
	.byte		N03
	.byte	W06
	.byte		        An1 
	.byte	W06
	.byte		        An1 , v080
	.byte	W05
	.byte		PAN   , c_v-64
	.byte	W01
	.byte		N03   , An3 
	.byte	W05
	.byte		PAN   , c_v+63
	.byte	W01
	.byte		N03
	.byte	W06
	.byte		        An1 , v084
	.byte	W06
	.byte		N03
	.byte	W05
	.byte		PAN   , c_v-64
	.byte	W01
	.byte		N03   , An3 , v088
	.byte	W05
	.byte		PAN   , c_v+63
	.byte	W01
	.byte		N03
	.byte	W06
	.byte		        An1 
	.byte	W06
	.byte		        An1 , v092
	.byte	W05
	.byte		PAN   , c_v-64
	.byte	W01
	.byte		N03   , An3 
	.byte	W05
	.byte		PAN   , c_v+63
	.byte	W01
	.byte		N03   , An3 , v096
	.byte	W06
	.byte	PEND
	.byte		        An1 
	.byte	W06
	.byte		N03
	.byte	W05
	.byte		PAN   , c_v-64
	.byte	W01
	.byte		N03   , An3 , v100
	.byte	W05
	.byte		PAN   , c_v+63
	.byte	W01
	.byte		N03
	.byte	W06
	.byte		        An1 , v104
	.byte	W06
	.byte		N03
	.byte	W05
	.byte		PAN   , c_v-64
	.byte	W01
	.byte		N03   , An3 
	.byte	W05
	.byte		PAN   , c_v+63
	.byte	W01
	.byte		N03   , An3 , v108
	.byte	W06
	.byte		        An1 
	.byte	W06
	.byte		        An1 , v112
	.byte	W05
	.byte		PAN   , c_v-64
	.byte	W01
	.byte		N03   , An3 
	.byte	W05
	.byte		PAN   , c_v+63
	.byte	W01
	.byte		N03
	.byte	W06
	.byte		        An1 , v116
	.byte	W06
	.byte		N03
	.byte	W05
	.byte		PAN   , c_v-64
	.byte	W01
	.byte		N03   , An3 
	.byte	W05
	.byte		PAN   , c_v+63
	.byte	W01
	.byte		N03   , An3 , v120
	.byte	W06
	.byte	PATT
	 .word	seq_000_5 + 0x19
	.byte		N03   , An1 , v096
	.byte	W06
	.byte		N03
	.byte	W05
	.byte		PAN   , c_v-64
	.byte	W01
	.byte		N03   , An3 , v100
	.byte	W05
	.byte		PAN   , c_v+63
	.byte	W01
	.byte		N03
	.byte	W06
	.byte		        An1 , v104
	.byte	W06
	.byte		N03
	.byte	W05
	.byte		PAN   , c_v-64
	.byte	W01
	.byte		N03   , An3 
	.byte	W05
	.byte		PAN   , c_v+63
	.byte	W01
	.byte		N03   , An3 , v108
	.byte	W06
	.byte		        An1 
	.byte	W06
	.byte		        An1 , v112
	.byte	W05
	.byte		PAN   , c_v-64
	.byte	W01
	.byte		N03   , An3 
	.byte	W05
	.byte		PAN   , c_v+63
	.byte	W01
	.byte		N03
	.byte	W06
	.byte		        An1 , v116
	.byte	W06
	.byte		N03
	.byte	W05
	.byte		PAN   , c_v-64
	.byte	W01
	.byte		N03   , An3 
	.byte	W05
	.byte		PAN   , c_v+63
	.byte	W01
	.byte		N03   , An3 , v120
	.byte	W05
	.byte		VOL   , 99*seq_000_mvl/mxv
	.byte	W01
	.byte		N06   , Cn4 , v120
	.byte	W06
	.byte		N14   , Cn4 , v060
	.byte	W18
	.byte		N06   , Cn4 , v120
	.byte	W06
	.byte		N13   , Cn4 , v060
	.byte	W12
	.byte		N06   , Bn3 , v120
	.byte	W06
	.byte		N03   , Bn3 , v060
	.byte	W12
	.byte		N06   , Cn4 , v120
	.byte	W06
	.byte		N17   , Cn4 , v060
	.byte	W18
	.byte		N06   , Dn4 , v120
	.byte	W06
	.byte		N03   , Dn4 , v060
	.byte	W06
	.byte	PEND
	.byte		N06   , En4 , v120
	.byte	W06
	.byte		N14   , En4 , v060
	.byte	W18
	.byte		N06   , En4 , v120
	.byte	W06
	.byte		N13   , En4 , v060
	.byte	W12
	.byte		N06   , Dn4 , v120
	.byte	W06
	.byte		N03   , Dn4 , v060
	.byte	W12
	.byte		N06   , Cn4 , v120
	.byte	W06
	.byte		N21   , Cn4 , v060
	.byte	W30
	.byte	PEND
	.byte	PATT
	 .word	seq_000_5 + 0xF1
	.byte	PATT
	 .word	seq_000_5 + 0x11A
	.byte		N06   , Cn4 , v120
	.byte	W06
	.byte		N14   , Cn4 , v060
	.byte	W18
	.byte		N06   , Cn4 , v120
	.byte	W06
	.byte		N12   , Cn4 , v060
	.byte	W12
	.byte		N06   , Cn4 , v120
	.byte	W06
	.byte		N03   , Cn4 , v060
	.byte	W12
	.byte		N06   , Cn4 , v120
	.byte	W06
	.byte		N17   , Cn4 , v060
	.byte	W18
	.byte		N06   , En4 , v120
	.byte	W06
	.byte		N03   , En4 , v060
	.byte	W06
	.byte	PEND
	.byte		N06   , Fn4 , v120
	.byte	W06
	.byte		N28   , Fn4 , v060
	.byte	W30
	.byte		N06   , Gn4 , v120
	.byte	W06
	.byte		N17   , Gn4 , v060
	.byte	W18
	.byte		N06   , Fn4 , v120
	.byte	W06
	.byte		        Fn4 , v060
	.byte	W06
	.byte		        En4 , v120
	.byte	W06
	.byte		        En4 , v060
	.byte	W06
	.byte		        Dn4 , v120
	.byte	W06
	.byte		        Dn4 , v060
	.byte	W06
	.byte	PATT
	 .word	seq_000_5 + 0x145
	.byte		N06   , Fn4 , v120
	.byte	W06
	.byte		N15   , Fn4 , v060
	.byte	W18
	.byte		N06   , Gn4 , v120
	.byte	W06
	.byte		N15   , Gn4 , v060
	.byte	W18
	.byte		N06   , An4 , v120
	.byte	W06
	.byte		N15   , An4 , v060
	.byte	W18
	.byte		N06   , Bn4 , v120
	.byte	W06
	.byte		N15   , Bn4 , v060
	.byte	W17
	.byte		VOICE , 1
	.byte		VOL   , 66*seq_000_mvl/mxv
	.byte	W01
	.byte		N06   , Gn4 , v120
	.byte	W06
	.byte		N24   , Gn4 , v060
	.byte	W30
	.byte		N06   , Fn4 , v120
	.byte	W06
	.byte		N12   , Fn4 , v060
	.byte	W18
	.byte		N06   , Gn4 , v120
	.byte	W06
	.byte		N03   , Gn4 , v060
	.byte	W06
	.byte		N06   , Fn4 , v120
	.byte	W06
	.byte		N03   , Fn4 , v060
	.byte	W18
	.byte	W96
	.byte		N06   , An4 , v120
	.byte	W06
	.byte		N24   , An4 , v060
	.byte	W30
	.byte		N06   , Gn4 , v120
	.byte	W06
	.byte		N12   , Gn4 , v060
	.byte	W18
	.byte		N06   , An4 , v120
	.byte	W06
	.byte		N03   , An4 , v060
	.byte	W06
	.byte		N06   , Gn4 , v120
	.byte	W06
	.byte		N03   , Gn4 , v060
	.byte	W18
	.byte	W96
	.byte		N06   , An4 , v120
	.byte	W06
	.byte		N24   , An4 , v060
	.byte	W30
	.byte		N06   , Gn4 , v120
	.byte	W06
	.byte		N12   , Gn4 , v060
	.byte	W18
	.byte		N06   , An4 , v120
	.byte	W06
	.byte		N03   , An4 , v060
	.byte	W06
	.byte		N06   , Gn4 , v120
	.byte	W06
	.byte		N03   , Gn4 , v060
	.byte	W06
	.byte		N06   , Fn4 , v120
	.byte	W06
	.byte		N13   , Fn4 , v060
	.byte	W06
	.byte	W12
	.byte		N06   , Fn4 , v120
	.byte	W06
	.byte		N03   , Fn4 , v060
	.byte	W06
	.byte		N06   , Ds4 , v120
	.byte	W06
	.byte		N03   , Ds4 , v060
	.byte	W06
	.byte		N06   , Dn4 , v120
	.byte	W06
	.byte		N13   , Dn4 , v060
	.byte	W18
	.byte		N06   , Dn4 , v120
	.byte	W06
	.byte		N03   , Dn4 , v060
	.byte	W06
	.byte		N06   , Cn4 , v120
	.byte	W06
	.byte		N03   , Cn4 , v060
	.byte	W05
	.byte		VOL   , 56*seq_000_mvl/mxv
	.byte	W01
	.byte		N06   , As3 , v120
	.byte	W02
	.byte		VOL   , 58*seq_000_mvl/mxv
	.byte	W03
	.byte		        60*seq_000_mvl/mxv
	.byte	W01
	.byte		N92   , As3 , v060
	.byte	W02
	.byte		VOL   , 62*seq_000_mvl/mxv
	.byte	W03
	.byte		        64*seq_000_mvl/mxv
	.byte	W01
	.byte	W02
	.byte		        66*seq_000_mvl/mxv
	.byte	W03
	.byte		        68*seq_000_mvl/mxv
	.byte	W03
	.byte		        69*seq_000_mvl/mxv
	.byte	W03
	.byte		        71*seq_000_mvl/mxv
	.byte	W03
	.byte		        73*seq_000_mvl/mxv
	.byte	W03
	.byte		        75*seq_000_mvl/mxv
	.byte	W03
	.byte		        77*seq_000_mvl/mxv
	.byte	W03
	.byte		        79*seq_000_mvl/mxv
	.byte	W03
	.byte		        81*seq_000_mvl/mxv
	.byte	W04
	.byte		        83*seq_000_mvl/mxv
	.byte	W03
	.byte		        85*seq_000_mvl/mxv
	.byte	W03
	.byte		        86*seq_000_mvl/mxv
	.byte	W03
	.byte		        88*seq_000_mvl/mxv
	.byte	W03
	.byte		        90*seq_000_mvl/mxv
	.byte	W03
	.byte		        92*seq_000_mvl/mxv
	.byte	W03
	.byte		        94*seq_000_mvl/mxv
	.byte	W03
	.byte		        96*seq_000_mvl/mxv
	.byte	W03
	.byte		        98*seq_000_mvl/mxv
	.byte	W03
	.byte		        100*seq_000_mvl/mxv
	.byte	W03
	.byte		        102*seq_000_mvl/mxv
	.byte	W03
	.byte		        103*seq_000_mvl/mxv
	.byte	W03
	.byte		        105*seq_000_mvl/mxv
	.byte	W04
	.byte		        107*seq_000_mvl/mxv
	.byte	W03
	.byte		        109*seq_000_mvl/mxv
	.byte	W03
	.byte		        111*seq_000_mvl/mxv
	.byte	W03
	.byte		        113*seq_000_mvl/mxv
	.byte	W03
	.byte		        115*seq_000_mvl/mxv
	.byte	W03
	.byte		        117*seq_000_mvl/mxv
	.byte	W03
	.byte		        119*seq_000_mvl/mxv
	.byte	W02
	.byte		        120*seq_000_mvl/mxv
	.byte	W06
	.byte		N06   , Cn4 , v080
	.byte	W06
	.byte		N09   , Cn4 , v040
	.byte	W12
	.byte		N06   , Cn4 , v092
	.byte	W06
	.byte		N08   , Cn4 , v048
	.byte	W12
	.byte		N06   , Cn4 , v100
	.byte	W06
	.byte		N05   , Cn4 , v052
	.byte	W06
	.byte		N06   , Cn4 , v112
	.byte	W06
	.byte		N03   , Cn4 , v056
	.byte	W18
	.byte		N06   , Bn3 , v120
	.byte	W06
	.byte		N20   , Bn3 , v060
	.byte	W17
	.byte		VOICE , 6
	.byte		VOL   , 99*seq_000_mvl/mxv
	.byte	W01
	.byte	GOTO
	 .word	seq_000_5 + 0xF1
	.byte	FINE

@*********************** Track 07 ***********************@

seq_000_6:
	.byte	KEYSH , seq_000_key+0
	.byte		VOICE , 4
	.byte		VOL   , 113*seq_000_mvl/mxv
	.byte	W01
	.byte		PAN   , c_v+0
	.byte	W11
	.byte	W24
	.byte		N68   , Cn3 , v080
	.byte		N68   , Fn3 
	.byte		N68   , An3 
	.byte	W84
	.byte		N90   , Dn3 
	.byte		N90   , Gn3 
	.byte		N90   , Bn3 
	.byte	W12
	.byte	W96
	.byte		N68   , Fn3 , v088
	.byte		N68   , An3 
	.byte		N68   , Cn4 
	.byte	W84
	.byte		N90   , Gn3 
	.byte		N90   , Bn3 
	.byte		N90   , Dn4 
	.byte	W12
	.byte	W96
	.byte	W96
	.byte	W96
	.byte	W96
	.byte	W96
	.byte	W96
	.byte	W96
	.byte	W96
	.byte	W96
	.byte	W96
	.byte	W96
	.byte	W96
	.byte	W96
	.byte	W96
	.byte	W96
	.byte	W96
	.byte	W96
	.byte	GOTO
	 .word	seq_000_6 + 0x2B
	.byte	FINE

@*********************** Track 08 ***********************@

seq_000_7:
	.byte	KEYSH , seq_000_key+0
	.byte		VOICE , 7
	.byte		VOL   , 94*seq_000_mvl/mxv
	.byte	W01
	.byte	W01
	.byte		XCMD  , xIECV , 40
	.byte	W01
	.byte		        xIECL , 3
	.byte	W01
	.byte		LFOS  , 40
	.byte		LFODL , 30
	.byte	W01
	.byte		MOD   , 3
	.byte		MODT  , mod_vib
	.byte	W07
	.byte		PAN   , c_v-64
	.byte	W24
	.byte		N68   , An3 , v060
	.byte	W03
	.byte		VOL   , 89*seq_000_mvl/mxv
	.byte	W03
	.byte		        86*seq_000_mvl/mxv
	.byte	W03
	.byte		        84*seq_000_mvl/mxv
	.byte	W03
	.byte		        81*seq_000_mvl/mxv
	.byte	W03
	.byte		        78*seq_000_mvl/mxv
	.byte	W03
	.byte		        75*seq_000_mvl/mxv
	.byte	W03
	.byte		        72*seq_000_mvl/mxv
	.byte	W03
	.byte		        69*seq_000_mvl/mxv
	.byte	W03
	.byte		        67*seq_000_mvl/mxv
	.byte	W03
	.byte		        64*seq_000_mvl/mxv
	.byte	W03
	.byte		        61*seq_000_mvl/mxv
	.byte	W03
	.byte		        59*seq_000_mvl/mxv
	.byte	W03
	.byte		        56*seq_000_mvl/mxv
	.byte	W03
	.byte		        53*seq_000_mvl/mxv
	.byte	W03
	.byte		        51*seq_000_mvl/mxv
	.byte	W03
	.byte		        48*seq_000_mvl/mxv
	.byte	W03
	.byte		        45*seq_000_mvl/mxv
	.byte	W03
	.byte		        42*seq_000_mvl/mxv
	.byte	W03
	.byte		        39*seq_000_mvl/mxv
	.byte	W03
	.byte		        36*seq_000_mvl/mxv
	.byte	W03
	.byte		        34*seq_000_mvl/mxv
	.byte	W03
	.byte		        32*seq_000_mvl/mxv
	.byte	W03
	.byte		        29*seq_000_mvl/mxv
	.byte	W01
	.byte		        28*seq_000_mvl/mxv
	.byte	W01
	.byte		        94*seq_000_mvl/mxv
	.byte	W12
	.byte		PAN   , c_v+63
	.byte	W01
	.byte		N90   , Bn3 
	.byte	W06
	.byte		VOL   , 89*seq_000_mvl/mxv
	.byte	W03
	.byte		        86*seq_000_mvl/mxv
	.byte	W03
	.byte		        85*seq_000_mvl/mxv
	.byte	W03
	.byte		        82*seq_000_mvl/mxv
	.byte	W03
	.byte		        80*seq_000_mvl/mxv
	.byte	W03
	.byte		        77*seq_000_mvl/mxv
	.byte	W03
	.byte		        75*seq_000_mvl/mxv
	.byte	W03
	.byte		        72*seq_000_mvl/mxv
	.byte	W03
	.byte		        70*seq_000_mvl/mxv
	.byte	W03
	.byte		        68*seq_000_mvl/mxv
	.byte	W03
	.byte		        66*seq_000_mvl/mxv
	.byte	W03
	.byte		        63*seq_000_mvl/mxv
	.byte	W03
	.byte		        61*seq_000_mvl/mxv
	.byte	W03
	.byte		        58*seq_000_mvl/mxv
	.byte	W03
	.byte		        56*seq_000_mvl/mxv
	.byte	W03
	.byte		        53*seq_000_mvl/mxv
	.byte	W03
	.byte		        51*seq_000_mvl/mxv
	.byte	W03
	.byte		        49*seq_000_mvl/mxv
	.byte	W03
	.byte		        47*seq_000_mvl/mxv
	.byte	W03
	.byte		        44*seq_000_mvl/mxv
	.byte	W03
	.byte		        42*seq_000_mvl/mxv
	.byte	W03
	.byte		        39*seq_000_mvl/mxv
	.byte	W03
	.byte		        37*seq_000_mvl/mxv
	.byte	W03
	.byte		        34*seq_000_mvl/mxv
	.byte	W03
	.byte		        33*seq_000_mvl/mxv
	.byte	W03
	.byte		        30*seq_000_mvl/mxv
	.byte	W03
	.byte		        28*seq_000_mvl/mxv
	.byte	W06
	.byte		        94*seq_000_mvl/mxv
	.byte	W17
	.byte		PAN   , c_v-64
	.byte	W01
	.byte		N68   , Cn4 
	.byte	W03
	.byte		VOL   , 89*seq_000_mvl/mxv
	.byte	W03
	.byte		        86*seq_000_mvl/mxv
	.byte	W03
	.byte		        84*seq_000_mvl/mxv
	.byte	W03
	.byte		        81*seq_000_mvl/mxv
	.byte	W03
	.byte		        78*seq_000_mvl/mxv
	.byte	W03
	.byte		        75*seq_000_mvl/mxv
	.byte	W03
	.byte		        72*seq_000_mvl/mxv
	.byte	W03
	.byte		        69*seq_000_mvl/mxv
	.byte	W03
	.byte		        67*seq_000_mvl/mxv
	.byte	W03
	.byte		        64*seq_000_mvl/mxv
	.byte	W03
	.byte		        61*seq_000_mvl/mxv
	.byte	W03
	.byte		        59*seq_000_mvl/mxv
	.byte	W03
	.byte		        56*seq_000_mvl/mxv
	.byte	W03
	.byte		        53*seq_000_mvl/mxv
	.byte	W03
	.byte		        51*seq_000_mvl/mxv
	.byte	W03
	.byte		        48*seq_000_mvl/mxv
	.byte	W03
	.byte		        45*seq_000_mvl/mxv
	.byte	W03
	.byte		        42*seq_000_mvl/mxv
	.byte	W03
	.byte		        39*seq_000_mvl/mxv
	.byte	W03
	.byte		        36*seq_000_mvl/mxv
	.byte	W03
	.byte		        34*seq_000_mvl/mxv
	.byte	W03
	.byte		        32*seq_000_mvl/mxv
	.byte	W03
	.byte		        29*seq_000_mvl/mxv
	.byte	W01
	.byte		        28*seq_000_mvl/mxv
	.byte	W01
	.byte		        94*seq_000_mvl/mxv
	.byte	W12
	.byte		PAN   , c_v+63
	.byte	W01
	.byte		N90   , Dn4 
	.byte	W06
	.byte		VOL   , 89*seq_000_mvl/mxv
	.byte	W03
	.byte		        86*seq_000_mvl/mxv
	.byte	W03
	.byte		        85*seq_000_mvl/mxv
	.byte	W03
	.byte		        83*seq_000_mvl/mxv
	.byte	W03
	.byte		        80*seq_000_mvl/mxv
	.byte	W03
	.byte		        78*seq_000_mvl/mxv
	.byte	W03
	.byte		        76*seq_000_mvl/mxv
	.byte	W03
	.byte		        73*seq_000_mvl/mxv
	.byte	W03
	.byte		        71*seq_000_mvl/mxv
	.byte	W03
	.byte		        69*seq_000_mvl/mxv
	.byte	W03
	.byte		        67*seq_000_mvl/mxv
	.byte	W03
	.byte		        65*seq_000_mvl/mxv
	.byte	W03
	.byte		        63*seq_000_mvl/mxv
	.byte	W03
	.byte		        60*seq_000_mvl/mxv
	.byte	W03
	.byte		        58*seq_000_mvl/mxv
	.byte	W03
	.byte		        56*seq_000_mvl/mxv
	.byte	W03
	.byte		        53*seq_000_mvl/mxv
	.byte	W03
	.byte		        51*seq_000_mvl/mxv
	.byte	W03
	.byte		        50*seq_000_mvl/mxv
	.byte	W03
	.byte		        47*seq_000_mvl/mxv
	.byte	W03
	.byte		        45*seq_000_mvl/mxv
	.byte	W03
	.byte		        43*seq_000_mvl/mxv
	.byte	W03
	.byte		        40*seq_000_mvl/mxv
	.byte	W03
	.byte		        38*seq_000_mvl/mxv
	.byte	W03
	.byte		        36*seq_000_mvl/mxv
	.byte	W03
	.byte		        34*seq_000_mvl/mxv
	.byte	W03
	.byte		        32*seq_000_mvl/mxv
	.byte	W03
	.byte		        30*seq_000_mvl/mxv
	.byte	W03
	.byte		        28*seq_000_mvl/mxv
	.byte	W18
	.byte	W96
	.byte	W96
	.byte	W96
	.byte	W96
	.byte	W96
	.byte	W96
	.byte	W96
	.byte	W96
	.byte	W96
	.byte	W96
	.byte	W96
	.byte	W96
	.byte	W96
	.byte	W96
	.byte	W96
	.byte	W96
	.byte	GOTO
	 .word	seq_000_7 + 0x10C
	.byte	FINE

@******************************************************@

	.align	2

seq_000:
	.byte	8	@ NumTrks
	.byte	0	@ NumBlks
	.byte	seq_000_pri	@ Priority
	.byte	seq_000_rev	@ Reverb

	.word	seq_000_grp

	.word	seq_000_0
	.word	seq_000_1
	.word	seq_000_2
	.word	seq_000_3
	.word	seq_000_4
	.word	seq_000_5
	.word	seq_000_6
	.word	seq_000_7

	.end
