@ File generated by m4a2s Song-Module
	.include "MPlayDef.s"

	.equ	seq_000_grp, bank_000
	.equ	seq_000_pri, 0
	.equ	seq_000_rev, 168
	.equ	seq_000_mvl, 127
	.equ	seq_000_key, 0

	.section .rodata
	.global	seq_000
	.align	2

@*********************** Track 01 ***********************@

seq_000_0:
	.byte	KEYSH , seq_000_key+0
	.byte	TEMPO , 150/2
	.byte		PAN   , c_v+0
	.byte	W01
	.byte		BENDR , 12
	.byte	W01
	.byte		MODT  , mod_vib
	.byte	W01
	.byte		LFOS  , 31
	.byte	W01
	.byte		LFODL , 14
	.byte	W03
	.byte		MOD   , 0
	.byte	W88
	.byte	W01
	.byte	W96
	.byte	W09
	.byte		VOICE , 19
	.byte		PAN   , c_v+0
	.byte		VOL   , 37*seq_000_mvl/mxv
	.byte		TIE   , Ds3 , v127
	.byte	W84
	.byte	W03
	.byte	W32
	.byte	W01
	.byte		VOL   , 42*seq_000_mvl/mxv
	.byte	W24
	.byte		        56*seq_000_mvl/mxv
	.byte		BEND  , c_v+3
	.byte	W07
	.byte		        c_v+7
	.byte	W05
	.byte		VOL   , 61*seq_000_mvl/mxv
	.byte		BEND  , c_v+11
	.byte	W07
	.byte		        c_v+15
	.byte	W05
	.byte		VOL   , 75*seq_000_mvl/mxv
	.byte		BEND  , c_v+19
	.byte	W07
	.byte		        c_v+23
	.byte	W05
	.byte		        c_v+31
	.byte	W03
	.byte	W04
	.byte		        c_v+39
	.byte	W05
	.byte		EOT
	.byte		VOICE , 20
	.byte		VOL   , 68*seq_000_mvl/mxv
	.byte		PAN   , c_v-34
	.byte		BEND  , c_v+0
	.byte		N17   , Gs2 , v072
	.byte	W18
	.byte		        Gs2 , v052
	.byte	W18
	.byte		        Gs2 , v036
	.byte	W18
	.byte		        Gs2 , v028
	.byte	W18
	.byte		        Gs2 , v016
	.byte	W15
	.byte	W09
	.byte		PAN   , c_v+33
	.byte		N17   , An2 , v072
	.byte	W18
	.byte		        An2 , v052
	.byte	W18
	.byte		        An2 , v036
	.byte	W18
	.byte		        An2 , v028
	.byte	W18
	.byte		        An2 , v016
	.byte	W15
	.byte	W09
	.byte		PAN   , c_v-34
	.byte		N17   , As2 , v072
	.byte	W18
	.byte		        As2 , v052
	.byte	W18
	.byte		        As2 , v036
	.byte	W18
	.byte		        As2 , v028
	.byte	W18
	.byte		        As2 , v016
	.byte	W15
	.byte	W09
	.byte		PAN   , c_v+33
	.byte		N17   , Bn2 , v072
	.byte	W18
	.byte		        Bn2 , v052
	.byte	W18
	.byte		        Bn2 , v036
	.byte	W18
	.byte		        Bn2 , v028
	.byte	W18
	.byte		        Bn2 , v016
	.byte	W15
	.byte	W09
	.byte		VOICE , 8
	.byte		PAN   , c_v+0
	.byte		N96   , Gs3 , v080
	.byte	W84
	.byte	W03
	.byte	W09
	.byte		        An3 
	.byte	W84
	.byte	W03
	.byte	W09
	.byte		        As3 
	.byte	W84
	.byte	W03
	.byte	W09
	.byte		N72   , Bn3 
	.byte	W78
	.byte		N05
	.byte	W06
	.byte		        Cs4 
	.byte	W03
	.byte	W03
	.byte		        Dn4 
	.byte	W06
	.byte		N18   , En4 
	.byte	W18
	.byte		N17   , Ds4 
	.byte	W18
	.byte		N11   , Cs4 
	.byte	W12
	.byte		N18   , Fs4 
	.byte	W18
	.byte		N17   , En4 
	.byte	W18
	.byte		N11   , Ds4 
	.byte	W03
	.byte	W09
	.byte		N36
	.byte	W36
	.byte		N48   , Cs4 
	.byte	W48
	.byte		N11   , Cs4 , v072
	.byte	W03
	.byte	W09
	.byte		N18   , En4 , v080
	.byte	W18
	.byte		N17   , Ds4 
	.byte	W18
	.byte		N11   , Cs4 
	.byte	W12
	.byte		N18   , Fs4 
	.byte	W18
	.byte		N17   , En4 
	.byte	W18
	.byte		N11   , Fs4 
	.byte	W03
	.byte	W09
	.byte		N36   , Gs4 
	.byte	W36
	.byte		N12   , Gs4 , v072
	.byte	W12
	.byte		N36   , En4 , v080
	.byte	W36
	.byte		N11   , En4 , v072
	.byte	W03
	.byte	W09
	.byte		N36   , An3 , v080
	.byte	W36
	.byte		N12   , An3 , v072
	.byte	W12
	.byte		N36   , Bn3 , v080
	.byte	W36
	.byte		N12   , Bn3 , v072
	.byte	W03
	.byte	W09
	.byte		N42   , Cs4 , v088
	.byte	W42
	.byte		N05   , Cs4 , v076
	.byte	W06
	.byte		N18   , Cs4 , v080
	.byte	W18
	.byte		N17   , Ds4 
	.byte	W18
	.byte		N11   , En4 
	.byte	W03
	.byte	W09
	.byte		N84   , Fs4 
	.byte	W84
	.byte		N11   , Fs4 , v072
	.byte	W03
	.byte	W09
	.byte		N12   , Ds4 
	.byte	W12
	.byte		N11   , Ds4 , v040
	.byte	W12
	.byte		        Ds4 , v012
	.byte	W60
	.byte	W03
	.byte	W09
	.byte		VOICE , 26
	.byte		TIE   , Gs3 , v116
	.byte	W84
	.byte	W03
	.byte	W96
	.byte	W08
	.byte		EOT
	.byte	W01
	.byte		VOICE , 27
	.byte		TIE   , Ds3 
	.byte	W84
	.byte	W03
	.byte	W96
	.byte	W08
	.byte		EOT
	.byte	W01
	.byte	GOTO
	 .word	seq_000_0 + 0x43
	.byte	FINE

@*********************** Track 02 ***********************@

seq_000_1:
	.byte	KEYSH , seq_000_key+0
	.byte		VOL   , 85*seq_000_mvl/mxv
	.byte	W02
	.byte	W01
	.byte		XCMD  , xIECV , 40
	.byte	W01
	.byte	W01
	.byte		        xIECL , 3
	.byte	W01
	.byte		BENDR , 12
	.byte	W03
	.byte		LFOS  , 31
	.byte	W01
	.byte		LFODL , 14
	.byte	W01
	.byte		MODT  , mod_vib
	.byte	W01
	.byte		MOD   , 8
	.byte	W84
	.byte	W96
	.byte	W96
	.byte	W09
	.byte		VOICE , 6
	.byte		PAN   , c_v-64
	.byte		N03   , Ds5 , v056
	.byte	W07
	.byte		        Dn5 
	.byte	W05
	.byte		        Cs5 
	.byte	W07
	.byte		        Cn5 
	.byte	W05
	.byte		PAN   , c_v+63
	.byte		N03   , Bn4 
	.byte	W07
	.byte		        As4 
	.byte	W05
	.byte		        An4 
	.byte	W07
	.byte		        Gs4 
	.byte	W05
	.byte		PAN   , c_v+0
	.byte		N03   , Gn4 , v052
	.byte	W07
	.byte		        Fs4 
	.byte	W05
	.byte		        Fn4 
	.byte	W07
	.byte		        En4 
	.byte	W05
	.byte		N06   , En3 , v092
	.byte	W06
	.byte		        Fs3 
	.byte	W06
	.byte		        Gs3 
	.byte	W03
	.byte	W03
	.byte		        An3 
	.byte	W06
	.byte		N12   , Bn3 , v092
	.byte	W12
	.byte		        Ds3 
	.byte	W12
	.byte		        En3 
	.byte	W12
	.byte		N84   , Bn3 
	.byte	W48
	.byte	W03
	.byte	W32
	.byte	W01
	.byte		N07   , Bn3 , v072
	.byte	W07
	.byte		N05   , Bn3 , v040
	.byte	W05
	.byte		N12   , Bn3 , v092
	.byte	W12
	.byte		N07   , Cs4 
	.byte	W07
	.byte		N05   , Cs4 , v080
	.byte	W05
	.byte		N07   , Cs4 , v052
	.byte	W07
	.byte		N05   , Bn3 , v092
	.byte	W05
	.byte		N07   , Bn3 , v080
	.byte	W07
	.byte		N05   , Bn3 , v052
	.byte	W05
	.byte		N07   , As3 , v092
	.byte	W03
	.byte	W04
	.byte		N05   , As3 , v060
	.byte	W05
	.byte		N24   , As3 , v092
	.byte	W24
	.byte		N12   , Bn3 
	.byte	W12
	.byte		N36   , Gs3 
	.byte	W36
	.byte		N07   , Gs3 , v072
	.byte	W07
	.byte		N05   , Gs3 , v040
	.byte	W05
	.byte		N07   , Gs3 , v092
	.byte	W03
	.byte	W04
	.byte		N05   , As3 
	.byte	W05
	.byte		N24   , Fs3 
	.byte	W24
	.byte		N07   , Fs3 , v072
	.byte	W07
	.byte		N05   , Fs3 , v040
	.byte	W05
	.byte		N07   , Fs3 , v092
	.byte	W07
	.byte		N05   , Gs3 
	.byte	W05
	.byte		N19   , En3 
	.byte	W19
	.byte		N05   , En3 , v072
	.byte	W05
	.byte		N07   , En3 , v040
	.byte	W07
	.byte		N04   , Ds3 , v092
	.byte	W05
	.byte		N06   , En3 
	.byte	W03
	.byte	W04
	.byte		N04   , Fs3 
	.byte	W05
	.byte		N12   , Gs3 
	.byte	W12
	.byte		        Ds3 
	.byte	W12
	.byte		        En3 
	.byte	W12
	.byte		N84   , Bn3 
	.byte	W48
	.byte	W03
	.byte	W32
	.byte	W01
	.byte		N07   , Bn3 , v072
	.byte	W07
	.byte		N05   , Bn3 , v040
	.byte	W05
	.byte		N06   , As3 , v092
	.byte	W06
	.byte		        Bn3 
	.byte	W06
	.byte		N07   , Cs4 
	.byte	W07
	.byte		N05   , Cs4 , v080
	.byte	W05
	.byte		N07   , Cs4 , v052
	.byte	W07
	.byte		N05   , Bn3 , v092
	.byte	W05
	.byte		N07   , Bn3 , v080
	.byte	W07
	.byte		N05   , Bn3 , v052
	.byte	W05
	.byte		N07   , As3 , v092
	.byte	W03
	.byte	W04
	.byte		N05   , As3 , v060
	.byte	W05
	.byte		N24   , As3 , v092
	.byte	W24
	.byte		N12   , Bn3 
	.byte	W12
	.byte		N36   , Gs4 
	.byte	W36
	.byte		N07   , Gs4 , v072
	.byte	W07
	.byte		N05   , Gs4 , v040
	.byte	W05
	.byte		N07   , Fs4 , v092
	.byte	W03
	.byte	W04
	.byte		N05   , En4 
	.byte	W05
	.byte		N24   , Fs4 
	.byte	W24
	.byte		N07   , Fs4 , v072
	.byte	W07
	.byte		N05   , Fs4 , v040
	.byte	W05
	.byte		N06   , En4 , v092
	.byte	W06
	.byte		        Fs4 
	.byte	W06
	.byte		N24   , En4 
	.byte	W24
	.byte		        Ds4 
	.byte	W15
	.byte	W09
	.byte		N60   , Cs4 
	.byte	W60
	.byte		N12   , Cs4 , v080
	.byte	W12
	.byte		        Cs4 , v060
	.byte	W12
	.byte		        Cs4 , v040
	.byte	W03
	.byte	W44
	.byte	W01
	.byte		VOICE , 4
	.byte		N06   , Cs4 , v072
	.byte	W06
	.byte		        Ds4 
	.byte	W06
	.byte		N12   , En4 
	.byte	W12
	.byte		        Ds4 
	.byte	W12
	.byte		        Cs4 
	.byte	W12
	.byte		        Gs3 
	.byte	W03
	.byte	W09
	.byte		N48   , An3 
	.byte	W48
	.byte		        Bn3 
	.byte	W36
	.byte	W03
	.byte	W09
	.byte		N12   , Gs3 
	.byte	W12
	.byte		N07   , Bn4 
	.byte	W07
	.byte		N05   , Bn4 , v052
	.byte	W05
	.byte		N07   , Bn4 , v032
	.byte	W07
	.byte		N05   , An4 , v072
	.byte	W05
	.byte		N07   , An4 , v052
	.byte	W07
	.byte		N05   , An4 , v032
	.byte	W05
	.byte		N07   , Gs4 , v072
	.byte	W07
	.byte		N05   , Gs4 , v052
	.byte	W05
	.byte		N07   , Gs4 , v032
	.byte	W07
	.byte		N05   , Fs4 , v072
	.byte	W05
	.byte		N07   , Fs4 , v052
	.byte	W07
	.byte		N05   , Fs4 , v032
	.byte	W05
	.byte		N07   , En4 , v072
	.byte	W03
	.byte	W04
	.byte		N05   , En4 , v052
	.byte	W05
	.byte		N18   , En4 , v092
	.byte	W18
	.byte		N17   , Ds4 
	.byte	W18
	.byte		N11   , Cs4 , v080
	.byte	W12
	.byte		N18   , Fs4 , v092
	.byte	W18
	.byte		N17   , En4 
	.byte	W18
	.byte		N09   , Ds4 , v080
	.byte	W03
	.byte	W09
	.byte		N18   , Ds4 , v092
	.byte	W18
	.byte		N17   , En4 
	.byte	W18
	.byte		N11   , Fs4 , v080
	.byte	W12
	.byte		N18   , Bn3 , v092
	.byte	W18
	.byte		N17   , Ds4 
	.byte	W18
	.byte		N60   , Cs4 , v080
	.byte	W03
	.byte	W56
	.byte	W03
	.byte		N04   , Cs4 , v052
	.byte	W04
	.byte		VOICE , 6
	.byte		N03   , Cs3 , v080
	.byte	W06
	.byte		        Fs3 
	.byte	W06
	.byte		        As3 
	.byte	W06
	.byte		        Cs4 
	.byte	W06
	.byte		        Ds4 
	.byte	W06
	.byte		        Fs4 
	.byte	W03
	.byte	W03
	.byte		        As3 
	.byte	W06
	.byte		VOICE , 4
	.byte		N12   , Cn4 , v100
	.byte	W12
	.byte		        Cn4 , v072
	.byte	W12
	.byte		        Cn4 , v040
	.byte	W24
	.byte		VOICE , 2
	.byte		PAN   , c_v-64
	.byte		N03   , Ds3 , v112
	.byte	W07
	.byte		        Gs3 
	.byte	W05
	.byte		        Cn4 
	.byte	W07
	.byte		        Ds4 
	.byte	W05
	.byte		PAN   , c_v+63
	.byte		N03   , Gs3 
	.byte	W07
	.byte		        Cn4 
	.byte	W05
	.byte		        Ds4 
	.byte	W03
	.byte	W04
	.byte		        Gs3 
	.byte	W05
	.byte		PAN   , c_v-64
	.byte		N03   , Bn2 , v100
	.byte	W07
	.byte		        En3 
	.byte	W05
	.byte		        Gs3 
	.byte	W07
	.byte		        Gs3 , v040
	.byte	W05
	.byte		PAN   , c_v+63
	.byte		N03   , Gs2 , v100
	.byte	W07
	.byte		        Bn2 
	.byte	W05
	.byte		        Cs3 
	.byte	W07
	.byte		        En3 
	.byte	W05
	.byte		PAN   , c_v-64
	.byte		N03   , Bn3 
	.byte	W07
	.byte		        Bn3 , v040
	.byte	W05
	.byte		        En3 , v020
	.byte	W07
	.byte		        Bn3 , v100
	.byte	W05
	.byte		PAN   , c_v+63
	.byte		N03   , Bn3 , v040
	.byte	W07
	.byte		        Bn3 , v020
	.byte	W05
	.byte		        Bn3 , v100
	.byte	W03
	.byte	W04
	.byte		        Bn3 , v040
	.byte	W05
	.byte		PAN   , c_v-64
	.byte		N03   , Fs3 , v100
	.byte	W07
	.byte		        Bn2 
	.byte	W05
	.byte		        En3 
	.byte	W07
	.byte		        En3 , v040
	.byte	W05
	.byte		PAN   , c_v+63
	.byte		N03   , Fs3 , v100
	.byte	W07
	.byte		        Gs3 
	.byte	W05
	.byte		        Gs2 
	.byte	W07
	.byte		        Bn3 
	.byte	W05
	.byte		PAN   , c_v-64
	.byte		N03
	.byte	W07
	.byte		        Bn3 , v040
	.byte	W05
	.byte		        Bn3 , v100
	.byte	W07
	.byte		        Cs4 
	.byte	W05
	.byte		PAN   , c_v+63
	.byte		N03   , Cs4 , v040
	.byte	W07
	.byte		        Bn3 , v100
	.byte	W05
	.byte		        Gs3 
	.byte	W03
	.byte	W04
	.byte		        Gs3 , v040
	.byte	W05
	.byte		PAN   , c_v-64
	.byte		N03   , Bn2 , v100
	.byte	W07
	.byte		        En3 
	.byte	W05
	.byte		        Gs3 
	.byte	W07
	.byte		        Gs3 , v040
	.byte	W05
	.byte		PAN   , c_v+63
	.byte		N03   , Gs2 , v100
	.byte	W07
	.byte		        Bn2 
	.byte	W05
	.byte		        Cs3 
	.byte	W07
	.byte		        En3 
	.byte	W05
	.byte		PAN   , c_v-64
	.byte		N03   , Bn3 
	.byte	W07
	.byte		        Bn3 , v040
	.byte	W05
	.byte		        En3 , v020
	.byte	W07
	.byte		        Bn3 , v100
	.byte	W05
	.byte		PAN   , c_v+63
	.byte		N03   , Bn3 , v040
	.byte	W07
	.byte		        Bn3 , v020
	.byte	W05
	.byte		        Bn3 , v100
	.byte	W03
	.byte	W04
	.byte		        Bn3 , v040
	.byte	W05
	.byte		PAN   , c_v-64
	.byte		N03   , Fs3 , v100
	.byte	W07
	.byte		        Bn2 
	.byte	W05
	.byte		        En3 
	.byte	W07
	.byte		        En3 , v040
	.byte	W05
	.byte		PAN   , c_v+63
	.byte		N03   , Fs3 , v100
	.byte	W07
	.byte		        Gs3 
	.byte	W05
	.byte		        Gs2 
	.byte	W07
	.byte		        Bn3 
	.byte	W05
	.byte		PAN   , c_v-64
	.byte		N03
	.byte	W07
	.byte		        Bn3 , v040
	.byte	W05
	.byte		        Bn3 , v100
	.byte	W07
	.byte		        Cs4 
	.byte	W05
	.byte		VOICE , 6
	.byte		PAN   , c_v+0
	.byte		N06   , En3 
	.byte	W06
	.byte		        Fs3 
	.byte	W06
	.byte		        Gs3 
	.byte	W03
	.byte	W03
	.byte		N05   , An3 
	.byte	W06
	.byte	GOTO
	 .word	seq_000_1 + 0x50
	.byte	FINE

@*********************** Track 03 ***********************@

seq_000_2:
	.byte	KEYSH , seq_000_key+0
	.byte		VOL   , 120*seq_000_mvl/mxv
	.byte	W01
	.byte		PAN   , c_v+0
	.byte	W01
	.byte	W01
	.byte		XCMD  , xIECV , 20
	.byte	W01
	.byte	W01
	.byte		        xIECL , 2
	.byte	W01
	.byte		VOICE , 0
	.byte	W03
	.byte		N36   , Cs2 , v052
	.byte		N05   , Dn4 , v120
	.byte	W48
	.byte		N01   , Fs1 , v052
	.byte	W07
	.byte		        Fs1 , v040
	.byte	W05
	.byte		        As1 
	.byte	W12
	.byte		        Fs1 , v052
	.byte	W07
	.byte		        Fs1 , v040
	.byte	W05
	.byte		        As1 
	.byte		N05   , En4 , v060
	.byte	W03
	.byte	W03
	.byte		N05
	.byte	W06
	.byte		N01   , Fs1 , v052
	.byte	W07
	.byte		        Fs1 , v040
	.byte	W05
	.byte		        As1 
	.byte	W12
	.byte		        Fs1 , v052
	.byte	W07
	.byte		        Fs1 , v040
	.byte	W05
	.byte		        As1 
	.byte	W12
	.byte		        Fs1 , v052
	.byte	W07
	.byte		        Fs1 , v040
	.byte	W05
	.byte		        As1 
	.byte	W12
	.byte		        Fs1 , v052
	.byte	W07
	.byte		        Fs1 , v040
	.byte	W05
	.byte		        Fs1 , v052
	.byte		N05   , Dn4 , v100
	.byte	W03
	.byte	W01
	.byte		N01   , Fs1 , v052
	.byte	W04
	.byte		        Fs1 , v040
	.byte	W04
	.byte		N23   , Cs2 , v052
	.byte		N05   , Dn4 , v120
	.byte	W24
	.byte		N01   , Fs1 , v052
	.byte	W07
	.byte		        Fs1 , v040
	.byte	W05
	.byte		        As1 
	.byte	W12
	.byte		        Fs1 , v052
	.byte	W07
	.byte		        Fs1 , v040
	.byte	W05
	.byte		        As1 
	.byte		N05   , En4 , v060
	.byte	W07
	.byte		N05
	.byte	W05
	.byte		N01   , Fs1 , v052
	.byte	W07
	.byte		        Fs1 , v040
	.byte	W05
	.byte		        As1 
	.byte		N07   , Fn3 , v080
	.byte	W03
	.byte	W09
	.byte		N01   , Fs1 , v052
	.byte		N05   , En3 
	.byte	W07
	.byte		N01   , Fs1 , v040
	.byte	W05
	.byte		        As1 
	.byte	W12
	.byte		        Fs1 , v052
	.byte	W04
	.byte		N01
	.byte	W04
	.byte		        Fs1 , v040
	.byte	W04
	.byte		        As1 
	.byte	W12
	.byte		        Fs1 , v052
	.byte	W07
	.byte		        Fs1 , v040
	.byte	W05
	.byte		        Fs1 , v052
	.byte	W07
	.byte		        Fs1 , v040
	.byte	W05
	.byte		N23   , Bn1 , v052
	.byte	W15
	.byte	W09
	.byte		N28   , Cs2 , v052
	.byte		N05   , Dn4 , v120
	.byte	W12
	.byte		N03   , Fs4 , v072
	.byte	W07
	.byte		        Gn4 
	.byte	W05
	.byte		N06   , Ds4 , v127
	.byte	W06
	.byte		N01   , Fs1 , v040
	.byte	W06
	.byte		        Fs1 , v060
	.byte		N05   , Dn4 , v120
	.byte	W06
	.byte		N01   , Fs1 , v040
	.byte	W06
	.byte		        Fs1 , v052
	.byte		N05   , Fs4 , v072
	.byte	W06
	.byte		N01   , Fs1 , v040
	.byte	W06
	.byte		        As1 , v052
	.byte		N06   , Ds4 , v127
	.byte	W12
	.byte		N01   , Fs1 , v052
	.byte		N03   , Cs4 , v072
	.byte	W06
	.byte		N01   , Fs1 , v040
	.byte	W01
	.byte		N03   , Cs4 , v080
	.byte	W05
	.byte		N01   , As1 , v052
	.byte		N03   , Cn4 , v072
	.byte	W03
	.byte	W04
	.byte		N03   , Bn3 , v052
	.byte	W05
	.byte		N01   , Fs1 
	.byte		N05   , Dn4 , v120
	.byte	W06
	.byte		N01   , Fs1 , v040
	.byte	W06
	.byte		        Fs1 , v060
	.byte		N03   , Fs4 , v072
	.byte	W06
	.byte		N01   , Fs1 , v040
	.byte	W01
	.byte		N03   , Gn4 , v072
	.byte	W05
	.byte		N01   , As1 , v052
	.byte		N06   , Ds4 , v127
	.byte	W12
	.byte		N01   , Fs1 , v060
	.byte		N06   , Dn4 , v127
	.byte	W06
	.byte		N01   , Fs1 , v040
	.byte	W01
	.byte		N05   , Dn4 , v120
	.byte	W05
	.byte		N01   , Fs1 , v052
	.byte		N05   , Gn4 , v072
	.byte	W06
	.byte		N01   , Fs1 , v040
	.byte	W06
	.byte		        As1 , v052
	.byte		N06   , Dn4 , v120
	.byte	W12
	.byte		N01   , Fs1 , v052
	.byte		N03   , Ds4 , v127
	.byte	W06
	.byte		N01   , Fs1 , v040
	.byte	W01
	.byte		N03   , Fn4 , v080
	.byte	W05
	.byte		N01   , Fs1 , v060
	.byte		N06   , Ds4 , v120
	.byte	W03
	.byte	PEND
	.byte	W03
	.byte		N01   , Fs1 , v040
	.byte	W01
	.byte		N03   , Bn3 , v052
	.byte	W05
	.byte		N01   , Fs1 
	.byte		N05   , Dn4 , v120
	.byte	W06
	.byte		N01   , Fs1 , v040
	.byte	W06
	.byte		        Fs1 , v060
	.byte		N03   , Fs4 , v072
	.byte	W06
	.byte		N01   , Fs1 , v040
	.byte	W01
	.byte		N03   , Gn4 , v072
	.byte	W05
	.byte		N01   , Fs1 , v052
	.byte		N06   , Ds4 , v127
	.byte	W06
	.byte		N01   , Fs1 , v040
	.byte	W06
	.byte		        Fs1 , v060
	.byte		N05   , Dn4 , v120
	.byte	W06
	.byte		N01   , Fs1 , v040
	.byte	W06
	.byte		        Fs1 , v052
	.byte		N05   , Fs4 , v072
	.byte	W06
	.byte		N01   , Fs1 , v040
	.byte	W06
	.byte		        As1 , v052
	.byte		N06   , Ds4 , v127
	.byte	W12
	.byte		N01   , Fs1 , v052
	.byte		N03   , Cs4 , v072
	.byte	W06
	.byte		N01   , Fs1 , v040
	.byte	W01
	.byte		N03   , Cs4 , v080
	.byte	W05
	.byte		N01   , As1 , v052
	.byte		N03   , Cn4 , v072
	.byte	W03
	.byte	PEND
	.byte	W04
	.byte		        Bn3 , v052
	.byte	W05
	.byte		N01   , Fs1 
	.byte		N05   , Dn4 , v120
	.byte	W06
	.byte		N01   , Fs1 , v040
	.byte	W06
	.byte		        Fs1 , v060
	.byte		N03   , Fs4 , v072
	.byte	W06
	.byte		N01   , Fs1 , v040
	.byte	W01
	.byte		N03   , Gn4 , v072
	.byte	W05
	.byte		N01   , As1 , v052
	.byte		N06   , Ds4 , v127
	.byte	W12
	.byte		N01   , Fs1 , v060
	.byte		N05   , Dn4 , v120
	.byte	W06
	.byte		N01   , Fs1 , v040
	.byte	W06
	.byte		        Fs1 , v052
	.byte		N05   , Fn4 , v072
	.byte	W06
	.byte		N01   , Fs1 , v040
	.byte	W06
	.byte		        Fs1 , v060
	.byte		N06   , Ds4 , v127
	.byte	W06
	.byte		N01   , Fs1 , v040
	.byte	W06
	.byte		        Fs1 , v052
	.byte		N03   , Cs4 , v072
	.byte	W06
	.byte		N01   , Fs1 , v040
	.byte	W01
	.byte		N03   , Cs4 , v080
	.byte	W05
	.byte		N01   , As1 , v052
	.byte		N03   , Cn4 , v072
	.byte	W03
	.byte	W04
	.byte		        Bn3 , v052
	.byte	W05
	.byte		N28   , Cs2 
	.byte		N05   , Dn4 , v120
	.byte	W12
	.byte		N03   , Fs4 , v072
	.byte	W07
	.byte		        Gn4 
	.byte	W05
	.byte		N06   , Ds4 , v127
	.byte	W06
	.byte		N01   , Fs1 , v040
	.byte	W06
	.byte		        Fs1 , v060
	.byte		N05   , Dn4 , v120
	.byte	W06
	.byte		N01   , Fs1 , v040
	.byte	W06
	.byte		        Fs1 , v052
	.byte		N05   , Fs4 , v072
	.byte	W06
	.byte		N01   , Fs1 , v040
	.byte	W06
	.byte		        As1 , v052
	.byte		N06   , Ds4 , v127
	.byte	W12
	.byte		N01   , Fs1 , v052
	.byte		N03   , Cs4 , v072
	.byte	W06
	.byte		N01   , Fs1 , v040
	.byte	W01
	.byte		N03   , Cs4 , v080
	.byte	W05
	.byte		N01   , As1 , v052
	.byte		N03   , Cn4 , v072
	.byte	W03
	.byte	PATT
	 .word	seq_000_2 + 0xF5
	.byte	PATT
	 .word	seq_000_2 + 0x150
	.byte	W04
	.byte		N03   , Bn3 , v052
	.byte	W05
	.byte		N01   , Fs1 
	.byte		N05   , Dn4 , v120
	.byte	W06
	.byte		N01   , Fs1 , v040
	.byte	W06
	.byte		        Fs1 , v060
	.byte		N03   , Fs4 , v072
	.byte	W06
	.byte		N01   , Fs1 , v040
	.byte	W01
	.byte		N03   , Gn4 , v072
	.byte	W05
	.byte		N01   , As1 , v052
	.byte		N06   , Ds4 , v127
	.byte	W12
	.byte		N01   , Fs1 , v060
	.byte		N05   , Dn4 , v120
	.byte	W06
	.byte		N01   , Fs1 , v040
	.byte	W06
	.byte		        Fs1 , v052
	.byte		N05   , Fs3 , v092
	.byte	W06
	.byte		N01   , Fs1 , v040
	.byte	W06
	.byte		        Fs1 , v060
	.byte		N06   , Ds4 , v127
	.byte	W06
	.byte		N01   , Fs1 , v040
	.byte	W06
	.byte		        Fs1 , v060
	.byte		N03   , Fn3 , v092
	.byte	W04
	.byte		N01   , Fs1 , v052
	.byte	W03
	.byte		N03   , Fn3 , v092
	.byte	W01
	.byte		N01   , Fs1 , v040
	.byte	W04
	.byte		        As1 
	.byte		N10   , En3 , v112
	.byte	W03
	.byte	W09
	.byte		N28   , Cs2 , v052
	.byte		N05   , Dn4 , v120
	.byte	W12
	.byte		N03   , Fs4 , v072
	.byte	W07
	.byte		        Gn4 
	.byte	W05
	.byte		N06   , Ds4 , v127
	.byte	W06
	.byte		N01   , Fs1 , v040
	.byte	W06
	.byte		        Fs1 , v060
	.byte		N05   , Dn4 , v120
	.byte	W06
	.byte		N01   , Fs1 , v040
	.byte	W06
	.byte		        Fs1 , v052
	.byte		N05   , Fs4 , v072
	.byte	W06
	.byte		N01   , Fs1 , v040
	.byte	W06
	.byte		        As1 , v052
	.byte		N06   , Ds4 , v127
	.byte	W12
	.byte		N01   , Fs1 , v052
	.byte		N03   , Cs4 , v072
	.byte	W06
	.byte		N01   , Fs1 , v040
	.byte	W01
	.byte		N03   , Cs4 , v080
	.byte	W05
	.byte		N01   , As1 , v052
	.byte		N03   , Cn4 , v072
	.byte	W03
	.byte	PATT
	 .word	seq_000_2 + 0xF5
	.byte	PATT
	 .word	seq_000_2 + 0x150
	.byte	W04
	.byte		N03   , Bn3 , v052
	.byte	W05
	.byte		N01   , Fs1 
	.byte		N05   , Dn4 , v120
	.byte	W06
	.byte		N01   , Fs1 , v040
	.byte	W06
	.byte		        Fs1 , v060
	.byte		N03   , Fs4 , v072
	.byte	W06
	.byte		N01   , Fs1 , v040
	.byte	W01
	.byte		N03   , Gn4 , v072
	.byte	W05
	.byte		N01   , As1 , v052
	.byte		N06   , Ds4 , v127
	.byte	W12
	.byte		N01   , Fs1 , v060
	.byte		N05   , Dn4 , v120
	.byte	W06
	.byte		N01   , Fs1 , v040
	.byte	W06
	.byte		        Fs1 , v052
	.byte		N05   , Fn4 , v072
	.byte	W06
	.byte		N01   , Fs1 , v040
	.byte	W06
	.byte		        Fs1 , v060
	.byte		N06   , Fn3 , v092
	.byte	W06
	.byte		N01   , Fs1 , v040
	.byte	W06
	.byte		        Fs1 , v052
	.byte		N03   , Ds4 , v120
	.byte	W04
	.byte		N01   , Fs1 , v052
	.byte	W03
	.byte		N03   , Ds4 , v100
	.byte	W01
	.byte		N01   , Fs1 , v040
	.byte	W04
	.byte		        As1 , v052
	.byte		N03   , Ds4 , v120
	.byte	W03
	.byte	W04
	.byte		N03   , Ds4 , v127
	.byte	W05
	.byte		N28   , Cs2 , v052
	.byte		N05   , Dn4 , v120
	.byte	W12
	.byte		N03   , Fs4 , v072
	.byte	W07
	.byte		        Gn4 
	.byte	W05
	.byte		N06   , Ds4 , v127
	.byte	W06
	.byte		N01   , Fs1 , v040
	.byte	W06
	.byte		        Fs1 , v060
	.byte		N05   , Dn4 , v120
	.byte	W06
	.byte		N01   , Fs1 , v040
	.byte	W06
	.byte		        Fs1 , v052
	.byte		N05   , Fs4 , v072
	.byte	W06
	.byte		N01   , Fs1 , v040
	.byte	W06
	.byte		        As1 , v052
	.byte		N06   , Ds4 , v127
	.byte	W12
	.byte		N01   , Fs1 , v052
	.byte		N03   , Cs4 , v072
	.byte	W06
	.byte		N01   , Fs1 , v040
	.byte	W01
	.byte		N03   , Cs4 , v080
	.byte	W05
	.byte		N01   , As1 , v052
	.byte		N03   , Cn4 , v072
	.byte	W03
	.byte	PEND
	.byte	PATT
	 .word	seq_000_2 + 0xF5
	.byte	W03
	.byte		N01   , Fs1 , v040
	.byte	W01
	.byte		N03   , Bn3 , v052
	.byte	W05
	.byte		N01   , Fs1 
	.byte		N05   , Dn4 , v120
	.byte	W06
	.byte		N01   , Fs1 , v040
	.byte	W06
	.byte		        Fs1 , v060
	.byte		N03   , Fs4 , v072
	.byte	W06
	.byte		N01   , Fs1 , v040
	.byte	W01
	.byte		N03   , Gn4 , v072
	.byte	W05
	.byte		N01   , As1 , v052
	.byte		N06   , Ds4 , v127
	.byte	W12
	.byte		N01   , Fs1 , v060
	.byte		N05   , Dn4 , v120
	.byte	W06
	.byte		N01   , Fs1 , v040
	.byte	W06
	.byte		        Fs1 , v052
	.byte		N05   , Fs4 , v072
	.byte	W04
	.byte		N01   , Fs1 , v060
	.byte	W04
	.byte		        Fs1 , v040
	.byte	W04
	.byte		        As1 , v052
	.byte		N06   , Ds4 , v127
	.byte	W12
	.byte		N24   , Bn1 , v052
	.byte		N03   , Fn3 , v092
	.byte	W07
	.byte		        Fs3 
	.byte	W05
	.byte		        Fn3 
	.byte	W03
	.byte	W04
	.byte		        En3 
	.byte	W05
	.byte		N32   , Cs2 , v052
	.byte		N05   , Dn4 , v120
	.byte	W24
	.byte		N03   , Dn4 , v127
	.byte	W07
	.byte		N03
	.byte	W05
	.byte		N01   , Fs1 , v060
	.byte		N05   , Dn4 , v120
	.byte	W04
	.byte		N01   , Fs1 , v060
	.byte	W04
	.byte		        Fs1 , v040
	.byte	W04
	.byte		N11   , As1 , v052
	.byte		N05   , Ds4 , v127
	.byte	W07
	.byte		N05
	.byte	W05
	.byte		N01   , Fs1 , v060
	.byte		N05   , Ds4 , v127
	.byte	W06
	.byte		N01   , Fs1 , v040
	.byte	W06
	.byte		N23   , Bn1 , v052
	.byte	W07
	.byte		N03   , Ds4 , v127
	.byte	W05
	.byte		N03
	.byte	W03
	.byte	PATT
	 .word	seq_000_2 + 0x35B
	.byte	PATT
	 .word	seq_000_2 + 0xF5
	.byte	PATT
	 .word	seq_000_2 + 0x150
	.byte	W04
	.byte		N03   , Bn3 , v052
	.byte	W05
	.byte		N01   , Fs1 
	.byte		N05   , Dn4 , v120
	.byte	W06
	.byte		N01   , Fs1 , v040
	.byte	W06
	.byte		        Fs1 , v060
	.byte		N03   , Fs4 , v072
	.byte	W06
	.byte		N01   , Fs1 , v040
	.byte	W01
	.byte		N03   , Gn4 , v072
	.byte	W05
	.byte		N01   , As1 , v052
	.byte		N06   , Ds4 , v127
	.byte	W12
	.byte		N01   , Fs1 , v060
	.byte		N05   , Dn4 , v120
	.byte	W06
	.byte		N01   , Fs1 , v040
	.byte	W06
	.byte		        Fs1 , v052
	.byte		N05   , Fn3 , v100
	.byte	W06
	.byte		N01   , Fs1 , v040
	.byte	W06
	.byte		        Fs1 , v060
	.byte		N06   , Ds4 , v127
	.byte	W06
	.byte		N01   , Fs1 , v040
	.byte	W06
	.byte		        Fs1 , v052
	.byte		N03   , Fs3 , v092
	.byte	W06
	.byte		N01   , Fs1 , v040
	.byte	W01
	.byte		N03   , Fs3 , v092
	.byte	W05
	.byte		N01   , As1 , v052
	.byte		N10   , En3 , v100
	.byte	W03
	.byte	W09
	.byte	GOTO
	 .word	seq_000_2 + 0xB0
	.byte	FINE

@*********************** Track 04 ***********************@

seq_000_3:
	.byte	KEYSH , seq_000_key+0
	.byte		VOL   , 94*seq_000_mvl/mxv
	.byte	W01
	.byte		VOICE , 5
	.byte	W01
	.byte	W01
	.byte		XCMD  , xIECV , 40
	.byte	W01
	.byte	W01
	.byte		        xIECL , 3
	.byte	W01
	.byte		BENDR , 12
	.byte	W03
	.byte		N02   , Bn1 , v120
	.byte	W06
	.byte		        Cs2 
	.byte	W06
	.byte		        Cs2 , v080
	.byte	W06
	.byte		        Cs2 , v040
	.byte	W06
	.byte		        Cs3 , v120
	.byte	W06
	.byte		        Cs3 , v080
	.byte	W06
	.byte		N06   , Bn2 , v120
	.byte	W06
	.byte		N05   , Cs3 
	.byte	W06
	.byte		N06   , Cs3 , v080
	.byte	W06
	.byte		N01   , Cs2 , v127
	.byte	W06
	.byte		N07   , En2 
	.byte	W12
	.byte		N11   , Fs2 
	.byte	W12
	.byte		        Gs2 , v120
	.byte	W03
	.byte	W09
	.byte		N02   , Bn1 
	.byte	W06
	.byte		        Cs2 
	.byte	W06
	.byte		        Cs2 , v080
	.byte	W06
	.byte		        Cs2 , v040
	.byte	W06
	.byte		        Cs3 , v120
	.byte	W06
	.byte		        Cs3 , v080
	.byte	W06
	.byte		N06   , Bn2 , v120
	.byte	W06
	.byte		N05   , Cs3 
	.byte	W06
	.byte		N06   , Cs3 , v080
	.byte	W06
	.byte		N01   , Cs2 , v127
	.byte	W06
	.byte		N07   , En2 
	.byte	W12
	.byte		N11   , Fs2 
	.byte	W12
	.byte		        En2 , v120
	.byte	W03
	.byte	W09
	.byte		N02   , Bn1 
	.byte	W06
	.byte		        Cs2 
	.byte	W06
	.byte		        Cs2 , v080
	.byte	W06
	.byte		        Cs2 , v040
	.byte	W06
	.byte		        Cs3 , v120
	.byte	W06
	.byte		        Cs3 , v080
	.byte	W06
	.byte		N06   , Bn2 , v120
	.byte	W06
	.byte		N05   , Cs3 
	.byte	W06
	.byte		N06   , Cs3 , v080
	.byte	W06
	.byte		N01   , Cs2 , v127
	.byte	W06
	.byte		N07   , En2 
	.byte	W12
	.byte		N11   , Fs2 
	.byte	W12
	.byte		        Gs2 , v120
	.byte	W03
	.byte	W09
	.byte		N02   , Bn1 
	.byte	W06
	.byte		        Cs2 
	.byte	W06
	.byte		        Cs2 , v080
	.byte	W06
	.byte		        Cs2 , v040
	.byte	W06
	.byte		        Cs3 , v120
	.byte	W06
	.byte		        Cs3 , v080
	.byte	W06
	.byte		N06   , Bn2 , v120
	.byte	W06
	.byte		N05   , Cs3 
	.byte	W06
	.byte		N06   , Cs3 , v080
	.byte	W06
	.byte		N01   , Cs2 , v127
	.byte	W06
	.byte		N02   , En2 
	.byte	W06
	.byte		        Fs2 , v120
	.byte	W06
	.byte		N10   , Gs2 
	.byte	W12
	.byte		N11   , Bn1 , v127
	.byte	W03
	.byte	W03
	.byte		BEND  , c_v-3
	.byte	W01
	.byte		        c_v-4
	.byte	W02
	.byte		        c_v-6
	.byte	W03
	.byte		BEND  , c_v+0
	.byte		N02   , Bn1 , v120
	.byte	W06
	.byte		        Cs2 
	.byte	W06
	.byte		        Cs2 , v080
	.byte	W06
	.byte		        Cs2 , v040
	.byte	W06
	.byte		        Cs3 , v120
	.byte	W06
	.byte		        Cs3 , v080
	.byte	W06
	.byte		N06   , Bn2 , v120
	.byte	W06
	.byte		N05   , Cs3 
	.byte	W06
	.byte		N06   , Cs3 , v080
	.byte	W06
	.byte		N01   , Cs2 , v127
	.byte	W06
	.byte		N07   , En2 
	.byte	W12
	.byte		N11   , Fs2 
	.byte	W12
	.byte		        Gs2 , v120
	.byte	W03
	.byte	W09
	.byte		N02   , Bn1 , v120
	.byte	W06
	.byte		        Cs2 
	.byte	W06
	.byte		        Cs2 , v080
	.byte	W06
	.byte		        Cs2 , v040
	.byte	W06
	.byte		        Cs3 , v120
	.byte	W06
	.byte		        Cs3 , v080
	.byte	W06
	.byte		N06   , Bn2 , v120
	.byte	W06
	.byte		N05   , Cs3 
	.byte	W06
	.byte		N06   , Cs3 , v080
	.byte	W06
	.byte		N01   , Cs2 , v127
	.byte	W06
	.byte		N11   , En2 
	.byte	W12
	.byte		        Fs2 
	.byte	W12
	.byte		        En2 , v120
	.byte	W03
	.byte	PEND
	.byte	W09
	.byte		N02   , Bn1 , v120
	.byte	W06
	.byte		        Cs2 
	.byte	W06
	.byte		        Cs2 , v080
	.byte	W06
	.byte		        Cs2 , v040
	.byte	W06
	.byte		        Cs3 , v120
	.byte	W06
	.byte		        Cs3 , v080
	.byte	W06
	.byte		N06   , Bn2 , v120
	.byte	W06
	.byte		N05   , Cs3 
	.byte	W06
	.byte		N06   , Cs3 , v080
	.byte	W06
	.byte		N01   , Cs2 , v127
	.byte	W06
	.byte		N11   , En2 
	.byte	W12
	.byte		        Fs2 
	.byte	W12
	.byte		        Gs2 , v120
	.byte	W03
	.byte	PEND
	.byte	W09
	.byte		N02   , Bn1 
	.byte	W06
	.byte		        Cs2 
	.byte	W06
	.byte		        Cs2 , v080
	.byte	W06
	.byte		        Cs2 , v040
	.byte	W06
	.byte		        Cs3 , v120
	.byte	W06
	.byte		        Cs3 , v080
	.byte	W06
	.byte		N06   , Bn2 , v120
	.byte	W06
	.byte		N05   , Cs3 
	.byte	W06
	.byte		N06   , Cs3 , v080
	.byte	W06
	.byte		        Cs2 , v127
	.byte	W06
	.byte		N01   , En2 , v120
	.byte	W06
	.byte		N02   , Cs2 
	.byte	W06
	.byte		        Fs2 
	.byte	W06
	.byte		        En2 
	.byte	W06
	.byte		        An2 
	.byte	W03
	.byte	W03
	.byte		        Gs2 
	.byte	W06
	.byte		        Bn1 
	.byte	W06
	.byte		        Cs2 
	.byte	W06
	.byte		        Cs2 , v080
	.byte	W06
	.byte		        Cs2 , v040
	.byte	W06
	.byte		        Cs3 , v120
	.byte	W06
	.byte		        Cs3 , v080
	.byte	W06
	.byte		N06   , Bn2 , v120
	.byte	W06
	.byte		N05   , Cs3 
	.byte	W06
	.byte		N06   , Cs3 , v080
	.byte	W06
	.byte		N01   , Cs2 , v127
	.byte	W06
	.byte		N11   , En2 
	.byte	W12
	.byte		        Fs2 
	.byte	W12
	.byte		        Gs2 , v120
	.byte	W03
	.byte	PATT
	 .word	seq_000_3 + 0xF4
	.byte	PATT
	 .word	seq_000_3 + 0x11F
	.byte	W09
	.byte		N02   , Bn1 , v120
	.byte	W06
	.byte		        Cs2 
	.byte	W06
	.byte		        Cs2 , v080
	.byte	W06
	.byte		        Cs2 , v040
	.byte	W06
	.byte		        Cs3 , v120
	.byte	W06
	.byte		        Cs3 , v080
	.byte	W06
	.byte		N06   , Bn2 , v120
	.byte	W06
	.byte		N05   , Cs3 
	.byte	W06
	.byte		N06   , Cs3 , v080
	.byte	W06
	.byte		N01   , Cs2 , v127
	.byte	W06
	.byte		N11   , En2 
	.byte	W12
	.byte		N02   , Fs2 
	.byte	W06
	.byte		        En2 
	.byte	W06
	.byte		        Ds2 , v120
	.byte	W03
	.byte	W03
	.byte		N02   , Bn1 , v120
	.byte	W06
	.byte		        Gn1 
	.byte	W06
	.byte		        An1 
	.byte	W06
	.byte		        An1 , v080
	.byte	W06
	.byte		        An1 , v040
	.byte	W06
	.byte		        An2 , v120
	.byte	W06
	.byte		        An2 , v080
	.byte	W06
	.byte		N06   , Gn2 , v120
	.byte	W06
	.byte		N05   , An2 
	.byte	W06
	.byte		N02   , An1 
	.byte	W06
	.byte		        Bn1 
	.byte	W06
	.byte		        Bn1 , v080
	.byte	W06
	.byte		        Bn1 , v040
	.byte	W06
	.byte		        Bn2 , v120
	.byte	W06
	.byte		        Bn2 , v080
	.byte	W06
	.byte		N06   , An2 , v120
	.byte	W03
	.byte	PEND
	.byte	W03
	.byte		N05   , Bn2 , v120
	.byte	W06
	.byte		N02   , Bn1 
	.byte	W06
	.byte		        Cs2 
	.byte	W06
	.byte		        Cs2 , v080
	.byte	W06
	.byte		        Cs2 , v040
	.byte	W06
	.byte		        Cs3 , v120
	.byte	W06
	.byte		        Cs3 , v080
	.byte	W06
	.byte		N06   , Bn2 , v120
	.byte	W06
	.byte		N05   , Cs3 
	.byte	W06
	.byte		N06   , Cs3 , v080
	.byte	W06
	.byte		N01   , Cs2 , v127
	.byte	W06
	.byte		N11   , En2 
	.byte	W12
	.byte		        Fs2 
	.byte	W12
	.byte		        Gs2 , v120
	.byte	W03
	.byte	PEND
	.byte	W02
	.byte		BEND  , c_v-3
	.byte	W01
	.byte		        c_v-4
	.byte	W03
	.byte		        c_v-6
	.byte	W03
	.byte		        c_v+0
	.byte		N02   , Gn1 
	.byte	W06
	.byte		        An1 
	.byte	W06
	.byte		        An1 , v080
	.byte	W06
	.byte		        An1 , v040
	.byte	W06
	.byte		        An2 , v120
	.byte	W06
	.byte		        An2 , v080
	.byte	W06
	.byte		N06   , Gn2 , v120
	.byte	W06
	.byte		N05   , An2 
	.byte	W06
	.byte		N02   , An1 
	.byte	W06
	.byte		        Bn1 
	.byte	W06
	.byte		        Bn1 , v080
	.byte	W06
	.byte		        Bn1 , v040
	.byte	W06
	.byte		        Bn2 , v120
	.byte	W06
	.byte		        Bn2 , v080
	.byte	W06
	.byte		        An2 , v120
	.byte	W03
	.byte	W03
	.byte		        Bn2 
	.byte	W06
	.byte		        Dn2 
	.byte	W06
	.byte		        En2 
	.byte	W06
	.byte		        En2 , v080
	.byte	W06
	.byte		        En2 , v040
	.byte	W06
	.byte		        En2 , v120
	.byte	W06
	.byte		        En2 , v080
	.byte	W06
	.byte		N06   , Ds2 , v120
	.byte	W06
	.byte		N05   , En2 
	.byte	W06
	.byte		N06   , En2 , v080
	.byte	W06
	.byte		N01   , En2 , v127
	.byte	W06
	.byte		N02   , Fs2 
	.byte	W06
	.byte		        Fs1 , v120
	.byte	W06
	.byte		        Gs2 , v127
	.byte	W06
	.byte		        Gs1 , v120
	.byte	W06
	.byte		        Bn2 , v127
	.byte	W03
	.byte	PATT
	 .word	seq_000_3 + 0x1D8
	.byte	PATT
	 .word	seq_000_3 + 0x20A
	.byte	W09
	.byte		N02   , Cs2 , v120
	.byte	W06
	.byte		        Ds2 
	.byte	W06
	.byte		        Ds2 , v080
	.byte	W06
	.byte		        Ds2 , v040
	.byte	W06
	.byte		        Ds3 , v120
	.byte	W06
	.byte		        Ds3 , v080
	.byte	W06
	.byte		N06   , Cs3 , v120
	.byte	W06
	.byte		N05   , Ds3 
	.byte	W06
	.byte		N06   , Ds3 , v080
	.byte	W06
	.byte		N01   , Ds2 , v127
	.byte	W06
	.byte		N11   , Gn2 
	.byte	W12
	.byte		        Ds2 
	.byte	W12
	.byte		        Cs2 , v120
	.byte	W03
	.byte	W09
	.byte		N02   , Gs1 
	.byte	W06
	.byte		N02
	.byte	W06
	.byte		        Gs1 , v080
	.byte	W06
	.byte		        Gs1 , v040
	.byte	W06
	.byte		        Gs2 , v120
	.byte	W06
	.byte		        Gs2 , v080
	.byte	W06
	.byte		N06   , Fs2 , v120
	.byte	W06
	.byte		N05   , Gs2 
	.byte	W06
	.byte		N06   , Gs2 , v080
	.byte	W24
	.byte		N24   , Gs1 , v120
	.byte	W15
	.byte	W01
	.byte		BEND  , c_v-3
	.byte	W02
	.byte		        c_v-6
	.byte	W03
	.byte		        c_v-12
	.byte	W03
	.byte		        c_v+0
	.byte		N02   , Bn1 
	.byte	W06
	.byte		        Cs2 
	.byte	W06
	.byte		        Cs2 , v080
	.byte	W06
	.byte		        Cs2 , v040
	.byte	W06
	.byte		        Cs3 , v120
	.byte	W06
	.byte		        Cs3 , v080
	.byte	W06
	.byte		N06   , Bn2 , v120
	.byte	W06
	.byte		N05   , Cs3 
	.byte	W06
	.byte		N06   , Cs3 , v080
	.byte	W06
	.byte		N01   , Cs2 , v127
	.byte	W06
	.byte		N11   , En2 
	.byte	W12
	.byte		        Fs2 
	.byte	W12
	.byte		        Gs2 , v120
	.byte	W03
	.byte	PATT
	 .word	seq_000_3 + 0xF4
	.byte	PATT
	 .word	seq_000_3 + 0x11F
	.byte	W09
	.byte		N02   , Bn1 , v120
	.byte	W06
	.byte		        Cs2 
	.byte	W06
	.byte		        Cs2 , v080
	.byte	W06
	.byte		        Cs2 , v040
	.byte	W06
	.byte		        Cs3 , v120
	.byte	W06
	.byte		        Cs3 , v080
	.byte	W06
	.byte		N06   , Bn2 , v120
	.byte	W06
	.byte		N05   , Cs3 
	.byte	W06
	.byte		N06   , Cs3 , v080
	.byte	W06
	.byte		N01   , Cs2 , v127
	.byte	W06
	.byte		N02   , En2 
	.byte	W06
	.byte		        Cs2 , v120
	.byte	W06
	.byte		        Fs2 , v127
	.byte	W06
	.byte		        En2 , v120
	.byte	W06
	.byte		        As1 , v127
	.byte	W03
	.byte	W03
	.byte		        Bn1 , v120
	.byte	W06
	.byte	GOTO
	 .word	seq_000_3 + 0xC8
	.byte	FINE

@*********************** Track 05 ***********************@

seq_000_4:
	.byte	KEYSH , seq_000_key+0
	.byte		VOICE , 3
	.byte	W01
	.byte		VOL   , 94*seq_000_mvl/mxv
	.byte	W01
	.byte	W01
	.byte		XCMD  , xIECV , 40
	.byte	W01
	.byte	W01
	.byte		        xIECL , 3
	.byte	W01
	.byte		BENDR , 12
	.byte	W01
	.byte		LFOS  , 28
	.byte	W01
	.byte		LFODL , 14
	.byte	W01
	.byte		MOD   , 3
	.byte	W84
	.byte	W03
	.byte	W96
	.byte	W96
	.byte	W09
	.byte		PAN   , c_v+0
	.byte		N03   , Gs5 , v052
	.byte	W07
	.byte		        Gn5 
	.byte	W05
	.byte		        Fs5 
	.byte	W07
	.byte		        Fn5 
	.byte	W05
	.byte		        En5 
	.byte	W07
	.byte		        Ds5 
	.byte	W05
	.byte		        Dn5 
	.byte	W07
	.byte		        Cs5 
	.byte	W05
	.byte		PAN   , c_v+63
	.byte		N03   , Cn5 , v068
	.byte	W07
	.byte		        Bn4 
	.byte	W05
	.byte		        As4 
	.byte	W07
	.byte		        An4 
	.byte	W05
	.byte		PAN   , c_v-64
	.byte		N03   , Gs4 
	.byte	W07
	.byte		        Gn4 
	.byte	W05
	.byte		        Fs4 
	.byte	W03
	.byte	W04
	.byte		        Fn4 
	.byte	W05
	.byte		VOICE , 3
	.byte		PAN   , c_v-64
	.byte		N03   , En3 , v100
	.byte	W07
	.byte		        Gs3 
	.byte	W05
	.byte		        Bn3 
	.byte	W07
	.byte		        Bn3 , v040
	.byte	W05
	.byte		        Cs3 , v100
	.byte	W07
	.byte		        Gs3 
	.byte	W05
	.byte		        En3 
	.byte	W07
	.byte		        Bn3 
	.byte	W05
	.byte		PAN   , c_v+63
	.byte		N03   , Ds4 
	.byte	W07
	.byte		        Ds4 , v040
	.byte	W05
	.byte		        En3 , v100
	.byte	W07
	.byte		        Ds4 
	.byte	W05
	.byte		        Ds4 , v040
	.byte	W07
	.byte		        En3 , v100
	.byte	W05
	.byte		        Ds4 
	.byte	W03
	.byte	W04
	.byte		N03   , En3 , v040
	.byte	W05
	.byte		PAN   , c_v-64
	.byte		N03   , An3 , v100
	.byte	W07
	.byte		        En3 
	.byte	W05
	.byte		        Gs3 
	.byte	W07
	.byte		        Gs3 , v040
	.byte	W05
	.byte		        An3 , v100
	.byte	W07
	.byte		        Bn3 
	.byte	W05
	.byte		        Cs4 
	.byte	W07
	.byte		        Ds4 
	.byte	W05
	.byte		PAN   , c_v+63
	.byte		N03   , En4 
	.byte	W07
	.byte		        En4 , v040
	.byte	W05
	.byte		        Cs4 , v100
	.byte	W07
	.byte		        Fs4 
	.byte	W05
	.byte		        Fs4 , v040
	.byte	W07
	.byte		        Ds4 , v100
	.byte	W05
	.byte		        Bn3 
	.byte	W03
	.byte	PEND
	.byte	W04
	.byte		N03   , Bn3 , v040
	.byte	W05
	.byte		PAN   , c_v-64
	.byte		N03   , Gs3 , v100
	.byte	W07
	.byte		        En3 
	.byte	W05
	.byte		        As3 
	.byte	W07
	.byte		        As3 , v040
	.byte	W05
	.byte		        Bn3 , v100
	.byte	W07
	.byte		        As3 
	.byte	W05
	.byte		        En4 
	.byte	W07
	.byte		        Ds3 
	.byte	W05
	.byte		PAN   , c_v+63
	.byte		N03   , As3 
	.byte	W07
	.byte		        As3 , v040
	.byte	W05
	.byte		        En3 , v100
	.byte	W07
	.byte		        As3 
	.byte	W05
	.byte		        As3 , v040
	.byte	W07
	.byte		        En3 , v100
	.byte	W05
	.byte		        Bn3 
	.byte	W03
	.byte	PEND
	.byte	W04
	.byte		        Bn3 , v040
	.byte	W05
	.byte		PAN   , c_v-64
	.byte		N03   , En3 , v100
	.byte	W07
	.byte		        Gs3 
	.byte	W05
	.byte		        Bn3 
	.byte	W07
	.byte		        Bn3 , v040
	.byte	W05
	.byte		        Cs3 , v100
	.byte	W07
	.byte		        En3 
	.byte	W05
	.byte		        Gs3 
	.byte	W07
	.byte		        Bn3 
	.byte	W05
	.byte		PAN   , c_v+63
	.byte		N03   , Ds4 
	.byte	W07
	.byte		        Ds4 , v040
	.byte	W05
	.byte		        En3 , v100
	.byte	W07
	.byte		        Cs4 
	.byte	W05
	.byte		        Cs4 , v040
	.byte	W07
	.byte		        En3 , v100
	.byte	W05
	.byte		        Bn3 
	.byte	W03
	.byte	W04
	.byte		N03   , Bn3 , v040
	.byte	W05
	.byte		PAN   , c_v-64
	.byte		N03   , En3 , v100
	.byte	W07
	.byte		        Gs3 
	.byte	W05
	.byte		        Bn3 
	.byte	W07
	.byte		        Bn3 , v040
	.byte	W05
	.byte		        Cs3 , v100
	.byte	W07
	.byte		        Gs3 
	.byte	W05
	.byte		        En3 
	.byte	W07
	.byte		        Bn3 
	.byte	W05
	.byte		PAN   , c_v+63
	.byte		N03   , Ds4 
	.byte	W07
	.byte		        Ds4 , v040
	.byte	W05
	.byte		        En3 , v100
	.byte	W07
	.byte		        Ds4 
	.byte	W05
	.byte		        Ds4 , v040
	.byte	W07
	.byte		        En3 , v100
	.byte	W05
	.byte		        Ds4 
	.byte	W03
	.byte	PEND
	.byte	PATT
	 .word	seq_000_4 + 0x7A
	.byte	PATT
	 .word	seq_000_4 + 0xAB
	.byte	W04
	.byte		N03   , Bn3 , v040
	.byte	W05
	.byte		PAN   , c_v-64
	.byte		N03   , En3 , v100
	.byte	W07
	.byte		        Gs3 
	.byte	W05
	.byte		        Bn3 
	.byte	W07
	.byte		        Bn3 , v040
	.byte	W05
	.byte		        Cs3 , v100
	.byte	W07
	.byte		        En3 
	.byte	W05
	.byte		        Gs3 
	.byte	W07
	.byte		        Bn3 
	.byte	W05
	.byte		PAN   , c_v+63
	.byte		N03   , Fs4 
	.byte	W07
	.byte		        En4 
	.byte	W05
	.byte		        Ds4 
	.byte	W07
	.byte		        Fs4 
	.byte	W05
	.byte		PAN   , c_v-64
	.byte		N03   , En4 
	.byte	W07
	.byte		        Ds4 
	.byte	W05
	.byte		        Cs4 
	.byte	W03
	.byte	W04
	.byte		        Gs3 
	.byte	W05
	.byte		VOICE , 1
	.byte		PAN   , c_v-64
	.byte		N07   , En3 , v092
	.byte	W07
	.byte		N05   , Gs3 
	.byte	W05
	.byte		N07   , Cs4 
	.byte	W07
	.byte		N05   , Cs4 , v040
	.byte	W05
	.byte		N07   , Gs3 , v092
	.byte	W07
	.byte		N05   , Cs4 
	.byte	W05
	.byte		N07   , En4 
	.byte	W07
	.byte		N05   , En4 , v040
	.byte	W05
	.byte		PAN   , c_v+63
	.byte		N07   , Fs3 , v092
	.byte	W07
	.byte		N05   , Bn3 
	.byte	W05
	.byte		N07   , Ds4 
	.byte	W07
	.byte		N05   , Fs4 
	.byte	W05
	.byte		N07   , Bn3 
	.byte	W07
	.byte		N05   , Ds4 
	.byte	W05
	.byte		N07   , Fs4 
	.byte	W03
	.byte	W04
	.byte		N05   , Fs4 , v040
	.byte	W05
	.byte		PAN   , c_v-64
	.byte		N07   , Gs4 , v092
	.byte	W07
	.byte		N05   , Fs4 
	.byte	W05
	.byte		N07   , En4 
	.byte	W07
	.byte		N05   , Gs4 
	.byte	W05
	.byte		PAN   , c_v+63
	.byte		N07   , Fs4 
	.byte	W07
	.byte		N05   , En4 
	.byte	W05
	.byte		N07   , Ds4 
	.byte	W07
	.byte		N05   , Fs4 
	.byte	W05
	.byte		PAN   , c_v-64
	.byte		N07   , En4 
	.byte	W07
	.byte		N05   , Ds4 
	.byte	W05
	.byte		N07   , Cs4 
	.byte	W07
	.byte		N05   , En4 
	.byte	W05
	.byte		PAN   , c_v+63
	.byte		N07   , Ds4 
	.byte	W07
	.byte		N05   , Cs4 
	.byte	W05
	.byte		N07   , Gs3 
	.byte	W03
	.byte	PEND
	.byte	W04
	.byte		N05   , Cs4 
	.byte	W05
	.byte		PAN   , c_v-64
	.byte		N07   , An3 
	.byte	W07
	.byte		N05   , Cs4 
	.byte	W05
	.byte		N07   , En4 
	.byte	W07
	.byte		N05   , En4 , v040
	.byte	W05
	.byte		N07   , Cs4 , v092
	.byte	W07
	.byte		N05   , En4 
	.byte	W05
	.byte		N07   , An4 
	.byte	W07
	.byte		N05   , An4 , v040
	.byte	W05
	.byte		PAN   , c_v+63
	.byte		N07   , Fs3 , v092
	.byte	W07
	.byte		N05   , Gs3 
	.byte	W05
	.byte		N07   , An3 
	.byte	W07
	.byte		N05   , Bn3 
	.byte	W05
	.byte		N07   , Cs4 
	.byte	W07
	.byte		N05   , Ds4 
	.byte	W05
	.byte		N07   , En4 
	.byte	W03
	.byte	W04
	.byte		N05   , Fs4 
	.byte	W05
	.byte		PAN   , c_v+0
	.byte		N07   , En3 
	.byte	W07
	.byte		N05   , En3 , v040
	.byte	W05
	.byte		PAN   , c_v-64
	.byte		N07   , Gs3 , v092
	.byte	W07
	.byte		N05   , Gs3 , v052
	.byte	W05
	.byte		N07   , Gs3 , v032
	.byte	W07
	.byte		PAN   , c_v+63
	.byte		N05   , Fs3 , v092
	.byte	W05
	.byte		N07   , Fs3 , v052
	.byte	W07
	.byte		N05   , Fs3 , v032
	.byte	W05
	.byte		PAN   , c_v-64
	.byte		N07   , En3 , v092
	.byte	W07
	.byte		N05   , En3 , v052
	.byte	W05
	.byte		N07   , En3 , v032
	.byte	W07
	.byte		PAN   , c_v+63
	.byte		N05   , Ds3 , v092
	.byte	W05
	.byte		N07   , Ds3 , v052
	.byte	W07
	.byte		N05   , Ds3 , v032
	.byte	W05
	.byte		PAN   , c_v-64
	.byte		N07   , Bn2 , v092
	.byte	W03
	.byte	W04
	.byte		N05   , Bn2 , v052
	.byte	W05
	.byte		PAN   , c_v-64
	.byte		N07   , En3 , v092
	.byte	W07
	.byte		N05   , Gs3 
	.byte	W05
	.byte		N07   , Cs4 
	.byte	W07
	.byte		N05   , Cs4 , v040
	.byte	W05
	.byte		N07   , Gs3 , v092
	.byte	W07
	.byte		N05   , Cs4 
	.byte	W05
	.byte		N07   , En4 
	.byte	W07
	.byte		N05   , En4 , v040
	.byte	W05
	.byte		PAN   , c_v+63
	.byte		N07   , Fs3 , v092
	.byte	W07
	.byte		N05   , Bn3 
	.byte	W05
	.byte		N07   , Ds4 
	.byte	W07
	.byte		N05   , Fs4 
	.byte	W05
	.byte		N07   , Bn3 
	.byte	W07
	.byte		N05   , Ds4 
	.byte	W05
	.byte		N07   , Fs4 
	.byte	W03
	.byte	PATT
	 .word	seq_000_4 + 0x1B0
	.byte	W04
	.byte		N05   , Cs4 , v092
	.byte	W05
	.byte		PAN   , c_v-64
	.byte		N07   , Cs3 
	.byte	W07
	.byte		N05   , Fs3 
	.byte	W05
	.byte		N07   , As3 
	.byte	W07
	.byte		N05   , Cs4 
	.byte	W05
	.byte		PAN   , c_v+63
	.byte		N07   , Ds4 
	.byte	W07
	.byte		N05   , Fs3 
	.byte	W05
	.byte		N07   , As3 
	.byte	W07
	.byte		N05   , Ds4 
	.byte	W05
	.byte		PAN   , c_v-64
	.byte		N07   , As3 
	.byte	W07
	.byte		N05   , Cs4 
	.byte	W05
	.byte		N07   , Ds4 
	.byte	W07
	.byte		N05   , As4 
	.byte	W05
	.byte		PAN   , c_v+63
	.byte		N07   , Cs4 
	.byte	W07
	.byte		N05   , Fs4 
	.byte	W05
	.byte		N07   , As4 
	.byte	W03
	.byte	W04
	.byte		N05   , Fs4 
	.byte	W05
	.byte		PAN   , c_v-64
	.byte		N07   , Fs3 
	.byte	W07
	.byte		N05   , Fs3 , v052
	.byte	W05
	.byte		        Fs3 , v032
	.byte	W07
	.byte		        Gs4 , v080
	.byte	W05
	.byte		PAN   , c_v+63
	.byte		N05   , Fs4 , v092
	.byte	W07
	.byte		        An4 
	.byte	W05
	.byte		        En4 
	.byte	W07
	.byte		        Ds4 
	.byte	W05
	.byte		PAN   , c_v+0
	.byte		N05   , Gs3 , v080
	.byte	W07
	.byte		        Cn4 
	.byte	W05
	.byte		        Ds4 
	.byte	W07
	.byte		        Gs4 
	.byte	W05
	.byte		        Cn4 
	.byte	W07
	.byte		        Ds4 
	.byte	W05
	.byte		        Gs4 
	.byte	W03
	.byte	W04
	.byte		        Gs3 
	.byte	W05
	.byte		PAN   , c_v-64
	.byte		N03   , En3 , v100
	.byte	W07
	.byte		        Gs3 
	.byte	W05
	.byte		        Bn3 
	.byte	W07
	.byte		        Bn3 , v040
	.byte	W05
	.byte		        Cs3 , v100
	.byte	W07
	.byte		        Gs3 
	.byte	W05
	.byte		        En3 
	.byte	W07
	.byte		        Bn3 
	.byte	W05
	.byte		PAN   , c_v+63
	.byte		N03   , Ds4 
	.byte	W07
	.byte		        Ds4 , v040
	.byte	W05
	.byte		        En3 , v100
	.byte	W07
	.byte		        Ds4 
	.byte	W05
	.byte		        Ds4 , v040
	.byte	W07
	.byte		        En3 , v100
	.byte	W05
	.byte		        Ds4 
	.byte	W03
	.byte	PATT
	 .word	seq_000_4 + 0x7A
	.byte	PATT
	 .word	seq_000_4 + 0x10B
	.byte	W04
	.byte		N03   , En3 , v040
	.byte	W05
	.byte		PAN   , c_v-64
	.byte		N03   , An3 , v100
	.byte	W07
	.byte		        En3 
	.byte	W05
	.byte		        Gs3 
	.byte	W07
	.byte		        Gs3 , v040
	.byte	W05
	.byte		        An3 , v100
	.byte	W07
	.byte		        Bn3 
	.byte	W05
	.byte		        Cs4 
	.byte	W07
	.byte		        Ds4 
	.byte	W05
	.byte		PAN   , c_v+0
	.byte		N03   , En4 
	.byte	W07
	.byte		        En4 , v040
	.byte	W05
	.byte		        Cs4 , v100
	.byte	W07
	.byte		        Fs4 
	.byte	W05
	.byte		        Fs4 , v040
	.byte	W07
	.byte		        Ds4 , v100
	.byte	W05
	.byte		        Bn3 
	.byte	W03
	.byte	W04
	.byte		        Bn3 , v040
	.byte	W05
	.byte	GOTO
	 .word	seq_000_4 + 0x4D
	.byte	FINE

@*********************** Track 06 ***********************@

seq_000_5:
	.byte	KEYSH , seq_000_key+0
	.byte		VOICE , 28
	.byte	W01
	.byte		VOL   , 75*seq_000_mvl/mxv
	.byte	W01
	.byte		BENDR , 12
	.byte	W03
	.byte		PAN   , c_v+0
	.byte	W04
	.byte		N11   , Dn3 , v100
	.byte	W12
	.byte		        Dn3 , v060
	.byte	W12
	.byte		        Dn3 , v040
	.byte	W12
	.byte		        Dn3 , v012
	.byte	W48
	.byte	W03
	.byte	W96
	.byte	W96
	.byte	W96
	.byte	W09
	.byte		N11   , Dn3 , v100
	.byte	W12
	.byte		        Dn3 , v060
	.byte	W12
	.byte		        Dn3 , v032
	.byte	W12
	.byte		        Dn3 , v012
	.byte	W48
	.byte	W03
	.byte	W96
	.byte	W96
	.byte	W96
	.byte	W09
	.byte		N11   , Dn3 , v100
	.byte	W12
	.byte		        Dn3 , v060
	.byte	W12
	.byte		        Dn3 , v032
	.byte	W12
	.byte		        Dn3 , v012
	.byte	W48
	.byte	W03
	.byte	PEND
	.byte	W96
	.byte	W96
	.byte	W96
	.byte	W96
	.byte	W96
	.byte	W96
	.byte	W96
	.byte	W96
	.byte	W96
	.byte	W96
	.byte	W96
	.byte	PATT
	 .word	seq_000_5 + 0x31
	.byte	W96
	.byte	PATT
	 .word	seq_000_5 + 0x31
	.byte	W96
	.byte	W09
	.byte	GOTO
	 .word	seq_000_5 + 0x20
	.byte	FINE

@******************************************************@

	.align	2

seq_000:
	.byte	6	@ NumTrks
	.byte	0	@ NumBlks
	.byte	seq_000_pri	@ Priority
	.byte	seq_000_rev	@ Reverb

	.word	seq_000_grp

	.word	seq_000_0
	.word	seq_000_1
	.word	seq_000_2
	.word	seq_000_3
	.word	seq_000_4
	.word	seq_000_5

	.end
