@ File generated by m4a2s Song-Module
	.include "MPlayDef.s"

	.equ	seq_000_grp, bank_000
	.equ	seq_000_pri, 20
	.equ	seq_000_rev, 163
	.equ	seq_000_mvl, 127
	.equ	seq_000_key, 0

	.section .rodata
	.global	seq_000
	.align	2

@*********************** Track 01 ***********************@

seq_000_0:
	.byte	KEYSH , seq_000_key+0
	.byte	TEMPO , 160/2
	.byte	W01
	.byte		VOICE , 2
	.byte	W01
	.byte		VOL   , 85*seq_000_mvl/mxv
	.byte	W01
	.byte		PAN   , c_v-64
	.byte	W01
	.byte		BEND  , c_v+0
	.byte	W01
	.byte		LFOS  , 28
	.byte	W01
	.byte		LFODL , 14
	.byte	W01
	.byte		MODT  , mod_vib
	.byte	W01
	.byte		MOD   , 7
	.byte	W01
	.byte	W01
	.byte		XCMD  , xIECV , 40
	.byte	W01
	.byte	W01
	.byte		        xIECL , 3
	.byte	W03
	.byte		PAN   , c_v-64
	.byte		N06   , En3 , v100
	.byte	W06
	.byte		        Cs3 
	.byte	W06
	.byte		        Fs3 
	.byte	W06
	.byte		        Cs3 
	.byte	W06
	.byte		        Gs3 
	.byte	W06
	.byte		        Cs3 
	.byte	W06
	.byte		        En3 
	.byte	W06
	.byte		        Cs3 
	.byte	W06
	.byte		PAN   , c_v+63
	.byte		N06   , Fs3 
	.byte	W06
	.byte		        Cs3 
	.byte	W06
	.byte		        Gs3 
	.byte	W06
	.byte		        Cs3 
	.byte	W06
	.byte		        En3 
	.byte	W06
	.byte		        Cs3 
	.byte	W03
	.byte	W03
	.byte		N06   , Fs3 , v100
	.byte	W06
	.byte		        Cs3 
	.byte	W06
	.byte		        Gs3 
	.byte	W06
	.byte		        Cs3 
	.byte	W06
	.byte		        Fs3 
	.byte	W06
	.byte		        En3 
	.byte	W06
	.byte		        Cs3 
	.byte	W06
	.byte		        Fs3 
	.byte	W06
	.byte		        Cs3 
	.byte	W06
	.byte		        Gs3 
	.byte	W06
	.byte		PAN   , c_v-64
	.byte		N06   , Fs3 
	.byte	W06
	.byte		        Cs3 
	.byte	W06
	.byte		        Gs3 
	.byte	W06
	.byte		        Cs3 
	.byte	W06
	.byte		        As3 
	.byte	W06
	.byte		        Cs3 
	.byte	W03
	.byte	PEND
	.byte	W03
	.byte		        Bn3 
	.byte	W06
	.byte		        Cs3 
	.byte	W06
	.byte		        En3 
	.byte	W06
	.byte		        Cs3 
	.byte	W06
	.byte		        Fs3 
	.byte	W06
	.byte		        Cs3 
	.byte	W06
	.byte		        Gs3 
	.byte	W06
	.byte		        Cs3 
	.byte	W06
	.byte		        En3 
	.byte	W06
	.byte		        Cs3 
	.byte	W06
	.byte		PAN   , c_v+63
	.byte		N06   , Fs3 
	.byte	W06
	.byte		        Cs3 
	.byte	W06
	.byte		        Gs3 
	.byte	W06
	.byte		        Cs3 
	.byte	W06
	.byte		        En3 
	.byte	W06
	.byte		        Cs3 
	.byte	W03
	.byte	PATT
	 .word	seq_000_0 + 0x49
	.byte	W03
	.byte		N06   , Bn3 , v100
	.byte	W06
	.byte		        Cs3 
	.byte	W06
	.byte		PAN   , c_v+63
	.byte		N06   , En3 , v100
	.byte	W06
	.byte		        Cs3 
	.byte	W06
	.byte		        Fs3 
	.byte	W06
	.byte		        Cs3 
	.byte	W06
	.byte		PAN   , c_v-64
	.byte		N06   , Gs3 
	.byte	W06
	.byte		        Cs3 
	.byte	W06
	.byte		        En3 
	.byte	W06
	.byte		        Cs3 
	.byte	W06
	.byte		PAN   , c_v+63
	.byte		N06   , Fs3 
	.byte	W06
	.byte		        Cs3 
	.byte	W06
	.byte		        Gs3 
	.byte	W06
	.byte		        Cs3 
	.byte	W06
	.byte		PAN   , c_v-64
	.byte		N06   , En3 
	.byte	W06
	.byte		        Cs3 
	.byte	W03
	.byte	W03
	.byte		N06   , Fs3 , v100
	.byte	W06
	.byte		        Cs3 
	.byte	W06
	.byte		PAN   , c_v+63
	.byte		N06   , Gs3 
	.byte	W06
	.byte		        Cs3 
	.byte	W06
	.byte		        Fs3 
	.byte	W06
	.byte		        En3 
	.byte	W06
	.byte		PAN   , c_v-64
	.byte		N06   , Cs3 
	.byte	W06
	.byte		        Fs3 
	.byte	W06
	.byte		        Cs3 
	.byte	W06
	.byte		        Gs3 
	.byte	W06
	.byte		PAN   , c_v+63
	.byte		N06   , Fs3 
	.byte	W06
	.byte		        Cs3 
	.byte	W06
	.byte		        Gs3 
	.byte	W06
	.byte		        Cs3 
	.byte	W06
	.byte		PAN   , c_v-64
	.byte		N06   , As3 
	.byte	W06
	.byte		        Cs3 
	.byte	W03
	.byte	PEND
	.byte	W03
	.byte		N06   , Bn3 , v100
	.byte	W06
	.byte		        Cs3 
	.byte	W06
	.byte		PAN   , c_v+63
	.byte		N06   , En3 
	.byte	W06
	.byte		        Cs3 
	.byte	W06
	.byte		        Fs3 
	.byte	W06
	.byte		        Cs3 
	.byte	W06
	.byte		PAN   , c_v-64
	.byte		N06   , Gs3 
	.byte	W06
	.byte		        Cs3 
	.byte	W06
	.byte		        En3 
	.byte	W06
	.byte		        Cs3 
	.byte	W06
	.byte		PAN   , c_v+63
	.byte		N06   , Fs3 
	.byte	W06
	.byte		        Cs3 
	.byte	W06
	.byte		        Gs3 
	.byte	W06
	.byte		        Cs3 
	.byte	W06
	.byte		PAN   , c_v-64
	.byte		N06   , En3 
	.byte	W06
	.byte		        Cs3 
	.byte	W03
	.byte	PEND
	.byte	W03
	.byte		        Fs3 
	.byte	W06
	.byte		        Cs3 
	.byte	W06
	.byte		PAN   , c_v+63
	.byte		N06   , Gs3 
	.byte	W06
	.byte		        Cs3 
	.byte	W06
	.byte		        Fs3 
	.byte	W06
	.byte		        En3 
	.byte	W06
	.byte		PAN   , c_v-64
	.byte		N06   , Cs3 
	.byte	W06
	.byte		        Fs3 
	.byte	W06
	.byte		        Cs3 
	.byte	W06
	.byte		        Gs3 
	.byte	W06
	.byte		PAN   , c_v+63
	.byte		N06   , Dn3 
	.byte	W06
	.byte		        Cs3 
	.byte	W06
	.byte		        En3 
	.byte	W06
	.byte		        Cs3 
	.byte	W06
	.byte		PAN   , c_v-64
	.byte		N06   , Fs3 
	.byte	W06
	.byte		        Cs3 
	.byte	W03
	.byte	W03
	.byte		        Gs3 
	.byte	W06
	.byte		        Cs3 
	.byte	W06
	.byte		PAN   , c_v+63
	.byte		N06   , En3 
	.byte	W06
	.byte		        Cs3 
	.byte	W06
	.byte		        Fs3 
	.byte	W06
	.byte		        Cs3 
	.byte	W06
	.byte		PAN   , c_v-64
	.byte		N06   , Gs3 
	.byte	W06
	.byte		        Cs3 
	.byte	W06
	.byte		        En3 
	.byte	W06
	.byte		        Cs3 
	.byte	W06
	.byte		PAN   , c_v+63
	.byte		N06   , Fs3 
	.byte	W06
	.byte		        Cs3 
	.byte	W06
	.byte		        Gs3 
	.byte	W06
	.byte		        Cs3 
	.byte	W06
	.byte		PAN   , c_v-64
	.byte		N06   , En3 
	.byte	W06
	.byte		        Cs3 
	.byte	W03
	.byte	PATT
	 .word	seq_000_0 + 0xC9
	.byte	PATT
	 .word	seq_000_0 + 0xF9
	.byte	W03
	.byte		N06   , Fs3 , v100
	.byte	W06
	.byte		        Cs3 
	.byte	W06
	.byte		PAN   , c_v+63
	.byte		N06   , Gs3 
	.byte	W06
	.byte		        Cs3 
	.byte	W06
	.byte		        Fs3 
	.byte	W06
	.byte		        En3 
	.byte	W06
	.byte		PAN   , c_v-64
	.byte		N06   , Cs3 
	.byte	W06
	.byte		        Fs3 
	.byte	W06
	.byte		        Cs3 
	.byte	W06
	.byte		        Gs3 
	.byte	W06
	.byte		PAN   , c_v+63
	.byte		N06   , Fs2 
	.byte	W06
	.byte		        An2 
	.byte	W06
	.byte		        Cs3 
	.byte	W06
	.byte		        En3 
	.byte	W06
	.byte		PAN   , c_v-64
	.byte		N06   , Fs3 
	.byte	W06
	.byte		        An3 
	.byte	W03
	.byte	W03
	.byte		        Cs4 
	.byte	W06
	.byte		        Fs4 
	.byte	W06
	.byte		PAN   , c_v-64
	.byte		N03   , Fs2 
	.byte	W03
	.byte		        Fs2 , v052
	.byte	W03
	.byte		        An2 , v100
	.byte	W03
	.byte		        An2 , v052
	.byte	W03
	.byte		        Cs3 , v100
	.byte	W03
	.byte		        Cs3 , v052
	.byte	W03
	.byte		        En3 , v100
	.byte	W03
	.byte		        En3 , v052
	.byte	W03
	.byte		        Gs3 , v100
	.byte	W03
	.byte		        Gs3 , v052
	.byte	W03
	.byte		        An3 , v100
	.byte	W03
	.byte		        An3 , v052
	.byte	W03
	.byte		        Cs4 , v100
	.byte	W03
	.byte		        Cs4 , v052
	.byte	W03
	.byte		        En4 , v100
	.byte	W03
	.byte		        En4 , v052
	.byte	W03
	.byte		PAN   , c_v+63
	.byte		N03   , Gs4 , v100
	.byte	W03
	.byte		        Gs4 , v052
	.byte	W03
	.byte		        En4 , v100
	.byte	W03
	.byte		        En4 , v052
	.byte	W03
	.byte		        Cs4 , v100
	.byte	W03
	.byte		        Cs4 , v052
	.byte	W03
	.byte		        An3 , v100
	.byte	W03
	.byte		        An3 , v052
	.byte	W03
	.byte		        Gs3 , v100
	.byte	W03
	.byte		        Gs3 , v052
	.byte	W03
	.byte		        En3 , v100
	.byte	W03
	.byte		        En3 , v052
	.byte	W03
	.byte		        Cs3 , v100
	.byte	W03
	.byte		        Cs3 , v052
	.byte	W03
	.byte		        Gs2 , v100
	.byte	W03
	.byte		        Gs2 , v052
	.byte	W03
	.byte		PAN   , c_v-64
	.byte		N03   , Fs2 , v100
	.byte	W03
	.byte		        Fs2 , v052
	.byte	W03
	.byte		        An2 , v100
	.byte	W03
	.byte		        An2 , v052
	.byte	W03
	.byte		        Cs3 , v100
	.byte	W03
	.byte		        Cs3 , v052
	.byte	W03
	.byte		        En3 , v100
	.byte	W03
	.byte		        En3 , v052
	.byte	W03
	.byte		        Gs3 , v100
	.byte	W03
	.byte		        Gs3 , v052
	.byte	W03
	.byte		        An3 , v100
	.byte	W03
	.byte		        An3 , v052
	.byte	W03
	.byte		        Cs4 , v100
	.byte	W03
	.byte		        Cs4 , v052
	.byte	W03
	.byte		        En4 , v100
	.byte	W03
	.byte		        En4 , v052
	.byte	W03
	.byte		PAN   , c_v+63
	.byte		N03   , Gs4 , v100
	.byte	W03
	.byte		        Gs4 , v052
	.byte	W03
	.byte		        En4 , v100
	.byte	W03
	.byte		        En4 , v052
	.byte	W03
	.byte		        Cs4 , v100
	.byte	W03
	.byte		        Cs4 , v052
	.byte	W03
	.byte		        An3 , v100
	.byte	W03
	.byte		        An3 , v052
	.byte	W03
	.byte		        Gs3 , v100
	.byte	W03
	.byte		        Gs3 , v052
	.byte	W03
	.byte		        En3 , v100
	.byte	W03
	.byte		N03   , En3 , v052
	.byte	W03
	.byte		        Cs3 , v100
	.byte	W03
	.byte		        Cs3 , v052
	.byte	W03
	.byte		        Gs2 , v100
	.byte	W03
	.byte		        Gs2 , v052
	.byte	W03
	.byte		PAN   , c_v-64
	.byte		N03   , Dn2 , v100
	.byte	W03
	.byte		        Dn2 , v052
	.byte	W03
	.byte		        An2 , v100
	.byte	W03
	.byte		        An2 , v052
	.byte	W03
	.byte		        Cs3 , v100
	.byte	W03
	.byte		        Cs3 , v052
	.byte	W03
	.byte		        En3 , v100
	.byte	W03
	.byte		        En3 , v052
	.byte	W03
	.byte		        Gs3 , v100
	.byte	W03
	.byte		        Gs3 , v052
	.byte	W03
	.byte		        An3 , v100
	.byte	W03
	.byte		        An3 , v052
	.byte	W03
	.byte		        Cs4 , v100
	.byte	W03
	.byte		        Cs4 , v052
	.byte	W03
	.byte		        En4 , v100
	.byte	W03
	.byte		        En4 , v052
	.byte	W03
	.byte		PAN   , c_v+63
	.byte		N03   , Gs4 , v100
	.byte	W03
	.byte		        Gs4 , v052
	.byte	W03
	.byte		        En4 , v100
	.byte	W03
	.byte		        En4 , v052
	.byte	W03
	.byte		        Cs4 , v100
	.byte	W03
	.byte		        Cs4 , v052
	.byte	W03
	.byte		        An3 , v100
	.byte	W03
	.byte		        An3 , v052
	.byte	W03
	.byte		        Gs3 , v100
	.byte	W03
	.byte		        Gs3 , v052
	.byte	W03
	.byte		        En3 , v100
	.byte	W03
	.byte	PEND
	.byte	PATT
	 .word	seq_000_0 + 0x27D
	.byte		N03   , En3 , v052
	.byte	W03
	.byte		        Cs3 , v100
	.byte	W03
	.byte		        Cs3 , v052
	.byte	W03
	.byte		        Gs2 , v100
	.byte	W03
	.byte		        Gs2 , v052
	.byte	W03
	.byte		PAN   , c_v-64
	.byte		N06   , Bn3 , v100
	.byte	W06
	.byte		        Bn3 , v080
	.byte	W06
	.byte		        Fs3 , v100
	.byte	W06
	.byte		        Bn3 
	.byte	W06
	.byte		        Cs4 
	.byte	W06
	.byte		        Cs4 , v080
	.byte	W06
	.byte		        An3 , v100
	.byte	W06
	.byte		        An3 , v080
	.byte	W06
	.byte		PAN   , c_v+63
	.byte		N06   , Dn2 , v100
	.byte	W06
	.byte		        Fs2 
	.byte	W06
	.byte		        An2 
	.byte	W06
	.byte		        Cs3 
	.byte	W06
	.byte		PAN   , c_v-64
	.byte		N06   , En3 
	.byte	W06
	.byte		        Cs3 
	.byte	W03
	.byte	W03
	.byte		        An2 
	.byte	W06
	.byte		        Fs2 
	.byte	W06
	.byte		PAN   , c_v+63
	.byte		N06   , Cs2 
	.byte	W06
	.byte		        Cs2 , v080
	.byte	W06
	.byte		        En2 , v100
	.byte	W06
	.byte		        Gs2 
	.byte	W06
	.byte		PAN   , c_v-64
	.byte		N06   , Bn2 
	.byte	W06
	.byte		        Gs2 
	.byte	W06
	.byte		        Gs2 , v080
	.byte	W06
	.byte		        En2 , v100
	.byte	W06
	.byte		PAN   , c_v+63
	.byte		N06   , Cs2 
	.byte	W06
	.byte		        Cs2 , v080
	.byte	W06
	.byte		        En2 , v100
	.byte	W06
	.byte		        Gs2 
	.byte	W06
	.byte		PAN   , c_v-64
	.byte		N06   , Bn2 
	.byte	W06
	.byte		        Gs2 
	.byte	W03
	.byte	W09
	.byte		        En2 
	.byte	W06
	.byte		PAN   , c_v+63
	.byte		N12   , Fs3 
	.byte	W12
	.byte		        Fs3 , v080
	.byte	W12
	.byte		N06   , As2 , v100
	.byte	W06
	.byte		        As2 , v080
	.byte	W06
	.byte		N12   , Cs3 , v100
	.byte	W12
	.byte		N06   , Cs3 , v080
	.byte	W06
	.byte		PAN   , c_v-64
	.byte		N06   , Bn4 
	.byte	W06
	.byte		        An4 
	.byte	W06
	.byte		        En4 
	.byte	W06
	.byte		PAN   , c_v+63
	.byte		N06   , Bn3 
	.byte	W06
	.byte		        An3 
	.byte	W03
	.byte	W03
	.byte		        En3 
	.byte	W06
	.byte		        Cs3 
	.byte	W06
	.byte		PAN   , c_v-64
	.byte		N12   , Gs4 , v092
	.byte	W12
	.byte		        Fs5 
	.byte	W12
	.byte		N06   , Fs5 , v072
	.byte	W06
	.byte		PAN   , c_v+63
	.byte		N06   , Gs3 , v092
	.byte	W06
	.byte		N12   , Fs5 
	.byte	W12
	.byte		N06   , Fs5 , v072
	.byte	W06
	.byte		PAN   , c_v-64
	.byte		N06   , Gs4 , v092
	.byte	W06
	.byte		N12   , Fs5 
	.byte	W12
	.byte		N06   , Fs5 , v072
	.byte	W06
	.byte		PAN   , c_v+63
	.byte		N06   , Gs3 , v092
	.byte	W03
	.byte	W03
	.byte		N12   , Fs5 
	.byte	W12
	.byte		N06   , Fs5 , v072
	.byte	W06
	.byte		PAN   , c_v-64
	.byte	W06
	.byte		N12   , Fs5 , v080
	.byte	W12
	.byte		N06   , Fs5 , v060
	.byte	W06
	.byte		PAN   , c_v+63
	.byte	W06
	.byte		N12   , Fs5 , v072
	.byte	W12
	.byte		PAN   , c_v-64
	.byte		N06   , En3 , v100
	.byte	W06
	.byte		        Cs3 
	.byte	W06
	.byte		        Fs3 
	.byte	W06
	.byte		        Cs3 
	.byte	W06
	.byte		        Gs3 
	.byte	W06
	.byte		        Cs3 
	.byte	W03
	.byte	W03
	.byte		N06   , En3 , v100
	.byte	W06
	.byte		        Cs3 
	.byte	W06
	.byte		PAN   , c_v+63
	.byte		N06   , Fs3 
	.byte	W06
	.byte		        Cs3 
	.byte	W06
	.byte		        Gs3 
	.byte	W06
	.byte		        Cs3 
	.byte	W06
	.byte		        En3 
	.byte	W06
	.byte		        Cs3 
	.byte	W06
	.byte		        Fs3 
	.byte	W06
	.byte		        Cs3 
	.byte	W06
	.byte		        Gs3 
	.byte	W06
	.byte		        Cs3 
	.byte	W06
	.byte		        Fs3 
	.byte	W06
	.byte		        En3 
	.byte	W06
	.byte		        Cs3 
	.byte	W06
	.byte		        Fs3 
	.byte	W03
	.byte	PEND
	.byte	W03
	.byte		        Cs3 
	.byte	W06
	.byte		        Gs3 
	.byte	W06
	.byte		PAN   , c_v-64
	.byte		N06   , Fs3 
	.byte	W06
	.byte		        Cs3 
	.byte	W06
	.byte		        Gs3 
	.byte	W06
	.byte		        Cs3 
	.byte	W06
	.byte		        As3 
	.byte	W06
	.byte		        Cs3 
	.byte	W06
	.byte		        Bn3 
	.byte	W06
	.byte		        Cs3 
	.byte	W06
	.byte		        En3 
	.byte	W06
	.byte		        Cs3 
	.byte	W06
	.byte		        Fs3 
	.byte	W06
	.byte		        Cs3 
	.byte	W06
	.byte		        Gs3 
	.byte	W06
	.byte		        Cs3 
	.byte	W03
	.byte	PATT
	 .word	seq_000_0 + 0x3DE
	.byte	W03
	.byte		N06   , Cs3 , v100
	.byte	W06
	.byte		        Gs3 
	.byte	W06
	.byte		PAN   , c_v-64
	.byte		N06   , Fs3 
	.byte	W06
	.byte		        Cs3 
	.byte	W06
	.byte		        Gs3 
	.byte	W06
	.byte		        Cs3 
	.byte	W06
	.byte		        As3 
	.byte	W06
	.byte		        Cs3 
	.byte	W06
	.byte		        Bn3 
	.byte	W06
	.byte		        Cs3 
	.byte	W06
	.byte	GOTO
	 .word	seq_000_0 + 0xA0
	.byte	FINE

@*********************** Track 02 ***********************@

seq_000_1:
	.byte	KEYSH , seq_000_key+0
	.byte	W01
	.byte		VOICE , 7
	.byte	W01
	.byte		VOL   , 103*seq_000_mvl/mxv
	.byte	W01
	.byte		PAN   , c_v+0
	.byte	W01
	.byte		BEND  , c_v+0
	.byte	W01
	.byte		LFOS  , 28
	.byte	W01
	.byte		LFODL , 14
	.byte	W01
	.byte		MODT  , mod_vib
	.byte	W01
	.byte		MOD   , 5
	.byte	W01
	.byte	W01
	.byte		XCMD  , xIECV , 40
	.byte	W01
	.byte	W01
	.byte		        xIECL , 4
	.byte	W84
	.byte	W96
	.byte	W96
	.byte	W96
	.byte	W15
	.byte		VOICE , 7
	.byte		N12   , Cs4 , v112
	.byte	W12
	.byte		        En3 
	.byte	W12
	.byte		        Fs3 
	.byte	W12
	.byte		        En4 
	.byte	W12
	.byte		        En4 , v060
	.byte	W12
	.byte		        Ds4 , v112
	.byte	W12
	.byte		        Bn3 
	.byte	W09
	.byte	W03
	.byte		N48   , Gs3 
	.byte	W60
	.byte		N12   , Gs3 , v060
	.byte	W12
	.byte		        Gs3 , v112
	.byte	W12
	.byte		        An3 
	.byte	W09
	.byte	W03
	.byte		N06   , Bn3 
	.byte	W06
	.byte		        Bn3 , v060
	.byte	W06
	.byte		N12   , Bn3 , v112
	.byte	W12
	.byte		        An3 
	.byte	W12
	.byte		N48   , Cs4 
	.byte	W56
	.byte	W01
	.byte	W09
	.byte		VOICE , 8
	.byte		PAN   , c_v+63
	.byte	W06
	.byte		N06   , Fs2 , v120
	.byte	W12
	.byte		        Dn2 
	.byte	W06
	.byte		        Gs2 
	.byte	W12
	.byte		        Gs2 , v060
	.byte	W06
	.byte		        En2 , v120
	.byte	W12
	.byte		PAN   , c_v-64
	.byte		N12   , Fs2 
	.byte	W12
	.byte		        Gs2 
	.byte	W12
	.byte		        An2 
	.byte	W09
	.byte	W03
	.byte		        Bn2 
	.byte	W12
	.byte		VOICE , 7
	.byte		PAN   , c_v+0
	.byte		N12   , Cs4 , v112
	.byte	W12
	.byte		        En3 
	.byte	W12
	.byte		        Fs3 
	.byte	W12
	.byte		        En4 
	.byte	W12
	.byte		        En4 , v060
	.byte	W12
	.byte		        Ds4 , v112
	.byte	W12
	.byte		        Ds4 , v060
	.byte	W09
	.byte	W03
	.byte		        Bn3 , v112
	.byte	W12
	.byte		        Cs4 
	.byte	W12
	.byte		        En3 
	.byte	W12
	.byte		        Fs3 
	.byte	W12
	.byte		        En4 
	.byte	W12
	.byte		        En4 , v060
	.byte	W12
	.byte		        Ds4 , v112
	.byte	W12
	.byte		        Ds4 , v060
	.byte	W09
	.byte	W03
	.byte		        Bn3 , v112
	.byte	W12
	.byte		        Cs4 
	.byte	W12
	.byte		        En3 
	.byte	W12
	.byte		        Fs3 
	.byte	W12
	.byte		        En4 
	.byte	W12
	.byte		        En4 , v060
	.byte	W12
	.byte		        Ds4 , v112
	.byte	W12
	.byte		        Bn3 
	.byte	W09
	.byte	W03
	.byte		        Cs4 
	.byte	W12
	.byte		        Gs4 
	.byte	W12
	.byte		        En4 
	.byte	W12
	.byte		        Fs4 
	.byte	W12
	.byte		        Gs4 
	.byte	W12
	.byte		        An4 
	.byte	W12
	.byte		        Bn4 
	.byte	W21
	.byte	W09
	.byte		PAN   , c_v-64
	.byte	W06
	.byte		N12   , Bn3 
	.byte	W12
	.byte		N06   , Fs2 
	.byte	W06
	.byte		        Bn2 
	.byte	W06
	.byte		N12   , Cs4 
	.byte	W12
	.byte		N18   , An3 
	.byte	W18
	.byte		N12   , An3 , v072
	.byte	W18
	.byte		VOICE , 8
	.byte		PAN   , c_v+0
	.byte		N12   , An3 , v080
	.byte	W09
	.byte	W03
	.byte		        Bn3 
	.byte	W12
	.byte		        Cs4 
	.byte	W12
	.byte		N06   , Cs4 , v040
	.byte	W06
	.byte		N12   , Bn3 , v080
	.byte	W12
	.byte		N06   , Bn3 , v040
	.byte	W06
	.byte		N12   , An3 , v080
	.byte	W18
	.byte		N06   , An3 , v040
	.byte	W06
	.byte		N12   , Gs3 , v080
	.byte	W18
	.byte		N06   , Gs3 , v040
	.byte	W03
	.byte	W03
	.byte		N12   , En3 , v080
	.byte	W12
	.byte		VOICE , 7
	.byte		PAN   , c_v+63
	.byte		N12   , Bn3 , v112
	.byte	W12
	.byte		N06   , Fs2 
	.byte	W06
	.byte		        Bn2 
	.byte	W06
	.byte		N12   , Cs4 
	.byte	W12
	.byte		N24   , An3 
	.byte	W24
	.byte		N12   , An3 , v072
	.byte	W12
	.byte		VOICE , 8
	.byte		PAN   , c_v+0
	.byte		N12   , An3 , v080
	.byte	W09
	.byte	W03
	.byte		        Bn3 
	.byte	W12
	.byte		        Cs4 
	.byte	W12
	.byte		N06   , Cs4 , v040
	.byte	W06
	.byte		N12   , Bn3 , v080
	.byte	W12
	.byte		N06   , Bn3 , v040
	.byte	W06
	.byte		N12   , An3 , v080
	.byte	W18
	.byte		N06   , An3 , v040
	.byte	W06
	.byte		N12   , Gs3 , v080
	.byte	W12
	.byte		        An3 
	.byte	W09
	.byte	W03
	.byte		        Cs4 
	.byte	W12
	.byte		PAN   , c_v+0
	.byte		N12   , Dn4 , v100
	.byte	W12
	.byte		        Dn4 , v052
	.byte	W12
	.byte		        En4 , v100
	.byte	W12
	.byte		N18   , Cs4 
	.byte	W24
	.byte		N06   , Cs3 
	.byte	W06
	.byte		        En3 
	.byte	W06
	.byte		N12   , Bn3 
	.byte	W09
	.byte	W03
	.byte		        An3 
	.byte	W12
	.byte		        Gs3 
	.byte	W12
	.byte		        An3 
	.byte	W12
	.byte		        Bn3 
	.byte	W12
	.byte		        En3 
	.byte	W12
	.byte		        Fs3 
	.byte	W12
	.byte		        Gs3 
	.byte	W12
	.byte		        An3 
	.byte	W09
	.byte	W03
	.byte		        Bn3 
	.byte	W12
	.byte		N24   , As3 
	.byte	W24
	.byte		N12   , Cs3 
	.byte	W12
	.byte		        Fs3 
	.byte	W12
	.byte		        Fs3 , v052
	.byte	W12
	.byte		        An3 , v100
	.byte	W12
	.byte		        Bn3 
	.byte	W09
	.byte	W03
	.byte		        Cs4 
	.byte	W12
	.byte		N18   , En4 
	.byte	W24
	.byte		N12   , En4 , v052
	.byte	W12
	.byte		N18   , Ds4 , v100
	.byte	W24
	.byte		N12   , Ds4 , v052
	.byte	W12
	.byte		        Bn3 , v100
	.byte	W09
	.byte	W03
	.byte		N06   , Cs4 
	.byte	W12
	.byte		        Cs4 , v060
	.byte	W06
	.byte		PAN   , c_v+63
	.byte	W06
	.byte		N06   , Bn3 , v080
	.byte	W06
	.byte		        Cs4 
	.byte	W06
	.byte		        Cs4 , v040
	.byte	W05
	.byte		PAN   , c_v-64
	.byte	W01
	.byte		N06   , Bn3 , v060
	.byte	W06
	.byte		        Cs4 
	.byte	W06
	.byte		        Cs4 , v032
	.byte	W36
	.byte	W03
	.byte	W96
	.byte	W96
	.byte	W96
	.byte		PAN   , c_v+0
	.byte	W60
	.byte	W03
	.byte	GOTO
	 .word	seq_000_1 + 0x28
	.byte	FINE

@*********************** Track 03 ***********************@

seq_000_2:
	.byte	KEYSH , seq_000_key+0
	.byte	W01
	.byte		VOICE , 16
	.byte	W01
	.byte		VOL   , 113*seq_000_mvl/mxv
	.byte	W01
	.byte		PAN   , c_v+0
	.byte	W01
	.byte		BEND  , c_v+0
	.byte	W01
	.byte		LFOS  , 28
	.byte	W01
	.byte		LFODL , 14
	.byte	W01
	.byte		MODT  , mod_vib
	.byte	W01
	.byte		MOD   , 10
	.byte	W01
	.byte	W01
	.byte		XCMD  , xIECV , 30
	.byte	W01
	.byte	W01
	.byte		        xIECL , 3
	.byte	W03
	.byte		N12   , Cs2 , v120
	.byte	W12
	.byte		N06   , Cs1 
	.byte	W06
	.byte		        Cs2 
	.byte	W06
	.byte		        Gs2 
	.byte	W12
	.byte		N12   , Cs2 
	.byte	W18
	.byte		N06
	.byte	W06
	.byte		        Cs3 
	.byte	W18
	.byte		        Cs2 
	.byte	W03
	.byte	W03
	.byte		N06   , En2 , v120
	.byte	W12
	.byte		N12   , Cs2 
	.byte	W12
	.byte		N06   , Cs1 
	.byte	W06
	.byte		        Cs2 
	.byte	W06
	.byte		        Gs2 
	.byte	W12
	.byte		N12   , Cs2 
	.byte	W18
	.byte		N06
	.byte	W06
	.byte		        Cs3 
	.byte	W18
	.byte		        Cs2 
	.byte	W03
	.byte	PEND
	.byte	PATT
	 .word	seq_000_2 + 0x38
	.byte	PATT
	 .word	seq_000_2 + 0x38
	.byte	W03
	.byte		N06   , En2 , v120
	.byte	W12
	.byte		N12   , Cs2 , v120
	.byte	W12
	.byte		N06   , Cs1 
	.byte	W06
	.byte		        Cs2 
	.byte	W06
	.byte		        Gs2 
	.byte	W12
	.byte		N12   , Cs2 
	.byte	W18
	.byte		N06
	.byte	W06
	.byte		        Cs3 
	.byte	W18
	.byte		        Cs2 
	.byte	W03
	.byte	PATT
	 .word	seq_000_2 + 0x38
	.byte	W03
	.byte		N06   , En2 , v120
	.byte	W12
	.byte		N12   , Dn2 
	.byte	W12
	.byte		N06   , Dn1 
	.byte	W06
	.byte		        Dn2 
	.byte	W06
	.byte		        An2 
	.byte	W12
	.byte		N12   , Dn2 
	.byte	W18
	.byte		N06
	.byte	W06
	.byte		        Dn3 
	.byte	W18
	.byte		        Dn2 
	.byte	W03
	.byte	W03
	.byte		        Fs2 
	.byte	W12
	.byte		N12   , Dn2 
	.byte	W12
	.byte		N06   , Dn1 
	.byte	W06
	.byte		        Dn2 
	.byte	W06
	.byte		        An2 
	.byte	W12
	.byte		N12   , Dn2 
	.byte	W18
	.byte		N06
	.byte	W06
	.byte		        Dn3 
	.byte	W18
	.byte		        Dn2 
	.byte	W03
	.byte	W03
	.byte		        Fs2 
	.byte	W12
	.byte		N12   , En2 
	.byte	W12
	.byte		N06   , En1 
	.byte	W06
	.byte		        En2 
	.byte	W06
	.byte		        Bn2 
	.byte	W12
	.byte		N12   , En2 
	.byte	W18
	.byte		N06
	.byte	W06
	.byte		        En3 
	.byte	W18
	.byte		        En2 
	.byte	W03
	.byte	W03
	.byte		        Gs2 
	.byte	W12
	.byte		N12   , Fs2 
	.byte	W12
	.byte		N06   , Fs1 
	.byte	W06
	.byte		        Fs2 
	.byte	W06
	.byte		        Cs3 
	.byte	W12
	.byte		N12   , Fs2 
	.byte	W18
	.byte		N06
	.byte	W06
	.byte		        Fs3 
	.byte	W18
	.byte		        Fs2 
	.byte	W03
	.byte	W03
	.byte		        An2 
	.byte	W12
	.byte		N12   , Gs2 
	.byte	W12
	.byte		N06   , Gs1 
	.byte	W06
	.byte		        Gs2 
	.byte	W06
	.byte		        Ds3 
	.byte	W12
	.byte		N12   , Gs2 
	.byte	W18
	.byte		N06
	.byte	W06
	.byte		        Gs3 
	.byte	W18
	.byte		        Gs2 
	.byte	W03
	.byte	W03
	.byte		        Bn2 
	.byte	W12
	.byte		N12   , An2 
	.byte	W12
	.byte		N06   , An1 
	.byte	W06
	.byte		        An2 
	.byte	W06
	.byte		        En3 
	.byte	W12
	.byte		N12   , An2 
	.byte	W18
	.byte		N06   , Bn1 
	.byte	W06
	.byte		        Bn2 
	.byte	W18
	.byte		        Bn1 
	.byte	W03
	.byte	W03
	.byte		        Ds2 
	.byte	W12
	.byte		N18   , An2 
	.byte	W24
	.byte		N12   , An1 
	.byte	W12
	.byte		        An2 
	.byte	W18
	.byte		N06   , An1 
	.byte	W12
	.byte		N06
	.byte	W06
	.byte		        An2 
	.byte	W09
	.byte	W03
	.byte		        Gs2 
	.byte	W24
	.byte		        An1 
	.byte	W12
	.byte		N06
	.byte	W06
	.byte		        An2 
	.byte	W12
	.byte		        An1 
	.byte	W06
	.byte		        An2 
	.byte	W06
	.byte		        An1 
	.byte	W06
	.byte		        Bn2 
	.byte	W12
	.byte		        An2 
	.byte	W09
	.byte	W03
	.byte		        Gs2 
	.byte	W06
	.byte		        Gs1 
	.byte	W06
	.byte		N18   , Fs2 
	.byte	W24
	.byte		N12   , Fs1 
	.byte	W12
	.byte		        Fs2 
	.byte	W18
	.byte		N06   , Fs1 
	.byte	W12
	.byte		N06
	.byte	W06
	.byte		        Fs2 
	.byte	W09
	.byte	W03
	.byte		        En2 
	.byte	W24
	.byte		        Fs1 
	.byte	W12
	.byte		N06
	.byte	W06
	.byte		        Fs2 
	.byte	W12
	.byte		        Fs1 
	.byte	W06
	.byte		        Fs2 
	.byte	W06
	.byte		        Fs1 
	.byte	W06
	.byte		        Gs2 
	.byte	W12
	.byte		        Fs2 
	.byte	W09
	.byte	W03
	.byte		        En2 
	.byte	W12
	.byte		N18   , Dn2 
	.byte	W24
	.byte		N12
	.byte	W12
	.byte		        Dn3 
	.byte	W18
	.byte		N06   , Dn2 
	.byte	W12
	.byte		N06
	.byte	W06
	.byte		        Dn3 
	.byte	W09
	.byte	W03
	.byte		        Dn2 
	.byte	W12
	.byte		        Cs3 
	.byte	W12
	.byte		        Cs2 
	.byte	W12
	.byte		N06
	.byte	W06
	.byte		        Cs3 
	.byte	W12
	.byte		        Cs2 
	.byte	W06
	.byte		        Cs3 
	.byte	W06
	.byte		        Cs2 
	.byte	W06
	.byte		        Ds3 
	.byte	W12
	.byte		        Cs3 
	.byte	W09
	.byte	W03
	.byte		        Ds2 
	.byte	W06
	.byte		        En2 
	.byte	W06
	.byte		        Fs2 
	.byte	W12
	.byte		        Fs3 
	.byte	W12
	.byte		        Fs1 
	.byte	W06
	.byte		N12   , Fs2 
	.byte	W24
	.byte		N06
	.byte	W12
	.byte		N06
	.byte	W06
	.byte		        Bn2 
	.byte	W09
	.byte	W03
	.byte		        An2 
	.byte	W12
	.byte		N24   , Gs2 
	.byte	W80
	.byte	W01
	.byte	W60
	.byte	W03
	.byte		N12   , Cs2 
	.byte	W12
	.byte		N06   , Cs1 
	.byte	W06
	.byte		        Cs2 
	.byte	W06
	.byte		        Gs2 
	.byte	W09
	.byte	W03
	.byte		N12   , Cs2 , v120
	.byte	W18
	.byte		N06
	.byte	W06
	.byte		        Cs3 
	.byte	W18
	.byte		        Cs2 
	.byte	W06
	.byte		        En2 
	.byte	W12
	.byte		N12   , Cs2 
	.byte	W12
	.byte		N06   , Cs1 
	.byte	W06
	.byte		        Cs2 
	.byte	W06
	.byte		        Gs2 
	.byte	W09
	.byte	PEND
	.byte	PATT
	 .word	seq_000_2 + 0x199
	.byte	PATT
	 .word	seq_000_2 + 0x199
	.byte	W03
	.byte		N12   , Cs2 , v120
	.byte	W18
	.byte		N06
	.byte	W06
	.byte		        Cs3 
	.byte	W18
	.byte		        Cs2 
	.byte	W06
	.byte		        En2 
	.byte	W12
	.byte	GOTO
	 .word	seq_000_2 + 0x60
	.byte	FINE

@*********************** Track 04 ***********************@

seq_000_3:
	.byte	KEYSH , seq_000_key+0
	.byte		VOICE , 0
	.byte	W02
	.byte		VOL   , 103*seq_000_mvl/mxv
	.byte	W01
	.byte		PAN   , c_v+0
	.byte	W01
	.byte		BEND  , c_v+0
	.byte	W11
	.byte		N06   , Fn1 , v080
	.byte		N15   , An1 
	.byte	W18
	.byte		N03   , Fs1 , v040
	.byte		N06   , An3 , v032
	.byte	W06
	.byte		N03   , Fs1 , v060
	.byte		N06   , Fs2 , v092
	.byte	W06
	.byte		N03   , Fs1 , v052
	.byte	W06
	.byte		N06   , Fn1 , v080
	.byte		N09   , Fs3 , v092
	.byte	W06
	.byte		N06   , An3 , v032
	.byte	W06
	.byte		N03   , Fs1 , v060
	.byte	W06
	.byte		        Gn1 
	.byte	W06
	.byte		        Fs1 , v052
	.byte		N06   , An3 
	.byte	W06
	.byte		N03   , Gn1 , v060
	.byte		N06   , An3 , v052
	.byte	W06
	.byte		N03   , Fs1 , v060
	.byte		N06   , Fs2 , v092
	.byte	W06
	.byte		N03   , Fs1 , v052
	.byte	W03
	.byte	W03
	.byte		N06   , Fn1 , v080
	.byte		N03   , Gn1 , v060
	.byte	W06
	.byte		        Fs1 , v040
	.byte	W06
	.byte		N06   , Fn1 , v080
	.byte		N09   , An1 , v060
	.byte	W12
	.byte		N03   , Fs1 , v040
	.byte	W06
	.byte		N03
	.byte		N06   , An3 , v032
	.byte	W06
	.byte		N03   , Fs1 , v060
	.byte		N06   , Fs2 , v092
	.byte	W06
	.byte		N03   , Fs1 , v052
	.byte	W06
	.byte		N06   , Fn1 , v080
	.byte		N09   , En3 , v092
	.byte	W06
	.byte		N06   , An3 , v032
	.byte	W06
	.byte		N03   , Fs1 , v060
	.byte	W06
	.byte		        Gn1 
	.byte	W06
	.byte		        Fs1 , v052
	.byte		N06   , An3 
	.byte	W06
	.byte		N03   , Gn1 , v060
	.byte		N06   , An3 , v052
	.byte	W06
	.byte		N03   , Fs1 , v060
	.byte		N06   , Fs2 , v092
	.byte	W06
	.byte		N03   , Fs1 , v052
	.byte	W03
	.byte	W03
	.byte		N06   , Fn1 , v080
	.byte		N03   , Gn1 , v060
	.byte	W06
	.byte		        Fs1 , v040
	.byte	W06
	.byte		N06   , Fn1 , v080
	.byte		N09   , An1 , v060
	.byte	W12
	.byte		N03   , Fs1 , v040
	.byte	W06
	.byte		N03
	.byte		N06   , An3 , v032
	.byte	W06
	.byte		N03   , Fs1 , v060
	.byte		N06   , Fs2 , v092
	.byte	W06
	.byte		N03   , Fs1 , v052
	.byte	W06
	.byte		N06   , Fn1 , v080
	.byte		N09   , Fs3 , v092
	.byte	W06
	.byte		N06   , An3 , v032
	.byte	W06
	.byte		N03   , Fs1 , v060
	.byte	W06
	.byte		        Gn1 
	.byte	W06
	.byte		        Fs1 , v052
	.byte		N06   , An3 
	.byte	W06
	.byte		N03   , Gn1 , v060
	.byte		N06   , An3 , v052
	.byte	W06
	.byte		N03   , Fs1 , v060
	.byte		N06   , Fs2 , v092
	.byte	W06
	.byte		N03   , Fs1 , v052
	.byte	W03
	.byte	W03
	.byte		N06   , Fn1 , v080
	.byte		N03   , Gn1 , v060
	.byte	W06
	.byte		        Fs1 , v040
	.byte	W06
	.byte		N06   , Fn1 , v080
	.byte		N09   , An1 , v060
	.byte	W12
	.byte		N03   , Fs1 , v040
	.byte	W06
	.byte		N03
	.byte		N06   , An3 , v032
	.byte	W06
	.byte		N03   , Fs1 , v060
	.byte	W06
	.byte		        Fs1 , v052
	.byte	W06
	.byte		N09   , En3 , v092
	.byte	W06
	.byte		N06   , An3 , v032
	.byte	W06
	.byte		N03   , Fs1 , v060
	.byte	W06
	.byte		        Gn1 
	.byte	W06
	.byte		        Fs1 , v052
	.byte		N06   , An3 
	.byte	W06
	.byte		N03   , Gn1 , v060
	.byte		N06   , An3 , v052
	.byte	W06
	.byte		N03   , Fs1 , v060
	.byte		N24   , En2 , v112
	.byte	W06
	.byte		N03   , Fs1 , v052
	.byte	W03
	.byte	W03
	.byte		        Gn1 , v060
	.byte	W06
	.byte		        Fs1 , v040
	.byte	W06
	.byte		N06   , Fn1 , v080
	.byte		N15   , An1 
	.byte	W18
	.byte		N03   , Fs1 , v040
	.byte		N06   , An3 , v032
	.byte	W06
	.byte		N03   , Fs1 , v060
	.byte		N06   , Fs2 , v092
	.byte	W06
	.byte		N03   , Fs1 , v052
	.byte	W06
	.byte		N06   , Fn1 , v080
	.byte		N03   , Gn1 , v060
	.byte	W06
	.byte		        Fs1 , v040
	.byte		N06   , An3 , v032
	.byte	W06
	.byte		N03   , Fs1 , v060
	.byte	W06
	.byte		        Fs1 , v052
	.byte	W06
	.byte		        Gn1 , v060
	.byte		N06   , An3 , v052
	.byte	W06
	.byte		N03   , Fs1 , v040
	.byte		N06   , An3 , v052
	.byte	W06
	.byte		N03   , Fs1 , v060
	.byte		N06   , Fs2 , v092
	.byte	W06
	.byte		N03   , Fs1 , v052
	.byte	W03
	.byte	W03
	.byte		N06   , Fn1 , v080
	.byte		N03   , Gn1 , v060
	.byte	W06
	.byte		        Fs1 , v040
	.byte	W06
	.byte		N06   , Fn1 , v080
	.byte		N03   , Fs1 , v060
	.byte	W06
	.byte		        Fs1 , v052
	.byte	W06
	.byte		        Gn1 , v060
	.byte	W06
	.byte		        Fs1 , v040
	.byte		N06   , An3 , v032
	.byte	W06
	.byte		N03   , Fs1 , v060
	.byte		N06   , Fs2 , v092
	.byte	W06
	.byte		N03   , Fs1 , v052
	.byte	W06
	.byte		N06   , Fn1 , v080
	.byte		N03   , Gn1 , v060
	.byte	W06
	.byte		        Fs1 , v040
	.byte		N06   , An3 , v032
	.byte	W06
	.byte		N03   , Fs1 , v060
	.byte	W06
	.byte		        Fs1 , v052
	.byte	W06
	.byte		        Gn1 , v060
	.byte		N06   , An3 , v052
	.byte	W06
	.byte		N03   , Fs1 , v040
	.byte		N06   , An3 , v052
	.byte	W06
	.byte		N03   , Fs1 , v060
	.byte		N06   , Fs2 , v092
	.byte	W06
	.byte		N03   , Fs1 , v052
	.byte	W03
	.byte	PEND
	.byte	PATT
	 .word	seq_000_3 + 0x17C
	.byte	W03
	.byte		N06   , Fn1 , v080
	.byte		N03   , Gn1 , v060
	.byte	W06
	.byte		        Fs1 , v040
	.byte	W06
	.byte		N06   , Fn1 , v080
	.byte		N03   , Fs1 , v060
	.byte	W06
	.byte		        Fs1 , v052
	.byte	W06
	.byte		        Gn1 , v060
	.byte	W06
	.byte		        Fs1 , v040
	.byte		N06   , An3 , v032
	.byte	W06
	.byte		N03   , Fs1 , v060
	.byte		N06   , Fs2 , v092
	.byte	W06
	.byte		N03   , Fs1 , v052
	.byte	W06
	.byte		N06   , Fn1 , v080
	.byte		N03   , Gn1 , v060
	.byte	W06
	.byte		        Fs1 , v040
	.byte		N06   , An3 , v032
	.byte	W06
	.byte		N03   , Fs1 , v060
	.byte	W06
	.byte		        Gn1 
	.byte	W06
	.byte		        Fs1 , v052
	.byte		N06   , An3 
	.byte	W06
	.byte		N03   , Gn1 , v060
	.byte		N06   , An3 , v052
	.byte	W06
	.byte		N03   , Fs1 , v060
	.byte		N06   , Fs2 , v092
	.byte	W06
	.byte		N03   , Fs1 , v052
	.byte	W03
	.byte	W03
	.byte		N06   , Fn1 , v080
	.byte		N03   , Gn1 , v060
	.byte	W06
	.byte		        Fs1 , v040
	.byte	W06
	.byte		N06   , Fn1 , v080
	.byte		N15   , An1 
	.byte	W18
	.byte		N03   , Fs1 , v040
	.byte		N06   , An3 , v032
	.byte	W06
	.byte		N03   , Fs1 , v060
	.byte		N06   , Fs2 , v092
	.byte	W06
	.byte		N03   , Fs1 , v052
	.byte	W06
	.byte		N06   , Fn1 , v080
	.byte		N03   , Gn1 , v060
	.byte	W06
	.byte		        Fs1 , v040
	.byte		N06   , An3 , v032
	.byte	W06
	.byte		N03   , Fs1 , v060
	.byte	W06
	.byte		        Fs1 , v052
	.byte	W06
	.byte		        Gn1 , v060
	.byte		N06   , An3 , v052
	.byte	W06
	.byte		N03   , Fs1 , v040
	.byte		N06   , An3 , v052
	.byte	W06
	.byte		N03   , Fs1 , v060
	.byte		N06   , Fs2 , v092
	.byte	W06
	.byte		N03   , Fs1 , v052
	.byte	W03
	.byte	PATT
	 .word	seq_000_3 + 0x17C
	.byte	PATT
	 .word	seq_000_3 + 0x17C
	.byte	W03
	.byte		N06   , Fn1 , v080
	.byte		N03   , Gn1 , v060
	.byte	W06
	.byte		        Fs1 , v040
	.byte	W06
	.byte		N06   , Fn1 , v080
	.byte		N03   , Fs1 , v060
	.byte	W06
	.byte		        Fs1 , v052
	.byte	W06
	.byte		        Gn1 , v060
	.byte	W06
	.byte		        Fs1 , v040
	.byte		N06   , An3 , v032
	.byte	W06
	.byte		N03   , Fs1 , v060
	.byte		N06   , Fs2 , v092
	.byte	W06
	.byte		N03   , Fs1 , v052
	.byte	W06
	.byte		N06   , Fn1 , v080
	.byte		N03   , Gn1 , v060
	.byte	W06
	.byte		        Fs1 , v040
	.byte		N06   , An3 , v032
	.byte	W06
	.byte		N03   , Fs1 , v060
	.byte	W06
	.byte		        Gn1 
	.byte	W06
	.byte		        Fs1 , v052
	.byte		N06   , An3 
	.byte	W06
	.byte		N03   , Gn1 , v060
	.byte	W06
	.byte		N06   , Fn1 , v080
	.byte		N03   , Fs1 , v060
	.byte	W06
	.byte		        Fs1 , v052
	.byte		N06   , Dn3 , v112
	.byte	W03
	.byte	W03
	.byte		N03   , Gn1 , v060
	.byte		N06   , Cs3 , v112
	.byte	W06
	.byte		N03   , Fs1 , v040
	.byte		N06   , Cn3 , v112
	.byte	W06
	.byte		        Fn1 , v080
	.byte		N15   , An1 , v092
	.byte	W12
	.byte		N06   , Fn1 , v080
	.byte	W06
	.byte		N03   , Fs1 , v040
	.byte	W06
	.byte		        Fs1 , v060
	.byte		N06   , Fs2 , v092
	.byte	W12
	.byte		        Fn1 , v080
	.byte		N03   , Gn1 , v060
	.byte	W06
	.byte		N06   , An3 , v032
	.byte	W06
	.byte		N03   , Fs1 , v060
	.byte	W12
	.byte		        Gn1 
	.byte		N06   , Fs2 , v092
	.byte	W12
	.byte		N03   , Fs1 , v060
	.byte	W06
	.byte		        Fs1 , v052
	.byte	W03
	.byte	W03
	.byte		N06   , Fn1 , v080
	.byte		N03   , Gn1 , v060
	.byte	W06
	.byte		        Fs1 , v040
	.byte	W06
	.byte		N06   , Fn1 , v080
	.byte		N03   , Fs1 , v060
	.byte	W06
	.byte		        Fs1 , v052
	.byte	W06
	.byte		        Gn1 , v060
	.byte		N12   , Dn3 , v112
	.byte	W06
	.byte		N03   , Fs1 , v040
	.byte	W06
	.byte		        Fs1 , v060
	.byte		N12   , Cn3 , v112
	.byte	W06
	.byte		N03   , Fs1 , v052
	.byte	W06
	.byte		N06   , Fn1 , v080
	.byte		N03   , Gn1 , v060
	.byte	W06
	.byte		        Fs1 , v040
	.byte		N06   , An3 , v052
	.byte	W06
	.byte		N03   , Fs1 , v060
	.byte	W12
	.byte		        Gn1 
	.byte		N06   , An3 , v052
	.byte	W12
	.byte		N03   , Fs1 , v060
	.byte		N06   , Fs2 , v092
	.byte	W06
	.byte		N03   , Fs1 , v052
	.byte	W03
	.byte	W03
	.byte		N06   , Fn1 , v080
	.byte		N03   , Gn1 , v060
	.byte	W06
	.byte		        Fs1 , v040
	.byte	W06
	.byte		N06   , Fn1 , v080
	.byte		N15   , An1 
	.byte	W12
	.byte		N06   , Fn1 
	.byte	W06
	.byte		N03   , Fs1 , v040
	.byte	W06
	.byte		        Fs1 , v060
	.byte		N06   , Fs2 , v092
	.byte	W12
	.byte		        Fn1 , v080
	.byte		N03   , Gn1 , v060
	.byte	W06
	.byte		N06   , An3 , v032
	.byte	W06
	.byte		N03   , Fs1 , v060
	.byte	W12
	.byte		        Gn1 
	.byte		N06   , Fs2 , v092
	.byte	W12
	.byte		N03   , Fs1 , v060
	.byte	W06
	.byte		        Fs1 , v052
	.byte	W03
	.byte	W03
	.byte		N06   , Fn1 , v080
	.byte		N03   , Gn1 , v060
	.byte	W06
	.byte		        Fs1 , v040
	.byte	W06
	.byte		N06   , Fn1 , v080
	.byte		N03   , Fs1 , v060
	.byte	W06
	.byte		        Fs1 , v052
	.byte	W06
	.byte		        Gn1 , v060
	.byte		N12   , Dn3 , v112
	.byte	W06
	.byte		N03   , Fs1 , v040
	.byte	W06
	.byte		        Fs1 , v060
	.byte		N06   , Cs3 , v112
	.byte	W06
	.byte		N03   , Fs1 , v052
	.byte		N06   , Cn3 , v112
	.byte	W06
	.byte		        Fn1 , v080
	.byte		N03   , Gn1 , v060
	.byte	W06
	.byte		        Fs1 , v040
	.byte		N06   , An3 , v052
	.byte	W06
	.byte		N03   , Fs1 , v060
	.byte	W12
	.byte		        Gn1 
	.byte		N06   , An3 , v052
	.byte	W12
	.byte		N03   , Fs1 , v060
	.byte		N06   , Fs2 , v092
	.byte	W06
	.byte		N03   , Fs1 , v052
	.byte		N12   , Cs3 , v112
	.byte	W03
	.byte	W03
	.byte		N03   , Gn1 , v060
	.byte	W06
	.byte		        Fs1 , v040
	.byte		N06   , Cn3 , v112
	.byte	W06
	.byte		        Fn1 , v080
	.byte		N03   , Fs1 , v060
	.byte	W06
	.byte		        Fs1 , v052
	.byte	W06
	.byte		N06   , Fn1 , v080
	.byte		N03   , Gn1 , v060
	.byte	W06
	.byte		        Fs1 , v040
	.byte	W06
	.byte		        Fs1 , v060
	.byte		N06   , Fs2 , v092
	.byte	W12
	.byte		        Fn1 , v080
	.byte		N03   , Gn1 , v060
	.byte	W06
	.byte		N06   , An3 , v032
	.byte	W06
	.byte		N03   , Fs1 , v060
	.byte	W12
	.byte		        Gn1 
	.byte		N06   , Fs2 , v092
	.byte	W12
	.byte		        Fn1 , v080
	.byte		N03   , Fs1 , v060
	.byte	W06
	.byte		        Fs1 , v052
	.byte	W03
	.byte	W03
	.byte		        Gn1 , v060
	.byte		N06   , An3 , v032
	.byte	W06
	.byte		N03   , Fs1 , v040
	.byte	W06
	.byte		N06   , Fn1 , v080
	.byte		N03   , Fs1 , v060
	.byte	W06
	.byte		        Fs1 , v052
	.byte	W06
	.byte		        Gn1 , v060
	.byte	W06
	.byte		        Fs1 , v040
	.byte		N06   , An3 , v032
	.byte	W06
	.byte		N03   , Fs1 , v060
	.byte		N06   , Fs2 , v092
	.byte	W06
	.byte		N03   , Fs1 , v052
	.byte	W06
	.byte		N06   , Fn1 , v080
	.byte		N03   , Gn1 , v060
	.byte	W06
	.byte		        Fs1 , v040
	.byte		N06   , An3 , v032
	.byte	W06
	.byte		N03   , Fs1 , v060
	.byte	W12
	.byte		        Gn1 
	.byte		N06   , An3 , v052
	.byte	W06
	.byte		N06
	.byte	W06
	.byte		N03   , Fs1 , v060
	.byte		N06   , Fs2 , v092
	.byte	W06
	.byte		N03   , Fs1 , v052
	.byte	W03
	.byte	W03
	.byte		N06   , Fn1 , v080
	.byte		N03   , Gn1 , v060
	.byte	W06
	.byte		        Fs1 , v040
	.byte	W06
	.byte		N06   , Fn1 , v080
	.byte		N15   , An1 , v072
	.byte	W12
	.byte		N06   , Fn1 , v080
	.byte	W06
	.byte		N03   , Fs1 , v040
	.byte	W06
	.byte		        Fs1 , v060
	.byte		N06   , Fs2 , v092
	.byte	W12
	.byte		        Fn1 , v080
	.byte		N03   , Gn1 , v060
	.byte	W06
	.byte		N06   , An3 , v032
	.byte	W06
	.byte		N03   , Fs1 , v060
	.byte	W12
	.byte		        Gn1 
	.byte		N06   , Fs2 , v092
	.byte	W12
	.byte		        Fn1 , v080
	.byte		N03   , Fs1 , v060
	.byte	W06
	.byte		        Fs1 , v052
	.byte	W03
	.byte	W03
	.byte		        Gn1 , v060
	.byte		N06   , An3 , v032
	.byte	W06
	.byte		N03   , Fs1 , v040
	.byte	W06
	.byte		N06   , Fn1 , v080
	.byte		N03   , Fs1 , v060
	.byte	W06
	.byte		        Fs1 , v052
	.byte	W06
	.byte		        Gn1 , v060
	.byte	W06
	.byte		        Fs1 , v040
	.byte		N06   , An3 , v032
	.byte	W06
	.byte		N03   , Fs1 , v060
	.byte		N06   , Fs2 , v092
	.byte	W06
	.byte		N03   , Fs1 , v052
	.byte	W06
	.byte		N06   , Fn1 , v080
	.byte		N03   , Gn1 , v060
	.byte	W06
	.byte		        Fs1 , v040
	.byte		N06   , An3 , v032
	.byte	W06
	.byte		N03   , Fs1 , v060
	.byte	W12
	.byte		        Gn1 
	.byte		N06   , An3 , v052
	.byte	W12
	.byte		N03   , Fs1 , v060
	.byte		N06   , Fs2 , v092
	.byte	W06
	.byte		N03   , Fs1 , v052
	.byte		N06   , Cs3 , v112
	.byte	W03
	.byte	W03
	.byte		N03   , Gn1 , v060
	.byte		N18   , Cn3 , v112
	.byte	W06
	.byte		N03   , Fs1 , v040
	.byte	W06
	.byte		        Fs1 , v060
	.byte	W06
	.byte		        Fs1 , v052
	.byte	W06
	.byte		        Gn1 , v060
	.byte	W06
	.byte		        Fs1 , v040
	.byte	W06
	.byte		        Fs1 , v060
	.byte	W06
	.byte		        Fs1 , v052
	.byte	W06
	.byte		        Gn1 , v060
	.byte	W06
	.byte		        Fs1 , v040
	.byte	W06
	.byte		N06   , Fn1 , v080
	.byte		N15   , An1 
	.byte	W18
	.byte		N03   , Fs1 , v040
	.byte		N06   , An3 , v032
	.byte	W06
	.byte		N03   , Fs1 , v060
	.byte		N06   , Fs2 , v092
	.byte	W06
	.byte		N03   , Fs1 , v052
	.byte	W03
	.byte	W03
	.byte		N06   , Fn1 , v080
	.byte		N09   , Fs3 , v092
	.byte	W06
	.byte		N06   , An3 , v032
	.byte	W06
	.byte		N03   , Fs1 , v060
	.byte	W06
	.byte		        Gn1 
	.byte	W06
	.byte		        Fs1 , v052
	.byte		N06   , An3 
	.byte	W06
	.byte		N03   , Gn1 , v060
	.byte		N06   , An3 , v052
	.byte	W06
	.byte		N03   , Fs1 , v060
	.byte		N06   , Fs2 , v092
	.byte	W06
	.byte		N03   , Fs1 , v052
	.byte	W06
	.byte		N06   , Fn1 , v080
	.byte		N03   , Gn1 , v060
	.byte	W06
	.byte		        Fs1 , v040
	.byte	W06
	.byte		N06   , Fn1 , v080
	.byte		N09   , An1 , v060
	.byte	W12
	.byte		N03   , Fs1 , v040
	.byte	W06
	.byte		N03
	.byte		N06   , An3 , v032
	.byte	W06
	.byte		N03   , Fs1 , v060
	.byte		N06   , Fs2 , v092
	.byte	W06
	.byte		N03   , Fs1 , v052
	.byte	W03
	.byte	W03
	.byte		N06   , Fn1 , v080
	.byte		N09   , En3 , v092
	.byte	W06
	.byte		N06   , An3 , v032
	.byte	W06
	.byte		N03   , Fs1 , v060
	.byte	W06
	.byte		        Gn1 
	.byte	W06
	.byte		        Fs1 , v052
	.byte		N06   , An3 
	.byte	W06
	.byte		N03   , Gn1 , v060
	.byte		N06   , An3 , v052
	.byte	W06
	.byte		N03   , Fs1 , v060
	.byte		N06   , Fs2 , v092
	.byte	W06
	.byte		N03   , Fs1 , v052
	.byte	W06
	.byte		N06   , Fn1 , v080
	.byte		N03   , Gn1 , v060
	.byte	W06
	.byte		        Fs1 , v040
	.byte	W06
	.byte		N06   , Fn1 , v080
	.byte		N09   , An1 , v060
	.byte	W12
	.byte		N03   , Fs1 , v040
	.byte	W06
	.byte		N03
	.byte		N06   , An3 , v032
	.byte	W06
	.byte		N03   , Fs1 , v060
	.byte		N06   , Fs2 , v092
	.byte	W06
	.byte		N03   , Fs1 , v052
	.byte	W03
	.byte	W03
	.byte		N06   , Fn1 , v080
	.byte		N09   , Fs3 , v092
	.byte	W06
	.byte		N06   , An3 , v032
	.byte	W06
	.byte		N03   , Fs1 , v060
	.byte	W06
	.byte		        Gn1 
	.byte	W06
	.byte		        Fs1 , v052
	.byte		N06   , An3 
	.byte	W06
	.byte		N03   , Gn1 , v060
	.byte		N06   , An3 , v052
	.byte	W06
	.byte		N03   , Fs1 , v060
	.byte		N06   , Fs2 , v092
	.byte	W06
	.byte		N03   , Fs1 , v052
	.byte	W06
	.byte		N06   , Fn1 , v080
	.byte		N03   , Gn1 , v060
	.byte	W06
	.byte		        Fs1 , v040
	.byte	W06
	.byte		N06   , Fn1 , v080
	.byte		N09   , An1 , v060
	.byte	W12
	.byte		N03   , Fs1 , v040
	.byte	W06
	.byte		N03
	.byte		N06   , An3 , v032
	.byte	W06
	.byte		N03   , Fs1 , v060
	.byte	W06
	.byte		        Fs1 , v052
	.byte	W03
	.byte	W03
	.byte		N09   , En3 , v092
	.byte	W06
	.byte		N06   , An3 , v032
	.byte	W06
	.byte		N03   , Fs1 , v060
	.byte	W06
	.byte		        Gn1 
	.byte	W06
	.byte		        Fs1 , v052
	.byte		N06   , An3 
	.byte	W06
	.byte		N03   , Gn1 , v060
	.byte		N06   , An3 , v052
	.byte	W06
	.byte		N03   , Fs1 , v060
	.byte		N24   , En2 , v100
	.byte	W06
	.byte		N03   , Fs1 , v052
	.byte	W06
	.byte		        Gn1 , v060
	.byte	W06
	.byte		        Fs1 , v040
	.byte	W06
	.byte	GOTO
	 .word	seq_000_3 + 0x138
	.byte	FINE

@*********************** Track 05 ***********************@

seq_000_4:
	.byte	KEYSH , seq_000_key+0
	.byte		VOICE , 61
	.byte	W01
	.byte		VOL   , 94*seq_000_mvl/mxv
	.byte	W01
	.byte		PAN   , c_v+0
	.byte	W01
	.byte		BEND  , c_v+0
	.byte	W12
	.byte		PAN   , c_v+63
	.byte		N18   , Cn4 , v080
	.byte	W24
	.byte		N12   , Cn4 , v032
	.byte	W12
	.byte		N18   , Bn3 , v080
	.byte	W24
	.byte		N12   , Bn3 , v032
	.byte	W21
	.byte	W09
	.byte		PAN   , c_v-64
	.byte	W06
	.byte		N18   , As3 , v080
	.byte	W24
	.byte		N12   , As3 , v032
	.byte	W12
	.byte		N18   , An3 , v080
	.byte	W24
	.byte		N12   , An3 , v032
	.byte	W21
	.byte	W09
	.byte		PAN   , c_v+63
	.byte	W06
	.byte		N18   , Cn4 , v080
	.byte	W24
	.byte		N12   , Cn4 , v032
	.byte	W12
	.byte		N18   , Bn3 , v080
	.byte	W24
	.byte		N12   , Bn3 , v032
	.byte	W21
	.byte	W09
	.byte		PAN   , c_v-64
	.byte	W06
	.byte		N18   , As3 , v080
	.byte	W24
	.byte		N12   , As3 , v032
	.byte	W12
	.byte		N18   , Cn4 , v080
	.byte	W24
	.byte		N12   , Cn4 , v032
	.byte	W21
	.byte	W15
	.byte	W80
	.byte	W01
	.byte	W96
	.byte	W96
	.byte	W96
	.byte	W15
	.byte		VOICE , 47
	.byte		PAN   , c_v-49
	.byte		N92   , Bn1 , v080
	.byte	W06
	.byte		PAN   , c_v-42
	.byte	W06
	.byte		        c_v-35
	.byte	W06
	.byte		        c_v-28
	.byte	W06
	.byte		        c_v-21
	.byte	W06
	.byte		        c_v-14
	.byte	W06
	.byte		        c_v-7
	.byte	W06
	.byte		        c_v+0
	.byte	W06
	.byte		        c_v+7
	.byte	W06
	.byte		        c_v+14
	.byte	W06
	.byte		        c_v+21
	.byte	W06
	.byte		        c_v+28
	.byte	W06
	.byte		        c_v+35
	.byte	W06
	.byte		        c_v+42
	.byte	W03
	.byte	W03
	.byte		        c_v+49
	.byte	W06
	.byte		        c_v+56
	.byte	W05
	.byte		N92   , Cs2 
	.byte	W01
	.byte		PAN   , c_v+63
	.byte	W06
	.byte		        c_v+63
	.byte	W06
	.byte		        c_v+56
	.byte	W06
	.byte		        c_v+49
	.byte	W06
	.byte		        c_v+42
	.byte	W06
	.byte		        c_v+35
	.byte	W06
	.byte		        c_v+28
	.byte	W06
	.byte		        c_v+21
	.byte	W06
	.byte		        c_v+14
	.byte	W06
	.byte		        c_v+6
	.byte	W06
	.byte		        c_v-1
	.byte	W06
	.byte		        c_v-8
	.byte	W06
	.byte		        c_v-15
	.byte	W06
	.byte		        c_v-22
	.byte	W03
	.byte	W03
	.byte		        c_v-29
	.byte	W06
	.byte		        c_v-36
	.byte	W05
	.byte		N92   , Ds2 
	.byte	W01
	.byte		PAN   , c_v-49
	.byte	W06
	.byte		        c_v-42
	.byte	W06
	.byte		        c_v-35
	.byte	W06
	.byte		        c_v-28
	.byte	W06
	.byte		        c_v-21
	.byte	W06
	.byte		        c_v-14
	.byte	W06
	.byte		        c_v-7
	.byte	W06
	.byte		        c_v+0
	.byte	W06
	.byte		        c_v+7
	.byte	W06
	.byte		        c_v+14
	.byte	W06
	.byte		        c_v+21
	.byte	W06
	.byte		        c_v+28
	.byte	W06
	.byte		        c_v+35
	.byte	W06
	.byte		        c_v+42
	.byte	W03
	.byte	W03
	.byte		        c_v+49
	.byte	W06
	.byte		        c_v+56
	.byte	W05
	.byte		N44   , En2 
	.byte	W01
	.byte		PAN   , c_v+63
	.byte	W06
	.byte		        c_v+63
	.byte	W06
	.byte		        c_v+56
	.byte	W06
	.byte		        c_v+49
	.byte	W06
	.byte		        c_v+42
	.byte	W06
	.byte		        c_v+35
	.byte	W06
	.byte		        c_v+28
	.byte	W06
	.byte		        c_v+21
	.byte	W05
	.byte		N24   , Fs2 
	.byte	W01
	.byte		PAN   , c_v+14
	.byte	W06
	.byte		VOL   , 94*seq_000_mvl/mxv
	.byte		PAN   , c_v+6
	.byte	W06
	.byte		VOL   , 85*seq_000_mvl/mxv
	.byte		PAN   , c_v-1
	.byte	W06
	.byte		VOL   , 80*seq_000_mvl/mxv
	.byte		PAN   , c_v-8
	.byte	W06
	.byte		VOL   , 74*seq_000_mvl/mxv
	.byte		PAN   , c_v-15
	.byte	W06
	.byte		VOL   , 68*seq_000_mvl/mxv
	.byte		PAN   , c_v-22
	.byte	W03
	.byte	W03
	.byte		VOL   , 62*seq_000_mvl/mxv
	.byte		PAN   , c_v-29
	.byte	W06
	.byte		        c_v-36
	.byte	W06
	.byte		VOICE , 17
	.byte		PAN   , c_v+0
	.byte	W80
	.byte	W01
	.byte	W03
	.byte		VOL   , 94*seq_000_mvl/mxv
	.byte	W12
	.byte		N36   , En2 
	.byte	W48
	.byte		        Ds2 
	.byte	W32
	.byte	W01
	.byte	W96
	.byte	W15
	.byte		        Fs2 
	.byte	W48
	.byte		        En2 
	.byte	W32
	.byte	W01
	.byte	W96
	.byte	W96
	.byte	W96
	.byte	W96
	.byte	W15
	.byte		PAN   , c_v+63
	.byte	W48
	.byte		VOICE , 61
	.byte		N18   , Cn4 
	.byte	W24
	.byte		N12   , Cn4 , v020
	.byte	W09
	.byte	W03
	.byte		N18   , Bn3 , v080
	.byte	W24
	.byte		N12   , Bn3 , v020
	.byte	W30
	.byte		PAN   , c_v-64
	.byte	W06
	.byte		N18   , As3 , v080
	.byte	W24
	.byte		N12   , As3 , v020
	.byte	W09
	.byte	PEND
	.byte	W03
	.byte		N18   , An3 , v080
	.byte	W24
	.byte		N12   , An3 , v020
	.byte	W30
	.byte		PAN   , c_v+63
	.byte	W06
	.byte		N18   , Cn4 , v080
	.byte	W24
	.byte		N12   , Cn4 , v020
	.byte	W09
	.byte	PATT
	 .word	seq_000_4 + 0x138
	.byte	W03
	.byte		N18   , Cn4 , v080
	.byte	W24
	.byte		N12   , Cn4 , v020
	.byte	W36
	.byte	GOTO
	 .word	seq_000_4 + 0x5D
	.byte	FINE

@*********************** Track 06 ***********************@

seq_000_5:
	.byte	KEYSH , seq_000_key+0
	.byte		VOICE , 45
	.byte	W01
	.byte		VOL   , 103*seq_000_mvl/mxv
	.byte	W01
	.byte		PAN   , c_v+0
	.byte	W01
	.byte		BEND  , c_v+0
	.byte	W92
	.byte	W01
	.byte	W96
	.byte	W96
	.byte	W96
	.byte	W15
	.byte	W80
	.byte	W01
	.byte	W96
	.byte	W96
	.byte	W96
	.byte	W96
	.byte	W96
	.byte	W96
	.byte	W84
	.byte	W03
	.byte		N12   , En4 , v100
	.byte	W09
	.byte	W03
	.byte		N06   , Ds4 
	.byte	W12
	.byte		N12
	.byte	W24
	.byte		        En4 
	.byte	W12
	.byte		N48   , Cs4 
	.byte	W44
	.byte	W01
	.byte	W03
	.byte		N12   , Cs4 , v052
	.byte	W92
	.byte	W01
	.byte	PEND
	.byte	W15
	.byte		        Ds4 , v100
	.byte	W24
	.byte		        En4 
	.byte	W12
	.byte		N48   , Cs4 
	.byte	W44
	.byte	W01
	.byte	PATT
	 .word	seq_000_5 + 0x2D
	.byte	W96
	.byte	W96
	.byte	W96
	.byte	W15
	.byte		N24   , Gs3 , v060
	.byte	W24
	.byte		N12   , Gs3 , v032
	.byte	W12
	.byte		N24   , Fs3 , v060
	.byte	W24
	.byte		N12   , Fs3 , v032
	.byte	W12
	.byte		        Ds3 , v060
	.byte	W09
	.byte	W03
	.byte		        En3 
	.byte	W12
	.byte		        En3 , v032
	.byte	W80
	.byte	W01
	.byte	W96
	.byte	W96
	.byte	W96
	.byte	W60
	.byte	W03
	.byte	GOTO
	 .word	seq_000_5 + 0x13
	.byte	FINE

@******************************************************@

	.align	2

seq_000:
	.byte	6	@ NumTrks
	.byte	0	@ NumBlks
	.byte	seq_000_pri	@ Priority
	.byte	seq_000_rev	@ Reverb

	.word	seq_000_grp

	.word	seq_000_0
	.word	seq_000_1
	.word	seq_000_2
	.word	seq_000_3
	.word	seq_000_4
	.word	seq_000_5

	.end
