@ File generated by m4a2s Song-Module
	.include "MPlayDef.s"

	.equ	seq_000_grp, bank_000
	.equ	seq_000_pri, 0
	.equ	seq_000_rev, 158
	.equ	seq_000_mvl, 127
	.equ	seq_000_key, 0

	.section .rodata
	.global	seq_000
	.align	2

@*********************** Track 01 ***********************@

seq_000_0:
	.byte	KEYSH , seq_000_key+0
	.byte	TEMPO , 152/2
	.byte		VOICE , 0
	.byte	W01
	.byte		VOL   , 120*seq_000_mvl/mxv
	.byte	W11
	.byte		N06   , An3 , v064
	.byte	W24
	.byte		        An3 , v072
	.byte	W24
	.byte		        An3 , v080
	.byte	W08
	.byte		        An3 , v064
	.byte	W08
	.byte		        An3 , v048
	.byte	W16
	.byte		        An3 , v088
	.byte	W08
	.byte		        An3 , v052
	.byte	W08
	.byte		        An3 , v092
	.byte	W24
	.byte		        An3 , v096
	.byte	W24
	.byte		        An3 , v104
	.byte	W08
	.byte		        An3 , v084
	.byte	W08
	.byte		        An3 , v060
	.byte	W16
	.byte		        An3 , v112
	.byte	W08
	.byte		        An3 , v064
	.byte	W08
	.byte		        An3 , v112
	.byte	W24
	.byte		        An3 , v116
	.byte	W24
	.byte		        An3 , v120
	.byte	W08
	.byte		        An3 , v096
	.byte	W08
	.byte		        An3 , v068
	.byte	W16
	.byte		        An3 , v120
	.byte	W08
	.byte		        An3 , v068
	.byte	W08
	.byte		        An3 , v124
	.byte	W08
	.byte		        An3 , v100
	.byte	W08
	.byte		        An3 , v068
	.byte	W16
	.byte		        An3 , v100
	.byte	W08
	.byte		        An3 , v072
	.byte	W08
	.byte		        An3 , v127
	.byte	W48
	.byte		N06   , An3 , v127
	.byte	W24
	.byte		N06
	.byte	W24
	.byte		N06
	.byte	W08
	.byte		        An3 , v100
	.byte	W08
	.byte		        An3 , v072
	.byte	W16
	.byte		        An3 , v127
	.byte	W08
	.byte		        An3 , v072
	.byte	W08
	.byte	PEND
	.byte	PATT
	 .word	seq_000_0 + 0x5C
	.byte	PATT
	 .word	seq_000_0 + 0x5C
	.byte	PATT
	 .word	seq_000_0 + 0x5C
	.byte	PATT
	 .word	seq_000_0 + 0x5C
	.byte	PATT
	 .word	seq_000_0 + 0x5C
	.byte	PATT
	 .word	seq_000_0 + 0x5C
	.byte	PATT
	 .word	seq_000_0 + 0x5C
	.byte	PATT
	 .word	seq_000_0 + 0x5C
	.byte	PATT
	 .word	seq_000_0 + 0x5C
	.byte	PATT
	 .word	seq_000_0 + 0x5C
	.byte	PATT
	 .word	seq_000_0 + 0x5C
	.byte	PATT
	 .word	seq_000_0 + 0x5C
	.byte	PATT
	 .word	seq_000_0 + 0x5C
	.byte	PATT
	 .word	seq_000_0 + 0x5C
	.byte	PATT
	 .word	seq_000_0 + 0x5C
	.byte	PATT
	 .word	seq_000_0 + 0x5C
	.byte	PATT
	 .word	seq_000_0 + 0x5C
	.byte	PATT
	 .word	seq_000_0 + 0x5C
	.byte	PATT
	 .word	seq_000_0 + 0x5C
	.byte	PATT
	 .word	seq_000_0 + 0x5C
	.byte	PATT
	 .word	seq_000_0 + 0x5C
	.byte	PATT
	 .word	seq_000_0 + 0x5C
	.byte	PATT
	 .word	seq_000_0 + 0x5C
	.byte	PATT
	 .word	seq_000_0 + 0x5C
	.byte		N06   , An3 , v120
	.byte	W24
	.byte		        An3 , v127
	.byte	W24
	.byte		N06
	.byte	W08
	.byte		        An3 , v100
	.byte	W08
	.byte		        An3 , v072
	.byte	W16
	.byte		        An3 , v127
	.byte	W08
	.byte		        An3 , v072
	.byte	W08
	.byte	PEND
	.byte	PATT
	 .word	seq_000_0 + 0xE9
	.byte	PATT
	 .word	seq_000_0 + 0xE9
	.byte	PATT
	 .word	seq_000_0 + 0x5C
	.byte	PATT
	 .word	seq_000_0 + 0x5C
	.byte	PATT
	 .word	seq_000_0 + 0x5C
	.byte	PATT
	 .word	seq_000_0 + 0x5C
	.byte	PATT
	 .word	seq_000_0 + 0x5C
	.byte		N06   , An3 , v127
	.byte	W16
	.byte		        An3 , v100
	.byte	W16
	.byte		        An3 , v072
	.byte	W16
	.byte		        An3 , v127
	.byte	W16
	.byte		        An3 , v100
	.byte	W16
	.byte		        An3 , v072
	.byte	W16
	.byte	PEND
	.byte	PATT
	 .word	seq_000_0 + 0x122
	.byte	TEMPO , 156/2
	.byte		N06   , An3 , v127
	.byte	W16
	.byte		        An3 , v100
	.byte	W16
	.byte		        An3 , v072
	.byte	W16
	.byte		        An3 , v127
	.byte	W16
	.byte		        An3 , v100
	.byte	W08
	.byte	TEMPO , 160/2
	.byte	W08
	.byte		        An3 , v072
	.byte	W16
	.byte		        An3 , v127
	.byte	W16
	.byte		        An3 , v100
	.byte	W16
	.byte		        An3 , v072
	.byte	W16
	.byte		        An3 , v127
	.byte	W06
	.byte	TEMPO , 162/2
	.byte	W10
	.byte		        An3 , v100
	.byte	W16
	.byte		        An3 , v072
	.byte	W16
	.byte		        An3 , v127
	.byte	W16
	.byte		        An3 , v100
	.byte	W16
	.byte		        An3 , v072
	.byte	W04
	.byte	TEMPO , 164/2
	.byte	W12
	.byte		        An3 , v127
	.byte	W16
	.byte		        An3 , v100
	.byte	W16
	.byte		        An3 , v072
	.byte	W16
	.byte		        An3 , v127
	.byte	W16
	.byte		        An3 , v100
	.byte	W02
	.byte	TEMPO , 168/2
	.byte	W14
	.byte		        An3 , v072
	.byte	W16
	.byte		        An3 , v127
	.byte	W16
	.byte		        An3 , v100
	.byte	W16
	.byte		        An3 , v072
	.byte	W16
	.byte	TEMPO , 172/2
	.byte		        An3 , v127
	.byte	W16
	.byte		        An3 , v100
	.byte	W16
	.byte		        An3 , v072
	.byte	W16
	.byte		        An3 , v127
	.byte	W16
	.byte		        An3 , v100
	.byte	W16
	.byte		        An3 , v072
	.byte	W04
	.byte	TEMPO , 176/2
	.byte	W12
	.byte		        An3 , v127
	.byte	W16
	.byte		        An3 , v100
	.byte	W16
	.byte		        An3 , v072
	.byte	W16
	.byte		        An3 , v127
	.byte	W16
	.byte		        An3 , v100
	.byte	W08
	.byte	TEMPO , 178/2
	.byte	W08
	.byte		        An3 , v072
	.byte	W16
	.byte		        An3 , v127
	.byte	W16
	.byte		        An3 , v100
	.byte	W16
	.byte		        An3 , v072
	.byte	W16
	.byte		        An3 , v127
	.byte	W12
	.byte	TEMPO , 182/2
	.byte	W04
	.byte		        An3 , v100
	.byte	W16
	.byte		        An3 , v072
	.byte	W16
	.byte		        An3 , v127
	.byte	W16
	.byte		        An3 , v100
	.byte	W16
	.byte		        An3 , v072
	.byte	W16
	.byte		        An3 , v127
	.byte	W06
	.byte	TEMPO , 186/2
	.byte	W10
	.byte		        An3 , v100
	.byte	W16
	.byte		        An3 , v072
	.byte	W16
	.byte		        An3 , v127
	.byte	W08
	.byte		        An3 , v100
	.byte	W08
	.byte		        An3 , v072
	.byte	W08
	.byte		        An3 , v127
	.byte	W08
	.byte		        An3 , v100
	.byte	W08
	.byte		        An3 , v072
	.byte	W08
	.byte	TEMPO , 188/2
	.byte		        An3 , v127
	.byte	W08
	.byte		        An3 , v100
	.byte	W08
	.byte		        An3 , v072
	.byte	W08
	.byte		        An3 , v127
	.byte	W08
	.byte		        An3 , v100
	.byte	W08
	.byte		        An3 , v072
	.byte	W08
	.byte	TEMPO , 152/2
	.byte		        An3 , v112
	.byte	W96
	.byte	GOTO
	 .word	seq_000_0 + 0x5C
	.byte	FINE

@*********************** Track 02 ***********************@

seq_000_1:
	.byte	KEYSH , seq_000_key+0
	.byte		VOICE , 0
	.byte	W01
	.byte		VOL   , 85*seq_000_mvl/mxv
	.byte	W11
	.byte		N10   , As1 , v040
	.byte	W64
	.byte		        As1 , v052
	.byte	W32
	.byte		        As1 , v056
	.byte	W64
	.byte		        As1 , v064
	.byte	W32
	.byte		        As1 , v072
	.byte	W64
	.byte		        As1 , v080
	.byte	W32
	.byte		        As1 , v084
	.byte	W40
	.byte		        As1 , v092
	.byte	W56
	.byte		N02   , Fs1 , v072
	.byte	W08
	.byte		        Fs1 , v060
	.byte	W08
	.byte		        Fs1 , v040
	.byte	W08
	.byte		        Fs1 , v080
	.byte	W08
	.byte		        Fs1 , v060
	.byte	W08
	.byte		        Fs1 , v040
	.byte	W08
	.byte		        Fs1 , v080
	.byte	W08
	.byte		        Fs1 , v060
	.byte	W08
	.byte		        Fs1 , v040
	.byte	W08
	.byte		        Fs1 , v080
	.byte	W08
	.byte		        Fs1 , v060
	.byte	W08
	.byte		        Fs1 , v040
	.byte	W08
	.byte		N02   , Fs1 , v080
	.byte	W08
	.byte		        Fs1 , v060
	.byte	W08
	.byte		        Fs1 , v040
	.byte	W08
	.byte		        Fs1 , v080
	.byte	W08
	.byte		        Fs1 , v060
	.byte	W08
	.byte		        Fs1 , v040
	.byte	W08
	.byte		        Fs1 , v080
	.byte	W08
	.byte		        Fs1 , v060
	.byte	W08
	.byte		        Fs1 , v040
	.byte	W08
	.byte		        Fs1 , v080
	.byte	W08
	.byte		        Fs1 , v060
	.byte	W08
	.byte		        Fs1 , v040
	.byte	W08
	.byte	PEND
	.byte	PATT
	 .word	seq_000_1 + 0x46
	.byte	PATT
	 .word	seq_000_1 + 0x46
	.byte	PATT
	 .word	seq_000_1 + 0x46
	.byte	PATT
	 .word	seq_000_1 + 0x46
	.byte	PATT
	 .word	seq_000_1 + 0x46
	.byte	PATT
	 .word	seq_000_1 + 0x46
	.byte	PATT
	 .word	seq_000_1 + 0x46
	.byte	PATT
	 .word	seq_000_1 + 0x46
	.byte	PATT
	 .word	seq_000_1 + 0x46
	.byte	PATT
	 .word	seq_000_1 + 0x46
	.byte	PATT
	 .word	seq_000_1 + 0x46
	.byte	PATT
	 .word	seq_000_1 + 0x46
	.byte	PATT
	 .word	seq_000_1 + 0x46
	.byte	PATT
	 .word	seq_000_1 + 0x46
	.byte	PATT
	 .word	seq_000_1 + 0x46
	.byte	PATT
	 .word	seq_000_1 + 0x46
	.byte	PATT
	 .word	seq_000_1 + 0x46
	.byte	PATT
	 .word	seq_000_1 + 0x46
	.byte	PATT
	 .word	seq_000_1 + 0x46
	.byte	PATT
	 .word	seq_000_1 + 0x46
	.byte	PATT
	 .word	seq_000_1 + 0x46
	.byte	PATT
	 .word	seq_000_1 + 0x46
	.byte	PATT
	 .word	seq_000_1 + 0x46
	.byte	PATT
	 .word	seq_000_1 + 0x46
	.byte	PATT
	 .word	seq_000_1 + 0x46
	.byte	PATT
	 .word	seq_000_1 + 0x46
	.byte	PATT
	 .word	seq_000_1 + 0x46
	.byte	PATT
	 .word	seq_000_1 + 0x46
	.byte	PATT
	 .word	seq_000_1 + 0x46
	.byte	PATT
	 .word	seq_000_1 + 0x46
	.byte	PATT
	 .word	seq_000_1 + 0x46
	.byte	PATT
	 .word	seq_000_1 + 0x46
	.byte	PATT
	 .word	seq_000_1 + 0x46
	.byte	PATT
	 .word	seq_000_1 + 0x46
	.byte	PATT
	 .word	seq_000_1 + 0x46
	.byte	PATT
	 .word	seq_000_1 + 0x46
	.byte	PATT
	 .word	seq_000_1 + 0x46
	.byte	PATT
	 .word	seq_000_1 + 0x46
	.byte	PATT
	 .word	seq_000_1 + 0x46
	.byte	PATT
	 .word	seq_000_1 + 0x46
	.byte	PATT
	 .word	seq_000_1 + 0x46
	.byte	PATT
	 .word	seq_000_1 + 0x46
	.byte	W96
	.byte	GOTO
	 .word	seq_000_1 + 0x21
	.byte	FINE

@*********************** Track 03 ***********************@

seq_000_2:
	.byte	KEYSH , seq_000_key+0
	.byte		VOICE , 9
	.byte	W01
	.byte		VOL   , 120*seq_000_mvl/mxv
	.byte	W11
	.byte		N14   , An1 , v052
	.byte	W16
	.byte		N04   , An1 , v056
	.byte	W08
	.byte		N14
	.byte	W16
	.byte		N04   , An1 , v060
	.byte	W08
	.byte		N14
	.byte	W16
	.byte		N04   , An1 , v064
	.byte	W08
	.byte		N14   , An1 , v068
	.byte	W16
	.byte		N04   , An1 , v072
	.byte	W08
	.byte		N14
	.byte	W16
	.byte		N04   , An1 , v076
	.byte	W08
	.byte		N14   , An1 , v080
	.byte	W16
	.byte		N04   , An1 , v084
	.byte	W08
	.byte		N14
	.byte	W16
	.byte		N04   , An1 , v088
	.byte	W08
	.byte		N14
	.byte	W16
	.byte		N04   , An1 , v092
	.byte	W08
	.byte		N14   , An1 , v096
	.byte	W16
	.byte		N04   , An1 , v100
	.byte	W08
	.byte		N14
	.byte	W16
	.byte		N04   , An1 , v104
	.byte	W08
	.byte		N14
	.byte	W16
	.byte		N04   , An1 , v108
	.byte	W08
	.byte		N14   , An1 , v112
	.byte	W16
	.byte		N04   , An1 , v116
	.byte	W08
	.byte		N14
	.byte	W16
	.byte		N04   , An1 , v120
	.byte	W08
	.byte		N14   , An1 , v124
	.byte	W16
	.byte		N04   , An1 , v127
	.byte	W08
	.byte		N14
	.byte	W24
	.byte		VOICE , 1
	.byte	W24
	.byte		N04   , An1 , v127
	.byte	W16
	.byte		        An2 , v112
	.byte	W08
	.byte		        An1 , v127
	.byte	W16
	.byte		        An2 , v112
	.byte	W08
	.byte		        An1 , v127
	.byte	W16
	.byte		        An2 , v112
	.byte	W08
	.byte		        An1 , v127
	.byte	W16
	.byte		        An2 , v112
	.byte	W08
	.byte	PEND
	.byte	PATT
	 .word	seq_000_2 + 0x6D
	.byte	PATT
	 .word	seq_000_2 + 0x6D
	.byte	PATT
	 .word	seq_000_2 + 0x6D
	.byte	PATT
	 .word	seq_000_2 + 0x6D
	.byte	PATT
	 .word	seq_000_2 + 0x6D
	.byte	PATT
	 .word	seq_000_2 + 0x6D
	.byte	PATT
	 .word	seq_000_2 + 0x6D
	.byte		N04   , Gs1 , v127
	.byte	W16
	.byte		        Gs2 , v112
	.byte	W08
	.byte		        Gs1 , v127
	.byte	W16
	.byte		        Gs2 , v112
	.byte	W08
	.byte		        Gs1 , v127
	.byte	W16
	.byte		        Gs2 , v112
	.byte	W08
	.byte		        Gs1 , v127
	.byte	W16
	.byte		        Gs2 , v112
	.byte	W08
	.byte	PEND
	.byte	PATT
	 .word	seq_000_2 + 0xAA
	.byte	PATT
	 .word	seq_000_2 + 0xAA
	.byte	PATT
	 .word	seq_000_2 + 0xAA
	.byte		N04   , Fs1 , v127
	.byte	W16
	.byte		        Fs2 , v112
	.byte	W08
	.byte		        Fs1 , v127
	.byte	W16
	.byte		        Fs2 , v112
	.byte	W08
	.byte		        Fs1 , v127
	.byte	W16
	.byte		        Fs2 , v112
	.byte	W08
	.byte		        Fs1 , v127
	.byte	W16
	.byte		        Fs2 , v112
	.byte	W08
	.byte	PEND
	.byte	PATT
	 .word	seq_000_2 + 0xD3
	.byte	PATT
	 .word	seq_000_2 + 0xD3
	.byte	PATT
	 .word	seq_000_2 + 0xD3
	.byte	PATT
	 .word	seq_000_2 + 0x6D
	.byte	PATT
	 .word	seq_000_2 + 0x6D
	.byte	PATT
	 .word	seq_000_2 + 0x6D
	.byte	PATT
	 .word	seq_000_2 + 0x6D
	.byte	PATT
	 .word	seq_000_2 + 0x6D
	.byte	PATT
	 .word	seq_000_2 + 0x6D
	.byte	PATT
	 .word	seq_000_2 + 0x6D
	.byte	PATT
	 .word	seq_000_2 + 0x6D
	.byte	PATT
	 .word	seq_000_2 + 0xAA
	.byte	PATT
	 .word	seq_000_2 + 0xAA
	.byte	PATT
	 .word	seq_000_2 + 0xAA
	.byte	PATT
	 .word	seq_000_2 + 0xAA
	.byte	PATT
	 .word	seq_000_2 + 0xD3
	.byte	PATT
	 .word	seq_000_2 + 0xD3
	.byte	PATT
	 .word	seq_000_2 + 0xD3
	.byte	PATT
	 .word	seq_000_2 + 0xD3
	.byte		N04   , Fs1 , v127
	.byte	W16
	.byte		        Fs2 , v112
	.byte	W08
	.byte		        Fs1 , v127
	.byte	W16
	.byte		        Fs2 , v112
	.byte	W08
	.byte		        Fs1 , v127
	.byte	W16
	.byte		        Fs2 , v112
	.byte	W08
	.byte		        Fs1 , v127
	.byte	W16
	.byte		        Fs2 , v112
	.byte	W06
	.byte		VOICE , 9
	.byte	W02
	.byte		N10   , Fs1 , v127
	.byte	W16
	.byte		        Fs1 , v112
	.byte	W16
	.byte		        Fs1 , v092
	.byte	W16
	.byte		        Fs1 , v127
	.byte	W16
	.byte		        Fs1 , v112
	.byte	W16
	.byte		        Fs1 , v092
	.byte	W16
	.byte	PEND
	.byte	PATT
	 .word	seq_000_2 + 0x168
	.byte		N10   , An1 , v127
	.byte	W16
	.byte		        An1 , v112
	.byte	W16
	.byte		        An1 , v092
	.byte	W16
	.byte		        An1 , v127
	.byte	W16
	.byte		        An1 , v112
	.byte	W16
	.byte		        An1 , v092
	.byte	W16
	.byte	PEND
	.byte	PATT
	 .word	seq_000_2 + 0x181
	.byte	PATT
	 .word	seq_000_2 + 0x168
	.byte	PATT
	 .word	seq_000_2 + 0x181
	.byte	PATT
	 .word	seq_000_2 + 0x181
	.byte		N10   , Cn2 , v127
	.byte	W16
	.byte		        Cn2 , v112
	.byte	W16
	.byte		        Cn2 , v092
	.byte	W16
	.byte		        Cn2 , v127
	.byte	W16
	.byte		        Cn2 , v112
	.byte	W16
	.byte		        Cn2 , v092
	.byte	W16
	.byte	PEND
	.byte	PATT
	 .word	seq_000_2 + 0x181
	.byte	PATT
	 .word	seq_000_2 + 0x1A9
	.byte		N04   , Ds2 , v127
	.byte	W08
	.byte		        Ds2 , v112
	.byte	W08
	.byte		        Ds2 , v092
	.byte	W08
	.byte		        Ds2 , v127
	.byte	W08
	.byte		        Ds2 , v112
	.byte	W08
	.byte		        Ds2 , v092
	.byte	W08
	.byte		        Ds2 , v127
	.byte	W08
	.byte		        Ds2 , v112
	.byte	W08
	.byte		        Ds2 , v092
	.byte	W08
	.byte		        Ds2 , v127
	.byte	W08
	.byte		        Ds2 , v112
	.byte	W08
	.byte		        Ds2 , v092
	.byte	W08
	.byte		N12   , Ds2 , v127
	.byte	W72
	.byte		VOICE , 1
	.byte	W24
	.byte	GOTO
	 .word	seq_000_2 + 0x6D
	.byte	FINE

@*********************** Track 04 ***********************@

seq_000_3:
	.byte	KEYSH , seq_000_key+0
	.byte		VOICE , 2
	.byte	W01
	.byte		VOL   , 113*seq_000_mvl/mxv
	.byte	W01
	.byte		PAN   , c_v-19
	.byte	W01
	.byte		LFOS  , 25
	.byte	W01
	.byte		LFODL , 30
	.byte	W01
	.byte		MODT  , mod_vib
	.byte	W01
	.byte		MOD   , 8
	.byte	W06
	.byte	W96
	.byte	W96
	.byte	W96
	.byte	W96
	.byte		N10   , Bn1 , v080
	.byte		N10   , Fn2 
	.byte	W24
	.byte		N20   , Bn1 , v072
	.byte		N20   , Fn2 
	.byte	W24
	.byte		N05   , Bn1 , v060
	.byte		N05   , Fn2 
	.byte	W08
	.byte		        Bn1 , v076
	.byte		N05   , Fn2 
	.byte	W08
	.byte		        Bn1 , v088
	.byte		N05   , Fn2 
	.byte	W08
	.byte		        Bn1 , v100
	.byte		N05   , Fn2 
	.byte	W16
	.byte		        Bn1 , v127
	.byte		N05   , Fn2 
	.byte	W08
	.byte	PEND
	.byte		N10   , Bn1 , v080
	.byte		N10   , Fn2 
	.byte	W24
	.byte		N20   , Bn1 , v072
	.byte		N20   , Fn2 
	.byte	W24
	.byte		N05   , Bn1 , v060
	.byte		N05   , Fn2 
	.byte	W08
	.byte		        Bn1 , v076
	.byte		N05   , Fn2 
	.byte	W08
	.byte		        Bn1 , v088
	.byte		N05   , Fn2 
	.byte	W08
	.byte		        Bn1 , v100
	.byte		N05   , Fn2 
	.byte	W08
	.byte		        Bn1 , v116
	.byte		N05   , Fn2 
	.byte	W08
	.byte		        Bn1 , v127
	.byte		N05   , Fn2 
	.byte	W08
	.byte	PEND
	.byte	PATT
	 .word	seq_000_3 + 0x1B
	.byte	PATT
	 .word	seq_000_3 + 0x42
	.byte	PATT
	 .word	seq_000_3 + 0x1B
	.byte	PATT
	 .word	seq_000_3 + 0x42
	.byte	PATT
	 .word	seq_000_3 + 0x1B
	.byte	PATT
	 .word	seq_000_3 + 0x42
	.byte		N10   , As1 , v080
	.byte		N10   , Fn2 
	.byte	W24
	.byte		N20   , As1 , v072
	.byte		N20   , Fn2 
	.byte	W24
	.byte		N05   , As1 , v060
	.byte		N05   , Fn2 
	.byte	W08
	.byte		        As1 , v076
	.byte		N05   , Fn2 
	.byte	W08
	.byte		        As1 , v088
	.byte		N05   , Fn2 
	.byte	W08
	.byte		        As1 , v100
	.byte		N05   , Fn2 
	.byte	W16
	.byte		        As1 , v127
	.byte		N05   , Fn2 
	.byte	W08
	.byte	PEND
	.byte		N10   , As1 , v080
	.byte		N10   , Fn2 
	.byte	W24
	.byte		N20   , As1 , v072
	.byte		N20   , Fn2 
	.byte	W24
	.byte		N05   , As1 , v060
	.byte		N05   , Fn2 
	.byte	W08
	.byte		        As1 , v076
	.byte		N05   , Fn2 
	.byte	W08
	.byte		        As1 , v088
	.byte		N05   , Fn2 
	.byte	W08
	.byte		        As1 , v100
	.byte		N05   , Fn2 
	.byte	W08
	.byte		        As1 , v116
	.byte		N05   , Fn2 
	.byte	W08
	.byte		        As1 , v127
	.byte		N05   , Fn2 
	.byte	W08
	.byte	PEND
	.byte	PATT
	 .word	seq_000_3 + 0x8C
	.byte	PATT
	 .word	seq_000_3 + 0xB3
	.byte		N10   , Gs1 , v080
	.byte		N10   , Fn2 
	.byte	W24
	.byte		N20   , Gs1 , v072
	.byte		N20   , Fn2 
	.byte	W24
	.byte		N05   , Gs1 , v060
	.byte		N05   , Fn2 
	.byte	W08
	.byte		        Gs1 , v076
	.byte		N05   , Fn2 
	.byte	W08
	.byte		        Gs1 , v088
	.byte		N05   , Fn2 
	.byte	W08
	.byte		        Gs1 , v100
	.byte		N05   , Fn2 
	.byte	W16
	.byte		        Gs1 , v127
	.byte		N05   , Fn2 
	.byte	W08
	.byte	PEND
	.byte		N10   , Gs1 , v080
	.byte		N10   , Fn2 
	.byte	W24
	.byte		N20   , Gs1 , v072
	.byte		N20   , Fn2 
	.byte	W24
	.byte		N05   , Gs1 , v060
	.byte		N05   , Fn2 
	.byte	W08
	.byte		        Gs1 , v076
	.byte		N05   , Fn2 
	.byte	W08
	.byte		        Gs1 , v088
	.byte		N05   , Fn2 
	.byte	W08
	.byte		        Gs1 , v100
	.byte		N05   , Fn2 
	.byte	W08
	.byte		        Gs1 , v116
	.byte		N05   , Fn2 
	.byte	W08
	.byte		        Gs1 , v127
	.byte		N05   , Fn2 
	.byte	W08
	.byte	PEND
	.byte	PATT
	 .word	seq_000_3 + 0xE9
	.byte		N10   , Gs1 , v080
	.byte		N10   , Fn2 
	.byte	W24
	.byte		N20   , Gs1 , v072
	.byte		N20   , Fn2 
	.byte	W24
	.byte		N05   , Gs1 , v060
	.byte		N05   , Fn2 
	.byte	W08
	.byte		        Gs1 , v076
	.byte		N05   , Fn2 
	.byte	W08
	.byte		        Gs1 , v088
	.byte		N05   , Fn2 
	.byte	W08
	.byte		        Gs1 , v100
	.byte		N05   , Fn2 
	.byte	W08
	.byte		        Gs1 , v116
	.byte		N05   , Fn2 
	.byte	W08
	.byte		        Gs1 , v127
	.byte		N05   , Fn2 
	.byte	W05
	.byte		VOICE , 3
	.byte	W01
	.byte		VOL   , 85*seq_000_mvl/mxv
	.byte	W01
	.byte		PAN   , c_v+21
	.byte	W01
	.byte	PATT
	 .word	seq_000_3 + 0x1B
	.byte	PATT
	 .word	seq_000_3 + 0x42
	.byte	PATT
	 .word	seq_000_3 + 0x1B
	.byte	PATT
	 .word	seq_000_3 + 0x42
	.byte	PATT
	 .word	seq_000_3 + 0x1B
	.byte	PATT
	 .word	seq_000_3 + 0x42
	.byte	PATT
	 .word	seq_000_3 + 0x1B
	.byte	PATT
	 .word	seq_000_3 + 0x42
	.byte	PATT
	 .word	seq_000_3 + 0x8C
	.byte	PATT
	 .word	seq_000_3 + 0xB3
	.byte	PATT
	 .word	seq_000_3 + 0x8C
	.byte	PATT
	 .word	seq_000_3 + 0xB3
	.byte	PATT
	 .word	seq_000_3 + 0xE9
	.byte	PATT
	 .word	seq_000_3 + 0x110
	.byte	PATT
	 .word	seq_000_3 + 0xE9
	.byte	PATT
	 .word	seq_000_3 + 0x110
	.byte		N10   , Gs1 , v080
	.byte		N10   , Fn2 
	.byte	W24
	.byte		N20   , Gs1 , v072
	.byte		N20   , Fn2 
	.byte	W24
	.byte		N05   , Gs1 , v060
	.byte		N05   , Fn2 
	.byte	W08
	.byte		        Gs1 , v076
	.byte		N05   , Fn2 
	.byte	W08
	.byte		        Gs1 , v088
	.byte		N05   , Fn2 
	.byte	W08
	.byte		        Gs1 , v100
	.byte		N05   , Fn2 
	.byte	W08
	.byte		        Gs1 , v116
	.byte		N05   , Fn2 
	.byte	W08
	.byte		        Gs1 , v127
	.byte		N05   , Fn2 
	.byte	W06
	.byte		VOL   , 75*seq_000_mvl/mxv
	.byte	W02
	.byte		N08   , Gs1 , v100
	.byte		N08   , Fn2 
	.byte	W16
	.byte		        Gs1 , v072
	.byte		N08   , Fn2 
	.byte	W16
	.byte		        Gs1 , v052
	.byte		N08   , Fn2 
	.byte	W16
	.byte		        Gs1 , v100
	.byte		N08   , Fn2 
	.byte	W16
	.byte		        Gs1 , v072
	.byte		N08   , Fn2 
	.byte	W16
	.byte		        Gs1 , v052
	.byte		N08   , Fn2 
	.byte	W16
	.byte	PEND
	.byte	PATT
	 .word	seq_000_3 + 0x1F3
	.byte		N08   , Bn1 , v100
	.byte		N08   , Gs2 
	.byte	W16
	.byte		        Bn1 , v072
	.byte		N08   , Gs2 
	.byte	W16
	.byte		        Bn1 , v052
	.byte		N08   , Gs2 
	.byte	W16
	.byte		        Bn1 , v100
	.byte		N08   , Gs2 
	.byte	W16
	.byte		        Bn1 , v072
	.byte		N08   , Gs2 
	.byte	W16
	.byte		        Bn1 , v052
	.byte		N08   , Gs2 
	.byte	W16
	.byte	PEND
	.byte	PATT
	 .word	seq_000_3 + 0x218
	.byte	PATT
	 .word	seq_000_3 + 0x1F3
	.byte	PATT
	 .word	seq_000_3 + 0x218
	.byte	PATT
	 .word	seq_000_3 + 0x218
	.byte		N08   , Dn2 , v100
	.byte		N08   , Bn2 
	.byte	W16
	.byte		        Dn2 , v072
	.byte		N08   , Bn2 
	.byte	W16
	.byte		        Dn2 , v052
	.byte		N08   , Bn2 
	.byte	W16
	.byte		        Dn2 , v100
	.byte		N08   , Bn2 
	.byte	W16
	.byte		        Dn2 , v072
	.byte		N08   , Bn2 
	.byte	W16
	.byte		        Dn2 , v052
	.byte		N08   , Bn2 
	.byte	W16
	.byte	PEND
	.byte	PATT
	 .word	seq_000_3 + 0x218
	.byte	PATT
	 .word	seq_000_3 + 0x24C
	.byte		N05   , Fn2 , v080
	.byte		N05   , Dn3 
	.byte	W08
	.byte		        Fn2 , v084
	.byte		N05   , Dn3 
	.byte	W08
	.byte		        Fn2 , v088
	.byte		N05   , Dn3 
	.byte	W08
	.byte		        Fn2 , v092
	.byte		N05   , Dn3 
	.byte	W08
	.byte		        Fn2 , v096
	.byte		N05   , Dn3 
	.byte	W08
	.byte		        Fn2 , v100
	.byte		N05   , Dn3 
	.byte	W08
	.byte		        Fn2 , v104
	.byte		N05   , Dn3 
	.byte	W08
	.byte		        Fn2 , v108
	.byte		N05   , Dn3 
	.byte	W08
	.byte		        Fn2 , v112
	.byte		N05   , Dn3 
	.byte	W08
	.byte		        Fn2 , v116
	.byte		N05   , Dn3 
	.byte	W08
	.byte		        Fn2 , v120
	.byte		N05   , Dn3 
	.byte	W08
	.byte		        Fn2 , v124
	.byte		N05   , Dn3 
	.byte	W08
	.byte		N12   , Fn2 , v092
	.byte		N12   , Dn3 
	.byte	W48
	.byte		VOICE , 2
	.byte	W01
	.byte		VOL   , 113*seq_000_mvl/mxv
	.byte	W01
	.byte		PAN   , c_v-19
	.byte	W44
	.byte	W02
	.byte	GOTO
	 .word	seq_000_3 + 0x1B
	.byte	FINE

@*********************** Track 05 ***********************@

seq_000_4:
	.byte	KEYSH , seq_000_key+0
	.byte		VOICE , 0
	.byte	W01
	.byte		VOL   , 120*seq_000_mvl/mxv
	.byte	W11
	.byte		N05   , Cn3 , v127
	.byte	W96
	.byte		N05
	.byte	W96
	.byte		N05
	.byte	W96
	.byte		N05
	.byte	W48
	.byte		N05
	.byte	W48
	.byte		N05   , Cn3 , v127
	.byte	W96
	.byte		N05
	.byte	W96
	.byte		N05
	.byte	W96
	.byte		N05
	.byte	W96
	.byte		N05
	.byte	W96
	.byte		N05
	.byte	W96
	.byte		N05
	.byte	W96
	.byte		N05
	.byte	W96
	.byte		N05
	.byte	W96
	.byte		N05
	.byte	W96
	.byte		N05
	.byte	W96
	.byte		N05
	.byte	W96
	.byte		N05
	.byte	W96
	.byte		N05
	.byte	W96
	.byte		N05
	.byte	W96
	.byte		N05
	.byte	W96
	.byte		N05
	.byte	W96
	.byte		N05
	.byte	W96
	.byte		N05
	.byte	W96
	.byte		N05
	.byte	W96
	.byte		N05
	.byte	W96
	.byte		N05
	.byte	W96
	.byte		N05
	.byte	W96
	.byte		N05
	.byte	W96
	.byte		N05
	.byte	W96
	.byte		N05
	.byte	W96
	.byte		N05
	.byte	W96
	.byte		N05
	.byte	W96
	.byte		N05
	.byte	W96
	.byte		N05
	.byte	W96
	.byte		N05
	.byte	W96
	.byte		N05
	.byte	W96
	.byte		N05
	.byte	W96
	.byte		N05
	.byte	W96
	.byte		N05
	.byte	W96
	.byte		N05
	.byte	W96
	.byte		N05
	.byte	W96
	.byte		N05
	.byte	W96
	.byte		N05
	.byte	W96
	.byte		N05
	.byte	W96
	.byte		N05
	.byte	W96
	.byte		N05
	.byte	W96
	.byte		N05
	.byte	W96
	.byte		N05
	.byte	W96
	.byte		        Cn3 , v112
	.byte	W96
	.byte	GOTO
	 .word	seq_000_4 + 0x14
	.byte	FINE

@*********************** Track 06 ***********************@

seq_000_5:
	.byte	KEYSH , seq_000_key+0
	.byte		VOICE , 5
	.byte	W01
	.byte		VOL   , 89*seq_000_mvl/mxv
	.byte	W01
	.byte		PAN   , c_v+0
	.byte	W01
	.byte		LFOS  , 25
	.byte	W01
	.byte		LFODL , 30
	.byte	W01
	.byte		MODT  , mod_vib
	.byte	W01
	.byte		MOD   , 8
	.byte	W06
	.byte	W96
	.byte	W96
	.byte	W96
	.byte	W72
	.byte		N08   , Bn2 , v100
	.byte	W08
	.byte		        Cn3 
	.byte	W08
	.byte		        Dn3 
	.byte	W08
	.byte		N66   , Ds3 , v100
	.byte	W72
	.byte		N08   , Bn2 
	.byte	W08
	.byte		        Cn3 
	.byte	W08
	.byte		        Dn3 
	.byte	W08
	.byte	PEND
	.byte		N15   , Ds3 , v100
	.byte	W16
	.byte		N08   , Dn3 
	.byte	W08
	.byte		N42   , Ds3 
	.byte	W48
	.byte		N08   , Bn2 
	.byte	W08
	.byte		        Cn3 
	.byte	W08
	.byte		        Dn3 
	.byte	W08
	.byte	PEND
	.byte		N15   , Ds3 , v100
	.byte	W16
	.byte		N08   , Dn3 
	.byte	W08
	.byte		N15   , Ds3 
	.byte	W16
	.byte		N08   , Fn3 
	.byte	W08
	.byte		N15   , Fs3 
	.byte	W16
	.byte		N08   , Fn3 
	.byte	W08
	.byte		N15   , Fs3 
	.byte	W16
	.byte		N08   , Gs3 
	.byte	W08
	.byte	PEND
	.byte		N66   , An3 
	.byte	W72
	.byte		N05
	.byte	W08
	.byte		N05
	.byte	W08
	.byte		N05
	.byte	W08
	.byte		N66
	.byte	W72
	.byte		N05
	.byte	W08
	.byte		N05
	.byte	W08
	.byte		        Gs3 
	.byte	W08
	.byte		N66   , An3 
	.byte	W72
	.byte		N06
	.byte	W08
	.byte		N06
	.byte	W08
	.byte		        Gs3 
	.byte	W08
	.byte		N15   , An3 , v100
	.byte	W16
	.byte		N08   , Gs3 
	.byte	W08
	.byte		N15   , An3 
	.byte	W16
	.byte		N08   , Bn3 
	.byte	W08
	.byte		N15   , Cn4 
	.byte	W16
	.byte		N08   , Bn3 
	.byte	W08
	.byte		N15   , Cn4 
	.byte	W16
	.byte		N08   , Dn4 
	.byte	W08
	.byte	PEND
	.byte		N66   , Ds4 
	.byte	W72
	.byte		N04
	.byte	W08
	.byte		N04
	.byte	W08
	.byte		N04
	.byte	W08
	.byte		N66   , Ds4 , v100
	.byte	W72
	.byte		N04
	.byte	W08
	.byte		N08
	.byte	W08
	.byte		        Dn4 
	.byte	W08
	.byte	PEND
	.byte	PATT
	 .word	seq_000_5 + 0x98
	.byte		VOL   , 75*seq_000_mvl/mxv
	.byte		N15   , Ds4 , v100
	.byte	W16
	.byte		N08   , Dn4 
	.byte	W08
	.byte		N15   , Ds4 
	.byte	W16
	.byte		N08   , Fn4 
	.byte	W08
	.byte		N15   , Fs4 
	.byte	W16
	.byte		N08   , Fn4 
	.byte	W08
	.byte		N15   , Fs4 
	.byte	W16
	.byte		N08   , Gs4 
	.byte	W08
	.byte		N66   , An4 
	.byte	W72
	.byte		N05
	.byte	W08
	.byte		N05
	.byte	W08
	.byte		N05
	.byte	W08
	.byte		N66   , An4 , v100
	.byte	W72
	.byte		N05
	.byte	W16
	.byte		N05
	.byte	W08
	.byte	PEND
	.byte		N66   , An4 , v100
	.byte	W72
	.byte		N05
	.byte	W08
	.byte		N08
	.byte	W08
	.byte		        Gs4 
	.byte	W08
	.byte	PEND
	.byte		VOL   , 66*seq_000_mvl/mxv
	.byte		N15   , An4 
	.byte	W16
	.byte		N08   , Gs4 
	.byte	W08
	.byte		N15   , An4 
	.byte	W16
	.byte		N08   , Bn4 
	.byte	W08
	.byte		N15   , Cn5 
	.byte	W16
	.byte		N08   , Bn4 
	.byte	W08
	.byte		N15   , Cn5 
	.byte	W16
	.byte		N08   , Dn5 
	.byte	W08
	.byte		N60   , Ds5 
	.byte	W68
	.byte		VOICE , 6
	.byte	W01
	.byte		VOL   , 99*seq_000_mvl/mxv
	.byte	W03
	.byte		N08   , Bn2 
	.byte	W08
	.byte		        Cn3 
	.byte	W08
	.byte		        Dn3 
	.byte	W08
	.byte	PATT
	 .word	seq_000_5 + 0x23
	.byte	PATT
	 .word	seq_000_5 + 0x2F
	.byte	PATT
	 .word	seq_000_5 + 0x41
	.byte		VOL   , 85*seq_000_mvl/mxv
	.byte		N66   , An3 , v100
	.byte	W72
	.byte		N04
	.byte	W08
	.byte		N04
	.byte	W08
	.byte		N04
	.byte	W08
	.byte		N66
	.byte	W72
	.byte		N04
	.byte	W08
	.byte		N04
	.byte	W08
	.byte		N05   , Gs3 
	.byte	W08
	.byte		N66   , An3 
	.byte	W72
	.byte		N04
	.byte	W08
	.byte		N08
	.byte	W08
	.byte		        Gs3 
	.byte	W08
	.byte	PATT
	 .word	seq_000_5 + 0x75
	.byte		VOL   , 75*seq_000_mvl/mxv
	.byte		N66   , Ds4 , v100
	.byte	W72
	.byte		N04
	.byte	W08
	.byte		N04
	.byte	W08
	.byte		N04
	.byte	W08
	.byte	PATT
	 .word	seq_000_5 + 0x98
	.byte		N60   , Ds4 , v100
	.byte	W72
	.byte		N04
	.byte	W08
	.byte		N08
	.byte	W08
	.byte		        Dn4 
	.byte	W08
	.byte		N15   , Ds4 
	.byte	W16
	.byte		N08   , Dn4 
	.byte	W08
	.byte		N15   , Ds4 
	.byte	W16
	.byte		N08   , Fn4 
	.byte	W08
	.byte		N15   , Fs4 
	.byte	W16
	.byte		N08   , Fn4 
	.byte	W08
	.byte		N15   , Fs4 
	.byte	W16
	.byte		N08   , Gs4 
	.byte	W08
	.byte		VOL   , 66*seq_000_mvl/mxv
	.byte		N66   , An4 
	.byte	W72
	.byte		N04
	.byte	W08
	.byte		N04
	.byte	W08
	.byte		N04
	.byte	W08
	.byte	PATT
	 .word	seq_000_5 + 0xCC
	.byte	PATT
	 .word	seq_000_5 + 0xD5
	.byte		N15   , An4 , v100
	.byte	W16
	.byte		N08   , Gs4 
	.byte	W08
	.byte		N15   , An4 
	.byte	W16
	.byte		N08   , Bn4 
	.byte	W08
	.byte		N15   , Cn5 
	.byte	W16
	.byte		N08   , Bn4 
	.byte	W08
	.byte		N15   , Cn5 
	.byte	W16
	.byte		N08   , Dn5 
	.byte	W08
	.byte		VOL   , 56*seq_000_mvl/mxv
	.byte		N15   , Ds5 
	.byte	W16
	.byte		N08   , Dn5 
	.byte	W08
	.byte		N15   , Ds5 
	.byte	W16
	.byte		N08   , Fn5 
	.byte	W08
	.byte		N15   , Fs5 
	.byte	W16
	.byte		N08   , Fn5 
	.byte	W08
	.byte		N15   , Fs5 
	.byte	W16
	.byte		N08   , Gs5 
	.byte	W08
	.byte		TIE   , An5 
	.byte	W96
	.byte		MOD   , 5
	.byte	W24
	.byte		        13
	.byte	W24
	.byte		        21
	.byte	W24
	.byte		        29
	.byte	W24
	.byte		        37
	.byte	W24
	.byte		        45
	.byte	W24
	.byte		        53
	.byte	W24
	.byte		        61
	.byte		VOL   , 51*seq_000_mvl/mxv
	.byte	W03
	.byte		        50*seq_000_mvl/mxv
	.byte	W03
	.byte		        48*seq_000_mvl/mxv
	.byte	W03
	.byte		        46*seq_000_mvl/mxv
	.byte	W04
	.byte		        44*seq_000_mvl/mxv
	.byte	W03
	.byte		        42*seq_000_mvl/mxv
	.byte	W03
	.byte		        40*seq_000_mvl/mxv
	.byte	W03
	.byte		        38*seq_000_mvl/mxv
	.byte	W02
	.byte	W03
	.byte		        36*seq_000_mvl/mxv
	.byte	W03
	.byte		        34*seq_000_mvl/mxv
	.byte	W03
	.byte		        33*seq_000_mvl/mxv
	.byte	W03
	.byte		        31*seq_000_mvl/mxv
	.byte	W05
	.byte		        29*seq_000_mvl/mxv
	.byte	W03
	.byte		        27*seq_000_mvl/mxv
	.byte	W03
	.byte		        25*seq_000_mvl/mxv
	.byte	W03
	.byte		        23*seq_000_mvl/mxv
	.byte	W05
	.byte		        21*seq_000_mvl/mxv
	.byte	W03
	.byte		        19*seq_000_mvl/mxv
	.byte	W03
	.byte		        17*seq_000_mvl/mxv
	.byte	W03
	.byte		        16*seq_000_mvl/mxv
	.byte	W05
	.byte		        14*seq_000_mvl/mxv
	.byte	W03
	.byte		        12*seq_000_mvl/mxv
	.byte	W03
	.byte		        10*seq_000_mvl/mxv
	.byte	W03
	.byte		        8*seq_000_mvl/mxv
	.byte	W05
	.byte		        6*seq_000_mvl/mxv
	.byte	W03
	.byte		        4*seq_000_mvl/mxv
	.byte	W03
	.byte		        2*seq_000_mvl/mxv
	.byte	W03
	.byte		        0*seq_000_mvl/mxv
	.byte	W04
	.byte		EOT
	.byte		VOL   , 0*seq_000_mvl/mxv
	.byte	W24
	.byte	W24
	.byte		MOD   , 8
	.byte	W21
	.byte		VOL   , 103*seq_000_mvl/mxv
	.byte	W48
	.byte	W03
	.byte		N11   , Fs3 
	.byte	W16
	.byte		        Cn3 
	.byte	W16
	.byte		        Ds2 
	.byte	W16
	.byte		        Fs3 
	.byte	W16
	.byte		        Cn3 
	.byte	W16
	.byte		        Ds2 
	.byte	W16
	.byte		N11   , An3 , v100
	.byte	W16
	.byte		        Ds3 
	.byte	W16
	.byte		        Fs2 
	.byte	W16
	.byte		        An3 
	.byte	W16
	.byte		        Ds3 
	.byte	W16
	.byte		        Fs2 
	.byte	W16
	.byte	PEND
	.byte	PATT
	 .word	seq_000_5 + 0x21D
	.byte		N11   , Cn4 , v100
	.byte	W16
	.byte		        Fs3 
	.byte	W16
	.byte		        An2 
	.byte	W16
	.byte		        Cn4 
	.byte	W16
	.byte		        Fs3 
	.byte	W16
	.byte		        An2 
	.byte	W16
	.byte	PEND
	.byte	PATT
	 .word	seq_000_5 + 0x21D
	.byte	PATT
	 .word	seq_000_5 + 0x231
	.byte		N05   , Cn4 , v100
	.byte	W16
	.byte		N05
	.byte	W16
	.byte		N05
	.byte	W16
	.byte		N05
	.byte	W16
	.byte		N05
	.byte	W16
	.byte		N05
	.byte	W16
	.byte		N12
	.byte	W48
	.byte		VOICE , 5
	.byte	W02
	.byte		VOL   , 89*seq_000_mvl/mxv
	.byte	W22
	.byte		N08   , Bn2 
	.byte	W08
	.byte		        Cn3 
	.byte	W08
	.byte		        Dn3 
	.byte	W08
	.byte	GOTO
	 .word	seq_000_5 + 0x23
	.byte	FINE

@*********************** Track 07 ***********************@

seq_000_6:
	.byte	KEYSH , seq_000_key+0
	.byte	W08
	.byte		VOICE , 7
	.byte	W01
	.byte		VOL   , 66*seq_000_mvl/mxv
	.byte	W01
	.byte		PAN   , c_v-64
	.byte	W01
	.byte		LFOS  , 22
	.byte	W01
	.byte		LFODL , 15
	.byte	W01
	.byte		MODT  , mod_vib
	.byte	W01
	.byte		MOD   , 10
	.byte	W01
	.byte		TUNE  , c_v+6
	.byte	W92
	.byte	W01
	.byte	W96
	.byte	W96
	.byte	W80
	.byte		N08   , Bn2 , v100
	.byte	W08
	.byte		        Cn3 
	.byte	W08
	.byte		N08   , Dn3 , v100
	.byte	W08
	.byte		N66   , Ds3 
	.byte	W72
	.byte		N08   , Bn2 
	.byte	W08
	.byte		        Cn3 
	.byte	W08
	.byte	PEND
	.byte		N08   , Dn3 , v100
	.byte	W08
	.byte		N15   , Ds3 
	.byte	W16
	.byte		N08   , Dn3 
	.byte	W08
	.byte		N42   , Ds3 
	.byte	W48
	.byte		N08   , Bn2 
	.byte	W08
	.byte		        Cn3 
	.byte	W08
	.byte	PEND
	.byte		N08   , Dn3 , v100
	.byte	W08
	.byte		N15   , Ds3 
	.byte	W16
	.byte		N08   , Dn3 
	.byte	W08
	.byte		N15   , Ds3 
	.byte	W16
	.byte		N08   , Fn3 
	.byte	W08
	.byte		N15   , Fs3 
	.byte	W16
	.byte		N08   , Fn3 
	.byte	W08
	.byte		N15   , Fs3 
	.byte	W16
	.byte	PEND
	.byte		N08   , Gs3 
	.byte	W08
	.byte		N66   , An3 
	.byte	W72
	.byte		N05
	.byte	W08
	.byte		N05
	.byte	W08
	.byte		N05
	.byte	W08
	.byte		N66
	.byte	W72
	.byte		N05
	.byte	W08
	.byte		N05
	.byte	W08
	.byte		        Gs3 
	.byte	W08
	.byte		N66   , An3 
	.byte	W72
	.byte		N06
	.byte	W08
	.byte		N06
	.byte	W08
	.byte		        Gs3 
	.byte	W08
	.byte		N15   , An3 
	.byte	W16
	.byte		N08   , Gs3 
	.byte	W08
	.byte		N15   , An3 
	.byte	W16
	.byte		N08   , Bn3 
	.byte	W08
	.byte		N15   , Cn4 
	.byte	W16
	.byte		N08   , Bn3 
	.byte	W08
	.byte		N15   , Cn4 
	.byte	W16
	.byte		N08   , Dn4 , v100
	.byte	W08
	.byte		N66   , Ds4 
	.byte	W72
	.byte		N04
	.byte	W08
	.byte		N04
	.byte	W08
	.byte	PEND
	.byte		N04   , Ds4 , v100
	.byte	W08
	.byte		N66
	.byte	W72
	.byte		N04
	.byte	W08
	.byte		N08
	.byte	W08
	.byte	PEND
	.byte		        Dn4 
	.byte	W08
	.byte		N66   , Ds4 
	.byte	W72
	.byte		N04
	.byte	W08
	.byte		N08
	.byte	W08
	.byte		N08   , Dn4 , v100
	.byte	W08
	.byte		N15   , Ds4 
	.byte	W16
	.byte		N08   , Dn4 
	.byte	W08
	.byte		N15   , Ds4 
	.byte	W16
	.byte		N08   , Fn4 
	.byte	W08
	.byte		N15   , Fs4 
	.byte	W16
	.byte		N08   , Fn4 
	.byte	W08
	.byte		N15   , Fs4 
	.byte	W16
	.byte	PEND
	.byte		N08   , Gs4 
	.byte	W08
	.byte		N66   , An4 
	.byte	W72
	.byte		N05
	.byte	W08
	.byte		N05
	.byte	W08
	.byte		N05
	.byte	W08
	.byte		N66
	.byte	W72
	.byte		N05
	.byte	W16
	.byte		N05   , An4 , v100
	.byte	W08
	.byte		N66
	.byte	W72
	.byte		N05
	.byte	W08
	.byte		N08
	.byte	W08
	.byte	PEND
	.byte		N08   , Gs4 , v100
	.byte	W08
	.byte		N15   , An4 
	.byte	W16
	.byte		N08   , Gs4 
	.byte	W08
	.byte		N15   , An4 
	.byte	W16
	.byte		N08   , Bn4 
	.byte	W08
	.byte		N15   , Cn5 
	.byte	W16
	.byte		N08   , Bn4 
	.byte	W08
	.byte		N15   , Cn5 
	.byte	W16
	.byte	PEND
	.byte		N08   , Dn5 
	.byte	W08
	.byte		N60   , Ds5 
	.byte	W68
	.byte		VOICE , 8
	.byte	W01
	.byte		VOL   , 70*seq_000_mvl/mxv
	.byte	W03
	.byte		N08   , Bn2 
	.byte	W08
	.byte		        Cn3 
	.byte	W08
	.byte	PATT
	 .word	seq_000_6 + 0x25
	.byte	PATT
	 .word	seq_000_6 + 0x32
	.byte	PATT
	 .word	seq_000_6 + 0x45
	.byte		N08   , Gs3 , v100
	.byte	W08
	.byte		N66   , An3 
	.byte	W72
	.byte		N04
	.byte	W08
	.byte		N04
	.byte	W08
	.byte		N04
	.byte	W08
	.byte		N66
	.byte	W72
	.byte		N04
	.byte	W08
	.byte		N04
	.byte	W08
	.byte		N05   , Gs3 
	.byte	W08
	.byte		N66   , An3 
	.byte	W72
	.byte		N04
	.byte	W08
	.byte		N08
	.byte	W08
	.byte		        Gs3 
	.byte	W08
	.byte		N15   , An3 
	.byte	W16
	.byte		N08   , Gs3 
	.byte	W08
	.byte		N15   , An3 
	.byte	W16
	.byte		N08   , Bn3 
	.byte	W08
	.byte		N15   , Cn4 
	.byte	W16
	.byte		N08   , Bn3 
	.byte	W08
	.byte		N15   , Cn4 
	.byte	W16
	.byte	PATT
	 .word	seq_000_6 + 0x91
	.byte	PATT
	 .word	seq_000_6 + 0x9D
	.byte		N08   , Dn4 , v100
	.byte	W08
	.byte		N60   , Ds4 
	.byte	W72
	.byte		N04
	.byte	W08
	.byte		N08
	.byte	W08
	.byte	PATT
	 .word	seq_000_6 + 0xB1
	.byte		N08   , Gs4 , v100
	.byte	W08
	.byte		N66   , An4 
	.byte	W72
	.byte		N04
	.byte	W08
	.byte		N04
	.byte	W08
	.byte		N04
	.byte	W08
	.byte		N66
	.byte	W72
	.byte		N05
	.byte	W16
	.byte	PATT
	 .word	seq_000_6 + 0xDB
	.byte	PATT
	 .word	seq_000_6 + 0xE6
	.byte		N08   , Dn5 , v100
	.byte	W08
	.byte		N15   , Ds5 
	.byte	W16
	.byte		N08   , Dn5 
	.byte	W08
	.byte		N15   , Ds5 
	.byte	W16
	.byte		N08   , Fn5 
	.byte	W08
	.byte		N15   , Fs5 
	.byte	W16
	.byte		N08   , Fn5 
	.byte	W08
	.byte		N15   , Fs5 
	.byte	W16
	.byte		N08   , Gs5 
	.byte	W08
	.byte		TIE   , An5 
	.byte	W88
	.byte		MOD   , 11
	.byte	W36
	.byte	W01
	.byte		        13
	.byte	W36
	.byte	W01
	.byte		        15
	.byte	W22
	.byte	W16
	.byte		        17
	.byte	W36
	.byte	W01
	.byte		        19
	.byte	W19
	.byte		        20
	.byte		VOL   , 66*seq_000_mvl/mxv
	.byte	W03
	.byte		        63*seq_000_mvl/mxv
	.byte	W03
	.byte		        61*seq_000_mvl/mxv
	.byte	W03
	.byte		        59*seq_000_mvl/mxv
	.byte	W03
	.byte		        57*seq_000_mvl/mxv
	.byte	W03
	.byte		        55*seq_000_mvl/mxv
	.byte	W03
	.byte		        52*seq_000_mvl/mxv
	.byte	W03
	.byte		        51*seq_000_mvl/mxv
	.byte	W03
	.byte		        49*seq_000_mvl/mxv
	.byte	W03
	.byte		        47*seq_000_mvl/mxv
	.byte	W03
	.byte		        45*seq_000_mvl/mxv
	.byte	W03
	.byte		        42*seq_000_mvl/mxv
	.byte	W03
	.byte		        40*seq_000_mvl/mxv
	.byte	W03
	.byte		        38*seq_000_mvl/mxv
	.byte	W03
	.byte		        36*seq_000_mvl/mxv
	.byte	W03
	.byte		        34*seq_000_mvl/mxv
	.byte	W03
	.byte		        33*seq_000_mvl/mxv
	.byte	W03
	.byte		        30*seq_000_mvl/mxv
	.byte	W03
	.byte		        28*seq_000_mvl/mxv
	.byte	W03
	.byte		        26*seq_000_mvl/mxv
	.byte	W03
	.byte		        24*seq_000_mvl/mxv
	.byte	W03
	.byte		        22*seq_000_mvl/mxv
	.byte	W03
	.byte		        19*seq_000_mvl/mxv
	.byte	W03
	.byte		        17*seq_000_mvl/mxv
	.byte	W03
	.byte		        16*seq_000_mvl/mxv
	.byte	W03
	.byte		        14*seq_000_mvl/mxv
	.byte	W03
	.byte		        12*seq_000_mvl/mxv
	.byte	W03
	.byte		        9*seq_000_mvl/mxv
	.byte	W03
	.byte		        7*seq_000_mvl/mxv
	.byte	W03
	.byte		        5*seq_000_mvl/mxv
	.byte	W03
	.byte		        3*seq_000_mvl/mxv
	.byte	W03
	.byte		        1*seq_000_mvl/mxv
	.byte	W03
	.byte		EOT
	.byte		VOL   , 0*seq_000_mvl/mxv
	.byte	W24
	.byte	W48
	.byte		        70*seq_000_mvl/mxv
	.byte	W03
	.byte		MOD   , 10
	.byte	W44
	.byte	W01
	.byte	W08
	.byte		N11   , Fs3 
	.byte	W16
	.byte		        Cn3 
	.byte	W16
	.byte		        Ds2 
	.byte	W16
	.byte		        Fs3 
	.byte	W16
	.byte		        Cn3 
	.byte	W16
	.byte		        Ds2 
	.byte	W08
	.byte	W08
	.byte		N11   , An3 , v100
	.byte	W16
	.byte		        Ds3 
	.byte	W16
	.byte		        Fs2 
	.byte	W16
	.byte		        An3 
	.byte	W16
	.byte		        Ds3 
	.byte	W16
	.byte		        Fs2 
	.byte	W08
	.byte	PEND
	.byte	PATT
	 .word	seq_000_6 + 0x212
	.byte	W08
	.byte		N11   , Cn4 , v100
	.byte	W16
	.byte		        Fs3 
	.byte	W16
	.byte		        An2 
	.byte	W16
	.byte		        Cn4 
	.byte	W16
	.byte		        Fs3 
	.byte	W16
	.byte		        An2 
	.byte	W08
	.byte	PEND
	.byte	PATT
	 .word	seq_000_6 + 0x212
	.byte	PATT
	 .word	seq_000_6 + 0x227
	.byte	W08
	.byte		N05   , Cn4 , v100
	.byte	W16
	.byte		N05
	.byte	W16
	.byte		N05
	.byte	W16
	.byte		N05
	.byte	W16
	.byte		N05
	.byte	W16
	.byte		N05
	.byte	W08
	.byte	W08
	.byte		N12
	.byte	W40
	.byte		VOICE , 7
	.byte	W03
	.byte		VOL   , 66*seq_000_mvl/mxv
	.byte	W28
	.byte	W01
	.byte		N08   , Bn2 
	.byte	W08
	.byte		        Cn3 
	.byte	W08
	.byte	GOTO
	 .word	seq_000_6 + 0x25
	.byte	FINE

@******************************************************@

	.align	2

seq_000:
	.byte	7	@ NumTrks
	.byte	0	@ NumBlks
	.byte	seq_000_pri	@ Priority
	.byte	seq_000_rev	@ Reverb

	.word	seq_000_grp

	.word	seq_000_0
	.word	seq_000_1
	.word	seq_000_2
	.word	seq_000_3
	.word	seq_000_4
	.word	seq_000_5
	.word	seq_000_6

	.end
